<?xml version="1.0" standalone="no"?>
<!DOCTYPE svg PUBLIC "-//W3C//DTD SVG 1.1//EN"
  "http://www.w3.org/Graphics/SVG/1.1/DTD/svg11.dtd">
<!-- Created with matplotlib (http://matplotlib.sourceforge.net/) -->
<svg width="586pt" height="442pt" viewBox="0 0 586 442"
   xmlns="http://www.w3.org/2000/svg"
   xmlns:xlink="http://www.w3.org/1999/xlink"
   version="1.1"
   id="svg1">
<filter id="colorAdd"><feComposite in="SourceGraphic" in2="BackgroundImage" operator="arithmetic" k2="1" k3="1"/></filter>
<g id="figure1">
<g id="patch1">
<path style="fill: #ffffff; stroke: #ffffff; stroke-width: 1.000000; stroke-linejoin: round; stroke-linecap: square;  opacity: 1.000000"  d="M0.000000 442.800000L586.800000 442.800000L586.800000 0.000000
L0.000000 0.000000z"/>
</g>
<g id="patch2">
<path style="fill: #ffffff; opacity: 1.000000"  d="M0.000000 442.800000L586.800000 442.800000L586.800000 0.000000
L0.000000 0.000000z"/>
</g>
<g id="pane3d1">
<g id="patch3">
<path style="fill: #f2f2f2; stroke: #f2f2f2; stroke-width: 1.000000; stroke-linejoin: round; stroke-linecap: square;  opacity: 0.500000"  d="M302.018356 233.594823L529.076196 320.933743L541.257714 104.836435
L302.052917 26.439864"/>
</g>
</g>
<g id="pane3d2">
<g id="patch4">
<path style="fill: #e6e6e6; stroke: #e6e6e6; stroke-width: 1.000000; stroke-linejoin: round; stroke-linecap: square;  opacity: 0.500000"  d="M302.018356 233.594823L73.674210 320.339773L61.502678 104.301617
L302.052917 26.439864"/>
</g>
</g>
<g id="pane3d3">
<g id="patch5">
<path style="fill: #ececec; stroke: #ececec; stroke-width: 1.000000; stroke-linejoin: round; stroke-linecap: square;  opacity: 0.500000"  d="M302.018356 233.594823L73.674210 320.339773L300.549804 419.218713
L529.076196 320.933743"/>
</g>
</g>
<g id="axis3d1">
<g id="line2d1">
<path style="fill: none; stroke: #000000; stroke-width: 0.750000; stroke-linejoin: round; stroke-linecap: square;  opacity: 1.000000"  d="M529.076196 320.933743L300.549804 419.218713"/>
</g>
<g id="text1">
<defs>
<path id="c_4c6532c564269b2c70b230c2e45c01e4" d="M44.390625 -34.187500q3.171875 1.078125 6.171875 4.593750q3.000000 3.515625 6.031250 9.671875l10.015625 19.921875l-10.609375 0.000000l-9.312500 -18.703125q-3.625000 -7.328125 -7.015625 -9.718750q-3.390625 -2.390625 -9.250000 -2.390625l-10.750000 0.000000l0.000000 30.812500l-9.859375 0.000000l0.000000 -72.906250l22.265625 0.000000q12.500000 0.000000 18.656250 5.234375q6.156250 5.218750 6.156250 15.765625q0.000000 6.890625 -3.203125 11.437500q-3.203125 4.531250 -9.296875 6.281250M19.671875 -64.796875l0.000000 25.875000l12.406250 0.000000q7.125000 0.000000 10.765625 -3.296875q3.640625 -3.296875 3.640625 -9.687500q0.000000 -6.390625 -3.640625 -9.640625q-3.640625 -3.250000 -10.765625 -3.250000z"/>
<path id="c_0bce5afba2dc6b9024b26277c38ad8e8" d="M56.203125 -29.593750l0.000000 4.390625l-41.312500 0.000000q0.593750 9.281250 5.593750 14.140625q5.000000 4.859375 13.937500 4.859375q5.171875 0.000000 10.031250 -1.265625q4.859375 -1.265625 9.656250 -3.812500l0.000000 8.500000q-4.843750 2.046875 -9.921875 3.125000q-5.078125 1.078125 -10.296875 1.078125q-13.093750 0.000000 -20.734375 -7.609375q-7.640625 -7.625000 -7.640625 -20.625000q0.000000 -13.421875 7.250000 -21.296875q7.250000 -7.890625 19.562500 -7.890625q11.031250 0.000000 17.453125 7.109375q6.421875 7.093750 6.421875 19.296875M47.218750 -32.234375q-0.093750 -7.359375 -4.125000 -11.750000q-4.031250 -4.406250 -10.671875 -4.406250q-7.515625 0.000000 -12.031250 4.250000q-4.515625 4.250000 -5.203125 11.968750z"/>
<path id="c_4653c6dfde66c7610eae0911760d3490" d="M52.000000 -44.187500q3.375000 -6.062500 8.062500 -8.937500q4.687500 -2.875000 11.031250 -2.875000q8.546875 0.000000 13.187500 5.984375q4.640625 5.968750 4.640625 17.000000l0.000000 33.015625l-9.031250 0.000000l0.000000 -32.718750q0.000000 -7.859375 -2.796875 -11.656250q-2.781250 -3.812500 -8.484375 -3.812500q-6.984375 0.000000 -11.046875 4.640625q-4.046875 4.625000 -4.046875 12.640625l0.000000 30.906250l-9.031250 0.000000l0.000000 -32.718750q0.000000 -7.906250 -2.781250 -11.687500q-2.781250 -3.781250 -8.593750 -3.781250q-6.890625 0.000000 -10.953125 4.656250q-4.046875 4.656250 -4.046875 12.625000l0.000000 30.906250l-9.031250 0.000000l0.000000 -54.687500l9.031250 0.000000l0.000000 8.500000q3.078125 -5.031250 7.375000 -7.421875q4.296875 -2.390625 10.203125 -2.390625q5.968750 0.000000 10.140625 3.031250q4.171875 3.015625 6.171875 8.781250"/>
<path id="c_f05dd90d41f04bb96ef1ca503cc2044b" d="M30.609375 -48.390625q-7.218750 0.000000 -11.421875 5.640625q-4.203125 5.640625 -4.203125 15.453125q0.000000 9.812500 4.171875 15.453125q4.187500 5.640625 11.453125 5.640625q7.187500 0.000000 11.375000 -5.656250q4.203125 -5.671875 4.203125 -15.437500q0.000000 -9.718750 -4.203125 -15.406250q-4.187500 -5.687500 -11.375000 -5.687500M30.609375 -56.000000q11.718750 0.000000 18.406250 7.625000q6.703125 7.609375 6.703125 21.078125q0.000000 13.421875 -6.703125 21.078125q-6.687500 7.640625 -18.406250 7.640625q-11.765625 0.000000 -18.437500 -7.640625q-6.656250 -7.656250 -6.656250 -21.078125q0.000000 -13.468750 6.656250 -21.078125q6.671875 -7.625000 18.437500 -7.625000"/>
<path id="c_c48ceabac27bf136feba2f4bf2716ab6" d="M2.984375 -54.687500l9.515625 0.000000l17.093750 45.890625l17.093750 -45.890625l9.515625 0.000000l-20.515625 54.687500l-12.203125 0.000000z"/>
</defs>
<g style="fill: #000000; opacity: 1.000000" transform="translate(423.204487,413.779143)rotate(-23.3)scale(0.120000)">
<use xlink:href="#c_4c6532c564269b2c70b230c2e45c01e4"/>
<use xlink:href="#c_0bce5afba2dc6b9024b26277c38ad8e8" x="64.982422"/>
<use xlink:href="#c_4653c6dfde66c7610eae0911760d3490" x="126.505859"/>
<use xlink:href="#c_f05dd90d41f04bb96ef1ca503cc2044b" x="223.917969"/>
<use xlink:href="#c_c48ceabac27bf136feba2f4bf2716ab6" x="285.099609"/>
<use xlink:href="#c_0bce5afba2dc6b9024b26277c38ad8e8" x="344.279297"/>
</g>
</g>
<g id="Line3DCollection1">
<defs>
<path id="coll0_0_c697f8ca97b47d14260fcc51dad34af9" d="M524.783638 -120.020107L297.712893 -207.569588L297.531146 -414.896520"/>
<path id="coll0_1_79ce098b1c2a387fc9e9802835b64b5f" d="M490.055722 -105.084274L262.903635 -194.346007L260.953567 -403.057021"/>
<path id="coll0_2_1e2fa89bbf1bafa523b9114a19dd75a2" d="M454.624175 -89.845821L227.431349 -180.870550L223.643566 -390.980450"/>
<path id="coll0_3_6e23568f3422b8e481ee452aa2f91930" d="M418.467393 -74.295458L191.276908 -167.135951L185.578922 -378.659615"/>
<path id="coll0_4_448e8fa14f2ebc242c2b9c3109376499" d="M381.562878 -58.423510L154.420445 -153.134664L146.736506 -366.087029"/>
<path id="coll0_5_4db4db431613dabbd376406dc38b92b4" d="M343.887193 -42.219896L116.841312 -138.858843L107.092234 -353.254896"/>
</defs>
<use style="fill: none; stroke: #e6e6e6; stroke-width: 1.000000; stroke-linejoin: round; stroke-linecap: butt;  opacity: 1.000000" xlink:href="#coll0_0_c697f8ca97b47d14260fcc51dad34af9" x="0.000000" y="442.800000"/>
<use style="fill: none; stroke: #e6e6e6; stroke-width: 1.000000; stroke-linejoin: round; stroke-linecap: butt;  opacity: 1.000000" xlink:href="#coll0_1_79ce098b1c2a387fc9e9802835b64b5f" x="0.000000" y="442.800000"/>
<use style="fill: none; stroke: #e6e6e6; stroke-width: 1.000000; stroke-linejoin: round; stroke-linecap: butt;  opacity: 1.000000" xlink:href="#coll0_2_1e2fa89bbf1bafa523b9114a19dd75a2" x="0.000000" y="442.800000"/>
<use style="fill: none; stroke: #e6e6e6; stroke-width: 1.000000; stroke-linejoin: round; stroke-linecap: butt;  opacity: 1.000000" xlink:href="#coll0_3_6e23568f3422b8e481ee452aa2f91930" x="0.000000" y="442.800000"/>
<use style="fill: none; stroke: #e6e6e6; stroke-width: 1.000000; stroke-linejoin: round; stroke-linecap: butt;  opacity: 1.000000" xlink:href="#coll0_4_448e8fa14f2ebc242c2b9c3109376499" x="0.000000" y="442.800000"/>
<use style="fill: none; stroke: #e6e6e6; stroke-width: 1.000000; stroke-linejoin: round; stroke-linecap: butt;  opacity: 1.000000" xlink:href="#coll0_5_4db4db431613dabbd376406dc38b92b4" x="0.000000" y="442.800000"/>
</g>
<g id="xtick1">
<g id="line2d2">
<path style="fill: none; stroke: #000000; stroke-width: 1.000000; stroke-linejoin: round; stroke-linecap: square;  opacity: 1.000000"  d="M522.854575 322.036123L528.647553 324.269665"/>
</g>
<g id="text2">
<defs>
<path id="c_7a2040fe3b94fcd41d0a72c84e93b115" d="M31.781250 -66.406250q-7.609375 0.000000 -11.453125 7.500000q-3.828125 7.484375 -3.828125 22.531250q0.000000 14.984375 3.828125 22.484375q3.843750 7.500000 11.453125 7.500000q7.671875 0.000000 11.500000 -7.500000q3.843750 -7.500000 3.843750 -22.484375q0.000000 -15.046875 -3.843750 -22.531250q-3.828125 -7.500000 -11.500000 -7.500000M31.781250 -74.218750q12.265625 0.000000 18.734375 9.703125q6.468750 9.687500 6.468750 28.140625q0.000000 18.406250 -6.468750 28.109375q-6.468750 9.687500 -18.734375 9.687500q-12.250000 0.000000 -18.718750 -9.687500q-6.468750 -9.703125 -6.468750 -28.109375q0.000000 -18.453125 6.468750 -28.140625q6.468750 -9.703125 18.718750 -9.703125"/>
<path id="c_ed3e21196fb739f392806f09ca0594ef" d="M10.687500 -12.406250l10.312500 0.000000l0.000000 12.406250l-10.312500 0.000000z"/>
<path id="c_42baa63129a918535c52adb20d687ea7" d="M12.406250 -8.296875l16.109375 0.000000l0.000000 -55.625000l-17.531250 3.515625l0.000000 -8.984375l17.437500 -3.515625l9.859375 0.000000l0.000000 64.609375l16.109375 0.000000l0.000000 8.296875l-41.984375 0.000000z"/>
</defs>
<g style="fill: #000000; opacity: 1.000000" transform="translate(527.230970,346.012738)scale(0.120000)">
<use xlink:href="#c_7a2040fe3b94fcd41d0a72c84e93b115"/>
<use xlink:href="#c_ed3e21196fb739f392806f09ca0594ef" x="63.623047"/>
<use xlink:href="#c_42baa63129a918535c52adb20d687ea7" x="95.410156"/>
</g>
</g>
</g>
<g id="xtick2">
<g id="line2d3">
<path style="fill: none; stroke: #000000; stroke-width: 1.000000; stroke-linejoin: round; stroke-linecap: square;  opacity: 1.000000"  d="M488.124840 336.956967L493.923340 339.235546"/>
</g>
<g id="text3">
<defs>
<path id="c_ed3f3ed3ebfbd18bcb9c012009a68ad1" d="M19.187500 -8.296875l34.421875 0.000000l0.000000 8.296875l-46.281250 0.000000l0.000000 -8.296875q5.609375 -5.812500 15.296875 -15.593750q9.703125 -9.796875 12.187500 -12.640625q4.734375 -5.312500 6.609375 -9.000000q1.890625 -3.687500 1.890625 -7.250000q0.000000 -5.812500 -4.078125 -9.468750q-4.078125 -3.671875 -10.625000 -3.671875q-4.640625 0.000000 -9.796875 1.609375q-5.140625 1.609375 -11.000000 4.890625l0.000000 -9.968750q5.953125 -2.390625 11.125000 -3.609375q5.187500 -1.218750 9.484375 -1.218750q11.328125 0.000000 18.062500 5.671875q6.734375 5.656250 6.734375 15.125000q0.000000 4.500000 -1.687500 8.531250q-1.671875 4.015625 -6.125000 9.484375q-1.218750 1.421875 -7.765625 8.187500q-6.531250 6.765625 -18.453125 18.921875"/>
</defs>
<g style="fill: #000000; opacity: 1.000000" transform="translate(492.641140,361.100757)scale(0.120000)">
<use xlink:href="#c_7a2040fe3b94fcd41d0a72c84e93b115"/>
<use xlink:href="#c_ed3e21196fb739f392806f09ca0594ef" x="63.623047"/>
<use xlink:href="#c_ed3f3ed3ebfbd18bcb9c012009a68ad1" x="95.410156"/>
</g>
</g>
</g>
<g id="xtick3">
<g id="line2d4">
<path style="fill: none; stroke: #000000; stroke-width: 1.000000; stroke-linejoin: round; stroke-linecap: square;  opacity: 1.000000"  d="M452.691796 352.179972L458.494851 354.504964"/>
</g>
<g id="text4">
<defs>
<path id="c_3dcfa38a02242cb63ec6726c6e70be7a" d="M40.578125 -39.312500q7.078125 1.515625 11.046875 6.312500q3.984375 4.781250 3.984375 11.812500q0.000000 10.781250 -7.421875 16.703125q-7.421875 5.906250 -21.093750 5.906250q-4.578125 0.000000 -9.437500 -0.906250q-4.859375 -0.906250 -10.031250 -2.718750l0.000000 -9.515625q4.093750 2.390625 8.968750 3.609375q4.890625 1.218750 10.218750 1.218750q9.265625 0.000000 14.125000 -3.656250q4.859375 -3.656250 4.859375 -10.640625q0.000000 -6.453125 -4.515625 -10.078125q-4.515625 -3.640625 -12.562500 -3.640625l-8.500000 0.000000l0.000000 -8.109375l8.890625 0.000000q7.265625 0.000000 11.125000 -2.906250q3.859375 -2.906250 3.859375 -8.375000q0.000000 -5.609375 -3.984375 -8.609375q-3.968750 -3.015625 -11.390625 -3.015625q-4.062500 0.000000 -8.703125 0.890625q-4.640625 0.875000 -10.203125 2.718750l0.000000 -8.781250q5.625000 -1.562500 10.531250 -2.343750q4.906250 -0.781250 9.250000 -0.781250q11.234375 0.000000 17.765625 5.109375q6.546875 5.093750 6.546875 13.781250q0.000000 6.062500 -3.468750 10.234375q-3.468750 4.171875 -9.859375 5.781250"/>
</defs>
<g style="fill: #000000; opacity: 1.000000" transform="translate(457.185065,376.494652)scale(0.120000)">
<use xlink:href="#c_7a2040fe3b94fcd41d0a72c84e93b115"/>
<use xlink:href="#c_ed3e21196fb739f392806f09ca0594ef" x="63.623047"/>
<use xlink:href="#c_3dcfa38a02242cb63ec6726c6e70be7a" x="95.410156"/>
</g>
</g>
</g>
<g id="xtick4">
<g id="line2d5">
<path style="fill: none; stroke: #000000; stroke-width: 1.000000; stroke-linejoin: round; stroke-linecap: square;  opacity: 1.000000"  d="M416.533858 367.714410L422.340442 370.087248"/>
</g>
<g id="text5">
<defs>
<path id="c_a0416418d96557a09b8c1332d34883ba" d="M37.796875 -64.312500l-24.906250 38.921875l24.906250 0.000000zM35.203125 -72.906250l12.406250 0.000000l0.000000 47.515625l10.406250 0.000000l0.000000 8.203125l-10.406250 0.000000l0.000000 17.187500l-9.812500 0.000000l0.000000 -17.187500l-32.906250 0.000000l0.000000 -9.515625z"/>
</defs>
<g style="fill: #000000; opacity: 1.000000" transform="translate(420.973985,392.203820)scale(0.120000)">
<use xlink:href="#c_7a2040fe3b94fcd41d0a72c84e93b115"/>
<use xlink:href="#c_ed3e21196fb739f392806f09ca0594ef" x="63.623047"/>
<use xlink:href="#c_a0416418d96557a09b8c1332d34883ba" x="95.410156"/>
</g>
</g>
</g>
<g id="xtick5">
<g id="line2d6">
<path style="fill: none; stroke: #000000; stroke-width: 1.000000; stroke-linejoin: round; stroke-linecap: square;  opacity: 1.000000"  d="M379.628554 383.569939L385.437571 385.992114"/>
</g>
<g id="text6">
<defs>
<path id="c_1260a2df50f305f3db244e29828f968e" d="M10.796875 -72.906250l38.718750 0.000000l0.000000 8.312500l-29.687500 0.000000l0.000000 17.859375q2.140625 -0.734375 4.281250 -1.093750q2.156250 -0.359375 4.312500 -0.359375q12.203125 0.000000 19.328125 6.687500q7.140625 6.687500 7.140625 18.109375q0.000000 11.765625 -7.328125 18.296875q-7.328125 6.515625 -20.656250 6.515625q-4.593750 0.000000 -9.359375 -0.781250q-4.750000 -0.781250 -9.828125 -2.343750l0.000000 -9.921875q4.390625 2.390625 9.078125 3.562500q4.687500 1.171875 9.906250 1.171875q8.453125 0.000000 13.375000 -4.437500q4.937500 -4.437500 4.937500 -12.062500q0.000000 -7.609375 -4.937500 -12.046875q-4.921875 -4.453125 -13.375000 -4.453125q-3.953125 0.000000 -7.890625 0.875000q-3.921875 0.875000 -8.015625 2.734375z"/>
</defs>
<g style="fill: #000000; opacity: 1.000000" transform="translate(384.352623,408.238048)scale(0.120000)">
<use xlink:href="#c_7a2040fe3b94fcd41d0a72c84e93b115"/>
<use xlink:href="#c_ed3e21196fb739f392806f09ca0594ef" x="63.623047"/>
<use xlink:href="#c_1260a2df50f305f3db244e29828f968e" x="95.410156"/>
</g>
</g>
</g>
<g id="xtick6">
<g id="line2d7">
<path style="fill: none; stroke: #000000; stroke-width: 1.000000; stroke-linejoin: round; stroke-linecap: square;  opacity: 1.000000"  d="M341.952468 399.756615L347.762753 402.229683"/>
</g>
<g id="text7">
<defs>
<path id="c_cc8d6d580d1b10c8632f7a42cd53db8a" d="M33.015625 -40.375000q-6.640625 0.000000 -10.531250 4.546875q-3.875000 4.531250 -3.875000 12.437500q0.000000 7.859375 3.875000 12.437500q3.890625 4.562500 10.531250 4.562500q6.640625 0.000000 10.515625 -4.562500q3.875000 -4.578125 3.875000 -12.437500q0.000000 -7.906250 -3.875000 -12.437500q-3.875000 -4.546875 -10.515625 -4.546875M52.593750 -71.296875l0.000000 8.984375q-3.718750 -1.750000 -7.500000 -2.671875q-3.781250 -0.937500 -7.500000 -0.937500q-9.765625 0.000000 -14.921875 6.593750q-5.140625 6.593750 -5.875000 19.921875q2.875000 -4.250000 7.218750 -6.515625q4.359375 -2.265625 9.578125 -2.265625q10.984375 0.000000 17.359375 6.671875q6.375000 6.656250 6.375000 18.125000q0.000000 11.234375 -6.640625 18.031250q-6.640625 6.781250 -17.671875 6.781250q-12.656250 0.000000 -19.343750 -9.687500q-6.687500 -9.703125 -6.687500 -28.109375q0.000000 -17.281250 8.203125 -27.562500q8.203125 -10.281250 22.015625 -10.281250q3.718750 0.000000 7.500000 0.734375q3.781250 0.734375 7.890625 2.187500"/>
</defs>
<g style="fill: #000000; opacity: 1.000000" transform="translate(346.633513,424.607529)scale(0.120000)">
<use xlink:href="#c_7a2040fe3b94fcd41d0a72c84e93b115"/>
<use xlink:href="#c_ed3e21196fb739f392806f09ca0594ef" x="63.623047"/>
<use xlink:href="#c_cc8d6d580d1b10c8632f7a42cd53db8a" x="95.410156"/>
</g>
</g>
</g>
</g>
<g id="axis3d2">
<g id="line2d8">
<path style="fill: none; stroke: #000000; stroke-width: 0.750000; stroke-linejoin: round; stroke-linecap: square;  opacity: 1.000000"  d="M73.674210 320.339773L300.549804 419.218713"/>
</g>
<g id="text8">
<defs>
<path id="c_b672e4bee30772019085dff1098f516d" d="M53.515625 -70.515625l0.000000 9.625000q-5.609375 -2.687500 -10.593750 -4.000000q-4.984375 -1.328125 -9.625000 -1.328125q-8.046875 0.000000 -12.421875 3.125000q-4.375000 3.125000 -4.375000 8.890625q0.000000 4.843750 2.906250 7.312500q2.906250 2.453125 11.015625 3.968750l5.953125 1.218750q11.031250 2.109375 16.281250 7.406250q5.250000 5.296875 5.250000 14.171875q0.000000 10.609375 -7.109375 16.078125q-7.093750 5.468750 -20.812500 5.468750q-5.171875 0.000000 -11.015625 -1.171875q-5.828125 -1.171875 -12.078125 -3.468750l0.000000 -10.156250q6.000000 3.359375 11.765625 5.078125q5.765625 1.703125 11.328125 1.703125q8.437500 0.000000 13.031250 -3.312500q4.593750 -3.328125 4.593750 -9.484375q0.000000 -5.359375 -3.296875 -8.390625q-3.296875 -3.031250 -10.812500 -4.546875l-6.015625 -1.171875q-11.031250 -2.187500 -15.968750 -6.875000q-4.921875 -4.687500 -4.921875 -13.046875q0.000000 -9.671875 6.812500 -15.234375q6.812500 -5.562500 18.765625 -5.562500q5.140625 0.000000 10.453125 0.937500q5.328125 0.921875 10.890625 2.765625"/>
<path id="c_74d54c94aa871ec39e2bc6697dde6c00" d="M54.890625 -33.015625l0.000000 33.015625l-8.984375 0.000000l0.000000 -32.718750q0.000000 -7.765625 -3.031250 -11.609375q-3.031250 -3.859375 -9.078125 -3.859375q-7.281250 0.000000 -11.484375 4.640625q-4.203125 4.625000 -4.203125 12.640625l0.000000 30.906250l-9.031250 0.000000l0.000000 -75.984375l9.031250 0.000000l0.000000 29.796875q3.234375 -4.937500 7.593750 -7.375000q4.375000 -2.437500 10.093750 -2.437500q9.421875 0.000000 14.250000 5.828125q4.843750 5.828125 4.843750 17.156250"/>
<path id="c_01d93a582460e35a7945ca50d148ffeb" d="M34.281250 -27.484375q-10.890625 0.000000 -15.093750 2.484375q-4.203125 2.484375 -4.203125 8.500000q0.000000 4.781250 3.156250 7.593750q3.156250 2.796875 8.562500 2.796875q7.484375 0.000000 12.000000 -5.296875q4.515625 -5.296875 4.515625 -14.078125l0.000000 -2.000000zM52.203125 -31.203125l0.000000 31.203125l-8.984375 0.000000l0.000000 -8.296875q-3.078125 4.968750 -7.671875 7.343750q-4.593750 2.375000 -11.234375 2.375000q-8.390625 0.000000 -13.359375 -4.718750q-4.953125 -4.718750 -4.953125 -12.625000q0.000000 -9.218750 6.171875 -13.906250q6.187500 -4.687500 18.437500 -4.687500l12.609375 0.000000l0.000000 -0.890625q0.000000 -6.203125 -4.078125 -9.593750q-4.078125 -3.390625 -11.453125 -3.390625q-4.687500 0.000000 -9.140625 1.125000q-4.437500 1.125000 -8.531250 3.375000l0.000000 -8.312500q4.921875 -1.906250 9.562500 -2.843750q4.640625 -0.953125 9.031250 -0.953125q11.875000 0.000000 17.734375 6.156250q5.859375 6.140625 5.859375 18.640625"/>
<path id="c_dcb78ab3124be785176d70a27dde1356" d="M9.078125 -75.984375l9.031250 0.000000l0.000000 44.875000l26.812500 -23.578125l11.468750 0.000000l-29.000000 25.578125l30.234375 29.109375l-11.718750 0.000000l-27.796875 -26.703125l0.000000 26.703125l-9.031250 0.000000z"/>
</defs>
<g style="fill: #000000; opacity: 1.000000" transform="translate(140.816199,397.259679)rotate(-336.5)scale(0.120000)">
<use xlink:href="#c_b672e4bee30772019085dff1098f516d"/>
<use xlink:href="#c_74d54c94aa871ec39e2bc6697dde6c00" x="63.476562"/>
<use xlink:href="#c_01d93a582460e35a7945ca50d148ffeb" x="126.855469"/>
<use xlink:href="#c_dcb78ab3124be785176d70a27dde1356" x="188.134766"/>
<use xlink:href="#c_0bce5afba2dc6b9024b26277c38ad8e8" x="242.419922"/>
</g>
</g>
<g id="Line3DCollection2">
<defs>
<path id="coll1_0_1690907bad3fa28263246d9cf8a8af1d" d="M306.547542 -414.887075L306.297888 -207.559034L77.934090 -120.603648"/>
<path id="coll1_1_1fe98ba10749395f5cc9bcb3932a32f7" d="M342.908135 -402.970317L340.899864 -194.249213L112.399984 -105.582416"/>
<path id="coll1_2_fe56841d8d0b2e7f179077afa4ad8d50" d="M380.001599 -390.813368L376.165255 -180.684206L147.568512 -90.254955"/>
<path id="coll1_3_f9110ba3f0ad80653764458432fb4fb3" d="M417.850315 -378.408895L412.113324 -166.856603L183.461382 -74.611805"/>
<path id="coll1_4_30c5a38214f751a54a7f14f50f513060" d="M456.477587 -365.749259L448.764089 -152.758705L220.101205 -58.643111"/>
<path id="coll1_5_c6c83e2a4a13832d39b7bafce22d93a6" d="M495.907688 -352.826505L486.138358 -138.382508L257.511543 -42.338605"/>
</defs>
<use style="fill: none; stroke: #e6e6e6; stroke-width: 1.000000; stroke-linejoin: round; stroke-linecap: butt;  opacity: 1.000000" xlink:href="#coll1_0_1690907bad3fa28263246d9cf8a8af1d" x="0.000000" y="442.800000"/>
<use style="fill: none; stroke: #e6e6e6; stroke-width: 1.000000; stroke-linejoin: round; stroke-linecap: butt;  opacity: 1.000000" xlink:href="#coll1_1_1fe98ba10749395f5cc9bcb3932a32f7" x="0.000000" y="442.800000"/>
<use style="fill: none; stroke: #e6e6e6; stroke-width: 1.000000; stroke-linejoin: round; stroke-linecap: butt;  opacity: 1.000000" xlink:href="#coll1_2_fe56841d8d0b2e7f179077afa4ad8d50" x="0.000000" y="442.800000"/>
<use style="fill: none; stroke: #e6e6e6; stroke-width: 1.000000; stroke-linejoin: round; stroke-linecap: butt;  opacity: 1.000000" xlink:href="#coll1_3_f9110ba3f0ad80653764458432fb4fb3" x="0.000000" y="442.800000"/>
<use style="fill: none; stroke: #e6e6e6; stroke-width: 1.000000; stroke-linejoin: round; stroke-linecap: butt;  opacity: 1.000000" xlink:href="#coll1_4_30c5a38214f751a54a7f14f50f513060" x="0.000000" y="442.800000"/>
<use style="fill: none; stroke: #e6e6e6; stroke-width: 1.000000; stroke-linejoin: round; stroke-linecap: butt;  opacity: 1.000000" xlink:href="#coll1_5_c6c83e2a4a13832d39b7bafce22d93a6" x="0.000000" y="442.800000"/>
</g>
<g id="xtick7">
<g id="line2d9">
<path style="fill: none; stroke: #000000; stroke-width: 1.000000; stroke-linejoin: round; stroke-linecap: square;  opacity: 1.000000"  d="M79.873370 321.457921L74.049750 323.675414"/>
</g>
<g id="text9">
<g style="fill: #000000; opacity: 1.000000" transform="translate(58.237791,345.394394)scale(0.120000)">
<use xlink:href="#c_7a2040fe3b94fcd41d0a72c84e93b115"/>
<use xlink:href="#c_ed3e21196fb739f392806f09ca0594ef" x="63.623047"/>
<use xlink:href="#c_42baa63129a918535c52adb20d687ea7" x="95.410156"/>
</g>
</g>
</g>
<g id="xtick8">
<g id="line2d10">
<path style="fill: none; stroke: #000000; stroke-width: 1.000000; stroke-linejoin: round; stroke-linecap: square;  opacity: 1.000000"  d="M114.341553 336.464180L108.510999 338.726661"/>
</g>
<g id="text10">
<g style="fill: #000000; opacity: 1.000000" transform="translate(92.657230,360.568090)scale(0.120000)">
<use xlink:href="#c_7a2040fe3b94fcd41d0a72c84e93b115"/>
<use xlink:href="#c_ed3e21196fb739f392806f09ca0594ef" x="63.623047"/>
<use xlink:href="#c_ed3f3ed3ebfbd18bcb9c012009a68ad1" x="95.410156"/>
</g>
</g>
</g>
<g id="xtick9">
<g id="line2d11">
<path style="fill: none; stroke: #000000; stroke-width: 1.000000; stroke-linejoin: round; stroke-linecap: square;  opacity: 1.000000"  d="M149.512062 351.776208L143.675500 354.085059"/>
</g>
<g id="text11">
<g style="fill: #000000; opacity: 1.000000" transform="translate(127.613724,376.051292)scale(0.120000)">
<use xlink:href="#c_7a2040fe3b94fcd41d0a72c84e93b115"/>
<use xlink:href="#c_ed3e21196fb739f392806f09ca0594ef" x="63.623047"/>
<use xlink:href="#c_3dcfa38a02242cb63ec6726c6e70be7a" x="95.410156"/>
</g>
</g>
</g>
<g id="xtick10">
<g id="line2d12">
<path style="fill: none; stroke: #000000; stroke-width: 1.000000; stroke-linejoin: round; stroke-linecap: square;  opacity: 1.000000"  d="M185.406583 367.403445L179.565003 369.760107"/>
</g>
<g id="text12">
<g style="fill: #000000; opacity: 1.000000" transform="translate(163.261757,391.853569)scale(0.120000)">
<use xlink:href="#c_7a2040fe3b94fcd41d0a72c84e93b115"/>
<use xlink:href="#c_ed3e21196fb739f392806f09ca0594ef" x="63.623047"/>
<use xlink:href="#c_a0416418d96557a09b8c1332d34883ba" x="95.410156"/>
</g>
</g>
</g>
<g id="xtick11">
<g id="line2d13">
<path style="fill: none; stroke: #000000; stroke-width: 1.000000; stroke-linejoin: round; stroke-linecap: square;  opacity: 1.000000"  d="M222.047705 383.355727L216.202161 385.761700"/>
</g>
<g id="text13">
<g style="fill: #000000; opacity: 1.000000" transform="translate(199.991093,407.984885)scale(0.120000)">
<use xlink:href="#c_7a2040fe3b94fcd41d0a72c84e93b115"/>
<use xlink:href="#c_ed3e21196fb739f392806f09ca0594ef" x="63.623047"/>
<use xlink:href="#c_1260a2df50f305f3db244e29828f968e" x="95.410156"/>
</g>
</g>
</g>
<g id="xtick12">
<g id="line2d14">
<path style="fill: none; stroke: #000000; stroke-width: 1.000000; stroke-linejoin: round; stroke-linecap: square;  opacity: 1.000000"  d="M259.458968 399.643301L253.610583 402.100150"/>
</g>
<g id="text14">
<g style="fill: #000000; opacity: 1.000000" transform="translate(237.161194,424.455626)scale(0.120000)">
<use xlink:href="#c_7a2040fe3b94fcd41d0a72c84e93b115"/>
<use xlink:href="#c_ed3e21196fb739f392806f09ca0594ef" x="63.623047"/>
<use xlink:href="#c_cc8d6d580d1b10c8632f7a42cd53db8a" x="95.410156"/>
</g>
</g>
</g>
</g>
<g id="axis3d3">
<g id="line2d15">
<path style="fill: none; stroke: #000000; stroke-width: 0.750000; stroke-linejoin: round; stroke-linecap: square;  opacity: 1.000000"  d="M73.674210 320.339773L61.502678 104.301617"/>
</g>
<g id="text15">
<defs>
<path id="c_a469f8ee191679fe73f3b765bd271597" d="M64.406250 -67.281250l0.000000 10.390625q-4.984375 -4.640625 -10.625000 -6.921875q-5.640625 -2.296875 -11.984375 -2.296875q-12.500000 0.000000 -19.140625 7.640625q-6.640625 7.640625 -6.640625 22.093750q0.000000 14.406250 6.640625 22.046875q6.640625 7.640625 19.140625 7.640625q6.343750 0.000000 11.984375 -2.296875q5.640625 -2.296875 10.625000 -6.937500l0.000000 10.312500q-5.171875 3.515625 -10.968750 5.281250q-5.781250 1.750000 -12.218750 1.750000q-16.562500 0.000000 -26.093750 -10.125000q-9.515625 -10.140625 -9.515625 -27.671875q0.000000 -17.578125 9.515625 -27.703125q9.531250 -10.140625 26.093750 -10.140625q6.531250 0.000000 12.312500 1.734375q5.796875 1.734375 10.875000 5.203125"/>
<path id="c_6ec8d5749226675394676a5d2a3b468b" d="M41.109375 -46.296875q-1.515625 -0.875000 -3.296875 -1.281250q-1.781250 -0.421875 -3.921875 -0.421875q-7.625000 0.000000 -11.703125 4.953125q-4.078125 4.953125 -4.078125 14.234375l0.000000 28.812500l-9.031250 0.000000l0.000000 -54.687500l9.031250 0.000000l0.000000 8.500000q2.843750 -4.984375 7.375000 -7.390625q4.546875 -2.421875 11.046875 -2.421875q0.921875 0.000000 2.046875 0.125000q1.125000 0.109375 2.484375 0.359375z"/>
<path id="c_6a63bda47b2f3da1cec6aadd80692cfe" d="M9.421875 -54.687500l8.984375 0.000000l0.000000 54.687500l-8.984375 0.000000zM9.421875 -75.984375l8.984375 0.000000l0.000000 11.390625l-8.984375 0.000000z"/>
<path id="c_0f8c41144cfbf448378cb6fd1cc8e549" d="M18.312500 -70.218750l0.000000 15.531250l18.500000 0.000000l0.000000 6.984375l-18.500000 0.000000l0.000000 29.687500q0.000000 6.687500 1.828125 8.593750q1.828125 1.906250 7.453125 1.906250l9.218750 0.000000l0.000000 7.515625l-9.218750 0.000000q-10.406250 0.000000 -14.359375 -3.875000q-3.953125 -3.890625 -3.953125 -14.140625l0.000000 -29.687500l-6.593750 0.000000l0.000000 -6.984375l6.593750 0.000000l0.000000 -15.531250z"/>
</defs>
<g style="fill: #000000; opacity: 1.000000" transform="translate(13.334650,193.900692)rotate(-273.2)scale(0.120000)">
<use xlink:href="#c_a469f8ee191679fe73f3b765bd271597"/>
<use xlink:href="#c_6ec8d5749226675394676a5d2a3b468b" x="69.824219"/>
<use xlink:href="#c_6a63bda47b2f3da1cec6aadd80692cfe" x="110.937500"/>
<use xlink:href="#c_0f8c41144cfbf448378cb6fd1cc8e549" x="138.720703"/>
<use xlink:href="#c_0bce5afba2dc6b9024b26277c38ad8e8" x="177.929688"/>
<use xlink:href="#c_6ec8d5749226675394676a5d2a3b468b" x="239.453125"/>
<use xlink:href="#c_6a63bda47b2f3da1cec6aadd80692cfe" x="280.566406"/>
<use xlink:href="#c_01d93a582460e35a7945ca50d148ffeb" x="308.349609"/>
</g>
</g>
<g id="Line3DCollection3">
<defs>
<path id="coll2_0_6f77a28e6dfccb0d72dd869513dea3bc" d="M71.424515 -162.391101L302.024760 -247.591449L531.327697 -161.807368"/>
<path id="coll2_1_d7bc85192c144a380d5b342215569b29" d="M69.366879 -198.913044L302.030611 -282.661942L533.387002 -198.338951"/>
<path id="coll2_2_244a5fd97197334beb6724126a42fb66" d="M67.272078 -236.094629L302.036562 -318.327928L535.483516 -235.530621"/>
<path id="coll2_3_228ef68439b35f6ac35977e58d3499da" d="M65.139098 -273.953889L302.042614 -354.604705L537.618257 -273.400431"/>
<path id="coll2_4_a4026391fad80c497f429d492f97d6bf" d="M62.966884 -312.509523L302.048771 -391.508098L539.792280 -311.967100"/>
</defs>
<use style="fill: none; stroke: #e6e6e6; stroke-width: 1.000000; stroke-linejoin: round; stroke-linecap: butt;  opacity: 1.000000" xlink:href="#coll2_0_6f77a28e6dfccb0d72dd869513dea3bc" x="0.000000" y="442.800000"/>
<use style="fill: none; stroke: #e6e6e6; stroke-width: 1.000000; stroke-linejoin: round; stroke-linecap: butt;  opacity: 1.000000" xlink:href="#coll2_1_d7bc85192c144a380d5b342215569b29" x="0.000000" y="442.800000"/>
<use style="fill: none; stroke: #e6e6e6; stroke-width: 1.000000; stroke-linejoin: round; stroke-linecap: butt;  opacity: 1.000000" xlink:href="#coll2_2_244a5fd97197334beb6724126a42fb66" x="0.000000" y="442.800000"/>
<use style="fill: none; stroke: #e6e6e6; stroke-width: 1.000000; stroke-linejoin: round; stroke-linecap: butt;  opacity: 1.000000" xlink:href="#coll2_3_228ef68439b35f6ac35977e58d3499da" x="0.000000" y="442.800000"/>
<use style="fill: none; stroke: #e6e6e6; stroke-width: 1.000000; stroke-linejoin: round; stroke-linecap: butt;  opacity: 1.000000" xlink:href="#coll2_4_a4026391fad80c497f429d492f97d6bf" x="0.000000" y="442.800000"/>
</g>
<g id="xtick13">
<g id="line2d16">
<path style="fill: none; stroke: #000000; stroke-width: 1.000000; stroke-linejoin: round; stroke-linecap: square;  opacity: 1.000000"  d="M73.383765 279.685011L67.500125 281.858852"/>
</g>
<g id="text16">
<g style="fill: #000000; opacity: 1.000000" transform="translate(38.756929,289.287142)scale(0.120000)">
<use xlink:href="#c_1260a2df50f305f3db244e29828f968e"/>
<use xlink:href="#c_7a2040fe3b94fcd41d0a72c84e93b115" x="63.623047"/>
<use xlink:href="#c_7a2040fe3b94fcd41d0a72c84e93b115" x="127.246094"/>
</g>
</g>
</g>
<g id="xtick14">
<g id="line2d17">
<path style="fill: none; stroke: #000000; stroke-width: 1.000000; stroke-linejoin: round; stroke-linecap: square;  opacity: 1.000000"  d="M71.344693 243.175028L65.405250 245.312972"/>
</g>
<g id="text17">
<g style="fill: #000000; opacity: 1.000000" transform="translate(32.876848,252.765662)scale(0.120000)">
<use xlink:href="#c_42baa63129a918535c52adb20d687ea7"/>
<use xlink:href="#c_7a2040fe3b94fcd41d0a72c84e93b115" x="63.623047"/>
<use xlink:href="#c_7a2040fe3b94fcd41d0a72c84e93b115" x="127.246094"/>
<use xlink:href="#c_7a2040fe3b94fcd41d0a72c84e93b115" x="190.869141"/>
</g>
</g>
</g>
<g id="xtick15">
<g id="line2d18">
<path style="fill: none; stroke: #000000; stroke-width: 1.000000; stroke-linejoin: round; stroke-linecap: square;  opacity: 1.000000"  d="M69.268812 206.005955L63.272499 208.106344"/>
</g>
<g id="text18">
<g style="fill: #000000; opacity: 1.000000" transform="translate(30.581036,215.584561)scale(0.120000)">
<use xlink:href="#c_42baa63129a918535c52adb20d687ea7"/>
<use xlink:href="#c_1260a2df50f305f3db244e29828f968e" x="63.623047"/>
<use xlink:href="#c_7a2040fe3b94fcd41d0a72c84e93b115" x="127.246094"/>
<use xlink:href="#c_7a2040fe3b94fcd41d0a72c84e93b115" x="190.869141"/>
</g>
</g>
</g>
<g id="xtick16">
<g id="line2d19">
<path style="fill: none; stroke: #000000; stroke-width: 1.000000; stroke-linejoin: round; stroke-linecap: square;  opacity: 1.000000"  d="M67.155115 168.159783L61.100837 170.220886"/>
</g>
<g id="text19">
<g style="fill: #000000; opacity: 1.000000" transform="translate(28.024632,177.725806)scale(0.120000)">
<use xlink:href="#c_ed3f3ed3ebfbd18bcb9c012009a68ad1"/>
<use xlink:href="#c_7a2040fe3b94fcd41d0a72c84e93b115" x="63.623047"/>
<use xlink:href="#c_7a2040fe3b94fcd41d0a72c84e93b115" x="127.246094"/>
<use xlink:href="#c_7a2040fe3b94fcd41d0a72c84e93b115" x="190.869141"/>
</g>
</g>
</g>
<g id="xtick17">
<g id="line2d20">
<path style="fill: none; stroke: #000000; stroke-width: 1.000000; stroke-linejoin: round; stroke-linecap: square;  opacity: 1.000000"  d="M65.002559 129.617839L58.889188 131.637848"/>
</g>
<g id="text20">
<g style="fill: #000000; opacity: 1.000000" transform="translate(25.643981,139.170702)scale(0.120000)">
<use xlink:href="#c_ed3f3ed3ebfbd18bcb9c012009a68ad1"/>
<use xlink:href="#c_1260a2df50f305f3db244e29828f968e" x="63.623047"/>
<use xlink:href="#c_7a2040fe3b94fcd41d0a72c84e93b115" x="127.246094"/>
<use xlink:href="#c_7a2040fe3b94fcd41d0a72c84e93b115" x="190.869141"/>
</g>
</g>
</g>
</g>
<g id="axes1">
<g id="Line3DCollection4">
<defs>
<path id="coll3_0_f1e75987a62476fecd8749974523bad1" d="M300.582167 -32.079446L262.334290 -48.655391L224.882111 -64.894878
L188.201259 -80.792925L152.267809 -96.374222L117.059532 -111.635717
L82.554423 -126.594694"/>
<path id="coll3_1_c82e3bbe181d38bcaeb39fc33e10e2ab" d="M339.094918 -48.555095L300.841691 -64.793601L263.376191 -80.697950
L226.674281 -96.280914L190.712982 -111.544762L155.470139 -126.501444
L120.924194 -141.166783"/>
<path id="coll3_2_dbd94187b9a86aa3520cc115106a6b51" d="M376.811478 -64.693572L338.561298 -80.607386L301.090668 -96.181937
L264.376163 -111.453666L228.395112 -126.415318L193.125782 -141.079970
L158.547087 -155.462160"/>
<path id="coll3_3_960de6dcaa5a69a12bb862d193743992" d="M413.756242 -80.500283L375.516802 -96.085084L338.049004 -111.355153
L301.329730 -126.313560L265.336769 -140.989400L230.048792 -155.370684
L195.445297 -169.472601"/>
<path id="coll3_4_3ecdf48a036df8ea593db7f0007d5873" d="M449.952439 -95.980542L411.731119 -111.249903L374.273506 -126.215983
L337.556908 -140.889635L301.559456 -155.277344L266.260189 -169.387282
L231.639004 -183.224795"/>
<path id="coll3_5_0e6dbb9efd9fcc6487b6dfb6d78f96ef" d="M485.422111 -111.137258L447.225949 -126.102580L409.785432 -140.770216
L373.078753 -155.169061L337.083828 -169.279840L301.780383 -183.130987
L267.148499 -196.717382"/>
<path id="coll3_6_8854e862addfc25834be82beacc18d22" d="M520.186823 -125.984804L482.022488 -140.657988L444.606378 -155.059504
L407.915467 -169.165631L372.408128 -210.801946L337.129233 -254.941393
L302.025001 -409.065420"/>
<path id="coll3_7_8854e862addfc25834be82beacc18d22" d="M520.186823 -125.984804L482.022488 -140.657988L444.606378 -155.059504
L407.915467 -169.165631L372.408128 -210.801946L337.129233 -254.941393
L302.025001 -409.065420"/>
<path id="coll3_8_dedc4dd960ade383c84c08e33b62bbd4" d="M300.582167 -32.079446L339.094918 -48.555095L376.811478 -64.693572
L413.756242 -80.500283L449.952439 -95.980542L485.422111 -111.137258
L520.186823 -125.984804"/>
<path id="coll3_9_37aaf59e26b36447dbad25f04b29cb5c" d="M262.334290 -48.655391L300.841691 -64.793601L338.561298 -80.607386
L375.516802 -96.085084L411.731119 -111.249903L447.225949 -126.102580
L482.022488 -140.657988"/>
<path id="coll3_a_0d0581e30e8fdab562bd000e809e4af9" d="M224.882111 -64.894878L263.376191 -80.697950L301.090668 -96.181937
L338.049004 -111.355153L374.273506 -126.215983L409.785432 -140.770216
L444.606378 -155.059504"/>
<path id="coll3_b_a94a9d9ed9312aead726528d51b114c0" d="M188.201259 -80.792925L226.674281 -96.280914L264.376163 -111.453666
L301.329730 -126.313560L337.556908 -140.889635L373.078753 -155.169061
L407.915467 -169.165631"/>
<path id="coll3_c_46d39ef6d9ced25dcf870dcf3b2b9ef1" d="M152.267809 -96.374222L190.712982 -111.544762L228.395112 -126.415318
L265.336769 -140.989400L301.559456 -155.277344L337.083828 -169.279840
L372.408128 -210.801946"/>
<path id="coll3_d_103cca43a50d5e8f99ad3cd54ccc59a2" d="M117.059532 -111.635717L155.470139 -126.501444L193.125782 -141.079970
L230.048792 -155.370684L266.260189 -169.387282L301.780383 -183.130987
L337.129233 -254.941393"/>
<path id="coll3_e_b7698e3c079ea1478ce4ee2ef7125fa1" d="M82.554423 -126.594694L120.924194 -141.166783L158.547087 -155.462160
L195.445297 -169.472601L231.639004 -183.224795L267.148499 -196.717382
L302.025001 -409.065420"/>
<path id="coll3_f_b7698e3c079ea1478ce4ee2ef7125fa1" d="M82.554423 -126.594694L120.924194 -141.166783L158.547087 -155.462160
L195.445297 -169.472601L231.639004 -183.224795L267.148499 -196.717382
L302.025001 -409.065420"/>
</defs>
<defs>
  <clipPath id="p7458867926d2dfc2fafcfa7d32fa4125">
<rect x="0.000000" y="0.000000" width="586.800000" height="442.800000"/>
  </clipPath>
</defs><g clip-path="url(#p7458867926d2dfc2fafcfa7d32fa4125)"><use style="fill: none; stroke: #0000ff; stroke-width: 1.000000; stroke-linejoin: round; stroke-linecap: butt;  opacity: 1.000000" xlink:href="#coll3_0_f1e75987a62476fecd8749974523bad1" x="0.000000" y="442.800000"/>
</g><g clip-path="url(#p7458867926d2dfc2fafcfa7d32fa4125)"><use style="fill: none; stroke: #0000ff; stroke-width: 1.000000; stroke-linejoin: round; stroke-linecap: butt;  opacity: 1.000000" xlink:href="#coll3_1_c82e3bbe181d38bcaeb39fc33e10e2ab" x="0.000000" y="442.800000"/>
</g><g clip-path="url(#p7458867926d2dfc2fafcfa7d32fa4125)"><use style="fill: none; stroke: #0000ff; stroke-width: 1.000000; stroke-linejoin: round; stroke-linecap: butt;  opacity: 1.000000" xlink:href="#coll3_2_dbd94187b9a86aa3520cc115106a6b51" x="0.000000" y="442.800000"/>
</g><g clip-path="url(#p7458867926d2dfc2fafcfa7d32fa4125)"><use style="fill: none; stroke: #0000ff; stroke-width: 1.000000; stroke-linejoin: round; stroke-linecap: butt;  opacity: 1.000000" xlink:href="#coll3_3_960de6dcaa5a69a12bb862d193743992" x="0.000000" y="442.800000"/>
</g><g clip-path="url(#p7458867926d2dfc2fafcfa7d32fa4125)"><use style="fill: none; stroke: #0000ff; stroke-width: 1.000000; stroke-linejoin: round; stroke-linecap: butt;  opacity: 1.000000" xlink:href="#coll3_4_3ecdf48a036df8ea593db7f0007d5873" x="0.000000" y="442.800000"/>
</g><g clip-path="url(#p7458867926d2dfc2fafcfa7d32fa4125)"><use style="fill: none; stroke: #0000ff; stroke-width: 1.000000; stroke-linejoin: round; stroke-linecap: butt;  opacity: 1.000000" xlink:href="#coll3_5_0e6dbb9efd9fcc6487b6dfb6d78f96ef" x="0.000000" y="442.800000"/>
</g><g clip-path="url(#p7458867926d2dfc2fafcfa7d32fa4125)"><use style="fill: none; stroke: #0000ff; stroke-width: 1.000000; stroke-linejoin: round; stroke-linecap: butt;  opacity: 1.000000" xlink:href="#coll3_6_8854e862addfc25834be82beacc18d22" x="0.000000" y="442.800000"/>
</g><g clip-path="url(#p7458867926d2dfc2fafcfa7d32fa4125)"><use style="fill: none; stroke: #0000ff; stroke-width: 1.000000; stroke-linejoin: round; stroke-linecap: butt;  opacity: 1.000000" xlink:href="#coll3_7_8854e862addfc25834be82beacc18d22" x="0.000000" y="442.800000"/>
</g><g clip-path="url(#p7458867926d2dfc2fafcfa7d32fa4125)"><use style="fill: none; stroke: #0000ff; stroke-width: 1.000000; stroke-linejoin: round; stroke-linecap: butt;  opacity: 1.000000" xlink:href="#coll3_8_dedc4dd960ade383c84c08e33b62bbd4" x="0.000000" y="442.800000"/>
</g><g clip-path="url(#p7458867926d2dfc2fafcfa7d32fa4125)"><use style="fill: none; stroke: #0000ff; stroke-width: 1.000000; stroke-linejoin: round; stroke-linecap: butt;  opacity: 1.000000" xlink:href="#coll3_9_37aaf59e26b36447dbad25f04b29cb5c" x="0.000000" y="442.800000"/>
</g><g clip-path="url(#p7458867926d2dfc2fafcfa7d32fa4125)"><use style="fill: none; stroke: #0000ff; stroke-width: 1.000000; stroke-linejoin: round; stroke-linecap: butt;  opacity: 1.000000" xlink:href="#coll3_a_0d0581e30e8fdab562bd000e809e4af9" x="0.000000" y="442.800000"/>
</g><g clip-path="url(#p7458867926d2dfc2fafcfa7d32fa4125)"><use style="fill: none; stroke: #0000ff; stroke-width: 1.000000; stroke-linejoin: round; stroke-linecap: butt;  opacity: 1.000000" xlink:href="#coll3_b_a94a9d9ed9312aead726528d51b114c0" x="0.000000" y="442.800000"/>
</g><g clip-path="url(#p7458867926d2dfc2fafcfa7d32fa4125)"><use style="fill: none; stroke: #0000ff; stroke-width: 1.000000; stroke-linejoin: round; stroke-linecap: butt;  opacity: 1.000000" xlink:href="#coll3_c_46d39ef6d9ced25dcf870dcf3b2b9ef1" x="0.000000" y="442.800000"/>
</g><g clip-path="url(#p7458867926d2dfc2fafcfa7d32fa4125)"><use style="fill: none; stroke: #0000ff; stroke-width: 1.000000; stroke-linejoin: round; stroke-linecap: butt;  opacity: 1.000000" xlink:href="#coll3_d_103cca43a50d5e8f99ad3cd54ccc59a2" x="0.000000" y="442.800000"/>
</g><g clip-path="url(#p7458867926d2dfc2fafcfa7d32fa4125)"><use style="fill: none; stroke: #0000ff; stroke-width: 1.000000; stroke-linejoin: round; stroke-linecap: butt;  opacity: 1.000000" xlink:href="#coll3_e_b7698e3c079ea1478ce4ee2ef7125fa1" x="0.000000" y="442.800000"/>
</g><g clip-path="url(#p7458867926d2dfc2fafcfa7d32fa4125)"><use style="fill: none; stroke: #0000ff; stroke-width: 1.000000; stroke-linejoin: round; stroke-linecap: butt;  opacity: 1.000000" xlink:href="#coll3_f_b7698e3c079ea1478ce4ee2ef7125fa1" x="0.000000" y="442.800000"/>
</g></g>
<g id="matplotlib.axis1">
</g>
<g id="matplotlib.axis2">
</g>
</g>
</g>
</svg>
