<?xml version="1.0" standalone="no"?>
<!DOCTYPE svg PUBLIC "-//W3C//DTD SVG 1.1//EN"
  "http://www.w3.org/Graphics/SVG/1.1/DTD/svg11.dtd">
<!-- Created with matplotlib (http://matplotlib.sourceforge.net/) -->
<svg width="586pt" height="442pt" viewBox="0 0 586 442"
   xmlns="http://www.w3.org/2000/svg"
   xmlns:xlink="http://www.w3.org/1999/xlink"
   version="1.1"
   id="svg1">
<filter id="colorAdd"><feComposite in="SourceGraphic" in2="BackgroundImage" operator="arithmetic" k2="1" k3="1"/></filter>
<g id="figure1">
<g id="patch1">
<path style="fill: #ffffff; stroke: #ffffff; stroke-width: 1.000000; stroke-linejoin: round; stroke-linecap: square;  opacity: 1.000000"  d="M0.000000 442.800000L586.800000 442.800000L586.800000 0.000000
L0.000000 0.000000z"/>
</g>
<g id="patch2">
<path style="fill: #ffffff; opacity: 1.000000"  d="M0.000000 442.800000L586.800000 442.800000L586.800000 0.000000
L0.000000 0.000000z"/>
</g>
<g id="pane3d1">
<g id="patch3">
<path style="fill: #f2f2f2; stroke: #f2f2f2; stroke-width: 1.000000; stroke-linejoin: round; stroke-linecap: square;  opacity: 0.500000"  d="M27.141911 288.424382L278.527591 201.803684L280.249410 6.752210
L12.975431 88.742954"/>
</g>
</g>
<g id="pane3d2">
<g id="patch4">
<path style="fill: #e6e6e6; stroke: #e6e6e6; stroke-width: 1.000000; stroke-linejoin: round; stroke-linecap: square;  opacity: 0.500000"  d="M278.527591 201.803684L476.342454 316.998165L490.961923 115.896037
L280.249410 6.752210"/>
</g>
</g>
<g id="pane3d3">
<g id="patch5">
<path style="fill: #ececec; stroke: #ececec; stroke-width: 1.000000; stroke-linejoin: round; stroke-linecap: square;  opacity: 0.500000"  d="M27.141911 288.424382L218.096056 415.553680L476.342454 316.998165
L278.527591 201.803684"/>
</g>
</g>
<g id="axis3d1">
<g id="line2d1">
<path style="fill: none; stroke: #000000; stroke-width: 0.750000; stroke-linejoin: round; stroke-linecap: square;  opacity: 1.000000"  d="M27.141911 288.424382L218.096056 415.553680"/>
</g>
<g id="text1">
<defs>
<path id="c_4c6532c564269b2c70b230c2e45c01e4" d="M44.390625 -34.187500q3.171875 1.078125 6.171875 4.593750q3.000000 3.515625 6.031250 9.671875l10.015625 19.921875l-10.609375 0.000000l-9.312500 -18.703125q-3.625000 -7.328125 -7.015625 -9.718750q-3.390625 -2.390625 -9.250000 -2.390625l-10.750000 0.000000l0.000000 30.812500l-9.859375 0.000000l0.000000 -72.906250l22.265625 0.000000q12.500000 0.000000 18.656250 5.234375q6.156250 5.218750 6.156250 15.765625q0.000000 6.890625 -3.203125 11.437500q-3.203125 4.531250 -9.296875 6.281250M19.671875 -64.796875l0.000000 25.875000l12.406250 0.000000q7.125000 0.000000 10.765625 -3.296875q3.640625 -3.296875 3.640625 -9.687500q0.000000 -6.390625 -3.640625 -9.640625q-3.640625 -3.250000 -10.765625 -3.250000z"/>
<path id="c_0bce5afba2dc6b9024b26277c38ad8e8" d="M56.203125 -29.593750l0.000000 4.390625l-41.312500 0.000000q0.593750 9.281250 5.593750 14.140625q5.000000 4.859375 13.937500 4.859375q5.171875 0.000000 10.031250 -1.265625q4.859375 -1.265625 9.656250 -3.812500l0.000000 8.500000q-4.843750 2.046875 -9.921875 3.125000q-5.078125 1.078125 -10.296875 1.078125q-13.093750 0.000000 -20.734375 -7.609375q-7.640625 -7.625000 -7.640625 -20.625000q0.000000 -13.421875 7.250000 -21.296875q7.250000 -7.890625 19.562500 -7.890625q11.031250 0.000000 17.453125 7.109375q6.421875 7.093750 6.421875 19.296875M47.218750 -32.234375q-0.093750 -7.359375 -4.125000 -11.750000q-4.031250 -4.406250 -10.671875 -4.406250q-7.515625 0.000000 -12.031250 4.250000q-4.515625 4.250000 -5.203125 11.968750z"/>
<path id="c_4653c6dfde66c7610eae0911760d3490" d="M52.000000 -44.187500q3.375000 -6.062500 8.062500 -8.937500q4.687500 -2.875000 11.031250 -2.875000q8.546875 0.000000 13.187500 5.984375q4.640625 5.968750 4.640625 17.000000l0.000000 33.015625l-9.031250 0.000000l0.000000 -32.718750q0.000000 -7.859375 -2.796875 -11.656250q-2.781250 -3.812500 -8.484375 -3.812500q-6.984375 0.000000 -11.046875 4.640625q-4.046875 4.625000 -4.046875 12.640625l0.000000 30.906250l-9.031250 0.000000l0.000000 -32.718750q0.000000 -7.906250 -2.781250 -11.687500q-2.781250 -3.781250 -8.593750 -3.781250q-6.890625 0.000000 -10.953125 4.656250q-4.046875 4.656250 -4.046875 12.625000l0.000000 30.906250l-9.031250 0.000000l0.000000 -54.687500l9.031250 0.000000l0.000000 8.500000q3.078125 -5.031250 7.375000 -7.421875q4.296875 -2.390625 10.203125 -2.390625q5.968750 0.000000 10.140625 3.031250q4.171875 3.015625 6.171875 8.781250"/>
<path id="c_f05dd90d41f04bb96ef1ca503cc2044b" d="M30.609375 -48.390625q-7.218750 0.000000 -11.421875 5.640625q-4.203125 5.640625 -4.203125 15.453125q0.000000 9.812500 4.171875 15.453125q4.187500 5.640625 11.453125 5.640625q7.187500 0.000000 11.375000 -5.656250q4.203125 -5.671875 4.203125 -15.437500q0.000000 -9.718750 -4.203125 -15.406250q-4.187500 -5.687500 -11.375000 -5.687500M30.609375 -56.000000q11.718750 0.000000 18.406250 7.625000q6.703125 7.609375 6.703125 21.078125q0.000000 13.421875 -6.703125 21.078125q-6.687500 7.640625 -18.406250 7.640625q-11.765625 0.000000 -18.437500 -7.640625q-6.656250 -7.656250 -6.656250 -21.078125q0.000000 -13.468750 6.656250 -21.078125q6.671875 -7.625000 18.437500 -7.625000"/>
<path id="c_c48ceabac27bf136feba2f4bf2716ab6" d="M2.984375 -54.687500l9.515625 0.000000l17.093750 45.890625l17.093750 -45.890625l9.515625 0.000000l-20.515625 54.687500l-12.203125 0.000000z"/>
</defs>
<g style="fill: #000000; opacity: 1.000000" transform="translate(70.475841,370.244549)rotate(-326.3)scale(0.120000)">
<use xlink:href="#c_4c6532c564269b2c70b230c2e45c01e4"/>
<use xlink:href="#c_0bce5afba2dc6b9024b26277c38ad8e8" x="64.982422"/>
<use xlink:href="#c_4653c6dfde66c7610eae0911760d3490" x="126.505859"/>
<use xlink:href="#c_f05dd90d41f04bb96ef1ca503cc2044b" x="223.917969"/>
<use xlink:href="#c_c48ceabac27bf136feba2f4bf2716ab6" x="285.099609"/>
<use xlink:href="#c_0bce5afba2dc6b9024b26277c38ad8e8" x="344.279297"/>
</g>
</g>
<g id="Line3DCollection1">
<defs>
<path id="coll0_0_ad8e72c07185692be8ce5c3205720132" d="M30.721187 -151.992685L282.247052 -238.830344L284.196119 -434.003493"/>
<path id="coll0_1_66fa6374f6b6047c2b56f842b447a081" d="M59.689060 -132.707085L312.333138 -221.310169L316.141815 -417.456419"/>
<path id="coll0_2_d81764a1438b663e8070cd142fbdab72" d="M89.263306 -113.017786L343.019048 -203.440695L348.763755 -400.559068"/>
<path id="coll0_3_de21551c39b370f54f4634b569dc8e66" d="M119.463166 -92.911980L374.322898 -185.211374L382.083641 -383.300197"/>
<path id="coll0_4_665b7d66e8e80424bf8d917561278648" d="M150.308704 -72.376309L406.263545 -166.611223L416.124115 -365.668081"/>
<path id="coll0_5_ad950a28548c9d264acb44e794eb1bed" d="M181.820849 -51.396838L438.860619 -147.628812L450.908806 -347.650479"/>
</defs>
<use style="fill: none; stroke: #e6e6e6; stroke-width: 1.000000; stroke-linejoin: round; stroke-linecap: butt;  opacity: 1.000000" xlink:href="#coll0_0_ad8e72c07185692be8ce5c3205720132" x="0.000000" y="442.800000"/>
<use style="fill: none; stroke: #e6e6e6; stroke-width: 1.000000; stroke-linejoin: round; stroke-linecap: butt;  opacity: 1.000000" xlink:href="#coll0_1_66fa6374f6b6047c2b56f842b447a081" x="0.000000" y="442.800000"/>
<use style="fill: none; stroke: #e6e6e6; stroke-width: 1.000000; stroke-linejoin: round; stroke-linecap: butt;  opacity: 1.000000" xlink:href="#coll0_2_d81764a1438b663e8070cd142fbdab72" x="0.000000" y="442.800000"/>
<use style="fill: none; stroke: #e6e6e6; stroke-width: 1.000000; stroke-linejoin: round; stroke-linecap: butt;  opacity: 1.000000" xlink:href="#coll0_3_de21551c39b370f54f4634b569dc8e66" x="0.000000" y="442.800000"/>
<use style="fill: none; stroke: #e6e6e6; stroke-width: 1.000000; stroke-linejoin: round; stroke-linecap: butt;  opacity: 1.000000" xlink:href="#coll0_4_665b7d66e8e80424bf8d917561278648" x="0.000000" y="442.800000"/>
<use style="fill: none; stroke: #e6e6e6; stroke-width: 1.000000; stroke-linejoin: round; stroke-linecap: butt;  opacity: 1.000000" xlink:href="#coll0_5_ad950a28548c9d264acb44e794eb1bed" x="0.000000" y="442.800000"/>
</g>
<g id="xtick1">
<g id="line2d2">
<path style="fill: none; stroke: #000000; stroke-width: 1.000000; stroke-linejoin: round; stroke-linecap: square;  opacity: 1.000000"  d="M32.831006 290.078913L26.496591 292.265829"/>
</g>
<g id="text2">
<defs>
<path id="c_7a2040fe3b94fcd41d0a72c84e93b115" d="M31.781250 -66.406250q-7.609375 0.000000 -11.453125 7.500000q-3.828125 7.484375 -3.828125 22.531250q0.000000 14.984375 3.828125 22.484375q3.843750 7.500000 11.453125 7.500000q7.671875 0.000000 11.500000 -7.500000q3.843750 -7.500000 3.843750 -22.484375q0.000000 -15.046875 -3.843750 -22.531250q-3.828125 -7.500000 -11.500000 -7.500000M31.781250 -74.218750q12.265625 0.000000 18.734375 9.703125q6.468750 9.687500 6.468750 28.140625q0.000000 18.406250 -6.468750 28.109375q-6.468750 9.687500 -18.734375 9.687500q-12.250000 0.000000 -18.718750 -9.687500q-6.468750 -9.703125 -6.468750 -28.109375q0.000000 -18.453125 6.468750 -28.140625q6.468750 -9.703125 18.718750 -9.703125"/>
<path id="c_ed3e21196fb739f392806f09ca0594ef" d="M10.687500 -12.406250l10.312500 0.000000l0.000000 12.406250l-10.312500 0.000000z"/>
<path id="c_42baa63129a918535c52adb20d687ea7" d="M12.406250 -8.296875l16.109375 0.000000l0.000000 -55.625000l-17.531250 3.515625l0.000000 -8.984375l17.437500 -3.515625l9.859375 0.000000l0.000000 64.609375l16.109375 0.000000l0.000000 8.296875l-41.984375 0.000000z"/>
</defs>
<g style="fill: #000000; opacity: 1.000000" transform="translate(10.099765,313.095296)scale(0.120000)">
<use xlink:href="#c_7a2040fe3b94fcd41d0a72c84e93b115"/>
<use xlink:href="#c_ed3e21196fb739f392806f09ca0594ef" x="63.623047"/>
<use xlink:href="#c_42baa63129a918535c52adb20d687ea7" x="95.410156"/>
</g>
</g>
</g>
<g id="xtick2">
<g id="line2d3">
<path style="fill: none; stroke: #000000; stroke-width: 1.000000; stroke-linejoin: round; stroke-linecap: square;  opacity: 1.000000"  d="M61.809273 309.349349L55.443598 311.581812"/>
</g>
<g id="text3">
<defs>
<path id="c_ed3f3ed3ebfbd18bcb9c012009a68ad1" d="M19.187500 -8.296875l34.421875 0.000000l0.000000 8.296875l-46.281250 0.000000l0.000000 -8.296875q5.609375 -5.812500 15.296875 -15.593750q9.703125 -9.796875 12.187500 -12.640625q4.734375 -5.312500 6.609375 -9.000000q1.890625 -3.687500 1.890625 -7.250000q0.000000 -5.812500 -4.078125 -9.468750q-4.078125 -3.671875 -10.625000 -3.671875q-4.640625 0.000000 -9.796875 1.609375q-5.140625 1.609375 -11.000000 4.890625l0.000000 -9.968750q5.953125 -2.390625 11.125000 -3.609375q5.187500 -1.218750 9.484375 -1.218750q11.328125 0.000000 18.062500 5.671875q6.734375 5.656250 6.734375 15.125000q0.000000 4.500000 -1.687500 8.531250q-1.671875 4.015625 -6.125000 9.484375q-1.218750 1.421875 -7.765625 8.187500q-6.531250 6.765625 -18.453125 18.921875"/>
</defs>
<g style="fill: #000000; opacity: 1.000000" transform="translate(38.974669,332.509225)scale(0.120000)">
<use xlink:href="#c_7a2040fe3b94fcd41d0a72c84e93b115"/>
<use xlink:href="#c_ed3e21196fb739f392806f09ca0594ef" x="63.623047"/>
<use xlink:href="#c_ed3f3ed3ebfbd18bcb9c012009a68ad1" x="95.410156"/>
</g>
</g>
</g>
<g id="xtick3">
<g id="line2d4">
<path style="fill: none; stroke: #000000; stroke-width: 1.000000; stroke-linejoin: round; stroke-linecap: square;  opacity: 1.000000"  d="M91.393890 329.023005L84.997026 331.302453"/>
</g>
<g id="text4">
<defs>
<path id="c_3dcfa38a02242cb63ec6726c6e70be7a" d="M40.578125 -39.312500q7.078125 1.515625 11.046875 6.312500q3.984375 4.781250 3.984375 11.812500q0.000000 10.781250 -7.421875 16.703125q-7.421875 5.906250 -21.093750 5.906250q-4.578125 0.000000 -9.437500 -0.906250q-4.859375 -0.906250 -10.031250 -2.718750l0.000000 -9.515625q4.093750 2.390625 8.968750 3.609375q4.890625 1.218750 10.218750 1.218750q9.265625 0.000000 14.125000 -3.656250q4.859375 -3.656250 4.859375 -10.640625q0.000000 -6.453125 -4.515625 -10.078125q-4.515625 -3.640625 -12.562500 -3.640625l-8.500000 0.000000l0.000000 -8.109375l8.890625 0.000000q7.265625 0.000000 11.125000 -2.906250q3.859375 -2.906250 3.859375 -8.375000q0.000000 -5.609375 -3.984375 -8.609375q-3.968750 -3.015625 -11.390625 -3.015625q-4.062500 0.000000 -8.703125 0.890625q-4.640625 0.875000 -10.203125 2.718750l0.000000 -8.781250q5.625000 -1.562500 10.531250 -2.343750q4.906250 -0.781250 9.250000 -0.781250q11.234375 0.000000 17.765625 5.109375q6.546875 5.093750 6.546875 13.781250q0.000000 6.062500 -3.468750 10.234375q-3.468750 4.171875 -9.859375 5.781250"/>
</defs>
<g style="fill: #000000; opacity: 1.000000" transform="translate(68.288634,352.329320)scale(0.120000)">
<use xlink:href="#c_7a2040fe3b94fcd41d0a72c84e93b115"/>
<use xlink:href="#c_ed3e21196fb739f392806f09ca0594ef" x="63.623047"/>
<use xlink:href="#c_3dcfa38a02242cb63ec6726c6e70be7a" x="95.410156"/>
</g>
</g>
</g>
<g id="xtick4">
<g id="line2d5">
<path style="fill: none; stroke: #000000; stroke-width: 1.000000; stroke-linejoin: round; stroke-linecap: square;  opacity: 1.000000"  d="M121.604087 349.112669L115.176133 351.440601"/>
</g>
<g id="text5">
<defs>
<path id="c_a0416418d96557a09b8c1332d34883ba" d="M37.796875 -64.312500l-24.906250 38.921875l24.906250 0.000000zM35.203125 -72.906250l12.406250 0.000000l0.000000 47.515625l10.406250 0.000000l0.000000 8.203125l-10.406250 0.000000l0.000000 17.187500l-9.812500 0.000000l0.000000 -17.187500l-32.906250 0.000000l0.000000 -9.515625z"/>
</defs>
<g style="fill: #000000; opacity: 1.000000" transform="translate(98.193599,372.568464)scale(0.120000)">
<use xlink:href="#c_7a2040fe3b94fcd41d0a72c84e93b115"/>
<use xlink:href="#c_ed3e21196fb739f392806f09ca0594ef" x="63.623047"/>
<use xlink:href="#c_a0416418d96557a09b8c1332d34883ba" x="95.410156"/>
</g>
</g>
</g>
<g id="xtick5">
<g id="line2d6">
<path style="fill: none; stroke: #000000; stroke-width: 1.000000; stroke-linejoin: round; stroke-linecap: square;  opacity: 1.000000"  d="M152.459919 369.631678L146.001001 372.009658"/>
</g>
<g id="text6">
<defs>
<path id="c_1260a2df50f305f3db244e29828f968e" d="M10.796875 -72.906250l38.718750 0.000000l0.000000 8.312500l-29.687500 0.000000l0.000000 17.859375q2.140625 -0.734375 4.281250 -1.093750q2.156250 -0.359375 4.312500 -0.359375q12.203125 0.000000 19.328125 6.687500q7.140625 6.687500 7.140625 18.109375q0.000000 11.765625 -7.328125 18.296875q-7.328125 6.515625 -20.656250 6.515625q-4.593750 0.000000 -9.359375 -0.781250q-4.750000 -0.781250 -9.828125 -2.343750l0.000000 -9.921875q4.390625 2.390625 9.078125 3.562500q4.687500 1.171875 9.906250 1.171875q8.453125 0.000000 13.375000 -4.437500q4.937500 -4.437500 4.937500 -12.062500q0.000000 -7.609375 -4.937500 -12.046875q-4.921875 -4.453125 -13.375000 -4.453125q-3.953125 0.000000 -7.890625 0.875000q-3.921875 0.875000 -8.015625 2.734375z"/>
</defs>
<g style="fill: #000000; opacity: 1.000000" transform="translate(129.076697,393.240087)scale(0.120000)">
<use xlink:href="#c_7a2040fe3b94fcd41d0a72c84e93b115"/>
<use xlink:href="#c_ed3e21196fb739f392806f09ca0594ef" x="63.623047"/>
<use xlink:href="#c_1260a2df50f305f3db244e29828f968e" x="95.410156"/>
</g>
</g>
</g>
<g id="xtick6">
<g id="line2d7">
<path style="fill: none; stroke: #000000; stroke-width: 1.000000; stroke-linejoin: round; stroke-linecap: square;  opacity: 1.000000"  d="M183.982307 390.593944L177.492581 393.023603"/>
</g>
<g id="text7">
<defs>
<path id="c_cc8d6d580d1b10c8632f7a42cd53db8a" d="M33.015625 -40.375000q-6.640625 0.000000 -10.531250 4.546875q-3.875000 4.531250 -3.875000 12.437500q0.000000 7.859375 3.875000 12.437500q3.890625 4.562500 10.531250 4.562500q6.640625 0.000000 10.515625 -4.562500q3.875000 -4.578125 3.875000 -12.437500q0.000000 -7.906250 -3.875000 -12.437500q-3.875000 -4.546875 -10.515625 -4.546875M52.593750 -71.296875l0.000000 8.984375q-3.718750 -1.750000 -7.500000 -2.671875q-3.781250 -0.937500 -7.500000 -0.937500q-9.765625 0.000000 -14.921875 6.593750q-5.140625 6.593750 -5.875000 19.921875q2.875000 -4.250000 7.218750 -6.515625q4.359375 -2.265625 9.578125 -2.265625q10.984375 0.000000 17.359375 6.671875q6.375000 6.656250 6.375000 18.125000q0.000000 11.234375 -6.640625 18.031250q-6.640625 6.781250 -17.671875 6.781250q-12.656250 0.000000 -19.343750 -9.687500q-6.687500 -9.703125 -6.687500 -28.109375q0.000000 -17.281250 8.203125 -27.562500q8.203125 -10.281250 22.015625 -10.281250q3.718750 0.000000 7.500000 0.734375q3.781250 0.734375 7.890625 2.187500"/>
</defs>
<g style="fill: #000000; opacity: 1.000000" transform="translate(160.294672,414.358202)scale(0.120000)">
<use xlink:href="#c_7a2040fe3b94fcd41d0a72c84e93b115"/>
<use xlink:href="#c_ed3e21196fb739f392806f09ca0594ef" x="63.623047"/>
<use xlink:href="#c_cc8d6d580d1b10c8632f7a42cd53db8a" x="95.410156"/>
</g>
</g>
</g>
</g>
<g id="axis3d2">
<g id="line2d8">
<path style="fill: none; stroke: #000000; stroke-width: 0.750000; stroke-linejoin: round; stroke-linecap: square;  opacity: 1.000000"  d="M476.342454 316.998165L218.096056 415.553680"/>
</g>
<g id="text8">
<defs>
<path id="c_b672e4bee30772019085dff1098f516d" d="M53.515625 -70.515625l0.000000 9.625000q-5.609375 -2.687500 -10.593750 -4.000000q-4.984375 -1.328125 -9.625000 -1.328125q-8.046875 0.000000 -12.421875 3.125000q-4.375000 3.125000 -4.375000 8.890625q0.000000 4.843750 2.906250 7.312500q2.906250 2.453125 11.015625 3.968750l5.953125 1.218750q11.031250 2.109375 16.281250 7.406250q5.250000 5.296875 5.250000 14.171875q0.000000 10.609375 -7.109375 16.078125q-7.093750 5.468750 -20.812500 5.468750q-5.171875 0.000000 -11.015625 -1.171875q-5.828125 -1.171875 -12.078125 -3.468750l0.000000 -10.156250q6.000000 3.359375 11.765625 5.078125q5.765625 1.703125 11.328125 1.703125q8.437500 0.000000 13.031250 -3.312500q4.593750 -3.328125 4.593750 -9.484375q0.000000 -5.359375 -3.296875 -8.390625q-3.296875 -3.031250 -10.812500 -4.546875l-6.015625 -1.171875q-11.031250 -2.187500 -15.968750 -6.875000q-4.921875 -4.687500 -4.921875 -13.046875q0.000000 -9.671875 6.812500 -15.234375q6.812500 -5.562500 18.765625 -5.562500q5.140625 0.000000 10.453125 0.937500q5.328125 0.921875 10.890625 2.765625"/>
<path id="c_74d54c94aa871ec39e2bc6697dde6c00" d="M54.890625 -33.015625l0.000000 33.015625l-8.984375 0.000000l0.000000 -32.718750q0.000000 -7.765625 -3.031250 -11.609375q-3.031250 -3.859375 -9.078125 -3.859375q-7.281250 0.000000 -11.484375 4.640625q-4.203125 4.625000 -4.203125 12.640625l0.000000 30.906250l-9.031250 0.000000l0.000000 -75.984375l9.031250 0.000000l0.000000 29.796875q3.234375 -4.937500 7.593750 -7.375000q4.375000 -2.437500 10.093750 -2.437500q9.421875 0.000000 14.250000 5.828125q4.843750 5.828125 4.843750 17.156250"/>
<path id="c_01d93a582460e35a7945ca50d148ffeb" d="M34.281250 -27.484375q-10.890625 0.000000 -15.093750 2.484375q-4.203125 2.484375 -4.203125 8.500000q0.000000 4.781250 3.156250 7.593750q3.156250 2.796875 8.562500 2.796875q7.484375 0.000000 12.000000 -5.296875q4.515625 -5.296875 4.515625 -14.078125l0.000000 -2.000000zM52.203125 -31.203125l0.000000 31.203125l-8.984375 0.000000l0.000000 -8.296875q-3.078125 4.968750 -7.671875 7.343750q-4.593750 2.375000 -11.234375 2.375000q-8.390625 0.000000 -13.359375 -4.718750q-4.953125 -4.718750 -4.953125 -12.625000q0.000000 -9.218750 6.171875 -13.906250q6.187500 -4.687500 18.437500 -4.687500l12.609375 0.000000l0.000000 -0.890625q0.000000 -6.203125 -4.078125 -9.593750q-4.078125 -3.390625 -11.453125 -3.390625q-4.687500 0.000000 -9.140625 1.125000q-4.437500 1.125000 -8.531250 3.375000l0.000000 -8.312500q4.921875 -1.906250 9.562500 -2.843750q4.640625 -0.953125 9.031250 -0.953125q11.875000 0.000000 17.734375 6.156250q5.859375 6.140625 5.859375 18.640625"/>
<path id="c_dcb78ab3124be785176d70a27dde1356" d="M9.078125 -75.984375l9.031250 0.000000l0.000000 44.875000l26.812500 -23.578125l11.468750 0.000000l-29.000000 25.578125l30.234375 29.109375l-11.718750 0.000000l-27.796875 -26.703125l0.000000 26.703125l-9.031250 0.000000z"/>
</defs>
<g style="fill: #000000; opacity: 1.000000" transform="translate(356.706880,408.721141)rotate(-20.9)scale(0.120000)">
<use xlink:href="#c_b672e4bee30772019085dff1098f516d"/>
<use xlink:href="#c_74d54c94aa871ec39e2bc6697dde6c00" x="63.476562"/>
<use xlink:href="#c_01d93a582460e35a7945ca50d148ffeb" x="126.855469"/>
<use xlink:href="#c_dcb78ab3124be785176d70a27dde1356" x="188.134766"/>
<use xlink:href="#c_0bce5afba2dc6b9024b26277c38ad8e8" x="242.419922"/>
</g>
</g>
<g id="Line3DCollection2">
<defs>
<path id="coll1_0_f757bbf0c7bb2e113eaec00d3bbb3a40" d="M18.592840 -355.780280L32.410119 -156.190900L223.524915 -29.318155"/>
<path id="coll1_1_f80a1dfec030a41810e47a72247770dc" d="M63.115673 -369.438401L74.188370 -170.586554L266.551523 -45.738556"/>
<path id="coll1_2_d410fb8771310ecd13071fdf2e83d836" d="M106.911026 -382.873355L115.324114 -184.760817L308.871976 -61.889465"/>
<path id="coll1_3_90af134018ebbdfbf5d55214a8970e6b" d="M149.996584 -396.090567L155.832060 -198.718758L350.503518 -77.777462"/>
<path id="coll1_4_86740717ba81690fbb92a91cf2d6299e" d="M192.389465 -409.095289L195.726470 -212.465292L391.462833 -93.408915"/>
<path id="coll1_5_db118ee5c074396cac881a61d62d0606" d="M234.106238 -421.892604L235.021178 -226.005184L431.766072 -108.789988"/>
</defs>
<use style="fill: none; stroke: #e6e6e6; stroke-width: 1.000000; stroke-linejoin: round; stroke-linecap: butt;  opacity: 1.000000" xlink:href="#coll1_0_f757bbf0c7bb2e113eaec00d3bbb3a40" x="0.000000" y="442.800000"/>
<use style="fill: none; stroke: #e6e6e6; stroke-width: 1.000000; stroke-linejoin: round; stroke-linecap: butt;  opacity: 1.000000" xlink:href="#coll1_1_f80a1dfec030a41810e47a72247770dc" x="0.000000" y="442.800000"/>
<use style="fill: none; stroke: #e6e6e6; stroke-width: 1.000000; stroke-linejoin: round; stroke-linecap: butt;  opacity: 1.000000" xlink:href="#coll1_2_d410fb8771310ecd13071fdf2e83d836" x="0.000000" y="442.800000"/>
<use style="fill: none; stroke: #e6e6e6; stroke-width: 1.000000; stroke-linejoin: round; stroke-linecap: butt;  opacity: 1.000000" xlink:href="#coll1_3_90af134018ebbdfbf5d55214a8970e6b" x="0.000000" y="442.800000"/>
<use style="fill: none; stroke: #e6e6e6; stroke-width: 1.000000; stroke-linejoin: round; stroke-linecap: butt;  opacity: 1.000000" xlink:href="#coll1_4_86740717ba81690fbb92a91cf2d6299e" x="0.000000" y="442.800000"/>
<use style="fill: none; stroke: #e6e6e6; stroke-width: 1.000000; stroke-linejoin: round; stroke-linecap: butt;  opacity: 1.000000" xlink:href="#coll1_5_db118ee5c074396cac881a61d62d0606" x="0.000000" y="442.800000"/>
</g>
<g id="xtick7">
<g id="line2d9">
<path style="fill: none; stroke: #000000; stroke-width: 1.000000; stroke-linejoin: round; stroke-linecap: square;  opacity: 1.000000"  d="M221.892471 412.398137L226.795159 415.652817"/>
</g>
<g id="text9">
<g style="fill: #000000; opacity: 1.000000" transform="translate(224.814461,438.132444)scale(0.120000)">
<use xlink:href="#c_7a2040fe3b94fcd41d0a72c84e93b115"/>
<use xlink:href="#c_ed3e21196fb739f392806f09ca0594ef" x="63.623047"/>
<use xlink:href="#c_42baa63129a918535c52adb20d687ea7" x="95.410156"/>
</g>
</g>
</g>
<g id="xtick8">
<g id="line2d10">
<path style="fill: none; stroke: #000000; stroke-width: 1.000000; stroke-linejoin: round; stroke-linecap: square;  opacity: 1.000000"  d="M264.909278 395.995590L269.841358 399.196620"/>
</g>
<g id="text10">
<g style="fill: #000000; opacity: 1.000000" transform="translate(267.815403,421.578217)scale(0.120000)">
<use xlink:href="#c_7a2040fe3b94fcd41d0a72c84e93b115"/>
<use xlink:href="#c_ed3e21196fb739f392806f09ca0594ef" x="63.623047"/>
<use xlink:href="#c_ed3f3ed3ebfbd18bcb9c012009a68ad1" x="95.410156"/>
</g>
</g>
</g>
<g id="xtick9">
<g id="line2d11">
<path style="fill: none; stroke: #000000; stroke-width: 1.000000; stroke-linejoin: round; stroke-linecap: square;  opacity: 1.000000"  d="M307.220470 379.862097L312.180320 383.010793"/>
</g>
<g id="text11">
<g style="fill: #000000; opacity: 1.000000" transform="translate(309.947168,405.295736)scale(0.120000)">
<use xlink:href="#c_7a2040fe3b94fcd41d0a72c84e93b115"/>
<use xlink:href="#c_ed3e21196fb739f392806f09ca0594ef" x="63.623047"/>
<use xlink:href="#c_3dcfa38a02242cb63ec6726c6e70be7a" x="95.410156"/>
</g>
</g>
</g>
<g id="xtick10">
<g id="line2d12">
<path style="fill: none; stroke: #000000; stroke-width: 1.000000; stroke-linejoin: round; stroke-linecap: square;  opacity: 1.000000"  d="M348.843268 363.991093L353.829333 367.088728"/>
</g>
<g id="text12">
<g style="fill: #000000; opacity: 1.000000" transform="translate(351.359790,389.278366)scale(0.120000)">
<use xlink:href="#c_7a2040fe3b94fcd41d0a72c84e93b115"/>
<use xlink:href="#c_ed3e21196fb739f392806f09ca0594ef" x="63.623047"/>
<use xlink:href="#c_a0416418d96557a09b8c1332d34883ba" x="95.410156"/>
</g>
</g>
</g>
<g id="xtick11">
<g id="line2d13">
<path style="fill: none; stroke: #000000; stroke-width: 1.000000; stroke-linejoin: round; stroke-linecap: square;  opacity: 1.000000"  d="M389.794335 348.376224L394.805126 351.424030"/>
</g>
<g id="text13">
<g style="fill: #000000; opacity: 1.000000" transform="translate(392.437119,373.519683)scale(0.120000)">
<use xlink:href="#c_7a2040fe3b94fcd41d0a72c84e93b115"/>
<use xlink:href="#c_ed3e21196fb739f392806f09ca0594ef" x="63.623047"/>
<use xlink:href="#c_1260a2df50f305f3db244e29828f968e" x="95.410156"/>
</g>
</g>
</g>
<g id="xtick12">
<g id="line2d14">
<path style="fill: none; stroke: #000000; stroke-width: 1.000000; stroke-linejoin: round; stroke-linecap: square;  opacity: 1.000000"  d="M430.089804 333.011338L435.123890 336.010508"/>
</g>
<g id="text14">
<g style="fill: #000000; opacity: 1.000000" transform="translate(432.531226,358.013470)scale(0.120000)">
<use xlink:href="#c_7a2040fe3b94fcd41d0a72c84e93b115"/>
<use xlink:href="#c_ed3e21196fb739f392806f09ca0594ef" x="63.623047"/>
<use xlink:href="#c_cc8d6d580d1b10c8632f7a42cd53db8a" x="95.410156"/>
</g>
</g>
</g>
</g>
<g id="axis3d3">
<g id="line2d15">
<path style="fill: none; stroke: #000000; stroke-width: 0.750000; stroke-linejoin: round; stroke-linecap: square;  opacity: 1.000000"  d="M476.342454 316.998165L490.961923 115.896037"/>
</g>
<g id="text15">
<defs>
<path id="c_a469f8ee191679fe73f3b765bd271597" d="M64.406250 -67.281250l0.000000 10.390625q-4.984375 -4.640625 -10.625000 -6.921875q-5.640625 -2.296875 -11.984375 -2.296875q-12.500000 0.000000 -19.140625 7.640625q-6.640625 7.640625 -6.640625 22.093750q0.000000 14.406250 6.640625 22.046875q6.640625 7.640625 19.140625 7.640625q6.343750 0.000000 11.984375 -2.296875q5.640625 -2.296875 10.625000 -6.937500l0.000000 10.312500q-5.171875 3.515625 -10.968750 5.281250q-5.781250 1.750000 -12.218750 1.750000q-16.562500 0.000000 -26.093750 -10.125000q-9.515625 -10.140625 -9.515625 -27.671875q0.000000 -17.578125 9.515625 -27.703125q9.531250 -10.140625 26.093750 -10.140625q6.531250 0.000000 12.312500 1.734375q5.796875 1.734375 10.875000 5.203125"/>
<path id="c_6ec8d5749226675394676a5d2a3b468b" d="M41.109375 -46.296875q-1.515625 -0.875000 -3.296875 -1.281250q-1.781250 -0.421875 -3.921875 -0.421875q-7.625000 0.000000 -11.703125 4.953125q-4.078125 4.953125 -4.078125 14.234375l0.000000 28.812500l-9.031250 0.000000l0.000000 -54.687500l9.031250 0.000000l0.000000 8.500000q2.843750 -4.984375 7.375000 -7.390625q4.546875 -2.421875 11.046875 -2.421875q0.921875 0.000000 2.046875 0.125000q1.125000 0.109375 2.484375 0.359375z"/>
<path id="c_6a63bda47b2f3da1cec6aadd80692cfe" d="M9.421875 -54.687500l8.984375 0.000000l0.000000 54.687500l-8.984375 0.000000zM9.421875 -75.984375l8.984375 0.000000l0.000000 11.390625l-8.984375 0.000000z"/>
<path id="c_0f8c41144cfbf448378cb6fd1cc8e549" d="M18.312500 -70.218750l0.000000 15.531250l18.500000 0.000000l0.000000 6.984375l-18.500000 0.000000l0.000000 29.687500q0.000000 6.687500 1.828125 8.593750q1.828125 1.906250 7.453125 1.906250l9.218750 0.000000l0.000000 7.515625l-9.218750 0.000000q-10.406250 0.000000 -14.359375 -3.875000q-3.953125 -3.890625 -3.953125 -14.140625l0.000000 -29.687500l-6.593750 0.000000l0.000000 -6.984375l6.593750 0.000000l0.000000 -15.531250z"/>
</defs>
<g style="fill: #000000; opacity: 1.000000" transform="translate(535.526864,243.955280)rotate(-85.8)scale(0.120000)">
<use xlink:href="#c_a469f8ee191679fe73f3b765bd271597"/>
<use xlink:href="#c_6ec8d5749226675394676a5d2a3b468b" x="69.824219"/>
<use xlink:href="#c_6a63bda47b2f3da1cec6aadd80692cfe" x="110.937500"/>
<use xlink:href="#c_0f8c41144cfbf448378cb6fd1cc8e549" x="138.720703"/>
<use xlink:href="#c_0bce5afba2dc6b9024b26277c38ad8e8" x="177.929688"/>
<use xlink:href="#c_6ec8d5749226675394676a5d2a3b468b" x="239.453125"/>
<use xlink:href="#c_6a63bda47b2f3da1cec6aadd80692cfe" x="280.566406"/>
<use xlink:href="#c_01d93a582460e35a7945ca50d148ffeb" x="308.349609"/>
</g>
</g>
<g id="Line3DCollection3">
<defs>
<path id="coll2_0_e8364ca0bcfdfcb380531ff77a5ab1fe" d="M478.568668 -156.425124L278.790660 -270.797403L24.982890 -184.807763"/>
<path id="coll2_1_de262abb05f82da086cc8283981f8acd" d="M480.572397 -183.987978L279.027169 -297.589673L23.040187 -212.190829"/>
<path id="coll2_2_0c01d8c9736ee9867edb4215d8388e24" d="M482.611573 -212.038424L279.267600 -324.826236L21.063652 -240.050777"/>
<path id="coll2_3_a0a4e726c65ad3410273502a2cba9b11" d="M484.687144 -240.589518L279.512052 -352.518236L19.052392 -268.400173"/>
<path id="coll2_4_1d6c3e0ab8df4229fc7b8d25d861234c" d="M486.800094 -269.654783L279.760625 -380.677195L17.005486 -297.252031"/>
<path id="coll2_5_08a94eef2e1451d902af313a2293b4f9" d="M488.951442 -299.248234L280.013426 -409.315022L14.921975 -326.619828"/>
</defs>
<use style="fill: none; stroke: #e6e6e6; stroke-width: 1.000000; stroke-linejoin: round; stroke-linecap: butt;  opacity: 1.000000" xlink:href="#coll2_0_e8364ca0bcfdfcb380531ff77a5ab1fe" x="0.000000" y="442.800000"/>
<use style="fill: none; stroke: #e6e6e6; stroke-width: 1.000000; stroke-linejoin: round; stroke-linecap: butt;  opacity: 1.000000" xlink:href="#coll2_1_de262abb05f82da086cc8283981f8acd" x="0.000000" y="442.800000"/>
<use style="fill: none; stroke: #e6e6e6; stroke-width: 1.000000; stroke-linejoin: round; stroke-linecap: butt;  opacity: 1.000000" xlink:href="#coll2_2_0c01d8c9736ee9867edb4215d8388e24" x="0.000000" y="442.800000"/>
<use style="fill: none; stroke: #e6e6e6; stroke-width: 1.000000; stroke-linejoin: round; stroke-linecap: butt;  opacity: 1.000000" xlink:href="#coll2_3_a0a4e726c65ad3410273502a2cba9b11" x="0.000000" y="442.800000"/>
<use style="fill: none; stroke: #e6e6e6; stroke-width: 1.000000; stroke-linejoin: round; stroke-linecap: butt;  opacity: 1.000000" xlink:href="#coll2_4_1d6c3e0ab8df4229fc7b8d25d861234c" x="0.000000" y="442.800000"/>
<use style="fill: none; stroke: #e6e6e6; stroke-width: 1.000000; stroke-linejoin: round; stroke-linecap: butt;  opacity: 1.000000" xlink:href="#coll2_5_08a94eef2e1451d902af313a2293b4f9" x="0.000000" y="442.800000"/>
</g>
<g id="xtick13">
<g id="line2d16">
<path style="fill: none; stroke: #000000; stroke-width: 1.000000; stroke-linejoin: round; stroke-linecap: square;  opacity: 1.000000"  d="M476.866472 285.400374L481.978426 288.326951"/>
</g>
<g id="text16">
<g style="fill: #000000; opacity: 1.000000" transform="translate(486.468545,296.665664)scale(0.120000)">
<use xlink:href="#c_42baa63129a918535c52adb20d687ea7"/>
<use xlink:href="#c_7a2040fe3b94fcd41d0a72c84e93b115" x="63.623047"/>
<use xlink:href="#c_7a2040fe3b94fcd41d0a72c84e93b115" x="127.246094"/>
<use xlink:href="#c_7a2040fe3b94fcd41d0a72c84e93b115" x="190.869141"/>
</g>
</g>
</g>
<g id="xtick14">
<g id="line2d17">
<path style="fill: none; stroke: #000000; stroke-width: 1.000000; stroke-linejoin: round; stroke-linecap: square;  opacity: 1.000000"  d="M478.854225 257.843568L484.014207 260.752010"/>
</g>
<g id="text17">
<g style="fill: #000000; opacity: 1.000000" transform="translate(488.449172,269.094233)scale(0.120000)">
<use xlink:href="#c_ed3f3ed3ebfbd18bcb9c012009a68ad1"/>
<use xlink:href="#c_7a2040fe3b94fcd41d0a72c84e93b115" x="63.623047"/>
<use xlink:href="#c_7a2040fe3b94fcd41d0a72c84e93b115" x="127.246094"/>
<use xlink:href="#c_7a2040fe3b94fcd41d0a72c84e93b115" x="190.869141"/>
</g>
</g>
</g>
<g id="xtick15">
<g id="line2d18">
<path style="fill: none; stroke: #000000; stroke-width: 1.000000; stroke-linejoin: round; stroke-linecap: square;  opacity: 1.000000"  d="M480.877123 229.799536L486.086039 232.688741"/>
</g>
<g id="text18">
<g style="fill: #000000; opacity: 1.000000" transform="translate(490.710924,241.034688)scale(0.120000)">
<use xlink:href="#c_3dcfa38a02242cb63ec6726c6e70be7a"/>
<use xlink:href="#c_7a2040fe3b94fcd41d0a72c84e93b115" x="63.623047"/>
<use xlink:href="#c_7a2040fe3b94fcd41d0a72c84e93b115" x="127.246094"/>
<use xlink:href="#c_7a2040fe3b94fcd41d0a72c84e93b115" x="190.869141"/>
</g>
</g>
</g>
<g id="xtick16">
<g id="line2d19">
<path style="fill: none; stroke: #000000; stroke-width: 1.000000; stroke-linejoin: round; stroke-linecap: square;  opacity: 1.000000"  d="M482.936106 201.255242L488.194890 204.124055"/>
</g>
<g id="text19">
<g style="fill: #000000; opacity: 1.000000" transform="translate(492.825155,212.473950)scale(0.120000)">
<use xlink:href="#c_a0416418d96557a09b8c1332d34883ba"/>
<use xlink:href="#c_7a2040fe3b94fcd41d0a72c84e93b115" x="63.623047"/>
<use xlink:href="#c_7a2040fe3b94fcd41d0a72c84e93b115" x="127.246094"/>
<use xlink:href="#c_7a2040fe3b94fcd41d0a72c84e93b115" x="190.869141"/>
</g>
</g>
</g>
<g id="xtick17">
<g id="line2d20">
<path style="fill: none; stroke: #000000; stroke-width: 1.000000; stroke-linejoin: round; stroke-linecap: square;  opacity: 1.000000"  d="M485.032149 172.197178L490.341760 175.044393"/>
</g>
<g id="text20">
<g style="fill: #000000; opacity: 1.000000" transform="translate(495.308573,183.398470)scale(0.120000)">
<use xlink:href="#c_1260a2df50f305f3db244e29828f968e"/>
<use xlink:href="#c_7a2040fe3b94fcd41d0a72c84e93b115" x="63.623047"/>
<use xlink:href="#c_7a2040fe3b94fcd41d0a72c84e93b115" x="127.246094"/>
<use xlink:href="#c_7a2040fe3b94fcd41d0a72c84e93b115" x="190.869141"/>
</g>
</g>
</g>
<g id="xtick18">
<g id="line2d21">
<path style="fill: none; stroke: #000000; stroke-width: 1.000000; stroke-linejoin: round; stroke-linecap: square;  opacity: 1.000000"  d="M487.166261 142.611348L492.527687 145.435702"/>
</g>
<g id="text21">
<g style="fill: #000000; opacity: 1.000000" transform="translate(497.631047,153.794206)scale(0.120000)">
<use xlink:href="#c_cc8d6d580d1b10c8632f7a42cd53db8a"/>
<use xlink:href="#c_7a2040fe3b94fcd41d0a72c84e93b115" x="63.623047"/>
<use xlink:href="#c_7a2040fe3b94fcd41d0a72c84e93b115" x="127.246094"/>
<use xlink:href="#c_7a2040fe3b94fcd41d0a72c84e93b115" x="190.869141"/>
</g>
</g>
</g>
</g>
<g id="axes1">
<g id="Line3DCollection4">
<defs>
<path id="coll3_0_f81e24fc82c0e939fe7753b7f054e99a" d="M468.150771 -139.679624L427.796085 -115.078637L391.223868 -184.196674
L346.993682 -100.655357L306.120169 -141.122504L262.519594 -65.596793
L219.382358 -38.421598"/>
<path id="coll3_1_9b54cd381d6bb78a3e4b4d8a5f73d5d9" d="M434.188494 -149.567806L394.964412 -141.675647L356.058485 -167.010762
L314.445347 -143.218637L272.417223 -124.115500L229.283945 -182.881829
L186.803593 -73.633766"/>
<path id="coll3_2_1b65dfd11d7a38ae78d7b7f345e0f55f" d="M404.156235 -222.462572L362.527161 -163.934721L323.065030 -178.599147
L281.828542 -156.194858L240.085114 -145.877416L197.297971 -149.058592
L154.356569 -117.414259"/>
<path id="coll3_3_e27c7a291abf07363642cabf17a03381" d="M370.979124 -223.623857L331.746705 -227.296369L290.893280 -188.193947
L250.029730 -203.954069L208.128364 -187.834428L166.676805 -130.505464
L123.001974 -139.407544"/>
<path id="coll3_4_6e52d42141d46f9d5c5361b0971aafa2" d="M339.595835 -252.910020L299.915934 -237.967910L259.680559 -235.541304
L218.950169 -188.166560L177.087632 -199.328024L135.481142 -166.076753
L91.928974 -167.953142"/>
<path id="coll3_5_ac946cb55f251ab639115e3f1d4363cd" d="M310.084318 -363.029870L269.751514 -398.786673L228.584434 -277.915028
L186.974450 -286.227870L146.209477 -229.941911L101.528881 -269.091696
L57.978746 -252.792109"/>
<path id="coll3_6_e7f02191df1b46bcc4274a2efb9512b1" d="M278.747163 -390.122321L238.211218 -367.820757L196.751779 -377.682363
L156.242588 -310.525977L114.593672 -287.949094L73.994279 -237.900680
L23.316841 -339.837292"/>
<path id="coll3_7_e7f02191df1b46bcc4274a2efb9512b1" d="M278.747163 -390.122321L238.211218 -367.820757L196.751779 -377.682363
L156.242588 -310.525977L114.593672 -287.949094L73.994279 -237.900680
L23.316841 -339.837292"/>
<path id="coll3_8_7bb011775f10cce8a3e5eba2260ce37d" d="M468.150771 -139.679624L434.188494 -149.567806L404.156235 -222.462572
L370.979124 -223.623857L339.595835 -252.910020L310.084318 -363.029870
L278.747163 -390.122321"/>
<path id="coll3_9_d0a4af53ef88b67dd64f24dd7177bb93" d="M427.796085 -115.078637L394.964412 -141.675647L362.527161 -163.934721
L331.746705 -227.296369L299.915934 -237.967910L269.751514 -398.786673
L238.211218 -367.820757"/>
<path id="coll3_a_d4dd90cd58ebf08c6231b56ef4ebf8f6" d="M391.223868 -184.196674L356.058485 -167.010762L323.065030 -178.599147
L290.893280 -188.193947L259.680559 -235.541304L228.584434 -277.915028
L196.751779 -377.682363"/>
<path id="coll3_b_0584ca35090be61a1f95150cf9498810" d="M346.993682 -100.655357L314.445347 -143.218637L281.828542 -156.194858
L250.029730 -203.954069L218.950169 -188.166560L186.974450 -286.227870
L156.242588 -310.525977"/>
<path id="coll3_c_8d348d96b98bd27533602b75b5eb2412" d="M306.120169 -141.122504L272.417223 -124.115500L240.085114 -145.877416
L208.128364 -187.834428L177.087632 -199.328024L146.209477 -229.941911
L114.593672 -287.949094"/>
<path id="coll3_d_8a8b7549897a10322e5e2c8702faa0b6" d="M262.519594 -65.596793L229.283945 -182.881829L197.297971 -149.058592
L166.676805 -130.505464L135.481142 -166.076753L101.528881 -269.091696
L73.994279 -237.900680"/>
<path id="coll3_e_eb7017f1250b4256b6f330d4315ef8cb" d="M219.382358 -38.421598L186.803593 -73.633766L154.356569 -117.414259
L123.001974 -139.407544L91.928974 -167.953142L57.978746 -252.792109
L23.316841 -339.837292"/>
<path id="coll3_f_eb7017f1250b4256b6f330d4315ef8cb" d="M219.382358 -38.421598L186.803593 -73.633766L154.356569 -117.414259
L123.001974 -139.407544L91.928974 -167.953142L57.978746 -252.792109
L23.316841 -339.837292"/>
</defs>
<defs>
  <clipPath id="p7458867926d2dfc2fafcfa7d32fa4125">
<rect x="0.000000" y="0.000000" width="586.800000" height="442.800000"/>
  </clipPath>
</defs><g clip-path="url(#p7458867926d2dfc2fafcfa7d32fa4125)"><use style="fill: none; stroke: #0000ff; stroke-width: 1.000000; stroke-linejoin: round; stroke-linecap: butt;  opacity: 1.000000" xlink:href="#coll3_0_f81e24fc82c0e939fe7753b7f054e99a" x="0.000000" y="442.800000"/>
</g><g clip-path="url(#p7458867926d2dfc2fafcfa7d32fa4125)"><use style="fill: none; stroke: #0000ff; stroke-width: 1.000000; stroke-linejoin: round; stroke-linecap: butt;  opacity: 1.000000" xlink:href="#coll3_1_9b54cd381d6bb78a3e4b4d8a5f73d5d9" x="0.000000" y="442.800000"/>
</g><g clip-path="url(#p7458867926d2dfc2fafcfa7d32fa4125)"><use style="fill: none; stroke: #0000ff; stroke-width: 1.000000; stroke-linejoin: round; stroke-linecap: butt;  opacity: 1.000000" xlink:href="#coll3_2_1b65dfd11d7a38ae78d7b7f345e0f55f" x="0.000000" y="442.800000"/>
</g><g clip-path="url(#p7458867926d2dfc2fafcfa7d32fa4125)"><use style="fill: none; stroke: #0000ff; stroke-width: 1.000000; stroke-linejoin: round; stroke-linecap: butt;  opacity: 1.000000" xlink:href="#coll3_3_e27c7a291abf07363642cabf17a03381" x="0.000000" y="442.800000"/>
</g><g clip-path="url(#p7458867926d2dfc2fafcfa7d32fa4125)"><use style="fill: none; stroke: #0000ff; stroke-width: 1.000000; stroke-linejoin: round; stroke-linecap: butt;  opacity: 1.000000" xlink:href="#coll3_4_6e52d42141d46f9d5c5361b0971aafa2" x="0.000000" y="442.800000"/>
</g><g clip-path="url(#p7458867926d2dfc2fafcfa7d32fa4125)"><use style="fill: none; stroke: #0000ff; stroke-width: 1.000000; stroke-linejoin: round; stroke-linecap: butt;  opacity: 1.000000" xlink:href="#coll3_5_ac946cb55f251ab639115e3f1d4363cd" x="0.000000" y="442.800000"/>
</g><g clip-path="url(#p7458867926d2dfc2fafcfa7d32fa4125)"><use style="fill: none; stroke: #0000ff; stroke-width: 1.000000; stroke-linejoin: round; stroke-linecap: butt;  opacity: 1.000000" xlink:href="#coll3_6_e7f02191df1b46bcc4274a2efb9512b1" x="0.000000" y="442.800000"/>
</g><g clip-path="url(#p7458867926d2dfc2fafcfa7d32fa4125)"><use style="fill: none; stroke: #0000ff; stroke-width: 1.000000; stroke-linejoin: round; stroke-linecap: butt;  opacity: 1.000000" xlink:href="#coll3_7_e7f02191df1b46bcc4274a2efb9512b1" x="0.000000" y="442.800000"/>
</g><g clip-path="url(#p7458867926d2dfc2fafcfa7d32fa4125)"><use style="fill: none; stroke: #0000ff; stroke-width: 1.000000; stroke-linejoin: round; stroke-linecap: butt;  opacity: 1.000000" xlink:href="#coll3_8_7bb011775f10cce8a3e5eba2260ce37d" x="0.000000" y="442.800000"/>
</g><g clip-path="url(#p7458867926d2dfc2fafcfa7d32fa4125)"><use style="fill: none; stroke: #0000ff; stroke-width: 1.000000; stroke-linejoin: round; stroke-linecap: butt;  opacity: 1.000000" xlink:href="#coll3_9_d0a4af53ef88b67dd64f24dd7177bb93" x="0.000000" y="442.800000"/>
</g><g clip-path="url(#p7458867926d2dfc2fafcfa7d32fa4125)"><use style="fill: none; stroke: #0000ff; stroke-width: 1.000000; stroke-linejoin: round; stroke-linecap: butt;  opacity: 1.000000" xlink:href="#coll3_a_d4dd90cd58ebf08c6231b56ef4ebf8f6" x="0.000000" y="442.800000"/>
</g><g clip-path="url(#p7458867926d2dfc2fafcfa7d32fa4125)"><use style="fill: none; stroke: #0000ff; stroke-width: 1.000000; stroke-linejoin: round; stroke-linecap: butt;  opacity: 1.000000" xlink:href="#coll3_b_0584ca35090be61a1f95150cf9498810" x="0.000000" y="442.800000"/>
</g><g clip-path="url(#p7458867926d2dfc2fafcfa7d32fa4125)"><use style="fill: none; stroke: #0000ff; stroke-width: 1.000000; stroke-linejoin: round; stroke-linecap: butt;  opacity: 1.000000" xlink:href="#coll3_c_8d348d96b98bd27533602b75b5eb2412" x="0.000000" y="442.800000"/>
</g><g clip-path="url(#p7458867926d2dfc2fafcfa7d32fa4125)"><use style="fill: none; stroke: #0000ff; stroke-width: 1.000000; stroke-linejoin: round; stroke-linecap: butt;  opacity: 1.000000" xlink:href="#coll3_d_8a8b7549897a10322e5e2c8702faa0b6" x="0.000000" y="442.800000"/>
</g><g clip-path="url(#p7458867926d2dfc2fafcfa7d32fa4125)"><use style="fill: none; stroke: #0000ff; stroke-width: 1.000000; stroke-linejoin: round; stroke-linecap: butt;  opacity: 1.000000" xlink:href="#coll3_e_eb7017f1250b4256b6f330d4315ef8cb" x="0.000000" y="442.800000"/>
</g><g clip-path="url(#p7458867926d2dfc2fafcfa7d32fa4125)"><use style="fill: none; stroke: #0000ff; stroke-width: 1.000000; stroke-linejoin: round; stroke-linecap: butt;  opacity: 1.000000" xlink:href="#coll3_f_eb7017f1250b4256b6f330d4315ef8cb" x="0.000000" y="442.800000"/>
</g></g>
<g id="matplotlib.axis1">
</g>
<g id="matplotlib.axis2">
</g>
</g>
</g>
</svg>
