<?xml version="1.0" encoding="UTF-8" standalone="no"?>
<!-- Created with Inkscape (http://www.inkscape.org/) -->

<svg
   xmlns:dc="http://purl.org/dc/elements/1.1/"
   xmlns:cc="http://creativecommons.org/ns#"
   xmlns:rdf="http://www.w3.org/1999/02/22-rdf-syntax-ns#"
   xmlns:svg="http://www.w3.org/2000/svg"
   xmlns="http://www.w3.org/2000/svg"
   xmlns:sodipodi="http://sodipodi.sourceforge.net/DTD/sodipodi-0.dtd"
   xmlns:inkscape="http://www.inkscape.org/namespaces/inkscape"
   width="265.14087"
   height="576.40948"
   id="svg3117"
   version="1.1"
   inkscape:version="0.48.4 r9939"
   sodipodi:docname="example2_architectures.svg">
  <defs
     id="defs3119" />
  <sodipodi:namedview
     id="base"
     pagecolor="#ffffff"
     bordercolor="#666666"
     borderopacity="1.0"
     inkscape:pageopacity="0.0"
     inkscape:pageshadow="2"
     inkscape:zoom="0.98994949"
     inkscape:cx="206.23094"
     inkscape:cy="368.00735"
     inkscape:document-units="px"
     inkscape:current-layer="layer1"
     showgrid="false"
     inkscape:window-width="1920"
     inkscape:window-height="1022"
     inkscape:window-x="0"
     inkscape:window-y="30"
     inkscape:window-maximized="1"
     showguides="true"
     inkscape:guide-bbox="true"
     fit-margin-top="0"
     fit-margin-left="0"
     fit-margin-right="0"
     fit-margin-bottom="0" />
  <metadata
     id="metadata3122">
    <rdf:RDF>
      <cc:Work
         rdf:about="">
        <dc:format>image/svg+xml</dc:format>
        <dc:type
           rdf:resource="http://purl.org/dc/dcmitype/StillImage" />
        <dc:title />
      </cc:Work>
    </rdf:RDF>
  </metadata>
  <g
     inkscape:label="Layer 1"
     inkscape:groupmode="layer"
     id="layer1"
     transform="translate(-231.60244,-20.421614)">
    <g
       id="g3446"
       transform="matrix(0.385,0,0,0.385,225.28394,7.3484258)">
      <g
         transform="matrix(1.25,0,0,1.25,25.714281,392.09432)"
         id="node2"
         class="node">
        <title
           id="title10">source1</title>
        <polygon
           style="fill:none;stroke:#87ceeb"
           points="174.75,-252 174.75,-216 235.25,-216 235.25,-252 235.25,-252 "
           id="polygon12" />
        <text
           style="font-size:14px;text-anchor:middle;font-family:'Times New Roman,serif'"
           x="205"
           y="-230.3"
           font-size="14.00"
           id="text14">source1</text>
      </g>
      <g
         transform="matrix(1.25,0,0,1.25,25.714281,392.09432)"
         id="node4"
         class="node">
        <title
           id="title17">Stage_12_1p2_3p6</title>
        <polygon
           style="fill:none;stroke:#ff4500"
           points="-0.25,-180 -0.25,-144 124.25,-144 124.25,-180 124.25,-180 "
           id="polygon19" />
        <text
           style="font-size:14px;text-anchor:middle;font-family:'Times New Roman,serif'"
           x="62"
           y="-158.3"
           font-size="14.00"
           id="text21">Stage_12_1p2_3p6</text>
      </g>
      <g
         transform="matrix(1.25,0,0,1.25,25.714281,392.09432)"
         id="edge13"
         class="edge">
        <title
           id="title24">source1--Stage_12_1p2_3p6</title>
        <path
           style="fill:none;stroke:#000000"
           inkscape:connector-curvature="0"
           d="m 174.673,-218.155 c -22.791,11.157 -54.051,26.459 -77.8627,38.115"
           id="path26" />
      </g>
      <g
         transform="matrix(1.25,0,0,1.25,25.714281,392.09432)"
         id="node8"
         class="node">
        <title
           id="title29">Stage_12_3p3_9p9</title>
        <polygon
           style="fill:none;stroke:#ff4500"
           points="142.75,-180 142.75,-144 267.25,-144 267.25,-180 267.25,-180 "
           id="polygon31" />
        <text
           style="font-size:14px;text-anchor:middle;font-family:'Times New Roman,serif'"
           x="205"
           y="-158.3"
           font-size="14.00"
           id="text33">Stage_12_3p3_9p9</text>
      </g>
      <g
         transform="matrix(1.25,0,0,1.25,25.714281,392.09432)"
         id="edge15"
         class="edge">
        <title
           id="title36">source1--Stage_12_3p3_9p9</title>
        <path
           style="fill:none;stroke:#000000"
           inkscape:connector-curvature="0"
           d="m 205,-215.697 c 0,10.851 0,24.78 0,35.593"
           id="path38" />
      </g>
      <g
         transform="matrix(1.25,0,0,1.25,25.714281,392.09432)"
         id="node12"
         class="node">
        <title
           id="title41">Stage_12_5_25</title>
        <polygon
           style="fill:none;stroke:#ff4500"
           points="322,-180 322,-144 426,-144 426,-180 426,-180 "
           id="polygon43" />
        <text
           style="font-size:14px;text-anchor:middle;font-family:'Times New Roman,serif'"
           x="374"
           y="-158.3"
           font-size="14.00"
           id="text45">Stage_12_5_25</text>
      </g>
      <g
         transform="matrix(1.25,0,0,1.25,25.714281,392.09432)"
         id="edge17"
         class="edge">
        <title
           id="title48">source1--Stage_12_5_25</title>
        <path
           style="fill:none;stroke:#000000"
           inkscape:connector-curvature="0"
           d="m 235.605,-220.324 c 27.204,11.268 67.199,27.834 97.207,40.264"
           id="path50" />
      </g>
      <g
         transform="matrix(1.25,0,0,1.25,25.714281,392.09432)"
         id="node6"
         class="node">
        <title
           id="title53">load1</title>
        <polygon
           style="fill:none;stroke:#ffd700"
           points="35,-108 35,-72 89,-72 89,-108 89,-108 "
           id="polygon55" />
        <text
           style="font-size:14px;text-anchor:middle;font-family:'Times New Roman,serif'"
           x="62"
           y="-86.300003"
           font-size="14.00"
           id="text57">load1</text>
      </g>
      <g
         transform="matrix(1.25,0,0,1.25,25.714281,392.09432)"
         id="edge19"
         class="edge">
        <title
           id="title60">Stage_12_1p2_3p6--load1</title>
        <path
           style="fill:none;stroke:#000000"
           inkscape:connector-curvature="0"
           d="m 62,-143.697 c 0,10.851 0,24.78 0,35.593"
           id="path62" />
      </g>
      <g
         transform="matrix(1.25,0,0,1.25,25.714281,392.09432)"
         id="node10"
         class="node">
        <title
           id="title65">load4</title>
        <polygon
           style="fill:none;stroke:#ffd700"
           points="142,-108 142,-72 196,-72 196,-108 196,-108 "
           id="polygon67" />
        <text
           style="font-size:14px;text-anchor:middle;font-family:'Times New Roman,serif'"
           x="169"
           y="-86.300003"
           font-size="14.00"
           id="text69">load4</text>
      </g>
      <g
         transform="matrix(1.25,0,0,1.25,25.714281,392.09432)"
         id="edge21"
         class="edge">
        <title
           id="title72">Stage_12_3p3_9p9--load4</title>
        <path
           style="fill:none;stroke:#000000"
           inkscape:connector-curvature="0"
           d="m 196.101,-143.697 c -5.58,10.851 -12.744,24.78 -18.304,35.593"
           id="path74" />
      </g>
      <g
         transform="matrix(1.25,0,0,1.25,25.714281,392.09432)"
         id="node14"
         class="node">
        <title
           id="title77">Stage_5_1p8_5p4</title>
        <polygon
           style="fill:none;stroke:#ff4500"
           points="214.75,-108 214.75,-72 333.25,-72 333.25,-108 333.25,-108 "
           id="polygon79" />
        <text
           style="font-size:14px;text-anchor:middle;font-family:'Times New Roman,serif'"
           x="274"
           y="-86.300003"
           font-size="14.00"
           id="text81">Stage_5_1p8_5p4</text>
      </g>
      <g
         transform="matrix(1.25,0,0,1.25,25.714281,392.09432)"
         id="edge23"
         class="edge">
        <title
           id="title84">Stage_12_5_25--Stage_5_1p8_5p4</title>
        <path
           style="fill:none;stroke:#000000"
           inkscape:connector-curvature="0"
           d="m 349.537,-143.876 c -15.496,10.847 -35.466,24.826 -50.98,35.686"
           id="path86" />
      </g>
      <g
         transform="matrix(1.25,0,0,1.25,25.714281,392.09432)"
         id="node18"
         class="node">
        <title
           id="title89">Stage_5_2p5_7p5</title>
        <polygon
           style="fill:none;stroke:#ff4500"
           points="351.75,-108 351.75,-72 470.25,-72 470.25,-108 470.25,-108 "
           id="polygon91" />
        <text
           style="font-size:14px;text-anchor:middle;font-family:'Times New Roman,serif'"
           x="411"
           y="-86.300003"
           font-size="14.00"
           id="text93">Stage_5_2p5_7p5</text>
      </g>
      <g
         transform="matrix(1.25,0,0,1.25,25.714281,392.09432)"
         id="edge25"
         class="edge">
        <title
           id="title96">Stage_12_5_25--Stage_5_2p5_7p5</title>
        <path
           style="fill:none;stroke:#000000"
           inkscape:connector-curvature="0"
           d="m 383.146,-143.697 c 5.735,10.851 13.098,24.78 18.813,35.593"
           id="path98" />
      </g>
      <g
         transform="matrix(1.25,0,0,1.25,25.714281,392.09432)"
         id="node22"
         class="node">
        <title
           id="title101">load5</title>
        <polygon
           style="fill:none;stroke:#ffd700"
           points="489,-108 489,-72 543,-72 543,-108 543,-108 "
           id="polygon103" />
        <text
           style="font-size:14px;text-anchor:middle;font-family:'Times New Roman,serif'"
           x="516"
           y="-86.300003"
           font-size="14.00"
           id="text105">load5</text>
      </g>
      <g
         transform="matrix(1.25,0,0,1.25,25.714281,392.09432)"
         id="edge27"
         class="edge">
        <title
           id="title108">Stage_12_5_25--load5</title>
        <path
           style="fill:none;stroke:#000000"
           inkscape:connector-curvature="0"
           d="m 408.737,-143.876 c 24.632,12.143 57.224,28.209 79.992,39.432"
           id="path110" />
      </g>
      <g
         transform="matrix(1.25,0,0,1.25,25.714281,392.09432)"
         id="node16"
         class="node">
        <title
           id="title113">load2</title>
        <polygon
           style="fill:none;stroke:#ffd700"
           points="247,-36 247,0 301,0 301,-36 301,-36 "
           id="polygon115" />
        <text
           style="font-size:14px;text-anchor:middle;font-family:'Times New Roman,serif'"
           x="274"
           y="-14.3"
           font-size="14.00"
           id="text117">load2</text>
      </g>
      <g
         transform="matrix(1.25,0,0,1.25,25.714281,392.09432)"
         id="edge29"
         class="edge">
        <title
           id="title120">Stage_5_1p8_5p4--load2</title>
        <path
           style="fill:none;stroke:#000000"
           inkscape:connector-curvature="0"
           d="m 274,-71.6966 c 0,10.8503 0,24.7799 0,35.5923"
           id="path122" />
      </g>
      <g
         transform="matrix(1.25,0,0,1.25,25.714281,392.09432)"
         id="node20"
         class="node">
        <title
           id="title125">load3</title>
        <polygon
           style="fill:none;stroke:#ffd700"
           points="384,-36 384,0 438,0 438,-36 438,-36 "
           id="polygon127" />
        <text
           style="font-size:14px;text-anchor:middle;font-family:'Times New Roman,serif'"
           x="411"
           y="-14.3"
           font-size="14.00"
           id="text129">load3</text>
      </g>
      <g
         transform="matrix(1.25,0,0,1.25,25.714281,392.09432)"
         id="edge31"
         class="edge">
        <title
           id="title132">Stage_5_2p5_7p5--load3</title>
        <path
           style="fill:none;stroke:#000000"
           inkscape:connector-curvature="0"
           d="m 411,-71.6966 c 0,10.8503 0,24.7799 0,35.5923"
           id="path134" />
      </g>
    </g>
    <g
       id="g3756"
       transform="matrix(0.385,0,0,0.385,209.55088,-7.7515721)">
      <g
         transform="matrix(1.25,0,0,1.25,58.214286,794.95146)"
         id="node2-7"
         class="node">
        <title
           id="title10-4">source1</title>
        <polygon
           style="fill:none;stroke:#87ceeb"
           points="370.75,-252 370.75,-216 431.25,-216 431.25,-252 431.25,-252 "
           id="polygon12-0" />
        <text
           style="font-size:14px;text-anchor:middle;font-family:'Times New Roman,serif'"
           x="401"
           y="-230.3"
           font-size="14.00"
           id="text14-9">source1</text>
      </g>
      <g
         transform="matrix(1.25,0,0,1.25,58.214286,794.95146)"
         id="node4-4"
         class="node">
        <title
           id="title17-8">Stage_12_5_25</title>
        <polygon
           style="fill:none;stroke:#ff4500"
           points="274,-180 274,-144 378,-144 378,-180 378,-180 "
           id="polygon19-8" />
        <text
           style="font-size:14px;text-anchor:middle;font-family:'Times New Roman,serif'"
           x="326"
           y="-158.3"
           font-size="14.00"
           id="text21-2">Stage_12_5_25</text>
      </g>
      <g
         transform="matrix(1.25,0,0,1.25,58.214286,794.95146)"
         id="edge13-4"
         class="edge">
        <title
           id="title24-5">source1--Stage_12_5_25</title>
        <path
           style="fill:none;stroke:#000000"
           inkscape:connector-curvature="0"
           d="m 382.461,-215.697 c -11.626,10.851 -26.55,24.78 -38.135,35.593"
           id="path26-5" />
      </g>
      <g
         transform="matrix(1.25,0,0,1.25,58.214286,794.95146)"
         id="node20-1"
         class="node">
        <title
           id="title29-7">Stage_12_3p3_9p9</title>
        <polygon
           style="fill:none;stroke:#ff4500"
           points="414.75,-180 414.75,-144 539.25,-144 539.25,-180 539.25,-180 "
           id="polygon31-1" />
        <text
           style="font-size:14px;text-anchor:middle;font-family:'Times New Roman,serif'"
           x="477"
           y="-158.3"
           font-size="14.00"
           id="text33-1">Stage_12_3p3_9p9</text>
      </g>
      <g
         transform="matrix(1.25,0,0,1.25,58.214286,794.95146)"
         id="edge15-5"
         class="edge">
        <title
           id="title36-2">source1--Stage_12_3p3_9p9</title>
        <path
           style="fill:none;stroke:#000000"
           inkscape:connector-curvature="0"
           d="m 419.787,-215.697 c 11.78,10.851 26.903,24.78 38.643,35.593"
           id="path38-7" />
      </g>
      <g
         transform="matrix(1.25,0,0,1.25,58.214286,794.95146)"
         id="node6-6"
         class="node">
        <title
           id="title41-1">Stage_5_1p8_5p4</title>
        <polygon
           style="fill:none;stroke:#ff4500"
           points="-0.25,-108 -0.25,-72 118.25,-72 118.25,-108 118.25,-108 "
           id="polygon43-4" />
        <text
           style="font-size:14px;text-anchor:middle;font-family:'Times New Roman,serif'"
           x="59"
           y="-86.300003"
           font-size="14.00"
           id="text45-2">Stage_5_1p8_5p4</text>
      </g>
      <g
         transform="matrix(1.25,0,0,1.25,58.214286,794.95146)"
         id="edge17-3"
         class="edge">
        <title
           id="title48-2">Stage_12_5_25--Stage_5_1p8_5p4</title>
        <path
           style="fill:none;stroke:#000000"
           inkscape:connector-curvature="0"
           d="M 273.886,-147.337 C 229.268,-135.64 165.037,-118.8 118.43,-106.581"
           id="path50-2" />
      </g>
      <g
         transform="matrix(1.25,0,0,1.25,58.214286,794.95146)"
         id="node10-1"
         class="node">
        <title
           id="title53-6">Stage_5_2p5_7p5</title>
        <polygon
           style="fill:none;stroke:#ff4500"
           points="136.75,-108 136.75,-72 255.25,-72 255.25,-108 255.25,-108 "
           id="polygon55-8" />
        <text
           style="font-size:14px;text-anchor:middle;font-family:'Times New Roman,serif'"
           x="196"
           y="-86.300003"
           font-size="14.00"
           id="text57-5">Stage_5_2p5_7p5</text>
      </g>
      <g
         transform="matrix(1.25,0,0,1.25,58.214286,794.95146)"
         id="edge19-7"
         class="edge">
        <title
           id="title60-6">Stage_12_5_25--Stage_5_2p5_7p5</title>
        <path
           style="fill:none;stroke:#000000"
           inkscape:connector-curvature="0"
           d="m 294.198,-143.876 c -20.145,10.847 -46.106,24.826 -66.274,35.686"
           id="path62-1" />
      </g>
      <g
         transform="matrix(1.25,0,0,1.25,58.214286,794.95146)"
         id="node14-8"
         class="node">
        <title
           id="title65-9">Stage_5_1p2_6</title>
        <polygon
           style="fill:none;stroke:#ff4500"
           points="274,-108 274,-72 378,-72 378,-108 378,-108 "
           id="polygon67-2" />
        <text
           style="font-size:14px;text-anchor:middle;font-family:'Times New Roman,serif'"
           x="326"
           y="-86.300003"
           font-size="14.00"
           id="text69-7">Stage_5_1p2_6</text>
      </g>
      <g
         transform="matrix(1.25,0,0,1.25,58.214286,794.95146)"
         id="edge21-9"
         class="edge">
        <title
           id="title72-5">Stage_12_5_25--Stage_5_1p2_6</title>
        <path
           style="fill:none;stroke:#000000"
           inkscape:connector-curvature="0"
           d="m 326,-143.697 c 0,10.851 0,24.78 0,35.593"
           id="path74-4" />
      </g>
      <g
         transform="matrix(1.25,0,0,1.25,58.214286,794.95146)"
         id="node18-3"
         class="node">
        <title
           id="title77-1">load5</title>
        <polygon
           style="fill:none;stroke:#ffd700"
           points="396,-108 396,-72 450,-72 450,-108 450,-108 "
           id="polygon79-2" />
        <text
           style="font-size:14px;text-anchor:middle;font-family:'Times New Roman,serif'"
           x="423"
           y="-86.300003"
           font-size="14.00"
           id="text81-3">load5</text>
      </g>
      <g
         transform="matrix(1.25,0,0,1.25,58.214286,794.95146)"
         id="edge23-3"
         class="edge">
        <title
           id="title84-4">Stage_12_5_25--load5</title>
        <path
           style="fill:none;stroke:#000000"
           inkscape:connector-curvature="0"
           d="m 349.978,-143.697 c 15.035,10.851 34.337,24.78 49.32,35.593"
           id="path86-1" />
      </g>
      <g
         transform="matrix(1.25,0,0,1.25,58.214286,794.95146)"
         id="node8-1"
         class="node">
        <title
           id="title89-3">load2</title>
        <polygon
           style="fill:none;stroke:#ffd700"
           points="32,-36 32,0 86,0 86,-36 86,-36 "
           id="polygon91-8" />
        <text
           style="font-size:14px;text-anchor:middle;font-family:'Times New Roman,serif'"
           x="59"
           y="-14.3"
           font-size="14.00"
           id="text93-7">load2</text>
      </g>
      <g
         transform="matrix(1.25,0,0,1.25,58.214286,794.95146)"
         id="edge25-4"
         class="edge">
        <title
           id="title96-2">Stage_5_1p8_5p4--load2</title>
        <path
           style="fill:none;stroke:#000000"
           inkscape:connector-curvature="0"
           d="m 59,-71.6966 c 0,10.8503 0,24.7799 0,35.5923"
           id="path98-7" />
      </g>
      <g
         transform="matrix(1.25,0,0,1.25,58.214286,794.95146)"
         id="node12-7"
         class="node">
        <title
           id="title101-9">load3</title>
        <polygon
           style="fill:none;stroke:#ffd700"
           points="169,-36 169,0 223,0 223,-36 223,-36 "
           id="polygon103-3" />
        <text
           style="font-size:14px;text-anchor:middle;font-family:'Times New Roman,serif'"
           x="196"
           y="-14.3"
           font-size="14.00"
           id="text105-1">load3</text>
      </g>
      <g
         transform="matrix(1.25,0,0,1.25,58.214286,794.95146)"
         id="edge27-9"
         class="edge">
        <title
           id="title108-8">Stage_5_2p5_7p5--load3</title>
        <path
           style="fill:none;stroke:#000000"
           inkscape:connector-curvature="0"
           d="m 196,-71.6966 c 0,10.8503 0,24.7799 0,35.5923"
           id="path110-6" />
      </g>
      <g
         transform="matrix(1.25,0,0,1.25,58.214286,794.95146)"
         id="node16-5"
         class="node">
        <title
           id="title113-0">load1</title>
        <polygon
           style="fill:none;stroke:#ffd700"
           points="299,-36 299,0 353,0 353,-36 353,-36 "
           id="polygon115-2" />
        <text
           style="font-size:14px;text-anchor:middle;font-family:'Times New Roman,serif'"
           x="326"
           y="-14.3"
           font-size="14.00"
           id="text117-8">load1</text>
      </g>
      <g
         transform="matrix(1.25,0,0,1.25,58.214286,794.95146)"
         id="edge29-6"
         class="edge">
        <title
           id="title120-0">Stage_5_1p2_6--load1</title>
        <path
           style="fill:none;stroke:#000000"
           inkscape:connector-curvature="0"
           d="m 326,-71.6966 c 0,10.8503 0,24.7799 0,35.5923"
           id="path122-2" />
      </g>
      <g
         transform="matrix(1.25,0,0,1.25,58.214286,794.95146)"
         id="node22-4"
         class="node">
        <title
           id="title125-8">load4</title>
        <polygon
           style="fill:none;stroke:#ffd700"
           points="468,-108 468,-72 522,-72 522,-108 522,-108 "
           id="polygon127-6" />
        <text
           style="font-size:14px;text-anchor:middle;font-family:'Times New Roman,serif'"
           x="495"
           y="-86.300003"
           font-size="14.00"
           id="text129-5">load4</text>
      </g>
      <g
         transform="matrix(1.25,0,0,1.25,58.214286,794.95146)"
         id="edge31-0"
         class="edge">
        <title
           id="title132-9">Stage_12_3p3_9p9--load4</title>
        <path
           style="fill:none;stroke:#000000"
           inkscape:connector-curvature="0"
           d="m 481.449,-143.697 c 2.791,10.851 6.372,24.78 9.153,35.593"
           id="path134-0" />
      </g>
    </g>
    <g
       id="g4066"
       transform="matrix(0.385,0,0,0.385,222.10247,92.234144)">
      <g
         transform="matrix(1.25,0,0,1.25,30.267854,946.38004)"
         id="node2-6"
         class="node">
        <title
           id="title10-1">source1</title>
        <polygon
           style="fill:none;stroke:#87ceeb"
           points="207.25,-252 146.75,-252 146.75,-216 207.25,-216 207.25,-252 "
           id="polygon12-3" />
        <text
           style="font-size:14px;text-anchor:middle;font-family:'Times New Roman,serif'"
           x="177"
           y="-230.3"
           font-size="14.00"
           id="text14-8">source1</text>
      </g>
      <g
         transform="matrix(1.25,0,0,1.25,30.267854,946.38004)"
         id="node4-9"
         class="node">
        <title
           id="title17-3">Stage_12_1p2_6</title>
        <polygon
           style="fill:none;stroke:#ff4500"
           points="140.25,-180 29.75,-180 29.75,-144 140.25,-144 140.25,-180 "
           id="polygon19-4" />
        <text
           style="font-size:14px;text-anchor:middle;font-family:'Times New Roman,serif'"
           x="85"
           y="-158.3"
           font-size="14.00"
           id="text21-4">Stage_12_1p2_6</text>
      </g>
      <g
         transform="matrix(1.25,0,0,1.25,30.267854,946.38004)"
         id="edge13-6"
         class="edge">
        <title
           id="title24-0">source1--Stage_12_1p2_6</title>
        <path
           style="fill:none;stroke:#000000"
           inkscape:connector-curvature="0"
           d="m 154.258,-215.697 c -14.26,10.851 -32.567,24.78 -46.778,35.593"
           id="path26-6" />
      </g>
      <g
         transform="matrix(1.25,0,0,1.25,30.267854,946.38004)"
         id="node8-6"
         class="node">
        <title
           id="title29-1">Stage_12_5_25</title>
        <polygon
           style="fill:none;stroke:#ff4500"
           points="321,-180 217,-180 217,-144 321,-144 321,-180 "
           id="polygon31-8" />
        <text
           style="font-size:14px;text-anchor:middle;font-family:'Times New Roman,serif'"
           x="269"
           y="-158.3"
           font-size="14.00"
           id="text33-4">Stage_12_5_25</text>
      </g>
      <g
         transform="matrix(1.25,0,0,1.25,30.267854,946.38004)"
         id="edge15-9"
         class="edge">
        <title
           id="title36-6">source1--Stage_12_5_25</title>
        <path
           style="fill:none;stroke:#000000"
           inkscape:connector-curvature="0"
           d="m 199.742,-215.697 c 14.26,10.851 32.567,24.78 46.778,35.593"
           id="path38-3" />
      </g>
      <g
         transform="matrix(1.25,0,0,1.25,30.267854,946.38004)"
         id="node6-7"
         class="node">
        <title
           id="title41-8">load1</title>
        <polygon
           style="fill:none;stroke:#ffd700"
           points="54,-108 0,-108 0,-72 54,-72 54,-108 "
           id="polygon43-8" />
        <text
           style="font-size:14px;text-anchor:middle;font-family:'Times New Roman,serif'"
           x="27"
           y="-86.300003"
           font-size="14.00"
           id="text45-29">load1</text>
      </g>
      <g
         transform="matrix(1.25,0,0,1.25,30.267854,946.38004)"
         id="edge17-1"
         class="edge">
        <title
           id="title48-3">Stage_12_1p2_6--load1</title>
        <path
           style="fill:none;stroke:#000000"
           inkscape:connector-curvature="0"
           d="m 70.6629,-143.697 c -8.9903,10.851 -20.5319,24.78 -29.4907,35.593"
           id="path50-5" />
      </g>
      <g
         transform="matrix(1.25,0,0,1.25,30.267854,946.38004)"
         id="node10-9"
         class="node">
        <title
           id="title53-8">Stage_5_1p8_5p4</title>
        <polygon
           style="fill:none;stroke:#ff4500"
           points="191.25,-108 72.75,-108 72.75,-72 191.25,-72 191.25,-108 "
           id="polygon55-4" />
        <text
           style="font-size:14px;text-anchor:middle;font-family:'Times New Roman,serif'"
           x="132"
           y="-86.300003"
           font-size="14.00"
           id="text57-0">Stage_5_1p8_5p4</text>
      </g>
      <g
         transform="matrix(1.25,0,0,1.25,30.267854,946.38004)"
         id="edge19-76"
         class="edge">
        <title
           id="title60-3">Stage_12_5_25--Stage_5_1p8_5p4</title>
        <path
           style="fill:none;stroke:#000000"
           inkscape:connector-curvature="0"
           d="m 235.486,-143.876 c -21.23,10.847 -48.589,24.826 -69.843,35.686"
           id="path62-6" />
      </g>
      <g
         transform="matrix(1.25,0,0,1.25,30.267854,946.38004)"
         id="node14-1"
         class="node">
        <title
           id="title65-5">Stage_5_3p3_9p9</title>
        <polygon
           style="fill:none;stroke:#ff4500"
           points="328.25,-108 209.75,-108 209.75,-72 328.25,-72 328.25,-108 "
           id="polygon67-4" />
        <text
           style="font-size:14px;text-anchor:middle;font-family:'Times New Roman,serif'"
           x="269"
           y="-86.300003"
           font-size="14.00"
           id="text69-2">Stage_5_3p3_9p9</text>
      </g>
      <g
         transform="matrix(1.25,0,0,1.25,30.267854,946.38004)"
         id="edge21-0"
         class="edge">
        <title
           id="title72-9">Stage_12_5_25--Stage_5_3p3_9p9</title>
        <path
           style="fill:none;stroke:#000000"
           inkscape:connector-curvature="0"
           d="m 269,-143.697 c 0,10.851 0,24.78 0,35.593"
           id="path74-7" />
      </g>
      <g
         transform="matrix(1.25,0,0,1.25,30.267854,946.38004)"
         id="node18-37"
         class="node">
        <title
           id="title77-2">load5</title>
        <polygon
           style="fill:none;stroke:#ffd700"
           points="401,-108 347,-108 347,-72 401,-72 401,-108 "
           id="polygon79-6" />
        <text
           style="font-size:14px;text-anchor:middle;font-family:'Times New Roman,serif'"
           x="374"
           y="-86.300003"
           font-size="14.00"
           id="text81-0">load5</text>
      </g>
      <g
         transform="matrix(1.25,0,0,1.25,30.267854,946.38004)"
         id="edge23-1"
         class="edge">
        <title
           id="title84-6">Stage_12_5_25--load5</title>
        <path
           style="fill:none;stroke:#000000"
           inkscape:connector-curvature="0"
           d="m 294.686,-143.876 c 16.271,10.847 37.239,24.826 53.529,35.686"
           id="path86-5" />
      </g>
      <g
         transform="matrix(1.25,0,0,1.25,30.267854,946.38004)"
         id="node20-7"
         class="node">
        <title
           id="title89-5">Stage_5_2p5_7p5</title>
        <polygon
           style="fill:none;stroke:#ff4500"
           points="538.25,-108 419.75,-108 419.75,-72 538.25,-72 538.25,-108 "
           id="polygon91-4" />
        <text
           style="font-size:14px;text-anchor:middle;font-family:'Times New Roman,serif'"
           x="479"
           y="-86.300003"
           font-size="14.00"
           id="text93-1">Stage_5_2p5_7p5</text>
      </g>
      <g
         transform="matrix(1.25,0,0,1.25,30.267854,946.38004)"
         id="edge25-2"
         class="edge">
        <title
           id="title96-0">Stage_12_5_25--Stage_5_2p5_7p5</title>
        <path
           style="fill:none;stroke:#000000"
           inkscape:connector-curvature="0"
           d="m 320.103,-143.966 c 32.659,10.887 74.861,24.954 107.565,35.855"
           id="path98-0" />
      </g>
      <g
         transform="matrix(1.25,0,0,1.25,30.267854,946.38004)"
         id="node12-1"
         class="node">
        <title
           id="title101-4">load2</title>
        <polygon
           style="fill:none;stroke:#ffd700"
           points="159,-36 105,-36 105,0 159,0 159,-36 "
           id="polygon103-6" />
        <text
           style="font-size:14px;text-anchor:middle;font-family:'Times New Roman,serif'"
           x="132"
           y="-14.3"
           font-size="14.00"
           id="text105-0">load2</text>
      </g>
      <g
         transform="matrix(1.25,0,0,1.25,30.267854,946.38004)"
         id="edge27-7"
         class="edge">
        <title
           id="title108-1">Stage_5_1p8_5p4--load2</title>
        <path
           style="fill:none;stroke:#000000"
           inkscape:connector-curvature="0"
           d="m 132,-71.6966 c 0,10.8503 0,24.7799 0,35.5923"
           id="path110-7" />
      </g>
      <g
         transform="matrix(1.25,0,0,1.25,30.267854,946.38004)"
         id="node16-7"
         class="node">
        <title
           id="title113-7">load4</title>
        <polygon
           style="fill:none;stroke:#ffd700"
           points="296,-36 242,-36 242,0 296,0 296,-36 "
           id="polygon115-7" />
        <text
           style="font-size:14px;text-anchor:middle;font-family:'Times New Roman,serif'"
           x="269"
           y="-14.3"
           font-size="14.00"
           id="text117-3">load4</text>
      </g>
      <g
         transform="matrix(1.25,0,0,1.25,30.267854,946.38004)"
         id="edge29-3"
         class="edge">
        <title
           id="title120-5">Stage_5_3p3_9p9--load4</title>
        <path
           style="fill:none;stroke:#000000"
           inkscape:connector-curvature="0"
           d="m 269,-71.6966 c 0,10.8503 0,24.7799 0,35.5923"
           id="path122-9" />
      </g>
      <g
         transform="matrix(1.25,0,0,1.25,30.267854,946.38004)"
         id="node22-9"
         class="node">
        <title
           id="title125-81">load3</title>
        <polygon
           style="fill:none;stroke:#ffd700"
           points="506,-36 452,-36 452,0 506,0 506,-36 "
           id="polygon127-8" />
        <text
           style="font-size:14px;text-anchor:middle;font-family:'Times New Roman,serif'"
           x="479"
           y="-14.3"
           font-size="14.00"
           id="text129-2">load3</text>
      </g>
      <g
         transform="matrix(1.25,0,0,1.25,30.267854,946.38004)"
         id="edge31-6"
         class="edge">
        <title
           id="title132-6">Stage_5_2p5_7p5--load3</title>
        <path
           style="fill:none;stroke:#000000"
           inkscape:connector-curvature="0"
           d="m 479,-71.6966 c 0,10.8503 0,24.7799 0,35.5923"
           id="path134-03" />
      </g>
    </g>
    <g
       id="g4376"
       transform="matrix(0.385,0,0,0.385,236.30222,214.63413)">
      <g
         transform="matrix(1.25,0,0,1.25,37.41071,992.09433)"
         id="node2-0"
         class="node">
        <title
           id="title10-12">source1</title>
        <polygon
           points="267.25,-252 206.75,-252 206.75,-216 267.25,-216 267.25,-252 "
           id="polygon12-5"
           style="fill:none;stroke:#87ceeb" />
        <text
           x="237"
           y="-230.3"
           font-size="14.00"
           id="text14-0"
           style="font-size:14px;text-anchor:middle;font-family:'Times New Roman,serif'">source1</text>
      </g>
      <g
         transform="matrix(1.25,0,0,1.25,37.41071,992.09433)"
         id="node4-94"
         class="node">
        <title
           id="title17-7">Stage_12_1p2_6</title>
        <polygon
           points="124.25,-180 13.75,-180 13.75,-144 124.25,-144 124.25,-180 "
           id="polygon19-83"
           style="fill:none;stroke:#ff4500" />
        <text
           x="69"
           y="-158.3"
           font-size="14.00"
           id="text21-5"
           style="font-size:14px;text-anchor:middle;font-family:'Times New Roman,serif'">Stage_12_1p2_6</text>
      </g>
      <g
         transform="matrix(1.25,0,0,1.25,37.41071,992.09433)"
         id="edge13-1"
         class="edge">
        <title
           id="title24-2">source1--Stage_12_1p2_6</title>
        <path
           d="m 206.576,-220.324 c -27.043,11.268 -66.801,27.834 -96.631,40.264"
           id="path26-0"
           inkscape:connector-curvature="0"
           style="fill:none;stroke:#000000" />
      </g>
      <g
         transform="matrix(1.25,0,0,1.25,37.41071,992.09433)"
         id="node8-16"
         class="node">
        <title
           id="title29-4">Stage_12_5_25</title>
        <polygon
           points="289,-180 185,-180 185,-144 289,-144 289,-180 "
           id="polygon31-0"
           style="fill:none;stroke:#ff4500" />
        <text
           x="237"
           y="-158.3"
           font-size="14.00"
           id="text33-6"
           style="font-size:14px;text-anchor:middle;font-family:'Times New Roman,serif'">Stage_12_5_25</text>
      </g>
      <g
         transform="matrix(1.25,0,0,1.25,37.41071,992.09433)"
         id="edge15-1"
         class="edge">
        <title
           id="title36-8">source1--Stage_12_5_25</title>
        <path
           d="m 237,-215.697 c 0,10.851 0,24.78 0,35.593"
           id="path38-9"
           inkscape:connector-curvature="0"
           style="fill:none;stroke:#000000" />
      </g>
      <g
         transform="matrix(1.25,0,0,1.25,37.41071,992.09433)"
         id="node20-8"
         class="node">
        <title
           id="title41-4">Stage_12_2p5_7p5</title>
        <polygon
           points="470.25,-180 345.75,-180 345.75,-144 470.25,-144 470.25,-180 "
           id="polygon43-1"
           style="fill:none;stroke:#ff4500" />
        <text
           x="408"
           y="-158.3"
           font-size="14.00"
           id="text45-4"
           style="font-size:14px;text-anchor:middle;font-family:'Times New Roman,serif'">Stage_12_2p5_7p5</text>
      </g>
      <g
         transform="matrix(1.25,0,0,1.25,37.41071,992.09433)"
         id="edge17-39"
         class="edge">
        <title
           id="title48-8">source1--Stage_12_2p5_7p5</title>
        <path
           d="m 267.571,-220.485 c 27.571,11.286 68.357,27.982 98.879,40.476"
           id="path50-8"
           inkscape:connector-curvature="0"
           style="fill:none;stroke:#000000" />
      </g>
      <g
         transform="matrix(1.25,0,0,1.25,37.41071,992.09433)"
         id="node6-0"
         class="node">
        <title
           id="title53-87">load1</title>
        <polygon
           points="54,-108 0,-108 0,-72 54,-72 54,-108 "
           id="polygon55-7"
           style="fill:none;stroke:#ffd700" />
        <text
           x="27"
           y="-86.300003"
           font-size="14.00"
           id="text57-8"
           style="font-size:14px;text-anchor:middle;font-family:'Times New Roman,serif'">load1</text>
      </g>
      <g
         transform="matrix(1.25,0,0,1.25,37.41071,992.09433)"
         id="edge19-3"
         class="edge">
        <title
           id="title60-8">Stage_12_1p2_6--load1</title>
        <path
           d="m 58.618,-143.697 c -6.5102,10.851 -14.868,24.78 -21.3554,35.593"
           id="path62-3"
           inkscape:connector-curvature="0"
           style="fill:none;stroke:#000000" />
      </g>
      <g
         transform="matrix(1.25,0,0,1.25,37.41071,992.09433)"
         id="node10-7"
         class="node">
        <title
           id="title65-1">Stage_5_1p8_5p4</title>
        <polygon
           points="191.25,-108 72.75,-108 72.75,-72 191.25,-72 191.25,-108 "
           id="polygon67-0"
           style="fill:none;stroke:#ff4500" />
        <text
           x="132"
           y="-86.300003"
           font-size="14.00"
           id="text69-73"
           style="font-size:14px;text-anchor:middle;font-family:'Times New Roman,serif'">Stage_5_1p8_5p4</text>
      </g>
      <g
         transform="matrix(1.25,0,0,1.25,37.41071,992.09433)"
         id="edge21-4"
         class="edge">
        <title
           id="title72-96">Stage_12_5_25--Stage_5_1p8_5p4</title>
        <path
           d="m 211.314,-143.876 c -16.271,10.847 -37.239,24.826 -53.529,35.686"
           id="path74-5"
           inkscape:connector-curvature="0"
           style="fill:none;stroke:#000000" />
      </g>
      <g
         transform="matrix(1.25,0,0,1.25,37.41071,992.09433)"
         id="node14-10"
         class="node">
        <title
           id="title77-9">load5</title>
        <polygon
           points="264,-108 210,-108 210,-72 264,-72 264,-108 "
           id="polygon79-9"
           style="fill:none;stroke:#ffd700" />
        <text
           x="237"
           y="-86.300003"
           font-size="14.00"
           id="text81-6"
           style="font-size:14px;text-anchor:middle;font-family:'Times New Roman,serif'">load5</text>
      </g>
      <g
         transform="matrix(1.25,0,0,1.25,37.41071,992.09433)"
         id="edge23-8"
         class="edge">
        <title
           id="title84-3">Stage_12_5_25--load5</title>
        <path
           d="m 237,-143.697 c 0,10.851 0,24.78 0,35.593"
           id="path86-4"
           inkscape:connector-curvature="0"
           style="fill:none;stroke:#000000" />
      </g>
      <g
         transform="matrix(1.25,0,0,1.25,37.41071,992.09433)"
         id="node16-8"
         class="node">
        <title
           id="title89-4">Stage_5_3p3_9p9</title>
        <polygon
           points="401.25,-108 282.75,-108 282.75,-72 401.25,-72 401.25,-108 "
           id="polygon91-9"
           style="fill:none;stroke:#ff4500" />
        <text
           x="342"
           y="-86.300003"
           font-size="14.00"
           id="text93-9"
           style="font-size:14px;text-anchor:middle;font-family:'Times New Roman,serif'">Stage_5_3p3_9p9</text>
      </g>
      <g
         transform="matrix(1.25,0,0,1.25,37.41071,992.09433)"
         id="edge25-25"
         class="edge">
        <title
           id="title96-5">Stage_12_5_25--Stage_5_3p3_9p9</title>
        <path
           d="m 262.686,-143.876 c 16.271,10.847 37.239,24.826 53.529,35.686"
           id="path98-3"
           inkscape:connector-curvature="0"
           style="fill:none;stroke:#000000" />
      </g>
      <g
         transform="matrix(1.25,0,0,1.25,37.41071,992.09433)"
         id="node12-3"
         class="node">
        <title
           id="title101-3">load2</title>
        <polygon
           points="159,-36 105,-36 105,0 159,0 159,-36 "
           id="polygon103-7"
           style="fill:none;stroke:#ffd700" />
        <text
           x="132"
           y="-14.3"
           font-size="14.00"
           id="text105-4"
           style="font-size:14px;text-anchor:middle;font-family:'Times New Roman,serif'">load2</text>
      </g>
      <g
         transform="matrix(1.25,0,0,1.25,37.41071,992.09433)"
         id="edge27-3"
         class="edge">
        <title
           id="title108-80">Stage_5_1p8_5p4--load2</title>
        <path
           d="m 132,-71.6966 c 0,10.8503 0,24.7799 0,35.5923"
           id="path110-8"
           inkscape:connector-curvature="0"
           style="fill:none;stroke:#000000" />
      </g>
      <g
         transform="matrix(1.25,0,0,1.25,37.41071,992.09433)"
         id="node18-8"
         class="node">
        <title
           id="title113-06">load4</title>
        <polygon
           points="369,-36 315,-36 315,0 369,0 369,-36 "
           id="polygon115-8"
           style="fill:none;stroke:#ffd700" />
        <text
           x="342"
           y="-14.3"
           font-size="14.00"
           id="text117-1"
           style="font-size:14px;text-anchor:middle;font-family:'Times New Roman,serif'">load4</text>
      </g>
      <g
         transform="matrix(1.25,0,0,1.25,37.41071,992.09433)"
         id="edge29-9"
         class="edge">
        <title
           id="title120-8">Stage_5_3p3_9p9--load4</title>
        <path
           d="m 342,-71.6966 c 0,10.8503 0,24.7799 0,35.5923"
           id="path122-97"
           inkscape:connector-curvature="0"
           style="fill:none;stroke:#000000" />
      </g>
      <g
         transform="matrix(1.25,0,0,1.25,37.41071,992.09433)"
         id="node22-2"
         class="node">
        <title
           id="title125-2">load3</title>
        <polygon
           points="474,-108 420,-108 420,-72 474,-72 474,-108 "
           id="polygon127-82"
           style="fill:none;stroke:#ffd700" />
        <text
           x="447"
           y="-86.300003"
           font-size="14.00"
           id="text129-8"
           style="font-size:14px;text-anchor:middle;font-family:'Times New Roman,serif'">load3</text>
      </g>
      <g
         transform="matrix(1.25,0,0,1.25,37.41071,992.09433)"
         id="edge31-9"
         class="edge">
        <title
           id="title132-0">Stage_12_2p5_7p5--load3</title>
        <path
           d="m 417.64,-143.697 c 6.046,10.851 13.806,24.78 19.83,35.593"
           id="path134-7"
           inkscape:connector-curvature="0"
           style="fill:none;stroke:#000000" />
      </g>
    </g>
    <text
       xml:space="preserve"
       style="font-size:11px;font-style:normal;font-variant:normal;font-weight:bold;font-stretch:normal;line-height:125%;letter-spacing:0px;word-spacing:0px;fill:#000000;fill-opacity:1;stroke:none;font-family:Computer Modern;-inkscape-font-specification:Computer Modern Bold Oblique"
       x="168.57143"
       y="198.07648"
       id="text3292"
       sodipodi:linespacing="125%"><tspan
         sodipodi:role="line"
         id="tspan3294"
         x="168.57143"
         y="198.07648" /></text>
    <text
       xml:space="preserve"
       style="font-size:11px;font-style:oblique;font-variant:normal;font-weight:bold;font-stretch:normal;line-height:125%;letter-spacing:0px;word-spacing:0px;fill:#000000;fill-opacity:1;stroke:none;font-family:Computer Modern;-inkscape-font-specification:Computer Modern Bold Oblique"
       x="171.42857"
       y="203.07648"
       id="text3296"
       sodipodi:linespacing="125%"><tspan
         sodipodi:role="line"
         id="tspan3298"
         x="171.42857"
         y="203.07648" /></text>
    <text
       xml:space="preserve"
       style="font-size:11px;font-style:normal;font-variant:normal;font-weight:normal;font-stretch:normal;line-height:125%;letter-spacing:0px;word-spacing:0px;fill:#000000;fill-opacity:1;stroke:none;font-family:Courier New;-inkscape-font-specification:Courier New"
       x="302.73972"
       y="28.053938"
       id="text3300"
       sodipodi:linespacing="125%"><tspan
         sodipodi:role="line"
         id="tspan3302"
         x="302.73972"
         y="28.053938"
         style="font-family:Times New Roman;-inkscape-font-specification:Times New Roman">Architecture 1</tspan></text>
    <text
       sodipodi:linespacing="125%"
       id="text3304"
       y="176.75516"
       x="303.20889"
       style="font-size:11px;font-style:normal;font-variant:normal;font-weight:normal;font-stretch:normal;line-height:125%;letter-spacing:0px;word-spacing:0px;fill:#000000;fill-opacity:1;stroke:none;font-family:Courier New;-inkscape-font-specification:Courier New"
       xml:space="preserve"><tspan
         style="font-family:Times New Roman;-inkscape-font-specification:Times New Roman"
         y="176.75516"
         x="303.20889"
         id="tspan3306"
         sodipodi:role="line">Architecture 2</tspan></text>
    <text
       sodipodi:linespacing="125%"
       id="text3308"
       y="323.4035"
       x="304.51486"
       style="font-size:11px;font-style:normal;font-variant:normal;font-weight:normal;font-stretch:normal;line-height:125%;letter-spacing:0px;word-spacing:0px;fill:#000000;fill-opacity:1;stroke:none;font-family:Courier New;-inkscape-font-specification:Courier New"
       xml:space="preserve"><tspan
         style="font-family:Times New Roman;-inkscape-font-specification:Times New Roman"
         y="323.4035"
         x="304.51486"
         id="tspan3310"
         sodipodi:role="line">Architecture 3</tspan></text>
    <text
       xml:space="preserve"
       style="font-size:11px;font-style:normal;font-variant:normal;font-weight:normal;font-stretch:normal;line-height:125%;letter-spacing:0px;word-spacing:0px;fill:#000000;fill-opacity:1;stroke:none;font-family:Courier New;-inkscape-font-specification:Courier New"
       x="305.59686"
       y="471.2171"
       id="text3312"
       sodipodi:linespacing="125%"><tspan
         sodipodi:role="line"
         id="tspan3314"
         x="305.59686"
         y="471.2171"
         style="font-family:Times New Roman;-inkscape-font-specification:Times New Roman">Architecture 4</tspan></text>
  </g>
</svg>
