<?xml version="1.0" encoding="UTF-8" standalone="no"?>
<!-- Created with Inkscape (http://www.inkscape.org/) -->

<svg
   xmlns:dc="http://purl.org/dc/elements/1.1/"
   xmlns:cc="http://creativecommons.org/ns#"
   xmlns:rdf="http://www.w3.org/1999/02/22-rdf-syntax-ns#"
   xmlns:svg="http://www.w3.org/2000/svg"
   xmlns="http://www.w3.org/2000/svg"
   xmlns:sodipodi="http://sodipodi.sourceforge.net/DTD/sodipodi-0.dtd"
   xmlns:inkscape="http://www.inkscape.org/namespaces/inkscape"
   width="604.03406"
   height="266.2402"
   id="svg9534"
   sodipodi:version="0.32"
   inkscape:version="0.48.4 r9939"
   sodipodi:docname="loadbehavior.svg"
   inkscape:output_extension="org.inkscape.output.svg.inkscape"
   inkscape:export-filename="E:\Folder Synch\Tesis Doctorado\Internship Intel\My Documents\MUSTBACKUP\Intership Leo\Imagenes\Design2.png"
   inkscape:export-xdpi="90"
   inkscape:export-ydpi="90"
   version="1.1">
  <defs
     id="defs9536">
    <marker
       inkscape:stockid="Arrow2Lend"
       orient="auto"
       refY="0"
       refX="0"
       id="Arrow2Lend"
       style="overflow:visible">
      <path
         id="path3744"
         style="font-size:12px;fill-rule:evenodd;stroke-width:0.625;stroke-linejoin:round"
         d="M 8.7185878,4.0337352 -2.2072895,0.01601326 8.7185884,-4.0017078 c -1.7454984,2.3720609 -1.7354408,5.6174519 -6e-7,8.035443 z"
         transform="matrix(-1.1,0,0,-1.1,-1.1,0)"
         inkscape:connector-curvature="0" />
    </marker>
    <marker
       inkscape:stockid="Arrow2Lstart"
       orient="auto"
       refY="0"
       refX="0"
       id="Arrow2Lstart"
       style="overflow:visible">
      <path
         id="path3741"
         style="font-size:12px;fill-rule:evenodd;stroke-width:0.625;stroke-linejoin:round"
         d="M 8.7185878,4.0337352 -2.2072895,0.01601326 8.7185884,-4.0017078 c -1.7454984,2.3720609 -1.7354408,5.6174519 -6e-7,8.035443 z"
         transform="matrix(1.1,0,0,1.1,1.1,0)"
         inkscape:connector-curvature="0" />
    </marker>
    <marker
       inkscape:stockid="Arrow1Lstart"
       orient="auto"
       refY="0"
       refX="0"
       id="Arrow1Lstart"
       style="overflow:visible">
      <path
         id="path7212"
         d="M 0,0 5,-5 -12.5,0 5,5 0,0 z"
         style="fill-rule:evenodd;stroke:#000000;stroke-width:1pt;marker-start:none"
         transform="matrix(0.8,0,0,0.8,10,0)"
         inkscape:connector-curvature="0" />
    </marker>
    <marker
       inkscape:stockid="Arrow1Lend"
       orient="auto"
       refY="0"
       refX="0"
       id="Arrow1Lend"
       style="overflow:visible">
      <path
         id="path7215"
         d="M 0,0 5,-5 -12.5,0 5,5 0,0 z"
         style="fill-rule:evenodd;stroke:#000000;stroke-width:1pt;marker-start:none"
         transform="matrix(-0.8,0,0,-0.8,-10,0)"
         inkscape:connector-curvature="0" />
    </marker>
    <inkscape:perspective
       sodipodi:type="inkscape:persp3d"
       inkscape:vp_x="0 : 526.18109 : 1"
       inkscape:vp_y="0 : 1000 : 0"
       inkscape:vp_z="744.09448 : 526.18109 : 1"
       inkscape:persp3d-origin="372.04724 : 350.78739 : 1"
       id="perspective9542" />
  </defs>
  <sodipodi:namedview
     id="base"
     pagecolor="#ffffff"
     bordercolor="#666666"
     borderopacity="1.0"
     gridtolerance="10000"
     guidetolerance="10"
     objecttolerance="10"
     inkscape:pageopacity="0.0"
     inkscape:pageshadow="2"
     inkscape:zoom="1.4"
     inkscape:cx="363.52371"
     inkscape:cy="99.098656"
     inkscape:document-units="px"
     inkscape:current-layer="layer1"
     showgrid="false"
     inkscape:window-width="1920"
     inkscape:window-height="1022"
     inkscape:window-x="0"
     inkscape:window-y="30"
     inkscape:window-maximized="1"
     fit-margin-top="0"
     fit-margin-left="0"
     fit-margin-right="0"
     fit-margin-bottom="0" />
  <metadata
     id="metadata9539">
    <rdf:RDF>
      <cc:Work
         rdf:about="">
        <dc:format>image/svg+xml</dc:format>
        <dc:type
           rdf:resource="http://purl.org/dc/dcmitype/StillImage" />
        <dc:title />
      </cc:Work>
    </rdf:RDF>
  </metadata>
  <g
     inkscape:label="Layer 1"
     inkscape:groupmode="layer"
     id="layer1"
     transform="translate(-74.663124,-170.50912)">
    <g
       id="g14256"
       transform="matrix(0.8769043,0,0,1.2858692,-31.269832,-206.95476)">
      <g
         style="fill:#ff0000"
         transform="translate(19.697975,-97.479721)"
         id="g10065">
        <path
           style="fill:#ff0000;fill-rule:evenodd;stroke:#f40000;stroke-width:0.57013476px;stroke-linecap:butt;stroke-linejoin:miter;stroke-opacity:1"
           d="m 189.73634,476.68289 c -0.30243,0.14336 -54.75695,-0.73495 -64.26239,-0.41933 -0.16152,-5.74529 -1.24834,-48.2688 -1.09401,-49.73199 0.0483,-0.45834 0.41824,4.47076 0.41824,8.72361 0,1.34794 0.15423,-2.71375 0.41824,-3.96528 0.087,-0.41215 2.30032,6.25154 2.30032,0 0,-0.11737 0,8.89673 0,1.18958 0,-2.04339 1.06604,3.37498 1.46384,-0.39652 0.0387,-0.3666 0.27882,0.5287 0.41824,0.79305 0.93911,1.78072 1.67296,2.61888 1.67296,0.39653 0,-0.28045 0.20912,-0.0594 0.20912,-3.17222 0,-1.03233 1.25472,3.01496 1.25472,1.98264 0,-1.30426 0.56485,1.46759 1.25471,2.77569 0.0159,0.0301 -0.64981,-4.8435 0.41825,-0.79305 0.59386,2.25216 0.41823,-7.36362 0.41823,-0.79306 0,0.16359 -2.62591,-6.5653 0,-1.58611 0.70185,1.33082 2.34858,0.88456 3.1368,2.37917 0.31561,0.59845 -0.52087,-1.38419 -0.83648,-1.98264 -0.20912,-0.39653 0.62736,-0.62882 0.62736,-1.18959 0,-3.04004 0,-6.08009 0,-9.12014 0,-3.15853 0.85913,5.72319 1.0456,7.13751 0.33354,2.52981 -0.20912,7.51615 -0.20912,10.30972 0,4.62038 2.50944,8.21292 2.50944,13.08542 0,4.58108 0.20912,8.88881 0.20912,13.48195 0,2.17874 -0.12341,6.09091 -0.20912,6.74098 -0.25751,1.95313 0.50396,-4.12782 1.25472,-5.5514 0.35883,-0.68041 0.41824,3.73795 0.41824,2.7757 0,-6.93264 2.71856,9.47259 2.71856,0.49566 0,-9.54928 0.83647,7.61814 0.83647,2.67656 0,-5.78477 1.25472,-2.51731 1.25472,-4.36181 0,-0.80399 0.84337,-0.59152 1.25472,-0.39652 0.0643,0.0305 0,-7.48389 0,-0.39653 0,3.19384 0.20807,-0.79505 1.0456,0.79305 0.0482,0.0913 0.15276,-3.5997 0.62736,0 1.17012,8.87504 1.46384,-2.02702 1.46384,3.56875 0,1.73851 0.008,-6.70982 0.41824,-5.15486 0.14426,0.54708 0.91618,3.64432 1.25472,3.96528 0.21277,0.20173 -0.2517,-5.31633 0.41824,-2.77569 0.13225,0.50157 0.41824,-0.79306 0.62736,-1.18959 0.14701,-0.27876 2.50943,7.42361 2.50943,2.7757 0,-0.29556 0.38044,0.68325 0.41824,0.39653 0.13866,-1.0517 0.7421,-0.45177 0.94104,-3.46963 0.0509,-0.77208 2.40488,7.53025 2.40488,2.18091 0,-2.32009 1.07525,-2.22381 1.67296,-1.09045 0.4547,0.8622 -0.40864,-2.92846 0.62736,1.98264 1.24239,5.88949 0.51947,-1.61133 0.47052,-1.98264 -0.11341,-0.86019 0.61851,2.84282 0.73192,1.98264 0.40577,-3.07766 0.72397,-1.02145 0.88876,-0.39653 0.957,3.62928 0.44902,-1.64448 1.25471,-3.17222 0.42401,-0.804 0.9071,-1.56037 1.46385,-1.98264 1.06,-0.80398 0.62736,-4.78067 0.62736,-0.79306 0,3.57696 -0.76261,11.21913 0.41823,6.74098 0.68309,-2.59052 2.83159,1.48697 2.77084,-0.2974 -0.0675,-1.98292 0.94336,-1.58611 1.09788,-2.4783 0.31667,-1.82844 -0.19487,-3.93827 0.5228,-2.57743 2.80573,5.32016 0.49034,10.57751 2.45716,4.36181 0.96781,-3.05856 2.61399,-0.89 2.61399,2.08177 0,2.51134 -0.15684,-4.72529 -0.15684,-7.23663 0,-5.02269 0.3804,-10.44698 0.26141,-15.4646 -0.0365,-1.53884 1.02438,3.28934 1.46383,4.75834 1.37814,4.60691 -0.51102,-5.05042 0,0.0991 0.2614,2.63412 -0.73787,-6.36704 0.41825,-1.98264 0.25635,0.9722 -1.10831,-4.24271 0.20911,1.58611 1.48493,6.56991 0.51264,0.25606 0.67964,-0.69392 0.32516,-1.84965 0.31062,-1.68814 1.25472,-0.79306 0.17852,0.16925 -0.92116,-12.93465 0.41824,-2.77569 0.10144,0.76937 1.15328,0.76937 1.25472,0 0.0307,-0.23311 1.67296,3.28594 1.67296,0 0,-1.00662 0.61794,-0.67606 0.99332,-1.38785 1.55005,-2.93916 -0.5769,-3.07653 1.25472,0.39653 0.49535,0.93928 1.41078,0.199 0.7842,0.79305 -0.27883,0.26436 1.14536,28.00067 0.84293,28.14403 z"
           id="path9546"
           sodipodi:nodetypes="ccssssssssssssssssssssssssssssssssssssssssssssssssssssssssssssssssssssss"
           inkscape:connector-curvature="0" />
        <path
           style="fill:#ff0000;fill-rule:evenodd;stroke:#f40000;stroke-width:0.57013476px;stroke-linecap:butt;stroke-linejoin:miter;stroke-opacity:1"
           d="m 258.18043,476.80395 c -0.90618,0 -54.90185,-0.14839 -68.52847,-0.12112 -0.32305,-11.49059 -0.0435,-26.36581 -0.0435,-37.78018 0,-2.86682 0.47303,-8.05348 0.62736,-9.51667 0.0483,-0.45833 0.41824,4.47076 0.41824,8.72361 0,1.34794 0.15423,-2.71375 0.41824,-3.96528 0.0869,-0.41215 2.30032,6.25154 2.30032,0 0,-0.11736 0,8.89673 0,1.18958 0,-2.04338 1.06603,3.37498 1.46384,-0.39652 0.0387,-0.36659 0.27882,0.5287 0.41823,0.79306 0.93912,1.78071 1.67296,2.61887 1.67296,0.39653 0,-0.28046 0.20912,-0.0594 0.20912,-3.17223 0,-1.03233 1.25472,3.01497 1.25472,1.98264 0,-1.30426 0.56486,1.46759 1.25472,2.77569 0.0159,0.0301 -0.64982,-4.8435 0.41824,-0.79305 0.59387,2.25216 0.41824,-7.36361 0.41824,-0.79305 0,0.16358 -2.62591,-6.56531 0,-1.58612 0.70185,1.33082 2.34857,0.88456 3.1368,2.37917 0.31561,0.59845 -0.52087,-1.38419 -0.83648,-1.98264 -0.20912,-0.39653 0.62736,-0.62881 0.62736,-1.18958 0,-3.04005 0,-6.0801 0,-9.12015 0,-3.15852 0.85913,5.72319 1.0456,7.13751 0.33354,2.52981 -0.20912,7.51615 -0.20912,10.30972 0,4.62039 2.50944,8.21292 2.50944,13.08542 0,4.58108 0.20911,8.88881 0.20911,13.48195 0,2.17874 -0.12341,6.09091 -0.20911,6.74098 -0.25751,1.95313 0.50395,-4.12781 1.25472,-5.55139 0.35883,-0.68042 0.41823,3.73794 0.41823,2.77569 0,-6.93263 2.71856,9.47259 2.71856,0.49566 0,-9.54927 0.83648,7.61815 0.83648,2.67656 0,-5.78477 1.25472,-2.51731 1.25472,-4.36181 0,-0.80399 0.84337,-0.59152 1.25472,-0.39652 0.0643,0.0305 0,-7.48389 0,-0.39653 0,3.19384 0.20807,-0.79505 1.0456,0.79305 0.0482,0.0913 0.15275,-3.5997 0.62736,0 1.17012,8.87505 1.46383,-2.02702 1.46383,3.56876 0,1.7385 0.008,-6.70983 0.41825,-5.15486 0.14425,0.54707 0.91617,3.64431 1.25471,3.96527 0.21277,0.20173 -0.2517,-5.31633 0.41824,-2.77569 0.13226,0.50157 0.41824,-0.79305 0.62736,-1.18958 0.14701,-0.27876 2.50944,7.4236 2.50944,2.77569 0,-0.29556 0.38044,0.68326 0.41824,0.39653 0.13866,-1.05169 0.74209,-0.45177 0.94104,-3.46962 0.0509,-0.77209 2.40488,7.53024 2.40488,2.1809 0,-2.32009 1.07525,-2.22381 1.67295,-1.09045 0.45471,0.8622 -0.40863,-2.92845 0.62736,1.98264 1.2424,5.8895 0.51948,-1.61133 0.47052,-1.98264 -0.11341,-0.86019 0.61851,2.84282 0.73192,1.98264 0.40577,-3.07765 0.72398,-1.02144 0.88876,-0.39652 0.957,3.62927 0.44902,-1.64448 1.25472,-3.17223 0.42401,-0.804 0.90709,-1.56036 1.46384,-1.98264 1.06,-0.80398 0.62736,-4.78067 0.62736,-0.79306 0,3.57696 -0.7626,11.21913 0.41824,6.74098 0.68309,-2.59052 2.83158,1.48697 2.77084,-0.2974 -0.0675,-1.98291 0.94336,-1.58611 1.09788,-2.47829 0.31666,-1.82844 -0.19488,-3.93827 0.52279,-2.57744 2.80574,5.32016 0.49035,10.57752 2.45716,4.36181 0.96781,-3.05856 2.614,-0.89 2.614,2.08177 0,2.51134 -0.15684,-4.72529 -0.15684,-7.23663 0,-5.02269 0.3804,-10.44698 0.2614,-15.46459 -0.0365,-1.53885 1.02439,3.28933 1.46384,4.75833 1.37814,4.60692 -0.51103,-5.05042 0,0.0991 0.2614,2.63411 -0.73788,-6.36704 0.41824,-1.98265 0.25636,0.9722 -1.1083,-4.24271 0.20912,1.58612 1.48492,6.5699 0.51264,0.25605 0.67964,-0.69393 0.32515,-1.84965 0.31062,-1.68814 1.25472,-0.79306 0.17851,0.16925 -0.92117,-12.93464 0.41824,-2.77569 0.10144,0.76938 1.15328,0.76938 1.25472,0 0.0307,-0.23311 1.67296,3.28594 1.67296,0 0,-1.00662 0.61793,-0.67606 0.99331,-1.38785 1.55005,-2.93916 -0.57689,-3.07653 1.25472,0.39653 0.49536,0.93929 1.41079,0.19901 0.7842,0.79306 -0.27882,0.26435 0.87751,0.94709 0.57508,1.09046 -0.93793,0.44461 0.59936,7.85193 0.7842,12.98628 0.0523,1.45221 0.006,5.13611 1.0456,6.14618 0.71449,0.69393 1.93241,5.18775 1.02623,5.18775 z"
           id="path9548"
           sodipodi:nodetypes="ccsssssssssssssssssssssssssssssssssssssssssssssssssssssssssssssssssssssssssc"
           inkscape:connector-curvature="0" />
      </g>
    </g>
    <g
       id="g10081"
       transform="matrix(2.1126231,0,0,2.9657316,-400.33918,-1110.4686)"
       style="fill:#ff0000;fill-opacity:1">
      <path
         id="path10075"
         d="m 325.97737,469.32683 -9.52394,-0.17843 c 0,0 0.18315,-23.90962 4.76197,-12.13324 4.57882,11.77638 4.94513,12.13324 4.76197,12.31167 z"
         style="fill:#ff0000;fill-opacity:1;fill-rule:evenodd;stroke:none"
         inkscape:connector-curvature="0" />
      <path
         id="path10077"
         d="m 326.40216,469.39647 7.76226,-0.11809 c 0,0 -0.14927,-15.82294 -3.88112,-8.02955 -3.73187,7.7934 -4.03041,8.02955 -3.88114,8.14764 z"
         style="fill:#ff0000;fill-opacity:1;fill-rule:evenodd;stroke:none"
         inkscape:connector-curvature="0" />
      <path
         id="path10079"
         d="m 332.77969,469.35861 7.86475,-0.0865 c 0,0 -0.15124,-11.59407 -3.93237,-5.88356 -3.78114,5.71052 -4.08362,5.88356 -3.93238,5.97009 z"
         style="fill:#ff0000;fill-opacity:1;fill-rule:evenodd;stroke:none"
         inkscape:connector-curvature="0" />
    </g>
    <path
       style="fill:none;stroke:#000000;stroke-width:1.06200004;stroke-linecap:butt;stroke-linejoin:miter;stroke-miterlimit:4;stroke-opacity:1;stroke-dasharray:none;marker-start:url(#Arrow2Lstart);marker-end:url(#Arrow2Lend)"
       d="m 95.663198,193.38036 -0.23539,87.96472 138.170792,0"
       id="path10086"
       inkscape:connector-curvature="0" />
    <path
       style="fill:none;stroke:#000000;stroke-width:1.1799643;stroke-linecap:butt;stroke-linejoin:miter;stroke-miterlimit:4;stroke-opacity:1;stroke-dasharray:none;marker-start:url(#Arrow2Lstart);marker-end:url(#Arrow2Lend)"
       d="m 259.77637,193.44073 -0.15034,88.26319 88.25127,0"
       id="path14254"
       inkscape:connector-curvature="0" />
    <g
       id="g14269"
       transform="matrix(2.1126231,0,0,2.9657316,-400.65773,-974.80119)"
       style="fill:#ff6c00;fill-opacity:0.36627909">
      <path
         id="path14271"
         d="m 325.97737,469.32683 -9.52394,-0.17843 c 0,0 0.18315,-23.90962 4.76197,-12.13324 4.57882,11.77638 4.94513,12.13324 4.76197,12.31167 z"
         style="fill:#ff6c00;fill-opacity:0.36627909;fill-rule:evenodd;stroke:none"
         inkscape:connector-curvature="0" />
      <path
         id="path14273"
         d="m 326.40216,469.39647 7.76226,-0.11809 c 0,0 -0.14927,-15.82294 -3.88112,-8.02955 -3.73187,7.7934 -4.03041,8.02955 -3.88114,8.14764 z"
         style="fill:#ff6c00;fill-opacity:0.36627909;fill-rule:evenodd;stroke:none"
         inkscape:connector-curvature="0" />
      <path
         id="path14275"
         d="m 332.77969,469.35861 7.86475,-0.0865 c 0,0 -0.15124,-11.59407 -3.93237,-5.88356 -3.78114,5.71052 -4.08362,5.88356 -3.93238,5.97009 z"
         style="fill:#ff6c00;fill-opacity:0.36627909;fill-rule:evenodd;stroke:none"
         inkscape:connector-curvature="0" />
    </g>
    <path
       style="fill:none;stroke:#000000;stroke-width:1.1799643;stroke-linecap:butt;stroke-linejoin:miter;stroke-miterlimit:4;stroke-opacity:1;stroke-dasharray:none;marker-start:url(#Arrow2Lstart);marker-end:url(#Arrow2Lend)"
       d="m 259.45782,329.10818 -0.15034,88.26318 88.25127,0"
       id="path14279"
       inkscape:connector-curvature="0" />
    <path
       style="fill:#ffca00;fill-opacity:0.52325583;fill-rule:evenodd;stroke:#fe1400;stroke-width:1.06187773px;stroke-linecap:butt;stroke-linejoin:miter;stroke-opacity:1"
       d="m 212.1454,416.172 -116.972772,0.22961 0.15659,-57.29005 14.093102,-0.34445 0.46977,48.44972 32.10096,-0.45924 0.1566,-24.56928 9.55199,0 -0.1566,-23.88044 14.09312,2e-5 0.15658,47.76084 33.0405,0.22963 0.15659,-24.56929 12.91867,-0.1148 0.2349,34.55773 z"
       id="path14281"
       sodipodi:nodetypes="ccccccccccccccc"
       inkscape:connector-curvature="0" />
    <path
       sodipodi:nodetypes="cc"
       id="path14298"
       d="m 95.689368,358.28491 119.947992,0"
       style="fill:none;stroke:#000000;stroke-width:1.06187773;stroke-linecap:butt;stroke-linejoin:miter;stroke-miterlimit:4;stroke-opacity:0.5;stroke-dasharray:2.12375538, 1.06187768;stroke-dashoffset:0"
       inkscape:connector-curvature="0" />
    <g
       id="g14290"
       style="fill:#ff0000;fill-opacity:0.31395347;stroke:none"
       transform="matrix(0.8769043,0,0,1.2858692,-12.56134,-302.54351)">
      <path
         sodipodi:nodetypes="ccssssssssssssssssssssssssssssssssssssssssssssssssssssssssssssssssssssss"
         id="path14265"
         d="m 187.80559,559.09763 c -0.30244,0.14336 -54.75696,-0.73495 -64.2624,-0.41933 -0.16152,-5.74529 -1.24834,-48.2688 -1.09401,-49.73199 0.0483,-0.45834 0.41824,4.47076 0.41824,8.72361 0,1.34794 0.15423,-2.71375 0.41825,-3.96528 0.0869,-0.41215 2.30031,6.25154 2.30031,0 0,-0.11737 0,8.89673 0,1.18958 0,-2.04339 1.06605,3.37498 1.46384,-0.39652 0.0387,-0.3666 0.27882,0.5287 0.41825,0.79305 0.93911,1.78072 1.67295,2.61888 1.67295,0.39653 0,-0.28045 0.20912,-0.0594 0.20912,-3.17222 0,-1.03233 1.25472,3.01496 1.25472,1.98264 0,-1.30426 0.56485,1.46759 1.25472,2.77569 0.0159,0.0302 -0.64982,-4.8435 0.41824,-0.79305 0.59387,2.25216 0.41824,-7.36362 0.41824,-0.79306 0,0.16359 -2.62592,-6.5653 0,-1.58611 0.70185,1.33082 2.34857,0.88456 3.13679,2.37917 0.31561,0.59845 -0.52087,-1.38419 -0.83647,-1.98264 -0.20913,-0.39653 0.62736,-0.62882 0.62736,-1.18959 0,-3.04004 0,-6.08009 0,-9.12014 0,-3.15853 0.85912,5.72319 1.04559,7.13751 0.33354,2.52981 -0.20911,7.51615 -0.20911,10.30972 0,4.62038 2.50944,8.21292 2.50944,13.08542 0,4.58108 0.20911,8.88881 0.20911,13.48195 0,2.17874 -0.1234,6.09091 -0.20911,6.74098 -0.25752,1.95313 0.50395,-4.12782 1.25472,-5.5514 0.35882,-0.68041 0.41823,3.73795 0.41823,2.7757 0,-6.93264 2.71857,9.47259 2.71857,0.49566 0,-9.54928 0.83647,7.61814 0.83647,2.67656 0,-5.78477 1.25472,-2.51731 1.25472,-4.36181 0,-0.80399 0.84337,-0.59152 1.25472,-0.39652 0.0643,0.0305 0,-7.48389 0,-0.39653 0,3.19384 0.20806,-0.79505 1.0456,0.79305 0.0482,0.0913 0.15276,-3.5997 0.62735,0 1.17013,8.87504 1.46384,-2.02702 1.46384,3.56875 0,1.73851 0.008,-6.70982 0.41824,-5.15486 0.14427,0.54708 0.91618,3.64432 1.25472,3.96528 0.21277,0.20173 -0.2517,-5.31633 0.41825,-2.77569 0.13225,0.50157 0.41823,-0.79306 0.62735,-1.18959 0.14701,-0.27876 2.50944,7.42361 2.50944,2.7757 0,-0.29556 0.38043,0.68325 0.41824,0.39653 0.13865,-1.0517 0.74209,-0.45177 0.94104,-3.46963 0.0509,-0.77208 2.40487,7.53025 2.40487,2.18091 0,-2.32009 1.07526,-2.22381 1.67296,-1.09045 0.45471,0.8622 -0.40863,-2.92846 0.62737,1.98264 1.24238,5.88949 0.51946,-1.61133 0.47052,-1.98264 -0.11341,-0.86019 0.61851,2.84282 0.73191,1.98264 0.40577,-3.07766 0.72397,-1.02145 0.88877,-0.39653 0.95699,3.62928 0.44902,-1.64448 1.2547,-3.17222 0.42402,-0.804 0.90711,-1.56037 1.46385,-1.98264 1.06,-0.80398 0.62737,-4.78067 0.62737,-0.79306 0,3.57696 -0.76262,11.21913 0.41823,6.74098 0.68308,-2.59052 2.83158,1.48697 2.77083,-0.2974 -0.0675,-1.98292 0.94336,-1.58611 1.09788,-2.4783 0.31667,-1.82844 -0.19486,-3.93827 0.5228,-2.57743 2.80573,5.32016 0.49035,10.57751 2.45716,4.36181 0.96781,-3.05856 2.614,-0.89 2.614,2.08177 0,2.51134 -0.15684,-4.72529 -0.15684,-7.23663 0,-5.02269 0.38039,-10.44698 0.2614,-15.4646 -0.0365,-1.53884 1.02438,3.28934 1.46383,4.75834 1.37814,4.60691 -0.51102,-5.05042 0,0.0991 0.2614,2.63412 -0.73787,-6.36704 0.41825,-1.98264 0.25636,0.9722 -1.10831,-4.24271 0.20912,1.58611 1.48492,6.56991 0.51263,0.25606 0.67963,-0.69392 0.32516,-1.84965 0.31062,-1.68814 1.25472,-0.79306 0.17852,0.16925 -0.92116,-12.93465 0.41825,-2.77569 0.10143,0.76937 1.15327,0.76937 1.25472,0 0.0307,-0.23311 1.67296,3.28594 1.67296,0 0,-1.00662 0.61793,-0.67606 0.99332,-1.38785 1.55004,-2.93916 -0.57691,-3.07653 1.25471,0.39653 0.49535,0.93928 1.41078,0.199 0.78421,0.79305 -0.27884,0.26436 1.14535,28.00067 0.84293,28.14403 z"
         style="fill:#ff0000;fill-opacity:0.31395347;fill-rule:evenodd;stroke:none"
         inkscape:connector-curvature="0" />
      <path
         sodipodi:nodetypes="ccsssssssssssssssssssssssssssssssssssssssssssssssssssssssssssssssssssssssssc"
         id="path14267"
         d="m 256.24968,558.79012 c -0.90619,0 -54.90186,0.20875 -68.52848,0.23602 -0.32304,-11.49059 -0.0435,-30.29438 -0.0435,-41.70875 0,-2.86682 0.47304,-8.05348 0.62736,-9.51667 0.0483,-0.45833 0.41824,4.47076 0.41824,8.72361 0,1.34794 0.15424,-2.71375 0.41825,-3.96528 0.0869,-0.41215 2.30031,6.25154 2.30031,0 0,-0.11736 0,8.89673 0,1.18958 0,-2.04338 1.06604,3.37498 1.46384,-0.39652 0.0387,-0.36659 0.27882,0.5287 0.41823,0.79306 0.93912,1.78071 1.67297,2.61887 1.67297,0.39653 0,-0.28046 0.20911,-0.0594 0.20911,-3.17223 0,-1.03233 1.25473,3.01497 1.25473,1.98264 0,-1.30426 0.56486,1.46759 1.25471,2.77569 0.0159,0.0302 -0.64981,-4.8435 0.41825,-0.79305 0.59387,2.25216 0.41824,-7.36361 0.41824,-0.79305 0,0.16358 -2.62591,-6.56531 0,-1.58612 0.70184,1.33082 2.34857,0.88456 3.13679,2.37917 0.31562,0.59845 -0.52087,-1.38419 -0.83648,-1.98264 -0.20912,-0.39653 0.62737,-0.62881 0.62737,-1.18958 0,-3.04005 0,-6.0801 0,-9.12015 0,-3.15852 0.85912,5.72319 1.0456,7.13751 0.33353,2.52981 -0.20913,7.51615 -0.20913,10.30972 0,4.62039 2.50945,8.21292 2.50945,13.08542 0,4.58108 0.20911,8.88881 0.20911,13.48195 0,2.17874 -0.12341,6.09091 -0.20911,6.74098 -0.25751,1.95313 0.50394,-4.12781 1.25471,-5.55139 0.35883,-0.68042 0.41824,3.73794 0.41824,2.77569 0,-6.93263 2.71855,9.47259 2.71855,0.49566 0,-9.54927 0.83649,7.61815 0.83649,2.67656 0,-5.78477 1.25471,-2.51731 1.25471,-4.36181 0,-0.80399 0.84338,-0.59152 1.25472,-0.39652 0.0643,0.0305 0,-7.48389 0,-0.39653 0,3.19384 0.20807,-0.79505 1.0456,0.79305 0.0482,0.0913 0.15276,-3.5997 0.62736,0 1.17013,8.87505 1.46383,-2.02702 1.46383,3.56876 0,1.7385 0.008,-6.70983 0.41825,-5.15486 0.14425,0.54707 0.91617,3.64431 1.25471,3.96527 0.21277,0.20173 -0.25169,-5.31633 0.41824,-2.77569 0.13227,0.50157 0.41824,-0.79305 0.62736,-1.18958 0.14702,-0.27876 2.50945,7.4236 2.50945,2.77569 0,-0.29556 0.38043,0.68326 0.41823,0.39653 0.13866,-1.05169 0.74209,-0.45177 0.94104,-3.46962 0.0509,-0.77209 2.40489,7.53024 2.40489,2.1809 0,-2.32009 1.07524,-2.22381 1.67294,-1.09045 0.45471,0.8622 -0.40862,-2.92845 0.62737,1.98264 1.2424,5.8895 0.51947,-1.61133 0.47051,-1.98264 -0.1134,-0.86019 0.61851,2.84282 0.73192,1.98264 0.40578,-3.07765 0.72399,-1.02144 0.88876,-0.39652 0.95701,3.62927 0.44903,-1.64448 1.25473,-3.17223 0.424,-0.804 0.90708,-1.56036 1.46383,-1.98264 1.06,-0.80398 0.62737,-4.78067 0.62737,-0.79306 0,3.57696 -0.7626,11.21913 0.41823,6.74098 0.6831,-2.59052 2.83158,1.48697 2.77084,-0.2974 -0.0675,-1.98291 0.94336,-1.58611 1.09788,-2.47829 0.31666,-1.82844 -0.19487,-3.93827 0.52279,-2.57744 2.80574,5.32016 0.49036,10.57752 2.45716,4.36181 0.96781,-3.05856 2.614,-0.89 2.614,2.08177 0,2.51134 -0.15683,-4.72529 -0.15683,-7.23663 0,-5.02269 0.38039,-10.44698 0.26139,-15.46459 -0.0365,-1.53885 1.02439,3.28933 1.46384,4.75833 1.37814,4.60692 -0.51102,-5.05042 0,0.0991 0.2614,2.63411 -0.73788,-6.36704 0.41824,-1.98265 0.25636,0.9722 -1.1083,-4.24271 0.20913,1.58612 1.48492,6.5699 0.51263,0.25605 0.67963,-0.69393 0.32515,-1.84965 0.31063,-1.68814 1.25473,-0.79306 0.1785,0.16925 -0.92117,-12.93464 0.41823,-2.77569 0.10144,0.76938 1.15328,0.76938 1.25472,0 0.0307,-0.23311 1.67296,3.28594 1.67296,0 0,-1.00662 0.61794,-0.67606 0.99331,-1.38785 1.55005,-2.93916 -0.57689,-3.07653 1.25473,0.39653 0.49536,0.93929 1.41078,0.19901 0.78419,0.79306 -0.27882,0.26435 0.87752,0.94709 0.57509,1.09046 -0.93793,0.44461 0.59935,7.85193 0.7842,12.98628 0.0523,1.45221 0.006,5.13611 1.0456,6.14618 0.71449,0.69393 1.9324,8.75918 1.02623,8.75918 z"
         style="fill:#ff0000;fill-opacity:0.31395347;fill-rule:evenodd;stroke:none"
         inkscape:connector-curvature="0" />
    </g>
    <path
       style="fill:none;stroke:#000000;stroke-width:1.06187773;stroke-linecap:butt;stroke-linejoin:miter;stroke-miterlimit:4;stroke-opacity:0.5;stroke-dasharray:2.12375538, 1.06187768;stroke-dashoffset:0"
       d="m 95.689368,381.43055 119.947992,0"
       id="path14300"
       sodipodi:nodetypes="cc"
       inkscape:connector-curvature="0" />
    <path
       sodipodi:nodetypes="cc"
       id="path14302"
       d="m 95.689368,407.14793 119.947992,0"
       style="fill:none;stroke:#000000;stroke-width:1.06187773;stroke-linecap:butt;stroke-linejoin:miter;stroke-miterlimit:4;stroke-opacity:0.5;stroke-dasharray:2.12375538, 1.06187768;stroke-dashoffset:0"
       inkscape:connector-curvature="0" />
    <text
       xml:space="preserve"
       style="font-size:8.35383797px;font-style:normal;font-weight:normal;fill:#000000;fill-opacity:1;stroke:none;font-family:Bitstream Vera Sans"
       x="100.85289"
       y="304.7467"
       id="text14304"
       transform="scale(0.84081292,1.1893252)"><tspan
         sodipodi:role="line"
         id="tspan14306"
         x="100.85289"
         y="304.7467">s1</tspan></text>
    <text
       transform="scale(0.84081292,1.1893252)"
       id="text14308"
       y="322.03561"
       x="100.85297"
       style="font-size:8.35384178px;font-style:normal;font-weight:normal;fill:#000000;fill-opacity:1;stroke:none;font-family:Bitstream Vera Sans"
       xml:space="preserve"><tspan
         y="322.03561"
         x="100.85297"
         id="tspan14310"
         sodipodi:role="line">s2</tspan></text>
    <text
       xml:space="preserve"
       style="font-size:8.35384846px;font-style:normal;font-weight:normal;fill:#000000;fill-opacity:1;stroke:none;font-family:Bitstream Vera Sans"
       x="100.85308"
       y="343.64682"
       id="text14312"
       transform="scale(0.84081292,1.1893252)"><tspan
         sodipodi:role="line"
         id="tspan14314"
         x="100.85308"
         y="343.64682">s3</tspan></text>
    <path
       sodipodi:type="arc"
       style="fill:#ff0000;fill-opacity:1;stroke:#000000;stroke-width:1.00043762;stroke-miterlimit:4;stroke-opacity:1;stroke-dasharray:none;stroke-dashoffset:0"
       id="path14316"
       sodipodi:cx="321.923"
       sodipodi:cy="524.3681"
       sodipodi:rx="1.7046324"
       sodipodi:ry="1.1995561"
       d="m 323.62764,524.3681 c 0,0.6625 -0.76319,1.19956 -1.70464,1.19956 -0.94144,0 -1.70463,-0.53706 -1.70463,-1.19956 0,-0.66249 0.76319,-1.19955 1.70463,-1.19955 0.94145,0 1.70464,0.53706 1.70464,1.19955 z"
       transform="matrix(0.8003366,0,0,1.3490772,15.62902,-335.71791)" />
    <path
       style="fill:none;stroke:#000000;stroke-width:1.1799643;stroke-linecap:butt;stroke-linejoin:miter;stroke-miterlimit:4;stroke-opacity:0.5;stroke-dasharray:2.35992858, 1.17996428;stroke-dashoffset:0"
       d="m 273.29575,417.35798 0.17613,-45.76062"
       id="path14324"
       sodipodi:nodetypes="cc"
       inkscape:connector-curvature="0" />
    <path
       sodipodi:nodetypes="cc"
       id="path14326"
       d="m 301.4316,417.39681 0.24162,-29.44884"
       style="fill:none;stroke:#000000;stroke-width:1.1086489;stroke-linecap:butt;stroke-linejoin:miter;stroke-miterlimit:4;stroke-opacity:0.5;stroke-dasharray:2.21729781, 1.10864889;stroke-dashoffset:0"
       inkscape:connector-curvature="0" />
    <path
       transform="matrix(0.8003366,0,0,1.3490772,43.797618,-320.29639)"
       d="m 323.62764,524.3681 c 0,0.6625 -0.76319,1.19956 -1.70464,1.19956 -0.94144,0 -1.70463,-0.53706 -1.70463,-1.19956 0,-0.66249 0.76319,-1.19955 1.70463,-1.19955 0.94145,0 1.70464,0.53706 1.70464,1.19955 z"
       sodipodi:ry="1.1995561"
       sodipodi:rx="1.7046324"
       sodipodi:cy="524.3681"
       sodipodi:cx="321.923"
       id="path14328"
       style="fill:#ff0000;fill-opacity:1;stroke:#000000;stroke-width:1.00043762;stroke-miterlimit:4;stroke-opacity:1;stroke-dasharray:none;stroke-dashoffset:0"
       sodipodi:type="arc" />
    <path
       sodipodi:type="arc"
       style="fill:#ff0000;fill-opacity:1;stroke:#000000;stroke-width:1.00043762;stroke-miterlimit:4;stroke-opacity:1;stroke-dasharray:none;stroke-dashoffset:0"
       id="path14330"
       sodipodi:cx="321.923"
       sodipodi:cy="524.3681"
       sodipodi:rx="1.7046324"
       sodipodi:ry="1.1995561"
       d="m 323.62764,524.3681 c 0,0.6625 -0.76319,1.19956 -1.70464,1.19956 -0.94144,0 -1.70463,-0.53706 -1.70463,-1.19956 0,-0.66249 0.76319,-1.19955 1.70463,-1.19955 0.94145,0 1.70464,0.53706 1.70464,1.19955 z"
       transform="matrix(0.8003366,0,0,1.3490772,56.798508,-312.58564)" />
    <path
       style="fill:none;stroke:#000000;stroke-width:1.04663122;stroke-linecap:butt;stroke-linejoin:miter;stroke-miterlimit:4;stroke-opacity:0.5;stroke-dasharray:2.09326246, 1.04663122;stroke-dashoffset:0"
       d="m 314.40402,417.43059 0.29857,-21.24053"
       id="path14332"
       sodipodi:nodetypes="cc"
       inkscape:connector-curvature="0" />
    <text
       transform="scale(0.84081292,1.1893252)"
       id="text14334"
       y="358.20853"
       x="369.50336"
       style="font-size:8.35384083px;font-style:normal;font-weight:normal;fill:#000000;fill-opacity:1;stroke:none;font-family:Bitstream Vera Sans"
       xml:space="preserve"><tspan
         y="358.20853"
         x="369.50336"
         id="tspan14336"
         sodipodi:role="line">s1</tspan></text>
    <text
       xml:space="preserve"
       style="font-size:8.3538456px;font-style:normal;font-weight:normal;fill:#000000;fill-opacity:1;stroke:none;font-family:Bitstream Vera Sans"
       x="352.90802"
       y="358.85178"
       id="text14338"
       transform="scale(0.84081292,1.1893252)"><tspan
         sodipodi:role="line"
         id="tspan14340"
         x="352.90802"
         y="358.85178">s2</tspan></text>
    <text
       transform="scale(0.84081292,1.1893252)"
       id="text14342"
       y="358.35977"
       x="320.69336"
       style="font-size:8.35385323px;font-style:normal;font-weight:normal;fill:#000000;fill-opacity:1;stroke:none;font-family:Bitstream Vera Sans"
       xml:space="preserve"><tspan
         y="358.35977"
         x="320.69336"
         id="tspan14344"
         sodipodi:role="line">s3</tspan></text>
    <g
       style="fill:#ff0000;fill-opacity:0.36627909"
       transform="matrix(2.1126231,0,0,2.9657316,-67.086306,-973.56953)"
       id="g14346">
      <path
         style="fill:#ff0000;fill-opacity:0.36627909;fill-rule:evenodd;stroke:none"
         d="m 325.97737,469.32683 -9.52394,-0.17843 c 0,0 0.18315,-23.90962 4.76197,-12.13324 4.57882,11.77638 4.94513,12.13324 4.76197,12.31167 z"
         id="path14348"
         inkscape:connector-curvature="0" />
      <path
         style="fill:#ff0000;fill-opacity:0.36627909;fill-rule:evenodd;stroke:none"
         d="m 326.40216,469.39647 7.76226,-0.11809 c 0,0 -0.14927,-15.82294 -3.88112,-8.02955 -3.73187,7.7934 -4.03041,8.02955 -3.88114,8.14764 z"
         id="path14350"
         inkscape:connector-curvature="0" />
      <path
         style="fill:#ff0000;fill-opacity:0.36627909;fill-rule:evenodd;stroke:none"
         d="m 332.77969,469.35861 7.86475,-0.0865 c 0,0 -0.15124,-11.59407 -3.93237,-5.88356 -3.78114,5.71052 -4.08362,5.88356 -3.93238,5.97009 z"
         id="path14352"
         inkscape:connector-curvature="0" />
    </g>
    <path
       id="path14354"
       d="m 589.02925,330.33984 -0.15034,88.26318 88.25127,0"
       style="fill:none;stroke:#000000;stroke-width:1.1799643;stroke-linecap:butt;stroke-linejoin:miter;stroke-miterlimit:4;stroke-opacity:1;stroke-dasharray:none;marker-start:url(#Arrow2Lstart);marker-end:url(#Arrow2Lend)"
       inkscape:connector-curvature="0" />
    <g
       transform="matrix(0.775574,0,0,1.2862715,325.39602,-301.50691)"
       style="fill:#ff0000;fill-opacity:0.31395347;stroke:none"
       id="g14362">
      <path
         style="fill:#ff0000;fill-opacity:0.31395347;fill-rule:evenodd;stroke:none"
         d="m 187.80559,559.09763 c -0.30244,0.14336 -54.75696,-0.73495 -64.2624,-0.41933 -0.16152,-5.74529 -1.24834,-48.2688 -1.09401,-49.73199 0.0483,-0.45834 0.41824,4.47076 0.41824,8.72361 0,1.34794 0.15423,-2.71375 0.41825,-3.96528 0.0869,-0.41215 2.30031,6.25154 2.30031,0 0,-0.11737 0,8.89673 0,1.18958 0,-2.04339 1.06605,3.37498 1.46384,-0.39652 0.0387,-0.3666 0.27882,0.5287 0.41825,0.79305 0.93911,1.78072 1.67295,2.61888 1.67295,0.39653 0,-0.28045 0.20912,-0.0594 0.20912,-3.17222 0,-1.03233 1.25472,3.01496 1.25472,1.98264 0,-1.30426 0.56485,1.46759 1.25472,2.77569 0.0159,0.0302 -0.64982,-4.8435 0.41824,-0.79305 0.59387,2.25216 0.41824,-7.36362 0.41824,-0.79306 0,0.16359 -2.62592,-6.5653 0,-1.58611 0.70185,1.33082 2.34857,0.88456 3.13679,2.37917 0.31561,0.59845 -0.52087,-1.38419 -0.83647,-1.98264 -0.20913,-0.39653 0.62736,-0.62882 0.62736,-1.18959 0,-3.04004 0,-6.08009 0,-9.12014 0,-3.15853 0.85912,5.72319 1.04559,7.13751 0.33354,2.52981 -0.20911,7.51615 -0.20911,10.30972 0,4.62038 2.50944,8.21292 2.50944,13.08542 0,4.58108 0.20911,8.88881 0.20911,13.48195 0,2.17874 -0.1234,6.09091 -0.20911,6.74098 -0.25752,1.95313 0.50395,-4.12782 1.25472,-5.5514 0.35882,-0.68041 0.41823,3.73795 0.41823,2.7757 0,-6.93264 2.71857,9.47259 2.71857,0.49566 0,-9.54928 0.83647,7.61814 0.83647,2.67656 0,-5.78477 1.25472,-2.51731 1.25472,-4.36181 0,-0.80399 0.84337,-0.59152 1.25472,-0.39652 0.0643,0.0305 0,-7.48389 0,-0.39653 0,3.19384 0.20806,-0.79505 1.0456,0.79305 0.0482,0.0913 0.15276,-3.5997 0.62735,0 1.17013,8.87504 1.46384,-2.02702 1.46384,3.56875 0,1.73851 0.008,-6.70982 0.41824,-5.15486 0.14427,0.54708 0.91618,3.64432 1.25472,3.96528 0.21277,0.20173 -0.2517,-5.31633 0.41825,-2.77569 0.13225,0.50157 0.41823,-0.79306 0.62735,-1.18959 0.14701,-0.27876 2.50944,7.42361 2.50944,2.7757 0,-0.29556 0.38043,0.68325 0.41824,0.39653 0.13865,-1.0517 0.74209,-0.45177 0.94104,-3.46963 0.0509,-0.77208 2.40487,7.53025 2.40487,2.18091 0,-2.32009 1.07526,-2.22381 1.67296,-1.09045 0.45471,0.8622 -0.40863,-2.92846 0.62737,1.98264 1.24238,5.88949 0.51946,-1.61133 0.47052,-1.98264 -0.11341,-0.86019 0.61851,2.84282 0.73191,1.98264 0.40577,-3.07766 0.72397,-1.02145 0.88877,-0.39653 0.95699,3.62928 0.44902,-1.64448 1.2547,-3.17222 0.42402,-0.804 0.90711,-1.56037 1.46385,-1.98264 1.06,-0.80398 0.62737,-4.78067 0.62737,-0.79306 0,3.57696 -0.76262,11.21913 0.41823,6.74098 0.68308,-2.59052 2.83158,1.48697 2.77083,-0.2974 -0.0675,-1.98292 0.94336,-1.58611 1.09788,-2.4783 0.31667,-1.82844 -0.19486,-3.93827 0.5228,-2.57743 2.80573,5.32016 0.49035,10.57751 2.45716,4.36181 0.96781,-3.05856 2.614,-0.89 2.614,2.08177 0,2.51134 -0.15684,-4.72529 -0.15684,-7.23663 0,-5.02269 0.38039,-10.44698 0.2614,-15.4646 -0.0365,-1.53884 1.02438,3.28934 1.46383,4.75834 1.37814,4.60691 -0.51102,-5.05042 0,0.0991 0.2614,2.63412 -0.73787,-6.36704 0.41825,-1.98264 0.25636,0.9722 -1.10831,-4.24271 0.20912,1.58611 1.48492,6.56991 0.51263,0.25606 0.67963,-0.69392 0.32516,-1.84965 0.31062,-1.68814 1.25472,-0.79306 0.17852,0.16925 -0.92116,-12.93465 0.41825,-2.77569 0.10143,0.76937 1.15327,0.76937 1.25472,0 0.0307,-0.23311 1.67296,3.28594 1.67296,0 0,-1.00662 0.61793,-0.67606 0.99332,-1.38785 1.55004,-2.93916 -0.57691,-3.07653 1.25471,0.39653 0.49535,0.93928 1.41078,0.199 0.78421,0.79305 -0.27884,0.26436 1.14535,28.00067 0.84293,28.14403 z"
         id="path14364"
         sodipodi:nodetypes="ccssssssssssssssssssssssssssssssssssssssssssssssssssssssssssssssssssssss"
         inkscape:connector-curvature="0" />
      <path
         style="fill:#ff0000;fill-opacity:0.31395347;fill-rule:evenodd;stroke:none"
         d="m 256.24968,558.79012 c -0.90619,0 -54.90186,0.20875 -68.52848,0.23602 -0.32304,-11.49059 -0.0435,-30.29438 -0.0435,-41.70875 0,-2.86682 0.47304,-8.05348 0.62736,-9.51667 0.0483,-0.45833 0.41824,4.47076 0.41824,8.72361 0,1.34794 0.15424,-2.71375 0.41825,-3.96528 0.0869,-0.41215 2.30031,6.25154 2.30031,0 0,-0.11736 0,8.89673 0,1.18958 0,-2.04338 1.06604,3.37498 1.46384,-0.39652 0.0387,-0.36659 0.27882,0.5287 0.41823,0.79306 0.93912,1.78071 1.67297,2.61887 1.67297,0.39653 0,-0.28046 0.20911,-0.0594 0.20911,-3.17223 0,-1.03233 1.25473,3.01497 1.25473,1.98264 0,-1.30426 0.56486,1.46759 1.25471,2.77569 0.0159,0.0302 -0.64981,-4.8435 0.41825,-0.79305 0.59387,2.25216 0.41824,-7.36361 0.41824,-0.79305 0,0.16358 -2.62591,-6.56531 0,-1.58612 0.70184,1.33082 2.34857,0.88456 3.13679,2.37917 0.31562,0.59845 -0.52087,-1.38419 -0.83648,-1.98264 -0.20912,-0.39653 0.62737,-0.62881 0.62737,-1.18958 0,-3.04005 0,-6.0801 0,-9.12015 0,-3.15852 0.85912,5.72319 1.0456,7.13751 0.33353,2.52981 -0.20913,7.51615 -0.20913,10.30972 0,4.62039 2.50945,8.21292 2.50945,13.08542 0,4.58108 0.20911,8.88881 0.20911,13.48195 0,2.17874 -0.12341,6.09091 -0.20911,6.74098 -0.25751,1.95313 0.50394,-4.12781 1.25471,-5.55139 0.35883,-0.68042 0.41824,3.73794 0.41824,2.77569 0,-6.93263 2.71855,9.47259 2.71855,0.49566 0,-9.54927 0.83649,7.61815 0.83649,2.67656 0,-5.78477 1.25471,-2.51731 1.25471,-4.36181 0,-0.80399 0.84338,-0.59152 1.25472,-0.39652 0.0643,0.0305 0,-7.48389 0,-0.39653 0,3.19384 0.20807,-0.79505 1.0456,0.79305 0.0482,0.0913 0.15276,-3.5997 0.62736,0 1.17013,8.87505 1.46383,-2.02702 1.46383,3.56876 0,1.7385 0.008,-6.70983 0.41825,-5.15486 0.14425,0.54707 0.91617,3.64431 1.25471,3.96527 0.21277,0.20173 -0.25169,-5.31633 0.41824,-2.77569 0.13227,0.50157 0.41824,-0.79305 0.62736,-1.18958 0.14702,-0.27876 2.50945,7.4236 2.50945,2.77569 0,-0.29556 0.38043,0.68326 0.41823,0.39653 0.13866,-1.05169 0.74209,-0.45177 0.94104,-3.46962 0.0509,-0.77209 2.40489,7.53024 2.40489,2.1809 0,-2.32009 1.07524,-2.22381 1.67294,-1.09045 0.45471,0.8622 -0.40862,-2.92845 0.62737,1.98264 1.2424,5.8895 0.51947,-1.61133 0.47051,-1.98264 -0.1134,-0.86019 0.61851,2.84282 0.73192,1.98264 0.40578,-3.07765 0.72399,-1.02144 0.88876,-0.39652 0.95701,3.62927 0.44903,-1.64448 1.25473,-3.17223 0.424,-0.804 0.90708,-1.56036 1.46383,-1.98264 1.06,-0.80398 0.62737,-4.78067 0.62737,-0.79306 0,3.57696 -0.7626,11.21913 0.41823,6.74098 0.6831,-2.59052 2.83158,1.48697 2.77084,-0.2974 -0.0675,-1.98291 0.94336,-1.58611 1.09788,-2.47829 0.31666,-1.82844 -0.19487,-3.93827 0.52279,-2.57744 2.80574,5.32016 0.49036,10.57752 2.45716,4.36181 0.96781,-3.05856 2.614,-0.89 2.614,2.08177 0,2.51134 -0.15683,-4.72529 -0.15683,-7.23663 0,-5.02269 0.38039,-10.44698 0.26139,-15.46459 -0.0365,-1.53885 1.02439,3.28933 1.46384,4.75833 1.37814,4.60692 -0.51102,-5.05042 0,0.0991 0.2614,2.63411 -0.73788,-6.36704 0.41824,-1.98265 0.25636,0.9722 -1.1083,-4.24271 0.20913,1.58612 1.48492,6.5699 0.51263,0.25605 0.67963,-0.69393 0.32515,-1.84965 0.31063,-1.68814 1.25473,-0.79306 0.1785,0.16925 -0.92117,-12.93464 0.41823,-2.77569 0.10144,0.76938 1.15328,0.76938 1.25472,0 0.0307,-0.23311 1.67296,3.28594 1.67296,0 0,-1.00662 0.61794,-0.67606 0.99331,-1.38785 1.55005,-2.93916 -0.57689,-3.07653 1.25473,0.39653 0.49536,0.93929 1.41078,0.19901 0.78419,0.79306 -0.27882,0.26435 0.87752,0.94709 0.57509,1.09046 -0.93793,0.44461 0.59935,7.85193 0.7842,12.98628 0.0523,1.45221 0.006,5.13611 1.0456,6.14618 0.71449,0.69393 1.9324,8.75918 1.02623,8.75918 z"
         id="path14366"
         sodipodi:nodetypes="ccsssssssssssssssssssssssssssssssssssssssssssssssssssssssssssssssssssssssssc"
         inkscape:connector-curvature="0" />
    </g>
    <path
       style="fill:none;stroke:#000000;stroke-width:0.99879867;stroke-linecap:butt;stroke-linejoin:miter;stroke-miterlimit:4;stroke-opacity:0.5;stroke-dasharray:1.9975973, 0.99879864;stroke-dashoffset:0"
       d="m 421.13787,359.52824 106.08745,0"
       id="path14360"
       sodipodi:nodetypes="cc"
       inkscape:connector-curvature="0" />
    <path
       style="fill:none;stroke:#000000;stroke-width:0.99879867;stroke-linecap:butt;stroke-linejoin:miter;stroke-miterlimit:4;stroke-opacity:0.5;stroke-dasharray:1.9975973, 0.99879864;stroke-dashoffset:0"
       d="m 421.13787,408.40656 106.08745,0"
       id="path14370"
       sodipodi:nodetypes="cc"
       inkscape:connector-curvature="0" />
    <text
       transform="scale(0.93527618,1.0692029)"
       id="text14372"
       y="334.52615"
       x="427.05179"
       style="font-size:9.29240036px;font-style:normal;font-weight:normal;fill:#000000;fill-opacity:1;stroke:none;font-family:Times New Roman;-inkscape-font-specification:Times New Roman"
       xml:space="preserve"><tspan
         y="334.52615"
         x="427.05179"
         id="tspan14374"
         sodipodi:role="line">min</tspan></text>
    <text
       transform="scale(0.93527618,1.0692029)"
       id="text14380"
       y="387.15012"
       x="424.18542"
       style="font-size:9.29241276px;font-style:normal;font-weight:normal;fill:#000000;fill-opacity:1;stroke:none;font-family:Times New Roman;-inkscape-font-specification:Times New Roman"
       xml:space="preserve"><tspan
         y="387.15012"
         x="424.18542"
         id="tspan14382"
         sodipodi:role="line">max</tspan></text>
    <text
       xml:space="preserve"
       style="font-size:8.35386562px;font-style:normal;font-weight:normal;fill:#000000;fill-opacity:1;stroke:none;font-family:Bitstream Vera Sans"
       x="710.24579"
       y="359.79291"
       id="text14396"
       transform="scale(0.84081292,1.1893252)"><tspan
         sodipodi:role="line"
         id="tspan14398"
         x="710.24579"
         y="359.79291">min</tspan></text>
    <text
       xml:space="preserve"
       style="font-size:8.35387802px;font-style:normal;font-weight:normal;fill:#000000;fill-opacity:1;stroke:none;font-family:Bitstream Vera Sans"
       x="767.60913"
       y="359.39832"
       id="text14404"
       transform="scale(0.84081292,1.1893252)"><tspan
         sodipodi:role="line"
         id="tspan14406"
         x="767.60913"
         y="359.39832">max</tspan></text>
    <rect
       style="fill:#229100;fill-opacity:0.31395347;stroke:none"
       id="rect14695"
       width="106.08745"
       height="49.153946"
       x="420.95786"
       y="358.90805" />
    <rect
       y="382.09869"
       x="601.72778"
       height="36.717899"
       width="51.07494"
       id="rect14697"
       style="fill:#229100;fill-opacity:0.31395347;stroke:none" />
    <g
       style="fill:#ff6c00;fill-opacity:0.36627909"
       transform="matrix(2.1126231,0,0,2.9657316,-67.229164,-1108.2582)"
       id="g15192">
      <path
         style="fill:#ff6c00;fill-opacity:0.36627909;fill-rule:evenodd;stroke:none"
         d="m 325.97737,469.32683 -9.52394,-0.17843 c 0,0 0.18315,-23.90962 4.76197,-12.13324 4.57882,11.77638 4.94513,12.13324 4.76197,12.31167 z"
         id="path15194"
         inkscape:connector-curvature="0" />
      <path
         style="fill:#ff6c00;fill-opacity:0.36627909;fill-rule:evenodd;stroke:none"
         d="m 326.40216,469.39647 7.76226,-0.11809 c 0,0 -0.14927,-15.82294 -3.88112,-8.02955 -3.73187,7.7934 -4.03041,8.02955 -3.88114,8.14764 z"
         id="path15196"
         inkscape:connector-curvature="0" />
      <path
         style="fill:#ff6c00;fill-opacity:0.36627909;fill-rule:evenodd;stroke:none"
         d="m 332.77969,469.35861 7.86475,-0.0865 c 0,0 -0.15124,-11.59407 -3.93237,-5.88356 -3.78114,5.71052 -4.08362,5.88356 -3.93238,5.97009 z"
         id="path15198"
         inkscape:connector-curvature="0" />
    </g>
    <path
       id="path15200"
       d="m 588.88639,195.65123 -0.15034,88.26318 88.25127,0"
       style="fill:none;stroke:#000000;stroke-width:1.1799643;stroke-linecap:butt;stroke-linejoin:miter;stroke-miterlimit:4;stroke-opacity:1;stroke-dasharray:none;marker-start:url(#Arrow2Lstart);marker-end:url(#Arrow2Lend)"
       inkscape:connector-curvature="0" />
    <path
       style="fill:none;stroke:#000000;stroke-width:0.99879867;stroke-linecap:butt;stroke-linejoin:miter;stroke-miterlimit:4;stroke-opacity:0.5;stroke-dasharray:1.9975973, 0.99879864;stroke-dashoffset:0"
       d="m 421.03561,224.74101 106.08745,0"
       id="path15206"
       sodipodi:nodetypes="cc"
       inkscape:connector-curvature="0" />
    <g
       transform="matrix(0.775574,0,0,1.2862715,325.29376,-436.29415)"
       style="fill:#ff0000;fill-opacity:0.31395347;stroke:none"
       id="g15208">
      <path
         style="fill:#ff0000;fill-opacity:0.31395347;fill-rule:evenodd;stroke:none"
         d="m 187.80559,559.09763 c -0.30244,0.14336 -54.75696,-0.73495 -64.2624,-0.41933 -0.16152,-5.74529 -1.24834,-48.2688 -1.09401,-49.73199 0.0483,-0.45834 0.41824,4.47076 0.41824,8.72361 0,1.34794 0.15423,-2.71375 0.41825,-3.96528 0.0869,-0.41215 2.30031,6.25154 2.30031,0 0,-0.11737 0,8.89673 0,1.18958 0,-2.04339 1.06605,3.37498 1.46384,-0.39652 0.0387,-0.3666 0.27882,0.5287 0.41825,0.79305 0.93911,1.78072 1.67295,2.61888 1.67295,0.39653 0,-0.28045 0.20912,-0.0594 0.20912,-3.17222 0,-1.03233 1.25472,3.01496 1.25472,1.98264 0,-1.30426 0.56485,1.46759 1.25472,2.77569 0.0159,0.0302 -0.64982,-4.8435 0.41824,-0.79305 0.59387,2.25216 0.41824,-7.36362 0.41824,-0.79306 0,0.16359 -2.62592,-6.5653 0,-1.58611 0.70185,1.33082 2.34857,0.88456 3.13679,2.37917 0.31561,0.59845 -0.52087,-1.38419 -0.83647,-1.98264 -0.20913,-0.39653 0.62736,-0.62882 0.62736,-1.18959 0,-3.04004 0,-6.08009 0,-9.12014 0,-3.15853 0.85912,5.72319 1.04559,7.13751 0.33354,2.52981 -0.20911,7.51615 -0.20911,10.30972 0,4.62038 2.50944,8.21292 2.50944,13.08542 0,4.58108 0.20911,8.88881 0.20911,13.48195 0,2.17874 -0.1234,6.09091 -0.20911,6.74098 -0.25752,1.95313 0.50395,-4.12782 1.25472,-5.5514 0.35882,-0.68041 0.41823,3.73795 0.41823,2.7757 0,-6.93264 2.71857,9.47259 2.71857,0.49566 0,-9.54928 0.83647,7.61814 0.83647,2.67656 0,-5.78477 1.25472,-2.51731 1.25472,-4.36181 0,-0.80399 0.84337,-0.59152 1.25472,-0.39652 0.0643,0.0305 0,-7.48389 0,-0.39653 0,3.19384 0.20806,-0.79505 1.0456,0.79305 0.0482,0.0913 0.15276,-3.5997 0.62735,0 1.17013,8.87504 1.46384,-2.02702 1.46384,3.56875 0,1.73851 0.008,-6.70982 0.41824,-5.15486 0.14427,0.54708 0.91618,3.64432 1.25472,3.96528 0.21277,0.20173 -0.2517,-5.31633 0.41825,-2.77569 0.13225,0.50157 0.41823,-0.79306 0.62735,-1.18959 0.14701,-0.27876 2.50944,7.42361 2.50944,2.7757 0,-0.29556 0.38043,0.68325 0.41824,0.39653 0.13865,-1.0517 0.74209,-0.45177 0.94104,-3.46963 0.0509,-0.77208 2.40487,7.53025 2.40487,2.18091 0,-2.32009 1.07526,-2.22381 1.67296,-1.09045 0.45471,0.8622 -0.40863,-2.92846 0.62737,1.98264 1.24238,5.88949 0.51946,-1.61133 0.47052,-1.98264 -0.11341,-0.86019 0.61851,2.84282 0.73191,1.98264 0.40577,-3.07766 0.72397,-1.02145 0.88877,-0.39653 0.95699,3.62928 0.44902,-1.64448 1.2547,-3.17222 0.42402,-0.804 0.90711,-1.56037 1.46385,-1.98264 1.06,-0.80398 0.62737,-4.78067 0.62737,-0.79306 0,3.57696 -0.76262,11.21913 0.41823,6.74098 0.68308,-2.59052 2.83158,1.48697 2.77083,-0.2974 -0.0675,-1.98292 0.94336,-1.58611 1.09788,-2.4783 0.31667,-1.82844 -0.19486,-3.93827 0.5228,-2.57743 2.80573,5.32016 0.49035,10.57751 2.45716,4.36181 0.96781,-3.05856 2.614,-0.89 2.614,2.08177 0,2.51134 -0.15684,-4.72529 -0.15684,-7.23663 0,-5.02269 0.38039,-10.44698 0.2614,-15.4646 -0.0365,-1.53884 1.02438,3.28934 1.46383,4.75834 1.37814,4.60691 -0.51102,-5.05042 0,0.0991 0.2614,2.63412 -0.73787,-6.36704 0.41825,-1.98264 0.25636,0.9722 -1.10831,-4.24271 0.20912,1.58611 1.48492,6.56991 0.51263,0.25606 0.67963,-0.69392 0.32516,-1.84965 0.31062,-1.68814 1.25472,-0.79306 0.17852,0.16925 -0.92116,-12.93465 0.41825,-2.77569 0.10143,0.76937 1.15327,0.76937 1.25472,0 0.0307,-0.23311 1.67296,3.28594 1.67296,0 0,-1.00662 0.61793,-0.67606 0.99332,-1.38785 1.55004,-2.93916 -0.57691,-3.07653 1.25471,0.39653 0.49535,0.93928 1.41078,0.199 0.78421,0.79305 -0.27884,0.26436 1.14535,28.00067 0.84293,28.14403 z"
         id="path15210"
         sodipodi:nodetypes="ccssssssssssssssssssssssssssssssssssssssssssssssssssssssssssssssssssssss"
         inkscape:connector-curvature="0" />
      <path
         style="fill:#ff0000;fill-opacity:0.31395347;fill-rule:evenodd;stroke:none"
         d="m 256.24968,558.79012 c -0.90619,0 -54.90186,0.20875 -68.52848,0.23602 -0.32304,-11.49059 -0.0435,-30.29438 -0.0435,-41.70875 0,-2.86682 0.47304,-8.05348 0.62736,-9.51667 0.0483,-0.45833 0.41824,4.47076 0.41824,8.72361 0,1.34794 0.15424,-2.71375 0.41825,-3.96528 0.0869,-0.41215 2.30031,6.25154 2.30031,0 0,-0.11736 0,8.89673 0,1.18958 0,-2.04338 1.06604,3.37498 1.46384,-0.39652 0.0387,-0.36659 0.27882,0.5287 0.41823,0.79306 0.93912,1.78071 1.67297,2.61887 1.67297,0.39653 0,-0.28046 0.20911,-0.0594 0.20911,-3.17223 0,-1.03233 1.25473,3.01497 1.25473,1.98264 0,-1.30426 0.56486,1.46759 1.25471,2.77569 0.0159,0.0302 -0.64981,-4.8435 0.41825,-0.79305 0.59387,2.25216 0.41824,-7.36361 0.41824,-0.79305 0,0.16358 -2.62591,-6.56531 0,-1.58612 0.70184,1.33082 2.34857,0.88456 3.13679,2.37917 0.31562,0.59845 -0.52087,-1.38419 -0.83648,-1.98264 -0.20912,-0.39653 0.62737,-0.62881 0.62737,-1.18958 0,-3.04005 0,-6.0801 0,-9.12015 0,-3.15852 0.85912,5.72319 1.0456,7.13751 0.33353,2.52981 -0.20913,7.51615 -0.20913,10.30972 0,4.62039 2.50945,8.21292 2.50945,13.08542 0,4.58108 0.20911,8.88881 0.20911,13.48195 0,2.17874 -0.12341,6.09091 -0.20911,6.74098 -0.25751,1.95313 0.50394,-4.12781 1.25471,-5.55139 0.35883,-0.68042 0.41824,3.73794 0.41824,2.77569 0,-6.93263 2.71855,9.47259 2.71855,0.49566 0,-9.54927 0.83649,7.61815 0.83649,2.67656 0,-5.78477 1.25471,-2.51731 1.25471,-4.36181 0,-0.80399 0.84338,-0.59152 1.25472,-0.39652 0.0643,0.0305 0,-7.48389 0,-0.39653 0,3.19384 0.20807,-0.79505 1.0456,0.79305 0.0482,0.0913 0.15276,-3.5997 0.62736,0 1.17013,8.87505 1.46383,-2.02702 1.46383,3.56876 0,1.7385 0.008,-6.70983 0.41825,-5.15486 0.14425,0.54707 0.91617,3.64431 1.25471,3.96527 0.21277,0.20173 -0.25169,-5.31633 0.41824,-2.77569 0.13227,0.50157 0.41824,-0.79305 0.62736,-1.18958 0.14702,-0.27876 2.50945,7.4236 2.50945,2.77569 0,-0.29556 0.38043,0.68326 0.41823,0.39653 0.13866,-1.05169 0.74209,-0.45177 0.94104,-3.46962 0.0509,-0.77209 2.40489,7.53024 2.40489,2.1809 0,-2.32009 1.07524,-2.22381 1.67294,-1.09045 0.45471,0.8622 -0.40862,-2.92845 0.62737,1.98264 1.2424,5.8895 0.51947,-1.61133 0.47051,-1.98264 -0.1134,-0.86019 0.61851,2.84282 0.73192,1.98264 0.40578,-3.07765 0.72399,-1.02144 0.88876,-0.39652 0.95701,3.62927 0.44903,-1.64448 1.25473,-3.17223 0.424,-0.804 0.90708,-1.56036 1.46383,-1.98264 1.06,-0.80398 0.62737,-4.78067 0.62737,-0.79306 0,3.57696 -0.7626,11.21913 0.41823,6.74098 0.6831,-2.59052 2.83158,1.48697 2.77084,-0.2974 -0.0675,-1.98291 0.94336,-1.58611 1.09788,-2.47829 0.31666,-1.82844 -0.19487,-3.93827 0.52279,-2.57744 2.80574,5.32016 0.49036,10.57752 2.45716,4.36181 0.96781,-3.05856 2.614,-0.89 2.614,2.08177 0,2.51134 -0.15683,-4.72529 -0.15683,-7.23663 0,-5.02269 0.38039,-10.44698 0.26139,-15.46459 -0.0365,-1.53885 1.02439,3.28933 1.46384,4.75833 1.37814,4.60692 -0.51102,-5.05042 0,0.0991 0.2614,2.63411 -0.73788,-6.36704 0.41824,-1.98265 0.25636,0.9722 -1.1083,-4.24271 0.20913,1.58612 1.48492,6.5699 0.51263,0.25605 0.67963,-0.69393 0.32515,-1.84965 0.31063,-1.68814 1.25473,-0.79306 0.1785,0.16925 -0.92117,-12.93464 0.41823,-2.77569 0.10144,0.76938 1.15328,0.76938 1.25472,0 0.0307,-0.23311 1.67296,3.28594 1.67296,0 0,-1.00662 0.61794,-0.67606 0.99331,-1.38785 1.55005,-2.93916 -0.57689,-3.07653 1.25473,0.39653 0.49536,0.93929 1.41078,0.19901 0.78419,0.79306 -0.27882,0.26435 0.87752,0.94709 0.57509,1.09046 -0.93793,0.44461 0.59935,7.85193 0.7842,12.98628 0.0523,1.45221 0.006,5.13611 1.0456,6.14618 0.71449,0.69393 1.9324,8.75918 1.02623,8.75918 z"
         id="path15212"
         sodipodi:nodetypes="ccsssssssssssssssssssssssssssssssssssssssssssssssssssssssssssssssssssssssssc"
         inkscape:connector-curvature="0" />
    </g>
    <text
       transform="scale(0.93527618,1.0692029)"
       id="text15218"
       y="212.29385"
       x="421.16409"
       style="font-size:9.2923708px;font-style:normal;font-weight:normal;fill:#000000;fill-opacity:1;stroke:none;font-family:Times New Roman;-inkscape-font-specification:Times New Roman"
       xml:space="preserve"><tspan
         y="212.29385"
         x="421.16409"
         id="tspan15220"
         sodipodi:role="line">max</tspan></text>
    <path
       transform="matrix(0.8003366,0,0,1.3490772,390.22708,-490.05533)"
       d="m 323.62764,524.3681 c 0,0.6625 -0.76319,1.19956 -1.70464,1.19956 -0.94144,0 -1.70463,-0.53706 -1.70463,-1.19956 0,-0.66249 0.76319,-1.19955 1.70463,-1.19955 0.94145,0 1.70464,0.53706 1.70464,1.19955 z"
       sodipodi:ry="1.1995561"
       sodipodi:rx="1.7046324"
       sodipodi:cy="524.3681"
       sodipodi:cx="321.923"
       id="path15238"
       style="fill:#ff0000;fill-opacity:1;stroke:#000000;stroke-width:1.00043762;stroke-miterlimit:4;stroke-opacity:1;stroke-dasharray:none;stroke-dashoffset:0"
       sodipodi:type="arc" />
    <path
       sodipodi:nodetypes="cc"
       id="path15240"
       d="m 647.91534,283.87784 0.13307,-65.2559"
       style="fill:none;stroke:#000000;stroke-width:1.22438681;stroke-linecap:butt;stroke-linejoin:miter;stroke-miterlimit:4;stroke-opacity:0.5;stroke-dasharray:2.44877359, 1.22438679;stroke-dashoffset:0"
       inkscape:connector-curvature="0" />
    <text
       xml:space="preserve"
       style="font-size:8.35384083px;font-style:normal;font-weight:normal;fill:#000000;fill-opacity:1;stroke:none;font-family:Bitstream Vera Sans"
       x="761.94659"
       y="245.99594"
       id="text15242"
       transform="scale(0.84081292,1.1893252)"><tspan
         sodipodi:role="line"
         id="tspan15244"
         x="761.94659"
         y="245.99594">max</tspan></text>
    <path
       id="path4569"
       d="m 95.663198,329.38036 -0.23539,87.96472 138.170792,0"
       style="fill:none;stroke:#000000;stroke-width:1.06200004;stroke-linecap:butt;stroke-linejoin:miter;stroke-miterlimit:4;stroke-opacity:1;stroke-dasharray:none;marker-start:url(#Arrow2Lstart);marker-end:url(#Arrow2Lend)"
       inkscape:connector-curvature="0" />
    <path
       id="path4571"
       d="m 421.52034,194.09465 -0.23539,87.96472 138.17079,0"
       style="fill:none;stroke:#000000;stroke-width:1.06200004;stroke-linecap:butt;stroke-linejoin:miter;stroke-miterlimit:4;stroke-opacity:1;stroke-dasharray:none;marker-start:url(#Arrow2Lstart);marker-end:url(#Arrow2Lend)"
       inkscape:connector-curvature="0" />
    <path
       style="fill:none;stroke:#000000;stroke-width:1.06200004;stroke-linecap:butt;stroke-linejoin:miter;stroke-miterlimit:4;stroke-opacity:1;stroke-dasharray:none;marker-start:url(#Arrow2Lstart);marker-end:url(#Arrow2Lend)"
       d="m 420.80605,329.66608 -0.23539,87.96472 138.17079,0"
       id="path4573"
       inkscape:connector-curvature="0" />
    <text
       xml:space="preserve"
       style="font-size:12px;font-style:normal;font-weight:normal;fill:#000000;fill-opacity:1;stroke:none;font-family:Times New Roman;-inkscape-font-specification:Times New Roman"
       x="140.19585"
       y="429.056"
       id="text4575"><tspan
         sodipodi:role="line"
         id="tspan4577"
         x="140.19585"
         y="429.056">Time</tspan></text>
    <text
       id="text4579"
       y="291.67526"
       x="143.2263"
       style="font-size:12px;font-style:normal;font-weight:normal;fill:#000000;fill-opacity:1;stroke:none;font-family:Times New Roman;-inkscape-font-specification:Times New Roman"
       xml:space="preserve"><tspan
         y="291.67526"
         x="143.2263"
         id="tspan4581"
         sodipodi:role="line">Time</tspan></text>
    <text
       id="text4583"
       y="428.55093"
       x="463.4447"
       style="font-size:12px;font-style:normal;font-weight:normal;fill:#000000;fill-opacity:1;stroke:none;font-family:Times New Roman;-inkscape-font-specification:Times New Roman"
       xml:space="preserve"><tspan
         y="428.55093"
         x="463.4447"
         id="tspan4585"
         sodipodi:role="line">Time</tspan></text>
    <text
       xml:space="preserve"
       style="font-size:12px;font-style:normal;font-weight:normal;fill:#000000;fill-opacity:1;stroke:none;font-family:Times New Roman;-inkscape-font-specification:Times New Roman"
       x="464.45486"
       y="292.68542"
       id="text4587"><tspan
         sodipodi:role="line"
         id="tspan4589"
         x="464.45486"
         y="292.68542">Time</tspan></text>
    <text
       xml:space="preserve"
       style="font-size:12px;font-style:normal;font-weight:normal;fill:#000000;fill-opacity:1;stroke:none;font-family:Times New Roman;-inkscape-font-specification:Times New Roman"
       x="-403.61887"
       y="415.4537"
       id="text4591"
       transform="matrix(0,-1,1,0,0,0)"><tspan
         sodipodi:role="line"
         id="tspan4593"
         x="-403.61887"
         y="415.4537">Current</tspan></text>
    <text
       transform="matrix(0,-1,1,0,0,0)"
       id="text4595"
       y="414.94864"
       x="-274.8244"
       style="font-size:12px;font-style:normal;font-weight:normal;fill:#000000;fill-opacity:1;stroke:none;font-family:Times New Roman;-inkscape-font-specification:Times New Roman"
       xml:space="preserve"><tspan
         y="414.94864"
         x="-274.8244"
         id="tspan4597"
         sodipodi:role="line">Current</tspan></text>
    <text
       xml:space="preserve"
       style="font-size:12px;font-style:normal;font-weight:normal;fill:#000000;fill-opacity:1;stroke:none;font-family:Times New Roman;-inkscape-font-specification:Times New Roman"
       x="-270.78378"
       y="91.194733"
       id="text4599"
       transform="matrix(0,-1,1,0,0,0)"><tspan
         sodipodi:role="line"
         id="tspan4601"
         x="-270.78378"
         y="91.194733">Current</tspan></text>
    <text
       transform="matrix(0,-1,1,0,0,0)"
       id="text4603"
       y="82.608437"
       x="-404.629"
       style="font-size:12px;font-style:normal;font-weight:normal;fill:#000000;fill-opacity:1;stroke:none;font-family:Times New Roman;-inkscape-font-specification:Times New Roman"
       xml:space="preserve"><tspan
         y="82.608437"
         x="-404.629"
         id="tspan4605"
         sodipodi:role="line">Current</tspan></text>
    <text
       xml:space="preserve"
       style="font-size:12px;font-style:normal;font-weight:normal;fill:#000000;fill-opacity:1;stroke:none;font-family:Times New Roman;-inkscape-font-specification:Times New Roman"
       x="273.53598"
       y="436.63214"
       id="text4607"><tspan
         sodipodi:role="line"
         id="tspan4609"
         x="273.53598"
         y="436.63214">Current</tspan></text>
    <text
       id="text4611"
       y="293.19049"
       x="275.55627"
       style="font-size:12px;font-style:normal;font-weight:normal;fill:#000000;fill-opacity:1;stroke:none;font-family:Times New Roman;-inkscape-font-specification:Times New Roman"
       xml:space="preserve"><tspan
         y="293.19049"
         x="275.55627"
         id="tspan4613"
         sodipodi:role="line">Current</tspan></text>
    <text
       xml:space="preserve"
       style="font-size:12px;font-style:normal;font-weight:normal;fill:#000000;fill-opacity:1;stroke:none;font-family:Times New Roman;-inkscape-font-specification:Times New Roman"
       x="601.33044"
       y="301.2717"
       id="text4615"><tspan
         sodipodi:role="line"
         id="tspan4617"
         x="601.33044"
         y="301.2717">Current</tspan></text>
    <text
       id="text4619"
       y="436.63214"
       x="606.88629"
       style="font-size:12px;font-style:normal;font-weight:normal;fill:#000000;fill-opacity:1;stroke:none;font-family:Times New Roman;-inkscape-font-specification:Times New Roman"
       xml:space="preserve"><tspan
         y="436.63214"
         x="606.88629"
         id="tspan4621"
         sodipodi:role="line">Current</tspan></text>
    <text
       xml:space="preserve"
       style="font-size:12px;font-style:normal;font-weight:normal;fill:#000000;fill-opacity:1;stroke:none;font-family:Times New Roman;-inkscape-font-specification:Times New Roman"
       x="-413.40103"
       y="254.13344"
       id="text4623"
       transform="matrix(0,-1,1,0,0,0)"><tspan
         sodipodi:role="line"
         id="tspan4625"
         x="-413.40103"
         y="254.13344">Probability</tspan></text>
    <text
       transform="matrix(0,-1,1,0,0,0)"
       id="text4627"
       y="255.64867"
       x="-276.02029"
       style="font-size:12px;font-style:normal;font-weight:normal;fill:#000000;fill-opacity:1;stroke:none;font-family:Times New Roman;-inkscape-font-specification:Times New Roman"
       xml:space="preserve"><tspan
         y="255.64867"
         x="-276.02029"
         id="tspan4629"
         sodipodi:role="line">Probability</tspan></text>
    <text
       transform="matrix(0,-1,1,0,0,0)"
       id="text4631"
       y="582.93805"
       x="-412.89597"
       style="font-size:12px;font-style:normal;font-weight:normal;fill:#000000;fill-opacity:1;stroke:none;font-family:Times New Roman;-inkscape-font-specification:Times New Roman"
       xml:space="preserve"><tspan
         y="582.93805"
         x="-412.89597"
         id="tspan4633"
         sodipodi:role="line">Probability</tspan></text>
    <text
       xml:space="preserve"
       style="font-size:12px;font-style:normal;font-weight:normal;fill:#000000;fill-opacity:1;stroke:none;font-family:Times New Roman;-inkscape-font-specification:Times New Roman"
       x="-280.06091"
       y="583.44312"
       id="text4635"
       transform="matrix(0,-1,1,0,0,0)"><tspan
         sodipodi:role="line"
         id="tspan4637"
         x="-280.06091"
         y="583.44312">Probability</tspan></text>
    <text
       xml:space="preserve"
       style="font-size:16px;font-style:normal;font-weight:normal;fill:#000000;fill-opacity:1;stroke:none;font-family:Times New Roman;-inkscape-font-specification:Times New Roman"
       x="202.0305"
       y="181.61069"
       id="text2938"><tspan
         sodipodi:role="line"
         id="tspan2940"
         x="202.0305"
         y="181.61069">a)</tspan></text>
    <text
       id="text2942"
       y="327.07266"
       x="201.02036"
       style="font-size:16px;font-style:normal;font-weight:normal;fill:#000000;fill-opacity:1;stroke:none;font-family:Times New Roman;-inkscape-font-specification:Times New Roman"
       xml:space="preserve"><tspan
         y="327.07266"
         x="201.02036"
         id="tspan2944"
         sodipodi:role="line">c)</tspan></text>
    <text
       id="text2946"
       y="185.65129"
       x="541.44177"
       style="font-size:16px;font-style:normal;font-weight:normal;fill:#000000;fill-opacity:1;stroke:none;font-family:Times New Roman;-inkscape-font-specification:Times New Roman"
       xml:space="preserve"><tspan
         y="185.65129"
         x="541.44177"
         id="tspan2948"
         sodipodi:role="line">b)</tspan></text>
    <text
       xml:space="preserve"
       style="font-size:16px;font-style:normal;font-weight:normal;fill:#000000;fill-opacity:1;stroke:none;font-family:Times New Roman;-inkscape-font-specification:Times New Roman"
       x="543.4621"
       y="327.07266"
       id="text2950"><tspan
         sodipodi:role="line"
         id="tspan2952"
         x="543.4621"
         y="327.07266">d)</tspan></text>
  </g>
</svg>
