<?xml version="1.0" encoding="UTF-8" standalone="no"?>
<!-- Created with matplotlib (http://matplotlib.sourceforge.net/) -->

<svg
   xmlns:dc="http://purl.org/dc/elements/1.1/"
   xmlns:cc="http://creativecommons.org/ns#"
   xmlns:rdf="http://www.w3.org/1999/02/22-rdf-syntax-ns#"
   xmlns:svg="http://www.w3.org/2000/svg"
   xmlns="http://www.w3.org/2000/svg"
   xmlns:xlink="http://www.w3.org/1999/xlink"
   xmlns:sodipodi="http://sodipodi.sourceforge.net/DTD/sodipodi-0.dtd"
   xmlns:inkscape="http://www.inkscape.org/namespaces/inkscape"
   width="432pt"
   height="293pt"
   viewBox="0 0 432 293"
   version="1.1"
   id="svg1"
   inkscape:version="0.47 r22583"
   sodipodi:docname="ex1_losses_cost.svg">
  <metadata
     id="metadata573">
    <rdf:RDF>
      <cc:Work
         rdf:about="">
        <dc:format>image/svg+xml</dc:format>
        <dc:type
           rdf:resource="http://purl.org/dc/dcmitype/StillImage" />
      </cc:Work>
    </rdf:RDF>
  </metadata>
  <defs
     id="defs571">
    <marker
       inkscape:stockid="Arrow2Lend"
       orient="auto"
       refY="0.0"
       refX="0.0"
       id="Arrow2Lend"
       style="overflow:visible;">
      <path
         id="path4185"
         style="font-size:12.0;fill-rule:evenodd;stroke-width:0.62500000;stroke-linejoin:round;"
         d="M 8.7185878,4.0337352 L -2.2072895,0.016013256 L 8.7185884,-4.0017078 C 6.9730900,-1.6296469 6.9831476,1.6157441 8.7185878,4.0337352 z "
         transform="scale(1.1) rotate(180) translate(1,0)" />
    </marker>
    <marker
       inkscape:stockid="Arrow1Lend"
       orient="auto"
       refY="0.0"
       refX="0.0"
       id="Arrow1Lend"
       style="overflow:visible;">
      <path
         id="path4167"
         d="M 0.0,0.0 L 5.0,-5.0 L -12.5,0.0 L 5.0,5.0 L 0.0,0.0 z "
         style="fill-rule:evenodd;stroke:#000000;stroke-width:1.0pt;marker-start:none;"
         transform="scale(0.8) rotate(180) translate(12.5,0)" />
    </marker>
    <marker
       inkscape:stockid="Arrow1Lstart"
       orient="auto"
       refY="0.0"
       refX="0.0"
       id="Arrow1Lstart"
       style="overflow:visible">
      <path
         id="path4164"
         d="M 0.0,0.0 L 5.0,-5.0 L -12.5,0.0 L 5.0,5.0 L 0.0,0.0 z "
         style="fill-rule:evenodd;stroke:#000000;stroke-width:1.0pt;marker-start:none"
         transform="scale(0.8) translate(12.5,0)" />
    </marker>
    <inkscape:perspective
       sodipodi:type="inkscape:persp3d"
       inkscape:vp_x="0 : 183.125 : 1"
       inkscape:vp_y="0 : 1000 : 0"
       inkscape:vp_z="540 : 183.125 : 1"
       inkscape:persp3d-origin="270 : 122.08333 : 1"
       id="perspective575" />
    <inkscape:perspective
       id="perspective6297"
       inkscape:persp3d-origin="0.5 : 0.33333333 : 1"
       inkscape:vp_z="1 : 0.5 : 1"
       inkscape:vp_y="0 : 1000 : 0"
       inkscape:vp_x="0 : 0.5 : 1"
       sodipodi:type="inkscape:persp3d" />
    <inkscape:perspective
       id="perspective3132"
       inkscape:persp3d-origin="0.5 : 0.33333333 : 1"
       inkscape:vp_z="1 : 0.5 : 1"
       inkscape:vp_y="0 : 1000 : 0"
       inkscape:vp_x="0 : 0.5 : 1"
       sodipodi:type="inkscape:persp3d" />
  </defs>
  <sodipodi:namedview
     pagecolor="#ffffff"
     bordercolor="#666666"
     borderopacity="1"
     objecttolerance="10"
     gridtolerance="10"
     guidetolerance="10"
     inkscape:pageopacity="0"
     inkscape:pageshadow="2"
     inkscape:window-width="1180"
     inkscape:window-height="888"
     id="namedview569"
     showgrid="false"
     inkscape:zoom="0.69624575"
     inkscape:cx="112.03612"
     inkscape:cy="106.69638"
     inkscape:window-x="143"
     inkscape:window-y="93"
     inkscape:window-maximized="0"
     inkscape:current-layer="svg1" />
  <g
     id="patch2">
    <path
       style="fill:#ffffff"
       d="m 54,264.06 334.8,0 0,-234.72 -334.8,0 0,234.72"
       id="path9" />
  </g>
  <g
     id="RegularPolyCollection1">
    <defs
       id="defs12">
      <path
         id="coll0_0_411e2837cedc2b7c9a88d79a42d31085"
         d="m 0,-5.698035 -4.934643,8.547053 9.869286,0 L 0,-5.698035" />
      <path
         id="coll0_1_405c8fcbacc665ec3d74534a5de2222d"
         d="m 0,-3.191538 -2.763953,4.787307 5.527906,0 L 0,-3.191538" />
      <path
         id="coll0_2_411e2837cedc2b7c9a88d79a42d31085"
         d="m 0,-5.698035 -4.934643,8.547053 9.869286,0 L 0,-5.698035" />
      <path
         id="coll0_3_23dc64c08d627dc4ea64d09cba33bf03"
         d="m 0,-6.383076 -5.527906,9.574614 11.055812,0 L 0,-6.383076" />
      <path
         id="coll0_4_405c8fcbacc665ec3d74534a5de2222d"
         d="m 0,-3.191538 -2.763953,4.787307 5.527906,0 L 0,-3.191538" />
    </defs>
    <defs
       id="defs19">
      <clipPath
         id="p2b015e663cfaa9e2ec2fd125965755f5">
        <rect
           x="54"
           y="29.34"
           width="334.79999"
           height="234.72"
           id="rect22" />
      </clipPath>
    </defs>
    <g
       clip-path="url(#p2b015e663cfaa9e2ec2fd125965755f5)"
       id="g24">
      <use
         style="fill:#ff0000;stroke:#000000;stroke-width:1;stroke-linecap:butt;stroke-linejoin:round"
         xlink:href="#coll0_0_411e2837cedc2b7c9a88d79a42d31085"
         x="132.72887"
         y="142.8858"
         id="use26"
         width="432"
         height="293" />
    </g>
    <g
       clip-path="url(#p2b015e663cfaa9e2ec2fd125965755f5)"
       id="g28">
      <use
         style="fill:#ff0000;stroke:#000000;stroke-width:1;stroke-linecap:butt;stroke-linejoin:round"
         xlink:href="#coll0_1_405c8fcbacc665ec3d74534a5de2222d"
         x="285.33765"
         y="196.8714"
         id="use30"
         width="432"
         height="293" />
    </g>
    <g
       clip-path="url(#p2b015e663cfaa9e2ec2fd125965755f5)"
       id="g32">
      <use
         style="fill:#ff0000;stroke:#000000;stroke-width:1;stroke-linecap:butt;stroke-linejoin:round"
         xlink:href="#coll0_2_411e2837cedc2b7c9a88d79a42d31085"
         x="147.84973"
         y="89.780403"
         id="use34"
         width="432"
         height="293" />
    </g>
    <g
       clip-path="url(#p2b015e663cfaa9e2ec2fd125965755f5)"
       id="g36">
      <use
         style="fill:#ff0000;stroke:#000000;stroke-width:1;stroke-linecap:butt;stroke-linejoin:round"
         xlink:href="#coll0_3_23dc64c08d627dc4ea64d09cba33bf03"
         x="120.19222"
         y="56.919601"
         id="use38"
         width="432"
         height="293" />
    </g>
    <g
       clip-path="url(#p2b015e663cfaa9e2ec2fd125965755f5)"
       id="g40">
      <use
         style="fill:#ff0000;stroke:#000000;stroke-width:1;stroke-linecap:butt;stroke-linejoin:round"
         xlink:href="#coll0_4_405c8fcbacc665ec3d74534a5de2222d"
         x="335.89719"
         y="249.97681"
         id="use42"
         width="432"
         height="293" />
    </g>
  </g>
  <g
     id="CircleCollection1">
    <defs
       id="defs45">
      <path
         id="coll1_0_663b93e0d41ee0faf29c64cf526305a4"
         d="m 0,3.191538 c 0.846406,0 1.658259,-0.33628 2.256758,-0.93478 C 2.855258,1.658259 3.191538,0.846406 3.191538,0 c 0,-0.846406 -0.33628,-1.658259 -0.93478,-2.256758 C 1.658259,-2.855258 0.846406,-3.191538 0,-3.191538 c -0.846406,0 -1.658259,0.33628 -2.256758,0.93478 -0.5985,0.598499 -0.93478,1.410352 -0.93478,2.256758 0,0.846406 0.33628,1.658259 0.93478,2.256758 0.598499,0.5985 1.410352,0.93478 2.256758,0.93478 z" />
      <path
         id="coll1_1_54aa1fc8f1eee1130257d9345660428f"
         d="m 0,5.698035 c 1.511137,0 2.960585,-0.60038 4.02912,-1.668915 C 5.097655,2.960585 5.698035,1.511137 5.698035,0 c 0,-1.511137 -0.60038,-2.960585 -1.668915,-4.02912 C 2.960585,-5.097655 1.511137,-5.698035 0,-5.698035 c -1.511137,0 -2.960585,0.60038 -4.02912,1.668915 -1.068535,1.068535 -1.668915,2.517983 -1.668915,4.02912 0,1.511137 0.60038,2.960585 1.668915,4.02912 C -2.960585,5.097655 -1.511137,5.698035 0,5.698035 z" />
    </defs>
    <g
       clip-path="url(#p2b015e663cfaa9e2ec2fd125965755f5)"
       id="g49">
      <use
         style="fill:#008000;stroke:#000000;stroke-width:1;stroke-linecap:butt;stroke-linejoin:round"
         xlink:href="#coll1_0_663b93e0d41ee0faf29c64cf526305a4"
         x="232.90558"
         y="143.76601"
         id="use51"
         width="432"
         height="293" />
    </g>
    <g
       clip-path="url(#p2b015e663cfaa9e2ec2fd125965755f5)"
       id="g53">
      <use
         style="fill:#008000;stroke:#000000;stroke-width:1;stroke-linecap:butt;stroke-linejoin:round"
         xlink:href="#coll1_1_54aa1fc8f1eee1130257d9345660428f"
         x="188.96989"
         y="89.780403"
         id="use55"
         width="432"
         height="293" />
    </g>
  </g>
  <g
     id="matplotlib.axis1">
    <g
       id="xtick1">
      <g
         id="line2d1">
        <defs
           id="defs60">
          <path
             id="m30e32995789d870ad79a2e54c91cf9c6"
             d="M 0,0 0,-4" />
        </defs>
        <g
           id="g63">
          <use
             style="fill:none;stroke:#000000;stroke-width:0.5;stroke-linecap:butt;stroke-linejoin:round"
             xlink:href="#m30e32995789d870ad79a2e54c91cf9c6"
             x="54"
             y="264.06"
             id="use65"
             width="432"
             height="293" />
        </g>
      </g>
      <g
         id="line2d2">
        <defs
           id="defs68">
          <path
             id="m9281cae24120827b11d5ea8a7ad3e96b"
             d="M 0,0 0,4" />
        </defs>
        <g
           id="g71">
          <use
             style="fill:none;stroke:#000000;stroke-width:0.5;stroke-linecap:butt;stroke-linejoin:round"
             xlink:href="#m9281cae24120827b11d5ea8a7ad3e96b"
             x="54"
             y="29.34"
             id="use73"
             width="432"
             height="293" />
        </g>
      </g>
      <g
         id="text1">
        <defs
           id="defs76">
          <path
             id="c_42baa63129a918535c52adb20d687ea7"
             d="m 12.40625,-8.296875 16.109375,0 0,-55.625 -17.53125,3.515625 0,-8.984375 17.4375,-3.515625 9.859375,0 0,64.609375 16.109375,0 0,8.296875 -41.984375,0 z" />
          <path
             id="c_ed3e21196fb739f392806f09ca0594ef"
             d="m 10.6875,-12.40625 10.3125,0 L 21,0 10.6875,0 z" />
          <path
             id="c_a0416418d96557a09b8c1332d34883ba"
             d="m 37.796875,-64.3125 -24.90625,38.921875 24.90625,0 z m -2.59375,-8.59375 12.40625,0 0,47.515625 10.40625,0 0,8.203125 -10.40625,0 0,17.1875 -9.8125,0 0,-17.1875 -32.90625,0 0,-9.515625 z" />
        </defs>
        <g
           style="fill:#000000"
           transform="matrix(0.12,0,0,0.12,45.445313,276.81)"
           id="g81">
          <use
             xlink:href="#c_42baa63129a918535c52adb20d687ea7"
             id="use83"
             x="0"
             y="0"
             width="432"
             height="293" />
          <use
             xlink:href="#c_ed3e21196fb739f392806f09ca0594ef"
             x="63.623047"
             id="use85"
             y="0"
             width="432"
             height="293" />
          <use
             xlink:href="#c_a0416418d96557a09b8c1332d34883ba"
             x="95.410156"
             id="use87"
             y="0"
             width="432"
             height="293" />
        </g>
      </g>
    </g>
    <g
       id="xtick2">
      <g
         id="line2d3">
        <g
           id="g91">
          <use
             style="fill:none;stroke:#000000;stroke-width:0.5;stroke-linecap:butt;stroke-linejoin:round"
             xlink:href="#m30e32995789d870ad79a2e54c91cf9c6"
             x="109.8"
             y="264.06"
             id="use93"
             width="432"
             height="293" />
        </g>
      </g>
      <g
         id="line2d4">
        <g
           id="g96">
          <use
             style="fill:none;stroke:#000000;stroke-width:0.5;stroke-linecap:butt;stroke-linejoin:round"
             xlink:href="#m9281cae24120827b11d5ea8a7ad3e96b"
             x="109.8"
             y="29.34"
             id="use98"
             width="432"
             height="293" />
        </g>
      </g>
      <g
         id="text2">
        <defs
           id="defs101">
          <path
             id="c_1260a2df50f305f3db244e29828f968e"
             d="m 10.796875,-72.90625 38.71875,0 0,8.3125 -29.6875,0 0,17.859375 q 2.140625,-0.734375 4.28125,-1.09375 2.15625,-0.359375 4.3125,-0.359375 12.203125,0 19.328125,6.6875 7.140625,6.6875 7.140625,18.109375 0,11.765625 -7.328125,18.296875 -7.328125,6.515625 -20.65625,6.515625 -4.59375,0 -9.359375,-0.78125 -4.75,-0.78125 -9.828125,-2.34375 l 0,-9.921875 q 4.390625,2.390625 9.078125,3.5625 4.6875,1.171875 9.90625,1.171875 8.453125,0 13.375,-4.4375 4.9375,-4.4375 4.9375,-12.0625 0,-7.609375 -4.9375,-12.046875 -4.921875,-4.453125 -13.375,-4.453125 -3.953125,0 -7.890625,0.875 -3.921875,0.875 -8.015625,2.734375 z" />
        </defs>
        <g
           style="fill:#000000"
           transform="matrix(0.12,0,0,0.12,101.43281,276.81)"
           id="g104">
          <use
             xlink:href="#c_42baa63129a918535c52adb20d687ea7"
             id="use106"
             x="0"
             y="0"
             width="432"
             height="293" />
          <use
             xlink:href="#c_ed3e21196fb739f392806f09ca0594ef"
             x="63.623047"
             id="use108"
             y="0"
             width="432"
             height="293" />
          <use
             xlink:href="#c_1260a2df50f305f3db244e29828f968e"
             x="95.410156"
             id="use110"
             y="0"
             width="432"
             height="293" />
        </g>
      </g>
    </g>
    <g
       id="xtick3">
      <g
         id="line2d5">
        <g
           id="g114">
          <use
             style="fill:none;stroke:#000000;stroke-width:0.5;stroke-linecap:butt;stroke-linejoin:round"
             xlink:href="#m30e32995789d870ad79a2e54c91cf9c6"
             x="165.60001"
             y="264.06"
             id="use116"
             width="432"
             height="293" />
        </g>
      </g>
      <g
         id="line2d6">
        <g
           id="g119">
          <use
             style="fill:none;stroke:#000000;stroke-width:0.5;stroke-linecap:butt;stroke-linejoin:round"
             xlink:href="#m9281cae24120827b11d5ea8a7ad3e96b"
             x="165.60001"
             y="29.34"
             id="use121"
             width="432"
             height="293" />
        </g>
      </g>
      <g
         id="text3">
        <defs
           id="defs124">
          <path
             id="c_cc8d6d580d1b10c8632f7a42cd53db8a"
             d="m 33.015625,-40.375 q -6.640625,0 -10.53125,4.546875 -3.875,4.53125 -3.875,12.4375 0,7.859375 3.875,12.4375 3.890625,4.5625 10.53125,4.5625 6.640625,0 10.515625,-4.5625 3.875,-4.578125 3.875,-12.4375 0,-7.90625 -3.875,-12.4375 Q 39.65625,-40.375 33.015625,-40.375 m 19.578125,-30.921875 0,8.984375 q -3.71875,-1.75 -7.5,-2.671875 -3.78125,-0.9375 -7.5,-0.9375 -9.765625,0 -14.921875,6.59375 -5.140625,6.59375 -5.875,19.921875 2.875,-4.25 7.21875,-6.515625 4.359375,-2.265625 9.578125,-2.265625 10.984375,0 17.359375,6.671875 6.375,6.65625 6.375,18.125 0,11.234375 -6.640625,18.03125 -6.640625,6.78125 -17.671875,6.78125 -12.65625,0 -19.34375,-9.6875 -6.6875,-9.703125 -6.6875,-28.109375 0,-17.28125 8.203125,-27.5625 8.203125,-10.28125 22.015625,-10.28125 3.71875,0 7.5,0.734375 3.78125,0.734375 7.890625,2.1875" />
        </defs>
        <g
           style="fill:#000000"
           transform="matrix(0.12,0,0,0.12,157.09219,276.96625)"
           id="g127">
          <use
             xlink:href="#c_42baa63129a918535c52adb20d687ea7"
             id="use129"
             x="0"
             y="0"
             width="432"
             height="293" />
          <use
             xlink:href="#c_ed3e21196fb739f392806f09ca0594ef"
             x="63.623047"
             id="use131"
             y="0"
             width="432"
             height="293" />
          <use
             xlink:href="#c_cc8d6d580d1b10c8632f7a42cd53db8a"
             x="95.410156"
             id="use133"
             y="0"
             width="432"
             height="293" />
        </g>
      </g>
    </g>
    <g
       id="xtick4">
      <g
         id="line2d7">
        <g
           id="g137">
          <use
             style="fill:none;stroke:#000000;stroke-width:0.5;stroke-linecap:butt;stroke-linejoin:round"
             xlink:href="#m30e32995789d870ad79a2e54c91cf9c6"
             x="221.39999"
             y="264.06"
             id="use139"
             width="432"
             height="293" />
        </g>
      </g>
      <g
         id="line2d8">
        <g
           id="g142">
          <use
             style="fill:none;stroke:#000000;stroke-width:0.5;stroke-linecap:butt;stroke-linejoin:round"
             xlink:href="#m9281cae24120827b11d5ea8a7ad3e96b"
             x="221.39999"
             y="29.34"
             id="use144"
             width="432"
             height="293" />
        </g>
      </g>
      <g
         id="text4">
        <defs
           id="defs147">
          <path
             id="c_956f18cfdaf972f35a6c2b4aaac2532b"
             d="m 8.203125,-72.90625 46.875,0 0,4.203125 L 28.609375,0 18.3125,0 l 24.90625,-64.59375 -35.015625,0 z" />
        </defs>
        <g
           style="fill:#000000"
           transform="matrix(0.12,0,0,0.12,213.025,276.81)"
           id="g150">
          <use
             xlink:href="#c_42baa63129a918535c52adb20d687ea7"
             id="use152"
             x="0"
             y="0"
             width="432"
             height="293" />
          <use
             xlink:href="#c_ed3e21196fb739f392806f09ca0594ef"
             x="63.623047"
             id="use154"
             y="0"
             width="432"
             height="293" />
          <use
             xlink:href="#c_956f18cfdaf972f35a6c2b4aaac2532b"
             x="95.410156"
             id="use156"
             y="0"
             width="432"
             height="293" />
        </g>
      </g>
    </g>
    <g
       id="xtick5">
      <g
         id="line2d9">
        <g
           id="g160">
          <use
             style="fill:none;stroke:#000000;stroke-width:0.5;stroke-linecap:butt;stroke-linejoin:round"
             xlink:href="#m30e32995789d870ad79a2e54c91cf9c6"
             x="277.20001"
             y="264.06"
             id="use162"
             width="432"
             height="293" />
        </g>
      </g>
      <g
         id="line2d10">
        <g
           id="g165">
          <use
             style="fill:none;stroke:#000000;stroke-width:0.5;stroke-linecap:butt;stroke-linejoin:round"
             xlink:href="#m9281cae24120827b11d5ea8a7ad3e96b"
             x="277.20001"
             y="29.34"
             id="use167"
             width="432"
             height="293" />
        </g>
      </g>
      <g
         id="text5">
        <defs
           id="defs170">
          <path
             id="c_bef35738d52871942e50b9de9b122bab"
             d="m 31.78125,-34.625 q -7.03125,0 -11.0625,3.765625 -4.015625,3.765625 -4.015625,10.34375 0,6.59375 4.015625,10.359375 4.03125,3.765625 11.0625,3.765625 7.03125,0 11.078125,-3.78125 4.0625,-3.796875 4.0625,-10.34375 0,-6.578125 -4.03125,-10.34375 Q 38.875,-34.625 31.78125,-34.625 m -9.859375,-4.1875 Q 15.578125,-40.375 12.03125,-44.71875 8.5,-49.078125 8.5,-55.328125 q 0,-8.734375 6.21875,-13.8125 6.234375,-5.078125 17.0625,-5.078125 10.890625,0 17.09375,5.078125 6.203125,5.078125 6.203125,13.8125 0,6.25 -3.546875,10.609375 Q 48,-40.375 41.703125,-38.8125 q 7.125,1.65625 11.09375,6.5 3.984375,4.828125 3.984375,11.796875 0,10.609375 -6.46875,16.28125 -6.46875,5.65625 -18.53125,5.65625 -12.046875,0 -18.53125,-5.65625 -6.46875,-5.671875 -6.46875,-16.28125 0,-6.96875 4,-11.796875 4.015625,-4.84375 11.140625,-6.5 M 18.3125,-54.390625 q 0,5.65625 3.53125,8.828125 3.546875,3.171875 9.9375,3.171875 6.359375,0 9.9375,-3.171875 3.59375,-3.171875 3.59375,-8.828125 0,-5.671875 -3.59375,-8.84375 -3.578125,-3.171875 -9.9375,-3.171875 -6.390625,0 -9.9375,3.171875 -3.53125,3.171875 -3.53125,8.84375" />
        </defs>
        <g
           style="fill:#000000"
           transform="matrix(0.12,0,0,0.12,268.72344,276.96625)"
           id="g173">
          <use
             xlink:href="#c_42baa63129a918535c52adb20d687ea7"
             id="use175"
             x="0"
             y="0"
             width="432"
             height="293" />
          <use
             xlink:href="#c_ed3e21196fb739f392806f09ca0594ef"
             x="63.623047"
             id="use177"
             y="0"
             width="432"
             height="293" />
          <use
             xlink:href="#c_bef35738d52871942e50b9de9b122bab"
             x="95.410156"
             id="use179"
             y="0"
             width="432"
             height="293" />
        </g>
      </g>
    </g>
    <g
       id="xtick6">
      <g
         id="line2d11">
        <g
           id="g183">
          <use
             style="fill:none;stroke:#000000;stroke-width:0.5;stroke-linecap:butt;stroke-linejoin:round"
             xlink:href="#m30e32995789d870ad79a2e54c91cf9c6"
             x="333"
             y="264.06"
             id="use185"
             width="432"
             height="293" />
        </g>
      </g>
      <g
         id="line2d12">
        <g
           id="g188">
          <use
             style="fill:none;stroke:#000000;stroke-width:0.5;stroke-linecap:butt;stroke-linejoin:round"
             xlink:href="#m9281cae24120827b11d5ea8a7ad3e96b"
             x="333"
             y="29.34"
             id="use190"
             width="432"
             height="293" />
        </g>
      </g>
      <g
         id="text6">
        <defs
           id="defs193">
          <path
             id="c_cd96f817f3cab988d24a2b49a5577fe6"
             d="m 10.984375,-1.515625 0,-8.984375 q 3.71875,1.765625 7.515625,2.6875 3.8125,0.921875 7.484375,0.921875 9.765625,0 14.90625,-6.5625 5.15625,-6.5625 5.890625,-19.953125 -2.828125,4.203125 -7.1875,6.453125 -4.34375,2.25 -9.609375,2.25 -10.9375,0 -17.3125,-6.609375 -6.375,-6.625 -6.375,-18.109375 0,-11.21875 6.640625,-18 6.640625,-6.796875 17.671875,-6.796875 12.65625,0 19.3125,9.703125 6.671875,9.6875 6.671875,28.140625 0,17.234375 -8.1875,27.515625 -8.171875,10.28125 -21.984375,10.28125 -3.71875,0 -7.53125,-0.734375 -3.796875,-0.734375 -7.90625,-2.203125 m 19.625,-30.90625 q 6.640625,0 10.515625,-4.53125 3.890625,-4.546875 3.890625,-12.46875 0,-7.859375 -3.890625,-12.421875 -3.875,-4.5625 -10.515625,-4.5625 -6.640625,0 -10.515625,4.5625 -3.875,4.5625 -3.875,12.421875 0,7.921875 3.875,12.46875 3.875,4.53125 10.515625,4.53125" />
        </defs>
        <g
           style="fill:#000000"
           transform="matrix(0.12,0,0,0.12,324.53125,276.96625)"
           id="g196">
          <use
             xlink:href="#c_42baa63129a918535c52adb20d687ea7"
             id="use198"
             x="0"
             y="0"
             width="432"
             height="293" />
          <use
             xlink:href="#c_ed3e21196fb739f392806f09ca0594ef"
             x="63.623047"
             id="use200"
             y="0"
             width="432"
             height="293" />
          <use
             xlink:href="#c_cd96f817f3cab988d24a2b49a5577fe6"
             x="95.410156"
             id="use202"
             y="0"
             width="432"
             height="293" />
        </g>
      </g>
    </g>
    <g
       id="xtick7">
      <g
         id="line2d13">
        <g
           id="g206">
          <use
             style="fill:none;stroke:#000000;stroke-width:0.5;stroke-linecap:butt;stroke-linejoin:round"
             xlink:href="#m30e32995789d870ad79a2e54c91cf9c6"
             x="388.79999"
             y="264.06"
             id="use208"
             width="432"
             height="293" />
        </g>
      </g>
      <g
         id="line2d14">
        <g
           id="g211">
          <use
             style="fill:none;stroke:#000000;stroke-width:0.5;stroke-linecap:butt;stroke-linejoin:round"
             xlink:href="#m9281cae24120827b11d5ea8a7ad3e96b"
             x="388.79999"
             y="29.34"
             id="use213"
             width="432"
             height="293" />
        </g>
      </g>
      <g
         id="text7">
        <defs
           id="defs216">
          <path
             id="c_ed3f3ed3ebfbd18bcb9c012009a68ad1"
             d="m 19.1875,-8.296875 34.421875,0 0,8.296875 -46.28125,0 0,-8.296875 q 5.609375,-5.8125 15.296875,-15.59375 9.703125,-9.796875 12.1875,-12.640625 4.734375,-5.3125 6.609375,-9 1.890625,-3.6875 1.890625,-7.25 0,-5.8125 -4.078125,-9.46875 -4.078125,-3.671875 -10.625,-3.671875 -4.640625,0 -9.796875,1.609375 -5.140625,1.609375 -11,4.890625 l 0,-9.96875 Q 13.765625,-71.78125 18.9375,-73 q 5.1875,-1.21875 9.484375,-1.21875 11.328125,0 18.0625,5.671875 6.734375,5.65625 6.734375,15.125 0,4.5 -1.6875,8.53125 -1.671875,4.015625 -6.125,9.484375 -1.21875,1.421875 -7.765625,8.1875 -6.53125,6.765625 -18.453125,18.921875" />
          <path
             id="c_7a2040fe3b94fcd41d0a72c84e93b115"
             d="m 31.78125,-66.40625 q -7.609375,0 -11.453125,7.5 Q 16.5,-51.421875 16.5,-36.375 q 0,14.984375 3.828125,22.484375 3.84375,7.5 11.453125,7.5 7.671875,0 11.5,-7.5 3.84375,-7.5 3.84375,-22.484375 0,-15.046875 -3.84375,-22.53125 -3.828125,-7.5 -11.5,-7.5 m 0,-7.8125 q 12.265625,0 18.734375,9.703125 6.46875,9.6875 6.46875,28.140625 0,18.40625 -6.46875,28.109375 -6.46875,9.6875 -18.734375,9.6875 -12.25,0 -18.71875,-9.6875 Q 6.59375,-17.96875 6.59375,-36.375 q 0,-18.453125 6.46875,-28.140625 6.46875,-9.703125 18.71875,-9.703125" />
        </defs>
        <g
           style="fill:#000000"
           transform="matrix(0.12,0,0,0.12,380.08906,276.96625)"
           id="g220">
          <use
             xlink:href="#c_ed3f3ed3ebfbd18bcb9c012009a68ad1"
             id="use222"
             x="0"
             y="0"
             width="432"
             height="293" />
          <use
             xlink:href="#c_ed3e21196fb739f392806f09ca0594ef"
             x="63.623047"
             id="use224"
             y="0"
             width="432"
             height="293" />
          <use
             xlink:href="#c_7a2040fe3b94fcd41d0a72c84e93b115"
             x="95.410156"
             id="use226"
             y="0"
             width="432"
             height="293" />
        </g>
      </g>
    </g>
    <g
       id="text8">
      <defs
         id="defs229">
        <path
           id="c_9d9fc0f5a68b3451eca65ae635b3492d"
           d="m 4.6875,0 q -0.96875,0 -0.96875,-1.3125 0.046875,-0.25 0.1875,-0.859375 0.140625,-0.609375 0.40625,-0.96875 0.28125,-0.375 0.671875,-0.375 6.09375,0 8.5,-0.6875 1.3125,-0.4375 1.890625,-2.6875 L 29.109375,-61.8125 q 0.1875,-0.984375 0.1875,-1.375 0,-1.078125 -1.21875,-1.21875 -1.859375,-0.390625 -7.171875,-0.390625 -0.984375,0 -0.984375,-1.3125 0.34375,-1.28125 0.53125,-1.734375 0.203125,-0.46875 1.125,-0.46875 l 29.546875,0 q 0.875,0 0.875,1.3125 -0.140625,1.03125 -0.34375,1.625 -0.1875,0.578125 -0.96875,0.578125 -7.375,0 -9.859375,0.484375 -2.453125,0.4375 -3.03125,2.9375 L 24.125,-6.5 q -0.4375,1.21875 -0.4375,2.203125 0,0.78125 3.40625,0.78125 l 9.28125,0 q 7.859375,0 12.734375,-3.125 4.890625,-3.125 7.234375,-7.046875 2.34375,-3.9375 3.921875,-8.15625 1.59375,-4.234375 2.328125,-4.375 l 0.890625,0 q 1.015625,0 1.015625,1.3125 L 55.609375,-0.6875 Q 55.46875,0 54.6875,0 z" />
        <path
           id="c_bd2880cc926fc00b7f332ad1632b5ed2"
           d="m 20.125,1.125 q -4.75,0 -8.4375,-2.25 Q 8.015625,-3.375 6,-7.171875 4,-10.984375 4,-15.828125 4,-22.609375 7.78125,-29.25 11.578125,-35.890625 17.84375,-40.03125 24.125,-44.1875 31,-44.1875 q 3.71875,0 6.625,1.265625 2.90625,1.265625 5.046875,3.5625 2.15625,2.296875 3.296875,5.375 1.15625,3.078125 1.15625,6.6875 0,5.21875 -2.203125,10.28125 -2.203125,5.046875 -6.03125,9.171875 Q 35.0625,-3.71875 30.125,-1.296875 25.203125,1.125 20.125,1.125 m 0.1875,-2.640625 q 4.4375,0 8.125,-3.015625 3.6875,-3.03125 6.046875,-7.640625 2.375,-4.625 3.640625,-9.75 1.28125,-5.125 1.28125,-9.28125 0,-4.34375 -2.171875,-7.375 -2.171875,-3.03125 -6.421875,-3.03125 -5.859375,0 -10.265625,5.015625 -4.390625,5 -6.609375,11.96875 -2.21875,6.953125 -2.21875,12.703125 0,4.359375 2.21875,7.390625 2.21875,3.015625 6.375,3.015625" />
        <path
           id="c_75c38898ea241ebcbd0918e2320a1d61"
           d="m 8.6875,-6.109375 q 2.6875,4.59375 10.796875,4.59375 3.515625,0 6.6875,-1.1875 3.171875,-1.203125 5.25,-3.59375 Q 33.5,-8.6875 33.5,-12.109375 q 0,-2.59375 -1.859375,-4.25 -1.859375,-1.65625 -4.546875,-2.25 l -5.40625,-1.0625 q -3.71875,-0.9375 -6.109375,-3.46875 -2.390625,-2.546875 -2.390625,-6.15625 0,-4.4375 2.40625,-7.859375 2.421875,-3.421875 6.375,-5.21875 3.953125,-1.8125 8.203125,-1.8125 4.546875,0 8.125,2.171875 3.59375,2.171875 3.59375,6.421875 0,2.296875 -1.296875,4.0625 -1.28125,1.75 -3.578125,1.75 -1.328125,0 -2.28125,-0.859375 -0.9375,-0.859375 -0.9375,-2.171875 0,-1.171875 0.65625,-2.265625 0.65625,-1.109375 1.75,-1.765625 Q 37.3125,-37.5 38.484375,-37.5 q -0.890625,-2.15625 -3.3125,-3.125 -2.40625,-0.984375 -5.1875,-0.984375 -2.546875,0 -5.09375,1.03125 -2.53125,1.03125 -4.078125,3.015625 -1.53125,1.96875 -1.53125,4.65625 0,1.796875 1.265625,3.171875 1.28125,1.359375 3.140625,1.953125 l 5.8125,1.171875 q 2.78125,0.578125 5.09375,2.078125 2.328125,1.484375 3.65625,3.765625 1.34375,2.265625 1.34375,5.1875 0,3.71875 -2.078125,7.328125 -2.0625,3.609375 -5.09375,5.765625 Q 27.09375,1.125 19.390625,1.125 q -5.328125,0 -9.78125,-2.4375 -4.4375,-2.453125 -4.4375,-7.28125 0,-2.734375 1.578125,-4.75 1.59375,-2.03125 4.328125,-2.03125 1.625,0 2.71875,0.984375 1.09375,0.96875 1.09375,2.578125 0,2.296875 -1.71875,4 -1.703125,1.703125 -3.984375,1.703125 z" />
        <path
           id="c_67a1adfdf9fbdb7189c9402c3f73ee06"
           d="m 20.125,1.125 q -4.796875,0 -8.390625,-2.484375 -3.578125,-2.5 -5.46875,-6.71875 -1.875,-4.234375 -1.875,-8.921875 0,-7.125 3.59375,-13.390625 3.59375,-6.28125 9.734375,-10.03125 6.15625,-3.765625 13.1875,-3.765625 4.296875,0 7.5,2.21875 3.203125,2.21875 3.203125,6.375 0,5.765625 -4.59375,8.578125 -4.59375,2.796875 -10.359375,3.453125 -5.75,0.65625 -12.734375,0.65625 l -0.296875,0 q -1.609375,5.96875 -1.609375,10.203125 0,4.453125 2.046875,7.828125 2.046875,3.359375 6.25,3.359375 5.953125,0 11.4375,-2.734375 5.5,-2.734375 8.96875,-7.5625 0.296875,-0.296875 0.78125,-0.296875 0.5,0 1,0.5625 0.515625,0.5625 0.515625,1.046875 0,0.390625 -0.1875,0.59375 -3.671875,5.125 -9.875,8.078125 Q 26.765625,1.125 20.125,1.125 m -5.921875,-26.609375 q 5.8125,0 10.75,-0.53125 4.9375,-0.546875 8.9375,-2.71875 4,-2.171875 4,-6.765625 0,-1.859375 -1.03125,-3.25 -1.015625,-1.390625 -2.65625,-2.125 -1.640625,-0.734375 -3.390625,-0.734375 -4.25,0 -7.640625,2.296875 -3.390625,2.296875 -5.59375,5.984375 -2.203125,3.6875 -3.375,7.84375" />
        <path
           id="c_06a7a4502300c60b4feec85758ecf628"
           d="M 31,24.8125 Q 25.4375,20.40625 21.40625,14.71875 17.390625,9.03125 14.8125,2.578125 12.25,-3.859375 10.984375,-10.890625 9.71875,-17.921875 9.71875,-25 q 0,-7.171875 1.265625,-14.203125 1.265625,-7.03125 3.875,-13.53125 2.625,-6.5 6.671875,-12.15625 Q 25.59375,-70.5625 31,-74.8125 31,-75 31.5,-75 l 0.921875,0 q 0.296875,0 0.53125,0.265625 0.25,0.265625 0.25,0.609375 0,0.4375 -0.1875,0.640625 -4.890625,4.78125 -8.140625,10.25 -3.25,5.46875 -5.234375,11.65625 -1.96875,6.171875 -2.84375,12.796875 -0.875,6.609375 -0.875,13.78125 0,31.78125 16.984375,48.296875 0.296875,0.28125 0.296875,0.828125 0,0.234375 -0.265625,0.546875 Q 32.671875,25 32.421875,25 L 31.5,25 Q 31,25 31,24.8125" />
        <path
           id="c_251a4d58cac0151c5a1822fd57888890"
           d="M 17.828125,1.125 13.1875,-62.59375 q -0.34375,-1.46875 -2.203125,-1.828125 -1.859375,-0.375 -4.59375,-0.375 -0.96875,0 -0.96875,-1.3125 0.34375,-1.28125 0.53125,-1.734375 0.203125,-0.46875 1.125,-0.46875 l 23.828125,0 q 0.984375,0 0.984375,1.3125 -0.390625,2.203125 -1.28125,2.203125 -8,0 -8.484375,2.78125 l 3.5625,50.484375 25,-43.546875 -0.484375,-7.515625 Q 49.859375,-64.0625 48,-64.421875 q -1.859375,-0.375 -4.59375,-0.375 -1.015625,0 -1.015625,-1.3125 0.328125,-1.28125 0.515625,-1.734375 0.203125,-0.46875 1.1875,-0.46875 l 23.828125,0 q 0.96875,0 0.96875,1.3125 -0.04687,0.25 -0.1875,0.84375 -0.140625,0.578125 -0.390625,0.96875 -0.25,0.390625 -0.734375,0.390625 -8.0625,0 -8.5,2.78125 l 0,0.734375 3.625,49.75 27.1875,-47.453125 q 0.59375,-1.078125 0.59375,-2.09375 0,-2.0625 -2.015625,-2.890625 -2,-0.828125 -4.484375,-0.828125 -0.96875,0 -0.96875,-1.3125 0.1875,-0.78125 0.3125,-1.21875 0.125,-0.453125 0.4375,-0.71875 0.3125,-0.265625 0.953125,-0.265625 l 19.09375,0 q 0.96875,0 0.96875,1.3125 -0.0469,0.25 -0.20312,0.859375 -0.14063,0.609375 -0.40625,0.984375 -0.26563,0.359375 -0.65625,0.359375 -7.125005,0 -10.843755,6.5 -0.28125,0.28125 -0.28125,0.28125 L 58.5,1.125 q -0.546875,1.078125 -1.71875,1.078125 l -0.78125,0 q -1.21875,0 -1.21875,-1.078125 L 50.984375,-50.390625 21.578125,1.125 q -0.734375,1.078125 -1.75,1.078125 l -0.828125,0 q -1.171875,0 -1.171875,-1.078125" />
        <path
           id="c_b865a8a4692360a5eaaff4ecf56eccf7"
           d="m 6.5,25 q -0.890625,0 -0.890625,-0.875 0,-0.4375 0.203125,-0.640625 Q 22.90625,6.78125 22.90625,-25 22.90625,-56.78125 6,-73.296875 5.609375,-73.53125 5.609375,-74.125 q 0,-0.34375 0.265625,-0.609375 Q 6.15625,-75 6.5,-75 l 0.921875,0 q 0.296875,0 0.484375,0.1875 7.1875,5.671875 11.96875,13.78125 4.78125,8.09375 7,17.28125 2.234375,9.171875 2.234375,18.75 0,7.078125 -1.203125,13.9375 -1.203125,6.859375 -3.8125,13.515625 -2.609375,6.671875 -6.609375,12.3125 -4,5.640625 -9.578125,10.046875 Q 7.71875,25 7.421875,25 z" />
      </defs>
      <g
         id="mathtext1">
        <g
           style="fill:#000000"
           transform="translate(192.4,294.13812)"
           id="g239">
          <use
             xlink:href="#c_9d9fc0f5a68b3451eca65ae635b3492d"
             transform="matrix(0.12,0,0,0.12,0,-3)"
             id="use241"
             x="0"
             y="0"
             width="432"
             height="293" />
          <use
             xlink:href="#c_bd2880cc926fc00b7f332ad1632b5ed2"
             transform="matrix(0.12,0,0,0.12,8.162109,-3)"
             id="use243"
             x="0"
             y="0"
             width="432"
             height="293" />
          <use
             xlink:href="#c_75c38898ea241ebcbd0918e2320a1d61"
             transform="matrix(0.12,0,0,0.12,13.96875,-3)"
             id="use245"
             x="0"
             y="0"
             width="432"
             height="293" />
          <use
             xlink:href="#c_75c38898ea241ebcbd0918e2320a1d61"
             transform="matrix(0.12,0,0,0.12,19.582031,-3)"
             id="use247"
             x="0"
             y="0"
             width="432"
             height="293" />
          <use
             xlink:href="#c_67a1adfdf9fbdb7189c9402c3f73ee06"
             transform="matrix(0.12,0,0,0.12,25.195313,-3)"
             id="use249"
             x="0"
             y="0"
             width="432"
             height="293" />
          <use
             xlink:href="#c_75c38898ea241ebcbd0918e2320a1d61"
             transform="matrix(0.12,0,0,0.12,30.773438,-3)"
             id="use251"
             x="0"
             y="0"
             width="432"
             height="293" />
          <use
             xlink:href="#c_06a7a4502300c60b4feec85758ecf628"
             transform="matrix(0.12,0,0,0.12,36.386719,-3)"
             id="use253"
             x="0"
             y="0"
             width="432"
             height="293" />
          <use
             xlink:href="#c_251a4d58cac0151c5a1822fd57888890"
             transform="matrix(0.12,0,0,0.12,41.044922,-3)"
             id="use255"
             x="0"
             y="0"
             width="432"
             height="293" />
          <use
             xlink:href="#c_b865a8a4692360a5eaaff4ecf56eccf7"
             transform="matrix(0.12,0,0,0.12,52.371094,-3)"
             id="use257"
             x="0"
             y="0"
             width="432"
             height="293" />
        </g>
      </g>
    </g>
  </g>
  <g
     id="matplotlib.axis2">
    <g
       id="ytick1">
      <g
         id="line2d15">
        <defs
           id="defs262">
          <path
             id="m3400efa6b1638b3fea9e19e898273957"
             d="M 0,0 4,0" />
        </defs>
        <g
           id="g265">
          <use
             style="fill:none;stroke:#000000;stroke-width:0.5;stroke-linecap:butt;stroke-linejoin:round"
             xlink:href="#m3400efa6b1638b3fea9e19e898273957"
             x="54"
             y="264.06"
             id="use267"
             width="432"
             height="293" />
        </g>
      </g>
      <g
         id="line2d16">
        <defs
           id="defs270">
          <path
             id="m20b58b2501143cb5e0a5e8f1ef6f1643"
             d="M 0,0 -4,0" />
        </defs>
        <g
           id="g273">
          <use
             style="fill:none;stroke:#000000;stroke-width:0.5;stroke-linecap:butt;stroke-linejoin:round"
             xlink:href="#m20b58b2501143cb5e0a5e8f1ef6f1643"
             x="388.79999"
             y="264.06"
             id="use275"
             width="432"
             height="293" />
        </g>
      </g>
      <g
         id="text9">
        <g
           style="fill:#000000"
           transform="matrix(0.12,0,0,0.12,36.796875,268.42719)"
           id="g278">
          <use
             xlink:href="#c_42baa63129a918535c52adb20d687ea7"
             id="use280"
             x="0"
             y="0"
             width="432"
             height="293" />
          <use
             xlink:href="#c_cc8d6d580d1b10c8632f7a42cd53db8a"
             x="63.623047"
             id="use282"
             y="0"
             width="432"
             height="293" />
        </g>
      </g>
    </g>
    <g
       id="ytick2">
      <g
         id="line2d17">
        <g
           id="g286">
          <use
             style="fill:none;stroke:#000000;stroke-width:0.5;stroke-linecap:butt;stroke-linejoin:round"
             xlink:href="#m3400efa6b1638b3fea9e19e898273957"
             x="54"
             y="234.72"
             id="use288"
             width="432"
             height="293" />
        </g>
      </g>
      <g
         id="line2d18">
        <g
           id="g291">
          <use
             style="fill:none;stroke:#000000;stroke-width:0.5;stroke-linecap:butt;stroke-linejoin:round"
             xlink:href="#m20b58b2501143cb5e0a5e8f1ef6f1643"
             x="388.79999"
             y="234.72"
             id="use293"
             width="432"
             height="293" />
        </g>
      </g>
      <g
         id="text10">
        <g
           style="fill:#000000"
           transform="matrix(0.12,0,0,0.12,36.859375,239.08719)"
           id="g296">
          <use
             xlink:href="#c_42baa63129a918535c52adb20d687ea7"
             id="use298"
             x="0"
             y="0"
             width="432"
             height="293" />
          <use
             xlink:href="#c_bef35738d52871942e50b9de9b122bab"
             x="63.623047"
             id="use300"
             y="0"
             width="432"
             height="293" />
        </g>
      </g>
    </g>
    <g
       id="ytick3">
      <g
         id="line2d19">
        <g
           id="g304">
          <use
             style="fill:none;stroke:#000000;stroke-width:0.5;stroke-linecap:butt;stroke-linejoin:round"
             xlink:href="#m3400efa6b1638b3fea9e19e898273957"
             x="54"
             y="205.38"
             id="use306"
             width="432"
             height="293" />
        </g>
      </g>
      <g
         id="line2d20">
        <g
           id="g309">
          <use
             style="fill:none;stroke:#000000;stroke-width:0.5;stroke-linecap:butt;stroke-linejoin:round"
             xlink:href="#m20b58b2501143cb5e0a5e8f1ef6f1643"
             x="388.79999"
             y="205.38"
             id="use311"
             width="432"
             height="293" />
        </g>
      </g>
      <g
         id="text11">
        <g
           style="fill:#000000"
           transform="matrix(0.12,0,0,0.12,36.390625,209.74719)"
           id="g314">
          <use
             xlink:href="#c_ed3f3ed3ebfbd18bcb9c012009a68ad1"
             id="use316"
             x="0"
             y="0"
             width="432"
             height="293" />
          <use
             xlink:href="#c_7a2040fe3b94fcd41d0a72c84e93b115"
             x="63.623047"
             id="use318"
             y="0"
             width="432"
             height="293" />
        </g>
      </g>
    </g>
    <g
       id="ytick4">
      <g
         id="line2d21">
        <g
           id="g322">
          <use
             style="fill:none;stroke:#000000;stroke-width:0.5;stroke-linecap:butt;stroke-linejoin:round"
             xlink:href="#m3400efa6b1638b3fea9e19e898273957"
             x="54"
             y="176.03999"
             id="use324"
             width="432"
             height="293" />
        </g>
      </g>
      <g
         id="line2d22">
        <g
           id="g327">
          <use
             style="fill:none;stroke:#000000;stroke-width:0.5;stroke-linecap:butt;stroke-linejoin:round"
             xlink:href="#m20b58b2501143cb5e0a5e8f1ef6f1643"
             x="388.79999"
             y="176.03999"
             id="use329"
             width="432"
             height="293" />
        </g>
      </g>
      <g
         id="text12">
        <g
           style="fill:#000000"
           transform="matrix(0.12,0,0,0.12,36.796875,180.49312)"
           id="g332">
          <use
             xlink:href="#c_ed3f3ed3ebfbd18bcb9c012009a68ad1"
             id="use334"
             x="0"
             y="0"
             width="432"
             height="293" />
          <use
             xlink:href="#c_ed3f3ed3ebfbd18bcb9c012009a68ad1"
             x="63.623047"
             id="use336"
             y="0"
             width="432"
             height="293" />
        </g>
      </g>
    </g>
    <g
       id="ytick5">
      <g
         id="line2d23">
        <g
           id="g340">
          <use
             style="fill:none;stroke:#000000;stroke-width:0.5;stroke-linecap:butt;stroke-linejoin:round"
             xlink:href="#m3400efa6b1638b3fea9e19e898273957"
             x="54"
             y="146.7"
             id="use342"
             width="432"
             height="293" />
        </g>
      </g>
      <g
         id="line2d24">
        <g
           id="g345">
          <use
             style="fill:none;stroke:#000000;stroke-width:0.5;stroke-linecap:butt;stroke-linejoin:round"
             xlink:href="#m20b58b2501143cb5e0a5e8f1ef6f1643"
             x="388.79999"
             y="146.7"
             id="use347"
             width="432"
             height="293" />
        </g>
      </g>
      <g
         id="text13">
        <g
           style="fill:#000000"
           transform="matrix(0.12,0,0,0.12,36.265625,151.15312)"
           id="g350">
          <use
             xlink:href="#c_ed3f3ed3ebfbd18bcb9c012009a68ad1"
             id="use352"
             x="0"
             y="0"
             width="432"
             height="293" />
          <use
             xlink:href="#c_a0416418d96557a09b8c1332d34883ba"
             x="63.623047"
             id="use354"
             y="0"
             width="432"
             height="293" />
        </g>
      </g>
    </g>
    <g
       id="ytick6">
      <g
         id="line2d25">
        <g
           id="g358">
          <use
             style="fill:none;stroke:#000000;stroke-width:0.5;stroke-linecap:butt;stroke-linejoin:round"
             xlink:href="#m3400efa6b1638b3fea9e19e898273957"
             x="54"
             y="117.36"
             id="use360"
             width="432"
             height="293" />
        </g>
      </g>
      <g
         id="line2d26">
        <g
           id="g363">
          <use
             style="fill:none;stroke:#000000;stroke-width:0.5;stroke-linecap:butt;stroke-linejoin:round"
             xlink:href="#m20b58b2501143cb5e0a5e8f1ef6f1643"
             x="388.79999"
             y="117.36"
             id="use365"
             width="432"
             height="293" />
        </g>
      </g>
      <g
         id="text14">
        <g
           style="fill:#000000"
           transform="matrix(0.12,0,0,0.12,36.359375,121.72719)"
           id="g368">
          <use
             xlink:href="#c_ed3f3ed3ebfbd18bcb9c012009a68ad1"
             id="use370"
             x="0"
             y="0"
             width="432"
             height="293" />
          <use
             xlink:href="#c_cc8d6d580d1b10c8632f7a42cd53db8a"
             x="63.623047"
             id="use372"
             y="0"
             width="432"
             height="293" />
        </g>
      </g>
    </g>
    <g
       id="ytick7">
      <g
         id="line2d27">
        <g
           id="g376">
          <use
             style="fill:none;stroke:#000000;stroke-width:0.5;stroke-linecap:butt;stroke-linejoin:round"
             xlink:href="#m3400efa6b1638b3fea9e19e898273957"
             x="54"
             y="88.019997"
             id="use378"
             width="432"
             height="293" />
        </g>
      </g>
      <g
         id="line2d28">
        <g
           id="g381">
          <use
             style="fill:none;stroke:#000000;stroke-width:0.5;stroke-linecap:butt;stroke-linejoin:round"
             xlink:href="#m20b58b2501143cb5e0a5e8f1ef6f1643"
             x="388.79999"
             y="88.019997"
             id="use383"
             width="432"
             height="293" />
        </g>
      </g>
      <g
         id="text15">
        <g
           style="fill:#000000"
           transform="matrix(0.12,0,0,0.12,36.421875,92.387187)"
           id="g386">
          <use
             xlink:href="#c_ed3f3ed3ebfbd18bcb9c012009a68ad1"
             id="use388"
             x="0"
             y="0"
             width="432"
             height="293" />
          <use
             xlink:href="#c_bef35738d52871942e50b9de9b122bab"
             x="63.623047"
             id="use390"
             y="0"
             width="432"
             height="293" />
        </g>
      </g>
    </g>
    <g
       id="ytick8">
      <g
         id="line2d29">
        <g
           id="g394">
          <use
             style="fill:none;stroke:#000000;stroke-width:0.5;stroke-linecap:butt;stroke-linejoin:round"
             xlink:href="#m3400efa6b1638b3fea9e19e898273957"
             x="54"
             y="58.68"
             id="use396"
             width="432"
             height="293" />
        </g>
      </g>
      <g
         id="line2d30">
        <g
           id="g399">
          <use
             style="fill:none;stroke:#000000;stroke-width:0.5;stroke-linecap:butt;stroke-linejoin:round"
             xlink:href="#m20b58b2501143cb5e0a5e8f1ef6f1643"
             x="388.79999"
             y="58.68"
             id="use401"
             width="432"
             height="293" />
        </g>
      </g>
      <g
         id="text16">
        <defs
           id="defs404">
          <path
             id="c_3dcfa38a02242cb63ec6726c6e70be7a"
             d="M 40.578125,-39.3125 Q 47.65625,-37.796875 51.625,-33 q 3.984375,4.78125 3.984375,11.8125 0,10.78125 -7.421875,16.703125 -7.421875,5.90625 -21.09375,5.90625 -4.578125,0 -9.4375,-0.90625 -4.859375,-0.90625 -10.03125,-2.71875 l 0,-9.515625 q 4.09375,2.390625 8.96875,3.609375 4.890625,1.21875 10.21875,1.21875 9.265625,0 14.125,-3.65625 4.859375,-3.65625 4.859375,-10.640625 0,-6.453125 -4.515625,-10.078125 -4.515625,-3.640625 -12.5625,-3.640625 l -8.5,0 0,-8.109375 8.890625,0 q 7.265625,0 11.125,-2.90625 3.859375,-2.90625 3.859375,-8.375 0,-5.609375 -3.984375,-8.609375 -3.96875,-3.015625 -11.390625,-3.015625 -4.0625,0 -8.703125,0.890625 -4.640625,0.875 -10.203125,2.71875 l 0,-8.78125 q 5.625,-1.5625 10.53125,-2.34375 4.90625,-0.78125 9.25,-0.78125 11.234375,0 17.765625,5.109375 6.546875,5.09375 6.546875,13.78125 0,6.0625 -3.46875,10.234375 -3.46875,4.171875 -9.859375,5.78125" />
        </defs>
        <g
           style="fill:#000000"
           transform="matrix(0.12,0,0,0.12,36.4375,63.047188)"
           id="g407">
          <use
             xlink:href="#c_3dcfa38a02242cb63ec6726c6e70be7a"
             id="use409"
             x="0"
             y="0"
             width="432"
             height="293" />
          <use
             xlink:href="#c_7a2040fe3b94fcd41d0a72c84e93b115"
             x="63.623047"
             id="use411"
             y="0"
             width="432"
             height="293" />
        </g>
      </g>
    </g>
    <g
       id="ytick9">
      <g
         id="line2d31">
        <g
           id="g415">
          <use
             style="fill:none;stroke:#000000;stroke-width:0.5;stroke-linecap:butt;stroke-linejoin:round"
             xlink:href="#m3400efa6b1638b3fea9e19e898273957"
             x="54"
             y="29.34"
             id="use417"
             width="432"
             height="293" />
        </g>
      </g>
      <g
         id="line2d32">
        <g
           id="g420">
          <use
             style="fill:none;stroke:#000000;stroke-width:0.5;stroke-linecap:butt;stroke-linejoin:round"
             xlink:href="#m20b58b2501143cb5e0a5e8f1ef6f1643"
             x="388.79999"
             y="29.34"
             id="use422"
             width="432"
             height="293" />
        </g>
      </g>
      <g
         id="text17">
        <g
           style="fill:#000000"
           transform="matrix(0.12,0,0,0.12,36.84375,33.707187)"
           id="g425">
          <use
             xlink:href="#c_3dcfa38a02242cb63ec6726c6e70be7a"
             id="use427"
             x="0"
             y="0"
             width="432"
             height="293" />
          <use
             xlink:href="#c_ed3f3ed3ebfbd18bcb9c012009a68ad1"
             x="63.623047"
             id="use429"
             y="0"
             width="432"
             height="293" />
        </g>
      </g>
    </g>
    <g
       id="text18">
      <defs
         id="defs432">
        <path
           id="c_78ccf8fa08de3008282bc1d42ca8e52f"
           d="m 14.59375,-21.578125 q 0,6 2.3125,10.5625 2.328125,4.5625 6.75,7.140625 4.421875,2.5625 10.421875,2.5625 6.296875,0 12.125,-3.21875 5.84375,-3.234375 9.96875,-8.625 4.125,-5.40625 5.640625,-11.453125 0.203125,-0.59375 0.78125,-0.59375 l 1.21875,0 q 0.390625,0 0.640625,0.28125 0.25,0.265625 0.25,0.609375 0,0.09375 -0.109375,0.28125 -1.703125,6.9375 -6.609375,13.015625 -4.90625,6.078125 -11.75,9.65625 -6.828125,3.5625 -14.0625,3.5625 -7.8125,0 -14.015625,-3.515625 -6.1875,-3.515625 -9.640625,-9.765625 -3.4375,-6.25 -3.4375,-14.125 0,-8.390625 3.75,-16.609375 3.765625,-8.234375 10.109375,-14.65625 6.359375,-6.421875 14.484375,-10.234375 8.125,-3.8125 16.484375,-3.8125 3.3125,0 6.34375,1.015625 3.03125,1 5.609375,3.046875 2.59375,2.046875 4.25,4.734375 l 7.921875,-8.59375 q 0,-0.203125 0.484375,-0.203125 l 0.578125,0 q 0.390625,0 0.640625,0.34375 0.25,0.34375 0.25,0.6875 l -6.796875,27 q 0,0.6875 -0.78125,0.6875 l -1.796875,0 q -0.78125,0 -0.78125,-1.125 0.390625,-2.203125 0.390625,-5.265625 0,-4.890625 -1.671875,-9.203125 -1.65625,-4.328125 -5.15625,-6.96875 Q 55.90625,-67 50.875,-67 q -8.15625,0 -14.9375,4.109375 -6.78125,4.09375 -11.5,10.765625 -4.703125,6.671875 -7.28125,14.796875 -2.5625,8.125 -2.5625,15.75" />
        <path
           id="c_d385b7bbe58e08154ff387bfd902116e"
           d="m 6.203125,-8.109375 q 0,-1.46875 0.296875,-2.78125 l 7.21875,-28.703125 -10.5,0 q -1.015625,0 -1.015625,-1.328125 0.390625,-2.1875 1.3125,-2.1875 l 11.078125,0 4.015625,-16.3125 q 0.390625,-1.328125 1.5625,-2.25 1.171875,-0.921875 2.625,-0.921875 1.28125,0 2.125,0.765625 0.859375,0.75 0.859375,2.015625 0,0.296875 -0.03125,0.46875 -0.01563,0.15625 -0.0625,0.359375 l -4,15.875 10.296875,0 q 1.03125,0 1.03125,1.3125 -0.0625,0.25 -0.203125,0.84375 -0.140625,0.578125 -0.390625,0.96875 -0.25,0.390625 -0.734375,0.390625 l -10.890625,0 L 13.625,-10.6875 q -0.734375,2.828125 -0.734375,4.875 0,4.296875 2.9375,4.296875 4.390625,0 7.78125,-4.125 3.390625,-4.125 5.203125,-9.0625 0.390625,-0.578125 0.78125,-0.578125 l 1.21875,0 q 0.390625,0 0.625,0.265625 0.25,0.265625 0.25,0.609375 0,0.203125 -0.09375,0.296875 Q 29.390625,-8.0625 25.1875,-3.46875 21,1.125 15.578125,1.125 11.625,1.125 8.90625,-1.453125 6.203125,-4.046875 6.203125,-8.109375" />
        <path
           id="c_549d1e56d9cb6a58439be72e5e01b67d"
           d="m 23.1875,5.609375 0,-4.625 q -5.3125,0 -9.296875,-2.640625 Q 9.90625,-4.296875 7.75,-8.765625 q -2.140625,-4.46875 -2.140625,-9.640625 0,-1.953125 1.421875,-3.359375 1.421875,-1.421875 3.375,-1.421875 1.953125,0 3.359375,1.421875 1.421875,1.40625 1.421875,3.359375 0,1.953125 -1.421875,3.375 -1.40625,1.40625 -3.359375,1.40625 l -0.109375,0 q -0.671875,0 -1.015625,-0.09375 -0.09375,-0.04687 -0.171875,-0.0625 -0.078125,-0.03125 -0.125,-0.03125 0.6875,3.171875 2.8125,5.8125 2.125,2.625 5.140625,4.078125 3.03125,1.4375 6.25,1.4375 l 0,-29.203125 q -2.921875,-0.828125 -4.171875,-1.21875 -1.234375,-0.390625 -2.578125,-1.03125 -1.34375,-0.640625 -2.59375,-1.46875 -1.25,-0.828125 -2.65625,-2.1875 Q 5.609375,-43.265625 5.609375,-51.125 l 0,-0.09375 0,-0.09375 q 0,-3.671875 1.46875,-7.15625 1.46875,-3.5 4.109375,-6.328125 2.09375,-2.09375 5.5625,-3.84375 3.46875,-1.765625 6.4375,-1.765625 l 0,-4.59375 3.515625,0 0,4.484375 q 4.984375,0 9.03125,2.375 4.0625,2.375 6.296875,6.5 2.25,4.125 2.25,9.25 0,1.953125 -1.421875,3.375 -1.40625,1.40625 -3.359375,1.40625 -1.953125,0 -3.375,-1.40625 -1.40625,-1.421875 -1.40625,-3.375 0,-1.953125 1.40625,-3.359375 1.421875,-1.421875 3.375,-1.421875 l 0.09375,0 q 0.6875,0 0.984375,0.09375 l 0.25,0 Q 39.9375,-60.0625 37.78125,-62.25 q -2.140625,-2.203125 -5.09375,-3.421875 -2.953125,-1.21875 -5.984375,-1.21875 l 0,26.515625 q 4.109375,0.921875 6.6875,2.125 2.59375,1.1875 4.890625,3.53125 2.9375,2.9375 4.46875,6.875 1.53125,3.921875 1.53125,8.171875 l 0,0.1875 q 0,4 -1.4375,7.8125 -1.4375,3.8125 -4.125,6.6875 -2.4375,2.4375 -5.78125,4.203125 -3.34375,1.765625 -6.234375,1.765625 l 0,4.625 z m 3.515625,-8.09375 Q 30.078125,-2.9375 32.875,-5 q 2.8125,-2.078125 4.375,-5.203125 1.5625,-3.125 1.5625,-6.40625 0,-3.84375 -1.515625,-6.703125 -1.5,-2.859375 -4.21875,-4.765625 -2.703125,-1.90625 -6.375,-2.828125 z M 23.1875,-41.3125 l 0,-25.578125 q -3.0625,0.34375 -5.921875,2.125 -2.859375,1.78125 -4.53125,4.546875 -1.65625,2.75 -1.65625,6.015625 0,9.71875 12.109375,12.890625" />
      </defs>
      <g
         id="mathtext2">
        <g
           style="fill:#000000"
           transform="matrix(0,-1,1,0,31.265625,166.7)"
           id="g438">
          <use
             xlink:href="#c_78ccf8fa08de3008282bc1d42ca8e52f"
             transform="matrix(0.12,0,0,0.12,0,-3)"
             id="use440"
             x="0"
             y="0"
             width="432"
             height="293" />
          <use
             xlink:href="#c_bd2880cc926fc00b7f332ad1632b5ed2"
             transform="matrix(0.12,0,0,0.12,8.566406,-3)"
             id="use442"
             x="0"
             y="0"
             width="432"
             height="293" />
          <use
             xlink:href="#c_75c38898ea241ebcbd0918e2320a1d61"
             transform="matrix(0.12,0,0,0.12,14.373047,-3)"
             id="use444"
             x="0"
             y="0"
             width="432"
             height="293" />
          <use
             xlink:href="#c_d385b7bbe58e08154ff387bfd902116e"
             transform="matrix(0.12,0,0,0.12,19.986328,-3)"
             id="use446"
             x="0"
             y="0"
             width="432"
             height="293" />
          <use
             xlink:href="#c_06a7a4502300c60b4feec85758ecf628"
             transform="matrix(0.12,0,0,0.12,24.316406,-3)"
             id="use448"
             x="0"
             y="0"
             width="432"
             height="293" />
          <use
             xlink:href="#c_549d1e56d9cb6a58439be72e5e01b67d"
             transform="matrix(0.12,0,0,0.12,28.974609,-3)"
             id="use450"
             x="0"
             y="0"
             width="432"
             height="293" />
          <use
             xlink:href="#c_b865a8a4692360a5eaaff4ecf56eccf7"
             transform="matrix(0.12,0,0,0.12,34.974609,-3)"
             id="use452"
             x="0"
             y="0"
             width="432"
             height="293" />
        </g>
      </g>
    </g>
  </g>
  <g
     id="patch3">
    <path
       style="fill:none;stroke:#000000;stroke-width:1;stroke-linecap:square;stroke-linejoin:round"
       d="m 54,29.34 334.8,0"
       id="path455" />
  </g>
  <g
     id="patch4">
    <path
       style="fill:none;stroke:#000000;stroke-width:1;stroke-linecap:square;stroke-linejoin:round"
       d="m 388.8,264.06 0,-234.72"
       id="path458" />
  </g>
  <g
     id="patch5">
    <path
       style="fill:none;stroke:#000000;stroke-width:1;stroke-linecap:square;stroke-linejoin:round"
       d="m 54,264.06 334.8,0"
       id="path461" />
  </g>
  <g
     id="patch6">
    <path
       style="fill:none;stroke:#000000;stroke-width:1;stroke-linecap:square;stroke-linejoin:round"
       d="M 54,264.06 54,29.34"
       id="path464" />
  </g>
  <g
     id="patch7">
    <path
       id="path468"
       d="m 233.58812,82.35375 148.01188,0 0,-45.81375 -148.01188,0 0,45.81375 z"
       style="fill:#ffffff;stroke:#000000;stroke-width:1;stroke-linecap:square;stroke-linejoin:round" />
  </g>
  <g
     id="RegularPolyCollection2">
    <defs
       id="defs471">
      <path
         d="m 0,-5.046265 -4.370194,7.569398 8.740388,0 L 0,-5.046265"
         id="coll2_0_b2ad5bf8bf8b0a9ad3e7fb0934098499" />
      <path
         d="m 0,-6.383076 -5.527906,9.574614 11.055812,0 L 0,-6.383076"
         id="coll2_1_23dc64c08d627dc4ea64d09cba33bf03" />
      <path
         d="m 0,-3.191538 -2.763953,4.787307 5.527906,0 L 0,-3.191538"
         id="coll2_2_405c8fcbacc665ec3d74534a5de2222d" />
    </defs>
    <use
       height="293"
       width="432"
       id="use476"
       y="49.160625"
       x="243.66812"
       xlink:href="#coll2_0_b2ad5bf8bf8b0a9ad3e7fb0934098499"
       style="fill:#ff0000;stroke:#000000;stroke-width:1;stroke-linecap:butt;stroke-linejoin:round" />
    <use
       height="293"
       width="432"
       id="use478"
       y="47.900623"
       x="253.74812"
       xlink:href="#coll2_1_23dc64c08d627dc4ea64d09cba33bf03"
       style="fill:#ff0000;stroke:#000000;stroke-width:1;stroke-linecap:butt;stroke-linejoin:round" />
    <use
       height="293"
       width="432"
       id="use480"
       y="49.790627"
       x="263.82812"
       xlink:href="#coll2_2_405c8fcbacc665ec3d74534a5de2222d"
       style="fill:#ff0000;stroke:#000000;stroke-width:1;stroke-linecap:butt;stroke-linejoin:round" />
  </g>
  <g
     id="CircleCollection2">
    <defs
       id="defs525">
      <path
         d="m 0,4.618091 c 1.224732,0 2.399467,-0.486591 3.265483,-1.352608 C 4.1315,2.399467 4.618091,1.224732 4.618091,0 4.618091,-1.224732 4.1315,-2.399467 3.265483,-3.265483 2.399467,-4.1315 1.224732,-4.618091 0,-4.618091 c -1.224732,0 -2.399467,0.486591 -3.265483,1.352608 C -4.1315,-2.399467 -4.618091,-1.224732 -4.618091,0 c 0,1.224732 0.486591,2.399467 1.352608,3.265483 C -2.399467,4.1315 -1.224732,4.618091 0,4.618091 z"
         id="coll3_0_1a03e9e98c1ef19029ecb764f5d2d6a0" />
      <path
         d="m 0,5.698035 c 1.511137,0 2.960585,-0.60038 4.02912,-1.668915 C 5.097655,2.960585 5.698035,1.511137 5.698035,0 c 0,-1.511137 -0.60038,-2.960585 -1.668915,-4.02912 C 2.960585,-5.097655 1.511137,-5.698035 0,-5.698035 c -1.511137,0 -2.960585,0.60038 -4.02912,1.668915 -1.068535,1.068535 -1.668915,2.517983 -1.668915,4.02912 0,1.511137 0.60038,2.960585 1.668915,4.02912 C -2.960585,5.097655 -1.511137,5.698035 0,5.698035 z"
         id="coll3_1_54aa1fc8f1eee1130257d9345660428f" />
      <path
         d="m 0,3.191538 c 0.846406,0 1.658259,-0.33628 2.256758,-0.93478 C 2.855258,1.658259 3.191538,0.846406 3.191538,0 c 0,-0.846406 -0.33628,-1.658259 -0.93478,-2.256758 C 1.658259,-2.855258 0.846406,-3.191538 0,-3.191538 c -0.846406,0 -1.658259,0.33628 -2.256758,0.93478 -0.5985,0.598499 -0.93478,1.410352 -0.93478,2.256758 0,0.846406 0.33628,1.658259 0.93478,2.256758 0.598499,0.5985 1.410352,0.93478 2.256758,0.93478 z"
         id="coll3_2_663b93e0d41ee0faf29c64cf526305a4" />
    </defs>
    <use
       height="293"
       width="432"
       id="use530"
       y="69.907501"
       x="243.66812"
       xlink:href="#coll3_0_1a03e9e98c1ef19029ecb764f5d2d6a0"
       style="fill:#008000;stroke:#000000;stroke-width:1;stroke-linecap:butt;stroke-linejoin:round" />
    <use
       height="293"
       width="432"
       id="use532"
       y="68.647499"
       x="253.74812"
       xlink:href="#coll3_1_54aa1fc8f1eee1130257d9345660428f"
       style="fill:#008000;stroke:#000000;stroke-width:1;stroke-linecap:butt;stroke-linejoin:round" />
    <use
       height="293"
       width="432"
       id="use534"
       y="70.537498"
       x="263.82812"
       xlink:href="#coll3_2_663b93e0d41ee0faf29c64cf526305a4"
       style="fill:#008000;stroke:#000000;stroke-width:1;stroke-linecap:butt;stroke-linejoin:round" />
  </g>
  <g
     id="text20">
    <defs
       id="defs537">
      <path
         d="m 53.515625,-70.515625 0,9.625 q -5.609375,-2.6875 -10.59375,-4 -4.984375,-1.328125 -9.625,-1.328125 -8.046875,0 -12.421875,3.125 -4.375,3.125 -4.375,8.890625 0,4.84375 2.90625,7.3125 2.90625,2.453125 11.015625,3.96875 l 5.953125,1.21875 q 11.03125,2.109375 16.28125,7.40625 5.25,5.296875 5.25,14.171875 0,10.609375 -7.109375,16.078125 -7.09375,5.46875 -20.8125,5.46875 Q 24.8125,1.421875 18.96875,0.25 13.140625,-0.921875 6.890625,-3.21875 l 0,-10.15625 q 6,3.359375 11.765625,5.078125 5.765625,1.703125 11.328125,1.703125 8.4375,0 13.03125,-3.3125 4.59375,-3.328125 4.59375,-9.484375 0,-5.359375 -3.296875,-8.390625 Q 41.015625,-30.8125 33.5,-32.328125 L 27.484375,-33.5 q -11.03125,-2.1875 -15.96875,-6.875 -4.921875,-4.6875 -4.921875,-13.046875 0,-9.671875 6.8125,-15.234375 6.8125,-5.5625 18.765625,-5.5625 5.140625,0 10.453125,0.9375 5.328125,0.921875 10.890625,2.765625"
         id="c_b672e4bee30772019085dff1098f516d" />
      <path
         d="m 9.421875,-54.6875 8.984375,0 0,54.6875 -8.984375,0 z m 0,-21.296875 8.984375,0 0,11.390625 -8.984375,0 z"
         id="c_6a63bda47b2f3da1cec6aadd80692cfe" />
      <path
         d="m 54.890625,-33.015625 0,33.015625 -8.984375,0 0,-32.71875 q 0,-7.765625 -3.03125,-11.609375 -3.03125,-3.859375 -9.078125,-3.859375 -7.28125,0 -11.484375,4.640625 -4.203125,4.625 -4.203125,12.640625 l 0,30.90625 -9.03125,0 0,-54.6875 9.03125,0 0,8.5 q 3.234375,-4.9375 7.59375,-7.375 4.375,-2.4375 10.09375,-2.4375 9.421875,0 14.25,5.828125 4.84375,5.828125 4.84375,17.15625"
         id="c_fe791a90f5471e2ab20a5ed41a7fa451" />
      <path
         d=""
         id="c_d41d8cd98f00b204e9800998ecf8427e" />
    </defs>
    <g
       id="g543"
       transform="matrix(0.144,0,0,0.144,279.66812,73.6875)"
       style="fill:#000000">
      <use
         height="293"
         width="432"
         y="0"
         x="0"
         id="use545"
         xlink:href="#c_b672e4bee30772019085dff1098f516d" />
      <use
         height="293"
         width="432"
         y="0"
         id="use547"
         x="63.476562"
         xlink:href="#c_6a63bda47b2f3da1cec6aadd80692cfe" />
      <use
         height="293"
         width="432"
         y="0"
         id="use549"
         x="91.259766"
         xlink:href="#c_fe791a90f5471e2ab20a5ed41a7fa451" />
      <path
         id="use551"
         d="m 200.04492,-27.984375 q 0,-9.765625 -4.03125,-15.125 -4.01562,-5.375 -11.29687,-5.375 -7.21875,0 -11.25,5.375 -4.03125,5.359375 -4.03125,15.125 0,9.71875 4.03125,15.09375 4.03125,5.375 11.25,5.375 7.28125,0 11.29687,-5.375 4.03125,-5.375 4.03125,-15.09375 m 8.98438,21.203125 q 0,13.953125 -6.20313,20.765625 -6.1875,6.8125 -18.98437,6.8125 -4.73438,0 -8.9375,-0.703125 -4.20313,-0.703125 -8.15625,-2.171875 l 0,-8.734375 q 3.95312,2.140625 7.8125,3.15625 3.85937,1.03125 7.85937,1.03125 8.84375,0 13.23438,-4.609375 4.39062,-4.609375 4.39062,-13.9375 l 0,-4.453125 q -2.78125,4.84375 -7.125,7.234375 Q 188.57617,0 182.51367,0 172.4668,0 166.31055,-7.65625 q -6.15625,-7.671875 -6.15625,-20.328125 0,-12.6875 6.15625,-20.34375 Q 172.4668,-56 182.51367,-56 q 6.0625,0 10.40625,2.390625 4.34375,2.390625 7.125,7.21875 l 0,-8.296875 8.98438,0 z" />
      <path
         id="use553"
         d="m 227.53711,-75.984375 8.98437,0 0,75.984375 -8.98437,0 z" />
      <path
         id="use555"
         d="m 302.10156,-29.59375 0,4.390625 -41.3125,0 q 0.59375,9.28125 5.59375,14.140625 5,4.859375 13.9375,4.859375 5.17188,0 10.03125,-1.265625 4.85938,-1.265625 9.65625,-3.8125 l 0,8.5 q -4.84375,2.046875 -9.92187,3.125 -5.07813,1.078125 -10.29688,1.078125 -13.09375,0 -20.73437,-7.609375 -7.64063,-7.625 -7.64063,-20.625 0,-13.421875 7.25,-21.296875 Q 265.91406,-56 278.22656,-56 q 11.03125,0 17.45313,7.109375 6.42187,7.09375 6.42187,19.296875 m -8.98437,-2.640625 q -0.0937,-7.359375 -4.125,-11.75 -4.03125,-4.40625 -10.67188,-4.40625 -7.51562,0 -12.03125,4.25 -4.51562,4.25 -5.20312,11.96875 z" />
      <use
         height="293"
         width="432"
         y="0"
         id="use557"
         x="307.42188"
         xlink:href="#c_d41d8cd98f00b204e9800998ecf8427e" />
      <use
         height="293"
         width="432"
         y="0"
         id="use559"
         x="339.20898"
         xlink:href="#c_b672e4bee30772019085dff1098f516d" />
      <path
         id="use561"
         d="m 420.99805,-70.21875 0,15.53125 18.5,0 0,6.984375 -18.5,0 0,29.6875 q 0,6.6875 1.82812,8.59375 1.82813,1.90625 7.45313,1.90625 l 9.21875,0 0,7.515625 -9.21875,0 q -10.40625,0 -14.35938,-3.875 -3.95312,-3.890625 -3.95312,-14.140625 l 0,-29.6875 -6.59375,0 0,-6.984375 6.59375,0 0,-15.53125 z" />
      <path
         id="use563"
         d="m 476.17578,-27.484375 q -10.89062,0 -15.09375,2.484375 -4.20312,2.484375 -4.20312,8.5 0,4.78125 3.15625,7.59375 3.15625,2.796875 8.5625,2.796875 7.48437,0 12,-5.296875 4.51562,-5.296875 4.51562,-14.078125 l 0,-2 z m 17.92188,-3.71875 0,31.203125 -8.98438,0 0,-8.296875 q -3.07812,4.96875 -7.67187,7.34375 -4.59375,2.375 -11.23438,2.375 -8.39062,0 -13.35937,-4.71875 -4.95313,-4.71875 -4.95313,-12.625 0,-9.21875 6.17188,-13.90625 6.1875,-4.6875 18.4375,-4.6875 l 12.60937,0 0,-0.890625 q 0,-6.203125 -4.07812,-9.59375 -4.07813,-3.390625 -11.45313,-3.390625 -4.6875,0 -9.14062,1.125 -4.4375,1.125 -8.53125,3.375 l 0,-8.3125 q 4.92187,-1.90625 9.5625,-2.84375 Q 466.11328,-56 470.50391,-56 q 11.875,0 17.73437,6.15625 5.85938,6.140625 5.85938,18.640625" />
      <path
         id="use565"
         d="m 548.58008,-27.984375 q 0,-9.765625 -4.03125,-15.125 -4.01563,-5.375 -11.29688,-5.375 -7.21875,0 -11.25,5.375 -4.03125,5.359375 -4.03125,15.125 0,9.71875 4.03125,15.09375 4.03125,5.375 11.25,5.375 7.28125,0 11.29688,-5.375 4.03125,-5.375 4.03125,-15.09375 m 8.98437,21.203125 q 0,13.953125 -6.20312,20.765625 -6.1875,6.8125 -18.98438,6.8125 -4.73437,0 -8.9375,-0.703125 -4.20312,-0.703125 -8.15625,-2.171875 l 0,-8.734375 q 3.95313,2.140625 7.8125,3.15625 3.85938,1.03125 7.85938,1.03125 8.84375,0 13.23437,-4.609375 4.39063,-4.609375 4.39063,-13.9375 l 0,-4.453125 q -2.78125,4.84375 -7.125,7.234375 Q 537.11133,0 531.04883,0 521.00195,0 514.8457,-7.65625 q -6.15625,-7.671875 -6.15625,-20.328125 0,-12.6875 6.15625,-20.34375 Q 521.00195,-56 531.04883,-56 q 6.0625,0 10.40625,2.390625 4.34375,2.390625 7.125,7.21875 l 0,-8.296875 8.98437,0 z" />
      <path
         id="use567"
         d="m 622.85352,-29.59375 0,4.390625 -41.3125,0 q 0.59375,9.28125 5.59375,14.140625 5,4.859375 13.9375,4.859375 5.17187,0 10.03125,-1.265625 4.85937,-1.265625 9.65625,-3.8125 l 0,8.5 q -4.84375,2.046875 -9.92188,3.125 -5.07812,1.078125 -10.29687,1.078125 -13.09375,0 -20.73438,-7.609375 -7.64062,-7.625 -7.64062,-20.625 0,-13.421875 7.25,-21.296875 Q 586.66602,-56 598.97852,-56 q 11.03125,0 17.45312,7.109375 6.42188,7.09375 6.42188,19.296875 m -8.98438,-2.640625 q -0.0937,-7.359375 -4.125,-11.75 -4.03125,-4.40625 -10.67187,-4.40625 -7.51563,0 -12.03125,4.25 -4.51563,4.25 -5.20313,11.96875 z" />
    </g>
  </g>
  <text
     xml:space="preserve"
     style="font-size:14.39999962px;font-style:normal;font-weight:normal;fill:#000000;fill-opacity:1;stroke:none;font-family:Arial;-inkscape-font-specification:Arial"
     x="287.25488"
     y="52.854893"
     id="text3956"><tspan
       sodipodi:role="line"
       id="tspan3958"
       x="287.25488"
       y="52.854893">Two Stages</tspan></text>
  <path
     style="fill:none;stroke:#000000;stroke-width:0.79120000000000001;stroke-linecap:butt;stroke-linejoin:miter;stroke-opacity:1;marker-end:url(#Arrow2Lend);stroke-miterlimit:4;stroke-dasharray:none"
     d="m 237.84247,143.60913 c 69.89242,-5.62797 94.34162,40.58671 97.10132,96.54055"
     id="path5571" />
  <text
     id="text4885"
     y="127.51488"
     x="294.53488"
     style="font-size:12.80000019px;font-style:normal;font-weight:normal;fill:#000000;fill-opacity:1;stroke:none;font-family:Book Antiqua;-inkscape-font-specification:Book Antiqua"
     xml:space="preserve"><tspan
       y="127.51488"
       x="294.53488"
       id="tspan4887"
       sodipodi:role="line">Losses +10%</tspan></text>
  <text
     xml:space="preserve"
     style="font-size:12.80000019px;font-style:normal;font-weight:normal;fill:#000000;fill-opacity:1;stroke:none;font-family:Book Antiqua;-inkscape-font-specification:Book Antiqua"
     x="294.34113"
     y="140.1541"
     id="text6314"><tspan
       sodipodi:role="line"
       id="tspan6316"
       x="294.34113"
       y="140.1541">Cost      -30%</tspan></text>
  <text
     id="text6318"
     y="151.35414"
     x="294.60989"
     style="font-size:12.80000019px;font-style:normal;font-weight:normal;fill:#000000;fill-opacity:1;stroke:none;font-family:Book Antiqua;-inkscape-font-specification:Book Antiqua"
     xml:space="preserve"><tspan
       y="151.35414"
       x="294.60989"
       id="tspan6320"
       sodipodi:role="line">Area   +0.5%</tspan></text>
  <text
     xml:space="preserve"
     style="font-size:12.80000019px;font-style:normal;font-weight:normal;fill:#000000;fill-opacity:1;stroke:none;font-family:Book Antiqua;-inkscape-font-specification:Book Antiqua"
     x="77.975891"
     y="126.8947"
     id="text4836"><tspan
       sodipodi:role="line"
       id="tspan4838"
       x="77.975891"
       y="126.8947">Area +0.1%</tspan></text>
  <text
     id="text4885-17"
     y="103.92072"
     x="77.900894"
     style="font-size:12.80000019px;font-style:normal;font-weight:normal;fill:#000000;fill-opacity:1;stroke:none;font-family:Book Antiqua;-inkscape-font-specification:Book Antiqua"
     xml:space="preserve"><tspan
       y="103.92072"
       x="77.900894"
       id="tspan4887-4"
       sodipodi:role="line">Losses  -6%</tspan></text>
  <text
     id="text4885-1"
     y="115.66559"
     x="77.707138"
     style="font-size:12.80000019px;font-style:normal;font-weight:normal;fill:#000000;fill-opacity:1;stroke:none;font-family:Book Antiqua;-inkscape-font-specification:Book Antiqua"
     xml:space="preserve"><tspan
       y="115.66559"
       x="77.707138"
       id="tspan4887-7"
       sodipodi:role="line">Cost    -13%</tspan></text>
  <path
     style="fill:none;stroke:#000000;stroke-width:1px;stroke-linecap:butt;stroke-linejoin:miter;stroke-opacity:1;marker-end:url(#Arrow2Lend)"
     d="m 226.47867,117.42814 c -32.59646,11.81144 -42.91018,33.9236 -54.33457,60.42817"
     id="path3173"
     transform="scale(0.8,0.8)" />
</svg>
