<?xml version="1.0" encoding="UTF-8" standalone="no"?>
<!-- Created with Inkscape (http://www.inkscape.org/) -->

<svg
   xmlns:dc="http://purl.org/dc/elements/1.1/"
   xmlns:cc="http://creativecommons.org/ns#"
   xmlns:rdf="http://www.w3.org/1999/02/22-rdf-syntax-ns#"
   xmlns:svg="http://www.w3.org/2000/svg"
   xmlns="http://www.w3.org/2000/svg"
   xmlns:sodipodi="http://sodipodi.sourceforge.net/DTD/sodipodi-0.dtd"
   xmlns:inkscape="http://www.inkscape.org/namespaces/inkscape"
   width="493.965"
   height="82.75634"
   id="svg4534"
   version="1.1"
   inkscape:version="0.48.4 r9939"
   sodipodi:docname="gp_mutation.svg">
  <defs
     id="defs4536">
    <linearGradient
       id="linearGradient3698">
      <stop
         style="stop-color:#e10000;stop-opacity:1;"
         offset="0"
         id="stop3700" />
      <stop
         style="stop-color:#000000;stop-opacity:0;"
         offset="1"
         id="stop3702" />
    </linearGradient>
    <inkscape:perspective
       sodipodi:type="inkscape:persp3d"
       inkscape:vp_x="0 : 526.18109 : 1"
       inkscape:vp_y="0 : 1000 : 0"
       inkscape:vp_z="744.09448 : 526.18109 : 1"
       inkscape:persp3d-origin="372.04724 : 350.78739 : 1"
       id="perspective4542" />
    <inkscape:perspective
       id="perspective4461"
       inkscape:persp3d-origin="0.5 : 0.33333333 : 1"
       inkscape:vp_z="1 : 0.5 : 1"
       inkscape:vp_y="0 : 1000 : 0"
       inkscape:vp_x="0 : 0.5 : 1"
       sodipodi:type="inkscape:persp3d" />
    <inkscape:perspective
       id="perspective4729"
       inkscape:persp3d-origin="0.5 : 0.33333333 : 1"
       inkscape:vp_z="1 : 0.5 : 1"
       inkscape:vp_y="0 : 1000 : 0"
       inkscape:vp_x="0 : 0.5 : 1"
       sodipodi:type="inkscape:persp3d" />
    <inkscape:perspective
       id="perspective4859"
       inkscape:persp3d-origin="0.5 : 0.33333333 : 1"
       inkscape:vp_z="1 : 0.5 : 1"
       inkscape:vp_y="0 : 1000 : 0"
       inkscape:vp_x="0 : 0.5 : 1"
       sodipodi:type="inkscape:persp3d" />
    <inkscape:perspective
       id="perspective4965"
       inkscape:persp3d-origin="0.5 : 0.33333333 : 1"
       inkscape:vp_z="1 : 0.5 : 1"
       inkscape:vp_y="0 : 1000 : 0"
       inkscape:vp_x="0 : 0.5 : 1"
       sodipodi:type="inkscape:persp3d" />
    <inkscape:perspective
       id="perspective5048"
       inkscape:persp3d-origin="0.5 : 0.33333333 : 1"
       inkscape:vp_z="1 : 0.5 : 1"
       inkscape:vp_y="0 : 1000 : 0"
       inkscape:vp_x="0 : 0.5 : 1"
       sodipodi:type="inkscape:persp3d" />
    <inkscape:perspective
       id="perspective5111"
       inkscape:persp3d-origin="0.5 : 0.33333333 : 1"
       inkscape:vp_z="1 : 0.5 : 1"
       inkscape:vp_y="0 : 1000 : 0"
       inkscape:vp_x="0 : 0.5 : 1"
       sodipodi:type="inkscape:persp3d" />
    <inkscape:perspective
       id="perspective5178"
       inkscape:persp3d-origin="0.5 : 0.33333333 : 1"
       inkscape:vp_z="1 : 0.5 : 1"
       inkscape:vp_y="0 : 1000 : 0"
       inkscape:vp_x="0 : 0.5 : 1"
       sodipodi:type="inkscape:persp3d" />
    <inkscape:perspective
       id="perspective5268"
       inkscape:persp3d-origin="0.5 : 0.33333333 : 1"
       inkscape:vp_z="1 : 0.5 : 1"
       inkscape:vp_y="0 : 1000 : 0"
       inkscape:vp_x="0 : 0.5 : 1"
       sodipodi:type="inkscape:persp3d" />
    <inkscape:perspective
       id="perspective5332"
       inkscape:persp3d-origin="0.5 : 0.33333333 : 1"
       inkscape:vp_z="1 : 0.5 : 1"
       inkscape:vp_y="0 : 1000 : 0"
       inkscape:vp_x="0 : 0.5 : 1"
       sodipodi:type="inkscape:persp3d" />
    <inkscape:perspective
       id="perspective5426"
       inkscape:persp3d-origin="0.5 : 0.33333333 : 1"
       inkscape:vp_z="1 : 0.5 : 1"
       inkscape:vp_y="0 : 1000 : 0"
       inkscape:vp_x="0 : 0.5 : 1"
       sodipodi:type="inkscape:persp3d" />
    <inkscape:perspective
       id="perspective5451"
       inkscape:persp3d-origin="0.5 : 0.33333333 : 1"
       inkscape:vp_z="1 : 0.5 : 1"
       inkscape:vp_y="0 : 1000 : 0"
       inkscape:vp_x="0 : 0.5 : 1"
       sodipodi:type="inkscape:persp3d" />
    <inkscape:perspective
       id="perspective5451-3"
       inkscape:persp3d-origin="0.5 : 0.33333333 : 1"
       inkscape:vp_z="1 : 0.5 : 1"
       inkscape:vp_y="0 : 1000 : 0"
       inkscape:vp_x="0 : 0.5 : 1"
       sodipodi:type="inkscape:persp3d" />
    <inkscape:perspective
       id="perspective5451-9"
       inkscape:persp3d-origin="0.5 : 0.33333333 : 1"
       inkscape:vp_z="1 : 0.5 : 1"
       inkscape:vp_y="0 : 1000 : 0"
       inkscape:vp_x="0 : 0.5 : 1"
       sodipodi:type="inkscape:persp3d" />
    <inkscape:perspective
       id="perspective6036"
       inkscape:persp3d-origin="0.5 : 0.33333333 : 1"
       inkscape:vp_z="1 : 0.5 : 1"
       inkscape:vp_y="0 : 1000 : 0"
       inkscape:vp_x="0 : 0.5 : 1"
       sodipodi:type="inkscape:persp3d" />
    <inkscape:perspective
       id="perspective6215"
       inkscape:persp3d-origin="0.5 : 0.33333333 : 1"
       inkscape:vp_z="1 : 0.5 : 1"
       inkscape:vp_y="0 : 1000 : 0"
       inkscape:vp_x="0 : 0.5 : 1"
       sodipodi:type="inkscape:persp3d" />
  </defs>
  <sodipodi:namedview
     id="base"
     pagecolor="#ffffff"
     bordercolor="#666666"
     borderopacity="1.0"
     inkscape:pageopacity="0.0"
     inkscape:pageshadow="2"
     inkscape:zoom="0.98994949"
     inkscape:cx="634.29944"
     inkscape:cy="-87.290696"
     inkscape:document-units="px"
     inkscape:current-layer="layer1"
     showgrid="false"
     inkscape:window-width="1345"
     inkscape:window-height="781"
     inkscape:window-x="150"
     inkscape:window-y="150"
     inkscape:window-maximized="0"
     fit-margin-top="0"
     fit-margin-left="0"
     fit-margin-right="0"
     fit-margin-bottom="0">
    <inkscape:grid
       type="xygrid"
       id="grid2922"
       empspacing="5"
       visible="true"
       enabled="true"
       snapvisiblegridlinesonly="true"
       originx="-118.58148px"
       originy="-877.8696px" />
  </sodipodi:namedview>
  <metadata
     id="metadata4539">
    <rdf:RDF>
      <cc:Work
         rdf:about="">
        <dc:format>image/svg+xml</dc:format>
        <dc:type
           rdf:resource="http://purl.org/dc/dcmitype/StillImage" />
        <dc:title />
      </cc:Work>
    </rdf:RDF>
  </metadata>
  <g
     inkscape:label="Layer 1"
     inkscape:groupmode="layer"
     id="layer1"
     transform="translate(-118.58148,-91.736249)">
    <g
       id="g2923"
       transform="matrix(0.93678382,0,0,0.88235862,7.495698,10.793009)">
      <path
         transform="matrix(0.65318173,0,0,0.65318173,2.5050025,-92.240092)"
         d="m 250,302.36218 c 0,5.52285 -4.47715,10 -10,10 -5.52285,0 -10,-4.47715 -10,-10 0,-5.52284 4.47715,-10 10,-10 5.52285,0 10,4.47716 10,10 z"
         sodipodi:ry="10"
         sodipodi:rx="10"
         sodipodi:cy="302.36218"
         sodipodi:cx="240"
         id="path3199"
         style="fill:#9fb8b8;fill-opacity:0.55294118;stroke:#620003;stroke-width:1;stroke-linejoin:miter;stroke-miterlimit:4;stroke-opacity:1;stroke-dasharray:none;stroke-dashoffset:0"
         sodipodi:type="arc" />
      <path
         transform="matrix(0.65318173,0,0,0.65318173,-13.847696,-72.927651)"
         d="m 250,302.36218 c 0,5.52285 -4.47715,10 -10,10 -5.52285,0 -10,-4.47715 -10,-10 0,-5.52284 4.47715,-10 10,-10 5.52285,0 10,4.47716 10,10 z"
         sodipodi:ry="10"
         sodipodi:rx="10"
         sodipodi:cy="302.36218"
         sodipodi:cx="240"
         id="path3199-4"
         style="fill:#9fb8b8;fill-opacity:0.55294118;stroke:#620003;stroke-width:1;stroke-linejoin:miter;stroke-miterlimit:4;stroke-opacity:1;stroke-dasharray:none;stroke-dashoffset:0"
         sodipodi:type="arc" />
      <path
         transform="matrix(0.65318173,0,0,0.65318173,-23.744895,-53.793065)"
         d="m 250,302.36218 c 0,5.52285 -4.47715,10 -10,10 -5.52285,0 -10,-4.47715 -10,-10 0,-5.52284 4.47715,-10 10,-10 5.52285,0 10,4.47716 10,10 z"
         sodipodi:ry="10"
         sodipodi:rx="10"
         sodipodi:cy="302.36218"
         sodipodi:cx="240"
         id="path3199-8"
         style="fill:#9fb8b8;fill-opacity:0.55294118;stroke:#620003;stroke-width:1;stroke-linejoin:miter;stroke-miterlimit:4;stroke-opacity:1;stroke-dasharray:none;stroke-dashoffset:0"
         sodipodi:type="arc" />
      <path
         transform="matrix(0.65318173,0,0,0.65318173,-2.6308675,-53.463162)"
         d="m 250,302.36218 c 0,5.52285 -4.47715,10 -10,10 -5.52285,0 -10,-4.47715 -10,-10 0,-5.52284 4.47715,-10 10,-10 5.52285,0 10,4.47716 10,10 z"
         sodipodi:ry="10"
         sodipodi:rx="10"
         sodipodi:cy="302.36218"
         sodipodi:cx="240"
         id="path3199-2"
         style="fill:#9fb8b8;fill-opacity:0.55294118;stroke:#620003;stroke-width:1;stroke-linejoin:miter;stroke-miterlimit:4;stroke-opacity:1;stroke-dasharray:none;stroke-dashoffset:0"
         sodipodi:type="arc" />
      <path
         transform="matrix(0.65318173,0,0,0.65318173,-31.332744,-34.658491)"
         d="m 250,302.36218 c 0,5.52285 -4.47715,10 -10,10 -5.52285,0 -10,-4.47715 -10,-10 0,-5.52284 4.47715,-10 10,-10 5.52285,0 10,4.47716 10,10 z"
         sodipodi:ry="10"
         sodipodi:rx="10"
         sodipodi:cy="302.36218"
         sodipodi:cx="240"
         id="path3199-7"
         style="fill:#9fb8b8;fill-opacity:0.55294118;stroke:#620003;stroke-width:1;stroke-linejoin:miter;stroke-miterlimit:4;stroke-opacity:1;stroke-dasharray:none;stroke-dashoffset:0"
         sodipodi:type="arc" />
      <path
         transform="matrix(0.65318173,0,0,0.65318173,-17.14676,-35.648205)"
         d="m 250,302.36218 c 0,5.52285 -4.47715,10 -10,10 -5.52285,0 -10,-4.47715 -10,-10 0,-5.52284 4.47715,-10 10,-10 5.52285,0 10,4.47716 10,10 z"
         sodipodi:ry="10"
         sodipodi:rx="10"
         sodipodi:cy="302.36218"
         sodipodi:cx="240"
         id="path3199-52"
         style="fill:#9fb8b8;fill-opacity:0.55294118;stroke:#620003;stroke-width:1;stroke-linejoin:miter;stroke-miterlimit:4;stroke-opacity:1;stroke-dasharray:none;stroke-dashoffset:0"
         sodipodi:type="arc" />
      <path
         sodipodi:nodetypes="cc"
         id="path3234"
         d="m 155.12246,110.05391 -7.58785,8.57757"
         style="fill:none;stroke:#4e1e95;stroke-width:0.65318173px;stroke-linecap:butt;stroke-linejoin:miter;stroke-opacity:1"
         inkscape:connector-curvature="0" />
      <path
         sodipodi:nodetypes="cc"
         id="path3234-3"
         d="m 163.04022,110.38382 7.58785,8.90748"
         style="fill:none;stroke:#4e1e95;stroke-width:0.65318173px;stroke-linecap:butt;stroke-linejoin:miter;stroke-opacity:1"
         inkscape:connector-curvature="0" />
      <path
         sodipodi:nodetypes="cc"
         id="path3234-3-1"
         d="m 146.21498,129.84831 4.28879,8.57757"
         style="fill:none;stroke:#4e1e95;stroke-width:0.65318173px;stroke-linecap:butt;stroke-linejoin:miter;stroke-opacity:1"
         inkscape:connector-curvature="0" />
      <path
         sodipodi:nodetypes="cc"
         id="path3234-3-3"
         d="m 139.61685,130.34317 -3.79392,7.25795"
         style="fill:none;stroke:#4e1e95;stroke-width:0.65318173px;stroke-linecap:butt;stroke-linejoin:miter;stroke-opacity:1"
         inkscape:connector-curvature="0" />
      <path
         sodipodi:nodetypes="cc"
         id="path3234-3-4"
         d="m 134.99816,149.97261 1.97944,5.60841"
         style="fill:none;stroke:#4e1e95;stroke-width:0.65318173px;stroke-linecap:butt;stroke-linejoin:miter;stroke-opacity:1"
         inkscape:connector-curvature="0" />
      <path
         sodipodi:nodetypes="cc"
         id="path3234-3-13"
         d="m 129.88461,149.47775 -2.4743,6.92804"
         style="fill:none;stroke:#4e1e95;stroke-width:0.65318173px;stroke-linecap:butt;stroke-linejoin:miter;stroke-opacity:1"
         inkscape:connector-curvature="0" />
      <path
         transform="matrix(0.65318173,0,0,0.65318173,18.153239,-72.92765)"
         d="m 250,302.36218 c 0,5.52285 -4.47715,10 -10,10 -5.52285,0 -10,-4.47715 -10,-10 0,-5.52284 4.47715,-10 10,-10 5.52285,0 10,4.47716 10,10 z"
         sodipodi:ry="10"
         sodipodi:rx="10"
         sodipodi:cy="302.36218"
         sodipodi:cx="240"
         id="path3199-9"
         style="fill:#9fb8b8;fill-opacity:0.55294118;stroke:#620003;stroke-width:1;stroke-linejoin:miter;stroke-miterlimit:4;stroke-opacity:1;stroke-dasharray:none;stroke-dashoffset:0"
         sodipodi:type="arc" />
      <path
         sodipodi:nodetypes="cc"
         id="path3234-3-28"
         d="m 252.25817,130.51455 -2.82128,6.4465"
         style="fill:none;stroke:#4e1e95;stroke-width:0.6525048px;stroke-linecap:butt;stroke-linejoin:miter;stroke-opacity:1"
         inkscape:connector-curvature="0" />
      <path
         sodipodi:nodetypes="cc"
         id="path3234-3-0"
         d="m 257.01688,130.21325 2.72475,6.67955"
         style="fill:none;stroke:#4e1e95;stroke-width:0.6525048px;stroke-linecap:butt;stroke-linejoin:miter;stroke-opacity:1"
         inkscape:connector-curvature="0" />
      <path
         transform="matrix(0.65250486,0,0,0.65250486,97.963964,-73.039963)"
         d="m 250,302.36218 c 0,5.52285 -4.47715,10 -10,10 -5.52285,0 -10,-4.47715 -10,-10 0,-5.52284 4.47715,-10 10,-10 5.52285,0 10,4.47716 10,10 z"
         sodipodi:ry="10"
         sodipodi:rx="10"
         sodipodi:cy="302.36218"
         sodipodi:cx="240"
         id="path3199-6-5"
         style="fill:#506c6c;fill-opacity:0.55294118;stroke:#00850f;stroke-width:1;stroke-linejoin:miter;stroke-miterlimit:4;stroke-opacity:1;stroke-dasharray:none;stroke-dashoffset:0"
         sodipodi:type="arc" />
      <path
         transform="matrix(0.65250486,0,0,0.65250486,105.21439,-54.08999)"
         d="m 250,302.36218 c 0,5.52285 -4.47715,10 -10,10 -5.52285,0 -10,-4.47715 -10,-10 0,-5.52284 4.47715,-10 10,-10 5.52285,0 10,4.47716 10,10 z"
         sodipodi:ry="10"
         sodipodi:rx="10"
         sodipodi:cy="302.36218"
         sodipodi:cx="240"
         id="path3199-6-9"
         style="fill:#506c6c;fill-opacity:0.55294118;stroke:#00850f;stroke-width:1;stroke-linejoin:miter;stroke-miterlimit:4;stroke-opacity:1;stroke-dasharray:none;stroke-dashoffset:0"
         sodipodi:type="arc" />
      <path
         transform="matrix(0.65250486,0,0,0.65250486,91.372671,-53.92521)"
         d="m 250,302.36218 c 0,5.52285 -4.47715,10 -10,10 -5.52285,0 -10,-4.47715 -10,-10 0,-5.52284 4.47715,-10 10,-10 5.52285,0 10,4.47716 10,10 z"
         sodipodi:ry="10"
         sodipodi:rx="10"
         sodipodi:cy="302.36218"
         sodipodi:cx="240"
         id="path3199-6-6"
         style="fill:#506c6c;fill-opacity:0.55294118;stroke:#00850f;stroke-width:1;stroke-linejoin:miter;stroke-miterlimit:4;stroke-opacity:1;stroke-dasharray:none;stroke-dashoffset:0"
         sodipodi:type="arc" />
      <path
         transform="matrix(0.65318173,0,0,0.65318173,81.615055,-92.132422)"
         d="m 250,302.36218 c 0,5.52285 -4.47715,10 -10,10 -5.52285,0 -10,-4.47715 -10,-10 0,-5.52284 4.47715,-10 10,-10 5.52285,0 10,4.47716 10,10 z"
         sodipodi:ry="10"
         sodipodi:rx="10"
         sodipodi:cy="302.36218"
         sodipodi:cx="240"
         id="path3199-76"
         style="fill:#9fb8b8;fill-opacity:0.55294118;stroke:#620003;stroke-width:1;stroke-linejoin:miter;stroke-miterlimit:4;stroke-opacity:1;stroke-dasharray:none;stroke-dashoffset:0"
         sodipodi:type="arc" />
      <path
         transform="matrix(0.65318173,0,0,0.65318173,65.262357,-72.819981)"
         d="m 250,302.36218 c 0,5.52285 -4.47715,10 -10,10 -5.52285,0 -10,-4.47715 -10,-10 0,-5.52284 4.47715,-10 10,-10 5.52285,0 10,4.47716 10,10 z"
         sodipodi:ry="10"
         sodipodi:rx="10"
         sodipodi:cy="302.36218"
         sodipodi:cx="240"
         id="path3199-4-3"
         style="fill:#9fb8b8;fill-opacity:0.55294118;stroke:#620003;stroke-width:1;stroke-linejoin:miter;stroke-miterlimit:4;stroke-opacity:1;stroke-dasharray:none;stroke-dashoffset:0"
         sodipodi:type="arc" />
      <path
         transform="matrix(0.65318173,0,0,0.65318173,55.365158,-53.685395)"
         d="m 250,302.36218 c 0,5.52285 -4.47715,10 -10,10 -5.52285,0 -10,-4.47715 -10,-10 0,-5.52284 4.47715,-10 10,-10 5.52285,0 10,4.47716 10,10 z"
         sodipodi:ry="10"
         sodipodi:rx="10"
         sodipodi:cy="302.36218"
         sodipodi:cx="240"
         id="path3199-8-6"
         style="fill:#9fb8b8;fill-opacity:0.55294118;stroke:#620003;stroke-width:1;stroke-linejoin:miter;stroke-miterlimit:4;stroke-opacity:1;stroke-dasharray:none;stroke-dashoffset:0"
         sodipodi:type="arc" />
      <path
         transform="matrix(0.65318173,0,0,0.65318173,76.479185,-53.355492)"
         d="m 250,302.36218 c 0,5.52285 -4.47715,10 -10,10 -5.52285,0 -10,-4.47715 -10,-10 0,-5.52284 4.47715,-10 10,-10 5.52285,0 10,4.47716 10,10 z"
         sodipodi:ry="10"
         sodipodi:rx="10"
         sodipodi:cy="302.36218"
         sodipodi:cx="240"
         id="path3199-2-1"
         style="fill:#9fb8b8;fill-opacity:0.55294118;stroke:#620003;stroke-width:1;stroke-linejoin:miter;stroke-miterlimit:4;stroke-opacity:1;stroke-dasharray:none;stroke-dashoffset:0"
         sodipodi:type="arc" />
      <path
         transform="matrix(0.65318173,0,0,0.65318173,47.777309,-34.550821)"
         d="m 250,302.36218 c 0,5.52285 -4.47715,10 -10,10 -5.52285,0 -10,-4.47715 -10,-10 0,-5.52284 4.47715,-10 10,-10 5.52285,0 10,4.47716 10,10 z"
         sodipodi:ry="10"
         sodipodi:rx="10"
         sodipodi:cy="302.36218"
         sodipodi:cx="240"
         id="path3199-7-5"
         style="fill:#9fb8b8;fill-opacity:0.55294118;stroke:#620003;stroke-width:1;stroke-linejoin:miter;stroke-miterlimit:4;stroke-opacity:1;stroke-dasharray:none;stroke-dashoffset:0"
         sodipodi:type="arc" />
      <path
         transform="matrix(0.65318173,0,0,0.65318173,61.963293,-35.540535)"
         d="m 250,302.36218 c 0,5.52285 -4.47715,10 -10,10 -5.52285,0 -10,-4.47715 -10,-10 0,-5.52284 4.47715,-10 10,-10 5.52285,0 10,4.47716 10,10 z"
         sodipodi:ry="10"
         sodipodi:rx="10"
         sodipodi:cy="302.36218"
         sodipodi:cx="240"
         id="path3199-52-4"
         style="fill:#9fb8b8;fill-opacity:0.55294118;stroke:#620003;stroke-width:1;stroke-linejoin:miter;stroke-miterlimit:4;stroke-opacity:1;stroke-dasharray:none;stroke-dashoffset:0"
         sodipodi:type="arc" />
      <path
         sodipodi:nodetypes="cc"
         id="path3234-2"
         d="m 234.23251,110.16158 -7.58784,8.57757"
         style="fill:none;stroke:#4e1e95;stroke-width:0.65318173px;stroke-linecap:butt;stroke-linejoin:miter;stroke-opacity:1"
         inkscape:connector-curvature="0" />
      <path
         sodipodi:nodetypes="cc"
         id="path3234-3-09"
         d="m 242.15027,110.49149 7.58786,8.90748"
         style="fill:none;stroke:#4e1e95;stroke-width:0.65318173px;stroke-linecap:butt;stroke-linejoin:miter;stroke-opacity:1"
         inkscape:connector-curvature="0" />
      <path
         sodipodi:nodetypes="cc"
         id="path3234-3-1-7"
         d="m 225.32504,129.95598 4.28879,8.57757"
         style="fill:none;stroke:#4e1e95;stroke-width:0.65318173px;stroke-linecap:butt;stroke-linejoin:miter;stroke-opacity:1"
         inkscape:connector-curvature="0" />
      <path
         sodipodi:nodetypes="cc"
         id="path3234-3-3-3"
         d="m 218.72691,130.45084 -3.79393,7.25795"
         style="fill:none;stroke:#4e1e95;stroke-width:0.65318173px;stroke-linecap:butt;stroke-linejoin:miter;stroke-opacity:1"
         inkscape:connector-curvature="0" />
      <path
         sodipodi:nodetypes="cc"
         id="path3234-3-4-7"
         d="m 214.10821,150.08028 1.97945,5.60841"
         style="fill:none;stroke:#4e1e95;stroke-width:0.65318173px;stroke-linecap:butt;stroke-linejoin:miter;stroke-opacity:1"
         inkscape:connector-curvature="0" />
      <path
         sodipodi:nodetypes="cc"
         id="path3234-3-13-2"
         d="m 208.99466,149.58542 -2.4743,6.92804"
         style="fill:none;stroke:#4e1e95;stroke-width:0.65318173px;stroke-linecap:butt;stroke-linejoin:miter;stroke-opacity:1"
         inkscape:connector-curvature="0" />
      <text
         id="text6009"
         y="182.97031"
         x="145.22919"
         style="font-size:12px;font-style:normal;font-weight:normal;fill:#000000;fill-opacity:1;stroke:none;font-family:Times New Roman;-inkscape-font-specification:Times New Roman"
         xml:space="preserve"><tspan
           y="182.97031"
           x="145.22919"
           id="tspan6011"
           sodipodi:role="line">a) Replacement</tspan></text>
      <path
         transform="matrix(0.65318173,0,0,0.65318173,262.91927,-95.04238)"
         d="m 250,302.36218 c 0,5.52285 -4.47715,10 -10,10 -5.52285,0 -10,-4.47715 -10,-10 0,-5.52284 4.47715,-10 10,-10 5.52285,0 10,4.47716 10,10 z"
         sodipodi:ry="10"
         sodipodi:rx="10"
         sodipodi:cy="302.36218"
         sodipodi:cx="240"
         id="path3199-65"
         style="fill:#9fb8b8;fill-opacity:0.55294118;stroke:#620003;stroke-width:1;stroke-linejoin:miter;stroke-miterlimit:4;stroke-opacity:1;stroke-dasharray:none;stroke-dashoffset:0"
         sodipodi:type="arc" />
      <path
         transform="matrix(0.65318173,0,0,0.65318173,246.56657,-75.72994)"
         d="m 250,302.36218 c 0,5.52285 -4.47715,10 -10,10 -5.52285,0 -10,-4.47715 -10,-10 0,-5.52284 4.47715,-10 10,-10 5.52285,0 10,4.47716 10,10 z"
         sodipodi:ry="10"
         sodipodi:rx="10"
         sodipodi:cy="302.36218"
         sodipodi:cx="240"
         id="path3199-4-7"
         style="fill:#9fb8b8;fill-opacity:0.55294118;stroke:#620003;stroke-width:1;stroke-linejoin:miter;stroke-miterlimit:4;stroke-opacity:1;stroke-dasharray:none;stroke-dashoffset:0"
         sodipodi:type="arc" />
      <path
         transform="matrix(0.65318173,0,0,0.65318173,236.66937,-56.59536)"
         d="m 250,302.36218 c 0,5.52285 -4.47715,10 -10,10 -5.52285,0 -10,-4.47715 -10,-10 0,-5.52284 4.47715,-10 10,-10 5.52285,0 10,4.47716 10,10 z"
         sodipodi:ry="10"
         sodipodi:rx="10"
         sodipodi:cy="302.36218"
         sodipodi:cx="240"
         id="path3199-8-5"
         style="fill:#9fb8b8;fill-opacity:0.55294118;stroke:#620003;stroke-width:1;stroke-linejoin:miter;stroke-miterlimit:4;stroke-opacity:1;stroke-dasharray:none;stroke-dashoffset:0"
         sodipodi:type="arc" />
      <path
         transform="matrix(0.65318173,0,0,0.65318173,257.7834,-56.26545)"
         d="m 250,302.36218 c 0,5.52285 -4.47715,10 -10,10 -5.52285,0 -10,-4.47715 -10,-10 0,-5.52284 4.47715,-10 10,-10 5.52285,0 10,4.47716 10,10 z"
         sodipodi:ry="10"
         sodipodi:rx="10"
         sodipodi:cy="302.36218"
         sodipodi:cx="240"
         id="path3199-2-41"
         style="fill:#9fb8b8;fill-opacity:0.55294118;stroke:#620003;stroke-width:1;stroke-linejoin:miter;stroke-miterlimit:4;stroke-opacity:1;stroke-dasharray:none;stroke-dashoffset:0"
         sodipodi:type="arc" />
      <path
         transform="matrix(0.65318173,0,0,0.65318173,229.08152,-37.46078)"
         d="m 250,302.36218 c 0,5.52285 -4.47715,10 -10,10 -5.52285,0 -10,-4.47715 -10,-10 0,-5.52284 4.47715,-10 10,-10 5.52285,0 10,4.47716 10,10 z"
         sodipodi:ry="10"
         sodipodi:rx="10"
         sodipodi:cy="302.36218"
         sodipodi:cx="240"
         id="path3199-7-2"
         style="fill:#9fb8b8;fill-opacity:0.55294118;stroke:#620003;stroke-width:1;stroke-linejoin:miter;stroke-miterlimit:4;stroke-opacity:1;stroke-dasharray:none;stroke-dashoffset:0"
         sodipodi:type="arc" />
      <path
         transform="matrix(0.65318173,0,0,0.65318173,243.2675,-38.4505)"
         d="m 250,302.36218 c 0,5.52285 -4.47715,10 -10,10 -5.52285,0 -10,-4.47715 -10,-10 0,-5.52284 4.47715,-10 10,-10 5.52285,0 10,4.47716 10,10 z"
         sodipodi:ry="10"
         sodipodi:rx="10"
         sodipodi:cy="302.36218"
         sodipodi:cx="240"
         id="path3199-52-0"
         style="fill:#9fb8b8;fill-opacity:0.55294118;stroke:#620003;stroke-width:1;stroke-linejoin:miter;stroke-miterlimit:4;stroke-opacity:1;stroke-dasharray:none;stroke-dashoffset:0"
         sodipodi:type="arc" />
      <path
         sodipodi:nodetypes="cc"
         id="path3234-0"
         d="m 415.53673,107.25162 -7.58785,8.57757"
         style="fill:none;stroke:#4e1e95;stroke-width:0.65318173px;stroke-linecap:butt;stroke-linejoin:miter;stroke-opacity:1"
         inkscape:connector-curvature="0" />
      <path
         sodipodi:nodetypes="cc"
         id="path3234-3-14"
         d="m 423.45448,107.58152 7.58786,8.90748"
         style="fill:none;stroke:#4e1e95;stroke-width:0.65318173px;stroke-linecap:butt;stroke-linejoin:miter;stroke-opacity:1"
         inkscape:connector-curvature="0" />
      <path
         sodipodi:nodetypes="cc"
         id="path3234-3-1-6"
         d="m 406.62925,127.04601 4.28879,8.57757"
         style="fill:none;stroke:#4e1e95;stroke-width:0.65318173px;stroke-linecap:butt;stroke-linejoin:miter;stroke-opacity:1"
         inkscape:connector-curvature="0" />
      <path
         sodipodi:nodetypes="cc"
         id="path3234-3-3-0"
         d="m 400.03112,127.54088 -3.79393,7.25794"
         style="fill:none;stroke:#4e1e95;stroke-width:0.65318173px;stroke-linecap:butt;stroke-linejoin:miter;stroke-opacity:1"
         inkscape:connector-curvature="0" />
      <path
         sodipodi:nodetypes="cc"
         id="path3234-3-4-71"
         d="m 395.41243,147.17031 1.97944,5.60842"
         style="fill:none;stroke:#4e1e95;stroke-width:0.65318173px;stroke-linecap:butt;stroke-linejoin:miter;stroke-opacity:1"
         inkscape:connector-curvature="0" />
      <path
         sodipodi:nodetypes="cc"
         id="path3234-3-13-7"
         d="m 390.29887,146.67546 -2.4743,6.92803"
         style="fill:none;stroke:#4e1e95;stroke-width:0.65318173px;stroke-linecap:butt;stroke-linejoin:miter;stroke-opacity:1"
         inkscape:connector-curvature="0" />
      <path
         transform="matrix(0.65318173,0,0,0.65318173,278.5675,-75.72994)"
         d="m 250,302.36218 c 0,5.52285 -4.47715,10 -10,10 -5.52285,0 -10,-4.47715 -10,-10 0,-5.52284 4.47715,-10 10,-10 5.52285,0 10,4.47716 10,10 z"
         sodipodi:ry="10"
         sodipodi:rx="10"
         sodipodi:cy="302.36218"
         sodipodi:cx="240"
         id="path3199-9-7"
         style="fill:#9fb8b8;fill-opacity:0.55294118;stroke:#620003;stroke-width:1;stroke-linejoin:miter;stroke-miterlimit:4;stroke-opacity:1;stroke-dasharray:none;stroke-dashoffset:0"
         sodipodi:type="arc" />
      <path
         sodipodi:nodetypes="cc"
         id="path3234-3-28-7"
         d="m 445.09446,145.09307 -2.82128,6.4465"
         style="fill:none;stroke:#4e1e95;stroke-width:0.6525048px;stroke-linecap:butt;stroke-linejoin:miter;stroke-opacity:1"
         inkscape:connector-curvature="0" />
      <path
         sodipodi:nodetypes="cc"
         id="path3234-3-0-3"
         d="m 449.85317,144.79177 2.72475,6.67955"
         style="fill:none;stroke:#4e1e95;stroke-width:0.6525048px;stroke-linecap:butt;stroke-linejoin:miter;stroke-opacity:1"
         inkscape:connector-curvature="0" />
      <path
         transform="matrix(0.65250486,0,0,0.65250486,290.80025,-58.461443)"
         d="m 250,302.36218 c 0,5.52285 -4.47715,10 -10,10 -5.52285,0 -10,-4.47715 -10,-10 0,-5.52284 4.47715,-10 10,-10 5.52285,0 10,4.47716 10,10 z"
         sodipodi:ry="10"
         sodipodi:rx="10"
         sodipodi:cy="302.36218"
         sodipodi:cx="240"
         id="path3199-6-5-3"
         style="fill:#506c6c;fill-opacity:0.55294118;stroke:#00850f;stroke-width:1;stroke-linejoin:miter;stroke-miterlimit:4;stroke-opacity:1;stroke-dasharray:none;stroke-dashoffset:0"
         sodipodi:type="arc" />
      <path
         transform="matrix(0.65250486,0,0,0.65250486,298.05068,-39.51147)"
         d="m 250,302.36218 c 0,5.52285 -4.47715,10 -10,10 -5.52285,0 -10,-4.47715 -10,-10 0,-5.52284 4.47715,-10 10,-10 5.52285,0 10,4.47716 10,10 z"
         sodipodi:ry="10"
         sodipodi:rx="10"
         sodipodi:cy="302.36218"
         sodipodi:cx="240"
         id="path3199-6-9-5"
         style="fill:#506c6c;fill-opacity:0.55294118;stroke:#00850f;stroke-width:1;stroke-linejoin:miter;stroke-miterlimit:4;stroke-opacity:1;stroke-dasharray:none;stroke-dashoffset:0"
         sodipodi:type="arc" />
      <path
         transform="matrix(0.65250486,0,0,0.65250486,284.20896,-39.34669)"
         d="m 250,302.36218 c 0,5.52285 -4.47715,10 -10,10 -5.52285,0 -10,-4.47715 -10,-10 0,-5.52284 4.47715,-10 10,-10 5.52285,0 10,4.47716 10,10 z"
         sodipodi:ry="10"
         sodipodi:rx="10"
         sodipodi:cy="302.36218"
         sodipodi:cx="240"
         id="path3199-6-6-9"
         style="fill:#506c6c;fill-opacity:0.55294118;stroke:#00850f;stroke-width:1;stroke-linejoin:miter;stroke-miterlimit:4;stroke-opacity:1;stroke-dasharray:none;stroke-dashoffset:0"
         sodipodi:type="arc" />
      <path
         sodipodi:nodetypes="cc"
         id="path3234-3-14-9"
         d="m 438.93706,127.14928 4.71276,6.28493"
         style="fill:none;stroke:#4e1e95;stroke-width:0.65318173px;stroke-linecap:butt;stroke-linejoin:miter;stroke-opacity:1"
         inkscape:connector-curvature="0" />
      <path
         transform="matrix(0.65318173,0,0,0.65318173,184.7155,-91.476932)"
         d="m 250,302.36218 c 0,5.52285 -4.47715,10 -10,10 -5.52285,0 -10,-4.47715 -10,-10 0,-5.52284 4.47715,-10 10,-10 5.52285,0 10,4.47716 10,10 z"
         sodipodi:ry="10"
         sodipodi:rx="10"
         sodipodi:cy="302.36218"
         sodipodi:cx="240"
         id="path3199-0"
         style="fill:#9fb8b8;fill-opacity:0.55294118;stroke:#620003;stroke-width:1;stroke-linejoin:miter;stroke-miterlimit:4;stroke-opacity:1;stroke-dasharray:none;stroke-dashoffset:0"
         sodipodi:type="arc" />
      <path
         transform="matrix(0.65318173,0,0,0.65318173,168.3628,-72.164491)"
         d="m 250,302.36218 c 0,5.52285 -4.47715,10 -10,10 -5.52285,0 -10,-4.47715 -10,-10 0,-5.52284 4.47715,-10 10,-10 5.52285,0 10,4.47716 10,10 z"
         sodipodi:ry="10"
         sodipodi:rx="10"
         sodipodi:cy="302.36218"
         sodipodi:cx="240"
         id="path3199-4-61"
         style="fill:#9fb8b8;fill-opacity:0.55294118;stroke:#620003;stroke-width:1;stroke-linejoin:miter;stroke-miterlimit:4;stroke-opacity:1;stroke-dasharray:none;stroke-dashoffset:0"
         sodipodi:type="arc" />
      <path
         transform="matrix(0.65318173,0,0,0.65318173,158.4656,-53.029905)"
         d="m 250,302.36218 c 0,5.52285 -4.47715,10 -10,10 -5.52285,0 -10,-4.47715 -10,-10 0,-5.52284 4.47715,-10 10,-10 5.52285,0 10,4.47716 10,10 z"
         sodipodi:ry="10"
         sodipodi:rx="10"
         sodipodi:cy="302.36218"
         sodipodi:cx="240"
         id="path3199-8-89"
         style="fill:#9fb8b8;fill-opacity:0.55294118;stroke:#620003;stroke-width:1;stroke-linejoin:miter;stroke-miterlimit:4;stroke-opacity:1;stroke-dasharray:none;stroke-dashoffset:0"
         sodipodi:type="arc" />
      <path
         transform="matrix(0.65318173,0,0,0.65318173,179.57963,-52.700002)"
         d="m 250,302.36218 c 0,5.52285 -4.47715,10 -10,10 -5.52285,0 -10,-4.47715 -10,-10 0,-5.52284 4.47715,-10 10,-10 5.52285,0 10,4.47716 10,10 z"
         sodipodi:ry="10"
         sodipodi:rx="10"
         sodipodi:cy="302.36218"
         sodipodi:cx="240"
         id="path3199-2-8"
         style="fill:#9fb8b8;fill-opacity:0.55294118;stroke:#620003;stroke-width:1;stroke-linejoin:miter;stroke-miterlimit:4;stroke-opacity:1;stroke-dasharray:none;stroke-dashoffset:0"
         sodipodi:type="arc" />
      <path
         transform="matrix(0.65318173,0,0,0.65318173,150.87775,-33.895331)"
         d="m 250,302.36218 c 0,5.52285 -4.47715,10 -10,10 -5.52285,0 -10,-4.47715 -10,-10 0,-5.52284 4.47715,-10 10,-10 5.52285,0 10,4.47716 10,10 z"
         sodipodi:ry="10"
         sodipodi:rx="10"
         sodipodi:cy="302.36218"
         sodipodi:cx="240"
         id="path3199-7-4"
         style="fill:#9fb8b8;fill-opacity:0.55294118;stroke:#620003;stroke-width:1;stroke-linejoin:miter;stroke-miterlimit:4;stroke-opacity:1;stroke-dasharray:none;stroke-dashoffset:0"
         sodipodi:type="arc" />
      <path
         transform="matrix(0.65318173,0,0,0.65318173,165.06373,-34.885045)"
         d="m 250,302.36218 c 0,5.52285 -4.47715,10 -10,10 -5.52285,0 -10,-4.47715 -10,-10 0,-5.52284 4.47715,-10 10,-10 5.52285,0 10,4.47716 10,10 z"
         sodipodi:ry="10"
         sodipodi:rx="10"
         sodipodi:cy="302.36218"
         sodipodi:cx="240"
         id="path3199-52-1"
         style="fill:#9fb8b8;fill-opacity:0.55294118;stroke:#620003;stroke-width:1;stroke-linejoin:miter;stroke-miterlimit:4;stroke-opacity:1;stroke-dasharray:none;stroke-dashoffset:0"
         sodipodi:type="arc" />
      <path
         sodipodi:nodetypes="cc"
         id="path3234-4"
         d="m 337.33295,110.81707 -7.58784,8.57757"
         style="fill:none;stroke:#4e1e95;stroke-width:0.65318173px;stroke-linecap:butt;stroke-linejoin:miter;stroke-opacity:1"
         inkscape:connector-curvature="0" />
      <path
         sodipodi:nodetypes="cc"
         id="path3234-3-39"
         d="m 345.25071,111.14698 7.58786,8.90748"
         style="fill:none;stroke:#4e1e95;stroke-width:0.65318173px;stroke-linecap:butt;stroke-linejoin:miter;stroke-opacity:1"
         inkscape:connector-curvature="0" />
      <path
         sodipodi:nodetypes="cc"
         id="path3234-3-1-88"
         d="m 328.42548,130.61147 4.28879,8.57757"
         style="fill:none;stroke:#4e1e95;stroke-width:0.65318173px;stroke-linecap:butt;stroke-linejoin:miter;stroke-opacity:1"
         inkscape:connector-curvature="0" />
      <path
         sodipodi:nodetypes="cc"
         id="path3234-3-3-08"
         d="m 321.82735,131.10633 -3.79393,7.25795"
         style="fill:none;stroke:#4e1e95;stroke-width:0.65318173px;stroke-linecap:butt;stroke-linejoin:miter;stroke-opacity:1"
         inkscape:connector-curvature="0" />
      <path
         sodipodi:nodetypes="cc"
         id="path3234-3-4-77"
         d="m 317.20865,150.73577 1.97945,5.60841"
         style="fill:none;stroke:#4e1e95;stroke-width:0.65318173px;stroke-linecap:butt;stroke-linejoin:miter;stroke-opacity:1"
         inkscape:connector-curvature="0" />
      <path
         sodipodi:nodetypes="cc"
         id="path3234-3-13-8"
         d="m 312.0951,150.24091 -2.4743,6.92804"
         style="fill:none;stroke:#4e1e95;stroke-width:0.65318173px;stroke-linecap:butt;stroke-linejoin:miter;stroke-opacity:1"
         inkscape:connector-curvature="0" />
      <path
         transform="matrix(0.65318173,0,0,0.65318173,200.36374,-72.16449)"
         d="m 250,302.36218 c 0,5.52285 -4.47715,10 -10,10 -5.52285,0 -10,-4.47715 -10,-10 0,-5.52284 4.47715,-10 10,-10 5.52285,0 10,4.47716 10,10 z"
         sodipodi:ry="10"
         sodipodi:rx="10"
         sodipodi:cy="302.36218"
         sodipodi:cx="240"
         id="path3199-9-3"
         style="fill:#9fb8b8;fill-opacity:0.55294118;stroke:#620003;stroke-width:1;stroke-linejoin:miter;stroke-miterlimit:4;stroke-opacity:1;stroke-dasharray:none;stroke-dashoffset:0"
         sodipodi:type="arc" />
      <text
         id="text6024"
         y="182.97031"
         x="340"
         style="font-size:12px;font-style:normal;font-weight:normal;fill:#000000;fill-opacity:1;stroke:none;font-family:Times New Roman;-inkscape-font-specification:Times New Roman"
         xml:space="preserve"><tspan
           y="182.97031"
           x="340"
           id="tspan6026"
           sodipodi:role="line">b) Insertion</tspan></text>
      <path
         transform="matrix(0.65318173,0,0,0.65318173,466.62028,-96.368652)"
         d="m 250,302.36218 c 0,5.52285 -4.47715,10 -10,10 -5.52285,0 -10,-4.47715 -10,-10 0,-5.52284 4.47715,-10 10,-10 5.52285,0 10,4.47716 10,10 z"
         sodipodi:ry="10"
         sodipodi:rx="10"
         sodipodi:cy="302.36218"
         sodipodi:cx="240"
         id="path3199-82"
         style="fill:#9fb8b8;fill-opacity:0.55294118;stroke:#620003;stroke-width:1;stroke-linejoin:miter;stroke-miterlimit:4;stroke-opacity:1;stroke-dasharray:none;stroke-dashoffset:0"
         sodipodi:type="arc" />
      <path
         transform="matrix(0.65318173,0,0,0.65318173,450.26758,-77.056215)"
         d="m 250,302.36218 c 0,5.52285 -4.47715,10 -10,10 -5.52285,0 -10,-4.47715 -10,-10 0,-5.52284 4.47715,-10 10,-10 5.52285,0 10,4.47716 10,10 z"
         sodipodi:ry="10"
         sodipodi:rx="10"
         sodipodi:cy="302.36218"
         sodipodi:cx="240"
         id="path3199-4-6"
         style="fill:#9fb8b8;fill-opacity:0.55294118;stroke:#620003;stroke-width:1;stroke-linejoin:miter;stroke-miterlimit:4;stroke-opacity:1;stroke-dasharray:none;stroke-dashoffset:0"
         sodipodi:type="arc" />
      <path
         transform="matrix(0.65318173,0,0,0.65318173,461.48441,-57.591725)"
         d="m 250,302.36218 c 0,5.52285 -4.47715,10 -10,10 -5.52285,0 -10,-4.47715 -10,-10 0,-5.52284 4.47715,-10 10,-10 5.52285,0 10,4.47716 10,10 z"
         sodipodi:ry="10"
         sodipodi:rx="10"
         sodipodi:cy="302.36218"
         sodipodi:cx="240"
         id="path3199-2-3"
         style="fill:#9fb8b8;fill-opacity:0.55294118;stroke:#620003;stroke-width:1;stroke-linejoin:miter;stroke-miterlimit:4;stroke-opacity:1;stroke-dasharray:none;stroke-dashoffset:0"
         sodipodi:type="arc" />
      <path
         sodipodi:nodetypes="cc"
         id="path3234-25"
         d="m 619.23774,105.92535 -8.85054,8.83011"
         style="fill:none;stroke:#4e1e95;stroke-width:0.65318173px;stroke-linecap:butt;stroke-linejoin:miter;stroke-opacity:1"
         inkscape:connector-curvature="0" />
      <path
         sodipodi:nodetypes="cc"
         id="path3234-3-094"
         d="m 627.1555,106.25526 7.58785,8.90748"
         style="fill:none;stroke:#4e1e95;stroke-width:0.65318173px;stroke-linecap:butt;stroke-linejoin:miter;stroke-opacity:1"
         inkscape:connector-curvature="0" />
      <path
         sodipodi:nodetypes="cc"
         id="path3234-3-1-78"
         d="m 610.33026,125.71975 4.28879,8.57757"
         style="fill:none;stroke:#4e1e95;stroke-width:0.65318173px;stroke-linecap:butt;stroke-linejoin:miter;stroke-opacity:1"
         inkscape:connector-curvature="0" />
      <path
         transform="matrix(0.65318173,0,0,0.65318173,482.26852,-77.056215)"
         d="m 250,302.36218 c 0,5.52285 -4.47715,10 -10,10 -5.52285,0 -10,-4.47715 -10,-10 0,-5.52284 4.47715,-10 10,-10 5.52285,0 10,4.47716 10,10 z"
         sodipodi:ry="10"
         sodipodi:rx="10"
         sodipodi:cy="302.36218"
         sodipodi:cx="240"
         id="path3199-9-1"
         style="fill:#9fb8b8;fill-opacity:0.55294118;stroke:#620003;stroke-width:1;stroke-linejoin:miter;stroke-miterlimit:4;stroke-opacity:1;stroke-dasharray:none;stroke-dashoffset:0"
         sodipodi:type="arc" />
      <path
         transform="matrix(0.65318173,0,0,0.65318173,385.80808,-98.894042)"
         d="m 250,302.36218 c 0,5.52285 -4.47715,10 -10,10 -5.52285,0 -10,-4.47715 -10,-10 0,-5.52284 4.47715,-10 10,-10 5.52285,0 10,4.47716 10,10 z"
         sodipodi:ry="10"
         sodipodi:rx="10"
         sodipodi:cy="302.36218"
         sodipodi:cx="240"
         id="path3199-0-7"
         style="fill:#9fb8b8;fill-opacity:0.55294118;stroke:#620003;stroke-width:1;stroke-linejoin:miter;stroke-miterlimit:4;stroke-opacity:1;stroke-dasharray:none;stroke-dashoffset:0"
         sodipodi:type="arc" />
      <path
         transform="matrix(0.65318173,0,0,0.65318173,369.45538,-79.581601)"
         d="m 250,302.36218 c 0,5.52285 -4.47715,10 -10,10 -5.52285,0 -10,-4.47715 -10,-10 0,-5.52284 4.47715,-10 10,-10 5.52285,0 10,4.47716 10,10 z"
         sodipodi:ry="10"
         sodipodi:rx="10"
         sodipodi:cy="302.36218"
         sodipodi:cx="240"
         id="path3199-4-61-1"
         style="fill:#9fb8b8;fill-opacity:0.55294118;stroke:#620003;stroke-width:1;stroke-linejoin:miter;stroke-miterlimit:4;stroke-opacity:1;stroke-dasharray:none;stroke-dashoffset:0"
         sodipodi:type="arc" />
      <path
         transform="matrix(0.65318173,0,0,0.65318173,359.55818,-60.447015)"
         d="m 250,302.36218 c 0,5.52285 -4.47715,10 -10,10 -5.52285,0 -10,-4.47715 -10,-10 0,-5.52284 4.47715,-10 10,-10 5.52285,0 10,4.47716 10,10 z"
         sodipodi:ry="10"
         sodipodi:rx="10"
         sodipodi:cy="302.36218"
         sodipodi:cx="240"
         id="path3199-8-89-0"
         style="fill:#9fb8b8;fill-opacity:0.55294118;stroke:#620003;stroke-width:1;stroke-linejoin:miter;stroke-miterlimit:4;stroke-opacity:1;stroke-dasharray:none;stroke-dashoffset:0"
         sodipodi:type="arc" />
      <path
         transform="matrix(0.65318173,0,0,0.65318173,380.67221,-60.117112)"
         d="m 250,302.36218 c 0,5.52285 -4.47715,10 -10,10 -5.52285,0 -10,-4.47715 -10,-10 0,-5.52284 4.47715,-10 10,-10 5.52285,0 10,4.47716 10,10 z"
         sodipodi:ry="10"
         sodipodi:rx="10"
         sodipodi:cy="302.36218"
         sodipodi:cx="240"
         id="path3199-2-8-7"
         style="fill:#9fb8b8;fill-opacity:0.55294118;stroke:#620003;stroke-width:1;stroke-linejoin:miter;stroke-miterlimit:4;stroke-opacity:1;stroke-dasharray:none;stroke-dashoffset:0"
         sodipodi:type="arc" />
      <path
         transform="matrix(0.65318173,0,0,0.65318173,351.97033,-41.312441)"
         d="m 250,302.36218 c 0,5.52285 -4.47715,10 -10,10 -5.52285,0 -10,-4.47715 -10,-10 0,-5.52284 4.47715,-10 10,-10 5.52285,0 10,4.47716 10,10 z"
         sodipodi:ry="10"
         sodipodi:rx="10"
         sodipodi:cy="302.36218"
         sodipodi:cx="240"
         id="path3199-7-4-3"
         style="fill:#9fb8b8;fill-opacity:0.55294118;stroke:#620003;stroke-width:1;stroke-linejoin:miter;stroke-miterlimit:4;stroke-opacity:1;stroke-dasharray:none;stroke-dashoffset:0"
         sodipodi:type="arc" />
      <path
         transform="matrix(0.65318173,0,0,0.65318173,366.15631,-42.302155)"
         d="m 250,302.36218 c 0,5.52285 -4.47715,10 -10,10 -5.52285,0 -10,-4.47715 -10,-10 0,-5.52284 4.47715,-10 10,-10 5.52285,0 10,4.47716 10,10 z"
         sodipodi:ry="10"
         sodipodi:rx="10"
         sodipodi:cy="302.36218"
         sodipodi:cx="240"
         id="path3199-52-1-4"
         style="fill:#9fb8b8;fill-opacity:0.55294118;stroke:#620003;stroke-width:1;stroke-linejoin:miter;stroke-miterlimit:4;stroke-opacity:1;stroke-dasharray:none;stroke-dashoffset:0"
         sodipodi:type="arc" />
      <path
         sodipodi:nodetypes="cc"
         id="path3234-4-9"
         d="m 538.42553,103.39996 -8.34545,9.58772"
         style="fill:none;stroke:#4e1e95;stroke-width:0.65318173px;stroke-linecap:butt;stroke-linejoin:miter;stroke-opacity:1"
         inkscape:connector-curvature="0" />
      <path
         sodipodi:nodetypes="cc"
         id="path3234-3-39-6"
         d="m 546.34329,103.72987 7.58786,8.90748"
         style="fill:none;stroke:#4e1e95;stroke-width:0.65318173px;stroke-linecap:butt;stroke-linejoin:miter;stroke-opacity:1"
         inkscape:connector-curvature="0" />
      <path
         sodipodi:nodetypes="cc"
         id="path3234-3-1-88-5"
         d="m 529.51806,123.19436 4.28879,8.57757"
         style="fill:none;stroke:#4e1e95;stroke-width:0.65318173px;stroke-linecap:butt;stroke-linejoin:miter;stroke-opacity:1"
         inkscape:connector-curvature="0" />
      <path
         sodipodi:nodetypes="cc"
         id="path3234-3-3-08-1"
         d="m 522.91993,123.68922 -3.79393,7.25795"
         style="fill:none;stroke:#4e1e95;stroke-width:0.65318173px;stroke-linecap:butt;stroke-linejoin:miter;stroke-opacity:1"
         inkscape:connector-curvature="0" />
      <path
         sodipodi:nodetypes="cc"
         id="path3234-3-4-77-0"
         d="m 518.30123,143.31866 1.97945,5.60841"
         style="fill:none;stroke:#4e1e95;stroke-width:0.65318173px;stroke-linecap:butt;stroke-linejoin:miter;stroke-opacity:1"
         inkscape:connector-curvature="0" />
      <path
         sodipodi:nodetypes="cc"
         id="path3234-3-13-8-9"
         d="m 513.18768,142.8238 -2.4743,6.92804"
         style="fill:none;stroke:#4e1e95;stroke-width:0.65318173px;stroke-linecap:butt;stroke-linejoin:miter;stroke-opacity:1"
         inkscape:connector-curvature="0" />
      <path
         transform="matrix(0.65318173,0,0,0.65318173,401.45632,-79.5816)"
         d="m 250,302.36218 c 0,5.52285 -4.47715,10 -10,10 -5.52285,0 -10,-4.47715 -10,-10 0,-5.52284 4.47715,-10 10,-10 5.52285,0 10,4.47716 10,10 z"
         sodipodi:ry="10"
         sodipodi:rx="10"
         sodipodi:cy="302.36218"
         sodipodi:cx="240"
         id="path3199-9-3-9"
         style="fill:#9fb8b8;fill-opacity:0.55294118;stroke:#620003;stroke-width:1;stroke-linejoin:miter;stroke-miterlimit:4;stroke-opacity:1;stroke-dasharray:none;stroke-dashoffset:0"
         sodipodi:type="arc" />
      <path
         transform="matrix(0.50130977,0,0,0.85367781,353.62488,-22.272122)"
         d="m 359.10922,201.05612 c 0,12.69204 -15.94219,22.98097 -35.60788,22.98097 -19.66568,0 -35.60787,-10.28893 -35.60787,-22.98097 0,-12.69204 15.94219,-22.98097 35.60787,-22.98097 19.66569,0 35.60788,10.28893 35.60788,22.98097 z"
         sodipodi:ry="22.98097"
         sodipodi:rx="35.607876"
         sodipodi:cy="201.05612"
         sodipodi:cx="323.50134"
         id="path5479"
         style="fill:none;stroke:#1400ec;stroke-width:1;stroke-linejoin:miter;stroke-miterlimit:4;stroke-opacity:0.89361704;stroke-dasharray:2, 1;stroke-dashoffset:0"
         sodipodi:type="arc" />
      <text
         id="text6024-5"
         y="182.97031"
         x="547.94446"
         style="font-size:12px;font-style:normal;font-weight:normal;fill:#000000;fill-opacity:1;stroke:none;font-family:Times New Roman;-inkscape-font-specification:Times New Roman"
         xml:space="preserve"><tspan
           y="182.97031"
           x="547.94446"
           id="tspan6026-5"
           sodipodi:role="line">b) Deletion</tspan></text>
      <path
         id="path2924"
         d="m 571.42857,117.8979 0,7.5 15,0 0,3.75 10,-7.5 -10,-7.5 0,3.75 -15,0 z"
         style="fill:#f3eedb;fill-opacity:1;stroke:#000000;stroke-width:0.86602539px;stroke-linecap:butt;stroke-linejoin:miter;stroke-opacity:0.59788358"
         inkscape:connector-curvature="0" />
      <path
         style="fill:#f3eedb;fill-opacity:1;stroke:#000000;stroke-width:0.86602539px;stroke-linecap:butt;stroke-linejoin:miter;stroke-opacity:0.59788358"
         d="m 185,124.86218 0,7.5 15,0 0,3.75 10,-7.5 -10,-7.5 0,3.75 -15,0 z"
         id="path3719"
         inkscape:connector-curvature="0" />
      <path
         style="fill:#f3eedb;fill-opacity:1;stroke:#000000;stroke-width:0.86602539px;stroke-linecap:butt;stroke-linejoin:miter;stroke-opacity:0.59788358"
         d="m 367.14286,119.86218 0,7.5 15,0 0,3.75 10,-7.5 -10,-7.5 0,3.75 -15,0 z"
         id="path3721"
         inkscape:connector-curvature="0" />
    </g>
  </g>
</svg>
