<?xml version="1.0" encoding="UTF-8" standalone="no"?>
<!-- Created with Inkscape (http://www.inkscape.org/) -->

<svg
   xmlns:dc="http://purl.org/dc/elements/1.1/"
   xmlns:cc="http://creativecommons.org/ns#"
   xmlns:rdf="http://www.w3.org/1999/02/22-rdf-syntax-ns#"
   xmlns:svg="http://www.w3.org/2000/svg"
   xmlns="http://www.w3.org/2000/svg"
   xmlns:sodipodi="http://sodipodi.sourceforge.net/DTD/sodipodi-0.dtd"
   xmlns:inkscape="http://www.inkscape.org/namespaces/inkscape"
   id="svg2985"
   version="1.1"
   inkscape:version="0.48.2 r9819"
   width="540"
   height="366.75"
   xml:space="preserve"
   sodipodi:docname="losses_cost.svg"><metadata
     id="metadata2991"><rdf:RDF><cc:Work
         rdf:about=""><dc:format>image/svg+xml</dc:format><dc:type
           rdf:resource="http://purl.org/dc/dcmitype/StillImage" /><dc:title></dc:title></cc:Work></rdf:RDF></metadata><defs
     id="defs2989"><marker
   inkscape:stockid="Arrow1Lend"
   orient="auto"
   refY="0.0"
   refX="0.0"
   id="Arrow1Lend"
   style="overflow:visible;"><path
     id="path4171"
     d="M 0.0,0.0 L 5.0,-5.0 L -12.5,0.0 L 5.0,5.0 L 0.0,0.0 z "
     style="fill-rule:evenodd;stroke:#000000;stroke-width:1.0pt;marker-start:none;"
     transform="scale(0.8) rotate(180) translate(12.5,0)" /></marker><inkscape:path-effect
   effect="spiro"
   id="path-effect3215"
   is_visible="true" /><inkscape:path-effect
   effect="spiro"
   id="path-effect3211"
   is_visible="true" /><clipPath
   clipPathUnits="userSpaceOnUse"
   id="clipPath3003"><path
     d="m 54,29.34 334.8,0 0,234.72 -334.8,0 0,-234.72 z"
     id="path3005" /></clipPath>



</defs><sodipodi:namedview
     pagecolor="#ffffff"
     bordercolor="#666666"
     borderopacity="1"
     objecttolerance="10"
     gridtolerance="10"
     guidetolerance="10"
     inkscape:pageopacity="0"
     inkscape:pageshadow="2"
     inkscape:window-width="1366"
     inkscape:window-height="706"
     id="namedview2987"
     showgrid="false"
     inkscape:zoom="1.6184888"
     inkscape:cx="257.89182"
     inkscape:cy="146.01742"
     inkscape:window-x="-8"
     inkscape:window-y="-8"
     inkscape:window-maximized="1"
     inkscape:current-layer="g2993" /><g
     id="g2993"
     inkscape:groupmode="layer"
     inkscape:label="losses_cost"
     transform="matrix(1.25,0,0,-1.25,0,366.75)"><path
   d="m 0,0 432,0 0,293.4 -432,0 L 0,0"
   style="fill:#ffffff;fill-opacity:1;fill-rule:nonzero;stroke:#ffffff;stroke-opacity:1;stroke-width:1;stroke-linecap:square;stroke-linejoin:round;stroke-miterlimit:10;stroke-dasharray:none"
   id="path2995" /><path
   d="m 54,29.34 334.8,0 0,234.72 -334.8,0 0,-234.72"
   style="fill:#ffffff;fill-opacity:1;fill-rule:nonzero;stroke:none"
   id="path2997" /><g
   id="g2999"><g
     id="g3001"
     clip-path="url(#clipPath3003)"><path
       d="m 93.14298,42.45252 c 0.94631,0 1.85399,0.375973 2.523132,1.045115 0.669143,0.669143 1.045116,1.576823 1.045116,2.523133 0,0.94631 -0.375973,1.85399 -1.045116,2.523133 -0.669142,0.669142 -1.576822,1.045115 -2.523132,1.045115 -0.946311,0 -1.85399,-0.375973 -2.523133,-1.045115 -0.669142,-0.669143 -1.045115,-1.576823 -1.045115,-2.523133 0,-0.94631 0.375973,-1.85399 1.045115,-2.523133 0.669143,-0.669142 1.576822,-1.045115 2.523133,-1.045115 z"
       style="fill:#ff0000;fill-opacity:1;fill-rule:nonzero;stroke:#000000;stroke-opacity:1;stroke-width:1;stroke-linecap:butt;stroke-linejoin:round;stroke-miterlimit:10;stroke-dasharray:none"
       id="path3007" /><path
       d="m 112.69694,246.10679 c 0.3665,0 0.71804,0.14562 0.9772,0.40477 0.25916,0.25916 0.40477,0.6107 0.40477,0.97721 0,0.3665 -0.14561,0.71805 -0.40477,0.9772 -0.25916,0.25916 -0.6107,0.40477 -0.9772,0.40477 -0.36651,0 -0.71805,-0.14561 -0.97721,-0.40477 -0.25916,-0.25915 -0.40477,-0.6107 -0.40477,-0.9772 0,-0.36651 0.14561,-0.71805 0.40477,-0.97721 0.25916,-0.25915 0.6107,-0.40477 0.97721,-0.40477 z"
       style="fill:#ff0000;fill-opacity:1;fill-rule:nonzero;stroke:#000000;stroke-opacity:1;stroke-width:1;stroke-linecap:butt;stroke-linejoin:round;stroke-miterlimit:10;stroke-dasharray:none"
       id="path3009" /><path
       d="m 93.165398,93.891357 c 0.79174,0 1.551159,0.314562 2.111004,0.874407 0.559845,0.559845 0.874407,1.319264 0.874407,2.111004 0,0.79174 -0.314562,1.551159 -0.874407,2.111004 -0.559845,0.559845 -1.319264,0.874407 -2.111004,0.874407 -0.79174,0 -1.551159,-0.314562 -2.111004,-0.874407 -0.559845,-0.559845 -0.874407,-1.319264 -0.874407,-2.111004 0,-0.79174 0.314562,-1.551159 0.874407,-2.111004 0.559845,-0.559845 1.319264,-0.874407 2.111004,-0.874407 z"
       style="fill:#ff0000;fill-opacity:1;fill-rule:nonzero;stroke:#000000;stroke-opacity:1;stroke-width:1;stroke-linecap:butt;stroke-linejoin:round;stroke-miterlimit:10;stroke-dasharray:none"
       id="path3011" /><path
       d="m 157.21913,96.186484 c 0.7018,0 1.37496,0.278829 1.87121,0.775079 0.49625,0.496249 0.77508,1.169402 0.77508,1.871205 0,0.701803 -0.27883,1.374952 -0.77508,1.871202 -0.49625,0.49625 -1.16941,0.77508 -1.87121,0.77508 -0.7018,0 -1.37495,-0.27883 -1.8712,-0.77508 -0.49625,-0.49625 -0.77508,-1.169399 -0.77508,-1.871202 0,-0.701803 0.27883,-1.374956 0.77508,-1.871205 0.49625,-0.49625 1.1694,-0.775079 1.8712,-0.775079 z"
       style="fill:#ff0000;fill-opacity:1;fill-rule:nonzero;stroke:#000000;stroke-opacity:1;stroke-width:1;stroke-linecap:butt;stroke-linejoin:round;stroke-miterlimit:10;stroke-dasharray:none"
       id="path3013" /><path
       d="m 184.49054,147.65455 c 0.53948,0 1.05693,0.21434 1.4384,0.59581 0.38147,0.38147 0.59581,0.89893 0.59581,1.43841 0,0.53948 -0.21434,1.05693 -0.59581,1.4384 -0.38147,0.38147 -0.89892,0.59581 -1.4384,0.59581 -0.53948,0 -1.05694,-0.21434 -1.43841,-0.59581 -0.38147,-0.38147 -0.59581,-0.89892 -0.59581,-1.4384 0,-0.53948 0.21434,-1.05694 0.59581,-1.43841 0.38147,-0.38147 0.89893,-0.59581 1.43841,-0.59581 z"
       style="fill:#ff0000;fill-opacity:1;fill-rule:nonzero;stroke:#000000;stroke-opacity:1;stroke-width:1;stroke-linecap:butt;stroke-linejoin:round;stroke-miterlimit:10;stroke-dasharray:none"
       id="path3015" /><path
       d="m 75.820413,138.57501 c 0.872455,0 1.709294,0.34663 2.326213,0.96354 0.616919,0.61692 0.963549,1.45376 0.963549,2.32622 0,0.87245 -0.34663,1.70929 -0.963549,2.32621 -0.616919,0.61692 -1.453758,0.96355 -2.326213,0.96355 -0.872455,0 -1.709294,-0.34663 -2.326213,-0.96355 -0.616919,-0.61692 -0.963549,-1.45376 -0.963549,-2.32621 0,-0.87246 0.34663,-1.7093 0.963549,-2.32622 0.616919,-0.61691 1.453758,-0.96354 2.326213,-0.96354 z"
       style="fill:#ff0000;fill-opacity:1;fill-rule:nonzero;stroke:#000000;stroke-opacity:1;stroke-width:1;stroke-linecap:butt;stroke-linejoin:round;stroke-miterlimit:10;stroke-dasharray:none"
       id="path3017" /><path
       d="m 79.484156,91.631006 c 0.872455,0 1.709294,0.34663 2.326213,0.963549 0.616919,0.616919 0.963549,1.453758 0.963549,2.326213 0,0.872455 -0.34663,1.709294 -0.963549,2.326213 -0.616919,0.616919 -1.453758,0.963549 -2.326213,0.963549 -0.872456,0 -1.709295,-0.34663 -2.326214,-0.963549 -0.616919,-0.616919 -0.963549,-1.453758 -0.963549,-2.326213 0,-0.872455 0.34663,-1.709294 0.963549,-2.326213 0.616919,-0.616919 1.453758,-0.963549 2.326214,-0.963549 z"
       style="fill:#ff0000;fill-opacity:1;fill-rule:nonzero;stroke:#000000;stroke-opacity:1;stroke-width:1;stroke-linecap:butt;stroke-linejoin:round;stroke-miterlimit:10;stroke-dasharray:none"
       id="path3019" /><path
       d="m 79.518831,194.59855 c 0.53948,0 1.056937,0.21434 1.438407,0.59581 0.38147,0.38147 0.595808,0.89893 0.595808,1.43841 0,0.53948 -0.214338,1.05693 -0.595808,1.4384 -0.38147,0.38147 -0.898927,0.59581 -1.438407,0.59581 -0.53948,0 -1.056937,-0.21434 -1.438407,-0.59581 -0.38147,-0.38147 -0.595807,-0.89892 -0.595807,-1.4384 0,-0.53948 0.214337,-1.05694 0.595807,-1.43841 0.38147,-0.38147 0.898927,-0.59581 1.438407,-0.59581 z"
       style="fill:#ff0000;fill-opacity:1;fill-rule:nonzero;stroke:#000000;stroke-opacity:1;stroke-width:1;stroke-linecap:butt;stroke-linejoin:round;stroke-miterlimit:10;stroke-dasharray:none"
       id="path3021" /><path
       d="m 71.379166,140.83536 c 0.79174,0 1.55116,0.31456 2.111004,0.8744 0.559845,0.55985 0.874407,1.31927 0.874407,2.11101 0,0.79174 -0.314562,1.55116 -0.874407,2.111 -0.559844,0.55985 -1.319264,0.87441 -2.111004,0.87441 -0.79174,0 -1.551159,-0.31456 -2.111004,-0.87441 -0.559845,-0.55984 -0.874406,-1.31926 -0.874406,-2.111 0,-0.79174 0.314561,-1.55116 0.874406,-2.11101 0.559845,-0.55984 1.319264,-0.8744 2.111004,-0.8744 z"
       style="fill:#ff0000;fill-opacity:1;fill-rule:nonzero;stroke:#000000;stroke-opacity:1;stroke-width:1;stroke-linecap:butt;stroke-linejoin:round;stroke-miterlimit:10;stroke-dasharray:none"
       id="path3023" /><path
       d="m 71.588349,241.54255 c 0.53948,0 1.056937,0.21434 1.438406,0.59581 0.38147,0.38147 0.595808,0.89893 0.595808,1.43841 0,0.53948 -0.214338,1.05693 -0.595808,1.4384 -0.381469,0.38147 -0.898926,0.59581 -1.438406,0.59581 -0.53948,0 -1.056937,-0.21434 -1.438407,-0.59581 -0.38147,-0.38147 -0.595808,-0.89892 -0.595808,-1.4384 0,-0.53948 0.214338,-1.05694 0.595808,-1.43841 0.38147,-0.38147 0.898927,-0.59581 1.438407,-0.59581 z"
       style="fill:#ff0000;fill-opacity:1;fill-rule:nonzero;stroke:#000000;stroke-opacity:1;stroke-width:1;stroke-linecap:butt;stroke-linejoin:round;stroke-miterlimit:10;stroke-dasharray:none"
       id="path3025" /><path
       d="m 85.234915,40.155948 c 1.036632,0 2.030945,0.411858 2.763954,1.144867 0.733009,0.733009 1.144866,1.727322 1.144866,2.763953 0,1.036631 -0.411857,2.030944 -1.144866,2.763953 -0.733009,0.733009 -1.727322,1.144867 -2.763954,1.144867 -1.036631,0 -2.030944,-0.411858 -2.763953,-1.144867 -0.733009,-0.733009 -1.144867,-1.727322 -1.144867,-2.763953 0,-1.036631 0.411858,-2.030944 1.144867,-2.763953 0.733009,-0.733009 1.727322,-1.144867 2.763953,-1.144867 z"
       style="fill:#ff0000;fill-opacity:1;fill-rule:nonzero;stroke:#000000;stroke-opacity:1;stroke-width:1;stroke-linecap:butt;stroke-linejoin:round;stroke-miterlimit:10;stroke-dasharray:none"
       id="path3027" /><path
       d="m 93.2537,145.40655 c 0.616919,0 1.208654,0.24511 1.644881,0.68134 0.436228,0.43622 0.681332,1.02796 0.681332,1.64488 0,0.61692 -0.245104,1.20865 -0.681332,1.64488 -0.436227,0.43623 -1.027962,0.68133 -1.644881,0.68133 -0.616919,0 -1.208654,-0.2451 -1.644881,-0.68133 -0.436228,-0.43623 -0.681332,-1.02796 -0.681332,-1.64488 0,-0.61692 0.245104,-1.20866 0.681332,-1.64488 0.436227,-0.43623 1.027962,-0.68134 1.644881,-0.68134 z"
       style="fill:#ff0000;fill-opacity:1;fill-rule:nonzero;stroke:#000000;stroke-opacity:1;stroke-width:1;stroke-linecap:butt;stroke-linejoin:round;stroke-miterlimit:10;stroke-dasharray:none"
       id="path3029" /><path
       d="m 71.588349,192.35055 c 0.616919,0 1.208653,0.24511 1.644881,0.68134 0.436227,0.43622 0.681332,1.02796 0.681332,1.64488 0,0.61692 -0.245105,1.20865 -0.681332,1.64488 -0.436228,0.43623 -1.027962,0.68133 -1.644881,0.68133 -0.616919,0 -1.208654,-0.2451 -1.644882,-0.68133 -0.436227,-0.43623 -0.681332,-1.02796 -0.681332,-1.64488 0,-0.61692 0.245105,-1.20866 0.681332,-1.64488 0.436228,-0.43623 1.027963,-0.68134 1.644882,-0.68134 z"
       style="fill:#ff0000;fill-opacity:1;fill-rule:nonzero;stroke:#000000;stroke-opacity:1;stroke-width:1;stroke-linecap:butt;stroke-linejoin:round;stroke-miterlimit:10;stroke-dasharray:none"
       id="path3031" /><path
       d="m 157.21913,44.687006 c 0.87246,0 1.7093,0.34663 2.32622,0.963549 0.61691,0.616919 0.96354,1.453758 0.96354,2.326213 0,0.872455 -0.34663,1.709294 -0.96354,2.326213 -0.61692,0.616919 -1.45376,0.963549 -2.32622,0.963549 -0.87245,0 -1.70929,-0.34663 -2.32621,-0.963549 -0.61692,-0.616919 -0.96355,-1.453758 -0.96355,-2.326213 0,-0.872455 0.34663,-1.709294 0.96355,-2.326213 0.61692,-0.616919 1.45376,-0.963549 2.32621,-0.963549 z"
       style="fill:#ff0000;fill-opacity:1;fill-rule:nonzero;stroke:#000000;stroke-opacity:1;stroke-width:1;stroke-linecap:butt;stroke-linejoin:round;stroke-miterlimit:10;stroke-dasharray:none"
       id="path3033" /><path
       d="m 340.2536,46.947357 c 0.79174,0 1.55116,0.314562 2.111,0.874407 0.55985,0.559845 0.87441,1.319264 0.87441,2.111004 0,0.79174 -0.31456,1.551159 -0.87441,2.111004 -0.55984,0.559845 -1.31926,0.874407 -2.111,0.874407 -0.79174,0 -1.55116,-0.314562 -2.11101,-0.874407 -0.55984,-0.559845 -0.8744,-1.319264 -0.8744,-2.111004 0,-0.79174 0.31456,-1.551159 0.8744,-2.111004 0.55985,-0.559845 1.31927,-0.874407 2.11101,-0.874407 z"
       style="fill:#ff0000;fill-opacity:1;fill-rule:nonzero;stroke:#000000;stroke-opacity:1;stroke-width:1;stroke-linecap:butt;stroke-linejoin:round;stroke-miterlimit:10;stroke-dasharray:none"
       id="path3035" /><path
       d="m 79.408111,143.13048 c 0.701803,0 1.374956,0.27883 1.871205,0.77508 0.49625,0.49625 0.775079,1.16941 0.775079,1.87121 0,0.7018 -0.278829,1.37495 -0.775079,1.8712 -0.496249,0.49625 -1.169402,0.77508 -1.871205,0.77508 -0.701802,0 -1.374956,-0.27883 -1.871205,-0.77508 -0.496249,-0.49625 -0.775079,-1.1694 -0.775079,-1.8712 0,-0.7018 0.27883,-1.37496 0.775079,-1.87121 0.496249,-0.49625 1.169403,-0.77508 1.871205,-0.77508 z"
       style="fill:#ff0000;fill-opacity:1;fill-rule:nonzero;stroke:#000000;stroke-opacity:1;stroke-width:1;stroke-linecap:butt;stroke-linejoin:round;stroke-miterlimit:10;stroke-dasharray:none"
       id="path3037" /><path
       d="m 240.50439,248.31639 c 0.29925,0 0.58628,0.11889 0.79789,0.33049 0.2116,0.2116 0.33049,0.49864 0.33049,0.79789 0,0.29925 -0.11889,0.58628 -0.33049,0.79788 -0.21161,0.2116 -0.49864,0.3305 -0.79789,0.3305 -0.29925,0 -0.58628,-0.1189 -0.79788,-0.3305 -0.21161,-0.2116 -0.3305,-0.49863 -0.3305,-0.79788 0,-0.29925 0.11889,-0.58629 0.3305,-0.79789 0.2116,-0.2116 0.49863,-0.33049 0.79788,-0.33049 z"
       style="fill:#ff0000;fill-opacity:1;fill-rule:nonzero;stroke:#000000;stroke-opacity:1;stroke-width:1;stroke-linecap:butt;stroke-linejoin:round;stroke-miterlimit:10;stroke-dasharray:none"
       id="path3039" /><path
       d="m 71.588349,192.35055 c 0.616919,0 1.208653,0.24511 1.644881,0.68134 0.436227,0.43622 0.681332,1.02796 0.681332,1.64488 0,0.61692 -0.245105,1.20865 -0.681332,1.64488 -0.436228,0.43623 -1.027962,0.68133 -1.644881,0.68133 -0.616919,0 -1.208654,-0.2451 -1.644882,-0.68133 -0.436227,-0.43623 -0.681332,-1.02796 -0.681332,-1.64488 0,-0.61692 0.245105,-1.20866 0.681332,-1.64488 0.436228,-0.43623 1.027963,-0.68134 1.644882,-0.68134 z"
       style="fill:#ff0000;fill-opacity:1;fill-rule:nonzero;stroke:#000000;stroke-opacity:1;stroke-width:1;stroke-linecap:butt;stroke-linejoin:round;stroke-miterlimit:10;stroke-dasharray:none"
       id="path3041" /><path
       d="m 71.588349,243.74864 c 0.473155,0 0.926995,0.18799 1.261566,0.52256 0.334571,0.33457 0.522558,0.78841 0.522558,1.26157 0,0.47315 -0.187987,0.92699 -0.522558,1.26156 -0.334571,0.33458 -0.788411,0.52256 -1.261566,0.52256 -0.473156,0 -0.926995,-0.18798 -1.261567,-0.52256 -0.334571,-0.33457 -0.522557,-0.78841 -0.522557,-1.26156 0,-0.47316 0.187986,-0.927 0.522557,-1.26157 0.334572,-0.33457 0.788411,-0.52256 1.261567,-0.52256 z"
       style="fill:#ff0000;fill-opacity:1;fill-rule:nonzero;stroke:#000000;stroke-opacity:1;stroke-width:1;stroke-linecap:butt;stroke-linejoin:round;stroke-miterlimit:10;stroke-dasharray:none"
       id="path3043" /><path
       d="m 120.54426,196.80464 c 0.47315,0 0.92699,0.18799 1.26156,0.52256 0.33458,0.33457 0.52256,0.78841 0.52256,1.26157 0,0.47315 -0.18798,0.92699 -0.52256,1.26156 -0.33457,0.33458 -0.78841,0.52256 -1.26156,0.52256 -0.47316,0 -0.927,-0.18798 -1.26157,-0.52256 -0.33457,-0.33457 -0.52256,-0.78841 -0.52256,-1.26156 0,-0.47316 0.18799,-0.927 0.52256,-1.26157 0.33457,-0.33457 0.78841,-0.52256 1.26157,-0.52256 z"
       style="fill:#ff0000;fill-opacity:1;fill-rule:nonzero;stroke:#000000;stroke-opacity:1;stroke-width:1;stroke-linecap:butt;stroke-linejoin:round;stroke-miterlimit:10;stroke-dasharray:none"
       id="path3045" /><path
       d="m 340.2536,98.462555 c 0.61692,0 1.20865,0.245104 1.64488,0.681332 0.43623,0.436227 0.68133,1.027963 0.68133,1.644883 0,0.61692 -0.2451,1.20865 -0.68133,1.64488 -0.43623,0.43623 -1.02796,0.68133 -1.64488,0.68133 -0.61692,0 -1.20866,-0.2451 -1.64488,-0.68133 -0.43623,-0.43623 -0.68134,-1.02796 -0.68134,-1.64488 0,-0.61692 0.24511,-1.208656 0.68134,-1.644883 0.43622,-0.436228 1.02796,-0.681332 1.64488,-0.681332 z"
       style="fill:#ff0000;fill-opacity:1;fill-rule:nonzero;stroke:#000000;stroke-opacity:1;stroke-width:1;stroke-linecap:butt;stroke-linejoin:round;stroke-miterlimit:10;stroke-dasharray:none"
       id="path3047" /><path
       d="m 119.44494,35.639251 c 1.197,0 2.34514,0.475573 3.19154,1.321979 0.84641,0.846406 1.32198,1.994539 1.32198,3.191538 0,1.196999 -0.47557,2.345132 -1.32198,3.191538 -0.8464,0.846406 -1.99454,1.321979 -3.19154,1.321979 -1.19699,0 -2.34513,-0.475573 -3.19153,-1.321979 -0.84641,-0.846406 -1.32198,-1.994539 -1.32198,-3.191538 0,-1.196999 0.47557,-2.345132 1.32198,-3.191538 0.8464,-0.846406 1.99454,-1.321979 3.19153,-1.321979 z"
       style="fill:#ff0000;fill-opacity:1;fill-rule:nonzero;stroke:#000000;stroke-opacity:1;stroke-width:1;stroke-linecap:butt;stroke-linejoin:round;stroke-miterlimit:10;stroke-dasharray:none"
       id="path3049" /><path
       d="m 98.673706,37.88676 c 1.11969,0 2.193674,0.444857 2.985414,1.236597 0.79174,0.791741 1.23659,1.865721 1.23659,2.985411 0,1.11969 -0.44485,2.19367 -1.23659,2.985411 -0.79174,0.79174 -1.865724,1.236597 -2.985414,1.236597 -1.119689,0 -2.19367,-0.444857 -2.98541,-1.236597 -0.79174,-0.791741 -1.236598,-1.865721 -1.236598,-2.985411 0,-1.11969 0.444858,-2.19367 1.236598,-2.985411 0.79174,-0.79174 1.865721,-1.236597 2.98541,-1.236597 z"
       style="fill:#ff0000;fill-opacity:1;fill-rule:nonzero;stroke:#000000;stroke-opacity:1;stroke-width:1;stroke-linecap:butt;stroke-linejoin:round;stroke-miterlimit:10;stroke-dasharray:none"
       id="path3051" /><path
       d="m 303.5359,199.16279 c 0.36651,0 0.71805,0.14562 0.97721,0.40477 0.25916,0.25916 0.40477,0.6107 0.40477,0.97721 0,0.3665 -0.14561,0.71805 -0.40477,0.9772 -0.25916,0.25916 -0.6107,0.40477 -0.97721,0.40477 -0.3665,0 -0.71804,-0.14561 -0.9772,-0.40477 -0.25916,-0.25915 -0.40477,-0.6107 -0.40477,-0.9772 0,-0.36651 0.14561,-0.71805 0.40477,-0.97721 0.25916,-0.25915 0.6107,-0.40477 0.9772,-0.40477 z"
       style="fill:#ff0000;fill-opacity:1;fill-rule:nonzero;stroke:#000000;stroke-opacity:1;stroke-width:1;stroke-linecap:butt;stroke-linejoin:round;stroke-miterlimit:10;stroke-dasharray:none"
       id="path3053" /></g></g><path
   d="m 54,29.34 0,4"
   style="fill:none;stroke:#000000;stroke-opacity:1;stroke-width:0.5;stroke-linecap:butt;stroke-linejoin:round;stroke-miterlimit:10;stroke-dasharray:none"
   id="path3055" /><path
   d="m 54,264.06 0,-4"
   style="fill:none;stroke:#000000;stroke-opacity:1;stroke-width:0.5;stroke-linecap:butt;stroke-linejoin:round;stroke-miterlimit:10;stroke-dasharray:none"
   id="path3057" /><text
   transform="matrix(1,0,0,-1,45.25,16.59)"
   id="text3059"><tspan
     style="fill:#000000;fill-opacity:1;fill-rule:nonzero;stroke:none;font-family:BitstreamVeraSans;font-variant:normal;font-weight:normal;font-size:12;writing-mode:lr;-inkscape-font-specification:BitstreamVeraSans-Roman"
     x="0 7.632 11.448"
     y="0"
     sodipodi:role="line"
     id="tspan3061">5.4</tspan></text>

<path
   d="m 109.8,29.34 0,4"
   style="fill:none;stroke:#000000;stroke-opacity:1;stroke-width:0.5;stroke-linecap:butt;stroke-linejoin:round;stroke-miterlimit:10;stroke-dasharray:none"
   id="path3063" /><path
   d="m 109.8,264.06 0,-4"
   style="fill:none;stroke:#000000;stroke-opacity:1;stroke-width:0.5;stroke-linecap:butt;stroke-linejoin:round;stroke-miterlimit:10;stroke-dasharray:none"
   id="path3065" /><text
   transform="matrix(1,0,0,-1,101.09687,16.43375)"
   id="text3067"><tspan
     style="fill:#000000;fill-opacity:1;fill-rule:nonzero;stroke:none;font-family:BitstreamVeraSans;font-variant:normal;font-weight:normal;font-size:12;writing-mode:lr;-inkscape-font-specification:BitstreamVeraSans-Roman"
     x="0 7.632 11.448"
     y="0"
     sodipodi:role="line"
     id="tspan3069">5.6</tspan></text>

<path
   d="m 165.6,29.34 0,4"
   style="fill:none;stroke:#000000;stroke-opacity:1;stroke-width:0.5;stroke-linecap:butt;stroke-linejoin:round;stroke-miterlimit:10;stroke-dasharray:none"
   id="path3071" /><path
   d="m 165.6,264.06 0,-4"
   style="fill:none;stroke:#000000;stroke-opacity:1;stroke-width:0.5;stroke-linecap:butt;stroke-linejoin:round;stroke-miterlimit:10;stroke-dasharray:none"
   id="path3073" /><text
   transform="matrix(1,0,0,-1,156.92813,16.43375)"
   id="text3075"><tspan
     style="fill:#000000;fill-opacity:1;fill-rule:nonzero;stroke:none;font-family:BitstreamVeraSans;font-variant:normal;font-weight:normal;font-size:12;writing-mode:lr;-inkscape-font-specification:BitstreamVeraSans-Roman"
     x="0 7.632 11.448"
     y="0"
     sodipodi:role="line"
     id="tspan3077">5.8</tspan></text>

<path
   d="m 221.4,29.34 0,4"
   style="fill:none;stroke:#000000;stroke-opacity:1;stroke-width:0.5;stroke-linecap:butt;stroke-linejoin:round;stroke-miterlimit:10;stroke-dasharray:none"
   id="path3079" /><path
   d="m 221.4,264.06 0,-4"
   style="fill:none;stroke:#000000;stroke-opacity:1;stroke-width:0.5;stroke-linecap:butt;stroke-linejoin:round;stroke-miterlimit:10;stroke-dasharray:none"
   id="path3081" /><text
   transform="matrix(1,0,0,-1,212.67344,16.43375)"
   id="text3083"><tspan
     style="fill:#000000;fill-opacity:1;fill-rule:nonzero;stroke:none;font-family:BitstreamVeraSans;font-variant:normal;font-weight:normal;font-size:12;writing-mode:lr;-inkscape-font-specification:BitstreamVeraSans-Roman"
     x="0 7.632 11.448"
     y="0"
     sodipodi:role="line"
     id="tspan3085">6.0</tspan></text>

<path
   d="m 277.2,29.34 0,4"
   style="fill:none;stroke:#000000;stroke-opacity:1;stroke-width:0.5;stroke-linecap:butt;stroke-linejoin:round;stroke-miterlimit:10;stroke-dasharray:none"
   id="path3087" /><path
   d="m 277.2,264.06 0,-4"
   style="fill:none;stroke:#000000;stroke-opacity:1;stroke-width:0.5;stroke-linecap:butt;stroke-linejoin:round;stroke-miterlimit:10;stroke-dasharray:none"
   id="path3089" /><text
   transform="matrix(1,0,0,-1,268.67656,16.43375)"
   id="text3091"><tspan
     style="fill:#000000;fill-opacity:1;fill-rule:nonzero;stroke:none;font-family:BitstreamVeraSans;font-variant:normal;font-weight:normal;font-size:12;writing-mode:lr;-inkscape-font-specification:BitstreamVeraSans-Roman"
     x="0 7.632 11.448"
     y="0"
     sodipodi:role="line"
     id="tspan3093">6.2</tspan></text>

<path
   d="m 333,29.34 0,4"
   style="fill:none;stroke:#000000;stroke-opacity:1;stroke-width:0.5;stroke-linecap:butt;stroke-linejoin:round;stroke-miterlimit:10;stroke-dasharray:none"
   id="path3095" /><path
   d="m 333,264.06 0,-4"
   style="fill:none;stroke:#000000;stroke-opacity:1;stroke-width:0.5;stroke-linecap:butt;stroke-linejoin:round;stroke-miterlimit:10;stroke-dasharray:none"
   id="path3097" /><text
   transform="matrix(1,0,0,-1,324.21094,16.43375)"
   id="text3099"><tspan
     style="fill:#000000;fill-opacity:1;fill-rule:nonzero;stroke:none;font-family:BitstreamVeraSans;font-variant:normal;font-weight:normal;font-size:12;writing-mode:lr;-inkscape-font-specification:BitstreamVeraSans-Roman"
     x="0 7.632 11.448"
     y="0"
     sodipodi:role="line"
     id="tspan3101">6.4</tspan></text>

<path
   d="m 388.8,29.34 0,4"
   style="fill:none;stroke:#000000;stroke-opacity:1;stroke-width:0.5;stroke-linecap:butt;stroke-linejoin:round;stroke-miterlimit:10;stroke-dasharray:none"
   id="path3103" /><path
   d="m 388.8,264.06 0,-4"
   style="fill:none;stroke:#000000;stroke-opacity:1;stroke-width:0.5;stroke-linecap:butt;stroke-linejoin:round;stroke-miterlimit:10;stroke-dasharray:none"
   id="path3105" /><text
   transform="matrix(1,0,0,-1,380.05781,16.43375)"
   id="text3107"><tspan
     style="fill:#000000;fill-opacity:1;fill-rule:nonzero;stroke:none;font-family:BitstreamVeraSans;font-variant:normal;font-weight:normal;font-size:12;writing-mode:lr;-inkscape-font-specification:BitstreamVeraSans-Roman"
     x="0 7.632 11.448"
     y="0"
     sodipodi:role="line"
     id="tspan3109">6.6</tspan></text>

<flowRoot
   transform="matrix(0.8,0,0,-0.8,0.74143144,312.67724)"
   style="font-size:10px;font-style:normal;font-variant:normal;font-weight:normal;font-stretch:normal;line-height:125%;letter-spacing:0px;word-spacing:0px;fill:#000000;fill-opacity:1;stroke:none;font-family:Times New Roman;-inkscape-font-specification:Sans"
   id="flowRoot3396"
   xml:space="preserve"><flowRegion
     id="flowRegion3398"><rect
       y="374.47327"
       x="241.58339"
       height="18.84474"
       width="75.996819"
       id="rect3400" /></flowRegion><flowPara
     style="font-size:14px;font-style:italic;-inkscape-font-specification:'Times New Roman, Italic'"
     id="flowPara3402">Losses (W)</flowPara></flowRoot><flowRoot
   style="font-size:10px;font-style:normal;font-variant:normal;font-weight:normal;font-stretch:normal;line-height:125%;letter-spacing:0px;word-spacing:0px;fill:#000000;fill-opacity:1;stroke:none;font-family:Times New Roman;-inkscape-font-specification:Sans"
   id="flowRoot3404"
   xml:space="preserve"
   transform="translate(186.46854,-3.4567104)"><flowRegion
     id="flowRegion3406"><rect
       y="382.1965"
       x="294.1015"
       height="10.194695"
       width="9.8857651"
       id="rect3408" /></flowRegion><flowPara
     id="flowPara3410"></flowPara></flowRoot><path
   d="m 54,29.34 4,0"
   style="fill:none;stroke:#000000;stroke-opacity:1;stroke-width:0.5;stroke-linecap:butt;stroke-linejoin:round;stroke-miterlimit:10;stroke-dasharray:none"
   id="path3129" /><path
   d="m 388.8,29.34 -4,0"
   style="fill:none;stroke:#000000;stroke-opacity:1;stroke-width:0.5;stroke-linecap:butt;stroke-linejoin:round;stroke-miterlimit:10;stroke-dasharray:none"
   id="path3131" /><text
   transform="matrix(1,0,0,-1,44.78125,24.965)"
   id="text3133"><tspan
     style="fill:#000000;fill-opacity:1;fill-rule:nonzero;stroke:none;font-family:BitstreamVeraSans;font-variant:normal;font-weight:normal;font-size:12;writing-mode:lr;-inkscape-font-specification:BitstreamVeraSans-Roman"
     x="0"
     y="0"
     id="tspan3135">1</tspan></text>

<path
   d="m 54,68.46 4,0"
   style="fill:none;stroke:#000000;stroke-opacity:1;stroke-width:0.5;stroke-linecap:butt;stroke-linejoin:round;stroke-miterlimit:10;stroke-dasharray:none"
   id="path3137" /><path
   d="m 388.8,68.46 -4,0"
   style="fill:none;stroke:#000000;stroke-opacity:1;stroke-width:0.5;stroke-linecap:butt;stroke-linejoin:round;stroke-miterlimit:10;stroke-dasharray:none"
   id="path3139" /><text
   transform="matrix(1,0,0,-1,44.4375,64.006875)"
   id="text3141"><tspan
     style="fill:#000000;fill-opacity:1;fill-rule:nonzero;stroke:none;font-family:BitstreamVeraSans;font-variant:normal;font-weight:normal;font-size:12;writing-mode:lr;-inkscape-font-specification:BitstreamVeraSans-Roman"
     x="0"
     y="0"
     id="tspan3143">2</tspan></text>

<path
   d="m 54,107.58 4,0"
   style="fill:none;stroke:#000000;stroke-opacity:1;stroke-width:0.5;stroke-linecap:butt;stroke-linejoin:round;stroke-miterlimit:10;stroke-dasharray:none"
   id="path3145" /><path
   d="m 388.8,107.58 -4,0"
   style="fill:none;stroke:#000000;stroke-opacity:1;stroke-width:0.5;stroke-linecap:butt;stroke-linejoin:round;stroke-miterlimit:10;stroke-dasharray:none"
   id="path3147" /><text
   transform="matrix(1,0,0,-1,44.25,103.21281)"
   id="text3149"><tspan
     style="fill:#000000;fill-opacity:1;fill-rule:nonzero;stroke:none;font-family:BitstreamVeraSans;font-variant:normal;font-weight:normal;font-size:12;writing-mode:lr;-inkscape-font-specification:BitstreamVeraSans-Roman"
     x="0"
     y="0"
     id="tspan3151">3</tspan></text>

<path
   d="m 54,146.7 4,0"
   style="fill:none;stroke:#000000;stroke-opacity:1;stroke-width:0.5;stroke-linecap:butt;stroke-linejoin:round;stroke-miterlimit:10;stroke-dasharray:none"
   id="path3153" /><path
   d="m 388.8,146.7 -4,0"
   style="fill:none;stroke:#000000;stroke-opacity:1;stroke-width:0.5;stroke-linecap:butt;stroke-linejoin:round;stroke-miterlimit:10;stroke-dasharray:none"
   id="path3155" /><text
   transform="matrix(1,0,0,-1,43.625,142.325)"
   id="text3157"><tspan
     style="fill:#000000;fill-opacity:1;fill-rule:nonzero;stroke:none;font-family:BitstreamVeraSans;font-variant:normal;font-weight:normal;font-size:12;writing-mode:lr;-inkscape-font-specification:BitstreamVeraSans-Roman"
     x="0"
     y="0"
     id="tspan3159">4</tspan></text>

<path
   d="m 54,185.82 4,0"
   style="fill:none;stroke:#000000;stroke-opacity:1;stroke-width:0.5;stroke-linecap:butt;stroke-linejoin:round;stroke-miterlimit:10;stroke-dasharray:none"
   id="path3161" /><path
   d="m 388.8,185.82 -4,0"
   style="fill:none;stroke:#000000;stroke-opacity:1;stroke-width:0.5;stroke-linecap:butt;stroke-linejoin:round;stroke-miterlimit:10;stroke-dasharray:none"
   id="path3163" /><text
   transform="matrix(1,0,0,-1,44.328125,181.53094)"
   id="text3165"><tspan
     style="fill:#000000;fill-opacity:1;fill-rule:nonzero;stroke:none;font-family:BitstreamVeraSans;font-variant:normal;font-weight:normal;font-size:12;writing-mode:lr;-inkscape-font-specification:BitstreamVeraSans-Roman"
     x="0"
     y="0"
     id="tspan3167">5</tspan></text>

<path
   d="m 54,224.94 4,0"
   style="fill:none;stroke:#000000;stroke-opacity:1;stroke-width:0.5;stroke-linecap:butt;stroke-linejoin:round;stroke-miterlimit:10;stroke-dasharray:none"
   id="path3169" /><path
   d="m 388.8,224.94 -4,0"
   style="fill:none;stroke:#000000;stroke-opacity:1;stroke-width:0.5;stroke-linecap:butt;stroke-linejoin:round;stroke-miterlimit:10;stroke-dasharray:none"
   id="path3171" /><text
   transform="matrix(1,0,0,-1,43.96875,220.57281)"
   id="text3173"><tspan
     style="fill:#000000;fill-opacity:1;fill-rule:nonzero;stroke:none;font-family:BitstreamVeraSans;font-variant:normal;font-weight:normal;font-size:12;writing-mode:lr;-inkscape-font-specification:BitstreamVeraSans-Roman"
     x="0"
     y="0"
     id="tspan3175">6</tspan></text>

<path
   d="m 54,264.06 4,0"
   style="fill:none;stroke:#000000;stroke-opacity:1;stroke-width:0.5;stroke-linecap:butt;stroke-linejoin:round;stroke-miterlimit:10;stroke-dasharray:none"
   id="path3177" /><path
   d="m 388.8,264.06 -4,0"
   style="fill:none;stroke:#000000;stroke-opacity:1;stroke-width:0.5;stroke-linecap:butt;stroke-linejoin:round;stroke-miterlimit:10;stroke-dasharray:none"
   id="path3179" /><text
   transform="matrix(1,0,0,-1,44.375,259.685)"
   id="text3181"><tspan
     style="fill:#000000;fill-opacity:1;fill-rule:nonzero;stroke:none;font-family:BitstreamVeraSans;font-variant:normal;font-weight:normal;font-size:12;writing-mode:lr;-inkscape-font-specification:BitstreamVeraSans-Roman"
     x="0"
     y="0"
     id="tspan3183">7</tspan></text>

<path
   d="m 54,264.06 334.8,0"
   style="fill:none;stroke:#000000;stroke-opacity:1;stroke-width:1;stroke-linecap:square;stroke-linejoin:round;stroke-miterlimit:10;stroke-dasharray:none"
   id="path3195" /><path
   d="m 388.8,29.34 0,234.72"
   style="fill:none;stroke:#000000;stroke-opacity:1;stroke-width:1;stroke-linecap:square;stroke-linejoin:round;stroke-miterlimit:10;stroke-dasharray:none"
   id="path3197" /><path
   d="m 54,29.34 334.8,0"
   style="fill:none;stroke:#000000;stroke-opacity:1;stroke-width:1;stroke-linecap:square;stroke-linejoin:round;stroke-miterlimit:10;stroke-dasharray:none"
   id="path3199" /><path
   d="m 54,29.34 0,234.72"
   style="fill:none;stroke:#000000;stroke-opacity:1;stroke-width:1;stroke-linecap:square;stroke-linejoin:round;stroke-miterlimit:10;stroke-dasharray:none"
   id="path3201" /><text
   xml:space="preserve"
   style="font-size:8px;font-style:normal;font-variant:normal;font-weight:normal;font-stretch:normal;text-align:center;line-height:125%;letter-spacing:0px;word-spacing:0px;text-anchor:middle;fill:#000000;fill-opacity:1;stroke:none;font-family:Times New Roman;-inkscape-font-specification:Times New Roman"
   x="184.13594"
   y="-83.855629"
   id="text3203"
   sodipodi:linespacing="125%"
   transform="scale(1,-1)"><tspan
     sodipodi:role="line"
     id="tspan3205"
     x="186.13594"
     y="-83.855629"
     style="font-size:16px">Best solution if area </tspan><tspan
     sodipodi:role="line"
     x="184.13594"
     y="-63.855629"
     id="tspan3207"
     style="font-size:16px">is not important</tspan></text>

<path
   style="fill:none;stroke:#000000;stroke-width:1px;stroke-linecap:butt;stroke-linejoin:miter;stroke-opacity:1;marker-start:none;marker-end:url(#Arrow1Lend)"
   d="M 153.64715,263.12603 105.9466,305.14806"
   id="path3213"
   inkscape:path-effect="#path-effect3215"
   inkscape:original-d="M 153.64715,263.12603 105.9466,305.14806"
   inkscape:connector-curvature="0"
   transform="matrix(0.8,0,0,-0.8,0,293.4)"
   sodipodi:nodetypes="cc" /><flowRoot
   transform="matrix(0,0.8,0.8,0,-273.03857,-63.837752)"
   style="font-size:10px;font-style:normal;font-variant:normal;font-weight:normal;font-stretch:normal;line-height:125%;letter-spacing:0px;word-spacing:0px;fill:#000000;fill-opacity:1;stroke:none;font-family:Times New Roman;-inkscape-font-specification:Sans"
   id="flowRoot3396-4"
   xml:space="preserve"><flowRegion
     id="flowRegion3398-0"><rect
       y="374.47327"
       x="241.58339"
       height="18.84474"
       width="75.996819"
       id="rect3400-9" /></flowRegion><flowPara
     style="font-size:14px;font-style:italic;-inkscape-font-specification:'Times New Roman, Italic'"
     id="flowPara3402-4">Cost ($)</flowPara></flowRoot></g></svg>