<?xml version="1.0" encoding="UTF-8" standalone="no"?>
<!-- Created with Inkscape (http://www.inkscape.org/) -->

<svg
   xmlns:dc="http://purl.org/dc/elements/1.1/"
   xmlns:cc="http://creativecommons.org/ns#"
   xmlns:rdf="http://www.w3.org/1999/02/22-rdf-syntax-ns#"
   xmlns:svg="http://www.w3.org/2000/svg"
   xmlns="http://www.w3.org/2000/svg"
   xmlns:sodipodi="http://sodipodi.sourceforge.net/DTD/sodipodi-0.dtd"
   xmlns:inkscape="http://www.inkscape.org/namespaces/inkscape"
   width="450.44547"
   height="197.55118"
   id="svg2"
   version="1.1"
   inkscape:version="0.48.4 r9939"
   sodipodi:docname="pareto.svg">
  <sodipodi:namedview
     id="base"
     pagecolor="#ffffff"
     bordercolor="#666666"
     borderopacity="1.0"
     inkscape:pageopacity="0.0"
     inkscape:pageshadow="2"
     inkscape:zoom="1.979899"
     inkscape:cx="204.60228"
     inkscape:cy="50.031727"
     inkscape:document-units="px"
     inkscape:current-layer="layer1"
     showgrid="false"
     inkscape:window-width="1920"
     inkscape:window-height="1022"
     inkscape:window-x="0"
     inkscape:window-y="30"
     inkscape:window-maximized="1"
     fit-margin-top="0"
     fit-margin-left="0"
     fit-margin-right="0"
     fit-margin-bottom="0">
    <inkscape:grid
       type="xygrid"
       id="grid2818"
       empspacing="5"
       visible="true"
       enabled="true"
       snapvisiblegridlinesonly="true"
       originx="-189.99986px"
       originy="-488.0055px" />
  </sodipodi:namedview>
  <defs
     id="defs4">
    <inkscape:perspective
       sodipodi:type="inkscape:persp3d"
       inkscape:vp_x="0 : 526.18109 : 1"
       inkscape:vp_y="0 : 1000 : 0"
       inkscape:vp_z="744.09448 : 526.18109 : 1"
       inkscape:persp3d-origin="372.04724 : 350.78739 : 1"
       id="perspective10" />
    <inkscape:perspective
       id="perspective3978"
       inkscape:persp3d-origin="0.5 : 0.33333333 : 1"
       inkscape:vp_z="1 : 0.5 : 1"
       inkscape:vp_y="0 : 1000 : 0"
       inkscape:vp_x="0 : 0.5 : 1"
       sodipodi:type="inkscape:persp3d" />
  </defs>
  <metadata
     id="metadata7">
    <rdf:RDF>
      <cc:Work
         rdf:about="">
        <dc:format>image/svg+xml</dc:format>
        <dc:type
           rdf:resource="http://purl.org/dc/dcmitype/StillImage" />
        <dc:title />
      </cc:Work>
    </rdf:RDF>
  </metadata>
  <g
     inkscape:label="Layer 1"
     inkscape:groupmode="layer"
     id="layer1"
     transform="translate(-189.99986,-366.8055)">
    <rect
       y="367.36218"
       x="243.23923"
       height="37.112"
       width="249.39249"
       id="rect3605"
       style="fill:#f9f90e;fill-opacity:0.14285715;stroke:#7c8118;stroke-width:1.11335945;stroke-linejoin:miter;stroke-miterlimit:4;stroke-opacity:1;stroke-dasharray:none;stroke-dashoffset:0" />
    <rect
       style="fill:#f9f90e;fill-opacity:0.14285715;stroke:#7c8118;stroke-width:1.11335945;stroke-linejoin:miter;stroke-miterlimit:4;stroke-opacity:1;stroke-dasharray:none;stroke-dashoffset:0"
       id="rect3607"
       width="240.48564"
       height="95.006691"
       x="252.1461"
       y="367.36218" />
    <rect
       y="367.36218"
       x="287.77359"
       height="130.63419"
       width="204.85809"
       id="rect3609"
       style="fill:#f9f90e;fill-opacity:0.14285715;stroke:#7c8118;stroke-width:1.11335945;stroke-linejoin:miter;stroke-miterlimit:4;stroke-opacity:1;stroke-dasharray:none;stroke-dashoffset:0" />
    <rect
       style="fill:#f9f90e;fill-opacity:0.14285715;stroke:#7c8118;stroke-width:1.11335945;stroke-linejoin:miter;stroke-miterlimit:4;stroke-opacity:1;stroke-dasharray:none;stroke-dashoffset:0"
       id="rect3611"
       width="160.32373"
       height="161.80826"
       x="332.30798"
       y="367.36218" />
    <rect
       style="fill:none;stroke:#000000;stroke-width:0.89068758;stroke-linejoin:miter;stroke-miterlimit:4;stroke-opacity:1;stroke-dasharray:none;stroke-dashoffset:0"
       id="rect2816"
       width="280.56659"
       height="178.13751"
       x="212.06514"
       y="367.36218" />
    <path
       style="fill:none;stroke:#000000;stroke-width:0.89068758px;stroke-linecap:butt;stroke-linejoin:miter;stroke-opacity:1"
       d="m 207.61171,383.5565 8.90687,0"
       id="path3613"
       inkscape:connector-curvature="0" />
    <path
       id="path3615"
       d="m 207.61171,399.75082 8.90687,0"
       style="fill:none;stroke:#000000;stroke-width:0.89068758px;stroke-linecap:butt;stroke-linejoin:miter;stroke-opacity:1"
       inkscape:connector-curvature="0" />
    <path
       style="fill:none;stroke:#000000;stroke-width:0.89068758px;stroke-linecap:butt;stroke-linejoin:miter;stroke-opacity:1"
       d="m 207.61171,415.94514 8.90687,0"
       id="path3617"
       inkscape:connector-curvature="0" />
    <path
       id="path3619"
       d="m 207.61171,432.13945 8.90687,0"
       style="fill:none;stroke:#000000;stroke-width:0.89068758px;stroke-linecap:butt;stroke-linejoin:miter;stroke-opacity:1"
       inkscape:connector-curvature="0" />
    <path
       style="fill:none;stroke:#000000;stroke-width:0.89068758px;stroke-linecap:butt;stroke-linejoin:miter;stroke-opacity:1"
       d="m 207.61171,448.33378 8.90687,0"
       id="path3621"
       inkscape:connector-curvature="0" />
    <path
       id="path3623"
       d="m 207.61171,464.5281 8.90687,0"
       style="fill:none;stroke:#000000;stroke-width:0.89068758px;stroke-linecap:butt;stroke-linejoin:miter;stroke-opacity:1"
       inkscape:connector-curvature="0" />
    <path
       id="path3625"
       d="m 207.61171,480.72242 8.90687,0"
       style="fill:none;stroke:#000000;stroke-width:0.89068758px;stroke-linecap:butt;stroke-linejoin:miter;stroke-opacity:1"
       inkscape:connector-curvature="0" />
    <path
       style="fill:none;stroke:#000000;stroke-width:0.89068758px;stroke-linecap:butt;stroke-linejoin:miter;stroke-opacity:1"
       d="m 207.61171,496.91674 8.90687,0"
       id="path3627"
       inkscape:connector-curvature="0" />
    <path
       id="path3629"
       d="m 207.61171,513.11105 8.90687,0"
       style="fill:none;stroke:#000000;stroke-width:0.89068758px;stroke-linecap:butt;stroke-linejoin:miter;stroke-opacity:1"
       inkscape:connector-curvature="0" />
    <path
       style="fill:none;stroke:#000000;stroke-width:0.89068758px;stroke-linecap:butt;stroke-linejoin:miter;stroke-opacity:1"
       d="m 207.61171,529.30537 8.90687,0"
       id="path3631"
       inkscape:connector-curvature="0" />
    <path
       id="path3633"
       d="m 207.61171,367.36218 8.90687,0"
       style="fill:none;stroke:#000000;stroke-width:0.89068758px;stroke-linecap:butt;stroke-linejoin:miter;stroke-opacity:1"
       inkscape:connector-curvature="0" />
    <path
       style="fill:none;stroke:#000000;stroke-width:0.89068758px;stroke-linecap:butt;stroke-linejoin:miter;stroke-opacity:1"
       d="m 467.12561,541.04625 0,8.90688"
       id="path3637"
       inkscape:connector-curvature="0" />
    <path
       id="path3639"
       d="m 441.61956,541.04625 0,8.90688"
       style="fill:none;stroke:#000000;stroke-width:0.89068758px;stroke-linecap:butt;stroke-linejoin:miter;stroke-opacity:1"
       inkscape:connector-curvature="0" />
    <path
       style="fill:none;stroke:#000000;stroke-width:0.89068758px;stroke-linecap:butt;stroke-linejoin:miter;stroke-opacity:1"
       d="m 416.11352,541.04625 0,8.90688"
       id="path3641"
       inkscape:connector-curvature="0" />
    <path
       id="path3643"
       d="m 390.60748,541.04625 0,8.90688"
       style="fill:none;stroke:#000000;stroke-width:0.89068758px;stroke-linecap:butt;stroke-linejoin:miter;stroke-opacity:1"
       inkscape:connector-curvature="0" />
    <path
       style="fill:none;stroke:#000000;stroke-width:0.89068758px;stroke-linecap:butt;stroke-linejoin:miter;stroke-opacity:1"
       d="m 365.10144,541.04625 0,8.90688"
       id="path3645"
       inkscape:connector-curvature="0" />
    <path
       id="path3647"
       d="m 339.59539,541.04625 0,8.90688"
       style="fill:none;stroke:#000000;stroke-width:0.89068758px;stroke-linecap:butt;stroke-linejoin:miter;stroke-opacity:1"
       inkscape:connector-curvature="0" />
    <path
       style="fill:none;stroke:#000000;stroke-width:0.89068758px;stroke-linecap:butt;stroke-linejoin:miter;stroke-opacity:1"
       d="m 314.08935,541.04625 0,8.90688"
       id="path3649"
       inkscape:connector-curvature="0" />
    <path
       id="path3651"
       d="m 288.58331,541.04625 0,8.90688"
       style="fill:none;stroke:#000000;stroke-width:0.89068758px;stroke-linecap:butt;stroke-linejoin:miter;stroke-opacity:1"
       inkscape:connector-curvature="0" />
    <path
       style="fill:none;stroke:#000000;stroke-width:0.89068758px;stroke-linecap:butt;stroke-linejoin:miter;stroke-opacity:1"
       d="m 263.07725,541.04625 0,8.90688"
       id="path3653"
       inkscape:connector-curvature="0" />
    <path
       id="path3655"
       d="m 237.57119,541.04625 0,8.90688"
       style="fill:none;stroke:#000000;stroke-width:0.89068758px;stroke-linecap:butt;stroke-linejoin:miter;stroke-opacity:1"
       inkscape:connector-curvature="0" />
    <path
       style="fill:none;stroke:#000000;stroke-width:0.89068758px;stroke-linecap:butt;stroke-linejoin:miter;stroke-opacity:1"
       d="m 492.63166,541.04625 0,8.90688"
       id="path3657"
       inkscape:connector-curvature="0" />
    <path
       d="m 245,417.36218 c 0,2.76143 -2.23858,5 -5,5 -2.76142,0 -5,-2.23857 -5,-5 0,-2.76142 2.23858,-5 5,-5 2.76142,0 5,2.23858 5,5 z"
       sodipodi:ry="5"
       sodipodi:rx="5"
       sodipodi:cy="417.36218"
       sodipodi:cx="240"
       id="path3663"
       style="fill:#e6d0ca;fill-opacity:1;stroke:#000000;stroke-width:1.25;stroke-linejoin:miter;stroke-miterlimit:4;stroke-opacity:1;stroke-dasharray:none;stroke-dashoffset:0"
       sodipodi:type="arc"
       transform="matrix(0.89068756,0,0,0.89068756,38.381071,89.145075)" />
    <path
       transform="matrix(0.89068756,0,0,0.89068756,74.008574,124.77258)"
       sodipodi:type="arc"
       style="fill:#e6d0ca;fill-opacity:1;stroke:#000000;stroke-width:1.25;stroke-linejoin:miter;stroke-miterlimit:4;stroke-opacity:1;stroke-dasharray:none;stroke-dashoffset:0"
       id="path3665"
       sodipodi:cx="240"
       sodipodi:cy="417.36218"
       sodipodi:rx="5"
       sodipodi:ry="5"
       d="m 245,417.36218 c 0,2.76143 -2.23858,5 -5,5 -2.76142,0 -5,-2.23857 -5,-5 0,-2.76142 2.23858,-5 5,-5 2.76142,0 5,2.23858 5,5 z" />
    <path
       d="m 245,417.36218 c 0,2.76143 -2.23858,5 -5,5 -2.76142,0 -5,-2.23857 -5,-5 0,-2.76142 2.23858,-5 5,-5 2.76142,0 5,2.23858 5,5 z"
       sodipodi:ry="5"
       sodipodi:rx="5"
       sodipodi:cy="417.36218"
       sodipodi:cx="240"
       id="path3667"
       style="fill:#e6d0ca;fill-opacity:1;stroke:#000000;stroke-width:1.25;stroke-linejoin:miter;stroke-miterlimit:4;stroke-opacity:1;stroke-dasharray:none;stroke-dashoffset:0"
       sodipodi:type="arc"
       transform="matrix(0.89068756,0,0,0.89068756,118.54295,155.94664)" />
    <path
       transform="matrix(0.89068756,0,0,0.89068756,29.879022,31.250381)"
       sodipodi:type="arc"
       style="fill:#e6d0ca;fill-opacity:1;stroke:#000000;stroke-width:1.25;stroke-linejoin:miter;stroke-miterlimit:4;stroke-opacity:1;stroke-dasharray:none;stroke-dashoffset:0"
       id="path3671"
       sodipodi:cx="240"
       sodipodi:cy="417.36218"
       sodipodi:rx="5"
       sodipodi:ry="5"
       d="m 245,417.36218 c 0,2.76143 -2.23858,5 -5,5 -2.76142,0 -5,-2.23857 -5,-5 0,-2.76142 2.23858,-5 5,-5 2.76142,0 5,2.23858 5,5 z" />
    <path
       id="path3726"
       d="m 326.33012,556.13483 0,-0.18014 -0.0128,-0.193 -0.0128,-0.18014 -0.0257,-0.18014 -0.0386,-0.18013 -0.0386,-0.16727 -0.0515,-0.16727 -0.0515,-0.1544 -0.0643,-0.15441 -0.0772,-0.1544 -0.0643,-0.14154 -0.0901,-0.14153 -0.0901,-0.12868 -0.0901,-0.12867 -0.10294,-0.12867 -0.10293,-0.1158 -0.11581,-0.10293 -0.1158,-0.10294 -0.11581,-0.10294 -0.12867,-0.0901 -0.12866,-0.0901 -0.14154,-0.0772 -0.14153,-0.0643 -0.14154,-0.0643 -0.1544,-0.0643 -0.15441,-0.0515 -0.1544,-0.0386 -0.16727,-0.0386 -0.16728,-0.0257 -0.16727,-0.0129 -0.18013,-0.0129 -0.18014,-0.0128 -0.0643,0.32167 c 1.04223,0 2.20025,0.72055 2.20025,2.63773 0,0.91355 -0.3474,2.9208 -1.62123,4.49057 -0.61762,0.78488 -1.65984,1.54404 -2.74066,1.54404 l 0,0 c -1.27383,0 -2.16166,-1.04223 -2.16166,-2.72781 0,-0.56614 0.18014,-2.44471 1.15803,-3.93728 0.88782,-1.33816 2.14878,-2.00725 3.16527,-2.00725 l 0.0643,-0.32167 c -2.7664,0 -5.58426,2.90793 -5.58426,5.90593 0,2.12305 1.4411,3.42262 3.28107,3.42262 2.71494,0 5.5714,-2.81787 5.5714,-5.88021 z"
       style="font-style:normal;font-variant:normal;font-weight:normal;font-stretch:normal;letter-spacing:normal;word-spacing:normal;text-anchor:start;fill:#000000;stroke:#000000;stroke-width:0;stroke-linecap:butt;stroke-linejoin:miter;stroke-miterlimit:10.43299961;stroke-opacity:1;stroke-dasharray:none;stroke-dashoffset:0"
       inkscape:connector-curvature="0" />
    <path
       id="path3728"
       d="m 330.04867,552.96956 0,0 0,0 0,0 0,0 0,0 0,-0.0129 0,0 0,0 0,-0.0128 0,0 0,-0.0129 -0.0128,0 0,-0.0128 0,0 0,-0.0129 0,0 -0.0128,-0.0128 0,0 0,-0.0128 -0.0129,0 0,0 -0.0128,-0.0129 0,0 0,0 0,0 -0.0128,-0.0128 0,0 0,0 -0.0128,0 0,0 0,0 -0.0129,-0.0129 0,0 0,0 -0.0128,0 0,0 -0.0128,0 0,0 -0.0129,0 0,-0.0129 -0.0128,0 0,0 -0.0128,0 0,0 -0.0129,0 c -0.29594,0 -1.23522,0.10294 -1.56976,0.12867 -0.10294,0.0129 -0.24448,0.0257 -0.24448,0.25734 0,0.15441 0.11581,0.15441 0.30881,0.15441 0.61761,0 0.64335,0.0901 0.64335,0.21873 0,0.0901 -0.1158,0.52755 -0.18014,0.79775 l -1.05509,4.18176 c -0.14154,0.63049 -0.193,0.83636 -0.193,1.2867 0,1.22236 0.66907,2.02011 1.62124,2.02011 l 0,-0.28307 c -0.43748,0 -0.86209,-0.34741 -0.86209,-1.29956 0,-0.24448 0,-0.48894 0.20586,-1.2867 l 0.28308,-1.18376 c 0.0772,-0.28307 0.0772,-0.30881 0.19301,-0.45034 0.63048,-0.83635 1.20949,-1.02936 1.54403,-1.02936 0.46321,0 0.81062,0.38601 0.81062,1.2095 0,0.75915 -0.42461,2.22598 -0.65622,2.71493 -0.42461,0.86208 -1.01649,1.32529 -1.51829,1.32529 l 0,0.28307 c 1.51829,0 3.08806,-1.91717 3.08806,-3.75715 0,-1.17089 -0.68194,-2.05871 -1.69844,-2.05871 -0.59188,0 -1.11942,0.37314 -1.50543,0.77202 z"
       style="font-style:normal;font-variant:normal;font-weight:normal;font-stretch:normal;letter-spacing:normal;word-spacing:normal;text-anchor:start;fill:#000000;stroke:#000000;stroke-width:0;stroke-linecap:butt;stroke-linejoin:miter;stroke-miterlimit:10.43299961;stroke-opacity:1;stroke-dasharray:none;stroke-dashoffset:0"
       inkscape:connector-curvature="0" />
    <path
       id="path3730"
       d="m 337.57584,553.71584 0,-0.0257 0,-0.0128 0,-0.0257 0,-0.0257 -0.0129,-0.0257 0,-0.0129 0,-0.0257 -0.0129,-0.0128 -0.0128,-0.0257 0,-0.0257 -0.0129,-0.0129 -0.0128,-0.0257 -0.0129,-0.0128 -0.0129,-0.0129 -0.0128,-0.0257 -0.0129,-0.0128 -0.0257,-0.0128 -0.0129,-0.0129 -0.0128,-0.0129 -0.0257,-0.0128 -0.0129,-0.0129 -0.0257,-0.0128 -0.0257,-0.0129 -0.0128,-0.0129 -0.0257,-0.0128 -0.0258,0 -0.0257,-0.0129 -0.0257,0 -0.0257,0 -0.0257,-0.0128 -0.0257,0 -0.0257,0 c -0.29594,0 -0.68195,0.29594 -0.68195,0.68195 0,0.25734 0.18014,0.46321 0.47608,0.46321 0.34741,0 0.68195,-0.33454 0.68195,-0.68195 z"
       style="font-style:normal;font-variant:normal;font-weight:normal;font-stretch:normal;letter-spacing:normal;word-spacing:normal;text-anchor:start;fill:#000000;stroke:#000000;stroke-width:0;stroke-linecap:butt;stroke-linejoin:miter;stroke-miterlimit:10.43299961;stroke-opacity:1;stroke-dasharray:none;stroke-dashoffset:0"
       inkscape:connector-curvature="0" />
    <path
       id="path3732"
       d="m 335.00245,562.37531 -0.0257,0.0901 -0.0257,0.0901 -0.0257,0.0772 -0.0257,0.0901 -0.0386,0.0901 -0.0257,0.0772 -0.0386,0.0772 -0.0386,0.0772 -0.0386,0.0772 -0.0386,0.0772 -0.0515,0.0643 -0.0386,0.0772 -0.0515,0.0643 -0.0386,0.0643 -0.0515,0.0643 -0.0515,0.0515 -0.0515,0.0643 -0.0515,0.0515 -0.0643,0.0515 -0.0515,0.0386 -0.0515,0.0515 -0.0643,0.0386 -0.0643,0.0257 -0.0515,0.0386 -0.0643,0.0257 -0.0643,0.0257 -0.0643,0.0257 -0.0643,0.0257 -0.0643,0.0128 -0.0643,0 -0.0643,0.0129 -0.0643,0 c -0.0772,0 -0.2702,0 -0.50181,-0.1158 0.38601,-0.0901 0.57901,-0.42461 0.57901,-0.68195 0,-0.20587 -0.14154,-0.45034 -0.48894,-0.45034 -0.32167,0 -0.69482,0.27021 -0.69482,0.73342 0,0.51467 0.51468,0.79774 1.1323,0.79774 0.90068,0 2.08444,-0.68194 2.40612,-1.94291 l 1.18376,-4.69643 c 0.0643,-0.25734 0.0643,-0.43748 0.0643,-0.47608 0,-0.73341 -0.54041,-1.18376 -1.18375,-1.18376 -1.31243,0 -2.03299,1.86571 -2.03299,1.98151 0,0.12867 0.12867,0.12867 0.14154,0.12867 0.11581,0 0.14154,-0.0128 0.24447,-0.25734 0.30881,-0.78488 0.90069,-1.56977 1.60837,-1.56977 0.18014,0 0.41174,0.0515 0.41174,0.59188 0,0.29594 -0.0386,0.43748 -0.0901,0.65622 z"
       style="font-style:normal;font-variant:normal;font-weight:normal;font-stretch:normal;letter-spacing:normal;word-spacing:normal;text-anchor:start;fill:#000000;stroke:#000000;stroke-width:0;stroke-linecap:butt;stroke-linejoin:miter;stroke-miterlimit:10.43299961;stroke-opacity:1;stroke-dasharray:none;stroke-dashoffset:0"
       inkscape:connector-curvature="0" />
    <path
       id="path3734"
       d="m 340.89551,558.77256 0.0386,0 0.0386,0 0.0386,0 0.0515,-0.0129 0.0386,0 0.0515,0 0.0515,0 0.0643,0 0.0515,0 0.0643,-0.0128 0.0643,0 0.0643,0 0.0643,-0.0129 0.0643,0 0.12867,-0.0128 0.14154,-0.0129 0.14154,-0.0257 0.14153,-0.0257 0.12868,-0.0257 0.14153,-0.0257 0.0643,-0.0257 0.0772,-0.0129 0.0643,-0.0257 0.0643,-0.0257 0.0515,-0.0129 0.0643,-0.0257 c 0.90068,-0.386 0.96502,-1.14515 0.96502,-1.32529 0,-0.56615 -0.48895,-1.0937 -1.37676,-1.0937 l 0,0.28308 c 0.60475,0 0.95215,0.37314 0.95215,0.81062 0,1.33816 -2.04585,1.33816 -2.57339,1.33816 l -0.52755,0 c 0.50181,-1.95578 1.81424,-2.14878 2.14879,-2.14878 l 0,-0.28308 c -1.41537,0 -3.35828,1.2481 -3.35828,3.48695 0,1.31243 0.75915,2.32892 2.02011,2.32892 1.82711,0 2.90793,-1.3639 2.90793,-1.5183 0,-0.0772 -0.0772,-0.16727 -0.1544,-0.16727 -0.0643,0 -0.0901,0.0257 -0.16727,0.12867 -1.01649,1.27382 -2.40612,1.27382 -2.56052,1.27382 -1.00363,0 -1.11943,-1.08082 -1.11943,-1.49256 0,-0.15441 0.0128,-0.55328 0.20588,-1.3253 z"
       style="font-style:normal;font-variant:normal;font-weight:normal;font-stretch:normal;letter-spacing:normal;word-spacing:normal;text-anchor:start;fill:#000000;stroke:#000000;stroke-width:0;stroke-linecap:butt;stroke-linejoin:miter;stroke-miterlimit:10.43299961;stroke-opacity:1;stroke-dasharray:none;stroke-dashoffset:0"
       inkscape:connector-curvature="0" />
    <path
       id="path3736"
       d="m 349.5421,556.85538 -0.0386,0 -0.0386,0 -0.0257,0 -0.0386,0 -0.0386,0.0129 -0.0386,0 -0.0129,0 -0.0257,0 -0.0128,0.0128 -0.0129,0 -0.0257,0 -0.0129,0.0129 -0.0128,0 -0.0257,0.0129 -0.0128,0 -0.0129,0.0128 -0.0257,0 -0.0129,0.0129 -0.0128,0.0128 -0.0258,0.0128 -0.0128,0.0129 -0.0128,0.0128 -0.0257,0.0129 -0.0128,0.0128 -0.0128,0.0129 -0.0257,0.0128 c -0.20587,0.193 -0.21874,0.41173 -0.21874,0.5018 0,0.30881 0.21874,0.45035 0.46321,0.45035 0.37314,0 0.72054,-0.30881 0.72054,-0.82349 0,-0.63048 -0.60474,-1.10656 -1.50543,-1.10656 -1.73703,0 -3.43548,1.83998 -3.43548,3.64135 0,1.15803 0.73342,2.17452 2.07158,2.17452 1.83998,0 2.90794,-1.3639 2.90794,-1.5183 0,-0.0772 -0.0772,-0.16727 -0.1544,-0.16727 -0.0643,0 -0.0901,0.0257 -0.16727,0.12867 -1.00363,1.27382 -2.40613,1.27382 -2.56053,1.27382 -0.81062,0 -1.15802,-0.63047 -1.15802,-1.40249 0,-0.52755 0.25733,-1.76278 0.69481,-2.56053 0.39888,-0.73341 1.10656,-1.28669 1.81424,-1.28669 0.42461,0 0.91356,0.16727 1.09369,0.51467 z"
       style="font-style:normal;font-variant:normal;font-weight:normal;font-stretch:normal;letter-spacing:normal;word-spacing:normal;text-anchor:start;fill:#000000;stroke:#000000;stroke-width:0;stroke-linecap:butt;stroke-linejoin:miter;stroke-miterlimit:10.43299961;stroke-opacity:1;stroke-dasharray:none;stroke-dashoffset:0"
       inkscape:connector-curvature="0" />
    <path
       id="path3738"
       d="m 352.65591,556.59804 1.20949,0 c 0.25734,0 0.38601,0 0.38601,-0.25734 0,-0.14153 -0.12867,-0.14153 -0.36028,-0.14153 l -1.13228,0 c 0.46321,-1.81425 0.52754,-2.07158 0.52754,-2.14879 0,-0.21873 -0.15441,-0.3474 -0.37314,-0.3474 -0.0386,0 -0.39888,0.0128 -0.51468,0.46321 l -0.50181,2.03298 -1.19663,0 c -0.25734,0 -0.38601,0 -0.38601,0.24447 0,0.1544 0.10294,0.1544 0.36028,0.1544 l 1.13229,0 c -0.92642,3.64135 -0.97789,3.86009 -0.97789,4.0917 0,0.69481 0.48895,1.18376 1.1709,1.18376 1.31242,0 2.04584,-1.87858 2.04584,-1.98152 0,-0.12867 -0.10293,-0.12867 -0.15441,-0.12867 -0.11579,0 -0.12867,0.0386 -0.193,0.18014 -0.55328,1.33817 -1.23522,1.64697 -1.6727,1.64697 -0.25734,0 -0.39888,-0.16727 -0.39888,-0.59188 0,-0.3088 0.0386,-0.39888 0.0772,-0.61761 z"
       style="font-style:normal;font-variant:normal;font-weight:normal;font-stretch:normal;letter-spacing:normal;word-spacing:normal;text-anchor:start;fill:#000000;stroke:#000000;stroke-width:0;stroke-linecap:butt;stroke-linejoin:miter;stroke-miterlimit:10.43299961;stroke-opacity:1;stroke-dasharray:none;stroke-dashoffset:0"
       inkscape:connector-curvature="0" />
    <path
       id="path3740"
       d="m 358.27877,553.71584 0,-0.0257 0,-0.0257 0,-0.0129 0,-0.0257 -0.0128,-0.0257 0,-0.0257 -0.0129,-0.0129 0,-0.0257 -0.0129,-0.0129 -0.0128,-0.0257 -0.0129,-0.0257 0,-0.0129 -0.0128,-0.0128 -0.0128,-0.0257 -0.0257,-0.0128 -0.0128,-0.0128 -0.0129,-0.0128 -0.0128,-0.0257 -0.0257,-0.0128 -0.0129,-0.0129 -0.0128,-0.0128 -0.0257,0 -0.0257,-0.0129 -0.0129,-0.0129 -0.0257,-0.0128 -0.0257,0 -0.0257,-0.0129 -0.0257,0 -0.0129,0 -0.0386,-0.0128 -0.0257,0 -0.0257,0 c -0.34742,0 -0.68196,0.33454 -0.68196,0.68195 0,0.24447 0.18014,0.46321 0.47608,0.46321 0.29594,0 0.68195,-0.29594 0.68195,-0.68195 z"
       style="font-style:normal;font-variant:normal;font-weight:normal;font-stretch:normal;letter-spacing:normal;word-spacing:normal;text-anchor:start;fill:#000000;stroke:#000000;stroke-width:0;stroke-linecap:butt;stroke-linejoin:miter;stroke-miterlimit:10.43299961;stroke-opacity:1;stroke-dasharray:none;stroke-dashoffset:0"
       inkscape:connector-curvature="0" />
    <path
       id="path3742"
       d="m 357.31374,558.54095 0.0129,-0.0386 0.0129,-0.0258 0.0128,-0.0386 0,-0.0257 0.0129,-0.0257 0.0129,-0.0258 0.0128,-0.0257 0.0129,-0.0257 0,-0.0128 0.0128,-0.0257 0,-0.0257 0.0129,-0.0129 0.0129,-0.0257 0,-0.0128 0.0128,-0.0386 0.0129,-0.0386 0.0128,-0.0386 0.0129,-0.0129 0,-0.0257 0.0129,-0.0128 0,-0.0257 0.0128,-0.0128 0.0129,-0.0257 0,-0.0257 0.0128,-0.0257 0.0129,-0.0257 0.0129,-0.0257 0,-0.0386 0.0128,-0.0257 c 0.10294,-0.25734 0.16728,-0.43748 0.16728,-0.68195 0,-0.57901 -0.41174,-1.05509 -1.04222,-1.05509 -1.2095,0 -1.69845,1.86571 -1.69845,1.98151 0,0.12867 0.12867,0.12867 0.15441,0.12867 0.12867,0 0.14153,-0.0257 0.20587,-0.23161 0.34741,-1.20949 0.86208,-1.59549 1.29956,-1.59549 0.10294,0 0.32168,0 0.32168,0.41173 0,0.27021 -0.0901,0.54042 -0.14154,0.66909 -0.10293,0.33454 -0.68195,1.8271 -0.88781,2.36752 -0.12868,0.33454 -0.29595,0.75915 -0.29595,1.02936 0,0.60474 0.43748,1.05509 1.05509,1.05509 1.19663,0 1.67271,-1.86572 1.67271,-1.98152 0,-0.12866 -0.11581,-0.12866 -0.15441,-0.12866 -0.12867,0 -0.12867,0.0386 -0.193,0.2316 -0.23161,0.81062 -0.65622,1.5955 -1.29956,1.5955 -0.21875,0 -0.30881,-0.12867 -0.30881,-0.42461 0,-0.32167 0.0772,-0.5018 0.37314,-1.2867 z"
       style="font-style:normal;font-variant:normal;font-weight:normal;font-stretch:normal;letter-spacing:normal;word-spacing:normal;text-anchor:start;fill:#000000;stroke:#000000;stroke-width:0;stroke-linecap:butt;stroke-linejoin:miter;stroke-miterlimit:10.43299961;stroke-opacity:1;stroke-dasharray:none;stroke-dashoffset:0"
       inkscape:connector-curvature="0" />
    <path
       id="path3744"
       d="m 365.05965,556.95832 0,-0.0257 0,-0.0386 0,-0.0257 0,-0.0386 0,-0.0257 -0.0128,-0.0257 0,-0.0257 0,-0.0257 -0.0129,-0.0515 -0.0128,-0.0515 0,-0.0515 -0.0128,-0.0386 -0.0129,-0.0515 -0.0257,-0.0386 -0.0129,-0.0386 -0.0128,-0.0386 -0.0257,-0.0257 -0.0129,-0.0386 -0.0257,-0.0258 -0.0129,-0.0257 -0.0257,-0.0257 -0.0257,-0.0257 -0.0129,-0.0129 -0.0257,-0.0257 -0.0257,-0.0128 -0.0257,-0.0129 -0.0257,-0.0129 -0.0128,-0.0128 -0.0257,-0.0128 -0.0257,-0.0128 -0.0257,0 -0.0257,-0.0129 -0.0257,0 -0.0128,0 -0.0257,-0.0129 -0.0257,0 c -0.32168,0 -0.63048,0.33454 -0.63048,0.61762 0,0.16727 0.0643,0.24447 0.20587,0.38601 0.2702,0.25734 0.43747,0.59188 0.43747,1.05509 0,0.54041 -0.78488,3.47407 -2.27745,3.47407 -0.65621,0 -0.95215,-0.45034 -0.95215,-1.11942 0,-0.72055 0.34741,-1.64697 0.74629,-2.71492 0.0901,-0.21875 0.1544,-0.39888 0.1544,-0.64336 0,-0.57901 -0.41175,-1.05509 -1.05509,-1.05509 -1.20949,0 -1.68558,1.86572 -1.68558,1.98152 0,0.12866 0.12867,0.12866 0.15441,0.12866 0.12866,0 0.14153,-0.0257 0.193,-0.2316 0.37314,-1.29956 0.92642,-1.5955 1.29956,-1.5955 0.10294,0 0.32168,0 0.32168,0.41174 0,0.32168 -0.12867,0.66908 -0.21874,0.90069 -0.56615,1.4797 -0.73342,2.07158 -0.73342,2.62486 0,1.38963 1.1323,1.5955 1.72418,1.5955 2.14878,0 2.88219,-4.24609 2.88219,-4.91518 z"
       style="font-style:normal;font-variant:normal;font-weight:normal;font-stretch:normal;letter-spacing:normal;word-spacing:normal;text-anchor:start;fill:#000000;stroke:#000000;stroke-width:0;stroke-linecap:butt;stroke-linejoin:miter;stroke-miterlimit:10.43299961;stroke-opacity:1;stroke-dasharray:none;stroke-dashoffset:0"
       inkscape:connector-curvature="0" />
    <path
       id="path3746"
       d="m 368.13486,558.77256 0.0386,0 0.0386,0 0.0386,0 0.0515,-0.0129 0.0515,0 0.0515,0 0.0515,0 0.0515,0 0.0643,0 0.0515,-0.0128 0.0643,0 0.0643,0 0.0643,-0.0129 0.0643,0 0.12867,-0.0128 0.14153,-0.0129 0.14154,-0.0257 0.14154,-0.0257 0.14153,-0.0257 0.12867,-0.0257 0.0772,-0.0257 0.0643,-0.0129 0.0643,-0.0257 0.0643,-0.0257 0.0643,-0.0129 0.0643,-0.0257 c 0.88782,-0.386 0.95216,-1.14515 0.95216,-1.32529 0,-0.56615 -0.48895,-1.0937 -1.3639,-1.0937 l 0,0.28308 c 0.59188,0 0.93929,0.37314 0.93929,0.81062 0,1.33816 -2.04585,1.33816 -2.57339,1.33816 l -0.52755,0 c 0.50181,-1.95578 1.82711,-2.14878 2.16165,-2.14878 l 0,-0.28308 c -1.42823,0 -3.35827,1.2481 -3.35827,3.48695 0,1.31243 0.74628,2.32892 2.00724,2.32892 1.83998,0 2.90793,-1.3639 2.90793,-1.5183 0,-0.0772 -0.0772,-0.16727 -0.1544,-0.16727 -0.0643,0 -0.0901,0.0257 -0.16727,0.12867 -1.01649,1.27382 -2.40612,1.27382 -2.56052,1.27382 -1.00363,0 -1.11943,-1.08082 -1.11943,-1.49256 0,-0.15441 0.0129,-0.55328 0.20587,-1.3253 z"
       style="font-style:normal;font-variant:normal;font-weight:normal;font-stretch:normal;letter-spacing:normal;word-spacing:normal;text-anchor:start;fill:#000000;stroke:#000000;stroke-width:0;stroke-linecap:butt;stroke-linejoin:miter;stroke-miterlimit:10.43299961;stroke-opacity:1;stroke-dasharray:none;stroke-dashoffset:0"
       inkscape:connector-curvature="0" />
    <path
       id="path3748"
       d="m 374.70987,557.9362 0,0 0,-0.0128 0,-0.0129 0,-0.0128 0,-0.0129 0,0 0,-0.0128 0,-0.0128 0,0 0,-0.0129 0,-0.0129 0,0 0,-0.0128 0,0 -0.0128,-0.0129 0,-0.0128 0,0 0,-0.0129 0,0 0,-0.0129 -0.0129,-0.0128 0,-0.0129 0,0 -0.0128,-0.0128 0,0 -0.0129,-0.0129 0,0 -0.0129,-0.0129 -0.0128,0 -0.0129,0 -0.0128,0 0,-0.0128 -0.0128,0 -0.0129,0 0,0 -0.0128,0 0,0 -0.0128,0 0,0 -0.0129,0 -0.0128,0 -0.0128,0 0,0 -0.0128,0 -0.0129,0 -0.0128,0 0,0 -0.0128,0 -0.0129,0 -0.0128,0 c -0.57902,0.56615 -1.38963,0.57901 -1.76278,0.57901 l 0,0.32167 c 0.21874,0 0.81063,0 1.29957,-0.25734 l 0,4.58064 c 0,0.29594 0,0.41175 -0.88782,0.41175 l -0.34741,0 0,0.32167 c 0.16727,-0.0129 1.27382,-0.0386 1.59551,-0.0386 0.28306,0 1.41536,0.0257 1.60836,0.0386 l 0,-0.32167 -0.33454,0 c -0.90069,0 -0.90069,-0.11581 -0.90069,-0.41175 z"
       style="font-style:normal;font-variant:normal;font-weight:normal;font-stretch:normal;letter-spacing:normal;word-spacing:normal;text-anchor:start;fill:#000000;stroke:#000000;stroke-width:0;stroke-linecap:butt;stroke-linejoin:miter;stroke-miterlimit:10.43299961;stroke-opacity:1;stroke-dasharray:none;stroke-dashoffset:0"
       inkscape:connector-curvature="0" />
    <path
       style="font-style:normal;font-variant:normal;font-weight:normal;font-stretch:normal;letter-spacing:normal;word-spacing:normal;text-anchor:start;fill:#000000;stroke:#000000;stroke-width:0;stroke-linecap:butt;stroke-linejoin:miter;stroke-miterlimit:10.43299961;stroke-opacity:1;stroke-dasharray:none;stroke-dashoffset:0"
       d="m 193.36415,478.90057 -0.17573,0 -0.18828,0.0126 -0.17573,0.0126 -0.17574,0.0251 -0.17573,0.0377 -0.16317,0.0377 -0.16319,0.0502 -0.15062,0.0502 -0.15063,0.0628 -0.15063,0.0753 -0.13807,0.0628 -0.13808,0.0879 -0.12552,0.0879 -0.12553,0.0878 -0.12552,0.10042 -0.11297,0.10041 -0.10042,0.11298 -0.10042,0.11296 -0.10041,0.11298 -0.0878,0.12552 -0.0878,0.12552 -0.0754,0.13808 -0.0628,0.13808 -0.0628,0.13807 -0.0628,0.15062 -0.0502,0.15063 -0.0377,0.15063 -0.0377,0.16318 -0.0251,0.16318 -0.0126,0.16318 -0.0126,0.17573 -0.0126,0.17574 0.31381,0.0628 c 0,-1.01674 0.70293,-2.14644 2.57322,-2.14644 0.89121,0 2.84937,0.33891 4.38075,1.58159 0.76569,0.60251 1.50628,1.61925 1.50628,2.67364 l 0,0 c 0,1.24268 -1.01674,2.10878 -2.66109,2.10878 -0.5523,0 -2.38493,-0.17573 -3.841,-1.1297 -1.30544,-0.86611 -1.95816,-2.09624 -1.95816,-3.08787 L 190,482.08903 c 0,2.69873 2.83682,5.44769 5.7615,5.44769 2.07114,0 3.33891,-1.40585 3.33891,-3.20084 0,-2.64853 -2.74894,-5.43514 -5.7364,-5.43514 z"
       id="path3864"
       inkscape:connector-curvature="0" />
    <path
       style="font-style:normal;font-variant:normal;font-weight:normal;font-stretch:normal;letter-spacing:normal;word-spacing:normal;text-anchor:start;fill:#000000;stroke:#000000;stroke-width:0;stroke-linecap:butt;stroke-linejoin:miter;stroke-miterlimit:10.43299961;stroke-opacity:1;stroke-dasharray:none;stroke-dashoffset:0"
       d="m 190.27629,475.27296 0,0 0,0 0,0 0,0 0,0 -0.0126,0 0,0 0,0 -0.0126,0 0,0 -0.0126,0 0,0.0126 -0.0126,0 0,0 -0.0126,0 0,0 -0.0126,0.0126 0,0 -0.0126,0 0,0.0126 0,0 -0.0126,0.0126 0,0 0,0 0,0 -0.0126,0.0126 0,0 0,0 0,0.0126 0,0 0,0 -0.0126,0.0126 0,0 0,0 0,0.0126 0,0 0,0.0126 0,0 0,0.0126 -0.0126,0 0,0.0125 0,0 0,0.0126 0,0 0,0.0126 c 0,0.28871 0.10041,1.20502 0.12552,1.53139 0.0126,0.10041 0.0251,0.23849 0.25104,0.23849 0.15063,0 0.15063,-0.11297 0.15063,-0.30126 0,-0.6025 0.0879,-0.62761 0.21339,-0.62761 0.0878,0 0.51464,0.11297 0.77824,0.17573 l 4.0795,1.02929 c 0.61507,0.13807 0.8159,0.18828 1.25523,0.18828 1.19247,0 1.97071,-0.65271 1.97071,-1.58159 l -0.27615,0 c 0,0.42679 -0.33891,0.84101 -1.26778,0.84101 -0.2385,0 -0.47699,0 -1.25523,-0.20084 l -1.15482,-0.27615 c -0.27614,-0.0754 -0.30124,-0.0754 -0.43932,-0.18828 -0.8159,-0.61507 -1.00419,-1.17992 -1.00419,-1.50628 0,-0.45188 0.37657,-0.7908 1.17992,-0.7908 0.74058,0 2.17154,0.41424 2.64853,0.64018 0.84101,0.41422 1.29289,0.99163 1.29289,1.48116 l 0.27615,0 c 0,-1.48116 -1.87029,-3.01255 -3.66527,-3.01255 -1.14226,0 -2.00837,0.66527 -2.00837,1.6569 0,0.57741 0.36402,1.09206 0.75314,1.46862 z"
       id="path3866"
       inkscape:connector-curvature="0" />
    <path
       style="font-style:normal;font-variant:normal;font-weight:normal;font-stretch:normal;letter-spacing:normal;word-spacing:normal;text-anchor:start;fill:#000000;stroke:#000000;stroke-width:0;stroke-linecap:butt;stroke-linejoin:miter;stroke-miterlimit:10.43299961;stroke-opacity:1;stroke-dasharray:none;stroke-dashoffset:0"
       d="m 191.00432,467.92986 -0.0251,0 -0.0126,0 -0.0251,0 -0.0251,0 -0.0251,0.0126 -0.0126,0 -0.0251,0 -0.0126,0.0126 -0.0251,0.0126 -0.0251,0 -0.0126,0.0126 -0.0251,0.0126 -0.0126,0.0126 -0.0126,0.0125 -0.0251,0.0126 -0.0126,0.0126 -0.0126,0.0251 -0.0126,0.0126 -0.0126,0.0126 -0.0126,0.0251 -0.0126,0.0126 -0.0126,0.0251 -0.0126,0.0251 -0.0126,0.0126 -0.0126,0.0251 0,0.0251 -0.0126,0.0251 0,0.0251 0,0.0251 -0.0126,0.0251 0,0.0251 0,0.0251 c 0,0.2887 0.28871,0.66527 0.66527,0.66527 0.25105,0 0.45188,-0.17573 0.45188,-0.46443 0,-0.33892 -0.32635,-0.66528 -0.66527,-0.66528 z"
       id="path3868"
       inkscape:connector-curvature="0" />
    <path
       style="font-style:normal;font-variant:normal;font-weight:normal;font-stretch:normal;letter-spacing:normal;word-spacing:normal;text-anchor:start;fill:#000000;stroke:#000000;stroke-width:0;stroke-linecap:butt;stroke-linejoin:miter;stroke-miterlimit:10.43299961;stroke-opacity:1;stroke-dasharray:none;stroke-dashoffset:0"
       d="m 199.45202,470.44032 0.0879,0.0251 0.0878,0.0251 0.0754,0.0251 0.0879,0.0251 0.0878,0.0377 0.0754,0.0251 0.0753,0.0377 0.0754,0.0377 0.0754,0.0377 0.0753,0.0377 0.0628,0.0502 0.0754,0.0377 0.0628,0.0502 0.0628,0.0377 0.0628,0.0502 0.0502,0.0502 0.0628,0.0502 0.0502,0.0502 0.0502,0.0628 0.0377,0.0502 0.0502,0.0502 0.0377,0.0628 0.0251,0.0628 0.0377,0.0502 0.0251,0.0628 0.0251,0.0628 0.0251,0.0628 0.0251,0.0628 0.0126,0.0628 0,0.0628 0.0126,0.0628 0,0.0628 c 0,0.0753 0,0.2636 -0.11296,0.48954 -0.0878,-0.37656 -0.41423,-0.56485 -0.66528,-0.56485 -0.20084,0 -0.43933,0.13808 -0.43933,0.47698 0,0.31381 0.2636,0.67784 0.71548,0.67784 0.50209,0 0.77825,-0.5021 0.77825,-1.10461 0,-0.87866 -0.66527,-2.03347 -1.8954,-2.34728 l -4.58159,-1.15481 c -0.25105,-0.0628 -0.42677,-0.0628 -0.46443,-0.0628 -0.71548,0 -1.15481,0.5272 -1.15481,1.15482 0,1.28032 1.82008,1.98325 1.93305,1.98325 0.12552,0 0.12552,-0.12552 0.12552,-0.13807 0,-0.11297 -0.0126,-0.13808 -0.25105,-0.23849 -0.76569,-0.30126 -1.53138,-0.87866 -1.53138,-1.56904 0,-0.17573 0.0502,-0.40167 0.57741,-0.40167 0.2887,0 0.42678,0.0377 0.64016,0.0878 z"
       id="path3870"
       inkscape:connector-curvature="0" />
    <path
       style="font-style:normal;font-variant:normal;font-weight:normal;font-stretch:normal;letter-spacing:normal;word-spacing:normal;text-anchor:start;fill:#000000;stroke:#000000;stroke-width:0;stroke-linecap:butt;stroke-linejoin:miter;stroke-miterlimit:10.43299961;stroke-opacity:1;stroke-dasharray:none;stroke-dashoffset:0"
       d="m 195.93738,464.69137 0,-0.0377 0,-0.0377 0,-0.0377 -0.0126,-0.0502 0,-0.0377 0,-0.0502 0,-0.0502 0,-0.0628 0,-0.0502 -0.0126,-0.0628 0,-0.0628 0,-0.0628 -0.0126,-0.0628 0,-0.0628 -0.0126,-0.12551 -0.0126,-0.13808 -0.0251,-0.13808 -0.0251,-0.13807 -0.0251,-0.12553 -0.0251,-0.13807 -0.0251,-0.0628 -0.0126,-0.0753 -0.0251,-0.0628 -0.0251,-0.0628 -0.0126,-0.0502 -0.0251,-0.0628 c -0.37658,-0.87867 -1.11716,-0.94142 -1.29289,-0.94142 -0.55231,0 -1.06695,0.47698 -1.06695,1.34309 l 0.27615,0 c 0,-0.58996 0.36402,-0.92887 0.7908,-0.92887 1.30544,0 1.30544,1.99582 1.30544,2.51045 l 0,0.51465 c -1.90795,-0.48954 -2.09624,-1.76987 -2.09624,-2.09623 l -0.27615,0 c 0,1.38075 1.21757,3.27615 3.40167,3.27615 1.28034,0 2.27197,-0.74059 2.27197,-1.97071 0,-1.78243 -1.33054,-2.83682 -1.48117,-2.83682 -0.0753,0 -0.16318,0.0754 -0.16318,0.15063 0,0.0628 0.0251,0.0878 0.12552,0.16318 1.24268,0.99163 1.24268,2.34727 1.24268,2.49791 0,0.97908 -1.05439,1.09204 -1.45607,1.09204 -0.15062,0 -0.53975,-0.0126 -1.29288,-0.20083 z"
       id="path3872"
       inkscape:connector-curvature="0" />
    <path
       style="font-style:normal;font-variant:normal;font-weight:normal;font-stretch:normal;letter-spacing:normal;word-spacing:normal;text-anchor:start;fill:#000000;stroke:#000000;stroke-width:0;stroke-linecap:butt;stroke-linejoin:miter;stroke-miterlimit:10.43299961;stroke-opacity:1;stroke-dasharray:none;stroke-dashoffset:0"
       d="m 194.06708,456.25622 0,0.0377 0,0.0377 0,0.0251 0,0.0377 0.0126,0.0377 0,0.0377 0,0.0126 0,0.0251 0.0126,0.0126 0,0.0126 0,0.0251 0.0126,0.0126 0,0.0125 0.0126,0.0251 0,0.0126 0.0126,0.0126 0,0.0251 0.0126,0.0126 0.0126,0.0125 0.0126,0.0251 0.0126,0.0126 0.0126,0.0126 0.0126,0.0251 0.0126,0.0126 0.0126,0.0125 0.0126,0.0251 c 0.18828,0.20083 0.40167,0.21338 0.48954,0.21338 0.30125,0 0.43933,-0.21338 0.43933,-0.45188 0,-0.36401 -0.30126,-0.70293 -0.80335,-0.70293 -0.61506,0 -1.07949,0.58997 -1.07949,1.46862 0,1.69457 1.79497,3.35147 3.5523,3.35147 1.1297,0 2.12133,-0.71548 2.12133,-2.02093 0,-1.79497 -1.33054,-2.83681 -1.48117,-2.83681 -0.0754,0 -0.16318,0.0753 -0.16318,0.15063 0,0.0628 0.0251,0.0879 0.12552,0.16318 1.24268,0.97908 1.24268,2.34727 1.24268,2.49791 0,0.79079 -0.61506,1.1297 -1.3682,1.1297 -0.51464,0 -1.71966,-0.25104 -2.49791,-0.67782 -0.71548,-0.38913 -1.25523,-1.0795 -1.25523,-1.76988 0,-0.41422 0.16319,-0.89121 0.50209,-1.06695 z"
       id="path3874"
       inkscape:connector-curvature="0" />
    <path
       style="font-style:normal;font-variant:normal;font-weight:normal;font-stretch:normal;letter-spacing:normal;word-spacing:normal;text-anchor:start;fill:#000000;stroke:#000000;stroke-width:0;stroke-linecap:butt;stroke-linejoin:miter;stroke-miterlimit:10.43299961;stroke-opacity:1;stroke-dasharray:none;stroke-dashoffset:0"
       d="m 193.81604,453.21856 0,-1.17992 c 0,-0.25104 0,-0.37656 -0.25105,-0.37656 -0.13807,0 -0.13807,0.12552 -0.13807,0.35146 l 0,1.10461 c -1.76988,-0.45188 -2.02093,-0.51465 -2.09623,-0.51465 -0.21339,0 -0.33892,0.15063 -0.33892,0.36402 0,0.0377 0.0126,0.38912 0.45188,0.50209 l 1.98327,0.48954 0,1.16737 c 0,0.25104 0,0.37656 0.23849,0.37656 0.15063,0 0.15063,-0.10042 0.15063,-0.35147 l 0,-1.10459 c 3.5523,0.90376 3.76569,0.95397 3.99163,0.95397 0.67783,0 1.15481,-0.47699 1.15481,-1.14226 0,-1.28033 -1.83263,-1.99582 -1.93305,-1.99582 -0.12552,0 -0.12552,0.10043 -0.12552,0.15063 0,0.11297 0.0377,0.12553 0.17573,0.18829 1.30544,0.53974 1.60669,1.20502 1.60669,1.6318 0,0.25104 -0.16318,0.38912 -0.5774,0.38912 -0.30126,0 -0.38913,-0.0377 -0.60251,-0.0754 z"
       id="path3876"
       inkscape:connector-curvature="0" />
    <path
       style="font-style:normal;font-variant:normal;font-weight:normal;font-stretch:normal;letter-spacing:normal;word-spacing:normal;text-anchor:start;fill:#000000;stroke:#000000;stroke-width:0;stroke-linecap:butt;stroke-linejoin:miter;stroke-miterlimit:10.43299961;stroke-opacity:1;stroke-dasharray:none;stroke-dashoffset:0"
       d="m 191.00432,447.73321 -0.0251,0 -0.0251,0 -0.0126,0 -0.0251,0 -0.0251,0.0126 -0.0251,0 -0.0126,0.0126 -0.0251,0 -0.0126,0.0126 -0.0251,0.0126 -0.0251,0.0126 -0.0126,0 -0.0126,0.0125 -0.0251,0.0126 -0.0126,0.0251 -0.0126,0.0126 -0.0126,0.0126 -0.0251,0.0126 -0.0126,0.0251 -0.0126,0.0126 -0.0126,0.0126 0,0.0251 -0.0126,0.0251 -0.0126,0.0125 -0.0126,0.0251 0,0.0251 -0.0126,0.0251 0,0.0251 0,0.0126 -0.0126,0.0377 0,0.0251 0,0.0251 c 0,0.33892 0.32636,0.66528 0.66527,0.66528 0.2385,0 0.45188,-0.17574 0.45188,-0.46444 0,-0.2887 -0.2887,-0.66527 -0.66527,-0.66527 z"
       id="path3878"
       inkscape:connector-curvature="0" />
    <path
       style="font-style:normal;font-variant:normal;font-weight:normal;font-stretch:normal;letter-spacing:normal;word-spacing:normal;text-anchor:start;fill:#000000;stroke:#000000;stroke-width:0;stroke-linecap:butt;stroke-linejoin:miter;stroke-miterlimit:10.43299961;stroke-opacity:1;stroke-dasharray:none;stroke-dashoffset:0"
       d="m 195.71144,448.67463 -0.0377,-0.0126 -0.0251,-0.0126 -0.0377,-0.0126 -0.0251,0 -0.0251,-0.0126 -0.0251,-0.0126 -0.0251,-0.0126 -0.0251,-0.0126 -0.0126,0 -0.0251,-0.0126 -0.0251,0 -0.0126,-0.0126 -0.0251,-0.0125 -0.0126,0 -0.0377,-0.0126 -0.0377,-0.0126 -0.0377,-0.0126 -0.0126,-0.0126 -0.0251,0 -0.0126,-0.0126 -0.0251,0 -0.0126,-0.0126 -0.0251,-0.0126 -0.0251,0 -0.0251,-0.0126 -0.0251,-0.0126 -0.0251,-0.0126 -0.0377,0 -0.0251,-0.0126 c -0.25105,-0.10042 -0.42678,-0.16318 -0.66527,-0.16318 -0.56486,0 -1.02929,0.40167 -1.02929,1.01673 0,1.17993 1.82009,1.65691 1.93305,1.65691 0.12553,0 0.12553,-0.12552 0.12553,-0.15063 0,-0.12552 -0.0251,-0.13807 -0.22594,-0.20084 -1.17992,-0.33891 -1.55649,-0.841 -1.55649,-1.26778 0,-0.10041 0,-0.3138 0.40167,-0.3138 0.2636,0 0.5272,0.0879 0.65273,0.13807 0.32635,0.10042 1.78242,0.66527 2.30962,0.86611 0.32636,0.12552 0.74058,0.2887 1.00418,0.2887 0.58996,0 1.02929,-0.42678 1.02929,-1.02928 0,-1.16737 -1.82009,-1.63181 -1.93305,-1.63181 -0.12553,0 -0.12553,0.11298 -0.12553,0.15064 0,0.12551 0.0377,0.12551 0.22594,0.18828 0.7908,0.22594 1.55649,0.64016 1.55649,1.26778 0,0.21339 -0.12553,0.30125 -0.41422,0.30125 -0.31381,0 -0.48954,-0.0754 -1.25523,-0.36401 z"
       id="path3880"
       inkscape:connector-curvature="0" />
    <path
       style="font-style:normal;font-variant:normal;font-weight:normal;font-stretch:normal;letter-spacing:normal;word-spacing:normal;text-anchor:start;fill:#000000;stroke:#000000;stroke-width:0;stroke-linecap:butt;stroke-linejoin:miter;stroke-miterlimit:10.43299961;stroke-opacity:1;stroke-dasharray:none;stroke-dashoffset:0"
       d="m 194.1675,441.11815 -0.0251,0 -0.0377,0 -0.0251,0 -0.0377,0 -0.0251,0 -0.0251,0.0125 -0.0251,0 -0.0251,0 -0.0502,0.0126 -0.0502,0.0126 -0.0502,0 -0.0377,0.0126 -0.0502,0.0126 -0.0377,0.0251 -0.0377,0.0126 -0.0377,0.0126 -0.0251,0.0251 -0.0377,0.0126 -0.0251,0.0251 -0.0251,0.0126 -0.0251,0.0251 -0.0251,0.0251 -0.0126,0.0126 -0.0251,0.0251 -0.0126,0.0251 -0.0126,0.0251 -0.0126,0.0251 -0.0126,0.0126 -0.0126,0.0251 -0.0126,0.0251 0,0.0251 -0.0126,0.0251 0,0.0251 0,0.0126 -0.0126,0.0251 0,0.0251 c 0,0.31381 0.32636,0.61506 0.60251,0.61506 0.16318,0 0.2385,-0.0628 0.37657,-0.20083 0.25104,-0.2636 0.57741,-0.42678 1.02929,-0.42678 0.5272,0 3.38912,0.76569 3.38912,2.22176 0,0.64016 -0.43933,0.92887 -1.09206,0.92887 -0.70292,0 -1.60669,-0.33892 -2.64853,-0.72803 -0.21339,-0.0879 -0.38912,-0.15064 -0.62761,-0.15064 -0.56486,0 -1.02929,0.40168 -1.02929,1.02929 0,1.17992 1.82009,1.64435 1.93305,1.64435 0.12553,0 0.12553,-0.12552 0.12553,-0.15062 0,-0.12552 -0.0251,-0.13807 -0.22594,-0.18828 -1.26779,-0.36403 -1.55649,-0.90377 -1.55649,-1.26779 0,-0.10042 0,-0.31381 0.40167,-0.31381 0.31381,0 0.65273,0.12553 0.87867,0.21339 1.44351,0.5523 2.02091,0.71548 2.56066,0.71548 1.35565,0 1.55649,-1.1046 1.55649,-1.68201 0,-2.09623 -4.14226,-2.81171 -4.79498,-2.81171 z"
       id="path3882"
       inkscape:connector-curvature="0" />
    <path
       style="font-style:normal;font-variant:normal;font-weight:normal;font-stretch:normal;letter-spacing:normal;word-spacing:normal;text-anchor:start;fill:#000000;stroke:#000000;stroke-width:0;stroke-linecap:butt;stroke-linejoin:miter;stroke-miterlimit:10.43299961;stroke-opacity:1;stroke-dasharray:none;stroke-dashoffset:0"
       d="m 195.93738,438.11815 0,-0.0377 0,-0.0377 0,-0.0377 -0.0126,-0.0502 0,-0.0502 0,-0.0502 0,-0.0502 0,-0.0502 0,-0.0628 -0.0126,-0.0502 0,-0.0628 0,-0.0628 -0.0126,-0.0628 0,-0.0628 -0.0126,-0.12553 -0.0126,-0.13807 -0.0251,-0.13808 -0.0251,-0.13807 -0.0251,-0.13808 -0.0251,-0.12552 -0.0251,-0.0754 -0.0126,-0.0628 -0.0251,-0.0628 -0.0251,-0.0628 -0.0126,-0.0628 -0.0251,-0.0628 c -0.37658,-0.8661 -1.11716,-0.92886 -1.29289,-0.92886 -0.55231,0 -1.06695,0.47698 -1.06695,1.33053 l 0.27615,0 c 0,-0.5774 0.36402,-0.91631 0.7908,-0.91631 1.30544,0 1.30544,1.99582 1.30544,2.51046 l 0,0.51464 c -1.90795,-0.48953 -2.09624,-1.78242 -2.09624,-2.10879 l -0.27615,0 c 0,1.39331 1.21757,3.27616 3.40167,3.27616 1.28034,0 2.27197,-0.72803 2.27197,-1.95816 0,-1.79498 -1.33054,-2.83682 -1.48117,-2.83682 -0.0753,0 -0.16318,0.0754 -0.16318,0.15063 0,0.0628 0.0251,0.0879 0.12552,0.16317 1.24268,0.99164 1.24268,2.34729 1.24268,2.49792 0,0.97908 -1.05439,1.09204 -1.45607,1.09204 -0.15062,0 -0.53975,-0.0126 -1.29288,-0.20083 z"
       id="path3884"
       inkscape:connector-curvature="0" />
    <path
       style="font-style:normal;font-variant:normal;font-weight:normal;font-stretch:normal;letter-spacing:normal;word-spacing:normal;text-anchor:start;fill:#000000;stroke:#000000;stroke-width:0;stroke-linecap:butt;stroke-linejoin:miter;stroke-miterlimit:10.43299961;stroke-opacity:1;stroke-dasharray:none;stroke-dashoffset:0"
       d="m 199.10056,430.22275 0,0.28871 c 0.18829,0.0251 0.71548,0.11296 0.79079,0.22594 0.0628,0.0754 0.0628,0.75314 0.0628,0.8661 l 0,1.61925 c -0.81591,-0.91632 -1.06695,-1.23013 -1.46862,-1.75732 -0.5272,-0.64017 -1.06695,-1.24268 -1.8954,-1.24268 -1.0544,0 -1.70711,0.91632 -1.70711,2.04602 0,1.0795 0.76568,1.82009 1.56903,1.82009 0.43933,0 0.48954,-0.37657 0.48954,-0.46443 0,-0.21339 -0.15063,-0.46444 -0.46444,-0.46444 -0.16317,0 -0.46443,0.0628 -0.46443,0.51464 -0.62761,-0.27614 -0.8159,-0.86611 -0.8159,-1.28033 0,-0.87867 0.67783,-1.33055 1.39331,-1.33055 0.76568,0 1.3682,0.53975 1.68201,0.82846 l 2.08368,2.10878 c 0.0754,0.0879 0.0878,0.0879 0.33891,0.0879 l 0,-3.61506 z"
       id="path3886"
       inkscape:connector-curvature="0" />
    <rect
       style="fill:none;stroke:#000000;stroke-width:0.89068758;stroke-linejoin:miter;stroke-miterlimit:4;stroke-opacity:1;stroke-dasharray:none;stroke-dashoffset:0"
       id="rect3956"
       width="137.16588"
       height="44.534378"
       x="502.83411"
       y="367.36218" />
    <text
       xml:space="preserve"
       style="font-size:10.68825054px;font-style:normal;font-weight:normal;fill:#000000;fill-opacity:1;stroke:none;font-family:Times New Roman;-inkscape-font-specification:Times New Roman"
       x="520.64789"
       y="394.08279"
       id="text3958"><tspan
         sodipodi:role="line"
         id="tspan3960"
         x="520.64789"
         y="394.08279">Pareto Optimal Solution</tspan></text>
    <text
       xml:space="preserve"
       style="font-size:10.68825054px;font-style:normal;font-weight:normal;fill:#000000;fill-opacity:1;stroke:none;font-family:Times New Roman;-inkscape-font-specification:Times New Roman"
       x="520.64789"
       y="407.44312"
       id="text3964"><tspan
         sodipodi:role="line"
         id="tspan3966"
         x="520.64789"
         y="407.44312">Dominated Solution</tspan></text>
    <rect
       style="fill:#f9f90e;fill-opacity:0.14285715;stroke:#7c8118;stroke-width:1.11335945;stroke-linejoin:miter;stroke-miterlimit:4;stroke-opacity:1;stroke-dasharray:none;stroke-dashoffset:0"
       id="rect3607-1"
       width="8.9068727"
       height="8.9068756"
       x="506.39688"
       y="371.81561" />
    <text
       xml:space="preserve"
       style="font-size:10.68825054px;font-style:normal;font-weight:normal;fill:#000000;fill-opacity:1;stroke:none;font-family:Times New Roman;-inkscape-font-specification:Times New Roman"
       x="520.64789"
       y="380.7225"
       id="text3992"><tspan
         sodipodi:role="line"
         id="tspan3994"
         x="520.64789"
         y="380.7225">Dominance Region</tspan></text>
    <path
       style="fill:#c3e1e8;fill-opacity:1;stroke:#000000;stroke-width:0.72063142px;stroke-linecap:butt;stroke-linejoin:miter;stroke-opacity:1"
       d="m 506.91875,406.73533 3.88969,-6.67548 3.88969,6.67548 -7.77938,0 z"
       id="path3660"
       inkscape:connector-curvature="0" />
    <path
       transform="matrix(0.89068756,0,0,0.89068756,296.83487,19.07097)"
       sodipodi:type="arc"
       style="fill:#e6d0ca;fill-opacity:1;stroke:#000000;stroke-width:1.25;stroke-linejoin:miter;stroke-miterlimit:4;stroke-opacity:1;stroke-dasharray:none;stroke-dashoffset:0"
       id="path3662"
       sodipodi:cx="240"
       sodipodi:cy="417.36218"
       sodipodi:rx="5"
       sodipodi:ry="5"
       d="m 245,417.36218 c 0,2.76143 -2.23858,5 -5,5 -2.76142,0 -5,-2.23857 -5,-5 0,-2.76142 2.23858,-5 5,-5 2.76142,0 5,2.23858 5,5 z" />
    <path
       id="path3664"
       d="m 407.9238,515.83181 3.88969,-6.67548 3.88969,6.67548 -7.77938,0 z"
       style="fill:#c3e1e8;fill-opacity:1;stroke:#000000;stroke-width:0.72063142px;stroke-linecap:butt;stroke-linejoin:miter;stroke-opacity:1"
       inkscape:connector-curvature="0" />
    <path
       style="fill:#c3e1e8;fill-opacity:1;stroke:#000000;stroke-width:0.72063142px;stroke-linecap:butt;stroke-linejoin:miter;stroke-opacity:1"
       d="m 354.38572,483.50692 3.88969,-6.67548 3.88969,6.67548 -7.77938,0 z"
       id="path3666"
       inkscape:connector-curvature="0" />
    <path
       id="path3668"
       d="m 303.37301,439.06021 3.88969,-6.67548 3.88969,6.67548 -7.77938,0 z"
       style="fill:#c3e1e8;fill-opacity:1;stroke:#000000;stroke-width:0.72063142px;stroke-linecap:butt;stroke-linejoin:miter;stroke-opacity:1"
       inkscape:connector-curvature="0" />
    <path
       style="fill:#c3e1e8;fill-opacity:1;stroke:#000000;stroke-width:0.72063142px;stroke-linecap:butt;stroke-linejoin:miter;stroke-opacity:1"
       d="m 300.34255,392.08812 3.88969,-6.67548 3.88969,6.67548 -7.77938,0 z"
       id="path3670"
       inkscape:connector-curvature="0" />
    <path
       id="path3672"
       d="m 348.82988,449.66681 3.88969,-6.67548 3.88969,6.67548 -7.77938,0 z"
       style="fill:#c3e1e8;fill-opacity:1;stroke:#000000;stroke-width:0.72063142px;stroke-linecap:butt;stroke-linejoin:miter;stroke-opacity:1"
       inkscape:connector-curvature="0" />
  </g>
</svg>
