<?xml version="1.0" encoding="utf-8" standalone="no"?>
<!DOCTYPE svg PUBLIC "-//W3C//DTD SVG 1.1//EN"
  "http://www.w3.org/Graphics/SVG/1.1/DTD/svg11.dtd">
<!-- Created with matplotlib (http://matplotlib.org/) -->
<svg height="441pt" version="1.1" viewBox="0 0 585 441" width="585pt" xmlns="http://www.w3.org/2000/svg" xmlns:xlink="http://www.w3.org/1999/xlink">
 <defs>
  <style type="text/css">
*{stroke-linecap:butt;stroke-linejoin:round;}
  </style>
 </defs>
 <g id="figure_1">
  <g id="patch_1">
   <path d="
M0 441
L585 441
L585 0
L0 0
z
" style="fill:#ffffff;"/>
  </g>
  <g id="axes_1">
   <g id="patch_2">
    <path d="
M73.125 396.9
L526.5 396.9
L526.5 44.1
L73.125 44.1
z
" style="fill:#ffffff;"/>
   </g>
   <g id="PathCollection_1">
    <defs>
     <path d="
M2.56153e-16 -4.1833
L-3.97855 -1.29271
L-2.45888 3.38436
L2.45888 3.38436
L3.97855 -1.29271
z
" id="C0_0_d36f805fc5"/>
    </defs>
    <g clip-path="url(#p5873ec822d)">
     <use style="fill:#ffff00;stroke:#000000;" x="73.125" xlink:href="#C0_0_d36f805fc5" y="345.952324347"/>
    </g>
    <g clip-path="url(#p5873ec822d)">
     <use style="fill:#ffff00;stroke:#000000;" x="137.892857143" xlink:href="#C0_0_d36f805fc5" y="324.127254386"/>
    </g>
    <g clip-path="url(#p5873ec822d)">
     <use style="fill:#ffff00;stroke:#000000;" x="202.660714286" xlink:href="#C0_0_d36f805fc5" y="319.833826421"/>
    </g>
    <g clip-path="url(#p5873ec822d)">
     <use style="fill:#ffff00;stroke:#000000;" x="267.428571429" xlink:href="#C0_0_d36f805fc5" y="290.463436301"/>
    </g>
    <g clip-path="url(#p5873ec822d)">
     <use style="fill:#ffff00;stroke:#000000;" x="332.196428571" xlink:href="#C0_0_d36f805fc5" y="285.678112068"/>
    </g>
    <g clip-path="url(#p5873ec822d)">
     <use style="fill:#ffff00;stroke:#000000;" x="396.964285714" xlink:href="#C0_0_d36f805fc5" y="281.353921177"/>
    </g>
    <g clip-path="url(#p5873ec822d)">
     <use style="fill:#ffff00;stroke:#000000;" x="461.732142857" xlink:href="#C0_0_d36f805fc5" y="270.270443589"/>
    </g>
    <g clip-path="url(#p5873ec822d)">
     <use style="fill:#ffff00;stroke:#000000;" x="526.5" xlink:href="#C0_0_d36f805fc5" y="263.828823269"/>
    </g>
   </g>
   <g id="PathCollection_2">
    <defs>
     <path d="
M0 4.1833
C1.10942 4.1833 2.17356 3.74252 2.95804 2.95804
C3.74252 2.17356 4.1833 1.10942 4.1833 0
C4.1833 -1.10942 3.74252 -2.17356 2.95804 -2.95804
C2.17356 -3.74252 1.10942 -4.1833 0 -4.1833
C-1.10942 -4.1833 -2.17356 -3.74252 -2.95804 -2.95804
C-3.74252 -2.17356 -4.1833 -1.10942 -4.1833 0
C-4.1833 1.10942 -3.74252 2.17356 -2.95804 2.95804
C-2.17356 3.74252 -1.10942 4.1833 0 4.1833
z
" id="C1_0_43ed0d6c61"/>
    </defs>
    <g clip-path="url(#p5873ec822d)">
     <use style="fill:#0000ff;stroke:#000000;" x="73.125" xlink:href="#C1_0_43ed0d6c61" y="282.851397888"/>
    </g>
    <g clip-path="url(#p5873ec822d)">
     <use style="fill:#0000ff;stroke:#000000;" x="137.892857143" xlink:href="#C1_0_43ed0d6c61" y="220.619326172"/>
    </g>
    <g clip-path="url(#p5873ec822d)">
     <use style="fill:#0000ff;stroke:#000000;" x="202.660714286" xlink:href="#C1_0_43ed0d6c61" y="186.355270502"/>
    </g>
    <g clip-path="url(#p5873ec822d)">
     <use style="fill:#0000ff;stroke:#000000;" x="267.428571429" xlink:href="#C1_0_43ed0d6c61" y="160.505114444"/>
    </g>
    <g clip-path="url(#p5873ec822d)">
     <use style="fill:#0000ff;stroke:#000000;" x="332.196428571" xlink:href="#C1_0_43ed0d6c61" y="138.139365711"/>
    </g>
    <g clip-path="url(#p5873ec822d)">
     <use style="fill:#0000ff;stroke:#000000;" x="396.964285714" xlink:href="#C1_0_43ed0d6c61" y="114.961294767"/>
    </g>
    <g clip-path="url(#p5873ec822d)">
     <use style="fill:#0000ff;stroke:#000000;" x="461.732142857" xlink:href="#C1_0_43ed0d6c61" y="99.08748248"/>
    </g>
    <g clip-path="url(#p5873ec822d)">
     <use style="fill:#0000ff;stroke:#000000;" x="526.5" xlink:href="#C1_0_43ed0d6c61" y="95.2553336"/>
    </g>
   </g>
   <g id="PathCollection_3">
    <defs>
     <path d="
M-2.78664e-16 5.91608
L3.54965 0
L1.85776e-16 -5.91608
L-3.54965 -9.28879e-16
z
" id="C2_0_b9acb912de"/>
    </defs>
    <g clip-path="url(#p5873ec822d)">
     <use style="fill:#008000;stroke:#000000;" x="73.125" xlink:href="#C2_0_b9acb912de" y="301.316656323"/>
    </g>
    <g clip-path="url(#p5873ec822d)">
     <use style="fill:#008000;stroke:#000000;" x="137.892857143" xlink:href="#C2_0_b9acb912de" y="256.798181756"/>
    </g>
    <g clip-path="url(#p5873ec822d)">
     <use style="fill:#008000;stroke:#000000;" x="202.660714286" xlink:href="#C2_0_b9acb912de" y="213.813732675"/>
    </g>
    <g clip-path="url(#p5873ec822d)">
     <use style="fill:#008000;stroke:#000000;" x="267.428571429" xlink:href="#C2_0_b9acb912de" y="176.328972579"/>
    </g>
    <g clip-path="url(#p5873ec822d)">
     <use style="fill:#008000;stroke:#000000;" x="332.196428571" xlink:href="#C2_0_b9acb912de" y="159.930807446"/>
    </g>
    <g clip-path="url(#p5873ec822d)">
     <use style="fill:#008000;stroke:#000000;" x="396.964285714" xlink:href="#C2_0_b9acb912de" y="127.047595136"/>
    </g>
    <g clip-path="url(#p5873ec822d)">
     <use style="fill:#008000;stroke:#000000;" x="461.732142857" xlink:href="#C2_0_b9acb912de" y="115.137070664"/>
    </g>
    <g clip-path="url(#p5873ec822d)">
     <use style="fill:#008000;stroke:#000000;" x="526.5" xlink:href="#C2_0_b9acb912de" y="98.341628"/>
    </g>
   </g>
   <g id="PathCollection_4">
    <defs>
     <path d="
M0 -4.1833
L-4.1833 4.1833
L4.1833 4.1833
z
" id="C3_0_911fcb3201"/>
    </defs>
    <g clip-path="url(#p5873ec822d)">
     <use style="fill:#ff0000;stroke:#000000;" x="73.125" xlink:href="#C3_0_911fcb3201" y="319.83310057"/>
    </g>
    <g clip-path="url(#p5873ec822d)">
     <use style="fill:#ff0000;stroke:#000000;" x="137.892857143" xlink:href="#C3_0_911fcb3201" y="262.377708606"/>
    </g>
    <g clip-path="url(#p5873ec822d)">
     <use style="fill:#ff0000;stroke:#000000;" x="202.660714286" xlink:href="#C3_0_911fcb3201" y="205.731244882"/>
    </g>
    <g clip-path="url(#p5873ec822d)">
     <use style="fill:#ff0000;stroke:#000000;" x="267.428571429" xlink:href="#C3_0_911fcb3201" y="174.108388521"/>
    </g>
    <g clip-path="url(#p5873ec822d)">
     <use style="fill:#ff0000;stroke:#000000;" x="332.196428571" xlink:href="#C3_0_911fcb3201" y="140.479777054"/>
    </g>
    <g clip-path="url(#p5873ec822d)">
     <use style="fill:#ff0000;stroke:#000000;" x="396.964285714" xlink:href="#C3_0_911fcb3201" y="115.059913304"/>
    </g>
    <g clip-path="url(#p5873ec822d)">
     <use style="fill:#ff0000;stroke:#000000;" x="461.732142857" xlink:href="#C3_0_911fcb3201" y="99.036901544"/>
    </g>
    <g clip-path="url(#p5873ec822d)">
     <use style="fill:#ff0000;stroke:#000000;" x="526.5" xlink:href="#C3_0_911fcb3201" y="94.48376"/>
    </g>
   </g>
   <g id="line2d_1">
    <path clip-path="url(#p5873ec822d)" d="
M73.125 94.4838
L137.893 94.4838
L202.661 94.4838
L267.429 94.4838
L332.196 94.4838
L396.964 94.4838
L461.732 94.4838
L526.5 94.4838" style="fill:none;stroke:#000000;stroke-linecap:square;"/>
   </g>
   <g id="line2d_2">
    <path clip-path="url(#p5873ec822d)" d="
M73.125 345.952
L137.893 324.127
L202.661 319.834
L267.429 290.463
L332.196 285.678
L396.964 281.354
L461.732 270.27
L526.5 263.829" style="fill:none;stroke:#ffff00;stroke-linecap:square;"/>
   </g>
   <g id="line2d_3">
    <path clip-path="url(#p5873ec822d)" d="
M73.125 282.851
L137.893 220.619
L202.661 186.355
L267.429 160.505
L332.196 138.139
L396.964 114.961
L461.732 99.0875
L526.5 95.2553" style="fill:none;stroke:#0000ff;stroke-linecap:square;"/>
   </g>
   <g id="line2d_4">
    <path clip-path="url(#p5873ec822d)" d="
M73.125 301.317
L137.893 256.798
L202.661 213.814
L267.429 176.329
L332.196 159.931
L396.964 127.048
L461.732 115.137
L526.5 98.3416" style="fill:none;stroke:#008000;stroke-linecap:square;"/>
   </g>
   <g id="line2d_5">
    <path clip-path="url(#p5873ec822d)" d="
M73.125 319.833
L137.893 262.378
L202.661 205.731
L267.429 174.108
L332.196 140.48
L396.964 115.06
L461.732 99.0369
L526.5 94.4838" style="fill:none;stroke:#ff0000;stroke-linecap:square;"/>
   </g>
   <g id="matplotlib.axis_1">
    <g id="xtick_1">
     <g id="line2d_6">
      <defs>
       <path d="
M0 0
L0 -4" id="m93b0483c22" style="stroke:#000000;stroke-width:0.5;"/>
      </defs>
      <g>
       <use style="stroke:#000000;stroke-width:0.5;" x="223.511307146" xlink:href="#m93b0483c22" y="396.9"/>
      </g>
     </g>
     <g id="line2d_7">
      <defs>
       <path d="
M0 0
L0 4" id="m741efc42ff" style="stroke:#000000;stroke-width:0.5;"/>
      </defs>
      <g>
       <use style="stroke:#000000;stroke-width:0.5;" x="223.511307146" xlink:href="#m741efc42ff" y="44.1"/>
      </g>
     </g>
     <g id="text_1">
      <!-- $\mathdefault{10^{3}}$ -->
      <defs>
       <path d="
M12.4062 8.29688
L28.5156 8.29688
L28.5156 63.9219
L10.9844 60.4062
L10.9844 69.3906
L28.4219 72.9062
L38.2812 72.9062
L38.2812 8.29688
L54.3906 8.29688
L54.3906 0
L12.4062 0
z
" id="DejaVuSans-31"/>
       <path d="
M31.7812 66.4062
Q24.1719 66.4062 20.3281 58.9062
Q16.5 51.4219 16.5 36.375
Q16.5 21.3906 20.3281 13.8906
Q24.1719 6.39062 31.7812 6.39062
Q39.4531 6.39062 43.2812 13.8906
Q47.125 21.3906 47.125 36.375
Q47.125 51.4219 43.2812 58.9062
Q39.4531 66.4062 31.7812 66.4062
M31.7812 74.2188
Q44.0469 74.2188 50.5156 64.5156
Q56.9844 54.8281 56.9844 36.375
Q56.9844 17.9688 50.5156 8.26562
Q44.0469 -1.42188 31.7812 -1.42188
Q19.5312 -1.42188 13.0625 8.26562
Q6.59375 17.9688 6.59375 36.375
Q6.59375 54.8281 13.0625 64.5156
Q19.5312 74.2188 31.7812 74.2188" id="DejaVuSans-30"/>
       <path d="
M40.5781 39.3125
Q47.6562 37.7969 51.625 33
Q55.6094 28.2188 55.6094 21.1875
Q55.6094 10.4062 48.1875 4.48438
Q40.7656 -1.42188 27.0938 -1.42188
Q22.5156 -1.42188 17.6562 -0.515625
Q12.7969 0.390625 7.625 2.20312
L7.625 11.7188
Q11.7188 9.32812 16.5938 8.10938
Q21.4844 6.89062 26.8125 6.89062
Q36.0781 6.89062 40.9375 10.5469
Q45.7969 14.2031 45.7969 21.1875
Q45.7969 27.6406 41.2812 31.2656
Q36.7656 34.9062 28.7188 34.9062
L20.2188 34.9062
L20.2188 43.0156
L29.1094 43.0156
Q36.375 43.0156 40.2344 45.9219
Q44.0938 48.8281 44.0938 54.2969
Q44.0938 59.9062 40.1094 62.9062
Q36.1406 65.9219 28.7188 65.9219
Q24.6562 65.9219 20.0156 65.0312
Q15.375 64.1562 9.8125 62.3125
L9.8125 71.0938
Q15.4375 72.6562 20.3438 73.4375
Q25.25 74.2188 29.5938 74.2188
Q40.8281 74.2188 47.3594 69.1094
Q53.9062 64.0156 53.9062 55.3281
Q53.9062 49.2656 50.4375 45.0938
Q46.9688 40.9219 40.5781 39.3125" id="DejaVuSans-33"/>
      </defs>
      <g transform="translate(212.531307146 411.844375)scale(0.12 -0.12)">
       <use transform="translate(0.0 0.234375)" xlink:href="#DejaVuSans-31"/>
       <use transform="translate(63.623046875 0.234375)" xlink:href="#DejaVuSans-30"/>
       <use transform="translate(127.24609375 58.046875)scale(0.7)" xlink:href="#DejaVuSans-33"/>
      </g>
     </g>
    </g>
    <g id="xtick_2">
     <g id="line2d_8">
      <g>
       <use style="stroke:#000000;stroke-width:0.5;" x="438.665471434" xlink:href="#m93b0483c22" y="396.9"/>
      </g>
     </g>
     <g id="line2d_9">
      <g>
       <use style="stroke:#000000;stroke-width:0.5;" x="438.665471434" xlink:href="#m741efc42ff" y="44.1"/>
      </g>
     </g>
     <g id="text_2">
      <!-- $\mathdefault{10^{4}}$ -->
      <defs>
       <path d="
M37.7969 64.3125
L12.8906 25.3906
L37.7969 25.3906
z

M35.2031 72.9062
L47.6094 72.9062
L47.6094 25.3906
L58.0156 25.3906
L58.0156 17.1875
L47.6094 17.1875
L47.6094 0
L37.7969 0
L37.7969 17.1875
L4.89062 17.1875
L4.89062 26.7031
z
" id="DejaVuSans-34"/>
      </defs>
      <g transform="translate(427.685471434 411.724375)scale(0.12 -0.12)">
       <use transform="translate(0.0 0.153125)" xlink:href="#DejaVuSans-31"/>
       <use transform="translate(63.623046875 0.153125)" xlink:href="#DejaVuSans-30"/>
       <use transform="translate(127.24609375 57.965625)scale(0.7)" xlink:href="#DejaVuSans-34"/>
      </g>
     </g>
    </g>
    <g id="xtick_3">
     <g id="line2d_10">
      <defs>
       <path d="
M0 0
L0 -2" id="m177f7580d0" style="stroke:#000000;stroke-width:0.5;"/>
      </defs>
      <g>
       <use style="stroke:#000000;stroke-width:0.5;" x="73.125" xlink:href="#m177f7580d0" y="396.9"/>
      </g>
     </g>
     <g id="line2d_11">
      <defs>
       <path d="
M0 0
L0 2" id="m5284c7e2a0" style="stroke:#000000;stroke-width:0.5;"/>
      </defs>
      <g>
       <use style="stroke:#000000;stroke-width:0.5;" x="73.125" xlink:href="#m5284c7e2a0" y="44.1"/>
      </g>
     </g>
    </g>
    <g id="xtick_4">
     <g id="line2d_12">
      <g>
       <use style="stroke:#000000;stroke-width:0.5;" x="111.011767681" xlink:href="#m177f7580d0" y="396.9"/>
      </g>
     </g>
     <g id="line2d_13">
      <g>
       <use style="stroke:#000000;stroke-width:0.5;" x="111.011767681" xlink:href="#m5284c7e2a0" y="44.1"/>
      </g>
     </g>
    </g>
    <g id="xtick_5">
     <g id="line2d_14">
      <g>
       <use style="stroke:#000000;stroke-width:0.5;" x="137.892857143" xlink:href="#m177f7580d0" y="396.9"/>
      </g>
     </g>
     <g id="line2d_15">
      <g>
       <use style="stroke:#000000;stroke-width:0.5;" x="137.892857143" xlink:href="#m5284c7e2a0" y="44.1"/>
      </g>
     </g>
    </g>
    <g id="xtick_6">
     <g id="line2d_16">
      <g>
       <use style="stroke:#000000;stroke-width:0.5;" x="158.743450003" xlink:href="#m177f7580d0" y="396.9"/>
      </g>
     </g>
     <g id="line2d_17">
      <g>
       <use style="stroke:#000000;stroke-width:0.5;" x="158.743450003" xlink:href="#m5284c7e2a0" y="44.1"/>
      </g>
     </g>
    </g>
    <g id="xtick_7">
     <g id="line2d_18">
      <g>
       <use style="stroke:#000000;stroke-width:0.5;" x="175.779624823" xlink:href="#m177f7580d0" y="396.9"/>
      </g>
     </g>
     <g id="line2d_19">
      <g>
       <use style="stroke:#000000;stroke-width:0.5;" x="175.779624823" xlink:href="#m5284c7e2a0" y="44.1"/>
      </g>
     </g>
    </g>
    <g id="xtick_8">
     <g id="line2d_20">
      <g>
       <use style="stroke:#000000;stroke-width:0.5;" x="190.183505398" xlink:href="#m177f7580d0" y="396.9"/>
      </g>
     </g>
     <g id="line2d_21">
      <g>
       <use style="stroke:#000000;stroke-width:0.5;" x="190.183505398" xlink:href="#m5284c7e2a0" y="44.1"/>
      </g>
     </g>
    </g>
    <g id="xtick_9">
     <g id="line2d_22">
      <g>
       <use style="stroke:#000000;stroke-width:0.5;" x="202.660714286" xlink:href="#m177f7580d0" y="396.9"/>
      </g>
     </g>
     <g id="line2d_23">
      <g>
       <use style="stroke:#000000;stroke-width:0.5;" x="202.660714286" xlink:href="#m5284c7e2a0" y="44.1"/>
      </g>
     </g>
    </g>
    <g id="xtick_10">
     <g id="line2d_24">
      <g>
       <use style="stroke:#000000;stroke-width:0.5;" x="213.666392504" xlink:href="#m177f7580d0" y="396.9"/>
      </g>
     </g>
     <g id="line2d_25">
      <g>
       <use style="stroke:#000000;stroke-width:0.5;" x="213.666392504" xlink:href="#m5284c7e2a0" y="44.1"/>
      </g>
     </g>
    </g>
    <g id="xtick_11">
     <g id="line2d_26">
      <g>
       <use style="stroke:#000000;stroke-width:0.5;" x="288.279164289" xlink:href="#m177f7580d0" y="396.9"/>
      </g>
     </g>
     <g id="line2d_27">
      <g>
       <use style="stroke:#000000;stroke-width:0.5;" x="288.279164289" xlink:href="#m5284c7e2a0" y="44.1"/>
      </g>
     </g>
    </g>
    <g id="xtick_12">
     <g id="line2d_28">
      <g>
       <use style="stroke:#000000;stroke-width:0.5;" x="326.165931969" xlink:href="#m177f7580d0" y="396.9"/>
      </g>
     </g>
     <g id="line2d_29">
      <g>
       <use style="stroke:#000000;stroke-width:0.5;" x="326.165931969" xlink:href="#m5284c7e2a0" y="44.1"/>
      </g>
     </g>
    </g>
    <g id="xtick_13">
     <g id="line2d_30">
      <g>
       <use style="stroke:#000000;stroke-width:0.5;" x="353.047021431" xlink:href="#m177f7580d0" y="396.9"/>
      </g>
     </g>
     <g id="line2d_31">
      <g>
       <use style="stroke:#000000;stroke-width:0.5;" x="353.047021431" xlink:href="#m5284c7e2a0" y="44.1"/>
      </g>
     </g>
    </g>
    <g id="xtick_14">
     <g id="line2d_32">
      <g>
       <use style="stroke:#000000;stroke-width:0.5;" x="373.897614291" xlink:href="#m177f7580d0" y="396.9"/>
      </g>
     </g>
     <g id="line2d_33">
      <g>
       <use style="stroke:#000000;stroke-width:0.5;" x="373.897614291" xlink:href="#m5284c7e2a0" y="44.1"/>
      </g>
     </g>
    </g>
    <g id="xtick_15">
     <g id="line2d_34">
      <g>
       <use style="stroke:#000000;stroke-width:0.5;" x="390.933789112" xlink:href="#m177f7580d0" y="396.9"/>
      </g>
     </g>
     <g id="line2d_35">
      <g>
       <use style="stroke:#000000;stroke-width:0.5;" x="390.933789112" xlink:href="#m5284c7e2a0" y="44.1"/>
      </g>
     </g>
    </g>
    <g id="xtick_16">
     <g id="line2d_36">
      <g>
       <use style="stroke:#000000;stroke-width:0.5;" x="405.337669687" xlink:href="#m177f7580d0" y="396.9"/>
      </g>
     </g>
     <g id="line2d_37">
      <g>
       <use style="stroke:#000000;stroke-width:0.5;" x="405.337669687" xlink:href="#m5284c7e2a0" y="44.1"/>
      </g>
     </g>
    </g>
    <g id="xtick_17">
     <g id="line2d_38">
      <g>
       <use style="stroke:#000000;stroke-width:0.5;" x="417.814878574" xlink:href="#m177f7580d0" y="396.9"/>
      </g>
     </g>
     <g id="line2d_39">
      <g>
       <use style="stroke:#000000;stroke-width:0.5;" x="417.814878574" xlink:href="#m5284c7e2a0" y="44.1"/>
      </g>
     </g>
    </g>
    <g id="xtick_18">
     <g id="line2d_40">
      <g>
       <use style="stroke:#000000;stroke-width:0.5;" x="428.820556793" xlink:href="#m177f7580d0" y="396.9"/>
      </g>
     </g>
     <g id="line2d_41">
      <g>
       <use style="stroke:#000000;stroke-width:0.5;" x="428.820556793" xlink:href="#m5284c7e2a0" y="44.1"/>
      </g>
     </g>
    </g>
    <g id="xtick_19">
     <g id="line2d_42">
      <g>
       <use style="stroke:#000000;stroke-width:0.5;" x="503.433328577" xlink:href="#m177f7580d0" y="396.9"/>
      </g>
     </g>
     <g id="line2d_43">
      <g>
       <use style="stroke:#000000;stroke-width:0.5;" x="503.433328577" xlink:href="#m5284c7e2a0" y="44.1"/>
      </g>
     </g>
    </g>
    <g id="text_3">
     <!-- Number of Steps -->
     <defs>
      <path d="
M9.8125 72.9062
L23.0938 72.9062
L55.4219 11.9219
L55.4219 72.9062
L64.9844 72.9062
L64.9844 0
L51.7031 0
L19.3906 60.9844
L19.3906 0
L9.8125 0
z
" id="DejaVuSans-4e"/>
      <path d="
M30.6094 48.3906
Q23.3906 48.3906 19.1875 42.75
Q14.9844 37.1094 14.9844 27.2969
Q14.9844 17.4844 19.1562 11.8438
Q23.3438 6.20312 30.6094 6.20312
Q37.7969 6.20312 41.9844 11.8594
Q46.1875 17.5312 46.1875 27.2969
Q46.1875 37.0156 41.9844 42.7031
Q37.7969 48.3906 30.6094 48.3906
M30.6094 56
Q42.3281 56 49.0156 48.375
Q55.7188 40.7656 55.7188 27.2969
Q55.7188 13.875 49.0156 6.21875
Q42.3281 -1.42188 30.6094 -1.42188
Q18.8438 -1.42188 12.1719 6.21875
Q5.51562 13.875 5.51562 27.2969
Q5.51562 40.7656 12.1719 48.375
Q18.8438 56 30.6094 56" id="DejaVuSans-6f"/>
      <path d="
M52 44.1875
Q55.375 50.25 60.0625 53.125
Q64.75 56 71.0938 56
Q79.6406 56 84.2812 50.0156
Q88.9219 44.0469 88.9219 33.0156
L88.9219 0
L79.8906 0
L79.8906 32.7188
Q79.8906 40.5781 77.0938 44.375
Q74.3125 48.1875 68.6094 48.1875
Q61.625 48.1875 57.5625 43.5469
Q53.5156 38.9219 53.5156 30.9062
L53.5156 0
L44.4844 0
L44.4844 32.7188
Q44.4844 40.625 41.7031 44.4062
Q38.9219 48.1875 33.1094 48.1875
Q26.2188 48.1875 22.1562 43.5312
Q18.1094 38.875 18.1094 30.9062
L18.1094 0
L9.07812 0
L9.07812 54.6875
L18.1094 54.6875
L18.1094 46.1875
Q21.1875 51.2188 25.4844 53.6094
Q29.7812 56 35.6875 56
Q41.6562 56 45.8281 52.9688
Q50 49.9531 52 44.1875" id="DejaVuSans-6d"/>
      <path d="
M53.5156 70.5156
L53.5156 60.8906
Q47.9062 63.5781 42.9219 64.8906
Q37.9375 66.2188 33.2969 66.2188
Q25.25 66.2188 20.875 63.0938
Q16.5 59.9688 16.5 54.2031
Q16.5 49.3594 19.4062 46.8906
Q22.3125 44.4375 30.4219 42.9219
L36.375 41.7031
Q47.4062 39.5938 52.6562 34.2969
Q57.9062 29 57.9062 20.125
Q57.9062 9.51562 50.7969 4.04688
Q43.7031 -1.42188 29.9844 -1.42188
Q24.8125 -1.42188 18.9688 -0.25
Q13.1406 0.921875 6.89062 3.21875
L6.89062 13.375
Q12.8906 10.0156 18.6562 8.29688
Q24.4219 6.59375 29.9844 6.59375
Q38.4219 6.59375 43.0156 9.90625
Q47.6094 13.2344 47.6094 19.3906
Q47.6094 24.75 44.3125 27.7812
Q41.0156 30.8125 33.5 32.3281
L27.4844 33.5
Q16.4531 35.6875 11.5156 40.375
Q6.59375 45.0625 6.59375 53.4219
Q6.59375 63.0938 13.4062 68.6562
Q20.2188 74.2188 32.1719 74.2188
Q37.3125 74.2188 42.625 73.2812
Q47.9531 72.3594 53.5156 70.5156" id="DejaVuSans-53"/>
      <path d="
M37.1094 75.9844
L37.1094 68.5
L28.5156 68.5
Q23.6875 68.5 21.7969 66.5469
Q19.9219 64.5938 19.9219 59.5156
L19.9219 54.6875
L34.7188 54.6875
L34.7188 47.7031
L19.9219 47.7031
L19.9219 0
L10.8906 0
L10.8906 47.7031
L2.29688 47.7031
L2.29688 54.6875
L10.8906 54.6875
L10.8906 58.5
Q10.8906 67.625 15.1406 71.7969
Q19.3906 75.9844 28.6094 75.9844
z
" id="DejaVuSans-66"/>
      <path id="DejaVuSans-20"/>
      <path d="
M8.5 21.5781
L8.5 54.6875
L17.4844 54.6875
L17.4844 21.9219
Q17.4844 14.1562 20.5 10.2656
Q23.5312 6.39062 29.5938 6.39062
Q36.8594 6.39062 41.0781 11.0312
Q45.3125 15.6719 45.3125 23.6875
L45.3125 54.6875
L54.2969 54.6875
L54.2969 0
L45.3125 0
L45.3125 8.40625
Q42.0469 3.42188 37.7188 1
Q33.4062 -1.42188 27.6875 -1.42188
Q18.2656 -1.42188 13.375 4.4375
Q8.5 10.2969 8.5 21.5781
M31.1094 56
z
" id="DejaVuSans-75"/>
      <path d="
M18.3125 70.2188
L18.3125 54.6875
L36.8125 54.6875
L36.8125 47.7031
L18.3125 47.7031
L18.3125 18.0156
Q18.3125 11.3281 20.1406 9.42188
Q21.9688 7.51562 27.5938 7.51562
L36.8125 7.51562
L36.8125 0
L27.5938 0
Q17.1875 0 13.2344 3.875
Q9.28125 7.76562 9.28125 18.0156
L9.28125 47.7031
L2.6875 47.7031
L2.6875 54.6875
L9.28125 54.6875
L9.28125 70.2188
z
" id="DejaVuSans-74"/>
      <path d="
M56.2031 29.5938
L56.2031 25.2031
L14.8906 25.2031
Q15.4844 15.9219 20.4844 11.0625
Q25.4844 6.20312 34.4219 6.20312
Q39.5938 6.20312 44.4531 7.46875
Q49.3125 8.73438 54.1094 11.2812
L54.1094 2.78125
Q49.2656 0.734375 44.1875 -0.34375
Q39.1094 -1.42188 33.8906 -1.42188
Q20.7969 -1.42188 13.1562 6.1875
Q5.51562 13.8125 5.51562 26.8125
Q5.51562 40.2344 12.7656 48.1094
Q20.0156 56 32.3281 56
Q43.3594 56 49.7812 48.8906
Q56.2031 41.7969 56.2031 29.5938
M47.2188 32.2344
Q47.125 39.5938 43.0938 43.9844
Q39.0625 48.3906 32.4219 48.3906
Q24.9062 48.3906 20.3906 44.1406
Q15.875 39.8906 15.1875 32.1719
z
" id="DejaVuSans-65"/>
      <path d="
M48.6875 27.2969
Q48.6875 37.2031 44.6094 42.8438
Q40.5312 48.4844 33.4062 48.4844
Q26.2656 48.4844 22.1875 42.8438
Q18.1094 37.2031 18.1094 27.2969
Q18.1094 17.3906 22.1875 11.75
Q26.2656 6.10938 33.4062 6.10938
Q40.5312 6.10938 44.6094 11.75
Q48.6875 17.3906 48.6875 27.2969
M18.1094 46.3906
Q20.9531 51.2656 25.2656 53.625
Q29.5938 56 35.5938 56
Q45.5625 56 51.7812 48.0938
Q58.0156 40.1875 58.0156 27.2969
Q58.0156 14.4062 51.7812 6.48438
Q45.5625 -1.42188 35.5938 -1.42188
Q29.5938 -1.42188 25.2656 0.953125
Q20.9531 3.32812 18.1094 8.20312
L18.1094 0
L9.07812 0
L9.07812 75.9844
L18.1094 75.9844
z
" id="DejaVuSans-62"/>
      <path d="
M18.1094 8.20312
L18.1094 -20.7969
L9.07812 -20.7969
L9.07812 54.6875
L18.1094 54.6875
L18.1094 46.3906
Q20.9531 51.2656 25.2656 53.625
Q29.5938 56 35.5938 56
Q45.5625 56 51.7812 48.0938
Q58.0156 40.1875 58.0156 27.2969
Q58.0156 14.4062 51.7812 6.48438
Q45.5625 -1.42188 35.5938 -1.42188
Q29.5938 -1.42188 25.2656 0.953125
Q20.9531 3.32812 18.1094 8.20312
M48.6875 27.2969
Q48.6875 37.2031 44.6094 42.8438
Q40.5312 48.4844 33.4062 48.4844
Q26.2656 48.4844 22.1875 42.8438
Q18.1094 37.2031 18.1094 27.2969
Q18.1094 17.3906 22.1875 11.75
Q26.2656 6.10938 33.4062 6.10938
Q40.5312 6.10938 44.6094 11.75
Q48.6875 17.3906 48.6875 27.2969" id="DejaVuSans-70"/>
      <path d="
M44.2812 53.0781
L44.2812 44.5781
Q40.4844 46.5312 36.375 47.5
Q32.2812 48.4844 27.875 48.4844
Q21.1875 48.4844 17.8438 46.4375
Q14.5 44.3906 14.5 40.2812
Q14.5 37.1562 16.8906 35.375
Q19.2812 33.5938 26.5156 31.9844
L29.5938 31.2969
Q39.1562 29.25 43.1875 25.5156
Q47.2188 21.7812 47.2188 15.0938
Q47.2188 7.46875 41.1875 3.01562
Q35.1562 -1.42188 24.6094 -1.42188
Q20.2188 -1.42188 15.4531 -0.5625
Q10.6875 0.296875 5.42188 2
L5.42188 11.2812
Q10.4062 8.6875 15.2344 7.39062
Q20.0625 6.10938 24.8125 6.10938
Q31.1562 6.10938 34.5625 8.28125
Q37.9844 10.4531 37.9844 14.4062
Q37.9844 18.0625 35.5156 20.0156
Q33.0625 21.9688 24.7031 23.7812
L21.5781 24.5156
Q13.2344 26.2656 9.51562 29.9062
Q5.8125 33.5469 5.8125 39.8906
Q5.8125 47.6094 11.2812 51.7969
Q16.75 56 26.8125 56
Q31.7812 56 36.1719 55.2656
Q40.5781 54.5469 44.2812 53.0781" id="DejaVuSans-73"/>
      <path d="
M41.1094 46.2969
Q39.5938 47.1719 37.8125 47.5781
Q36.0312 48 33.8906 48
Q26.2656 48 22.1875 43.0469
Q18.1094 38.0938 18.1094 28.8125
L18.1094 0
L9.07812 0
L9.07812 54.6875
L18.1094 54.6875
L18.1094 46.1875
Q20.9531 51.1719 25.4844 53.5781
Q30.0312 56 36.5312 56
Q37.4531 56 38.5781 55.875
Q39.7031 55.7656 41.0625 55.5156
z
" id="DejaVuSans-72"/>
     </defs>
     <g transform="translate(232.885 431.4975)scale(0.16 -0.16)">
      <use xlink:href="#DejaVuSans-4e"/>
      <use x="74.8046875" xlink:href="#DejaVuSans-75"/>
      <use x="138.18359375" xlink:href="#DejaVuSans-6d"/>
      <use x="235.595703125" xlink:href="#DejaVuSans-62"/>
      <use x="299.072265625" xlink:href="#DejaVuSans-65"/>
      <use x="360.595703125" xlink:href="#DejaVuSans-72"/>
      <use x="401.708984375" xlink:href="#DejaVuSans-20"/>
      <use x="433.49609375" xlink:href="#DejaVuSans-6f"/>
      <use x="494.677734375" xlink:href="#DejaVuSans-66"/>
      <use x="529.8828125" xlink:href="#DejaVuSans-20"/>
      <use x="561.669921875" xlink:href="#DejaVuSans-53"/>
      <use x="625.146484375" xlink:href="#DejaVuSans-74"/>
      <use x="664.35546875" xlink:href="#DejaVuSans-65"/>
      <use x="725.87890625" xlink:href="#DejaVuSans-70"/>
      <use x="789.35546875" xlink:href="#DejaVuSans-73"/>
     </g>
    </g>
   </g>
   <g id="matplotlib.axis_2">
    <g id="ytick_1">
     <g id="line2d_44">
      <defs>
       <path d="
M0 0
L4 0" id="m728421d6d4" style="stroke:#000000;stroke-width:0.5;"/>
      </defs>
      <g>
       <use style="stroke:#000000;stroke-width:0.5;" x="73.125" xlink:href="#m728421d6d4" y="396.9"/>
      </g>
     </g>
     <g id="line2d_45">
      <defs>
       <path d="
M0 0
L-4 0" id="mcb0005524f" style="stroke:#000000;stroke-width:0.5;"/>
      </defs>
      <g>
       <use style="stroke:#000000;stroke-width:0.5;" x="526.5" xlink:href="#mcb0005524f" y="396.9"/>
      </g>
     </g>
     <g id="text_4">
      <!-- 1.0 -->
      <defs>
       <path d="
M10.6875 12.4062
L21 12.4062
L21 0
L10.6875 0
z
" id="DejaVuSans-2e"/>
      </defs>
      <g transform="translate(52.15625 400.21125)scale(0.12 -0.12)">
       <use xlink:href="#DejaVuSans-31"/>
       <use x="63.623046875" xlink:href="#DejaVuSans-2e"/>
       <use x="95.41015625" xlink:href="#DejaVuSans-30"/>
      </g>
     </g>
    </g>
    <g id="ytick_2">
     <g id="line2d_46">
      <g>
       <use style="stroke:#000000;stroke-width:0.5;" x="73.125" xlink:href="#m728421d6d4" y="357.7"/>
      </g>
     </g>
     <g id="line2d_47">
      <g>
       <use style="stroke:#000000;stroke-width:0.5;" x="526.5" xlink:href="#mcb0005524f" y="357.7"/>
      </g>
     </g>
     <g id="text_5">
      <!-- 1.1 -->
      <g transform="translate(52.4675 361.01125)scale(0.12 -0.12)">
       <use xlink:href="#DejaVuSans-31"/>
       <use x="63.623046875" xlink:href="#DejaVuSans-2e"/>
       <use x="95.41015625" xlink:href="#DejaVuSans-31"/>
      </g>
     </g>
    </g>
    <g id="ytick_3">
     <g id="line2d_48">
      <g>
       <use style="stroke:#000000;stroke-width:0.5;" x="73.125" xlink:href="#m728421d6d4" y="318.5"/>
      </g>
     </g>
     <g id="line2d_49">
      <g>
       <use style="stroke:#000000;stroke-width:0.5;" x="526.5" xlink:href="#mcb0005524f" y="318.5"/>
      </g>
     </g>
     <g id="text_6">
      <!-- 1.2 -->
      <defs>
       <path d="
M19.1875 8.29688
L53.6094 8.29688
L53.6094 0
L7.32812 0
L7.32812 8.29688
Q12.9375 14.1094 22.625 23.8906
Q32.3281 33.6875 34.8125 36.5312
Q39.5469 41.8438 41.4219 45.5312
Q43.3125 49.2188 43.3125 52.7812
Q43.3125 58.5938 39.2344 62.25
Q35.1562 65.9219 28.6094 65.9219
Q23.9688 65.9219 18.8125 64.3125
Q13.6719 62.7031 7.8125 59.4219
L7.8125 69.3906
Q13.7656 71.7812 18.9375 73
Q24.125 74.2188 28.4219 74.2188
Q39.75 74.2188 46.4844 68.5469
Q53.2188 62.8906 53.2188 53.4219
Q53.2188 48.9219 51.5312 44.8906
Q49.8594 40.875 45.4062 35.4062
Q44.1875 33.9844 37.6406 27.2188
Q31.1094 20.4531 19.1875 8.29688" id="DejaVuSans-32"/>
      </defs>
      <g transform="translate(52.56125 321.81125)scale(0.12 -0.12)">
       <use xlink:href="#DejaVuSans-31"/>
       <use x="63.623046875" xlink:href="#DejaVuSans-2e"/>
       <use x="95.41015625" xlink:href="#DejaVuSans-32"/>
      </g>
     </g>
    </g>
    <g id="ytick_4">
     <g id="line2d_50">
      <g>
       <use style="stroke:#000000;stroke-width:0.5;" x="73.125" xlink:href="#m728421d6d4" y="279.3"/>
      </g>
     </g>
     <g id="line2d_51">
      <g>
       <use style="stroke:#000000;stroke-width:0.5;" x="526.5" xlink:href="#mcb0005524f" y="279.3"/>
      </g>
     </g>
     <g id="text_7">
      <!-- 1.3 -->
      <g transform="translate(52.32125 282.61125)scale(0.12 -0.12)">
       <use xlink:href="#DejaVuSans-31"/>
       <use x="63.623046875" xlink:href="#DejaVuSans-2e"/>
       <use x="95.41015625" xlink:href="#DejaVuSans-33"/>
      </g>
     </g>
    </g>
    <g id="ytick_5">
     <g id="line2d_52">
      <g>
       <use style="stroke:#000000;stroke-width:0.5;" x="73.125" xlink:href="#m728421d6d4" y="240.1"/>
      </g>
     </g>
     <g id="line2d_53">
      <g>
       <use style="stroke:#000000;stroke-width:0.5;" x="526.5" xlink:href="#mcb0005524f" y="240.1"/>
      </g>
     </g>
     <g id="text_8">
      <!-- 1.4 -->
      <g transform="translate(52.0325 243.41125)scale(0.12 -0.12)">
       <use xlink:href="#DejaVuSans-31"/>
       <use x="63.623046875" xlink:href="#DejaVuSans-2e"/>
       <use x="95.41015625" xlink:href="#DejaVuSans-34"/>
      </g>
     </g>
    </g>
    <g id="ytick_6">
     <g id="line2d_54">
      <g>
       <use style="stroke:#000000;stroke-width:0.5;" x="73.125" xlink:href="#m728421d6d4" y="200.9"/>
      </g>
     </g>
     <g id="line2d_55">
      <g>
       <use style="stroke:#000000;stroke-width:0.5;" x="526.5" xlink:href="#mcb0005524f" y="200.9"/>
      </g>
     </g>
     <g id="text_9">
      <!-- 1.5 -->
      <defs>
       <path d="
M10.7969 72.9062
L49.5156 72.9062
L49.5156 64.5938
L19.8281 64.5938
L19.8281 46.7344
Q21.9688 47.4688 24.1094 47.8281
Q26.2656 48.1875 28.4219 48.1875
Q40.625 48.1875 47.75 41.5
Q54.8906 34.8125 54.8906 23.3906
Q54.8906 11.625 47.5625 5.09375
Q40.2344 -1.42188 26.9062 -1.42188
Q22.3125 -1.42188 17.5469 -0.640625
Q12.7969 0.140625 7.71875 1.70312
L7.71875 11.625
Q12.1094 9.23438 16.7969 8.0625
Q21.4844 6.89062 26.7031 6.89062
Q35.1562 6.89062 40.0781 11.3281
Q45.0156 15.7656 45.0156 23.3906
Q45.0156 31 40.0781 35.4375
Q35.1562 39.8906 26.7031 39.8906
Q22.75 39.8906 18.8125 39.0156
Q14.8906 38.1406 10.7969 36.2812
z
" id="DejaVuSans-35"/>
      </defs>
      <g transform="translate(52.4075 204.21125)scale(0.12 -0.12)">
       <use xlink:href="#DejaVuSans-31"/>
       <use x="63.623046875" xlink:href="#DejaVuSans-2e"/>
       <use x="95.41015625" xlink:href="#DejaVuSans-35"/>
      </g>
     </g>
    </g>
    <g id="ytick_7">
     <g id="line2d_56">
      <g>
       <use style="stroke:#000000;stroke-width:0.5;" x="73.125" xlink:href="#m728421d6d4" y="161.7"/>
      </g>
     </g>
     <g id="line2d_57">
      <g>
       <use style="stroke:#000000;stroke-width:0.5;" x="526.5" xlink:href="#mcb0005524f" y="161.7"/>
      </g>
     </g>
     <g id="text_10">
      <!-- 1.6 -->
      <defs>
       <path d="
M33.0156 40.375
Q26.375 40.375 22.4844 35.8281
Q18.6094 31.2969 18.6094 23.3906
Q18.6094 15.5312 22.4844 10.9531
Q26.375 6.39062 33.0156 6.39062
Q39.6562 6.39062 43.5312 10.9531
Q47.4062 15.5312 47.4062 23.3906
Q47.4062 31.2969 43.5312 35.8281
Q39.6562 40.375 33.0156 40.375
M52.5938 71.2969
L52.5938 62.3125
Q48.875 64.0625 45.0938 64.9844
Q41.3125 65.9219 37.5938 65.9219
Q27.8281 65.9219 22.6719 59.3281
Q17.5312 52.7344 16.7969 39.4062
Q19.6719 43.6562 24.0156 45.9219
Q28.375 48.1875 33.5938 48.1875
Q44.5781 48.1875 50.9531 41.5156
Q57.3281 34.8594 57.3281 23.3906
Q57.3281 12.1562 50.6875 5.35938
Q44.0469 -1.42188 33.0156 -1.42188
Q20.3594 -1.42188 13.6719 8.26562
Q6.98438 17.9688 6.98438 36.375
Q6.98438 53.6562 15.1875 63.9375
Q23.3906 74.2188 37.2031 74.2188
Q40.9219 74.2188 44.7031 73.4844
Q48.4844 72.75 52.5938 71.2969" id="DejaVuSans-36"/>
      </defs>
      <g transform="translate(52.115 165.01125)scale(0.12 -0.12)">
       <use xlink:href="#DejaVuSans-31"/>
       <use x="63.623046875" xlink:href="#DejaVuSans-2e"/>
       <use x="95.41015625" xlink:href="#DejaVuSans-36"/>
      </g>
     </g>
    </g>
    <g id="ytick_8">
     <g id="line2d_58">
      <g>
       <use style="stroke:#000000;stroke-width:0.5;" x="73.125" xlink:href="#m728421d6d4" y="122.5"/>
      </g>
     </g>
     <g id="line2d_59">
      <g>
       <use style="stroke:#000000;stroke-width:0.5;" x="526.5" xlink:href="#mcb0005524f" y="122.5"/>
      </g>
     </g>
     <g id="text_11">
      <!-- 1.7 -->
      <defs>
       <path d="
M8.20312 72.9062
L55.0781 72.9062
L55.0781 68.7031
L28.6094 0
L18.3125 0
L43.2188 64.5938
L8.20312 64.5938
z
" id="DejaVuSans-37"/>
      </defs>
      <g transform="translate(52.385 125.81125)scale(0.12 -0.12)">
       <use xlink:href="#DejaVuSans-31"/>
       <use x="63.623046875" xlink:href="#DejaVuSans-2e"/>
       <use x="95.41015625" xlink:href="#DejaVuSans-37"/>
      </g>
     </g>
    </g>
    <g id="ytick_9">
     <g id="line2d_60">
      <g>
       <use style="stroke:#000000;stroke-width:0.5;" x="73.125" xlink:href="#m728421d6d4" y="83.3"/>
      </g>
     </g>
     <g id="line2d_61">
      <g>
       <use style="stroke:#000000;stroke-width:0.5;" x="526.5" xlink:href="#mcb0005524f" y="83.3"/>
      </g>
     </g>
     <g id="text_12">
      <!-- 1.8 -->
      <defs>
       <path d="
M31.7812 34.625
Q24.75 34.625 20.7188 30.8594
Q16.7031 27.0938 16.7031 20.5156
Q16.7031 13.9219 20.7188 10.1562
Q24.75 6.39062 31.7812 6.39062
Q38.8125 6.39062 42.8594 10.1719
Q46.9219 13.9688 46.9219 20.5156
Q46.9219 27.0938 42.8906 30.8594
Q38.875 34.625 31.7812 34.625
M21.9219 38.8125
Q15.5781 40.375 12.0312 44.7188
Q8.5 49.0781 8.5 55.3281
Q8.5 64.0625 14.7188 69.1406
Q20.9531 74.2188 31.7812 74.2188
Q42.6719 74.2188 48.875 69.1406
Q55.0781 64.0625 55.0781 55.3281
Q55.0781 49.0781 51.5312 44.7188
Q48 40.375 41.7031 38.8125
Q48.8281 37.1562 52.7969 32.3125
Q56.7812 27.4844 56.7812 20.5156
Q56.7812 9.90625 50.3125 4.23438
Q43.8438 -1.42188 31.7812 -1.42188
Q19.7344 -1.42188 13.25 4.23438
Q6.78125 9.90625 6.78125 20.5156
Q6.78125 27.4844 10.7812 32.3125
Q14.7969 37.1562 21.9219 38.8125
M18.3125 54.3906
Q18.3125 48.7344 21.8438 45.5625
Q25.3906 42.3906 31.7812 42.3906
Q38.1406 42.3906 41.7188 45.5625
Q45.3125 48.7344 45.3125 54.3906
Q45.3125 60.0625 41.7188 63.2344
Q38.1406 66.4062 31.7812 66.4062
Q25.3906 66.4062 21.8438 63.2344
Q18.3125 60.0625 18.3125 54.3906" id="DejaVuSans-38"/>
      </defs>
      <g transform="translate(52.180625 86.61125)scale(0.12 -0.12)">
       <use xlink:href="#DejaVuSans-31"/>
       <use x="63.623046875" xlink:href="#DejaVuSans-2e"/>
       <use x="95.41015625" xlink:href="#DejaVuSans-38"/>
      </g>
     </g>
    </g>
    <g id="ytick_10">
     <g id="line2d_62">
      <g>
       <use style="stroke:#000000;stroke-width:0.5;" x="73.125" xlink:href="#m728421d6d4" y="44.1"/>
      </g>
     </g>
     <g id="line2d_63">
      <g>
       <use style="stroke:#000000;stroke-width:0.5;" x="526.5" xlink:href="#mcb0005524f" y="44.1"/>
      </g>
     </g>
     <g id="text_13">
      <!-- 1.9 -->
      <defs>
       <path d="
M10.9844 1.51562
L10.9844 10.5
Q14.7031 8.73438 18.5 7.8125
Q22.3125 6.89062 25.9844 6.89062
Q35.75 6.89062 40.8906 13.4531
Q46.0469 20.0156 46.7812 33.4062
Q43.9531 29.2031 39.5938 26.9531
Q35.25 24.7031 29.9844 24.7031
Q19.0469 24.7031 12.6719 31.3125
Q6.29688 37.9375 6.29688 49.4219
Q6.29688 60.6406 12.9375 67.4219
Q19.5781 74.2188 30.6094 74.2188
Q43.2656 74.2188 49.9219 64.5156
Q56.5938 54.8281 56.5938 36.375
Q56.5938 19.1406 48.4062 8.85938
Q40.2344 -1.42188 26.4219 -1.42188
Q22.7031 -1.42188 18.8906 -0.6875
Q15.0938 0.046875 10.9844 1.51562
M30.6094 32.4219
Q37.25 32.4219 41.125 36.9531
Q45.0156 41.5 45.0156 49.4219
Q45.0156 57.2812 41.125 61.8438
Q37.25 66.4062 30.6094 66.4062
Q23.9688 66.4062 20.0938 61.8438
Q16.2188 57.2812 16.2188 49.4219
Q16.2188 41.5 20.0938 36.9531
Q23.9688 32.4219 30.6094 32.4219" id="DejaVuSans-39"/>
      </defs>
      <g transform="translate(52.203125 47.41125)scale(0.12 -0.12)">
       <use xlink:href="#DejaVuSans-31"/>
       <use x="63.623046875" xlink:href="#DejaVuSans-2e"/>
       <use x="95.41015625" xlink:href="#DejaVuSans-39"/>
      </g>
     </g>
    </g>
    <g id="text_14">
     <!-- Objective Value -->
     <defs>
      <path d="
M9.42188 54.6875
L18.4062 54.6875
L18.4062 -0.984375
Q18.4062 -11.4219 14.4219 -16.1094
Q10.4531 -20.7969 1.60938 -20.7969
L-1.8125 -20.7969
L-1.8125 -13.1875
L0.59375 -13.1875
Q5.71875 -13.1875 7.5625 -10.8125
Q9.42188 -8.45312 9.42188 -0.984375
z

M9.42188 75.9844
L18.4062 75.9844
L18.4062 64.5938
L9.42188 64.5938
z
" id="DejaVuSans-6a"/>
      <path d="
M39.4062 66.2188
Q28.6562 66.2188 22.3281 58.2031
Q16.0156 50.2031 16.0156 36.375
Q16.0156 22.6094 22.3281 14.5938
Q28.6562 6.59375 39.4062 6.59375
Q50.1406 6.59375 56.4219 14.5938
Q62.7031 22.6094 62.7031 36.375
Q62.7031 50.2031 56.4219 58.2031
Q50.1406 66.2188 39.4062 66.2188
M39.4062 74.2188
Q54.7344 74.2188 63.9062 63.9375
Q73.0938 53.6562 73.0938 36.375
Q73.0938 19.1406 63.9062 8.85938
Q54.7344 -1.42188 39.4062 -1.42188
Q24.0312 -1.42188 14.8125 8.82812
Q5.60938 19.0938 5.60938 36.375
Q5.60938 53.6562 14.8125 63.9375
Q24.0312 74.2188 39.4062 74.2188" id="DejaVuSans-4f"/>
      <path d="
M9.42188 75.9844
L18.4062 75.9844
L18.4062 0
L9.42188 0
z
" id="DejaVuSans-6c"/>
      <path d="
M48.7812 52.5938
L48.7812 44.1875
Q44.9688 46.2969 41.1406 47.3438
Q37.3125 48.3906 33.4062 48.3906
Q24.6562 48.3906 19.8125 42.8438
Q14.9844 37.3125 14.9844 27.2969
Q14.9844 17.2812 19.8125 11.7344
Q24.6562 6.20312 33.4062 6.20312
Q37.3125 6.20312 41.1406 7.25
Q44.9688 8.29688 48.7812 10.4062
L48.7812 2.09375
Q45.0156 0.34375 40.9844 -0.53125
Q36.9688 -1.42188 32.4219 -1.42188
Q20.0625 -1.42188 12.7812 6.34375
Q5.51562 14.1094 5.51562 27.2969
Q5.51562 40.6719 12.8594 48.3281
Q20.2188 56 33.0156 56
Q37.1562 56 41.1094 55.1406
Q45.0625 54.2969 48.7812 52.5938" id="DejaVuSans-63"/>
      <path d="
M9.42188 54.6875
L18.4062 54.6875
L18.4062 0
L9.42188 0
z

M9.42188 75.9844
L18.4062 75.9844
L18.4062 64.5938
L9.42188 64.5938
z
" id="DejaVuSans-69"/>
      <path d="
M2.98438 54.6875
L12.5 54.6875
L29.5938 8.79688
L46.6875 54.6875
L56.2031 54.6875
L35.6875 0
L23.4844 0
z
" id="DejaVuSans-76"/>
      <path d="
M28.6094 0
L0.78125 72.9062
L11.0781 72.9062
L34.1875 11.5312
L57.3281 72.9062
L67.5781 72.9062
L39.7969 0
z
" id="DejaVuSans-56"/>
      <path d="
M34.2812 27.4844
Q23.3906 27.4844 19.1875 25
Q14.9844 22.5156 14.9844 16.5
Q14.9844 11.7188 18.1406 8.90625
Q21.2969 6.10938 26.7031 6.10938
Q34.1875 6.10938 38.7031 11.4062
Q43.2188 16.7031 43.2188 25.4844
L43.2188 27.4844
z

M52.2031 31.2031
L52.2031 0
L43.2188 0
L43.2188 8.29688
Q40.1406 3.32812 35.5469 0.953125
Q30.9531 -1.42188 24.3125 -1.42188
Q15.9219 -1.42188 10.9531 3.29688
Q6 8.01562 6 15.9219
Q6 25.1406 12.1719 29.8281
Q18.3594 34.5156 30.6094 34.5156
L43.2188 34.5156
L43.2188 35.4062
Q43.2188 41.6094 39.1406 45
Q35.0625 48.3906 27.6875 48.3906
Q23 48.3906 18.5469 47.2656
Q14.1094 46.1406 10.0156 43.8906
L10.0156 52.2031
Q14.9375 54.1094 19.5781 55.0469
Q24.2188 56 28.6094 56
Q40.4844 56 46.3438 49.8438
Q52.2031 43.7031 52.2031 31.2031" id="DejaVuSans-61"/>
     </defs>
     <g transform="translate(43.705 282.5225)rotate(-90.0)scale(0.16 -0.16)">
      <use xlink:href="#DejaVuSans-4f"/>
      <use x="78.7109375" xlink:href="#DejaVuSans-62"/>
      <use x="142.1875" xlink:href="#DejaVuSans-6a"/>
      <use x="169.970703125" xlink:href="#DejaVuSans-65"/>
      <use x="231.494140625" xlink:href="#DejaVuSans-63"/>
      <use x="286.474609375" xlink:href="#DejaVuSans-74"/>
      <use x="325.68359375" xlink:href="#DejaVuSans-69"/>
      <use x="353.466796875" xlink:href="#DejaVuSans-76"/>
      <use x="412.646484375" xlink:href="#DejaVuSans-65"/>
      <use x="474.169921875" xlink:href="#DejaVuSans-20"/>
      <use x="505.95703125" xlink:href="#DejaVuSans-56"/>
      <use x="566.615234375" xlink:href="#DejaVuSans-61"/>
      <use x="627.89453125" xlink:href="#DejaVuSans-6c"/>
      <use x="655.677734375" xlink:href="#DejaVuSans-75"/>
      <use x="719.056640625" xlink:href="#DejaVuSans-65"/>
     </g>
    </g>
   </g>
   <g id="patch_3">
    <path d="
M73.125 44.1
L526.5 44.1" style="fill:none;stroke:#000000;"/>
   </g>
   <g id="patch_4">
    <path d="
M526.5 396.9
L526.5 44.1" style="fill:none;stroke:#000000;"/>
   </g>
   <g id="patch_5">
    <path d="
M73.125 396.9
L526.5 396.9" style="fill:none;stroke:#000000;"/>
   </g>
   <g id="patch_6">
    <path d="
M73.125 396.9
L73.125 44.1" style="fill:none;stroke:#000000;"/>
   </g>
   <g id="legend_1">
    <g id="patch_7">
     <path d="
M80.325 140.077
L223.54 140.077
L223.54 51.3
L80.325 51.3
L80.325 140.077
z
" style="fill:#ffffff;stroke:#000000;"/>
    </g>
    <g id="PathCollection_5">
     <defs>
      <path d="
M0 -4.1833
L-4.1833 4.1833
L4.1833 4.1833
z
" id="C4_0_911fcb3201"/>
      <path d="
M0 -4.1833
L-4.1833 4.1833
L4.1833 4.1833
z
" id="C4_1_911fcb3201"/>
      <path d="
M0 -4.1833
L-4.1833 4.1833
L4.1833 4.1833
z
" id="C4_2_911fcb3201"/>
     </defs>
     <use style="fill:#ff0000;stroke:#000000;" x="90.405" xlink:href="#C4_0_911fcb3201" y="64.22175"/>
     <use style="fill:#ff0000;stroke:#000000;" x="100.485" xlink:href="#C4_1_911fcb3201" y="62.96175"/>
     <use style="fill:#ff0000;stroke:#000000;" x="110.565" xlink:href="#C4_2_911fcb3201" y="64.85175"/>
    </g>
    <g id="text_15">
     <!-- AC+HS -->
     <defs>
      <path d="
M46 62.7031
L46 35.5
L73.1875 35.5
L73.1875 27.2031
L46 27.2031
L46 0
L37.7969 0
L37.7969 27.2031
L10.5938 27.2031
L10.5938 35.5
L37.7969 35.5
L37.7969 62.7031
z
" id="DejaVuSans-2b"/>
      <path d="
M9.8125 72.9062
L19.6719 72.9062
L19.6719 43.0156
L55.5156 43.0156
L55.5156 72.9062
L65.375 72.9062
L65.375 0
L55.5156 0
L55.5156 34.7188
L19.6719 34.7188
L19.6719 0
L9.8125 0
z
" id="DejaVuSans-48"/>
      <path d="
M34.1875 63.1875
L20.7969 26.9062
L47.6094 26.9062
z

M28.6094 72.9062
L39.7969 72.9062
L67.5781 0
L57.3281 0
L50.6875 18.7031
L17.8281 18.7031
L11.1875 0
L0.78125 0
z
" id="DejaVuSans-41"/>
      <path d="
M64.4062 67.2812
L64.4062 56.8906
Q59.4219 61.5312 53.7812 63.8125
Q48.1406 66.1094 41.7969 66.1094
Q29.2969 66.1094 22.6562 58.4688
Q16.0156 50.8281 16.0156 36.375
Q16.0156 21.9688 22.6562 14.3281
Q29.2969 6.6875 41.7969 6.6875
Q48.1406 6.6875 53.7812 8.98438
Q59.4219 11.2812 64.4062 15.9219
L64.4062 5.60938
Q59.2344 2.09375 53.4375 0.328125
Q47.6562 -1.42188 41.2188 -1.42188
Q24.6562 -1.42188 15.125 8.70312
Q5.60938 18.8438 5.60938 36.375
Q5.60938 53.9531 15.125 64.0781
Q24.6562 74.2188 41.2188 74.2188
Q47.75 74.2188 53.5312 72.4844
Q59.3281 70.75 64.4062 67.2812" id="DejaVuSans-43"/>
     </defs>
     <g transform="translate(126.405 68.00175)scale(0.144 -0.144)">
      <use xlink:href="#DejaVuSans-41"/>
      <use x="66.658203125" xlink:href="#DejaVuSans-43"/>
      <use x="136.482421875" xlink:href="#DejaVuSans-2b"/>
      <use x="220.271484375" xlink:href="#DejaVuSans-48"/>
      <use x="295.466796875" xlink:href="#DejaVuSans-53"/>
     </g>
    </g>
    <g id="PathCollection_6">
     <defs>
      <path d="
M2.56153e-16 -4.1833
L-3.97855 -1.29271
L-2.45888 3.38436
L2.45888 3.38436
L3.97855 -1.29271
z
" id="C5_0_d36f805fc5"/>
      <path d="
M2.56153e-16 -4.1833
L-3.97855 -1.29271
L-2.45888 3.38436
L2.45888 3.38436
L3.97855 -1.29271
z
" id="C5_1_d36f805fc5"/>
      <path d="
M2.56153e-16 -4.1833
L-3.97855 -1.29271
L-2.45888 3.38436
L2.45888 3.38436
L3.97855 -1.29271
z
" id="C5_2_d36f805fc5"/>
     </defs>
     <use style="fill:#ffff00;stroke:#000000;" x="90.405" xlink:href="#C5_0_d36f805fc5" y="85.35825"/>
     <use style="fill:#ffff00;stroke:#000000;" x="100.485" xlink:href="#C5_1_d36f805fc5" y="84.09825"/>
     <use style="fill:#ffff00;stroke:#000000;" x="110.565" xlink:href="#C5_2_d36f805fc5" y="85.98825"/>
    </g>
    <g id="text_16">
     <!-- AC Simple -->
     <g transform="translate(126.405 89.13825)scale(0.144 -0.144)">
      <use xlink:href="#DejaVuSans-41"/>
      <use x="66.658203125" xlink:href="#DejaVuSans-43"/>
      <use x="136.482421875" xlink:href="#DejaVuSans-20"/>
      <use x="168.26953125" xlink:href="#DejaVuSans-53"/>
      <use x="231.74609375" xlink:href="#DejaVuSans-69"/>
      <use x="259.529296875" xlink:href="#DejaVuSans-6d"/>
      <use x="356.94140625" xlink:href="#DejaVuSans-70"/>
      <use x="420.41796875" xlink:href="#DejaVuSans-6c"/>
      <use x="448.201171875" xlink:href="#DejaVuSans-65"/>
     </g>
    </g>
    <g id="PathCollection_7">
     <defs>
      <path d="
M0 4.1833
C1.10942 4.1833 2.17356 3.74252 2.95804 2.95804
C3.74252 2.17356 4.1833 1.10942 4.1833 0
C4.1833 -1.10942 3.74252 -2.17356 2.95804 -2.95804
C2.17356 -3.74252 1.10942 -4.1833 0 -4.1833
C-1.10942 -4.1833 -2.17356 -3.74252 -2.95804 -2.95804
C-3.74252 -2.17356 -4.1833 -1.10942 -4.1833 0
C-4.1833 1.10942 -3.74252 2.17356 -2.95804 2.95804
C-2.17356 3.74252 -1.10942 4.1833 0 4.1833
z
" id="C6_0_43ed0d6c61"/>
      <path d="
M0 4.1833
C1.10942 4.1833 2.17356 3.74252 2.95804 2.95804
C3.74252 2.17356 4.1833 1.10942 4.1833 0
C4.1833 -1.10942 3.74252 -2.17356 2.95804 -2.95804
C2.17356 -3.74252 1.10942 -4.1833 0 -4.1833
C-1.10942 -4.1833 -2.17356 -3.74252 -2.95804 -2.95804
C-3.74252 -2.17356 -4.1833 -1.10942 -4.1833 0
C-4.1833 1.10942 -3.74252 2.17356 -2.95804 2.95804
C-2.17356 3.74252 -1.10942 4.1833 0 4.1833
z
" id="C6_1_43ed0d6c61"/>
      <path d="
M0 4.1833
C1.10942 4.1833 2.17356 3.74252 2.95804 2.95804
C3.74252 2.17356 4.1833 1.10942 4.1833 0
C4.1833 -1.10942 3.74252 -2.17356 2.95804 -2.95804
C2.17356 -3.74252 1.10942 -4.1833 0 -4.1833
C-1.10942 -4.1833 -2.17356 -3.74252 -2.95804 -2.95804
C-3.74252 -2.17356 -4.1833 -1.10942 -4.1833 0
C-4.1833 1.10942 -3.74252 2.17356 -2.95804 2.95804
C-2.17356 3.74252 -1.10942 4.1833 0 4.1833
z
" id="C6_2_43ed0d6c61"/>
     </defs>
     <use style="fill:#0000ff;stroke:#000000;" x="90.405" xlink:href="#C6_0_43ed0d6c61" y="106.49475"/>
     <use style="fill:#0000ff;stroke:#000000;" x="100.485" xlink:href="#C6_1_43ed0d6c61" y="105.23475"/>
     <use style="fill:#0000ff;stroke:#000000;" x="110.565" xlink:href="#C6_2_43ed0d6c61" y="107.12475"/>
    </g>
    <g id="text_17">
     <!-- HS Improved -->
     <defs>
      <path d="
M45.4062 46.3906
L45.4062 75.9844
L54.3906 75.9844
L54.3906 0
L45.4062 0
L45.4062 8.20312
Q42.5781 3.32812 38.25 0.953125
Q33.9375 -1.42188 27.875 -1.42188
Q17.9688 -1.42188 11.7344 6.48438
Q5.51562 14.4062 5.51562 27.2969
Q5.51562 40.1875 11.7344 48.0938
Q17.9688 56 27.875 56
Q33.9375 56 38.25 53.625
Q42.5781 51.2656 45.4062 46.3906
M14.7969 27.2969
Q14.7969 17.3906 18.875 11.75
Q22.9531 6.10938 30.0781 6.10938
Q37.2031 6.10938 41.2969 11.75
Q45.4062 17.3906 45.4062 27.2969
Q45.4062 37.2031 41.2969 42.8438
Q37.2031 48.4844 30.0781 48.4844
Q22.9531 48.4844 18.875 42.8438
Q14.7969 37.2031 14.7969 27.2969" id="DejaVuSans-64"/>
      <path d="
M9.8125 72.9062
L19.6719 72.9062
L19.6719 0
L9.8125 0
z
" id="DejaVuSans-49"/>
     </defs>
     <g transform="translate(126.405 110.27475)scale(0.144 -0.144)">
      <use xlink:href="#DejaVuSans-48"/>
      <use x="75.1953125" xlink:href="#DejaVuSans-53"/>
      <use x="138.671875" xlink:href="#DejaVuSans-20"/>
      <use x="170.458984375" xlink:href="#DejaVuSans-49"/>
      <use x="199.951171875" xlink:href="#DejaVuSans-6d"/>
      <use x="297.36328125" xlink:href="#DejaVuSans-70"/>
      <use x="360.83984375" xlink:href="#DejaVuSans-72"/>
      <use x="399.703125" xlink:href="#DejaVuSans-6f"/>
      <use x="460.884765625" xlink:href="#DejaVuSans-76"/>
      <use x="520.064453125" xlink:href="#DejaVuSans-65"/>
      <use x="581.587890625" xlink:href="#DejaVuSans-64"/>
     </g>
    </g>
    <g id="PathCollection_8">
     <defs>
      <path d="
M-2.78664e-16 5.91608
L3.54965 0
L1.85776e-16 -5.91608
L-3.54965 -9.28879e-16
z
" id="C7_0_b9acb912de"/>
      <path d="
M-2.78664e-16 5.91608
L3.54965 0
L1.85776e-16 -5.91608
L-3.54965 -9.28879e-16
z
" id="C7_1_b9acb912de"/>
      <path d="
M-2.78664e-16 5.91608
L3.54965 0
L1.85776e-16 -5.91608
L-3.54965 -9.28879e-16
z
" id="C7_2_b9acb912de"/>
     </defs>
     <use style="fill:#008000;stroke:#000000;" x="90.405" xlink:href="#C7_0_b9acb912de" y="127.63125"/>
     <use style="fill:#008000;stroke:#000000;" x="100.485" xlink:href="#C7_1_b9acb912de" y="126.37125"/>
     <use style="fill:#008000;stroke:#000000;" x="110.565" xlink:href="#C7_2_b9acb912de" y="128.26125"/>
    </g>
    <g id="text_18">
     <!-- HS Simple -->
     <g transform="translate(126.405 131.41125)scale(0.144 -0.144)">
      <use xlink:href="#DejaVuSans-48"/>
      <use x="75.1953125" xlink:href="#DejaVuSans-53"/>
      <use x="138.671875" xlink:href="#DejaVuSans-20"/>
      <use x="170.458984375" xlink:href="#DejaVuSans-53"/>
      <use x="233.935546875" xlink:href="#DejaVuSans-69"/>
      <use x="261.71875" xlink:href="#DejaVuSans-6d"/>
      <use x="359.130859375" xlink:href="#DejaVuSans-70"/>
      <use x="422.607421875" xlink:href="#DejaVuSans-6c"/>
      <use x="450.390625" xlink:href="#DejaVuSans-65"/>
     </g>
    </g>
   </g>
  </g>
 </g>
 <defs>
  <clipPath id="p5873ec822d">
   <rect height="352.8" width="453.375" x="73.125" y="44.1"/>
  </clipPath>
 </defs>
</svg>
