<?xml version="1.0" standalone="no"?>
<!DOCTYPE svg PUBLIC "-//W3C//DTD SVG 1.1//EN"
  "http://www.w3.org/Graphics/SVG/1.1/DTD/svg11.dtd">
<!-- Created with matplotlib (http://matplotlib.sourceforge.net/) -->
<svg width="586pt" height="442pt" viewBox="0 0 586 442"
   xmlns="http://www.w3.org/2000/svg"
   xmlns:xlink="http://www.w3.org/1999/xlink"
   version="1.1"
   id="svg1">
<filter id="colorAdd"><feComposite in="SourceGraphic" in2="BackgroundImage" operator="arithmetic" k2="1" k3="1"/></filter>
<g id="figure1">
<g id="patch1">
<path style="fill: #ffffff; stroke: #ffffff; stroke-width: 1.000000; stroke-linejoin: round; stroke-linecap: square;  opacity: 1.000000"  d="M0.000000 442.800000L586.800000 442.800000L586.800000 0.000000
L0.000000 0.000000z"/>
</g>
<g id="patch2">
<path style="fill: #ffffff; opacity: 1.000000"  d="M0.000000 442.800000L586.800000 442.800000L586.800000 0.000000
L0.000000 0.000000z"/>
</g>
<g id="pane3d1">
<g id="patch3">
<path style="fill: #f2f2f2; stroke: #f2f2f2; stroke-width: 1.000000; stroke-linejoin: round; stroke-linecap: square;  opacity: 0.500000"  d="M286.539225 214.867666L526.659044 306.719674L540.650253 103.939358
L285.670525 17.661297"/>
</g>
</g>
<g id="pane3d2">
<g id="patch4">
<path style="fill: #e6e6e6; stroke: #e6e6e6; stroke-width: 1.000000; stroke-linejoin: round; stroke-linecap: square;  opacity: 0.500000"  d="M286.539225 214.867666L74.182686 321.222598L59.957708 117.612252
L285.670525 17.661297"/>
</g>
</g>
<g id="pane3d3">
<g id="patch5">
<path style="fill: #ececec; stroke: #ececec; stroke-width: 1.000000; stroke-linejoin: round; stroke-linecap: square;  opacity: 0.500000"  d="M286.539225 214.867666L74.182686 321.222598L317.944086 425.233427
L526.659044 306.719674"/>
</g>
</g>
<g id="axis3d1">
<g id="line2d1">
<path style="fill: none; stroke: #000000; stroke-width: 0.750000; stroke-linejoin: round; stroke-linecap: square;  opacity: 1.000000"  d="M526.659044 306.719674L317.944086 425.233427"/>
</g>
<g id="text1">
<defs>
<path id="c_4c6532c564269b2c70b230c2e45c01e4" d="M44.390625 -34.187500q3.171875 1.078125 6.171875 4.593750q3.000000 3.515625 6.031250 9.671875l10.015625 19.921875l-10.609375 0.000000l-9.312500 -18.703125q-3.625000 -7.328125 -7.015625 -9.718750q-3.390625 -2.390625 -9.250000 -2.390625l-10.750000 0.000000l0.000000 30.812500l-9.859375 0.000000l0.000000 -72.906250l22.265625 0.000000q12.500000 0.000000 18.656250 5.234375q6.156250 5.218750 6.156250 15.765625q0.000000 6.890625 -3.203125 11.437500q-3.203125 4.531250 -9.296875 6.281250M19.671875 -64.796875l0.000000 25.875000l12.406250 0.000000q7.125000 0.000000 10.765625 -3.296875q3.640625 -3.296875 3.640625 -9.687500q0.000000 -6.390625 -3.640625 -9.640625q-3.640625 -3.250000 -10.765625 -3.250000z"/>
<path id="c_0bce5afba2dc6b9024b26277c38ad8e8" d="M56.203125 -29.593750l0.000000 4.390625l-41.312500 0.000000q0.593750 9.281250 5.593750 14.140625q5.000000 4.859375 13.937500 4.859375q5.171875 0.000000 10.031250 -1.265625q4.859375 -1.265625 9.656250 -3.812500l0.000000 8.500000q-4.843750 2.046875 -9.921875 3.125000q-5.078125 1.078125 -10.296875 1.078125q-13.093750 0.000000 -20.734375 -7.609375q-7.640625 -7.625000 -7.640625 -20.625000q0.000000 -13.421875 7.250000 -21.296875q7.250000 -7.890625 19.562500 -7.890625q11.031250 0.000000 17.453125 7.109375q6.421875 7.093750 6.421875 19.296875M47.218750 -32.234375q-0.093750 -7.359375 -4.125000 -11.750000q-4.031250 -4.406250 -10.671875 -4.406250q-7.515625 0.000000 -12.031250 4.250000q-4.515625 4.250000 -5.203125 11.968750z"/>
<path id="c_4653c6dfde66c7610eae0911760d3490" d="M52.000000 -44.187500q3.375000 -6.062500 8.062500 -8.937500q4.687500 -2.875000 11.031250 -2.875000q8.546875 0.000000 13.187500 5.984375q4.640625 5.968750 4.640625 17.000000l0.000000 33.015625l-9.031250 0.000000l0.000000 -32.718750q0.000000 -7.859375 -2.796875 -11.656250q-2.781250 -3.812500 -8.484375 -3.812500q-6.984375 0.000000 -11.046875 4.640625q-4.046875 4.625000 -4.046875 12.640625l0.000000 30.906250l-9.031250 0.000000l0.000000 -32.718750q0.000000 -7.906250 -2.781250 -11.687500q-2.781250 -3.781250 -8.593750 -3.781250q-6.890625 0.000000 -10.953125 4.656250q-4.046875 4.656250 -4.046875 12.625000l0.000000 30.906250l-9.031250 0.000000l0.000000 -54.687500l9.031250 0.000000l0.000000 8.500000q3.078125 -5.031250 7.375000 -7.421875q4.296875 -2.390625 10.203125 -2.390625q5.968750 0.000000 10.140625 3.031250q4.171875 3.015625 6.171875 8.781250"/>
<path id="c_f05dd90d41f04bb96ef1ca503cc2044b" d="M30.609375 -48.390625q-7.218750 0.000000 -11.421875 5.640625q-4.203125 5.640625 -4.203125 15.453125q0.000000 9.812500 4.171875 15.453125q4.187500 5.640625 11.453125 5.640625q7.187500 0.000000 11.375000 -5.656250q4.203125 -5.671875 4.203125 -15.437500q0.000000 -9.718750 -4.203125 -15.406250q-4.187500 -5.687500 -11.375000 -5.687500M30.609375 -56.000000q11.718750 0.000000 18.406250 7.625000q6.703125 7.609375 6.703125 21.078125q0.000000 13.421875 -6.703125 21.078125q-6.687500 7.640625 -18.406250 7.640625q-11.765625 0.000000 -18.437500 -7.640625q-6.656250 -7.656250 -6.656250 -21.078125q0.000000 -13.468750 6.656250 -21.078125q6.671875 -7.625000 18.437500 -7.625000"/>
<path id="c_c48ceabac27bf136feba2f4bf2716ab6" d="M2.984375 -54.687500l9.515625 0.000000l17.093750 45.890625l17.093750 -45.890625l9.515625 0.000000l-20.515625 54.687500l-12.203125 0.000000z"/>
</defs>
<g style="fill: #000000; opacity: 1.000000" transform="translate(433.199567,410.219444)rotate(-29.6)scale(0.120000)">
<use xlink:href="#c_4c6532c564269b2c70b230c2e45c01e4"/>
<use xlink:href="#c_0bce5afba2dc6b9024b26277c38ad8e8" x="64.982422"/>
<use xlink:href="#c_4653c6dfde66c7610eae0911760d3490" x="126.505859"/>
<use xlink:href="#c_f05dd90d41f04bb96ef1ca503cc2044b" x="223.917969"/>
<use xlink:href="#c_c48ceabac27bf136feba2f4bf2716ab6" x="285.099609"/>
<use xlink:href="#c_0bce5afba2dc6b9024b26277c38ad8e8" x="344.279297"/>
</g>
</g>
<g id="Line3DCollection1">
<defs>
<path id="coll0_0_3c8d9fd9001f8adcc76a421dd7019f66" d="M522.738052 -133.853885L282.536637 -225.927711L281.431478 -423.261553"/>
<path id="coll0_1_9491e212f27d2916ca1dd468959f59c6" d="M491.016994 -115.841848L250.174085 -209.719511L247.135548 -408.074507"/>
<path id="coll0_2_2fd89dde2bb00f09f1dde94a40f03e2d" d="M458.654688 -97.465693L217.191421 -193.200741L212.143030 -392.578995"/>
<path id="coll0_3_a133e95c4227c7e7d7be74fe21b40b37" d="M425.631490 -78.714267L183.570649 -176.362385L176.432484 -376.765524"/>
<path id="coll0_4_9b1ef0dd783b19162ef8de6a60728fcb" d="M391.926947 -59.575955L149.293072 -159.195080L139.981580 -360.624205"/>
<path id="coll0_5_343e6f0194b362ed7f03aec75e33fb48" d="M357.519752 -40.038660L114.339252 -141.689092L102.767053 -344.144735"/>
</defs>
<use style="fill: none; stroke: #e6e6e6; stroke-width: 1.000000; stroke-linejoin: round; stroke-linecap: butt;  opacity: 1.000000" xlink:href="#coll0_0_3c8d9fd9001f8adcc76a421dd7019f66" x="0.000000" y="442.800000"/>
<use style="fill: none; stroke: #e6e6e6; stroke-width: 1.000000; stroke-linejoin: round; stroke-linecap: butt;  opacity: 1.000000" xlink:href="#coll0_1_9491e212f27d2916ca1dd468959f59c6" x="0.000000" y="442.800000"/>
<use style="fill: none; stroke: #e6e6e6; stroke-width: 1.000000; stroke-linejoin: round; stroke-linecap: butt;  opacity: 1.000000" xlink:href="#coll0_2_2fd89dde2bb00f09f1dde94a40f03e2d" x="0.000000" y="442.800000"/>
<use style="fill: none; stroke: #e6e6e6; stroke-width: 1.000000; stroke-linejoin: round; stroke-linecap: butt;  opacity: 1.000000" xlink:href="#coll0_3_a133e95c4227c7e7d7be74fe21b40b37" x="0.000000" y="442.800000"/>
<use style="fill: none; stroke: #e6e6e6; stroke-width: 1.000000; stroke-linejoin: round; stroke-linecap: butt;  opacity: 1.000000" xlink:href="#coll0_4_9b1ef0dd783b19162ef8de6a60728fcb" x="0.000000" y="442.800000"/>
<use style="fill: none; stroke: #e6e6e6; stroke-width: 1.000000; stroke-linejoin: round; stroke-linecap: butt;  opacity: 1.000000" xlink:href="#coll0_5_343e6f0194b362ed7f03aec75e33fb48" x="0.000000" y="442.800000"/>
</g>
<g id="xtick1">
<g id="line2d2">
<path style="fill: none; stroke: #000000; stroke-width: 1.000000; stroke-linejoin: round; stroke-linecap: square;  opacity: 1.000000"  d="M520.713722 308.170151L526.791954 310.500054"/>
</g>
<g id="text2">
<defs>
<path id="c_7a2040fe3b94fcd41d0a72c84e93b115" d="M31.781250 -66.406250q-7.609375 0.000000 -11.453125 7.500000q-3.828125 7.484375 -3.828125 22.531250q0.000000 14.984375 3.828125 22.484375q3.843750 7.500000 11.453125 7.500000q7.671875 0.000000 11.500000 -7.500000q3.843750 -7.500000 3.843750 -22.484375q0.000000 -15.046875 -3.843750 -22.531250q-3.828125 -7.500000 -11.500000 -7.500000M31.781250 -74.218750q12.265625 0.000000 18.734375 9.703125q6.468750 9.687500 6.468750 28.140625q0.000000 18.406250 -6.468750 28.109375q-6.468750 9.687500 -18.734375 9.687500q-12.250000 0.000000 -18.718750 -9.687500q-6.468750 -9.703125 -6.468750 -28.109375q0.000000 -18.453125 6.468750 -28.140625q6.468750 -9.703125 18.718750 -9.703125"/>
<path id="c_ed3e21196fb739f392806f09ca0594ef" d="M10.687500 -12.406250l10.312500 0.000000l0.000000 12.406250l-10.312500 0.000000z"/>
<path id="c_42baa63129a918535c52adb20d687ea7" d="M12.406250 -8.296875l16.109375 0.000000l0.000000 -55.625000l-17.531250 3.515625l0.000000 -8.984375l17.437500 -3.515625l9.859375 0.000000l0.000000 64.609375l16.109375 0.000000l0.000000 8.296875l-41.984375 0.000000z"/>
</defs>
<g style="fill: #000000; opacity: 1.000000" transform="translate(525.670875,331.676600)scale(0.120000)">
<use xlink:href="#c_7a2040fe3b94fcd41d0a72c84e93b115"/>
<use xlink:href="#c_ed3e21196fb739f392806f09ca0594ef" x="63.623047"/>
<use xlink:href="#c_42baa63129a918535c52adb20d687ea7" x="95.410156"/>
</g>
</g>
</g>
<g id="xtick2">
<g id="line2d3">
<path style="fill: none; stroke: #000000; stroke-width: 1.000000; stroke-linejoin: round; stroke-linecap: square;  opacity: 1.000000"  d="M488.986228 326.166584L495.083838 328.543359"/>
</g>
<g id="text3">
<defs>
<path id="c_ed3f3ed3ebfbd18bcb9c012009a68ad1" d="M19.187500 -8.296875l34.421875 0.000000l0.000000 8.296875l-46.281250 0.000000l0.000000 -8.296875q5.609375 -5.812500 15.296875 -15.593750q9.703125 -9.796875 12.187500 -12.640625q4.734375 -5.312500 6.609375 -9.000000q1.890625 -3.687500 1.890625 -7.250000q0.000000 -5.812500 -4.078125 -9.468750q-4.078125 -3.671875 -10.625000 -3.671875q-4.640625 0.000000 -9.796875 1.609375q-5.140625 1.609375 -11.000000 4.890625l0.000000 -9.968750q5.953125 -2.390625 11.125000 -3.609375q5.187500 -1.218750 9.484375 -1.218750q11.328125 0.000000 18.062500 5.671875q6.734375 5.656250 6.734375 15.125000q0.000000 4.500000 -1.687500 8.531250q-1.671875 4.015625 -6.125000 9.484375q-1.218750 1.421875 -7.765625 8.187500q-6.531250 6.765625 -18.453125 18.921875"/>
</defs>
<g style="fill: #000000; opacity: 1.000000" transform="translate(494.119120,349.822899)scale(0.120000)">
<use xlink:href="#c_7a2040fe3b94fcd41d0a72c84e93b115"/>
<use xlink:href="#c_ed3e21196fb739f392806f09ca0594ef" x="63.623047"/>
<use xlink:href="#c_ed3f3ed3ebfbd18bcb9c012009a68ad1" x="95.410156"/>
</g>
</g>
</g>
<g id="xtick3">
<g id="line2d4">
<path style="fill: none; stroke: #000000; stroke-width: 1.000000; stroke-linejoin: round; stroke-linecap: square;  opacity: 1.000000"  d="M456.617637 344.526660L462.734171 346.951735"/>
</g>
<g id="text4">
<defs>
<path id="c_3dcfa38a02242cb63ec6726c6e70be7a" d="M40.578125 -39.312500q7.078125 1.515625 11.046875 6.312500q3.984375 4.781250 3.984375 11.812500q0.000000 10.781250 -7.421875 16.703125q-7.421875 5.906250 -21.093750 5.906250q-4.578125 0.000000 -9.437500 -0.906250q-4.859375 -0.906250 -10.031250 -2.718750l0.000000 -9.515625q4.093750 2.390625 8.968750 3.609375q4.890625 1.218750 10.218750 1.218750q9.265625 0.000000 14.125000 -3.656250q4.859375 -3.656250 4.859375 -10.640625q0.000000 -6.453125 -4.515625 -10.078125q-4.515625 -3.640625 -12.562500 -3.640625l-8.500000 0.000000l0.000000 -8.109375l8.890625 0.000000q7.265625 0.000000 11.125000 -2.906250q3.859375 -2.906250 3.859375 -8.375000q0.000000 -5.609375 -3.984375 -8.609375q-3.968750 -3.015625 -11.390625 -3.015625q-4.062500 0.000000 -8.703125 0.890625q-4.640625 0.875000 -10.203125 2.718750l0.000000 -8.781250q5.625000 -1.562500 10.531250 -2.343750q4.906250 -0.781250 9.250000 -0.781250q11.234375 0.000000 17.765625 5.109375q6.546875 5.093750 6.546875 13.781250q0.000000 6.062500 -3.468750 10.234375q-3.468750 4.171875 -9.859375 5.781250"/>
</defs>
<g style="fill: #000000; opacity: 1.000000" transform="translate(461.764673,368.335947)scale(0.120000)">
<use xlink:href="#c_7a2040fe3b94fcd41d0a72c84e93b115"/>
<use xlink:href="#c_ed3e21196fb739f392806f09ca0594ef" x="63.623047"/>
<use xlink:href="#c_3dcfa38a02242cb63ec6726c6e70be7a" x="95.410156"/>
</g>
</g>
</g>
<g id="xtick4">
<g id="line2d5">
<path style="fill: none; stroke: #000000; stroke-width: 1.000000; stroke-linejoin: round; stroke-linecap: square;  opacity: 1.000000"  d="M423.588320 363.261512L429.723283 365.736376"/>
</g>
<g id="text5">
<defs>
<path id="c_a0416418d96557a09b8c1332d34883ba" d="M37.796875 -64.312500l-24.906250 38.921875l24.906250 0.000000zM35.203125 -72.906250l12.406250 0.000000l0.000000 47.515625l10.406250 0.000000l0.000000 8.203125l-10.406250 0.000000l0.000000 17.187500l-9.812500 0.000000l0.000000 -17.187500l-32.906250 0.000000l0.000000 -9.515625z"/>
</defs>
<g style="fill: #000000; opacity: 1.000000" transform="translate(428.720788,387.226976)scale(0.120000)">
<use xlink:href="#c_7a2040fe3b94fcd41d0a72c84e93b115"/>
<use xlink:href="#c_ed3e21196fb739f392806f09ca0594ef" x="63.623047"/>
<use xlink:href="#c_a0416418d96557a09b8c1332d34883ba" x="95.410156"/>
</g>
</g>
</g>
<g id="xtick5">
<g id="line2d6">
<path style="fill: none; stroke: #000000; stroke-width: 1.000000; stroke-linejoin: round; stroke-linecap: square;  opacity: 1.000000"  d="M389.877838 382.382734L396.030691 384.908935"/>
</g>
<g id="text6">
<defs>
<path id="c_1260a2df50f305f3db244e29828f968e" d="M10.796875 -72.906250l38.718750 0.000000l0.000000 8.312500l-29.687500 0.000000l0.000000 17.859375q2.140625 -0.734375 4.281250 -1.093750q2.156250 -0.359375 4.312500 -0.359375q12.203125 0.000000 19.328125 6.687500q7.140625 6.687500 7.140625 18.109375q0.000000 11.765625 -7.328125 18.296875q-7.328125 6.515625 -20.656250 6.515625q-4.593750 0.000000 -9.359375 -0.781250q-4.750000 -0.781250 -9.828125 -2.343750l0.000000 -9.921875q4.390625 2.390625 9.078125 3.562500q4.687500 1.171875 9.906250 1.171875q8.453125 0.000000 13.375000 -4.437500q4.937500 -4.437500 4.937500 -12.062500q0.000000 -7.609375 -4.937500 -12.046875q-4.921875 -4.453125 -13.375000 -4.453125q-3.953125 0.000000 -7.890625 0.875000q-3.921875 0.875000 -8.015625 2.734375z"/>
</defs>
<g style="fill: #000000; opacity: 1.000000" transform="translate(395.334288,406.507680)scale(0.120000)">
<use xlink:href="#c_7a2040fe3b94fcd41d0a72c84e93b115"/>
<use xlink:href="#c_ed3e21196fb739f392806f09ca0594ef" x="63.623047"/>
<use xlink:href="#c_1260a2df50f305f3db244e29828f968e" x="95.410156"/>
</g>
</g>
</g>
<g id="xtick6">
<g id="line2d7">
<path style="fill: none; stroke: #000000; stroke-width: 1.000000; stroke-linejoin: round; stroke-linecap: square;  opacity: 1.000000"  d="M355.464898 401.902403L361.635058 404.481555"/>
</g>
<g id="text7">
<defs>
<path id="c_cc8d6d580d1b10c8632f7a42cd53db8a" d="M33.015625 -40.375000q-6.640625 0.000000 -10.531250 4.546875q-3.875000 4.531250 -3.875000 12.437500q0.000000 7.859375 3.875000 12.437500q3.890625 4.562500 10.531250 4.562500q6.640625 0.000000 10.515625 -4.562500q3.875000 -4.578125 3.875000 -12.437500q0.000000 -7.906250 -3.875000 -12.437500q-3.875000 -4.546875 -10.515625 -4.546875M52.593750 -71.296875l0.000000 8.984375q-3.718750 -1.750000 -7.500000 -2.671875q-3.781250 -0.937500 -7.500000 -0.937500q-9.765625 0.000000 -14.921875 6.593750q-5.140625 6.593750 -5.875000 19.921875q2.875000 -4.250000 7.218750 -6.515625q4.359375 -2.265625 9.578125 -2.265625q10.984375 0.000000 17.359375 6.671875q6.375000 6.656250 6.375000 18.125000q0.000000 11.234375 -6.640625 18.031250q-6.640625 6.781250 -17.671875 6.781250q-12.656250 0.000000 -19.343750 -9.687500q-6.687500 -9.703125 -6.687500 -28.109375q0.000000 -17.281250 8.203125 -27.562500q8.203125 -10.281250 22.015625 -10.281250q3.718750 0.000000 7.500000 0.734375q3.781250 0.734375 7.890625 2.187500"/>
</defs>
<g style="fill: #000000; opacity: 1.000000" transform="translate(360.919897,426.190242)scale(0.120000)">
<use xlink:href="#c_7a2040fe3b94fcd41d0a72c84e93b115"/>
<use xlink:href="#c_ed3e21196fb739f392806f09ca0594ef" x="63.623047"/>
<use xlink:href="#c_cc8d6d580d1b10c8632f7a42cd53db8a" x="95.410156"/>
</g>
</g>
</g>
</g>
<g id="axis3d2">
<g id="line2d8">
<path style="fill: none; stroke: #000000; stroke-width: 0.750000; stroke-linejoin: round; stroke-linecap: square;  opacity: 1.000000"  d="M74.182686 321.222598L317.944086 425.233427"/>
</g>
<g id="text8">
<defs>
<path id="c_b672e4bee30772019085dff1098f516d" d="M53.515625 -70.515625l0.000000 9.625000q-5.609375 -2.687500 -10.593750 -4.000000q-4.984375 -1.328125 -9.625000 -1.328125q-8.046875 0.000000 -12.421875 3.125000q-4.375000 3.125000 -4.375000 8.890625q0.000000 4.843750 2.906250 7.312500q2.906250 2.453125 11.015625 3.968750l5.953125 1.218750q11.031250 2.109375 16.281250 7.406250q5.250000 5.296875 5.250000 14.171875q0.000000 10.609375 -7.109375 16.078125q-7.093750 5.468750 -20.812500 5.468750q-5.171875 0.000000 -11.015625 -1.171875q-5.828125 -1.171875 -12.078125 -3.468750l0.000000 -10.156250q6.000000 3.359375 11.765625 5.078125q5.765625 1.703125 11.328125 1.703125q8.437500 0.000000 13.031250 -3.312500q4.593750 -3.328125 4.593750 -9.484375q0.000000 -5.359375 -3.296875 -8.390625q-3.296875 -3.031250 -10.812500 -4.546875l-6.015625 -1.171875q-11.031250 -2.187500 -15.968750 -6.875000q-4.921875 -4.687500 -4.921875 -13.046875q0.000000 -9.671875 6.812500 -15.234375q6.812500 -5.562500 18.765625 -5.562500q5.140625 0.000000 10.453125 0.937500q5.328125 0.921875 10.890625 2.765625"/>
<path id="c_74d54c94aa871ec39e2bc6697dde6c00" d="M54.890625 -33.015625l0.000000 33.015625l-8.984375 0.000000l0.000000 -32.718750q0.000000 -7.765625 -3.031250 -11.609375q-3.031250 -3.859375 -9.078125 -3.859375q-7.281250 0.000000 -11.484375 4.640625q-4.203125 4.625000 -4.203125 12.640625l0.000000 30.906250l-9.031250 0.000000l0.000000 -75.984375l9.031250 0.000000l0.000000 29.796875q3.234375 -4.937500 7.593750 -7.375000q4.375000 -2.437500 10.093750 -2.437500q9.421875 0.000000 14.250000 5.828125q4.843750 5.828125 4.843750 17.156250"/>
<path id="c_01d93a582460e35a7945ca50d148ffeb" d="M34.281250 -27.484375q-10.890625 0.000000 -15.093750 2.484375q-4.203125 2.484375 -4.203125 8.500000q0.000000 4.781250 3.156250 7.593750q3.156250 2.796875 8.562500 2.796875q7.484375 0.000000 12.000000 -5.296875q4.515625 -5.296875 4.515625 -14.078125l0.000000 -2.000000zM52.203125 -31.203125l0.000000 31.203125l-8.984375 0.000000l0.000000 -8.296875q-3.078125 4.968750 -7.671875 7.343750q-4.593750 2.375000 -11.234375 2.375000q-8.390625 0.000000 -13.359375 -4.718750q-4.953125 -4.718750 -4.953125 -12.625000q0.000000 -9.218750 6.171875 -13.906250q6.187500 -4.687500 18.437500 -4.687500l12.609375 0.000000l0.000000 -0.890625q0.000000 -6.203125 -4.078125 -9.593750q-4.078125 -3.390625 -11.453125 -3.390625q-4.687500 0.000000 -9.140625 1.125000q-4.437500 1.125000 -8.531250 3.375000l0.000000 -8.312500q4.921875 -1.906250 9.562500 -2.843750q4.640625 -0.953125 9.031250 -0.953125q11.875000 0.000000 17.734375 6.156250q5.859375 6.140625 5.859375 18.640625"/>
<path id="c_dcb78ab3124be785176d70a27dde1356" d="M9.078125 -75.984375l9.031250 0.000000l0.000000 44.875000l26.812500 -23.578125l11.468750 0.000000l-29.000000 25.578125l30.234375 29.109375l-11.718750 0.000000l-27.796875 -26.703125l0.000000 26.703125l-9.031250 0.000000z"/>
</defs>
<g style="fill: #000000; opacity: 1.000000" transform="translate(152.035300,401.580370)rotate(-336.9)scale(0.120000)">
<use xlink:href="#c_b672e4bee30772019085dff1098f516d"/>
<use xlink:href="#c_74d54c94aa871ec39e2bc6697dde6c00" x="63.476562"/>
<use xlink:href="#c_01d93a582460e35a7945ca50d148ffeb" x="126.855469"/>
<use xlink:href="#c_dcb78ab3124be785176d70a27dde1356" x="188.134766"/>
<use xlink:href="#c_0bce5afba2dc6b9024b26277c38ad8e8" x="242.419922"/>
</g>
</g>
<g id="Line3DCollection2">
<defs>
<path id="coll1_0_5eea2858416bfb863ab451fe2d130bba" d="M290.499498 -423.504712L291.100923 -226.187367L78.798316 -119.607954"/>
<path id="coll1_1_f9158525764aa08ba4a727b82cabf807" d="M329.511116 -410.304264L327.933234 -212.098061L116.087659 -103.696921"/>
<path id="coll1_2_ae10c5e45eed35073c9a02f7153505f3" d="M369.210653 -396.871043L365.378366 -197.774334L154.036833 -87.504345"/>
<path id="coll1_3_2addb3326ada0499d03ac5e87f66eed9" d="M409.616465 -383.198838L403.451742 -183.210289L192.663510 -71.022684"/>
<path id="coll1_4_850799f03b4633b5028a3809208489e1" d="M450.747569 -369.281214L442.169306 -168.399824L231.985995 -54.244128"/>
<path id="coll1_5_5b5ea2c0ddb349f3c17a707e0fbee398" d="M492.623671 -355.111504L481.547547 -153.336634L272.023260 -37.160582"/>
</defs>
<use style="fill: none; stroke: #e6e6e6; stroke-width: 1.000000; stroke-linejoin: round; stroke-linecap: butt;  opacity: 1.000000" xlink:href="#coll1_0_5eea2858416bfb863ab451fe2d130bba" x="0.000000" y="442.800000"/>
<use style="fill: none; stroke: #e6e6e6; stroke-width: 1.000000; stroke-linejoin: round; stroke-linecap: butt;  opacity: 1.000000" xlink:href="#coll1_1_f9158525764aa08ba4a727b82cabf807" x="0.000000" y="442.800000"/>
<use style="fill: none; stroke: #e6e6e6; stroke-width: 1.000000; stroke-linejoin: round; stroke-linecap: butt;  opacity: 1.000000" xlink:href="#coll1_2_ae10c5e45eed35073c9a02f7153505f3" x="0.000000" y="442.800000"/>
<use style="fill: none; stroke: #e6e6e6; stroke-width: 1.000000; stroke-linejoin: round; stroke-linecap: butt;  opacity: 1.000000" xlink:href="#coll1_3_2addb3326ada0499d03ac5e87f66eed9" x="0.000000" y="442.800000"/>
<use style="fill: none; stroke: #e6e6e6; stroke-width: 1.000000; stroke-linejoin: round; stroke-linecap: butt;  opacity: 1.000000" xlink:href="#coll1_4_850799f03b4633b5028a3809208489e1" x="0.000000" y="442.800000"/>
<use style="fill: none; stroke: #e6e6e6; stroke-width: 1.000000; stroke-linejoin: round; stroke-linecap: butt;  opacity: 1.000000" xlink:href="#coll1_5_5b5ea2c0ddb349f3c17a707e0fbee398" x="0.000000" y="442.800000"/>
</g>
<g id="xtick7">
<g id="line2d9">
<path style="fill: none; stroke: #000000; stroke-width: 1.000000; stroke-linejoin: round; stroke-linecap: square;  opacity: 1.000000"  d="M80.601836 322.286649L75.185867 325.005555"/>
</g>
<g id="text9">
<g style="fill: #000000; opacity: 1.000000" transform="translate(60.006556,346.737525)scale(0.120000)">
<use xlink:href="#c_7a2040fe3b94fcd41d0a72c84e93b115"/>
<use xlink:href="#c_ed3e21196fb739f392806f09ca0594ef" x="63.623047"/>
<use xlink:href="#c_42baa63129a918535c52adb20d687ea7" x="95.410156"/>
</g>
</g>
</g>
<g id="xtick8">
<g id="line2d10">
<path style="fill: none; stroke: #000000; stroke-width: 1.000000; stroke-linejoin: round; stroke-linecap: square;  opacity: 1.000000"  d="M117.888216 338.181736L112.481098 340.948552"/>
</g>
<g id="text10">
<g style="fill: #000000; opacity: 1.000000" transform="translate(97.259488,362.779593)scale(0.120000)">
<use xlink:href="#c_7a2040fe3b94fcd41d0a72c84e93b115"/>
<use xlink:href="#c_ed3e21196fb739f392806f09ca0594ef" x="63.623047"/>
<use xlink:href="#c_ed3f3ed3ebfbd18bcb9c012009a68ad1" x="95.410156"/>
</g>
</g>
</g>
<g id="xtick9">
<g id="line2d11">
<path style="fill: none; stroke: #000000; stroke-width: 1.000000; stroke-linejoin: round; stroke-linecap: square;  opacity: 1.000000"  d="M155.834040 354.357941L150.436936 357.173945"/>
</g>
<g id="text11">
<g style="fill: #000000; opacity: 1.000000" transform="translate(135.006824,379.105571)scale(0.120000)">
<use xlink:href="#c_7a2040fe3b94fcd41d0a72c84e93b115"/>
<use xlink:href="#c_ed3e21196fb739f392806f09ca0594ef" x="63.623047"/>
<use xlink:href="#c_3dcfa38a02242cb63ec6726c6e70be7a" x="95.410156"/>
</g>
</g>
</g>
<g id="xtick10">
<g id="line2d12">
<path style="fill: none; stroke: #000000; stroke-width: 1.000000; stroke-linejoin: round; stroke-linecap: square;  opacity: 1.000000"  d="M194.456959 370.822790L189.071090 373.689306"/>
</g>
<g id="text12">
<g style="fill: #000000; opacity: 1.000000" transform="translate(173.399016,395.723063)scale(0.120000)">
<use xlink:href="#c_7a2040fe3b94fcd41d0a72c84e93b115"/>
<use xlink:href="#c_ed3e21196fb739f392806f09ca0594ef" x="63.623047"/>
<use xlink:href="#c_a0416418d96557a09b8c1332d34883ba" x="95.410156"/>
</g>
</g>
</g>
<g id="xtick11">
<g id="line2d13">
<path style="fill: none; stroke: #000000; stroke-width: 1.000000; stroke-linejoin: round; stroke-linecap: square;  opacity: 1.000000"  d="M233.775258 387.584079L228.401909 390.502476"/>
</g>
<g id="text13">
<g style="fill: #000000; opacity: 1.000000" transform="translate(212.821520,412.639949)scale(0.120000)">
<use xlink:href="#c_7a2040fe3b94fcd41d0a72c84e93b115"/>
<use xlink:href="#c_ed3e21196fb739f392806f09ca0594ef" x="63.623047"/>
<use xlink:href="#c_1260a2df50f305f3db244e29828f968e" x="95.410156"/>
</g>
</g>
</g>
<g id="xtick12">
<g id="line2d14">
<path style="fill: none; stroke: #000000; stroke-width: 1.000000; stroke-linejoin: round; stroke-linecap: square;  opacity: 1.000000"  d="M273.807889 404.649885L268.448406 407.621586"/>
</g>
<g id="text14">
<g style="fill: #000000; opacity: 1.000000" transform="translate(252.629212,429.864391)scale(0.120000)">
<use xlink:href="#c_7a2040fe3b94fcd41d0a72c84e93b115"/>
<use xlink:href="#c_ed3e21196fb739f392806f09ca0594ef" x="63.623047"/>
<use xlink:href="#c_cc8d6d580d1b10c8632f7a42cd53db8a" x="95.410156"/>
</g>
</g>
</g>
</g>
<g id="axis3d3">
<g id="line2d15">
<path style="fill: none; stroke: #000000; stroke-width: 0.750000; stroke-linejoin: round; stroke-linecap: square;  opacity: 1.000000"  d="M74.182686 321.222598L59.957708 117.612252"/>
</g>
<g id="text15">
<defs>
<path id="c_a469f8ee191679fe73f3b765bd271597" d="M64.406250 -67.281250l0.000000 10.390625q-4.984375 -4.640625 -10.625000 -6.921875q-5.640625 -2.296875 -11.984375 -2.296875q-12.500000 0.000000 -19.140625 7.640625q-6.640625 7.640625 -6.640625 22.093750q0.000000 14.406250 6.640625 22.046875q6.640625 7.640625 19.140625 7.640625q6.343750 0.000000 11.984375 -2.296875q5.640625 -2.296875 10.625000 -6.937500l0.000000 10.312500q-5.171875 3.515625 -10.968750 5.281250q-5.781250 1.750000 -12.218750 1.750000q-16.562500 0.000000 -26.093750 -10.125000q-9.515625 -10.140625 -9.515625 -27.671875q0.000000 -17.578125 9.515625 -27.703125q9.531250 -10.140625 26.093750 -10.140625q6.531250 0.000000 12.312500 1.734375q5.796875 1.734375 10.875000 5.203125"/>
<path id="c_6ec8d5749226675394676a5d2a3b468b" d="M41.109375 -46.296875q-1.515625 -0.875000 -3.296875 -1.281250q-1.781250 -0.421875 -3.921875 -0.421875q-7.625000 0.000000 -11.703125 4.953125q-4.078125 4.953125 -4.078125 14.234375l0.000000 28.812500l-9.031250 0.000000l0.000000 -54.687500l9.031250 0.000000l0.000000 8.500000q2.843750 -4.984375 7.375000 -7.390625q4.546875 -2.421875 11.046875 -2.421875q0.921875 0.000000 2.046875 0.125000q1.125000 0.109375 2.484375 0.359375z"/>
<path id="c_6a63bda47b2f3da1cec6aadd80692cfe" d="M9.421875 -54.687500l8.984375 0.000000l0.000000 54.687500l-8.984375 0.000000zM9.421875 -75.984375l8.984375 0.000000l0.000000 11.390625l-8.984375 0.000000z"/>
<path id="c_0f8c41144cfbf448378cb6fd1cc8e549" d="M18.312500 -70.218750l0.000000 15.531250l18.500000 0.000000l0.000000 6.984375l-18.500000 0.000000l0.000000 29.687500q0.000000 6.687500 1.828125 8.593750q1.828125 1.906250 7.453125 1.906250l9.218750 0.000000l0.000000 7.515625l-9.218750 0.000000q-10.406250 0.000000 -14.359375 -3.875000q-3.953125 -3.890625 -3.953125 -14.140625l0.000000 -29.687500l-6.593750 0.000000l0.000000 -6.984375l6.593750 0.000000l0.000000 -15.531250z"/>
</defs>
<g style="fill: #000000; opacity: 1.000000" transform="translate(12.239072,202.897978)rotate(-274.0)scale(0.120000)">
<use xlink:href="#c_a469f8ee191679fe73f3b765bd271597"/>
<use xlink:href="#c_6ec8d5749226675394676a5d2a3b468b" x="69.824219"/>
<use xlink:href="#c_6a63bda47b2f3da1cec6aadd80692cfe" x="110.937500"/>
<use xlink:href="#c_0f8c41144cfbf448378cb6fd1cc8e549" x="138.720703"/>
<use xlink:href="#c_0bce5afba2dc6b9024b26277c38ad8e8" x="177.929688"/>
<use xlink:href="#c_6ec8d5749226675394676a5d2a3b468b" x="239.453125"/>
<use xlink:href="#c_6a63bda47b2f3da1cec6aadd80692cfe" x="280.566406"/>
<use xlink:href="#c_01d93a582460e35a7945ca50d148ffeb" x="308.349609"/>
</g>
</g>
<g id="Line3DCollection3">
<defs>
<path id="coll2_0_b291114647ef15d0ac248bd00c9cd83d" d="M73.182633 -135.891748L286.477944 -241.843822L527.643122 -150.342961"/>
<path id="coll2_1_8de97679d26842f777c011f5b74a6830" d="M71.615396 -158.324518L286.381972 -263.630800L529.185182 -172.692669"/>
<path id="coll2_2_8976967ad9f9f8d11ed3990f54c0bc16" d="M70.026478 -181.067620L286.284751 -285.701184L530.748401 -195.349042"/>
<path id="coll2_3_a043eb02ef6a0a70738286147ad96bb9" d="M68.415426 -204.127538L286.186258 -308.060540L532.333217 -218.318433"/>
<path id="coll2_4_140dbe20ef35fbd6c863959430e70000" d="M66.781774 -227.510939L286.086466 -330.714581L533.940082 -241.607375"/>
<path id="coll2_5_a0bc537c7f0bb6fb4b29efccf3a36f14" d="M65.125044 -251.224677L285.985351 -353.669172L535.569457 -265.222584"/>
<path id="coll2_6_5327631c03947939f9914183cb277865" d="M63.444742 -275.275802L285.882885 -376.930333L537.221821 -289.170963"/>
<path id="coll2_7_62f27a701483b75eaadd8a10eab76125" d="M61.740363 -299.671567L285.779041 -400.504248L538.897662 -313.459613"/>
</defs>
<use style="fill: none; stroke: #e6e6e6; stroke-width: 1.000000; stroke-linejoin: round; stroke-linecap: butt;  opacity: 1.000000" xlink:href="#coll2_0_b291114647ef15d0ac248bd00c9cd83d" x="0.000000" y="442.800000"/>
<use style="fill: none; stroke: #e6e6e6; stroke-width: 1.000000; stroke-linejoin: round; stroke-linecap: butt;  opacity: 1.000000" xlink:href="#coll2_1_8de97679d26842f777c011f5b74a6830" x="0.000000" y="442.800000"/>
<use style="fill: none; stroke: #e6e6e6; stroke-width: 1.000000; stroke-linejoin: round; stroke-linecap: butt;  opacity: 1.000000" xlink:href="#coll2_2_8976967ad9f9f8d11ed3990f54c0bc16" x="0.000000" y="442.800000"/>
<use style="fill: none; stroke: #e6e6e6; stroke-width: 1.000000; stroke-linejoin: round; stroke-linecap: butt;  opacity: 1.000000" xlink:href="#coll2_3_a043eb02ef6a0a70738286147ad96bb9" x="0.000000" y="442.800000"/>
<use style="fill: none; stroke: #e6e6e6; stroke-width: 1.000000; stroke-linejoin: round; stroke-linecap: butt;  opacity: 1.000000" xlink:href="#coll2_4_140dbe20ef35fbd6c863959430e70000" x="0.000000" y="442.800000"/>
<use style="fill: none; stroke: #e6e6e6; stroke-width: 1.000000; stroke-linejoin: round; stroke-linecap: butt;  opacity: 1.000000" xlink:href="#coll2_5_a0bc537c7f0bb6fb4b29efccf3a36f14" x="0.000000" y="442.800000"/>
<use style="fill: none; stroke: #e6e6e6; stroke-width: 1.000000; stroke-linejoin: round; stroke-linecap: butt;  opacity: 1.000000" xlink:href="#coll2_6_5327631c03947939f9914183cb277865" x="0.000000" y="442.800000"/>
<use style="fill: none; stroke: #e6e6e6; stroke-width: 1.000000; stroke-linejoin: round; stroke-linecap: butt;  opacity: 1.000000" xlink:href="#coll2_7_62f27a701483b75eaadd8a10eab76125" x="0.000000" y="442.800000"/>
</g>
<g id="xtick13">
<g id="line2d16">
<path style="fill: none; stroke: #000000; stroke-width: 1.000000; stroke-linejoin: round; stroke-linecap: square;  opacity: 1.000000"  d="M74.994936 306.008010L69.552574 308.711443"/>
</g>
<g id="text16">
<g style="fill: #000000; opacity: 1.000000" transform="translate(32.941037,316.514052)scale(0.120000)">
<use xlink:href="#c_3dcfa38a02242cb63ec6726c6e70be7a"/>
<use xlink:href="#c_1260a2df50f305f3db244e29828f968e" x="63.623047"/>
<use xlink:href="#c_7a2040fe3b94fcd41d0a72c84e93b115" x="127.246094"/>
<use xlink:href="#c_7a2040fe3b94fcd41d0a72c84e93b115" x="190.869141"/>
<use xlink:href="#c_7a2040fe3b94fcd41d0a72c84e93b115" x="254.492188"/>
</g>
</g>
</g>
<g id="xtick14">
<g id="line2d17">
<path style="fill: none; stroke: #000000; stroke-width: 1.000000; stroke-linejoin: round; stroke-linecap: square;  opacity: 1.000000"  d="M73.440932 283.580368L67.958793 286.268420"/>
</g>
<g id="text17">
<g style="fill: #000000; opacity: 1.000000" transform="translate(31.057941,294.077302)scale(0.120000)">
<use xlink:href="#c_a0416418d96557a09b8c1332d34883ba"/>
<use xlink:href="#c_7a2040fe3b94fcd41d0a72c84e93b115" x="63.623047"/>
<use xlink:href="#c_7a2040fe3b94fcd41d0a72c84e93b115" x="127.246094"/>
<use xlink:href="#c_7a2040fe3b94fcd41d0a72c84e93b115" x="190.869141"/>
<use xlink:href="#c_7a2040fe3b94fcd41d0a72c84e93b115" x="254.492188"/>
</g>
</g>
</g>
<g id="xtick15">
<g id="line2d18">
<path style="fill: none; stroke: #000000; stroke-width: 1.000000; stroke-linejoin: round; stroke-linecap: square;  opacity: 1.000000"  d="M71.865441 260.842623L66.342941 263.514608"/>
</g>
<g id="text18">
<g style="fill: #000000; opacity: 1.000000" transform="translate(29.315117,271.330042)scale(0.120000)">
<use xlink:href="#c_a0416418d96557a09b8c1332d34883ba"/>
<use xlink:href="#c_1260a2df50f305f3db244e29828f968e" x="63.623047"/>
<use xlink:href="#c_7a2040fe3b94fcd41d0a72c84e93b115" x="127.246094"/>
<use xlink:href="#c_7a2040fe3b94fcd41d0a72c84e93b115" x="190.869141"/>
<use xlink:href="#c_7a2040fe3b94fcd41d0a72c84e93b115" x="254.492188"/>
</g>
</g>
</g>
<g id="xtick16">
<g id="line2d19">
<path style="fill: none; stroke: #000000; stroke-width: 1.000000; stroke-linejoin: round; stroke-linecap: square;  opacity: 1.000000"  d="M70.268015 237.788298L64.704557 240.443506"/>
</g>
<g id="text19">
<g style="fill: #000000; opacity: 1.000000" transform="translate(27.712069,248.265782)scale(0.120000)">
<use xlink:href="#c_1260a2df50f305f3db244e29828f968e"/>
<use xlink:href="#c_7a2040fe3b94fcd41d0a72c84e93b115" x="63.623047"/>
<use xlink:href="#c_7a2040fe3b94fcd41d0a72c84e93b115" x="127.246094"/>
<use xlink:href="#c_7a2040fe3b94fcd41d0a72c84e93b115" x="190.869141"/>
<use xlink:href="#c_7a2040fe3b94fcd41d0a72c84e93b115" x="254.492188"/>
</g>
</g>
</g>
<g id="xtick17">
<g id="line2d20">
<path style="fill: none; stroke: #000000; stroke-width: 1.000000; stroke-linejoin: round; stroke-linecap: square;  opacity: 1.000000"  d="M68.648191 214.410735L63.043166 217.048430"/>
</g>
<g id="text20">
<g style="fill: #000000; opacity: 1.000000" transform="translate(25.920159,224.877849)scale(0.120000)">
<use xlink:href="#c_1260a2df50f305f3db244e29828f968e"/>
<use xlink:href="#c_1260a2df50f305f3db244e29828f968e" x="63.623047"/>
<use xlink:href="#c_7a2040fe3b94fcd41d0a72c84e93b115" x="127.246094"/>
<use xlink:href="#c_7a2040fe3b94fcd41d0a72c84e93b115" x="190.869141"/>
<use xlink:href="#c_7a2040fe3b94fcd41d0a72c84e93b115" x="254.492188"/>
</g>
</g>
</g>
<g id="xtick18">
<g id="line2d21">
<path style="fill: none; stroke: #000000; stroke-width: 1.000000; stroke-linejoin: round; stroke-linecap: square;  opacity: 1.000000"  d="M67.005496 190.703088L61.358281 193.322510"/>
</g>
<g id="text21">
<g style="fill: #000000; opacity: 1.000000" transform="translate(24.063862,201.159382)scale(0.120000)">
<use xlink:href="#c_cc8d6d580d1b10c8632f7a42cd53db8a"/>
<use xlink:href="#c_7a2040fe3b94fcd41d0a72c84e93b115" x="63.623047"/>
<use xlink:href="#c_7a2040fe3b94fcd41d0a72c84e93b115" x="127.246094"/>
<use xlink:href="#c_7a2040fe3b94fcd41d0a72c84e93b115" x="190.869141"/>
<use xlink:href="#c_7a2040fe3b94fcd41d0a72c84e93b115" x="254.492188"/>
</g>
</g>
</g>
<g id="xtick19">
<g id="line2d22">
<path style="fill: none; stroke: #000000; stroke-width: 1.000000; stroke-linejoin: round; stroke-linecap: square;  opacity: 1.000000"  d="M65.339442 166.658317L59.649398 169.258675"/>
</g>
<g id="text22">
<g style="fill: #000000; opacity: 1.000000" transform="translate(22.220763,177.103323)scale(0.120000)">
<use xlink:href="#c_cc8d6d580d1b10c8632f7a42cd53db8a"/>
<use xlink:href="#c_1260a2df50f305f3db244e29828f968e" x="63.623047"/>
<use xlink:href="#c_7a2040fe3b94fcd41d0a72c84e93b115" x="127.246094"/>
<use xlink:href="#c_7a2040fe3b94fcd41d0a72c84e93b115" x="190.869141"/>
<use xlink:href="#c_7a2040fe3b94fcd41d0a72c84e93b115" x="254.492188"/>
</g>
</g>
</g>
<g id="xtick20">
<g id="line2d23">
<path style="fill: none; stroke: #000000; stroke-width: 1.000000; stroke-linejoin: round; stroke-linecap: square;  opacity: 1.000000"  d="M63.649527 142.269179L57.916003 144.849656"/>
</g>
<g id="text23">
<defs>
<path id="c_956f18cfdaf972f35a6c2b4aaac2532b" d="M8.203125 -72.906250l46.875000 0.000000l0.000000 4.203125l-26.468750 68.703125l-10.296875 0.000000l24.906250 -64.593750l-35.015625 0.000000z"/>
</defs>
<g style="fill: #000000; opacity: 1.000000" transform="translate(20.421554,152.702413)scale(0.120000)">
<use xlink:href="#c_956f18cfdaf972f35a6c2b4aaac2532b"/>
<use xlink:href="#c_7a2040fe3b94fcd41d0a72c84e93b115" x="63.623047"/>
<use xlink:href="#c_7a2040fe3b94fcd41d0a72c84e93b115" x="127.246094"/>
<use xlink:href="#c_7a2040fe3b94fcd41d0a72c84e93b115" x="190.869141"/>
<use xlink:href="#c_7a2040fe3b94fcd41d0a72c84e93b115" x="254.492188"/>
</g>
</g>
</g>
</g>
<g id="axes1">
<g id="Line3DCollection4">
<defs>
<path id="coll3_0_8e2f3f87f6962568e4470786dbdd68fc" d="M317.260078 -26.204684L275.599206 -152.146807L234.963962 -129.939944
L195.141752 -134.955104L155.941096 -148.134193L116.012003 -187.876754
L78.432278 -194.521457"/>
<path id="coll3_1_6d6ae0542ba8c0dd7692152cbe54e1f6" d="M354.869358 -196.457102L311.997257 -140.486248L270.936366 -169.826483
L230.384943 -194.963579L191.563325 -183.036793L153.916550 -174.636951
L115.333362 -204.538385"/>
<path id="coll3_2_76ba0b3ffe1e6a82f3ba92c003dbec83" d="M388.664374 -131.001225L347.491441 -166.053263L306.592196 -195.660851
L266.266490 -208.966338L226.549721 -229.483338L189.625775 -184.166646
L150.330246 -236.729753"/>
<path id="coll3_3_2d5828d0cdda9115c4807653967d6012" d="M423.041747 -148.507041L381.654126 -160.950945L341.123508 -175.797504
L301.329730 -228.105234L262.433728 -189.256410L224.657090 -184.882650
L185.461859 -253.344159"/>
<path id="coll3_4_533393acac54b8609ffe4968601c2337" d="M457.285365 -178.390231L415.046683 -167.552055L377.085295 -286.929519
L335.556926 -231.564858L296.350175 -204.030667L256.687835 -339.227706
L220.539481 -242.907216"/>
<path id="coll3_5_a9e4bc86a15da163eb025cff8ecf068d" d="M488.356914 -160.275595L449.060333 -208.318668L407.574282 -190.545318
L370.008067 -293.830973L329.346492 -193.901648L291.368150 -298.451911
L253.524896 -295.496236"/>
<path id="coll3_6_5063f7e8c7930e32a85e164b4df0418d" d="M530.831439 -334.286982L484.114636 -272.235705L442.056640 -258.724715
L404.562776 -352.371098L362.928426 -280.354181L324.302265 -263.184387
L286.656687 -328.569156"/>
<path id="coll3_7_5063f7e8c7930e32a85e164b4df0418d" d="M530.831439 -334.286982L484.114636 -272.235705L442.056640 -258.724715
L404.562776 -352.371098L362.928426 -280.354181L324.302265 -263.184387
L286.656687 -328.569156"/>
<path id="coll3_8_76da159a65f0f8552353fe00d8d55193" d="M317.260078 -26.204684L354.869358 -196.457102L388.664374 -131.001225
L423.041747 -148.507041L457.285365 -178.390231L488.356914 -160.275595
L530.831439 -334.286982"/>
<path id="coll3_9_bfd3a40d1b0119f68450ae32522b8195" d="M275.599206 -152.146807L311.997257 -140.486248L347.491441 -166.053263
L381.654126 -160.950945L415.046683 -167.552055L449.060333 -208.318668
L484.114636 -272.235705"/>
<path id="coll3_a_0b880e1e636c4413af3ace19e6b5fb83" d="M234.963962 -129.939944L270.936366 -169.826483L306.592196 -195.660851
L341.123508 -175.797504L377.085295 -286.929519L407.574282 -190.545318
L442.056640 -258.724715"/>
<path id="coll3_b_ddd50da580806bc3868c8cea3bf15df9" d="M195.141752 -134.955104L230.384943 -194.963579L266.266490 -208.966338
L301.329730 -228.105234L335.556926 -231.564858L370.008067 -293.830973
L404.562776 -352.371098"/>
<path id="coll3_c_8b4fad70612933b5c2b6d2de7fb5fa46" d="M155.941096 -148.134193L191.563325 -183.036793L226.549721 -229.483338
L262.433728 -189.256410L296.350175 -204.030667L329.346492 -193.901648
L362.928426 -280.354181"/>
<path id="coll3_d_2a685a9146e0482d7badc5761c3fdd0e" d="M116.012003 -187.876754L153.916550 -174.636951L189.625775 -184.166646
L224.657090 -184.882650L256.687835 -339.227706L291.368150 -298.451911
L324.302265 -263.184387"/>
<path id="coll3_e_2b2290fc2dbf707061c6cbcc1e5d188c" d="M78.432278 -194.521457L115.333362 -204.538385L150.330246 -236.729753
L185.461859 -253.344159L220.539481 -242.907216L253.524896 -295.496236
L286.656687 -328.569156"/>
<path id="coll3_f_2b2290fc2dbf707061c6cbcc1e5d188c" d="M78.432278 -194.521457L115.333362 -204.538385L150.330246 -236.729753
L185.461859 -253.344159L220.539481 -242.907216L253.524896 -295.496236
L286.656687 -328.569156"/>
</defs>
<defs>
  <clipPath id="p7458867926d2dfc2fafcfa7d32fa4125">
<rect x="0.000000" y="0.000000" width="586.800000" height="442.800000"/>
  </clipPath>
</defs><g clip-path="url(#p7458867926d2dfc2fafcfa7d32fa4125)"><use style="fill: none; stroke: #0000ff; stroke-width: 1.000000; stroke-linejoin: round; stroke-linecap: butt;  opacity: 1.000000" xlink:href="#coll3_0_8e2f3f87f6962568e4470786dbdd68fc" x="0.000000" y="442.800000"/>
</g><g clip-path="url(#p7458867926d2dfc2fafcfa7d32fa4125)"><use style="fill: none; stroke: #0000ff; stroke-width: 1.000000; stroke-linejoin: round; stroke-linecap: butt;  opacity: 1.000000" xlink:href="#coll3_1_6d6ae0542ba8c0dd7692152cbe54e1f6" x="0.000000" y="442.800000"/>
</g><g clip-path="url(#p7458867926d2dfc2fafcfa7d32fa4125)"><use style="fill: none; stroke: #0000ff; stroke-width: 1.000000; stroke-linejoin: round; stroke-linecap: butt;  opacity: 1.000000" xlink:href="#coll3_2_76ba0b3ffe1e6a82f3ba92c003dbec83" x="0.000000" y="442.800000"/>
</g><g clip-path="url(#p7458867926d2dfc2fafcfa7d32fa4125)"><use style="fill: none; stroke: #0000ff; stroke-width: 1.000000; stroke-linejoin: round; stroke-linecap: butt;  opacity: 1.000000" xlink:href="#coll3_3_2d5828d0cdda9115c4807653967d6012" x="0.000000" y="442.800000"/>
</g><g clip-path="url(#p7458867926d2dfc2fafcfa7d32fa4125)"><use style="fill: none; stroke: #0000ff; stroke-width: 1.000000; stroke-linejoin: round; stroke-linecap: butt;  opacity: 1.000000" xlink:href="#coll3_4_533393acac54b8609ffe4968601c2337" x="0.000000" y="442.800000"/>
</g><g clip-path="url(#p7458867926d2dfc2fafcfa7d32fa4125)"><use style="fill: none; stroke: #0000ff; stroke-width: 1.000000; stroke-linejoin: round; stroke-linecap: butt;  opacity: 1.000000" xlink:href="#coll3_5_a9e4bc86a15da163eb025cff8ecf068d" x="0.000000" y="442.800000"/>
</g><g clip-path="url(#p7458867926d2dfc2fafcfa7d32fa4125)"><use style="fill: none; stroke: #0000ff; stroke-width: 1.000000; stroke-linejoin: round; stroke-linecap: butt;  opacity: 1.000000" xlink:href="#coll3_6_5063f7e8c7930e32a85e164b4df0418d" x="0.000000" y="442.800000"/>
</g><g clip-path="url(#p7458867926d2dfc2fafcfa7d32fa4125)"><use style="fill: none; stroke: #0000ff; stroke-width: 1.000000; stroke-linejoin: round; stroke-linecap: butt;  opacity: 1.000000" xlink:href="#coll3_7_5063f7e8c7930e32a85e164b4df0418d" x="0.000000" y="442.800000"/>
</g><g clip-path="url(#p7458867926d2dfc2fafcfa7d32fa4125)"><use style="fill: none; stroke: #0000ff; stroke-width: 1.000000; stroke-linejoin: round; stroke-linecap: butt;  opacity: 1.000000" xlink:href="#coll3_8_76da159a65f0f8552353fe00d8d55193" x="0.000000" y="442.800000"/>
</g><g clip-path="url(#p7458867926d2dfc2fafcfa7d32fa4125)"><use style="fill: none; stroke: #0000ff; stroke-width: 1.000000; stroke-linejoin: round; stroke-linecap: butt;  opacity: 1.000000" xlink:href="#coll3_9_bfd3a40d1b0119f68450ae32522b8195" x="0.000000" y="442.800000"/>
</g><g clip-path="url(#p7458867926d2dfc2fafcfa7d32fa4125)"><use style="fill: none; stroke: #0000ff; stroke-width: 1.000000; stroke-linejoin: round; stroke-linecap: butt;  opacity: 1.000000" xlink:href="#coll3_a_0b880e1e636c4413af3ace19e6b5fb83" x="0.000000" y="442.800000"/>
</g><g clip-path="url(#p7458867926d2dfc2fafcfa7d32fa4125)"><use style="fill: none; stroke: #0000ff; stroke-width: 1.000000; stroke-linejoin: round; stroke-linecap: butt;  opacity: 1.000000" xlink:href="#coll3_b_ddd50da580806bc3868c8cea3bf15df9" x="0.000000" y="442.800000"/>
</g><g clip-path="url(#p7458867926d2dfc2fafcfa7d32fa4125)"><use style="fill: none; stroke: #0000ff; stroke-width: 1.000000; stroke-linejoin: round; stroke-linecap: butt;  opacity: 1.000000" xlink:href="#coll3_c_8b4fad70612933b5c2b6d2de7fb5fa46" x="0.000000" y="442.800000"/>
</g><g clip-path="url(#p7458867926d2dfc2fafcfa7d32fa4125)"><use style="fill: none; stroke: #0000ff; stroke-width: 1.000000; stroke-linejoin: round; stroke-linecap: butt;  opacity: 1.000000" xlink:href="#coll3_d_2a685a9146e0482d7badc5761c3fdd0e" x="0.000000" y="442.800000"/>
</g><g clip-path="url(#p7458867926d2dfc2fafcfa7d32fa4125)"><use style="fill: none; stroke: #0000ff; stroke-width: 1.000000; stroke-linejoin: round; stroke-linecap: butt;  opacity: 1.000000" xlink:href="#coll3_e_2b2290fc2dbf707061c6cbcc1e5d188c" x="0.000000" y="442.800000"/>
</g><g clip-path="url(#p7458867926d2dfc2fafcfa7d32fa4125)"><use style="fill: none; stroke: #0000ff; stroke-width: 1.000000; stroke-linejoin: round; stroke-linecap: butt;  opacity: 1.000000" xlink:href="#coll3_f_2b2290fc2dbf707061c6cbcc1e5d188c" x="0.000000" y="442.800000"/>
</g></g>
<g id="matplotlib.axis1">
</g>
<g id="matplotlib.axis2">
</g>
</g>
</g>
</svg>
