<?xml version="1.0" standalone="no"?>
<!DOCTYPE svg PUBLIC "-//W3C//DTD SVG 1.1//EN"
  "http://www.w3.org/Graphics/SVG/1.1/DTD/svg11.dtd">
<!-- Created with matplotlib (http://matplotlib.sourceforge.net/) -->
<svg width="586pt" height="442pt" viewBox="0 0 586 442"
   xmlns="http://www.w3.org/2000/svg"
   xmlns:xlink="http://www.w3.org/1999/xlink"
   version="1.1"
   id="svg1">
<filter id="colorAdd"><feComposite in="SourceGraphic" in2="BackgroundImage" operator="arithmetic" k2="1" k3="1"/></filter>
<g id="figure1">
<g id="patch1">
<path style="fill: #ffffff; stroke: #ffffff; stroke-width: 1.000000; stroke-linejoin: round; stroke-linecap: square;  opacity: 1.000000"  d="M0.000000 442.800000L586.800000 442.800000L586.800000 0.000000
L0.000000 0.000000z"/>
</g>
<g id="patch2">
<path style="fill: #ffffff; opacity: 1.000000"  d="M0.000000 442.800000L586.800000 442.800000L586.800000 0.000000
L0.000000 0.000000z"/>
</g>
<g id="pane3d1">
<g id="patch3">
<path style="fill: #f2f2f2; stroke: #f2f2f2; stroke-width: 1.000000; stroke-linejoin: round; stroke-linecap: square;  opacity: 0.500000"  d="M282.385716 256.418702L71.987905 334.242753L62.234506 104.236210
L281.636485 39.440609"/>
</g>
</g>
<g id="pane3d2">
<g id="patch4">
<path style="fill: #e6e6e6; stroke: #e6e6e6; stroke-width: 1.000000; stroke-linejoin: round; stroke-linecap: square;  opacity: 0.500000"  d="M528.007411 320.822027L282.385716 256.418702L281.636485 39.440609
L537.530821 93.035758"/>
</g>
</g>
<g id="pane3d3">
<g id="patch5">
<path style="fill: #ececec; stroke: #ececec; stroke-width: 1.000000; stroke-linejoin: round; stroke-linecap: square;  opacity: 0.500000"  d="M528.007411 320.822027L282.385716 256.418702L71.987905 334.242753
L322.949439 408.606390"/>
</g>
</g>
<g id="axis3d1">
<g id="line2d1">
<path style="fill: none; stroke: #000000; stroke-width: 0.750000; stroke-linejoin: round; stroke-linecap: square;  opacity: 1.000000"  d="M71.987905 334.242753L322.949439 408.606390"/>
</g>
<g id="text1">
<defs>
<path id="c_4c6532c564269b2c70b230c2e45c01e4" d="M44.390625 -34.187500q3.171875 1.078125 6.171875 4.593750q3.000000 3.515625 6.031250 9.671875l10.015625 19.921875l-10.609375 0.000000l-9.312500 -18.703125q-3.625000 -7.328125 -7.015625 -9.718750q-3.390625 -2.390625 -9.250000 -2.390625l-10.750000 0.000000l0.000000 30.812500l-9.859375 0.000000l0.000000 -72.906250l22.265625 0.000000q12.500000 0.000000 18.656250 5.234375q6.156250 5.218750 6.156250 15.765625q0.000000 6.890625 -3.203125 11.437500q-3.203125 4.531250 -9.296875 6.281250M19.671875 -64.796875l0.000000 25.875000l12.406250 0.000000q7.125000 0.000000 10.765625 -3.296875q3.640625 -3.296875 3.640625 -9.687500q0.000000 -6.390625 -3.640625 -9.640625q-3.640625 -3.250000 -10.765625 -3.250000z"/>
<path id="c_0bce5afba2dc6b9024b26277c38ad8e8" d="M56.203125 -29.593750l0.000000 4.390625l-41.312500 0.000000q0.593750 9.281250 5.593750 14.140625q5.000000 4.859375 13.937500 4.859375q5.171875 0.000000 10.031250 -1.265625q4.859375 -1.265625 9.656250 -3.812500l0.000000 8.500000q-4.843750 2.046875 -9.921875 3.125000q-5.078125 1.078125 -10.296875 1.078125q-13.093750 0.000000 -20.734375 -7.609375q-7.640625 -7.625000 -7.640625 -20.625000q0.000000 -13.421875 7.250000 -21.296875q7.250000 -7.890625 19.562500 -7.890625q11.031250 0.000000 17.453125 7.109375q6.421875 7.093750 6.421875 19.296875M47.218750 -32.234375q-0.093750 -7.359375 -4.125000 -11.750000q-4.031250 -4.406250 -10.671875 -4.406250q-7.515625 0.000000 -12.031250 4.250000q-4.515625 4.250000 -5.203125 11.968750z"/>
<path id="c_4653c6dfde66c7610eae0911760d3490" d="M52.000000 -44.187500q3.375000 -6.062500 8.062500 -8.937500q4.687500 -2.875000 11.031250 -2.875000q8.546875 0.000000 13.187500 5.984375q4.640625 5.968750 4.640625 17.000000l0.000000 33.015625l-9.031250 0.000000l0.000000 -32.718750q0.000000 -7.859375 -2.796875 -11.656250q-2.781250 -3.812500 -8.484375 -3.812500q-6.984375 0.000000 -11.046875 4.640625q-4.046875 4.625000 -4.046875 12.640625l0.000000 30.906250l-9.031250 0.000000l0.000000 -32.718750q0.000000 -7.906250 -2.781250 -11.687500q-2.781250 -3.781250 -8.593750 -3.781250q-6.890625 0.000000 -10.953125 4.656250q-4.046875 4.656250 -4.046875 12.625000l0.000000 30.906250l-9.031250 0.000000l0.000000 -54.687500l9.031250 0.000000l0.000000 8.500000q3.078125 -5.031250 7.375000 -7.421875q4.296875 -2.390625 10.203125 -2.390625q5.968750 0.000000 10.140625 3.031250q4.171875 3.015625 6.171875 8.781250"/>
<path id="c_f05dd90d41f04bb96ef1ca503cc2044b" d="M30.609375 -48.390625q-7.218750 0.000000 -11.421875 5.640625q-4.203125 5.640625 -4.203125 15.453125q0.000000 9.812500 4.171875 15.453125q4.187500 5.640625 11.453125 5.640625q7.187500 0.000000 11.375000 -5.656250q4.203125 -5.671875 4.203125 -15.437500q0.000000 -9.718750 -4.203125 -15.406250q-4.187500 -5.687500 -11.375000 -5.687500M30.609375 -56.000000q11.718750 0.000000 18.406250 7.625000q6.703125 7.609375 6.703125 21.078125q0.000000 13.421875 -6.703125 21.078125q-6.687500 7.640625 -18.406250 7.640625q-11.765625 0.000000 -18.437500 -7.640625q-6.656250 -7.656250 -6.656250 -21.078125q0.000000 -13.468750 6.656250 -21.078125q6.671875 -7.625000 18.437500 -7.625000"/>
<path id="c_c48ceabac27bf136feba2f4bf2716ab6" d="M2.984375 -54.687500l9.515625 0.000000l17.093750 45.890625l17.093750 -45.890625l9.515625 0.000000l-20.515625 54.687500l-12.203125 0.000000z"/>
</defs>
<g style="fill: #000000; opacity: 1.000000" transform="translate(146.922418,400.542008)rotate(-343.5)scale(0.120000)">
<use xlink:href="#c_4c6532c564269b2c70b230c2e45c01e4"/>
<use xlink:href="#c_0bce5afba2dc6b9024b26277c38ad8e8" x="64.982422"/>
<use xlink:href="#c_4653c6dfde66c7610eae0911760d3490" x="126.505859"/>
<use xlink:href="#c_f05dd90d41f04bb96ef1ca503cc2044b" x="223.917969"/>
<use xlink:href="#c_c48ceabac27bf136feba2f4bf2716ab6" x="285.099609"/>
<use xlink:href="#c_0bce5afba2dc6b9024b26277c38ad8e8" x="344.279297"/>
</g>
</g>
<g id="Line3DCollection1">
<defs>
<path id="coll0_0_175f5f30946c040aca9945a6a60812b1" d="M317.614007 -35.774578L522.807570 -123.341399L532.100943 -350.901489"/>
<path id="coll0_1_93fb08187a519a1461090616051c978c" d="M275.419416 -48.277463L481.651634 -134.132706L489.143508 -359.898602"/>
<path id="coll0_2_2b095d5d5097f15f822bba6d885dda62" d="M234.075305 -60.528338L441.267202 -144.721721L447.024479 -368.720117"/>
<path id="coll0_3_c6a0e77d48e14c64ebbd4356ab57829e" d="M193.556217 -72.534747L401.632782 -155.114078L405.719547 -377.371125"/>
<path id="coll0_4_57ea00f61167c26e0b4017f3b6d7a13e" d="M153.837700 -84.303935L362.727673 -165.315206L365.205337 -385.856522"/>
<path id="coll0_5_359aa4d32dd1a45e64e196192db87971" d="M114.896260 -95.842863L324.531928 -175.330335L325.459356 -394.181019"/>
</defs>
<use style="fill: none; stroke: #e6e6e6; stroke-width: 1.000000; stroke-linejoin: round; stroke-linecap: butt;  opacity: 1.000000" xlink:href="#coll0_0_175f5f30946c040aca9945a6a60812b1" x="0.000000" y="442.800000"/>
<use style="fill: none; stroke: #e6e6e6; stroke-width: 1.000000; stroke-linejoin: round; stroke-linecap: butt;  opacity: 1.000000" xlink:href="#coll0_1_93fb08187a519a1461090616051c978c" x="0.000000" y="442.800000"/>
<use style="fill: none; stroke: #e6e6e6; stroke-width: 1.000000; stroke-linejoin: round; stroke-linecap: butt;  opacity: 1.000000" xlink:href="#coll0_2_2b095d5d5097f15f822bba6d885dda62" x="0.000000" y="442.800000"/>
<use style="fill: none; stroke: #e6e6e6; stroke-width: 1.000000; stroke-linejoin: round; stroke-linecap: butt;  opacity: 1.000000" xlink:href="#coll0_3_c6a0e77d48e14c64ebbd4356ab57829e" x="0.000000" y="442.800000"/>
<use style="fill: none; stroke: #e6e6e6; stroke-width: 1.000000; stroke-linejoin: round; stroke-linecap: butt;  opacity: 1.000000" xlink:href="#coll0_4_57ea00f61167c26e0b4017f3b6d7a13e" x="0.000000" y="442.800000"/>
<use style="fill: none; stroke: #e6e6e6; stroke-width: 1.000000; stroke-linejoin: round; stroke-linecap: butt;  opacity: 1.000000" xlink:href="#coll0_5_359aa4d32dd1a45e64e196192db87971" x="0.000000" y="442.800000"/>
</g>
<g id="xtick1">
<g id="line2d2">
<path style="fill: none; stroke: #000000; stroke-width: 1.000000; stroke-linejoin: round; stroke-linecap: square;  opacity: 1.000000"  d="M319.380504 406.271566L314.074496 408.535917"/>
</g>
<g id="text2">
<defs>
<path id="c_7a2040fe3b94fcd41d0a72c84e93b115" d="M31.781250 -66.406250q-7.609375 0.000000 -11.453125 7.500000q-3.828125 7.484375 -3.828125 22.531250q0.000000 14.984375 3.828125 22.484375q3.843750 7.500000 11.453125 7.500000q7.671875 0.000000 11.500000 -7.500000q3.843750 -7.500000 3.843750 -22.484375q0.000000 -15.046875 -3.843750 -22.531250q-3.828125 -7.500000 -11.500000 -7.500000M31.781250 -74.218750q12.265625 0.000000 18.734375 9.703125q6.468750 9.687500 6.468750 28.140625q0.000000 18.406250 -6.468750 28.109375q-6.468750 9.687500 -18.734375 9.687500q-12.250000 0.000000 -18.718750 -9.687500q-6.468750 -9.703125 -6.468750 -28.109375q0.000000 -18.453125 6.468750 -28.140625q6.468750 -9.703125 18.718750 -9.703125"/>
<path id="c_ed3e21196fb739f392806f09ca0594ef" d="M10.687500 -12.406250l10.312500 0.000000l0.000000 12.406250l-10.312500 0.000000z"/>
<path id="c_42baa63129a918535c52adb20d687ea7" d="M12.406250 -8.296875l16.109375 0.000000l0.000000 -55.625000l-17.531250 3.515625l0.000000 -8.984375l17.437500 -3.515625l9.859375 0.000000l0.000000 64.609375l16.109375 0.000000l0.000000 8.296875l-41.984375 0.000000z"/>
</defs>
<g style="fill: #000000; opacity: 1.000000" transform="translate(298.363781,431.588302)scale(0.120000)">
<use xlink:href="#c_7a2040fe3b94fcd41d0a72c84e93b115"/>
<use xlink:href="#c_ed3e21196fb739f392806f09ca0594ef" x="63.623047"/>
<use xlink:href="#c_42baa63129a918535c52adb20d687ea7" x="95.410156"/>
</g>
</g>
</g>
<g id="xtick2">
<g id="line2d3">
<path style="fill: none; stroke: #000000; stroke-width: 1.000000; stroke-linejoin: round; stroke-linecap: square;  opacity: 1.000000"  d="M277.193577 393.783947L271.864615 396.002414"/>
</g>
<g id="text3">
<defs>
<path id="c_ed3f3ed3ebfbd18bcb9c012009a68ad1" d="M19.187500 -8.296875l34.421875 0.000000l0.000000 8.296875l-46.281250 0.000000l0.000000 -8.296875q5.609375 -5.812500 15.296875 -15.593750q9.703125 -9.796875 12.187500 -12.640625q4.734375 -5.312500 6.609375 -9.000000q1.890625 -3.687500 1.890625 -7.250000q0.000000 -5.812500 -4.078125 -9.468750q-4.078125 -3.671875 -10.625000 -3.671875q-4.640625 0.000000 -9.796875 1.609375q-5.140625 1.609375 -11.000000 4.890625l0.000000 -9.968750q5.953125 -2.390625 11.125000 -3.609375q5.187500 -1.218750 9.484375 -1.218750q11.328125 0.000000 18.062500 5.671875q6.734375 5.656250 6.734375 15.125000q0.000000 4.500000 -1.687500 8.531250q-1.671875 4.015625 -6.125000 9.484375q-1.218750 1.421875 -7.765625 8.187500q-6.531250 6.765625 -18.453125 18.921875"/>
</defs>
<g style="fill: #000000; opacity: 1.000000" transform="translate(256.257635,418.905888)scale(0.120000)">
<use xlink:href="#c_7a2040fe3b94fcd41d0a72c84e93b115"/>
<use xlink:href="#c_ed3e21196fb739f392806f09ca0594ef" x="63.623047"/>
<use xlink:href="#c_ed3f3ed3ebfbd18bcb9c012009a68ad1" x="95.410156"/>
</g>
</g>
</g>
<g id="xtick3">
<g id="line2d4">
<path style="fill: none; stroke: #000000; stroke-width: 1.000000; stroke-linejoin: round; stroke-linecap: square;  opacity: 1.000000"  d="M235.856464 381.547880L230.506548 383.721843"/>
</g>
<g id="text4">
<defs>
<path id="c_3dcfa38a02242cb63ec6726c6e70be7a" d="M40.578125 -39.312500q7.078125 1.515625 11.046875 6.312500q3.984375 4.781250 3.984375 11.812500q0.000000 10.781250 -7.421875 16.703125q-7.421875 5.906250 -21.093750 5.906250q-4.578125 0.000000 -9.437500 -0.906250q-4.859375 -0.906250 -10.031250 -2.718750l0.000000 -9.515625q4.093750 2.390625 8.968750 3.609375q4.890625 1.218750 10.218750 1.218750q9.265625 0.000000 14.125000 -3.656250q4.859375 -3.656250 4.859375 -10.640625q0.000000 -6.453125 -4.515625 -10.078125q-4.515625 -3.640625 -12.562500 -3.640625l-8.500000 0.000000l0.000000 -8.109375l8.890625 0.000000q7.265625 0.000000 11.125000 -2.906250q3.859375 -2.906250 3.859375 -8.375000q0.000000 -5.609375 -3.984375 -8.609375q-3.968750 -3.015625 -11.390625 -3.015625q-4.062500 0.000000 -8.703125 0.890625q-4.640625 0.875000 -10.203125 2.718750l0.000000 -8.781250q5.625000 -1.562500 10.531250 -2.343750q4.906250 -0.781250 9.250000 -0.781250q11.234375 0.000000 17.765625 5.109375q6.546875 5.093750 6.546875 13.781250q0.000000 6.062500 -3.468750 10.234375q-3.468750 4.171875 -9.859375 5.781250"/>
</defs>
<g style="fill: #000000; opacity: 1.000000" transform="translate(214.838405,406.479504)scale(0.120000)">
<use xlink:href="#c_7a2040fe3b94fcd41d0a72c84e93b115"/>
<use xlink:href="#c_ed3e21196fb739f392806f09ca0594ef" x="63.623047"/>
<use xlink:href="#c_3dcfa38a02242cb63ec6726c6e70be7a" x="95.410156"/>
</g>
</g>
</g>
<g id="xtick4">
<g id="line2d5">
<path style="fill: none; stroke: #000000; stroke-width: 1.000000; stroke-linejoin: round; stroke-linecap: square;  opacity: 1.000000"  d="M195.343743 369.555837L189.974767 371.686623"/>
</g>
<g id="text5">
<defs>
<path id="c_a0416418d96557a09b8c1332d34883ba" d="M37.796875 -64.312500l-24.906250 38.921875l24.906250 0.000000zM35.203125 -72.906250l12.406250 0.000000l0.000000 47.515625l10.406250 0.000000l0.000000 8.203125l-10.406250 0.000000l0.000000 17.187500l-9.812500 0.000000l0.000000 -17.187500l-32.906250 0.000000l0.000000 -9.515625z"/>
</defs>
<g style="fill: #000000; opacity: 1.000000" transform="translate(174.213393,394.301476)scale(0.120000)">
<use xlink:href="#c_7a2040fe3b94fcd41d0a72c84e93b115"/>
<use xlink:href="#c_ed3e21196fb739f392806f09ca0594ef" x="63.623047"/>
<use xlink:href="#c_a0416418d96557a09b8c1332d34883ba" x="95.410156"/>
</g>
</g>
</g>
<g id="xtick5">
<g id="line2d6">
<path style="fill: none; stroke: #000000; stroke-width: 1.000000; stroke-linejoin: round; stroke-linecap: square;  opacity: 1.000000"  d="M155.630995 357.800593L150.244754 359.889474"/>
</g>
<g id="text6">
<defs>
<path id="c_1260a2df50f305f3db244e29828f968e" d="M10.796875 -72.906250l38.718750 0.000000l0.000000 8.312500l-29.687500 0.000000l0.000000 17.859375q2.140625 -0.734375 4.281250 -1.093750q2.156250 -0.359375 4.312500 -0.359375q12.203125 0.000000 19.328125 6.687500q7.140625 6.687500 7.140625 18.109375q0.000000 11.765625 -7.328125 18.296875q-7.328125 6.515625 -20.656250 6.515625q-4.593750 0.000000 -9.359375 -0.781250q-4.750000 -0.781250 -9.828125 -2.343750l0.000000 -9.921875q4.390625 2.390625 9.078125 3.562500q4.687500 1.171875 9.906250 1.171875q8.453125 0.000000 13.375000 -4.437500q4.937500 -4.437500 4.937500 -12.062500q0.000000 -7.609375 -4.937500 -12.046875q-4.921875 -4.453125 -13.375000 -4.453125q-3.953125 0.000000 -7.890625 0.875000q-3.921875 0.875000 -8.015625 2.734375z"/>
</defs>
<g style="fill: #000000; opacity: 1.000000" transform="translate(134.725285,382.364431)scale(0.120000)">
<use xlink:href="#c_7a2040fe3b94fcd41d0a72c84e93b115"/>
<use xlink:href="#c_ed3e21196fb739f392806f09ca0594ef" x="63.623047"/>
<use xlink:href="#c_1260a2df50f305f3db244e29828f968e" x="95.410156"/>
</g>
</g>
</g>
<g id="xtick6">
<g id="line2d7">
<path style="fill: none; stroke: #000000; stroke-width: 1.000000; stroke-linejoin: round; stroke-linecap: square;  opacity: 1.000000"  d="M116.694758 346.275201L111.292952 348.323402"/>
</g>
<g id="text7">
<defs>
<path id="c_cc8d6d580d1b10c8632f7a42cd53db8a" d="M33.015625 -40.375000q-6.640625 0.000000 -10.531250 4.546875q-3.875000 4.531250 -3.875000 12.437500q0.000000 7.859375 3.875000 12.437500q3.890625 4.562500 10.531250 4.562500q6.640625 0.000000 10.515625 -4.562500q3.875000 -4.578125 3.875000 -12.437500q0.000000 -7.906250 -3.875000 -12.437500q-3.875000 -4.546875 -10.515625 -4.546875M52.593750 -71.296875l0.000000 8.984375q-3.718750 -1.750000 -7.500000 -2.671875q-3.781250 -0.937500 -7.500000 -0.937500q-9.765625 0.000000 -14.921875 6.593750q-5.140625 6.593750 -5.875000 19.921875q2.875000 -4.250000 7.218750 -6.515625q4.359375 -2.265625 9.578125 -2.265625q10.984375 0.000000 17.359375 6.671875q6.375000 6.656250 6.375000 18.125000q0.000000 11.234375 -6.640625 18.031250q-6.640625 6.781250 -17.671875 6.781250q-12.656250 0.000000 -19.343750 -9.687500q-6.687500 -9.703125 -6.687500 -28.109375q0.000000 -17.281250 8.203125 -27.562500q8.203125 -10.281250 22.015625 -10.281250q3.718750 0.000000 7.500000 0.734375q3.781250 0.734375 7.890625 2.187500"/>
</defs>
<g style="fill: #000000; opacity: 1.000000" transform="translate(95.686474,370.661287)scale(0.120000)">
<use xlink:href="#c_7a2040fe3b94fcd41d0a72c84e93b115"/>
<use xlink:href="#c_ed3e21196fb739f392806f09ca0594ef" x="63.623047"/>
<use xlink:href="#c_cc8d6d580d1b10c8632f7a42cd53db8a" x="95.410156"/>
</g>
</g>
</g>
</g>
<g id="axis3d2">
<g id="line2d8">
<path style="fill: none; stroke: #000000; stroke-width: 0.750000; stroke-linejoin: round; stroke-linecap: square;  opacity: 1.000000"  d="M528.007411 320.822027L322.949439 408.606390"/>
</g>
<g id="text8">
<defs>
<path id="c_b672e4bee30772019085dff1098f516d" d="M53.515625 -70.515625l0.000000 9.625000q-5.609375 -2.687500 -10.593750 -4.000000q-4.984375 -1.328125 -9.625000 -1.328125q-8.046875 0.000000 -12.421875 3.125000q-4.375000 3.125000 -4.375000 8.890625q0.000000 4.843750 2.906250 7.312500q2.906250 2.453125 11.015625 3.968750l5.953125 1.218750q11.031250 2.109375 16.281250 7.406250q5.250000 5.296875 5.250000 14.171875q0.000000 10.609375 -7.109375 16.078125q-7.093750 5.468750 -20.812500 5.468750q-5.171875 0.000000 -11.015625 -1.171875q-5.828125 -1.171875 -12.078125 -3.468750l0.000000 -10.156250q6.000000 3.359375 11.765625 5.078125q5.765625 1.703125 11.328125 1.703125q8.437500 0.000000 13.031250 -3.312500q4.593750 -3.328125 4.593750 -9.484375q0.000000 -5.359375 -3.296875 -8.390625q-3.296875 -3.031250 -10.812500 -4.546875l-6.015625 -1.171875q-11.031250 -2.187500 -15.968750 -6.875000q-4.921875 -4.687500 -4.921875 -13.046875q0.000000 -9.671875 6.812500 -15.234375q6.812500 -5.562500 18.765625 -5.562500q5.140625 0.000000 10.453125 0.937500q5.328125 0.921875 10.890625 2.765625"/>
<path id="c_74d54c94aa871ec39e2bc6697dde6c00" d="M54.890625 -33.015625l0.000000 33.015625l-8.984375 0.000000l0.000000 -32.718750q0.000000 -7.765625 -3.031250 -11.609375q-3.031250 -3.859375 -9.078125 -3.859375q-7.281250 0.000000 -11.484375 4.640625q-4.203125 4.625000 -4.203125 12.640625l0.000000 30.906250l-9.031250 0.000000l0.000000 -75.984375l9.031250 0.000000l0.000000 29.796875q3.234375 -4.937500 7.593750 -7.375000q4.375000 -2.437500 10.093750 -2.437500q9.421875 0.000000 14.250000 5.828125q4.843750 5.828125 4.843750 17.156250"/>
<path id="c_01d93a582460e35a7945ca50d148ffeb" d="M34.281250 -27.484375q-10.890625 0.000000 -15.093750 2.484375q-4.203125 2.484375 -4.203125 8.500000q0.000000 4.781250 3.156250 7.593750q3.156250 2.796875 8.562500 2.796875q7.484375 0.000000 12.000000 -5.296875q4.515625 -5.296875 4.515625 -14.078125l0.000000 -2.000000zM52.203125 -31.203125l0.000000 31.203125l-8.984375 0.000000l0.000000 -8.296875q-3.078125 4.968750 -7.671875 7.343750q-4.593750 2.375000 -11.234375 2.375000q-8.390625 0.000000 -13.359375 -4.718750q-4.953125 -4.718750 -4.953125 -12.625000q0.000000 -9.218750 6.171875 -13.906250q6.187500 -4.687500 18.437500 -4.687500l12.609375 0.000000l0.000000 -0.890625q0.000000 -6.203125 -4.078125 -9.593750q-4.078125 -3.390625 -11.453125 -3.390625q-4.687500 0.000000 -9.140625 1.125000q-4.437500 1.125000 -8.531250 3.375000l0.000000 -8.312500q4.921875 -1.906250 9.562500 -2.843750q4.640625 -0.953125 9.031250 -0.953125q11.875000 0.000000 17.734375 6.156250q5.859375 6.140625 5.859375 18.640625"/>
<path id="c_dcb78ab3124be785176d70a27dde1356" d="M9.078125 -75.984375l9.031250 0.000000l0.000000 44.875000l26.812500 -23.578125l11.468750 0.000000l-29.000000 25.578125l30.234375 29.109375l-11.718750 0.000000l-27.796875 -26.703125l0.000000 26.703125l-9.031250 0.000000z"/>
</defs>
<g style="fill: #000000; opacity: 1.000000" transform="translate(441.894918,405.193780)rotate(-23.2)scale(0.120000)">
<use xlink:href="#c_b672e4bee30772019085dff1098f516d"/>
<use xlink:href="#c_74d54c94aa871ec39e2bc6697dde6c00" x="63.476562"/>
<use xlink:href="#c_01d93a582460e35a7945ca50d148ffeb" x="126.855469"/>
<use xlink:href="#c_dcb78ab3124be785176d70a27dde1356" x="188.134766"/>
<use xlink:href="#c_0bce5afba2dc6b9024b26277c38ad8e8" x="242.419922"/>
</g>
</g>
<g id="Line3DCollection2">
<defs>
<path id="coll1_0_3f9b1fc683a89f06d67798ec6229c80e" d="M277.549997 -402.152536L278.455920 -184.927705L524.193579 -120.345290"/>
<path id="coll1_1_5e289739114c22c240be76c1ef1c54a4" d="M244.440770 -392.374446L246.631680 -173.156237L493.285766 -107.113799"/>
<path id="coll1_2_181220470ea816eb89407f0c8a35efae" d="M210.571529 -382.371903L214.105367 -161.125078L461.654328 -93.572527"/>
<path id="coll1_3_40a230af61163359d5e13ea1067138b2" d="M175.915802 -372.137087L180.853489 -148.825540L429.273551 -79.710467"/>
<path id="coll1_4_6b886b7a27c692a9d4d56d5e6dc3b98a" d="M140.445870 -361.661815L146.851494 -136.248542L396.116487 -65.516083"/>
<path id="coll1_5_cd141d6e1a3e37e61bdda771f2d8eae3" d="M104.132701 -350.937510L112.073710 -123.384586L362.154884 -50.977278"/>
</defs>
<use style="fill: none; stroke: #e6e6e6; stroke-width: 1.000000; stroke-linejoin: round; stroke-linecap: butt;  opacity: 1.000000" xlink:href="#coll1_0_3f9b1fc683a89f06d67798ec6229c80e" x="0.000000" y="442.800000"/>
<use style="fill: none; stroke: #e6e6e6; stroke-width: 1.000000; stroke-linejoin: round; stroke-linecap: butt;  opacity: 1.000000" xlink:href="#coll1_1_5e289739114c22c240be76c1ef1c54a4" x="0.000000" y="442.800000"/>
<use style="fill: none; stroke: #e6e6e6; stroke-width: 1.000000; stroke-linejoin: round; stroke-linecap: butt;  opacity: 1.000000" xlink:href="#coll1_2_181220470ea816eb89407f0c8a35efae" x="0.000000" y="442.800000"/>
<use style="fill: none; stroke: #e6e6e6; stroke-width: 1.000000; stroke-linejoin: round; stroke-linecap: butt;  opacity: 1.000000" xlink:href="#coll1_3_40a230af61163359d5e13ea1067138b2" x="0.000000" y="442.800000"/>
<use style="fill: none; stroke: #e6e6e6; stroke-width: 1.000000; stroke-linejoin: round; stroke-linecap: butt;  opacity: 1.000000" xlink:href="#coll1_4_6b886b7a27c692a9d4d56d5e6dc3b98a" x="0.000000" y="442.800000"/>
<use style="fill: none; stroke: #e6e6e6; stroke-width: 1.000000; stroke-linejoin: round; stroke-linecap: butt;  opacity: 1.000000" xlink:href="#coll1_5_cd141d6e1a3e37e61bdda771f2d8eae3" x="0.000000" y="442.800000"/>
</g>
<g id="xtick7">
<g id="line2d9">
<path style="fill: none; stroke: #000000; stroke-width: 1.000000; stroke-linejoin: round; stroke-linecap: square;  opacity: 1.000000"  d="M522.111003 321.907388L528.364722 323.550930"/>
</g>
<g id="text9">
<g style="fill: #000000; opacity: 1.000000" transform="translate(527.680640,345.164118)scale(0.120000)">
<use xlink:href="#c_7a2040fe3b94fcd41d0a72c84e93b115"/>
<use xlink:href="#c_ed3e21196fb739f392806f09ca0594ef" x="63.623047"/>
<use xlink:href="#c_42baa63129a918535c52adb20d687ea7" x="95.410156"/>
</g>
</g>
</g>
<g id="xtick8">
<g id="line2d10">
<path style="fill: none; stroke: #000000; stroke-width: 1.000000; stroke-linejoin: round; stroke-linecap: square;  opacity: 1.000000"  d="M491.194069 335.126142L497.475247 336.807948"/>
</g>
<g id="text10">
<g style="fill: #000000; opacity: 1.000000" transform="translate(496.930356,358.567999)scale(0.120000)">
<use xlink:href="#c_7a2040fe3b94fcd41d0a72c84e93b115"/>
<use xlink:href="#c_ed3e21196fb739f392806f09ca0594ef" x="63.623047"/>
<use xlink:href="#c_ed3f3ed3ebfbd18bcb9c012009a68ad1" x="95.410156"/>
</g>
</g>
</g>
<g id="xtick9">
<g id="line2d11">
<path style="fill: none; stroke: #000000; stroke-width: 1.000000; stroke-linejoin: round; stroke-linecap: square;  opacity: 1.000000"  d="M459.553651 348.654228L465.861866 350.375649"/>
</g>
<g id="text11">
<g style="fill: #000000; opacity: 1.000000" transform="translate(465.294285,372.285999)scale(0.120000)">
<use xlink:href="#c_7a2040fe3b94fcd41d0a72c84e93b115"/>
<use xlink:href="#c_ed3e21196fb739f392806f09ca0594ef" x="63.623047"/>
<use xlink:href="#c_3dcfa38a02242cb63ec6726c6e70be7a" x="95.410156"/>
</g>
</g>
</g>
<g id="xtick10">
<g id="line2d12">
<path style="fill: none; stroke: #000000; stroke-width: 1.000000; stroke-linejoin: round; stroke-linecap: square;  opacity: 1.000000"  d="M427.164052 362.502631L433.498830 364.265084"/>
</g>
<g id="text12">
<g style="fill: #000000; opacity: 1.000000" transform="translate(432.879566,386.329288)scale(0.120000)">
<use xlink:href="#c_7a2040fe3b94fcd41d0a72c84e93b115"/>
<use xlink:href="#c_ed3e21196fb739f392806f09ca0594ef" x="63.623047"/>
<use xlink:href="#c_a0416418d96557a09b8c1332d34883ba" x="95.410156"/>
</g>
</g>
</g>
<g id="xtick11">
<g id="line2d13">
<path style="fill: none; stroke: #000000; stroke-width: 1.000000; stroke-linejoin: round; stroke-linecap: square;  opacity: 1.000000"  d="M393.998346 376.682865L400.359155 378.487834"/>
</g>
<g id="text13">
<g style="fill: #000000; opacity: 1.000000" transform="translate(400.026486,400.709577)scale(0.120000)">
<use xlink:href="#c_7a2040fe3b94fcd41d0a72c84e93b115"/>
<use xlink:href="#c_ed3e21196fb739f392806f09ca0594ef" x="63.623047"/>
<use xlink:href="#c_1260a2df50f305f3db244e29828f968e" x="95.410156"/>
</g>
</g>
</g>
<g id="xtick12">
<g id="line2d14">
<path style="fill: none; stroke: #000000; stroke-width: 1.000000; stroke-linejoin: round; stroke-linecap: square;  opacity: 1.000000"  d="M360.028298 391.207000L366.414544 393.056043"/>
</g>
<g id="text14">
<g style="fill: #000000; opacity: 1.000000" transform="translate(366.042771,415.439143)scale(0.120000)">
<use xlink:href="#c_7a2040fe3b94fcd41d0a72c84e93b115"/>
<use xlink:href="#c_ed3e21196fb739f392806f09ca0594ef" x="63.623047"/>
<use xlink:href="#c_cc8d6d580d1b10c8632f7a42cd53db8a" x="95.410156"/>
</g>
</g>
</g>
</g>
<g id="axis3d3">
<g id="line2d15">
<path style="fill: none; stroke: #000000; stroke-width: 0.750000; stroke-linejoin: round; stroke-linecap: square;  opacity: 1.000000"  d="M528.007411 320.822027L537.530821 93.035758"/>
</g>
<g id="text15">
<defs>
<path id="c_a469f8ee191679fe73f3b765bd271597" d="M64.406250 -67.281250l0.000000 10.390625q-4.984375 -4.640625 -10.625000 -6.921875q-5.640625 -2.296875 -11.984375 -2.296875q-12.500000 0.000000 -19.140625 7.640625q-6.640625 7.640625 -6.640625 22.093750q0.000000 14.406250 6.640625 22.046875q6.640625 7.640625 19.140625 7.640625q6.343750 0.000000 11.984375 -2.296875q5.640625 -2.296875 10.625000 -6.937500l0.000000 10.312500q-5.171875 3.515625 -10.968750 5.281250q-5.781250 1.750000 -12.218750 1.750000q-16.562500 0.000000 -26.093750 -10.125000q-9.515625 -10.140625 -9.515625 -27.671875q0.000000 -17.578125 9.515625 -27.703125q9.531250 -10.140625 26.093750 -10.140625q6.531250 0.000000 12.312500 1.734375q5.796875 1.734375 10.875000 5.203125"/>
<path id="c_6ec8d5749226675394676a5d2a3b468b" d="M41.109375 -46.296875q-1.515625 -0.875000 -3.296875 -1.281250q-1.781250 -0.421875 -3.921875 -0.421875q-7.625000 0.000000 -11.703125 4.953125q-4.078125 4.953125 -4.078125 14.234375l0.000000 28.812500l-9.031250 0.000000l0.000000 -54.687500l9.031250 0.000000l0.000000 8.500000q2.843750 -4.984375 7.375000 -7.390625q4.546875 -2.421875 11.046875 -2.421875q0.921875 0.000000 2.046875 0.125000q1.125000 0.109375 2.484375 0.359375z"/>
<path id="c_6a63bda47b2f3da1cec6aadd80692cfe" d="M9.421875 -54.687500l8.984375 0.000000l0.000000 54.687500l-8.984375 0.000000zM9.421875 -75.984375l8.984375 0.000000l0.000000 11.390625l-8.984375 0.000000z"/>
<path id="c_0f8c41144cfbf448378cb6fd1cc8e549" d="M18.312500 -70.218750l0.000000 15.531250l18.500000 0.000000l0.000000 6.984375l-18.500000 0.000000l0.000000 29.687500q0.000000 6.687500 1.828125 8.593750q1.828125 1.906250 7.453125 1.906250l9.218750 0.000000l0.000000 7.515625l-9.218750 0.000000q-10.406250 0.000000 -14.359375 -3.875000q-3.953125 -3.890625 -3.953125 -14.140625l0.000000 -29.687500l-6.593750 0.000000l0.000000 -6.984375l6.593750 0.000000l0.000000 -15.531250z"/>
</defs>
<g style="fill: #000000; opacity: 1.000000" transform="translate(584.200786,229.303928)rotate(-87.6)scale(0.120000)">
<use xlink:href="#c_a469f8ee191679fe73f3b765bd271597"/>
<use xlink:href="#c_6ec8d5749226675394676a5d2a3b468b" x="69.824219"/>
<use xlink:href="#c_6a63bda47b2f3da1cec6aadd80692cfe" x="110.937500"/>
<use xlink:href="#c_0f8c41144cfbf448378cb6fd1cc8e549" x="138.720703"/>
<use xlink:href="#c_0bce5afba2dc6b9024b26277c38ad8e8" x="177.929688"/>
<use xlink:href="#c_6ec8d5749226675394676a5d2a3b468b" x="239.453125"/>
<use xlink:href="#c_6a63bda47b2f3da1cec6aadd80692cfe" x="280.566406"/>
<use xlink:href="#c_01d93a582460e35a7945ca50d148ffeb" x="308.349609"/>
</g>
</g>
<g id="Line3DCollection3">
<defs>
<path id="coll2_0_9ae86eb0aa48ad698f2dc46b936d5785" d="M529.926232 -167.873416L282.234471 -230.181738L70.023519 -154.881767"/>
<path id="coll2_1_3fa2b21ada74224c8c2db0c4f793d75a" d="M531.763560 -211.819654L282.089786 -272.082791L68.142196 -199.247499"/>
<path id="coll2_2_236657a27acddc4b83bb475d553f4ace" d="M533.630662 -256.478046L281.942891 -314.623662L66.230018 -244.340844"/>
<path id="coll2_3_7669d9cc1632b06c15355b627a23ca99" d="M535.528268 -301.866043L281.793736 -357.819121L64.286221 -290.179851"/>
</defs>
<use style="fill: none; stroke: #e6e6e6; stroke-width: 1.000000; stroke-linejoin: round; stroke-linecap: butt;  opacity: 1.000000" xlink:href="#coll2_0_9ae86eb0aa48ad698f2dc46b936d5785" x="0.000000" y="442.800000"/>
<use style="fill: none; stroke: #e6e6e6; stroke-width: 1.000000; stroke-linejoin: round; stroke-linecap: butt;  opacity: 1.000000" xlink:href="#coll2_1_3fa2b21ada74224c8c2db0c4f793d75a" x="0.000000" y="442.800000"/>
<use style="fill: none; stroke: #e6e6e6; stroke-width: 1.000000; stroke-linejoin: round; stroke-linecap: butt;  opacity: 1.000000" xlink:href="#coll2_2_236657a27acddc4b83bb475d553f4ace" x="0.000000" y="442.800000"/>
<use style="fill: none; stroke: #e6e6e6; stroke-width: 1.000000; stroke-linejoin: round; stroke-linecap: butt;  opacity: 1.000000" xlink:href="#coll2_3_7669d9cc1632b06c15355b627a23ca99" x="0.000000" y="442.800000"/>
</g>
<g id="xtick13">
<g id="line2d16">
<path style="fill: none; stroke: #000000; stroke-width: 1.000000; stroke-linejoin: round; stroke-linecap: square;  opacity: 1.000000"  d="M527.826269 274.398326L534.132240 275.984630"/>
</g>
<g id="text16">
<g style="fill: #000000; opacity: 1.000000" transform="translate(548.855693,283.216887)scale(0.120000)">
<use xlink:href="#c_3dcfa38a02242cb63ec6726c6e70be7a"/>
</g>
</g>
</g>
<g id="xtick14">
<g id="line2d17">
<path style="fill: none; stroke: #000000; stroke-width: 1.000000; stroke-linejoin: round; stroke-linecap: square;  opacity: 1.000000"  d="M529.645834 230.469196L536.005194 232.004139"/>
</g>
<g id="text17">
<g style="fill: #000000; opacity: 1.000000" transform="translate(550.554633,239.134347)scale(0.120000)">
<use xlink:href="#c_a0416418d96557a09b8c1332d34883ba"/>
</g>
</g>
</g>
<g id="xtick15">
<g id="line2d18">
<path style="fill: none; stroke: #000000; stroke-width: 1.000000; stroke-linejoin: round; stroke-linecap: square;  opacity: 1.000000"  d="M531.494871 185.828538L537.908530 187.310239"/>
</g>
<g id="text18">
<g style="fill: #000000; opacity: 1.000000" transform="translate(552.950212,194.496633)scale(0.120000)">
<use xlink:href="#c_1260a2df50f305f3db244e29828f968e"/>
</g>
</g>
</g>
<g id="xtick16">
<g id="line2d19">
<path style="fill: none; stroke: #000000; stroke-width: 1.000000; stroke-linejoin: round; stroke-linecap: square;  opacity: 1.000000"  d="M533.374102 140.458924L539.842991 141.885432"/>
</g>
<g id="text19">
<g style="fill: #000000; opacity: 1.000000" transform="translate(554.847915,149.286321)scale(0.120000)">
<use xlink:href="#c_cc8d6d580d1b10c8632f7a42cd53db8a"/>
</g>
</g>
</g>
</g>
<g id="axes1">
<g id="Line3DCollection4">
<defs>
<path id="coll3_0_c76c562efed9a27fba1071c50795caf3" d="M72.430375 -324.641401L109.553571 -334.397325L145.887422 -340.309693
L181.261277 -348.687436L215.782551 -357.818773L249.394690 -378.979949
L282.390462 -396.621973"/>
<path id="coll3_1_882b58ca608a77c03c7fab3818be2526" d="M112.613627 -298.528217L149.882003 -294.922656L185.931769 -298.421103
L220.866925 -314.160387L255.118184 -321.650693L288.509548 -346.713765
L321.324405 -373.955168"/>
<path id="coll3_2_b811cfd96c03cedd2c15023f61a43da4" d="M154.144734 -243.167939L191.132638 -227.619686L226.476317 -243.199840
L261.121662 -246.976181L294.845977 -272.586943L327.899939 -283.626575
L360.609958 -332.792686"/>
<path id="coll3_3_6c5420bfd0a05e3efb8ab3bf794e03af" d="M195.989990 -179.962366L232.175233 -174.734955L267.212863 -179.219978
L301.329730 -190.829777L334.656673 -203.531113L367.443319 -233.893035
L400.161477 -289.713388"/>
<path id="coll3_4_eb0fe4e97ac7cc0bb4657420d3772c6a" d="M238.080678 -100.201817L273.455976 -112.286544L307.971599 -123.669409
L341.674990 -137.610021L374.791673 -164.869350L407.291292 -190.116529
L440.010439 -247.252579"/>
<path id="coll3_5_690a98d3bd66a1b64497e0e5fd0c3e87" d="M279.812857 -59.567939L314.843725 -72.806250L349.137642 -98.192089
L382.616025 -113.137290L415.360757 -129.145800L447.692070 -156.291020
L480.298581 -209.047363"/>
<path id="coll3_6_f91b9f6b8c5f0fbf596ae4307e199d79" d="M322.044123 -42.283360L356.901044 -58.163520L390.949797 -74.494579
L424.218177 -90.583552L456.906374 -112.394612L489.333239 -145.380966
L522.428446 -207.336246"/>
<path id="coll3_7_f91b9f6b8c5f0fbf596ae4307e199d79" d="M322.044123 -42.283360L356.901044 -58.163520L390.949797 -74.494579
L424.218177 -90.583552L456.906374 -112.394612L489.333239 -145.380966
L522.428446 -207.336246"/>
<path id="coll3_8_f21dff7a9c797881e685ef449f1cfd5c" d="M72.430375 -324.641401L112.613627 -298.528217L154.144734 -243.167939
L195.989990 -179.962366L238.080678 -100.201817L279.812857 -59.567939
L322.044123 -42.283360"/>
<path id="coll3_9_5c384ae41faf63246acd2827b198d4e1" d="M109.553571 -334.397325L149.882003 -294.922656L191.132638 -227.619686
L232.175233 -174.734955L273.455976 -112.286544L314.843725 -72.806250
L356.901044 -58.163520"/>
<path id="coll3_a_a0600e22a4be38ff5fd592ad3722e28f" d="M145.887422 -340.309693L185.931769 -298.421103L226.476317 -243.199840
L267.212863 -179.219978L307.971599 -123.669409L349.137642 -98.192089
L390.949797 -74.494579"/>
<path id="coll3_b_263a039c6f0ff2ea172efffb81d973fa" d="M181.261277 -348.687436L220.866925 -314.160387L261.121662 -246.976181
L301.329730 -190.829777L341.674990 -137.610021L382.616025 -113.137290
L424.218177 -90.583552"/>
<path id="coll3_c_cf1d71a9d0d39d83da60c47ef926cdb5" d="M215.782551 -357.818773L255.118184 -321.650693L294.845977 -272.586943
L334.656673 -203.531113L374.791673 -164.869350L415.360757 -129.145800
L456.906374 -112.394612"/>
<path id="coll3_d_fd67e66bf3267388a3ab92cefd7e09a3" d="M249.394690 -378.979949L288.509548 -346.713765L327.899939 -283.626575
L367.443319 -233.893035L407.291292 -190.116529L447.692070 -156.291020
L489.333239 -145.380966"/>
<path id="coll3_e_702db7eaff2a82c67f8d84951a0c0734" d="M282.390462 -396.621973L321.324405 -373.955168L360.609958 -332.792686
L400.161477 -289.713388L440.010439 -247.252579L480.298581 -209.047363
L522.428446 -207.336246"/>
<path id="coll3_f_702db7eaff2a82c67f8d84951a0c0734" d="M282.390462 -396.621973L321.324405 -373.955168L360.609958 -332.792686
L400.161477 -289.713388L440.010439 -247.252579L480.298581 -209.047363
L522.428446 -207.336246"/>
</defs>
<defs>
  <clipPath id="p7458867926d2dfc2fafcfa7d32fa4125">
<rect x="0.000000" y="0.000000" width="586.800000" height="442.800000"/>
  </clipPath>
</defs><g clip-path="url(#p7458867926d2dfc2fafcfa7d32fa4125)"><use style="fill: none; stroke: #0000ff; stroke-width: 1.000000; stroke-linejoin: round; stroke-linecap: butt;  opacity: 1.000000" xlink:href="#coll3_0_c76c562efed9a27fba1071c50795caf3" x="0.000000" y="442.800000"/>
</g><g clip-path="url(#p7458867926d2dfc2fafcfa7d32fa4125)"><use style="fill: none; stroke: #0000ff; stroke-width: 1.000000; stroke-linejoin: round; stroke-linecap: butt;  opacity: 1.000000" xlink:href="#coll3_1_882b58ca608a77c03c7fab3818be2526" x="0.000000" y="442.800000"/>
</g><g clip-path="url(#p7458867926d2dfc2fafcfa7d32fa4125)"><use style="fill: none; stroke: #0000ff; stroke-width: 1.000000; stroke-linejoin: round; stroke-linecap: butt;  opacity: 1.000000" xlink:href="#coll3_2_b811cfd96c03cedd2c15023f61a43da4" x="0.000000" y="442.800000"/>
</g><g clip-path="url(#p7458867926d2dfc2fafcfa7d32fa4125)"><use style="fill: none; stroke: #0000ff; stroke-width: 1.000000; stroke-linejoin: round; stroke-linecap: butt;  opacity: 1.000000" xlink:href="#coll3_3_6c5420bfd0a05e3efb8ab3bf794e03af" x="0.000000" y="442.800000"/>
</g><g clip-path="url(#p7458867926d2dfc2fafcfa7d32fa4125)"><use style="fill: none; stroke: #0000ff; stroke-width: 1.000000; stroke-linejoin: round; stroke-linecap: butt;  opacity: 1.000000" xlink:href="#coll3_4_eb0fe4e97ac7cc0bb4657420d3772c6a" x="0.000000" y="442.800000"/>
</g><g clip-path="url(#p7458867926d2dfc2fafcfa7d32fa4125)"><use style="fill: none; stroke: #0000ff; stroke-width: 1.000000; stroke-linejoin: round; stroke-linecap: butt;  opacity: 1.000000" xlink:href="#coll3_5_690a98d3bd66a1b64497e0e5fd0c3e87" x="0.000000" y="442.800000"/>
</g><g clip-path="url(#p7458867926d2dfc2fafcfa7d32fa4125)"><use style="fill: none; stroke: #0000ff; stroke-width: 1.000000; stroke-linejoin: round; stroke-linecap: butt;  opacity: 1.000000" xlink:href="#coll3_6_f91b9f6b8c5f0fbf596ae4307e199d79" x="0.000000" y="442.800000"/>
</g><g clip-path="url(#p7458867926d2dfc2fafcfa7d32fa4125)"><use style="fill: none; stroke: #0000ff; stroke-width: 1.000000; stroke-linejoin: round; stroke-linecap: butt;  opacity: 1.000000" xlink:href="#coll3_7_f91b9f6b8c5f0fbf596ae4307e199d79" x="0.000000" y="442.800000"/>
</g><g clip-path="url(#p7458867926d2dfc2fafcfa7d32fa4125)"><use style="fill: none; stroke: #0000ff; stroke-width: 1.000000; stroke-linejoin: round; stroke-linecap: butt;  opacity: 1.000000" xlink:href="#coll3_8_f21dff7a9c797881e685ef449f1cfd5c" x="0.000000" y="442.800000"/>
</g><g clip-path="url(#p7458867926d2dfc2fafcfa7d32fa4125)"><use style="fill: none; stroke: #0000ff; stroke-width: 1.000000; stroke-linejoin: round; stroke-linecap: butt;  opacity: 1.000000" xlink:href="#coll3_9_5c384ae41faf63246acd2827b198d4e1" x="0.000000" y="442.800000"/>
</g><g clip-path="url(#p7458867926d2dfc2fafcfa7d32fa4125)"><use style="fill: none; stroke: #0000ff; stroke-width: 1.000000; stroke-linejoin: round; stroke-linecap: butt;  opacity: 1.000000" xlink:href="#coll3_a_a0600e22a4be38ff5fd592ad3722e28f" x="0.000000" y="442.800000"/>
</g><g clip-path="url(#p7458867926d2dfc2fafcfa7d32fa4125)"><use style="fill: none; stroke: #0000ff; stroke-width: 1.000000; stroke-linejoin: round; stroke-linecap: butt;  opacity: 1.000000" xlink:href="#coll3_b_263a039c6f0ff2ea172efffb81d973fa" x="0.000000" y="442.800000"/>
</g><g clip-path="url(#p7458867926d2dfc2fafcfa7d32fa4125)"><use style="fill: none; stroke: #0000ff; stroke-width: 1.000000; stroke-linejoin: round; stroke-linecap: butt;  opacity: 1.000000" xlink:href="#coll3_c_cf1d71a9d0d39d83da60c47ef926cdb5" x="0.000000" y="442.800000"/>
</g><g clip-path="url(#p7458867926d2dfc2fafcfa7d32fa4125)"><use style="fill: none; stroke: #0000ff; stroke-width: 1.000000; stroke-linejoin: round; stroke-linecap: butt;  opacity: 1.000000" xlink:href="#coll3_d_fd67e66bf3267388a3ab92cefd7e09a3" x="0.000000" y="442.800000"/>
</g><g clip-path="url(#p7458867926d2dfc2fafcfa7d32fa4125)"><use style="fill: none; stroke: #0000ff; stroke-width: 1.000000; stroke-linejoin: round; stroke-linecap: butt;  opacity: 1.000000" xlink:href="#coll3_e_702db7eaff2a82c67f8d84951a0c0734" x="0.000000" y="442.800000"/>
</g><g clip-path="url(#p7458867926d2dfc2fafcfa7d32fa4125)"><use style="fill: none; stroke: #0000ff; stroke-width: 1.000000; stroke-linejoin: round; stroke-linecap: butt;  opacity: 1.000000" xlink:href="#coll3_f_702db7eaff2a82c67f8d84951a0c0734" x="0.000000" y="442.800000"/>
</g></g>
<g id="matplotlib.axis1">
</g>
<g id="matplotlib.axis2">
</g>
</g>
</g>
</svg>
