<?xml version="1.0" encoding="UTF-8" standalone="no"?>
<!-- Created with Inkscape (http://www.inkscape.org/) -->

<svg
   xmlns:ns0="http://www.iki.fi/pav/software/textext/"
   xmlns:dc="http://purl.org/dc/elements/1.1/"
   xmlns:cc="http://creativecommons.org/ns#"
   xmlns:rdf="http://www.w3.org/1999/02/22-rdf-syntax-ns#"
   xmlns:svg="http://www.w3.org/2000/svg"
   xmlns="http://www.w3.org/2000/svg"
   xmlns:sodipodi="http://sodipodi.sourceforge.net/DTD/sodipodi-0.dtd"
   xmlns:inkscape="http://www.inkscape.org/namespaces/inkscape"
   width="178.11967"
   height="132.45509"
   id="svg3916"
   version="1.1"
   inkscape:version="0.48.4 r9939"
   sodipodi:docname="gp_tree.svg">
  <sodipodi:namedview
     id="base"
     pagecolor="#ffffff"
     bordercolor="#666666"
     borderopacity="1.0"
     inkscape:pageopacity="0.0"
     inkscape:pageshadow="2"
     inkscape:zoom="2.8"
     inkscape:cx="59.183649"
     inkscape:cy="52.07509"
     inkscape:document-units="px"
     inkscape:current-layer="layer1"
     showgrid="false"
     inkscape:window-width="1026"
     inkscape:window-height="767"
     inkscape:window-x="244"
     inkscape:window-y="63"
     inkscape:window-maximized="0"
     fit-margin-top="0"
     fit-margin-left="0"
     fit-margin-right="0"
     fit-margin-bottom="0">
    <inkscape:grid
       type="xygrid"
       id="grid4217"
       empspacing="5"
       visible="true"
       enabled="true"
       snapvisiblegridlinesonly="true"
       originx="-236.29231px"
       originy="-512.53081px" />
  </sodipodi:namedview>
  <defs
     id="defs3918">
    <marker
       inkscape:stockid="Arrow2Lend"
       orient="auto"
       refY="0"
       refX="0"
       id="Arrow2Lend"
       style="overflow:visible">
      <path
         id="path5017"
         style="font-size:12px;fill-rule:evenodd;stroke-width:0.625;stroke-linejoin:round"
         d="M 8.7185878,4.0337352 -2.2072895,0.01601326 8.7185884,-4.0017078 c -1.7454984,2.3720609 -1.7354408,5.6174519 -6e-7,8.035443 z"
         transform="matrix(-1.1,0,0,-1.1,-1.1,0)"
         inkscape:connector-curvature="0" />
    </marker>
    <marker
       inkscape:stockid="Arrow2Lstart"
       orient="auto"
       refY="0"
       refX="0"
       id="Arrow2Lstart"
       style="overflow:visible">
      <path
         id="path5014"
         style="font-size:12px;fill-rule:evenodd;stroke-width:0.625;stroke-linejoin:round"
         d="M 8.7185878,4.0337352 -2.2072895,0.01601326 8.7185884,-4.0017078 c -1.7454984,2.3720609 -1.7354408,5.6174519 -6e-7,8.035443 z"
         transform="matrix(1.1,0,0,1.1,1.1,0)"
         inkscape:connector-curvature="0" />
    </marker>
    <inkscape:perspective
       id="perspective3924"
       inkscape:persp3d-origin="372.04724 : 350.78739 : 1"
       inkscape:vp_z="744.09448 : 526.18109 : 1"
       inkscape:vp_y="0 : 1000 : 0"
       inkscape:vp_x="0 : 526.18109 : 1"
       sodipodi:type="inkscape:persp3d" />
    <inkscape:perspective
       sodipodi:type="inkscape:persp3d"
       inkscape:vp_x="0 : 0.5 : 1"
       inkscape:vp_y="0 : 1000 : 0"
       inkscape:vp_z="1 : 0.5 : 1"
       inkscape:persp3d-origin="0.5 : 0.33333333 : 1"
       id="perspective3911" />
    <inkscape:perspective
       id="perspective4001"
       inkscape:persp3d-origin="0.5 : 0.33333333 : 1"
       inkscape:vp_z="1 : 0.5 : 1"
       inkscape:vp_y="0 : 1000 : 0"
       inkscape:vp_x="0 : 0.5 : 1"
       sodipodi:type="inkscape:persp3d" />
    <inkscape:perspective
       id="perspective4001-7"
       inkscape:persp3d-origin="0.5 : 0.33333333 : 1"
       inkscape:vp_z="1 : 0.5 : 1"
       inkscape:vp_y="0 : 1000 : 0"
       inkscape:vp_x="0 : 0.5 : 1"
       sodipodi:type="inkscape:persp3d" />
    <inkscape:perspective
       id="perspective4001-0"
       inkscape:persp3d-origin="0.5 : 0.33333333 : 1"
       inkscape:vp_z="1 : 0.5 : 1"
       inkscape:vp_y="0 : 1000 : 0"
       inkscape:vp_x="0 : 0.5 : 1"
       sodipodi:type="inkscape:persp3d" />
    <inkscape:perspective
       id="perspective4001-4"
       inkscape:persp3d-origin="0.5 : 0.33333333 : 1"
       inkscape:vp_z="1 : 0.5 : 1"
       inkscape:vp_y="0 : 1000 : 0"
       inkscape:vp_x="0 : 0.5 : 1"
       sodipodi:type="inkscape:persp3d" />
    <inkscape:perspective
       id="perspective4001-8"
       inkscape:persp3d-origin="0.5 : 0.33333333 : 1"
       inkscape:vp_z="1 : 0.5 : 1"
       inkscape:vp_y="0 : 1000 : 0"
       inkscape:vp_x="0 : 0.5 : 1"
       sodipodi:type="inkscape:persp3d" />
    <inkscape:perspective
       id="perspective4001-45"
       inkscape:persp3d-origin="0.5 : 0.33333333 : 1"
       inkscape:vp_z="1 : 0.5 : 1"
       inkscape:vp_y="0 : 1000 : 0"
       inkscape:vp_x="0 : 0.5 : 1"
       sodipodi:type="inkscape:persp3d" />
    <inkscape:perspective
       id="perspective4001-1"
       inkscape:persp3d-origin="0.5 : 0.33333333 : 1"
       inkscape:vp_z="1 : 0.5 : 1"
       inkscape:vp_y="0 : 1000 : 0"
       inkscape:vp_x="0 : 0.5 : 1"
       sodipodi:type="inkscape:persp3d" />
    <inkscape:perspective
       id="perspective4001-11"
       inkscape:persp3d-origin="0.5 : 0.33333333 : 1"
       inkscape:vp_z="1 : 0.5 : 1"
       inkscape:vp_y="0 : 1000 : 0"
       inkscape:vp_x="0 : 0.5 : 1"
       sodipodi:type="inkscape:persp3d" />
    <inkscape:perspective
       id="perspective4001-76"
       inkscape:persp3d-origin="0.5 : 0.33333333 : 1"
       inkscape:vp_z="1 : 0.5 : 1"
       inkscape:vp_y="0 : 1000 : 0"
       inkscape:vp_x="0 : 0.5 : 1"
       sodipodi:type="inkscape:persp3d" />
    <inkscape:perspective
       id="perspective4001-2"
       inkscape:persp3d-origin="0.5 : 0.33333333 : 1"
       inkscape:vp_z="1 : 0.5 : 1"
       inkscape:vp_y="0 : 1000 : 0"
       inkscape:vp_x="0 : 0.5 : 1"
       sodipodi:type="inkscape:persp3d" />
    <inkscape:perspective
       id="perspective4160"
       inkscape:persp3d-origin="0.5 : 0.33333333 : 1"
       inkscape:vp_z="1 : 0.5 : 1"
       inkscape:vp_y="0 : 1000 : 0"
       inkscape:vp_x="0 : 0.5 : 1"
       sodipodi:type="inkscape:persp3d" />
    <inkscape:perspective
       id="perspective5821"
       inkscape:persp3d-origin="0.5 : 0.33333333 : 1"
       inkscape:vp_z="1 : 0.5 : 1"
       inkscape:vp_y="0 : 1000 : 0"
       inkscape:vp_x="0 : 0.5 : 1"
       sodipodi:type="inkscape:persp3d" />
    <marker
       inkscape:stockid="Arrow2Lend"
       orient="auto"
       refY="0"
       refX="0"
       id="Arrow2Lend-2"
       style="overflow:visible">
      <path
         id="path5017-1"
         style="font-size:12px;fill-rule:evenodd;stroke-width:0.625;stroke-linejoin:round"
         d="M 8.7185878,4.0337352 -2.2072895,0.01601326 8.7185884,-4.0017078 c -1.7454984,2.3720609 -1.7354408,5.6174519 -6e-7,8.035443 z"
         transform="matrix(-1.1,0,0,-1.1,-1.1,0)"
         inkscape:connector-curvature="0" />
    </marker>
    <inkscape:perspective
       id="perspective5849"
       inkscape:persp3d-origin="0.5 : 0.33333333 : 1"
       inkscape:vp_z="1 : 0.5 : 1"
       inkscape:vp_y="0 : 1000 : 0"
       inkscape:vp_x="0 : 0.5 : 1"
       sodipodi:type="inkscape:persp3d" />
    <marker
       inkscape:stockid="Arrow2Lend"
       orient="auto"
       refY="0"
       refX="0"
       id="Arrow2Lend-8"
       style="overflow:visible">
      <path
         id="path5017-5"
         style="font-size:12px;fill-rule:evenodd;stroke-width:0.625;stroke-linejoin:round"
         d="M 8.7185878,4.0337352 -2.2072895,0.01601326 8.7185884,-4.0017078 c -1.7454984,2.3720609 -1.7354408,5.6174519 -6e-7,8.035443 z"
         transform="matrix(-1.1,0,0,-1.1,-1.1,0)"
         inkscape:connector-curvature="0" />
    </marker>
    <inkscape:perspective
       id="perspective5849-6"
       inkscape:persp3d-origin="0.5 : 0.33333333 : 1"
       inkscape:vp_z="1 : 0.5 : 1"
       inkscape:vp_y="0 : 1000 : 0"
       inkscape:vp_x="0 : 0.5 : 1"
       sodipodi:type="inkscape:persp3d" />
    <marker
       inkscape:stockid="Arrow2Lend"
       orient="auto"
       refY="0"
       refX="0"
       id="Arrow2Lend-1"
       style="overflow:visible">
      <path
         id="path5017-8"
         style="font-size:12px;fill-rule:evenodd;stroke-width:0.625;stroke-linejoin:round"
         d="M 8.7185878,4.0337352 -2.2072895,0.01601326 8.7185884,-4.0017078 c -1.7454984,2.3720609 -1.7354408,5.6174519 -6e-7,8.035443 z"
         transform="matrix(-1.1,0,0,-1.1,-1.1,0)"
         inkscape:connector-curvature="0" />
    </marker>
    <inkscape:perspective
       id="perspective5849-2"
       inkscape:persp3d-origin="0.5 : 0.33333333 : 1"
       inkscape:vp_z="1 : 0.5 : 1"
       inkscape:vp_y="0 : 1000 : 0"
       inkscape:vp_x="0 : 0.5 : 1"
       sodipodi:type="inkscape:persp3d" />
    <marker
       inkscape:stockid="Arrow2Lend"
       orient="auto"
       refY="0"
       refX="0"
       id="Arrow2Lend-7"
       style="overflow:visible">
      <path
         id="path5017-9"
         style="font-size:12px;fill-rule:evenodd;stroke-width:0.625;stroke-linejoin:round"
         d="M 8.7185878,4.0337352 -2.2072895,0.01601326 8.7185884,-4.0017078 c -1.7454984,2.3720609 -1.7354408,5.6174519 -6e-7,8.035443 z"
         transform="matrix(-1.1,0,0,-1.1,-1.1,0)"
         inkscape:connector-curvature="0" />
    </marker>
    <inkscape:perspective
       id="perspective5849-4"
       inkscape:persp3d-origin="0.5 : 0.33333333 : 1"
       inkscape:vp_z="1 : 0.5 : 1"
       inkscape:vp_y="0 : 1000 : 0"
       inkscape:vp_x="0 : 0.5 : 1"
       sodipodi:type="inkscape:persp3d" />
    <marker
       inkscape:stockid="Arrow2Lend"
       orient="auto"
       refY="0"
       refX="0"
       id="Arrow2Lend-3"
       style="overflow:visible">
      <path
         id="path5017-12"
         style="font-size:12px;fill-rule:evenodd;stroke-width:0.625;stroke-linejoin:round"
         d="M 8.7185878,4.0337352 -2.2072895,0.01601326 8.7185884,-4.0017078 c -1.7454984,2.3720609 -1.7354408,5.6174519 -6e-7,8.035443 z"
         transform="matrix(-1.1,0,0,-1.1,-1.1,0)"
         inkscape:connector-curvature="0" />
    </marker>
    <inkscape:perspective
       id="perspective5849-3"
       inkscape:persp3d-origin="0.5 : 0.33333333 : 1"
       inkscape:vp_z="1 : 0.5 : 1"
       inkscape:vp_y="0 : 1000 : 0"
       inkscape:vp_x="0 : 0.5 : 1"
       sodipodi:type="inkscape:persp3d" />
    <marker
       inkscape:stockid="Arrow2Lend"
       orient="auto"
       refY="0"
       refX="0"
       id="Arrow2Lend-4"
       style="overflow:visible">
      <path
         id="path5017-11"
         style="font-size:12px;fill-rule:evenodd;stroke-width:0.625;stroke-linejoin:round"
         d="M 8.7185878,4.0337352 -2.2072895,0.01601326 8.7185884,-4.0017078 c -1.7454984,2.3720609 -1.7354408,5.6174519 -6e-7,8.035443 z"
         transform="matrix(-1.1,0,0,-1.1,-1.1,0)"
         inkscape:connector-curvature="0" />
    </marker>
    <inkscape:perspective
       id="perspective5849-7"
       inkscape:persp3d-origin="0.5 : 0.33333333 : 1"
       inkscape:vp_z="1 : 0.5 : 1"
       inkscape:vp_y="0 : 1000 : 0"
       inkscape:vp_x="0 : 0.5 : 1"
       sodipodi:type="inkscape:persp3d" />
    <marker
       inkscape:stockid="Arrow2Lend"
       orient="auto"
       refY="0"
       refX="0"
       id="Arrow2Lend-42"
       style="overflow:visible">
      <path
         id="path5017-7"
         style="font-size:12px;fill-rule:evenodd;stroke-width:0.625;stroke-linejoin:round"
         d="M 8.7185878,4.0337352 -2.2072895,0.01601326 8.7185884,-4.0017078 c -1.7454984,2.3720609 -1.7354408,5.6174519 -6e-7,8.035443 z"
         transform="matrix(-1.1,0,0,-1.1,-1.1,0)"
         inkscape:connector-curvature="0" />
    </marker>
    <inkscape:perspective
       id="perspective5849-31"
       inkscape:persp3d-origin="0.5 : 0.33333333 : 1"
       inkscape:vp_z="1 : 0.5 : 1"
       inkscape:vp_y="0 : 1000 : 0"
       inkscape:vp_x="0 : 0.5 : 1"
       sodipodi:type="inkscape:persp3d" />
    <marker
       inkscape:stockid="Arrow2Lend"
       orient="auto"
       refY="0"
       refX="0"
       id="Arrow2Lend-9"
       style="overflow:visible">
      <path
         id="path5017-86"
         style="font-size:12px;fill-rule:evenodd;stroke-width:0.625;stroke-linejoin:round"
         d="M 8.7185878,4.0337352 -2.2072895,0.01601326 8.7185884,-4.0017078 c -1.7454984,2.3720609 -1.7354408,5.6174519 -6e-7,8.035443 z"
         transform="matrix(-1.1,0,0,-1.1,-1.1,0)"
         inkscape:connector-curvature="0" />
    </marker>
    <inkscape:perspective
       id="perspective5849-28"
       inkscape:persp3d-origin="0.5 : 0.33333333 : 1"
       inkscape:vp_z="1 : 0.5 : 1"
       inkscape:vp_y="0 : 1000 : 0"
       inkscape:vp_x="0 : 0.5 : 1"
       sodipodi:type="inkscape:persp3d" />
    <marker
       inkscape:stockid="Arrow2Lend"
       orient="auto"
       refY="0"
       refX="0"
       id="Arrow2Lend-6"
       style="overflow:visible">
      <path
         id="path5017-0"
         style="font-size:12px;fill-rule:evenodd;stroke-width:0.625;stroke-linejoin:round"
         d="M 8.7185878,4.0337352 -2.2072895,0.01601326 8.7185884,-4.0017078 c -1.7454984,2.3720609 -1.7354408,5.6174519 -6e-7,8.035443 z"
         transform="matrix(-1.1,0,0,-1.1,-1.1,0)"
         inkscape:connector-curvature="0" />
    </marker>
  </defs>
  <metadata
     id="metadata3921">
    <rdf:RDF>
      <cc:Work
         rdf:about="">
        <dc:format>image/svg+xml</dc:format>
        <dc:type
           rdf:resource="http://purl.org/dc/dcmitype/StillImage" />
        <dc:title />
      </cc:Work>
    </rdf:RDF>
  </metadata>
  <g
     id="layer1"
     inkscape:groupmode="layer"
     inkscape:label="Layer 1"
     transform="translate(-236.29231,-407.37628)">
    <g
       ns0:preamble=""
       ns0:text="$(1-x/3)\\cdot (y^2+1)$"
       word-spacing="normal"
       letter-spacing="normal"
       font-size-adjust="none"
       font-stretch="normal"
       font-weight="normal"
       font-variant="normal"
       font-style="normal"
       stroke-miterlimit="10.433"
       xml:space="preserve"
       transform="matrix(1.5843027,0,0,-1.5843027,-97.278896,1540.7389)"
       id="content"
       style="font-style:normal;font-variant:normal;font-weight:normal;font-stretch:normal;letter-spacing:normal;word-spacing:normal;text-anchor:start;fill:none;stroke:#000000;stroke-linecap:butt;stroke-linejoin:miter;stroke-miterlimit:10.43299961;stroke-opacity:1;stroke-dasharray:none;stroke-dashoffset:0"><path
         id="path3944"
         d="m 226.73,704.73 0,0.01 0,0 0,0.01 0,0 0,0 0,0 0,0.01 -0.01,0 0,0.01 0,0 0,0 0,0.01 -0.01,0 0,0.01 -0.01,0 0,0.01 -0.01,0.01 0,0 0,0.01 -0.01,0 0,0.01 0,0 -0.01,0.01 0,0 -0.01,0 0,0.01 -0.01,0 0,0.01 -0.01,0 0,0.01 -0.01,0.01 0,0 -0.01,0.01 0,0 -0.01,0.01 -0.01,0.01 0,0 -0.01,0.01 -0.01,0.01 0,0.01 -0.01,0 -0.01,0.01 c -1.24,1.26 -1.56,3.14 -1.56,4.66 0,1.74 0.38,3.47 1.6,4.72 0.13,0.12 0.13,0.14 0.13,0.16 0,0.08 -0.04,0.1 -0.1,0.1 -0.1,0 -1,-0.67 -1.58,-1.94 -0.51,-1.09 -0.63,-2.2 -0.63,-3.04 0,-0.77 0.11,-1.98 0.66,-3.1 0.59,-1.23 1.45,-1.88 1.55,-1.88 0.06,0 0.1,0.03 0.1,0.1 z"
         style="fill:#000000;stroke-width:0"
         inkscape:connector-curvature="0" /><path
         id="path3946"
         d="m 230.24,713.5 0,0.01 0,0.01 0,0.01 0,0.01 0,0.01 0,0.01 0,0.01 0,0.01 0,0.01 0,0.01 0,0 0,0.01 0,0.01 0,0.01 0,0 0,0.01 -0.01,0.01 0,0 0,0.01 0,0.02 0,0.01 -0.01,0.01 0,0 0,0.01 -0.01,0.01 -0.01,0 0,0.01 -0.01,0 -0.01,0.01 -0.01,0 0,0 -0.01,0.01 0,0 -0.01,0 0,0 -0.01,0 0,0 -0.01,0 -0.01,0 0,0 -0.01,0.01 -0.01,0 -0.01,0 0,0 -0.01,0 -0.01,0 -0.01,0 -0.01,0 -0.01,0 -0.01,0 -0.01,0 -0.01,0 c -0.62,-0.64 -1.5,-0.64 -1.81,-0.64 v -0.31 c 0.2,0 0.78,0 1.3,0.26 v -5.16 c 0,-0.36 -0.03,-0.48 -0.93,-0.48 h -0.31 v -0.31 c 0.34,0.03 1.21,0.03 1.61,0.03 0.4,0 1.27,0 1.61,-0.03 v 0.31 h -0.31 c -0.9,0 -0.93,0.11 -0.93,0.48 z"
         style="fill:#000000;stroke-width:0"
         inkscape:connector-curvature="0" /><path
         id="path3948"
         d="m 241.07,709.41 0.03,0 0.03,0 0.03,0.01 0.02,0 0.01,0 0.02,0 0.01,0 0.02,0 0.01,0 0.02,0.01 0.01,0 0.01,0 0.02,0.01 0.01,0 0.01,0.01 0.01,0.01 0.01,0 0.01,0.01 0.01,0.01 0.01,0.01 0.01,0.01 0,0 0,0.01 0.01,0 0,0.01 0,0.01 0,0 0.01,0.01 0,0.01 0,0 0,0.01 0,0.01 0,0.01 0.01,0.01 0,0 0,0.01 0,0.01 c 0,0.2 -0.18,0.2 -0.35,0.2 h -5.39 c -0.17,0 -0.35,0 -0.35,-0.2 0,-0.2 0.18,-0.2 0.35,-0.2 z"
         style="fill:#000000;stroke-width:0"
         inkscape:connector-curvature="0" /><path
         id="path3950"
         d="m 247.79,710.13 0.01,0.03 0,0.03 0.01,0.03 0.01,0.04 0.01,0.03 0.01,0.05 0.02,0.04 0.01,0.04 0.02,0.05 0.01,0.05 0.02,0.05 0.02,0.05 0.03,0.05 0.02,0.05 0.03,0.05 0.02,0.05 0.03,0.04 0.03,0.05 0.04,0.05 0.03,0.04 0.04,0.05 0.04,0.04 0.04,0.03 0.05,0.04 0.04,0.03 0.05,0.03 0.03,0.01 0.02,0.02 0.03,0.01 0.03,0.01 0.02,0.01 0.03,0 0.03,0.01 0.03,0.01 0.03,0 0.03,0 0.03,0.01 0.04,0 c 0.05,0 0.29,0 0.49,-0.13 -0.28,-0.05 -0.47,-0.3 -0.47,-0.54 0,-0.16 0.11,-0.35 0.38,-0.35 0.21,0 0.53,0.18 0.53,0.58 0,0.52 -0.58,0.66 -0.92,0.66 -0.58,0 -0.93,-0.53 -1.05,-0.76 -0.25,0.66 -0.79,0.76 -1.08,0.76 -1.03,0 -1.6,-1.29 -1.6,-1.54 0,-0.1 0.1,-0.1 0.12,-0.1 0.08,0 0.11,0.02 0.13,0.11 0.34,1.06 1,1.31 1.33,1.31 0.19,0 0.54,-0.09 0.54,-0.67 0,-0.31 -0.17,-0.98 -0.54,-2.37 -0.15,-0.62 -0.5,-1.04 -0.94,-1.04 -0.06,0 -0.29,0 -0.5,0.13 0.25,0.05 0.47,0.26 0.47,0.54 0,0.27 -0.22,0.35 -0.37,0.35 -0.3,0 -0.55,-0.26 -0.55,-0.58 0,-0.46 0.5,-0.66 0.94,-0.66 0.66,0 1.01,0.7 1.04,0.76 0.12,-0.37 0.48,-0.76 1.08,-0.76 1.03,0 1.59,1.29 1.59,1.54 0,0.1 -0.09,0.1 -0.12,0.1 -0.08,0 -0.1,-0.04 -0.13,-0.11 -0.32,-1.07 -1,-1.31 -1.32,-1.31 -0.39,0 -0.55,0.32 -0.55,0.66 0,0.22 0.06,0.44 0.17,0.88 z"
         style="fill:#000000;stroke-width:0"
         inkscape:connector-curvature="0" /><path
         id="path3952"
         d="m 254.53,714.22 0,0 0,0.01 0.01,0 0,0.01 0,0 0,0.01 0.01,0.01 0,0.01 0,0.01 0,0.01 0.01,0.01 0,0.01 0,0 0,0.01 0.01,0.01 0,0 0,0.01 0,0 0,0.01 0,0.01 0,0 0,0 0.01,0.01 0,0 0,0.01 0,0 0,0 0,0 0,0.01 0,0 0,0 0,0 0,0 0,0 0,0.01 c 0,0.11 -0.09,0.19 -0.2,0.19 -0.07,0 -0.14,-0.02 -0.17,-0.08 l -3.46,-9.5 c -0.05,-0.13 -0.05,-0.17 -0.05,-0.18 0,-0.11 0.09,-0.2 0.2,-0.2 0.13,0 0.16,0.07 0.22,0.24 z"
         style="fill:#000000;stroke-width:0"
         inkscape:connector-curvature="0" /><path
         id="path3954"
         d="m 258.03,710.63 0.08,0.03 0.07,0.02 0.08,0.04 0.07,0.03 0.07,0.04 0.06,0.03 0.07,0.04 0.06,0.05 0.07,0.04 0.06,0.05 0.06,0.04 0.05,0.05 0.06,0.06 0.05,0.05 0.05,0.06 0.05,0.05 0.04,0.06 0.04,0.06 0.04,0.06 0.04,0.06 0.04,0.07 0.03,0.06 0.03,0.07 0.02,0.06 0.03,0.07 0.02,0.07 0.02,0.07 0.01,0.07 0.01,0.07 0.01,0.08 0,0.07 0.01,0.07 c 0,0.82 -0.88,1.38 -1.84,1.38 -1,0 -1.76,-0.6 -1.76,-1.36 0,-0.33 0.22,-0.51 0.51,-0.51 0.31,0 0.51,0.21 0.51,0.5 0,0.5 -0.47,0.5 -0.62,0.5 0.31,0.49 0.97,0.62 1.32,0.62 0.41,0 0.96,-0.22 0.96,-1.12 0,-0.12 -0.02,-0.69 -0.28,-1.13 -0.3,-0.48 -0.64,-0.51 -0.89,-0.52 -0.07,-0.01 -0.32,-0.03 -0.38,-0.03 -0.08,-0.01 -0.15,-0.02 -0.15,-0.12 0,-0.11 0.07,-0.11 0.24,-0.11 h 0.43 c 0.82,0 1.19,-0.68 1.19,-1.65 0,-1.36 -0.69,-1.65 -1.13,-1.65 -0.43,0 -1.17,0.17 -1.52,0.76 0.35,-0.05 0.66,0.17 0.66,0.55 0,0.36 -0.27,0.55 -0.56,0.55 -0.24,0 -0.56,-0.13 -0.56,-0.57 0,-0.91 0.93,-1.57 2.01,-1.57 1.22,0 2.13,0.91 2.13,1.93 0,0.81 -0.63,1.59 -1.67,1.8 z"
         style="fill:#000000;stroke-width:0"
         inkscape:connector-curvature="0" /><path
         id="path3956"
         d="m 263,709.61 0,0.08 0,0.07 0,0.08 0,0.08 -0.01,0.17 -0.01,0.18 -0.02,0.18 -0.02,0.19 -0.03,0.2 -0.03,0.2 -0.04,0.2 -0.05,0.21 -0.05,0.21 -0.06,0.21 -0.07,0.21 -0.08,0.22 -0.04,0.1 -0.05,0.11 -0.05,0.11 -0.05,0.1 c -0.59,1.23 -1.45,1.87 -1.55,1.87 -0.06,0 -0.1,-0.04 -0.1,-0.1 0,-0.02 0,-0.04 0.19,-0.22 0.98,-0.99 1.54,-2.57 1.54,-4.66 0,-1.7 -0.37,-3.45 -1.6,-4.71 -0.13,-0.12 -0.13,-0.14 -0.13,-0.17 0,-0.06 0.04,-0.1 0.1,-0.1 0.1,0 1,0.68 1.58,1.95 0.51,1.09 0.63,2.2 0.63,3.03 z"
         style="fill:#000000;stroke-width:0"
         inkscape:connector-curvature="0" /><path
         id="path3958"
         d="m 268.13,709.61 -0.01,0.03 0,0.03 0,0.02 -0.01,0.03 0,0.02 -0.01,0.03 -0.01,0.02 -0.01,0.03 -0.01,0.02 -0.01,0.02 -0.01,0.03 -0.02,0.02 -0.01,0.02 -0.02,0.02 -0.01,0.02 -0.02,0.02 -0.02,0.01 -0.02,0.02 -0.02,0.02 -0.02,0.01 -0.02,0.01 -0.02,0.02 -0.03,0.01 -0.02,0.01 -0.02,0.01 -0.03,0.01 -0.02,0 -0.03,0.01 -0.02,0 -0.03,0.01 -0.03,0 -0.02,0 c -0.29,0 -0.53,-0.24 -0.53,-0.53 0,-0.29 0.24,-0.52 0.53,-0.52 0.29,0 0.53,0.23 0.53,0.52 z"
         style="fill:#000000;stroke-width:0"
         inkscape:connector-curvature="0" /><path
         id="path3960"
         d="m 274.49,704.73 0,0.01 0,0 0,0.01 0,0 0,0 0,0 0,0.01 -0.01,0 0,0.01 0,0 0,0 0,0.01 -0.01,0 0,0.01 -0.01,0 0,0.01 -0.01,0.01 0,0 0,0.01 -0.01,0 0,0.01 0,0 -0.01,0.01 0,0 -0.01,0 0,0.01 -0.01,0 0,0.01 -0.01,0 0,0.01 -0.01,0.01 0,0 -0.01,0.01 0,0 -0.01,0.01 -0.01,0.01 0,0 -0.01,0.01 -0.01,0.01 0,0.01 -0.01,0 -0.01,0.01 c -1.24,1.26 -1.56,3.14 -1.56,4.66 0,1.74 0.38,3.47 1.6,4.72 0.13,0.12 0.13,0.14 0.13,0.16 0,0.08 -0.04,0.1 -0.1,0.1 -0.1,0 -1,-0.67 -1.58,-1.94 -0.51,-1.09 -0.63,-2.2 -0.63,-3.04 0,-0.77 0.11,-1.98 0.66,-3.1 0.59,-1.23 1.45,-1.88 1.55,-1.88 0.06,0 0.1,0.03 0.1,0.1 z"
         style="fill:#000000;stroke-width:0"
         inkscape:connector-curvature="0" /><path
         id="path3962"
         d="m 279.9,710.92 0.01,0 0,0.01 0,0.01 0,0 0,0.01 0.01,0.02 0,0.01 0,0.01 0,0 0.01,0.01 0,0.01 0,0.01 0,0.01 0,0 0.01,0.01 0,0.01 0,0 0,0.01 0,0 0,0.01 0,0.01 0,0 0,0.01 0,0.01 0,0.01 0,0.01 0,0.01 0,0 0,0.01 0,0.01 c 0,0.18 -0.14,0.27 -0.29,0.27 -0.09,0 -0.25,-0.06 -0.34,-0.21 -0.02,-0.05 -0.1,-0.36 -0.14,-0.54 -0.07,-0.26 -0.14,-0.53 -0.2,-0.8 l -0.45,-1.79 c -0.04,-0.15 -0.47,-0.85 -1.13,-0.85 -0.5,0 -0.61,0.44 -0.61,0.81 0,0.46 0.17,1.07 0.5,1.95 0.16,0.41 0.2,0.52 0.2,0.72 0,0.45 -0.31,0.82 -0.81,0.82 -0.95,0 -1.32,-1.45 -1.32,-1.54 0,-0.1 0.1,-0.1 0.12,-0.1 0.1,0 0.11,0.02 0.16,0.18 0.27,0.94 0.67,1.24 1.01,1.24 0.08,0 0.25,0 0.25,-0.32 0,-0.25 -0.1,-0.51 -0.17,-0.7 -0.4,-1.06 -0.58,-1.62 -0.58,-2.09 0,-0.89 0.63,-1.19 1.21,-1.19 0.39,0 0.73,0.17 1.01,0.45 -0.13,-0.52 -0.25,-1 -0.65,-1.53 -0.26,-0.34 -0.63,-0.63 -1.09,-0.63 -0.14,0 -0.59,0.03 -0.76,0.42 0.16,0 0.29,0 0.43,0.12 0.1,0.09 0.2,0.22 0.2,0.41 0,0.3 -0.27,0.34 -0.37,0.34 -0.23,0 -0.56,-0.16 -0.56,-0.64 0,-0.5 0.44,-0.87 1.06,-0.87 1.02,0 2.05,0.91 2.33,2.03 z"
         style="fill:#000000;stroke-width:0"
         inkscape:connector-curvature="0" /><path
         id="path3964"
         d="m 283.83,712.01 h -0.24 c -0.02,-0.16 -0.09,-0.57 -0.18,-0.64 -0.06,-0.04 -0.59,-0.04 -0.69,-0.04 h -1.29 c 0.74,0.65 0.98,0.84 1.4,1.17 0.52,0.41 1,0.85 1,1.51 0,0.84 -0.74,1.36 -1.63,1.36 -0.87,0 -1.46,-0.61 -1.46,-1.25 0,-0.36 0.3,-0.39 0.37,-0.39 0.17,0 0.37,0.12 0.37,0.37 0,0.12 -0.05,0.37 -0.41,0.37 0.22,0.49 0.69,0.65 1.02,0.65 0.7,0 1.06,-0.55 1.06,-1.11 0,-0.61 -0.43,-1.09 -0.66,-1.34 l -1.68,-1.66 c -0.07,-0.06 -0.07,-0.08 -0.07,-0.27 h 2.88 z"
         style="fill:#000000;stroke-width:0"
         inkscape:connector-curvature="0" /><path
         id="path3966"
         d="m 291.06,709.41 h 2.78 c 0.14,0 0.33,0 0.33,0.2 0,0.2 -0.19,0.2 -0.33,0.2 h -2.78 v 2.79 c 0,0.14 0,0.33 -0.2,0.33 -0.2,0 -0.2,-0.19 -0.2,-0.33 v -2.79 h -2.79 c -0.14,0 -0.32,0 -0.32,-0.2 0,-0.2 0.18,-0.2 0.32,-0.2 h 2.79 v -2.79 c 0,-0.14 0,-0.32 0.2,-0.32 0.2,0 0.2,0.18 0.2,0.32 z"
         style="fill:#000000;stroke-width:0"
         inkscape:connector-curvature="0" /><path
         id="path3968"
         d="m 299.88,713.5 0,0.01 0,0.01 0,0.01 0,0.01 0,0.01 0,0.01 0,0.01 0,0.01 0,0.01 0,0.01 0,0 0,0.01 0,0.01 -0.01,0.01 0,0 0,0.01 0,0.01 0,0 0,0.01 0,0.02 -0.01,0.01 0,0.01 0,0 -0.01,0.01 0,0.01 -0.01,0 0,0.01 -0.01,0 -0.01,0.01 -0.01,0 0,0 -0.01,0.01 0,0 -0.01,0 0,0 -0.01,0 -0.01,0 0,0 -0.01,0 -0.01,0 0,0.01 -0.01,0 -0.01,0 -0.01,0 -0.01,0 0,0 -0.01,0 -0.01,0 -0.01,0 -0.01,0 -0.01,0 -0.01,0 c -0.62,-0.64 -1.5,-0.64 -1.82,-0.64 v -0.31 c 0.2,0 0.79,0 1.31,0.26 v -5.16 c 0,-0.36 -0.03,-0.48 -0.93,-0.48 h -0.32 v -0.31 c 0.35,0.03 1.22,0.03 1.62,0.03 0.4,0 1.26,0 1.61,-0.03 v 0.31 h -0.32 c -0.89,0 -0.92,0.11 -0.92,0.48 z"
         style="fill:#000000;stroke-width:0"
         inkscape:connector-curvature="0" /><path
         id="path3970"
         d="m 304.81,709.61 0,0.08 0,0.07 0,0.08 0,0.08 -0.01,0.17 -0.01,0.18 -0.02,0.18 -0.02,0.19 -0.03,0.2 -0.03,0.2 -0.04,0.2 -0.04,0.21 -0.06,0.21 -0.06,0.21 -0.07,0.21 -0.08,0.22 -0.04,0.1 -0.05,0.11 -0.04,0.11 -0.05,0.1 c -0.6,1.23 -1.46,1.87 -1.56,1.87 -0.06,0 -0.1,-0.04 -0.1,-0.1 0,-0.02 0,-0.04 0.19,-0.22 0.98,-0.99 1.55,-2.57 1.55,-4.66 0,-1.7 -0.37,-3.45 -1.61,-4.71 -0.13,-0.12 -0.13,-0.14 -0.13,-0.17 0,-0.06 0.04,-0.1 0.1,-0.1 0.1,0 1,0.68 1.59,1.95 0.51,1.09 0.62,2.2 0.62,3.03 z"
         style="fill:#000000;stroke-width:0"
         inkscape:connector-curvature="0" /></g>    <path
       sodipodi:type="arc"
       style="fill:#9fb8b8;fill-opacity:0.55294118;stroke:#6a0006;stroke-width:1;stroke-linejoin:miter;stroke-miterlimit:4;stroke-opacity:1;stroke-dasharray:none;stroke-dashoffset:0"
       id="path3199-7"
       sodipodi:cx="240"
       sodipodi:cy="302.36218"
       sodipodi:rx="10"
       sodipodi:ry="10"
       d="m 250,302.36218 c 0,5.52285 -4.47715,10 -10,10 -5.52285,0 -10,-4.47715 -10,-10 0,-5.52284 4.47715,-10 10,-10 5.52285,0 10,4.47716 10,10 z"
       transform="translate(6.7923106,198.1594)" />
    <path
       id="path4100"
       d="m 247.15919,495.10366 0,-0.0158 0,-0.0158 0,-0.0159 0,-0.0158 0,-0.0158 0,-0.0158 0,-0.0159 0,-0.0158 0,-0.0158 0,-0.0159 0,0 0,-0.0158 0,-0.0158 0,-0.0159 0,0 0,-0.0158 -0.0158,-0.0158 0,0 0,-0.0158 0,-0.0317 0,-0.0158 -0.0158,-0.0159 0,0 0,-0.0158 -0.0159,-0.0158 -0.0158,0 0,-0.0159 -0.0158,0 -0.0159,-0.0158 -0.0158,0 0,0 -0.0158,-0.0158 0,0 -0.0159,0 0,0 -0.0158,0 0,0 -0.0158,0 -0.0158,0 0,0 -0.0159,-0.0159 -0.0158,0 -0.0158,0 0,0 -0.0159,0 -0.0158,0 -0.0158,0 -0.0159,0 -0.0158,0 -0.0158,0 -0.0158,0 -0.0159,0 c -0.98227,1.01396 -2.37645,1.01396 -2.86759,1.01396 l 0,0.49113 c 0.31686,0 1.23576,0 2.0596,-0.41192 l 0,8.17501 c 0,0.57034 -0.0475,0.76046 -1.4734,0.76046 l -0.49114,0 0,0.49113 c 0.53867,-0.0475 1.91701,-0.0475 2.55073,-0.0475 0.63372,0 2.01206,0 2.55073,0.0475 l 0,-0.49113 -0.49114,0 c -1.42587,0 -1.4734,-0.17427 -1.4734,-0.76046 z"
       style="font-style:normal;font-variant:normal;font-weight:normal;font-stretch:normal;letter-spacing:normal;word-spacing:normal;text-anchor:start;fill:#000000;stroke:#000000;stroke-width:0;stroke-linecap:butt;stroke-linejoin:miter;stroke-miterlimit:10.43299961;stroke-opacity:1;stroke-dasharray:none;stroke-dashoffset:0"
       inkscape:connector-curvature="0" />
    <path
       sodipodi:type="arc"
       style="fill:#9fb8b8;fill-opacity:0.55294118;stroke:#6a0006;stroke-width:1;stroke-linejoin:miter;stroke-miterlimit:4;stroke-opacity:1;stroke-dasharray:none;stroke-dashoffset:0"
       id="path3199-1"
       sodipodi:cx="240"
       sodipodi:cy="302.36218"
       sodipodi:rx="10"
       sodipodi:ry="10"
       d="m 250,302.36218 c 0,5.52285 -4.47715,10 -10,10 -5.52285,0 -10,-4.47715 -10,-10 0,-5.52284 4.47715,-10 10,-10 5.52285,0 10,4.47716 10,10 z"
       transform="translate(26.194417,171.671)" />
    <path
       id="path4102"
       d="m 270.52604,473.8757 0.0475,0 0.0475,0 0.0475,-0.0158 0.0317,0 0.0159,0 0.0317,0 0.0159,0 0.0317,0 0.0158,0 0.0317,-0.0158 0.0158,0 0.0159,0 0.0317,-0.0159 0.0159,0 0.0158,-0.0158 0.0158,-0.0158 0.0158,0 0.0159,-0.0159 0.0158,-0.0158 0.0158,-0.0158 0.0159,-0.0159 0,0 0,-0.0158 0.0158,0 0,-0.0158 0,-0.0158 0,0 0.0158,-0.0159 0,-0.0158 0,0 0,-0.0158 0,-0.0159 0,-0.0158 0.0159,-0.0158 0,0 0,-0.0159 0,-0.0158 c 0,-0.31686 -0.28518,-0.31686 -0.55451,-0.31686 l -8.53939,0 c -0.26933,0 -0.55451,0 -0.55451,0.31686 0,0.31686 0.28518,0.31686 0.55451,0.31686 z"
       style="font-style:normal;font-variant:normal;font-weight:normal;font-stretch:normal;letter-spacing:normal;word-spacing:normal;text-anchor:start;fill:#000000;stroke:#000000;stroke-width:0;stroke-linecap:butt;stroke-linejoin:miter;stroke-miterlimit:10.43299961;stroke-opacity:1;stroke-dasharray:none;stroke-dashoffset:0"
       inkscape:connector-curvature="0" />
    <path
       sodipodi:type="arc"
       style="fill:#9fb8b8;fill-opacity:0.55294118;stroke:#6a0006;stroke-width:1;stroke-linejoin:miter;stroke-miterlimit:4;stroke-opacity:1;stroke-dasharray:none;stroke-dashoffset:0"
       id="path3199-14"
       sodipodi:cx="240"
       sodipodi:cy="302.36218"
       sodipodi:rx="10"
       sodipodi:ry="10"
       d="m 250,302.36218 c 0,5.52285 -4.47715,10 -10,10 -5.52285,0 -10,-4.47715 -10,-10 0,-5.52284 4.47715,-10 10,-10 5.52285,0 10,4.47716 10,10 z"
       transform="translate(31.657437,226.92163)" />
    <path
       id="path4104"
       d="m 271.98836,527.98563 0.0159,-0.0475 0,-0.0475 0.0158,-0.0475 0.0158,-0.0634 0.0159,-0.0475 0.0158,-0.0792 0.0317,-0.0634 0.0158,-0.0634 0.0317,-0.0792 0.0159,-0.0792 0.0317,-0.0792 0.0317,-0.0792 0.0475,-0.0792 0.0317,-0.0792 0.0475,-0.0792 0.0317,-0.0792 0.0475,-0.0634 0.0475,-0.0792 0.0634,-0.0792 0.0475,-0.0634 0.0634,-0.0792 0.0634,-0.0634 0.0634,-0.0475 0.0792,-0.0634 0.0634,-0.0475 0.0792,-0.0475 0.0475,-0.0158 0.0317,-0.0317 0.0475,-0.0158 0.0475,-0.0158 0.0317,-0.0158 0.0475,0 0.0475,-0.0159 0.0475,-0.0158 0.0475,0 0.0475,0 0.0475,-0.0158 0.0634,0 c 0.0792,0 0.45945,0 0.77631,0.20596 -0.4436,0.0792 -0.74462,0.47529 -0.74462,0.85552 0,0.25349 0.17427,0.55451 0.60203,0.55451 0.33271,0 0.83969,-0.28518 0.83969,-0.9189 0,-0.82384 -0.9189,-1.04564 -1.45756,-1.04564 -0.9189,0 -1.4734,0.83968 -1.66352,1.20407 -0.39608,-1.04564 -1.2516,-1.20407 -1.71105,-1.20407 -1.63183,0 -2.53488,2.04375 -2.53488,2.43983 0,0.15843 0.15843,0.15843 0.19011,0.15843 0.12675,0 0.17428,-0.0317 0.20596,-0.17428 0.53867,-1.67936 1.58431,-2.07543 2.10713,-2.07543 0.30101,0 0.85552,0.14258 0.85552,1.06148 0,0.49113 -0.26933,1.55262 -0.85552,3.7548 -0.23765,0.98226 -0.79216,1.64767 -1.48925,1.64767 -0.0951,0 -0.45945,0 -0.79215,-0.20596 0.39608,-0.0792 0.74462,-0.41192 0.74462,-0.85552 0,-0.42776 -0.34854,-0.55451 -0.58619,-0.55451 -0.47529,0 -0.87137,0.41192 -0.87137,0.9189 0,0.72878 0.79216,1.04564 1.48925,1.04564 1.04564,0 1.60014,-1.10901 1.64767,-1.20407 0.19012,0.58619 0.76047,1.20407 1.71105,1.20407 1.63183,0 2.51904,-2.04375 2.51904,-2.43983 0,-0.15843 -0.14259,-0.15843 -0.19011,-0.15843 -0.12675,0 -0.15844,0.0634 -0.20596,0.17427 -0.50698,1.69521 -1.58431,2.07544 -2.09128,2.07544 -0.61788,0 -0.87137,-0.50698 -0.87137,-1.04564 0,-0.34854 0.0951,-0.69709 0.26933,-1.39418 z"
       style="font-style:normal;font-variant:normal;font-weight:normal;font-stretch:normal;letter-spacing:normal;word-spacing:normal;text-anchor:start;fill:#000000;stroke:#000000;stroke-width:0;stroke-linecap:butt;stroke-linejoin:miter;stroke-miterlimit:10.43299961;stroke-opacity:1;stroke-dasharray:none;stroke-dashoffset:0"
       inkscape:connector-curvature="0" />
    <path
       sodipodi:type="arc"
       style="fill:#9fb8b8;fill-opacity:0.55294118;stroke:#6a0006;stroke-width:1;stroke-linejoin:miter;stroke-miterlimit:4;stroke-opacity:1;stroke-dasharray:none;stroke-dashoffset:0"
       id="path3199-52"
       sodipodi:cx="240"
       sodipodi:cy="302.36218"
       sodipodi:rx="10"
       sodipodi:ry="10"
       d="m 250,302.36218 c 0,5.52285 -4.47715,10 -10,10 -5.52285,0 -10,-4.47715 -10,-10 0,-5.52284 4.47715,-10 10,-10 5.52285,0 10,4.47716 10,10 z"
       transform="translate(47.764766,198.1594)" />
    <path
       id="path4106"
       d="m 290.8406,493.24869 0,0 0,-0.0159 0.0159,0 0,-0.0158 0,0 0,-0.0158 0.0158,-0.0159 0,-0.0158 0,-0.0158 0,-0.0159 0.0158,-0.0158 0,-0.0158 0,0 0,-0.0158 0.0159,-0.0159 0,0 0,-0.0158 0,0 0,-0.0158 0,-0.0159 0,0 0,0 0.0158,-0.0158 0,0 0,-0.0158 0,0 0,0 0,0 0,-0.0159 0,0 0,0 0,0 0,0 0,0 0,-0.0158 c 0,-0.17427 -0.14259,-0.30102 -0.31686,-0.30102 -0.1109,0 -0.2218,0.0317 -0.26933,0.12675 l -5.48169,15.05087 c -0.0792,0.20596 -0.0792,0.26933 -0.0792,0.28518 0,0.17427 0.14259,0.31686 0.31687,0.31686 0.20595,0 0.25348,-0.1109 0.34854,-0.38023 z"
       style="font-style:normal;font-variant:normal;font-weight:normal;font-stretch:normal;letter-spacing:normal;word-spacing:normal;text-anchor:start;fill:#000000;stroke:#000000;stroke-width:0;stroke-linecap:butt;stroke-linejoin:miter;stroke-miterlimit:10.43299961;stroke-opacity:1;stroke-dasharray:none;stroke-dashoffset:0"
       inkscape:connector-curvature="0" />
    <path
       sodipodi:type="arc"
       style="fill:#9fb8b8;fill-opacity:0.55294118;stroke:#6a0006;stroke-width:1;stroke-linejoin:miter;stroke-miterlimit:4;stroke-opacity:1;stroke-dasharray:none;stroke-dashoffset:0"
       id="path3199-3"
       sodipodi:cx="240"
       sodipodi:cy="302.36218"
       sodipodi:rx="10"
       sodipodi:ry="10"
       d="m 250,302.36218 c 0,5.52285 -4.47715,10 -10,10 -5.52285,0 -10,-4.47715 -10,-10 0,-5.52284 4.47715,-10 10,-10 5.52285,0 10,4.47716 10,10 z"
       transform="translate(66.334385,226.92163)" />
    <path
       id="path4108"
       d="m 307.23119,528.70872 0.12675,-0.0475 0.1109,-0.0317 0.12674,-0.0634 0.1109,-0.0475 0.11091,-0.0634 0.095,-0.0475 0.11091,-0.0634 0.095,-0.0792 0.1109,-0.0634 0.0951,-0.0792 0.0951,-0.0634 0.0792,-0.0792 0.0951,-0.0951 0.0792,-0.0792 0.0792,-0.0951 0.0792,-0.0792 0.0634,-0.0951 0.0634,-0.0951 0.0634,-0.0951 0.0634,-0.0951 0.0634,-0.1109 0.0475,-0.0951 0.0475,-0.1109 0.0317,-0.0951 0.0475,-0.11091 0.0317,-0.1109 0.0317,-0.1109 0.0158,-0.1109 0.0158,-0.1109 0.0158,-0.12675 0,-0.1109 0.0159,-0.1109 c 0,-1.29913 -1.39419,-2.18634 -2.91512,-2.18634 -1.5843,0 -2.78837,0.95059 -2.78837,2.15466 0,0.52282 0.34854,0.80799 0.80799,0.80799 0.49114,0 0.808,-0.3327 0.808,-0.79215 0,-0.79215 -0.74463,-0.79215 -0.98227,-0.79215 0.49113,-0.77631 1.53677,-0.98227 2.09128,-0.98227 0.64956,0 1.52093,0.34855 1.52093,1.77442 0,0.19012 -0.0317,1.09317 -0.44361,1.79026 -0.47529,0.76047 -1.01395,0.808 -1.41003,0.82384 -0.1109,0.0158 -0.50697,0.0475 -0.60203,0.0475 -0.12674,0.0158 -0.23765,0.0317 -0.23765,0.19011 0,0.17428 0.11091,0.17428 0.38024,0.17428 l 0.68125,0 c 1.29913,0 1.88532,1.07732 1.88532,2.6141 0,2.15465 -1.09317,2.6141 -1.79026,2.6141 -0.68125,0 -1.85364,-0.26933 -2.40814,-1.20407 0.5545,0.0792 1.04564,-0.26933 1.04564,-0.87137 0,-0.57035 -0.42777,-0.87137 -0.88721,-0.87137 -0.38024,0 -0.88721,0.20596 -0.88721,0.90306 0,1.44171 1.4734,2.48735 3.18444,2.48735 1.93285,0 3.37457,-1.44171 3.37457,-3.0577 0,-1.28329 -0.99811,-2.51904 -2.64579,-2.85175 z"
       style="font-style:normal;font-variant:normal;font-weight:normal;font-stretch:normal;letter-spacing:normal;word-spacing:normal;text-anchor:start;fill:#000000;stroke:#000000;stroke-width:0;stroke-linecap:butt;stroke-linejoin:miter;stroke-miterlimit:10.43299961;stroke-opacity:1;stroke-dasharray:none;stroke-dashoffset:0"
       inkscape:connector-curvature="0" />
    <path
       sodipodi:type="arc"
       style="fill:#9fb8b8;fill-opacity:0.55294118;stroke:#6a0006;stroke-width:1;stroke-linejoin:miter;stroke-miterlimit:4;stroke-opacity:1;stroke-dasharray:none;stroke-dashoffset:0"
       id="path3199"
       sodipodi:cx="240"
       sodipodi:cy="302.36218"
       sodipodi:rx="10"
       sodipodi:ry="10"
       d="m 250,302.36218 c 0,5.52285 -4.47715,10 -10,10 -5.52285,0 -10,-4.47715 -10,-10 0,-5.52284 4.47715,-10 10,-10 5.52285,0 10,4.47716 10,10 z"
       transform="translate(81.567926,146.20324)" />
    <path
       id="path4112"
       d="m 322.19036,447.75844 -0.0158,-0.0475 0,-0.0475 0,-0.0317 -0.0159,-0.0475 0,-0.0317 -0.0158,-0.0475 -0.0158,-0.0317 -0.0158,-0.0475 -0.0159,-0.0317 -0.0158,-0.0317 -0.0158,-0.0475 -0.0317,-0.0317 -0.0158,-0.0317 -0.0317,-0.0317 -0.0158,-0.0317 -0.0317,-0.0317 -0.0317,-0.0159 -0.0317,-0.0317 -0.0317,-0.0317 -0.0317,-0.0158 -0.0317,-0.0159 -0.0317,-0.0317 -0.0475,-0.0158 -0.0317,-0.0159 -0.0317,-0.0158 -0.0475,-0.0158 -0.0317,0 -0.0475,-0.0159 -0.0317,0 -0.0475,-0.0158 -0.0475,0 -0.0317,0 c -0.45945,0 -0.83968,0.38023 -0.83968,0.83968 0,0.45945 0.38023,0.82384 0.83968,0.82384 0.45945,0 0.83968,-0.36439 0.83968,-0.82384 z"
       style="font-style:normal;font-variant:normal;font-weight:normal;font-stretch:normal;letter-spacing:normal;word-spacing:normal;text-anchor:start;fill:#000000;stroke:#000000;stroke-width:0;stroke-linecap:butt;stroke-linejoin:miter;stroke-miterlimit:10.43299961;stroke-opacity:1;stroke-dasharray:none;stroke-dashoffset:0"
       inkscape:connector-curvature="0" />
    <path
       sodipodi:type="arc"
       style="fill:#9fb8b8;fill-opacity:0.55294118;stroke:#6a0006;stroke-width:1;stroke-linejoin:miter;stroke-miterlimit:4;stroke-opacity:1;stroke-dasharray:none;stroke-dashoffset:0"
       id="path3199-2"
       sodipodi:cx="240"
       sodipodi:cy="302.36218"
       sodipodi:rx="10"
       sodipodi:ry="10"
       d="m 250,302.36218 c 0,5.52285 -4.47715,10 -10,10 -5.52285,0 -10,-4.47715 -10,-10 0,-5.52284 4.47715,-10 10,-10 5.52285,0 10,4.47716 10,10 z"
       transform="translate(109.31262,226.96919)" />
    <path
       id="path4116"
       d="m 353.54342,525.26637 0.0159,0 0,-0.0158 0,-0.0158 0,0 0,-0.0158 0.0158,-0.0317 0,-0.0158 0,-0.0159 0,0 0.0158,-0.0158 0,-0.0158 0,-0.0159 0,-0.0158 0,0 0.0159,-0.0158 0,-0.0158 0,0 0,-0.0159 0,0 0,-0.0158 0,-0.0158 0,0 0,-0.0159 0,-0.0158 0,-0.0158 0,-0.0159 0,-0.0158 0,0 0,-0.0158 0,-0.0159 c 0,-0.28517 -0.22181,-0.42776 -0.45945,-0.42776 -0.14259,0 -0.39608,0.0951 -0.53866,0.33271 -0.0317,0.0792 -0.15844,0.57035 -0.22181,0.85552 -0.1109,0.41192 -0.2218,0.83968 -0.31686,1.26744 l -0.71293,2.8359 c -0.0634,0.23765 -0.74463,1.34666 -1.79027,1.34666 -0.79215,0 -0.96642,-0.69709 -0.96642,-1.28328 0,-0.72878 0.26933,-1.69521 0.79215,-3.08939 0.25349,-0.64957 0.31686,-0.82384 0.31686,-1.1407 0,-0.71294 -0.49113,-1.29913 -1.28328,-1.29913 -1.50509,0 -2.09128,2.29724 -2.09128,2.43983 0,0.15843 0.15843,0.15843 0.19011,0.15843 0.15843,0 0.17428,-0.0317 0.25349,-0.28518 0.42776,-1.48924 1.06148,-1.96453 1.60015,-1.96453 0.12674,0 0.39607,0 0.39607,0.50697 0,0.39608 -0.15843,0.808 -0.26933,1.10902 -0.63372,1.67936 -0.91889,2.56657 -0.91889,3.31119 0,1.41003 0.99811,1.88532 1.917,1.88532 0.61788,0 1.15654,-0.26933 1.60015,-0.71294 -0.20596,0.82384 -0.39608,1.5843 -1.0298,2.42398 -0.41192,0.53867 -0.99811,0.99812 -1.72689,0.99812 -0.2218,0 -0.93474,-0.0475 -1.20407,-0.66541 0.25349,0 0.45945,0 0.68125,-0.19012 0.15843,-0.14259 0.31686,-0.34854 0.31686,-0.64956 0,-0.47529 -0.42776,-0.53866 -0.58619,-0.53866 -0.36439,0 -0.88721,0.25348 -0.88721,1.01395 0,0.79215 0.69709,1.37834 1.67936,1.37834 1.61599,0 3.24782,-1.44171 3.69143,-3.21613 z"
       style="font-style:normal;font-variant:normal;font-weight:normal;font-stretch:normal;letter-spacing:normal;word-spacing:normal;text-anchor:start;fill:#000000;stroke:#000000;stroke-width:0;stroke-linecap:butt;stroke-linejoin:miter;stroke-miterlimit:10.43299961;stroke-opacity:1;stroke-dasharray:none;stroke-dashoffset:0"
       inkscape:connector-curvature="0" />
    <path
       sodipodi:type="arc"
       style="fill:#9fb8b8;fill-opacity:0.55294118;stroke:#6a0006;stroke-width:1;stroke-linejoin:miter;stroke-miterlimit:4;stroke-opacity:1;stroke-dasharray:none;stroke-dashoffset:0"
       id="path3199-5"
       sodipodi:cx="240"
       sodipodi:cy="302.36218"
       sodipodi:rx="10"
       sodipodi:ry="10"
       d="m 250,302.36218 c 0,5.52285 -4.47715,10 -10,10 -5.52285,0 -10,-4.47715 -10,-10 0,-5.52284 4.47715,-10 10,-10 5.52285,0 10,4.47716 10,10 z"
       transform="translate(141.13243,226.96919)" />
    <path
       id="path4118"
       d="m 383.50831,530.61053 -0.38023,0 c -0.0317,0.25349 -0.14259,0.90306 -0.28517,1.01396 -0.0951,0.0634 -0.93474,0.0634 -1.09317,0.0634 l -2.04375,0 c 1.17238,-1.0298 1.55261,-1.33081 2.21802,-1.85363 0.82384,-0.64957 1.5843,-1.34666 1.5843,-2.3923 0,-1.33082 -1.17238,-2.15465 -2.58241,-2.15465 -1.37834,0 -2.31308,0.96642 -2.31308,1.98038 0,0.57034 0.47529,0.61787 0.58619,0.61787 0.26933,0 0.58619,-0.19011 0.58619,-0.58619 0,-0.19011 -0.0792,-0.58619 -0.64956,-0.58619 0.34854,-0.77631 1.09317,-1.0298 1.61599,-1.0298 1.10901,0 1.67936,0.87137 1.67936,1.75858 0,0.96642 -0.68125,1.72689 -1.04564,2.12296 l -2.66163,2.62995 c -0.1109,0.0951 -0.1109,0.12674 -0.1109,0.42776 l 4.56279,0 z"
       style="font-style:normal;font-variant:normal;font-weight:normal;font-stretch:normal;letter-spacing:normal;word-spacing:normal;text-anchor:start;fill:#000000;stroke:#000000;stroke-width:0;stroke-linecap:butt;stroke-linejoin:miter;stroke-miterlimit:10.43299961;stroke-opacity:1;stroke-dasharray:none;stroke-dashoffset:0"
       inkscape:connector-curvature="0" />
    <path
       sodipodi:type="arc"
       style="fill:#9fb8b8;fill-opacity:0.55294118;stroke:#6a0006;stroke-width:1;stroke-linejoin:miter;stroke-miterlimit:4;stroke-opacity:1;stroke-dasharray:none;stroke-dashoffset:0"
       id="path3199-4"
       sodipodi:cx="240"
       sodipodi:cy="302.36218"
       sodipodi:rx="10"
       sodipodi:ry="10"
       d="m 250,302.36218 c 0,5.52285 -4.47715,10 -10,10 -5.52285,0 -10,-4.47715 -10,-10 0,-5.52284 4.47715,-10 10,-10 5.52285,0 10,4.47716 10,10 z"
       transform="translate(142.67849,171.671)" />
    <path
       id="path4120"
       d="m 382.87183,474.38077 4.40436,0 c 0.22181,0 0.52282,0 0.52282,-0.31686 0,-0.31686 -0.30101,-0.31686 -0.52282,-0.31686 l -4.40436,0 0,-4.4202 c 0,-0.22181 0,-0.52282 -0.31686,-0.52282 -0.31686,0 -0.31686,0.30101 -0.31686,0.52282 l 0,4.4202 -4.4202,0 c -0.22181,0 -0.50698,0 -0.50698,0.31686 0,0.31686 0.28517,0.31686 0.50698,0.31686 l 4.4202,0 0,4.42021 c 0,0.2218 0,0.50697 0.31686,0.50697 0.31686,0 0.31686,-0.28517 0.31686,-0.50697 z"
       style="font-style:normal;font-variant:normal;font-weight:normal;font-stretch:normal;letter-spacing:normal;word-spacing:normal;text-anchor:start;fill:#000000;stroke:#000000;stroke-width:0;stroke-linecap:butt;stroke-linejoin:miter;stroke-miterlimit:10.43299961;stroke-opacity:1;stroke-dasharray:none;stroke-dashoffset:0"
       inkscape:connector-curvature="0" />
    <path
       sodipodi:type="arc"
       style="fill:#9fb8b8;fill-opacity:0.55294118;stroke:#6a0006;stroke-width:1;stroke-linejoin:miter;stroke-miterlimit:4;stroke-opacity:1;stroke-dasharray:none;stroke-dashoffset:0"
       id="path3199-8"
       sodipodi:cx="240"
       sodipodi:cy="302.36218"
       sodipodi:rx="10"
       sodipodi:ry="10"
       d="m 250,302.36218 c 0,5.52285 -4.47715,10 -10,10 -5.52285,0 -10,-4.47715 -10,-10 0,-5.52284 4.47715,-10 10,-10 5.52285,0 10,4.47716 10,10 z"
       transform="translate(163.91199,197.65433)" />
    <path
       id="path4122"
       d="m 404.9469,495.90461 0,-0.0158 0,-0.0158 0,-0.0159 0,-0.0158 0,-0.0158 0,-0.0158 0,-0.0159 0,-0.0158 0,-0.0158 0,-0.0159 0,0 0,-0.0158 0,-0.0158 -0.0158,-0.0159 0,0 0,-0.0158 0,-0.0158 0,0 0,-0.0158 0,-0.0317 -0.0158,-0.0158 0,-0.0159 0,0 -0.0159,-0.0158 0,-0.0158 -0.0158,0 0,-0.0159 -0.0158,0 -0.0159,-0.0158 -0.0158,0 0,0 -0.0158,-0.0158 0,0 -0.0159,0 0,0 -0.0158,0 -0.0158,0 0,0 -0.0158,0 -0.0159,0 0,-0.0159 -0.0158,0 -0.0158,0 -0.0159,0 -0.0158,0 0,0 -0.0158,0 -0.0159,0 -0.0158,0 -0.0158,0 -0.0158,0 -0.0159,0 c -0.98227,1.01396 -2.37645,1.01396 -2.88343,1.01396 l 0,0.49113 c 0.31686,0 1.2516,0 2.07544,-0.41192 l 0,8.17501 c 0,0.57034 -0.0475,0.76046 -1.4734,0.76046 l -0.50698,0 0,0.49113 c 0.55451,-0.0475 1.93285,-0.0475 2.56657,-0.0475 0.63372,0 1.99622,0 2.55073,0.0475 l 0,-0.49113 -0.50698,0 c -1.41003,0 -1.45756,-0.17427 -1.45756,-0.76046 z"
       style="font-style:normal;font-variant:normal;font-weight:normal;font-stretch:normal;letter-spacing:normal;word-spacing:normal;text-anchor:start;fill:#000000;stroke:#000000;stroke-width:0;stroke-linecap:butt;stroke-linejoin:miter;stroke-miterlimit:10.43299961;stroke-opacity:1;stroke-dasharray:none;stroke-dashoffset:0"
       inkscape:connector-curvature="0" />
    <path
       sodipodi:type="arc"
       style="fill:#9fb8b8;fill-opacity:0.55294118;stroke:#6a0006;stroke-width:1;stroke-linejoin:miter;stroke-miterlimit:4;stroke-opacity:1;stroke-dasharray:none;stroke-dashoffset:0"
       id="path3199-9"
       sodipodi:cx="240"
       sodipodi:cy="302.36218"
       sodipodi:rx="10"
       sodipodi:ry="10"
       d="m 250,302.36218 c 0,5.52285 -4.47715,10 -10,10 -5.52285,0 -10,-4.47715 -10,-10 0,-5.52284 4.47715,-10 10,-10 5.52285,0 10,4.47716 10,10 z"
       transform="translate(125.5059,198.1594)" />
    <flowRoot
       xml:space="preserve"
       id="flowRoot4174"
       style="font-size:12px;font-style:normal;font-weight:normal;fill:#000000;fill-opacity:1;stroke:none;font-family:Times New Roman;-inkscape-font-specification:Times New Roman"
       transform="translate(-32.494202,4.753454)"><flowRegion
         id="flowRegion4176"><rect
           id="rect4178"
           width="14.142136"
           height="13.637059"
           x="394.46457"
           y="490.71738" /></flowRegion><flowPara
         id="flowPara4180">^</flowPara></flowRoot>    <path
       style="fill:none;stroke:#5130bd;stroke-width:1px;stroke-linecap:butt;stroke-linejoin:miter;stroke-opacity:1;marker-start:none;marker-end:url(#Arrow2Lend)"
       d="m 311.78572,452.00504 -35.71429,17.5"
       id="path4219"
       inkscape:connector-curvature="0" />
    <path
       style="fill:none;stroke:#5130bd;stroke-width:1px;stroke-linecap:butt;stroke-linejoin:miter;stroke-opacity:1;marker-start:none;marker-end:url(#Arrow2Lend)"
       d="m 331.41384,450.70496 43.21428,15.71429"
       id="path4219-6"
       sodipodi:nodetypes="cc"
       inkscape:connector-curvature="0" />
    <path
       style="fill:none;stroke:#5130bd;stroke-width:1px;stroke-linecap:butt;stroke-linejoin:miter;stroke-opacity:1;marker-start:none;marker-end:url(#Arrow2Lend)"
       d="m 390.87296,480.21932 12.5,8.92858"
       id="path4219-6-7"
       sodipodi:nodetypes="cc"
       inkscape:connector-curvature="0" />
    <path
       style="fill:none;stroke:#5130bd;stroke-width:1px;stroke-linecap:butt;stroke-linejoin:miter;stroke-opacity:1;marker-start:none;marker-end:url(#Arrow2Lend)"
       d="m 375.51582,480.93361 -9.28572,8.92858"
       id="path4219-6-9"
       sodipodi:nodetypes="cc"
       inkscape:connector-curvature="0" />
    <path
       style="fill:none;stroke:#5130bd;stroke-width:1px;stroke-linecap:butt;stroke-linejoin:miter;stroke-opacity:1;marker-start:none;marker-end:url(#Arrow2Lend)"
       d="m 272.65868,480.93361 15,9.64286"
       id="path4219-6-5"
       sodipodi:nodetypes="cc"
       inkscape:connector-curvature="0" />
    <path
       style="fill:none;stroke:#5130bd;stroke-width:1px;stroke-linecap:butt;stroke-linejoin:miter;stroke-opacity:1;marker-start:none;marker-end:url(#Arrow2Lend)"
       d="m 258.73011,480.93361 -12.85715,9.28572"
       id="path4219-6-3"
       sodipodi:nodetypes="cc"
       inkscape:connector-curvature="0" />
    <path
       style="fill:none;stroke:#5130bd;stroke-width:1px;stroke-linecap:butt;stroke-linejoin:miter;stroke-opacity:1;marker-start:none;marker-end:url(#Arrow2Lend)"
       d="m 293.73011,507.71932 11.7857,11.78573"
       id="path4219-6-38"
       sodipodi:nodetypes="cc"
       inkscape:connector-curvature="0" />
    <path
       style="fill:none;stroke:#5130bd;stroke-width:1px;stroke-linecap:butt;stroke-linejoin:miter;stroke-opacity:1;marker-start:none;marker-end:url(#Arrow2Lend)"
       d="m 281.2301,508.43361 -9.64286,10.35715"
       id="path4219-6-79"
       sodipodi:nodetypes="cc"
       inkscape:connector-curvature="0" />
    <path
       style="fill:none;stroke:#5130bd;stroke-width:1px;stroke-linecap:butt;stroke-linejoin:miter;stroke-opacity:1;marker-start:none;marker-end:url(#Arrow2Lend)"
       d="m 372.65868,507.00504 11.07142,12.5"
       id="path4219-6-50"
       sodipodi:nodetypes="cc"
       inkscape:connector-curvature="0" />
    <path
       style="fill:none;stroke:#5130bd;stroke-width:1px;stroke-linecap:butt;stroke-linejoin:miter;stroke-opacity:1;marker-start:none;marker-end:url(#Arrow2Lend)"
       d="m 357.65868,507.36218 -9.28572,11.07144"
       id="path4219-6-2"
       sodipodi:nodetypes="cc"
       inkscape:connector-curvature="0" />
  </g>
</svg>
