<?xml version="1.0" standalone="no"?>
<!DOCTYPE svg PUBLIC "-//W3C//DTD SVG 1.1//EN"
  "http://www.w3.org/Graphics/SVG/1.1/DTD/svg11.dtd">
<!-- Created with matplotlib (http://matplotlib.sourceforge.net/) -->
<svg width="432pt" height="293pt" viewBox="0 0 432 293"
   xmlns="http://www.w3.org/2000/svg"
   xmlns:xlink="http://www.w3.org/1999/xlink"
   version="1.1"
   id="svg1">
<g id="figure1">
<g id="patch1">
<path style="fill: #ffffff; stroke: #ffffff; stroke-width: 1.000000; stroke-linejoin: round; stroke-linecap: square;  opacity: 1.000000"  d="M0.000000 293.400000L432.000000 293.400000L432.000000 0.000000
L0.000000 0.000000L0.000000 293.400000"/>
</g>
<g id="axes1">
<g id="patch2">
<path style="fill: #ffffff; opacity: 1.000000"  d="M54.000000 264.060000L388.800000 264.060000L388.800000 29.340000
L54.000000 29.340000L54.000000 264.060000"/>
</g>
<g id="CircleCollection1">
<defs>
<path id="coll0_0_b977c8ed1a2e9637caacdbb89d627c6f" d="M0.000000 3.568248C0.946310 3.568248 1.853990 3.192275 2.523133 2.523133
C3.192275 1.853990 3.568248 0.946310 3.568248 0.000000
C3.568248 -0.946310 3.192275 -1.853990 2.523133 -2.523133
C1.853990 -3.192275 0.946310 -3.568248 0.000000 -3.568248
C-0.946310 -3.568248 -1.853990 -3.192275 -2.523133 -2.523133
C-3.192275 -1.853990 -3.568248 -0.946310 -3.568248 0.000000
C-3.568248 0.946310 -3.192275 1.853990 -2.523133 2.523133
C-1.853990 3.192275 -0.946310 3.568248 0.000000 3.568248z"/>
</defs>
<defs>
  <clipPath id="p2b015e663cfaa9e2ec2fd125965755f5">
<rect x="54.000000" y="29.340000" width="334.800000" height="234.720000"/>
  </clipPath>
</defs><g clip-path="url(#p2b015e663cfaa9e2ec2fd125965755f5)"><use style="fill: #ffff00; stroke: #000000; stroke-width: 1.000000; stroke-linejoin: round; stroke-linecap: butt;  opacity: 1.000000" xlink:href="#coll0_0_b977c8ed1a2e9637caacdbb89d627c6f" x="88.875000" y="223.958095"/>
</g><g clip-path="url(#p2b015e663cfaa9e2ec2fd125965755f5)"><use style="fill: #ffff00; stroke: #000000; stroke-width: 1.000000; stroke-linejoin: round; stroke-linecap: butt;  opacity: 1.000000" xlink:href="#coll0_0_b977c8ed1a2e9637caacdbb89d627c6f" x="96.129000" y="216.813082"/>
</g><g clip-path="url(#p2b015e663cfaa9e2ec2fd125965755f5)"><use style="fill: #ffff00; stroke: #000000; stroke-width: 1.000000; stroke-linejoin: round; stroke-linecap: butt;  opacity: 1.000000" xlink:href="#coll0_0_b977c8ed1a2e9637caacdbb89d627c6f" x="103.383000" y="213.999025"/>
</g><g clip-path="url(#p2b015e663cfaa9e2ec2fd125965755f5)"><use style="fill: #ffff00; stroke: #000000; stroke-width: 1.000000; stroke-linejoin: round; stroke-linecap: butt;  opacity: 1.000000" xlink:href="#coll0_0_b977c8ed1a2e9637caacdbb89d627c6f" x="112.869000" y="209.639893"/>
</g><g clip-path="url(#p2b015e663cfaa9e2ec2fd125965755f5)"><use style="fill: #ffff00; stroke: #000000; stroke-width: 1.000000; stroke-linejoin: round; stroke-linecap: butt;  opacity: 1.000000" xlink:href="#coll0_0_b977c8ed1a2e9637caacdbb89d627c6f" x="123.750000" y="204.908110"/>
</g><g clip-path="url(#p2b015e663cfaa9e2ec2fd125965755f5)"><use style="fill: #ffff00; stroke: #000000; stroke-width: 1.000000; stroke-linejoin: round; stroke-linecap: butt;  opacity: 1.000000" xlink:href="#coll0_0_b977c8ed1a2e9637caacdbb89d627c6f" x="136.026000" y="199.253676"/>
</g><g clip-path="url(#p2b015e663cfaa9e2ec2fd125965755f5)"><use style="fill: #ffff00; stroke: #000000; stroke-width: 1.000000; stroke-linejoin: round; stroke-linecap: butt;  opacity: 1.000000" xlink:href="#coll0_0_b977c8ed1a2e9637caacdbb89d627c6f" x="149.697000" y="192.577179"/>
</g><g clip-path="url(#p2b015e663cfaa9e2ec2fd125965755f5)"><use style="fill: #ffff00; stroke: #000000; stroke-width: 1.000000; stroke-linejoin: round; stroke-linecap: butt;  opacity: 1.000000" xlink:href="#coll0_0_b977c8ed1a2e9637caacdbb89d627c6f" x="165.321000" y="185.781638"/>
</g><g clip-path="url(#p2b015e663cfaa9e2ec2fd125965755f5)"><use style="fill: #ffff00; stroke: #000000; stroke-width: 1.000000; stroke-linejoin: round; stroke-linecap: butt;  opacity: 1.000000" xlink:href="#coll0_0_b977c8ed1a2e9637caacdbb89d627c6f" x="184.014000" y="175.831733"/>
</g><g clip-path="url(#p2b015e663cfaa9e2ec2fd125965755f5)"><use style="fill: #ffff00; stroke: #000000; stroke-width: 1.000000; stroke-linejoin: round; stroke-linecap: butt;  opacity: 1.000000" xlink:href="#coll0_0_b977c8ed1a2e9637caacdbb89d627c6f" x="203.265000" y="161.984310"/>
</g><g clip-path="url(#p2b015e663cfaa9e2ec2fd125965755f5)"><use style="fill: #ffff00; stroke: #000000; stroke-width: 1.000000; stroke-linejoin: round; stroke-linecap: butt;  opacity: 1.000000" xlink:href="#coll0_0_b977c8ed1a2e9637caacdbb89d627c6f" x="221.121000" y="148.814881"/>
</g><g clip-path="url(#p2b015e663cfaa9e2ec2fd125965755f5)"><use style="fill: #ffff00; stroke: #000000; stroke-width: 1.000000; stroke-linejoin: round; stroke-linecap: butt;  opacity: 1.000000" xlink:href="#coll0_0_b977c8ed1a2e9637caacdbb89d627c6f" x="250.974000" y="123.745074"/>
</g><g clip-path="url(#p2b015e663cfaa9e2ec2fd125965755f5)"><use style="fill: #ffff00; stroke: #000000; stroke-width: 1.000000; stroke-linejoin: round; stroke-linecap: butt;  opacity: 1.000000" xlink:href="#coll0_0_b977c8ed1a2e9637caacdbb89d627c6f" x="277.200000" y="99.509750"/>
</g><g clip-path="url(#p2b015e663cfaa9e2ec2fd125965755f5)"><use style="fill: #ffff00; stroke: #000000; stroke-width: 1.000000; stroke-linejoin: round; stroke-linecap: butt;  opacity: 1.000000" xlink:href="#coll0_0_b977c8ed1a2e9637caacdbb89d627c6f" x="306.774000" y="68.821013"/>
</g><g clip-path="url(#p2b015e663cfaa9e2ec2fd125965755f5)"><use style="fill: #ffff00; stroke: #000000; stroke-width: 1.000000; stroke-linejoin: round; stroke-linecap: butt;  opacity: 1.000000" xlink:href="#coll0_0_b977c8ed1a2e9637caacdbb89d627c6f" x="332.721000" y="40.843529"/>
</g></g>
<g id="line2d1">
<path style="fill: none; stroke: #0000ff; stroke-width: 1.000000; stroke-linejoin: round; stroke-linecap: square;  opacity: 1.000000" clip-path="url(#p2b015e663cfaa9e2ec2fd125965755f5)" d="M88.875000 222.406493L96.129000 218.378428L103.383000 214.600220
L112.869000 209.938289L123.750000 204.833713L136.026000 199.184874
L149.697000 192.780876L165.321000 185.004968L184.014000 174.658866
L203.265000 162.448256L221.121000 149.506938L250.974000 124.314655
L277.200000 98.966792L306.774000 68.161737L332.721000 41.065928"/>
</g>
<g id="matplotlib.axis1">
<g id="xtick1">
<g id="line2d2">
<defs><path id="m30e32995789d870ad79a2e54c91cf9c6" d="M0.000000 0.000000L0.000000 -4.000000"/></defs>
<g ><use style="fill: none; stroke: #000000; stroke-width: 0.500000; stroke-linejoin: round; stroke-linecap: butt;  opacity: 1.000000" xlink:href="#m30e32995789d870ad79a2e54c91cf9c6" x="54.000000" y="264.060000"/>
</g></g>
<g id="line2d3">
<defs><path id="m9281cae24120827b11d5ea8a7ad3e96b" d="M0.000000 0.000000L0.000000 4.000000"/></defs>
<g ><use style="fill: none; stroke: #000000; stroke-width: 0.500000; stroke-linejoin: round; stroke-linecap: butt;  opacity: 1.000000" xlink:href="#m9281cae24120827b11d5ea8a7ad3e96b" x="54.000000" y="29.340000"/>
</g></g>
<g id="text1">
<defs>
<path id="c_7a2040fe3b94fcd41d0a72c84e93b115" d="M31.781250 -66.406250q-7.609375 0.000000 -11.453125 7.500000q-3.828125 7.484375 -3.828125 22.531250q0.000000 14.984375 3.828125 22.484375q3.843750 7.500000 11.453125 7.500000q7.671875 0.000000 11.500000 -7.500000q3.843750 -7.500000 3.843750 -22.484375q0.000000 -15.046875 -3.843750 -22.531250q-3.828125 -7.500000 -11.500000 -7.500000M31.781250 -74.218750q12.265625 0.000000 18.734375 9.703125q6.468750 9.687500 6.468750 28.140625q0.000000 18.406250 -6.468750 28.109375q-6.468750 9.687500 -18.734375 9.687500q-12.250000 0.000000 -18.718750 -9.687500q-6.468750 -9.703125 -6.468750 -28.109375q0.000000 -18.453125 6.468750 -28.140625q6.468750 -9.703125 18.718750 -9.703125"/>
</defs>
<g style="fill: #000000; opacity: 1.000000" transform="translate(50.976563,276.966250)scale(0.120000)">
<use xlink:href="#c_7a2040fe3b94fcd41d0a72c84e93b115"/>
</g>
</g>
</g>
<g id="xtick2">
<g id="line2d4">
<g ><use style="fill: none; stroke: #000000; stroke-width: 0.500000; stroke-linejoin: round; stroke-linecap: butt;  opacity: 1.000000" xlink:href="#m30e32995789d870ad79a2e54c91cf9c6" x="109.800000" y="264.060000"/>
</g></g>
<g id="line2d5">
<g ><use style="fill: none; stroke: #000000; stroke-width: 0.500000; stroke-linejoin: round; stroke-linecap: butt;  opacity: 1.000000" xlink:href="#m9281cae24120827b11d5ea8a7ad3e96b" x="109.800000" y="29.340000"/>
</g></g>
<g id="text2">
<defs>
<path id="c_ed3f3ed3ebfbd18bcb9c012009a68ad1" d="M19.187500 -8.296875l34.421875 0.000000l0.000000 8.296875l-46.281250 0.000000l0.000000 -8.296875q5.609375 -5.812500 15.296875 -15.593750q9.703125 -9.796875 12.187500 -12.640625q4.734375 -5.312500 6.609375 -9.000000q1.890625 -3.687500 1.890625 -7.250000q0.000000 -5.812500 -4.078125 -9.468750q-4.078125 -3.671875 -10.625000 -3.671875q-4.640625 0.000000 -9.796875 1.609375q-5.140625 1.609375 -11.000000 4.890625l0.000000 -9.968750q5.953125 -2.390625 11.125000 -3.609375q5.187500 -1.218750 9.484375 -1.218750q11.328125 0.000000 18.062500 5.671875q6.734375 5.656250 6.734375 15.125000q0.000000 4.500000 -1.687500 8.531250q-1.671875 4.015625 -6.125000 9.484375q-1.218750 1.421875 -7.765625 8.187500q-6.531250 6.765625 -18.453125 18.921875"/>
</defs>
<g style="fill: #000000; opacity: 1.000000" transform="translate(107.018750,276.966250)scale(0.120000)">
<use xlink:href="#c_ed3f3ed3ebfbd18bcb9c012009a68ad1"/>
</g>
</g>
</g>
<g id="xtick3">
<g id="line2d6">
<g ><use style="fill: none; stroke: #000000; stroke-width: 0.500000; stroke-linejoin: round; stroke-linecap: butt;  opacity: 1.000000" xlink:href="#m30e32995789d870ad79a2e54c91cf9c6" x="165.600000" y="264.060000"/>
</g></g>
<g id="line2d7">
<g ><use style="fill: none; stroke: #000000; stroke-width: 0.500000; stroke-linejoin: round; stroke-linecap: butt;  opacity: 1.000000" xlink:href="#m9281cae24120827b11d5ea8a7ad3e96b" x="165.600000" y="29.340000"/>
</g></g>
<g id="text3">
<defs>
<path id="c_a0416418d96557a09b8c1332d34883ba" d="M37.796875 -64.312500l-24.906250 38.921875l24.906250 0.000000zM35.203125 -72.906250l12.406250 0.000000l0.000000 47.515625l10.406250 0.000000l0.000000 8.203125l-10.406250 0.000000l0.000000 17.187500l-9.812500 0.000000l0.000000 -17.187500l-32.906250 0.000000l0.000000 -9.515625z"/>
</defs>
<g style="fill: #000000; opacity: 1.000000" transform="translate(162.412500,276.810000)scale(0.120000)">
<use xlink:href="#c_a0416418d96557a09b8c1332d34883ba"/>
</g>
</g>
</g>
<g id="xtick4">
<g id="line2d8">
<g ><use style="fill: none; stroke: #000000; stroke-width: 0.500000; stroke-linejoin: round; stroke-linecap: butt;  opacity: 1.000000" xlink:href="#m30e32995789d870ad79a2e54c91cf9c6" x="221.400000" y="264.060000"/>
</g></g>
<g id="line2d9">
<g ><use style="fill: none; stroke: #000000; stroke-width: 0.500000; stroke-linejoin: round; stroke-linecap: butt;  opacity: 1.000000" xlink:href="#m9281cae24120827b11d5ea8a7ad3e96b" x="221.400000" y="29.340000"/>
</g></g>
<g id="text4">
<defs>
<path id="c_cc8d6d580d1b10c8632f7a42cd53db8a" d="M33.015625 -40.375000q-6.640625 0.000000 -10.531250 4.546875q-3.875000 4.531250 -3.875000 12.437500q0.000000 7.859375 3.875000 12.437500q3.890625 4.562500 10.531250 4.562500q6.640625 0.000000 10.515625 -4.562500q3.875000 -4.578125 3.875000 -12.437500q0.000000 -7.906250 -3.875000 -12.437500q-3.875000 -4.546875 -10.515625 -4.546875M52.593750 -71.296875l0.000000 8.984375q-3.718750 -1.750000 -7.500000 -2.671875q-3.781250 -0.937500 -7.500000 -0.937500q-9.765625 0.000000 -14.921875 6.593750q-5.140625 6.593750 -5.875000 19.921875q2.875000 -4.250000 7.218750 -6.515625q4.359375 -2.265625 9.578125 -2.265625q10.984375 0.000000 17.359375 6.671875q6.375000 6.656250 6.375000 18.125000q0.000000 11.234375 -6.640625 18.031250q-6.640625 6.781250 -17.671875 6.781250q-12.656250 0.000000 -19.343750 -9.687500q-6.687500 -9.703125 -6.687500 -28.109375q0.000000 -17.281250 8.203125 -27.562500q8.203125 -10.281250 22.015625 -10.281250q3.718750 0.000000 7.500000 0.734375q3.781250 0.734375 7.890625 2.187500"/>
</defs>
<g style="fill: #000000; opacity: 1.000000" transform="translate(218.384375,276.966250)scale(0.120000)">
<use xlink:href="#c_cc8d6d580d1b10c8632f7a42cd53db8a"/>
</g>
</g>
</g>
<g id="xtick5">
<g id="line2d10">
<g ><use style="fill: none; stroke: #000000; stroke-width: 0.500000; stroke-linejoin: round; stroke-linecap: butt;  opacity: 1.000000" xlink:href="#m30e32995789d870ad79a2e54c91cf9c6" x="277.200000" y="264.060000"/>
</g></g>
<g id="line2d11">
<g ><use style="fill: none; stroke: #000000; stroke-width: 0.500000; stroke-linejoin: round; stroke-linecap: butt;  opacity: 1.000000" xlink:href="#m9281cae24120827b11d5ea8a7ad3e96b" x="277.200000" y="29.340000"/>
</g></g>
<g id="text5">
<defs>
<path id="c_bef35738d52871942e50b9de9b122bab" d="M31.781250 -34.625000q-7.031250 0.000000 -11.062500 3.765625q-4.015625 3.765625 -4.015625 10.343750q0.000000 6.593750 4.015625 10.359375q4.031250 3.765625 11.062500 3.765625q7.031250 0.000000 11.078125 -3.781250q4.062500 -3.796875 4.062500 -10.343750q0.000000 -6.578125 -4.031250 -10.343750q-4.015625 -3.765625 -11.109375 -3.765625M21.921875 -38.812500q-6.343750 -1.562500 -9.890625 -5.906250q-3.531250 -4.359375 -3.531250 -10.609375q0.000000 -8.734375 6.218750 -13.812500q6.234375 -5.078125 17.062500 -5.078125q10.890625 0.000000 17.093750 5.078125q6.203125 5.078125 6.203125 13.812500q0.000000 6.250000 -3.546875 10.609375q-3.531250 4.343750 -9.828125 5.906250q7.125000 1.656250 11.093750 6.500000q3.984375 4.828125 3.984375 11.796875q0.000000 10.609375 -6.468750 16.281250q-6.468750 5.656250 -18.531250 5.656250q-12.046875 0.000000 -18.531250 -5.656250q-6.468750 -5.671875 -6.468750 -16.281250q0.000000 -6.968750 4.000000 -11.796875q4.015625 -4.843750 11.140625 -6.500000M18.312500 -54.390625q0.000000 5.656250 3.531250 8.828125q3.546875 3.171875 9.937500 3.171875q6.359375 0.000000 9.937500 -3.171875q3.593750 -3.171875 3.593750 -8.828125q0.000000 -5.671875 -3.593750 -8.843750q-3.578125 -3.171875 -9.937500 -3.171875q-6.390625 0.000000 -9.937500 3.171875q-3.531250 3.171875 -3.531250 8.843750"/>
</defs>
<g style="fill: #000000; opacity: 1.000000" transform="translate(274.200000,276.966250)scale(0.120000)">
<use xlink:href="#c_bef35738d52871942e50b9de9b122bab"/>
</g>
</g>
</g>
<g id="xtick6">
<g id="line2d12">
<g ><use style="fill: none; stroke: #000000; stroke-width: 0.500000; stroke-linejoin: round; stroke-linecap: butt;  opacity: 1.000000" xlink:href="#m30e32995789d870ad79a2e54c91cf9c6" x="333.000000" y="264.060000"/>
</g></g>
<g id="line2d13">
<g ><use style="fill: none; stroke: #000000; stroke-width: 0.500000; stroke-linejoin: round; stroke-linecap: butt;  opacity: 1.000000" xlink:href="#m9281cae24120827b11d5ea8a7ad3e96b" x="333.000000" y="29.340000"/>
</g></g>
<g id="text6">
<defs>
<path id="c_42baa63129a918535c52adb20d687ea7" d="M12.406250 -8.296875l16.109375 0.000000l0.000000 -55.625000l-17.531250 3.515625l0.000000 -8.984375l17.437500 -3.515625l9.859375 0.000000l0.000000 64.609375l16.109375 0.000000l0.000000 8.296875l-41.984375 0.000000z"/>
</defs>
<g style="fill: #000000; opacity: 1.000000" transform="translate(326.414063,276.966250)scale(0.120000)">
<use xlink:href="#c_42baa63129a918535c52adb20d687ea7"/>
<use xlink:href="#c_7a2040fe3b94fcd41d0a72c84e93b115" x="63.623047"/>
</g>
</g>
</g>
<g id="xtick7">
<g id="line2d14">
<g ><use style="fill: none; stroke: #000000; stroke-width: 0.500000; stroke-linejoin: round; stroke-linecap: butt;  opacity: 1.000000" xlink:href="#m30e32995789d870ad79a2e54c91cf9c6" x="388.800000" y="264.060000"/>
</g></g>
<g id="line2d15">
<g ><use style="fill: none; stroke: #000000; stroke-width: 0.500000; stroke-linejoin: round; stroke-linecap: butt;  opacity: 1.000000" xlink:href="#m9281cae24120827b11d5ea8a7ad3e96b" x="388.800000" y="29.340000"/>
</g></g>
<g id="text7">
<g style="fill: #000000; opacity: 1.000000" transform="translate(382.417187,276.966250)scale(0.120000)">
<use xlink:href="#c_42baa63129a918535c52adb20d687ea7"/>
<use xlink:href="#c_ed3f3ed3ebfbd18bcb9c012009a68ad1" x="63.623047"/>
</g>
</g>
</g>
<g id="text8">
<defs>
<path id="c_786535fd61bcec8cdbf876618dde5ce3" d="M7.812500 -7.171875q0.000000 -1.859375 0.781250 -3.906250l8.109375 -21.546875q1.312500 -3.656250 1.312500 -6.000000q0.000000 -2.984375 -2.187500 -2.984375q-3.968750 0.000000 -6.531250 4.078125q-2.562500 4.078125 -3.781250 9.109375q-0.187500 0.640625 -0.828125 0.640625l-1.171875 0.000000q-0.828125 0.000000 -0.828125 -0.937500l0.000000 -0.281250q1.609375 -5.968750 4.921875 -10.578125q3.328125 -4.609375 8.406250 -4.609375q3.562500 0.000000 6.031250 2.343750q2.468750 2.343750 2.468750 5.953125q0.000000 1.859375 -0.828125 3.906250l-8.109375 21.484375q-1.375000 3.328125 -1.375000 6.000000q0.000000 2.984375 2.296875 2.984375q3.906250 0.000000 6.515625 -4.171875q2.625000 -4.171875 3.687500 -9.015625q0.203125 -0.578125 0.781250 -0.578125l1.234375 0.000000q0.390625 0.000000 0.625000 0.265625q0.250000 0.265625 0.250000 0.609375q0.000000 0.093750 -0.093750 0.296875q-1.375000 5.656250 -4.765625 10.453125q-3.390625 4.781250 -8.421875 4.781250q-3.515625 0.000000 -6.015625 -2.421875q-2.484375 -2.421875 -2.484375 -5.875000M19.093750 -60.593750q0.000000 -2.109375 1.750000 -3.812500q1.765625 -1.703125 3.859375 -1.703125q1.718750 0.000000 2.812500 1.046875q1.093750 1.046875 1.093750 2.656250q0.000000 2.250000 -1.781250 3.937500q-1.781250 1.687500 -3.921875 1.687500q-1.609375 0.000000 -2.718750 -1.093750q-1.093750 -1.109375 -1.093750 -2.718750"/>
<path id="c_bd2880cc926fc00b7f332ad1632b5ed2" d="M20.125000 1.125000q-4.750000 0.000000 -8.437500 -2.250000q-3.671875 -2.250000 -5.687500 -6.046875q-2.000000 -3.812500 -2.000000 -8.656250q0.000000 -6.781250 3.781250 -13.421875q3.796875 -6.640625 10.062500 -10.781250q6.281250 -4.156250 13.156250 -4.156250q3.718750 0.000000 6.625000 1.265625q2.906250 1.265625 5.046875 3.562500q2.156250 2.296875 3.296875 5.375000q1.156250 3.078125 1.156250 6.687500q0.000000 5.218750 -2.203125 10.281250q-2.203125 5.046875 -6.031250 9.171875q-3.828125 4.125000 -8.765625 6.546875q-4.921875 2.421875 -10.000000 2.421875M20.312500 -1.515625q4.437500 0.000000 8.125000 -3.015625q3.687500 -3.031250 6.046875 -7.640625q2.375000 -4.625000 3.640625 -9.750000q1.281250 -5.125000 1.281250 -9.281250q0.000000 -4.343750 -2.171875 -7.375000q-2.171875 -3.031250 -6.421875 -3.031250q-5.859375 0.000000 -10.265625 5.015625q-4.390625 5.000000 -6.609375 11.968750q-2.218750 6.953125 -2.218750 12.703125q0.000000 4.359375 2.218750 7.390625q2.218750 3.015625 6.375000 3.015625"/>
<path id="c_ada8429b49f97e9b59ddeeed8d06fc73" d="M10.593750 -10.890625q0.000000 -3.265625 0.875000 -6.703125q0.890625 -3.453125 2.468750 -7.671875q1.593750 -4.234375 2.765625 -7.359375q1.312500 -3.656250 1.312500 -6.000000q0.000000 -2.984375 -2.187500 -2.984375q-3.968750 0.000000 -6.531250 4.078125q-2.562500 4.078125 -3.781250 9.109375q-0.187500 0.640625 -0.828125 0.640625l-1.171875 0.000000q-0.828125 0.000000 -0.828125 -0.937500l0.000000 -0.281250q1.609375 -5.968750 4.921875 -10.578125q3.328125 -4.609375 8.406250 -4.609375q3.562500 0.000000 6.031250 2.343750q2.468750 2.343750 2.468750 5.953125q0.000000 1.859375 -0.828125 3.906250q-0.437500 1.218750 -2.000000 5.328125q-1.562500 4.093750 -2.406250 6.781250q-0.828125 2.687500 -1.359375 5.281250q-0.531250 2.578125 -0.531250 5.171875q0.000000 3.312500 1.406250 5.609375q1.421875 2.296875 4.593750 2.296875q6.390625 0.000000 11.234375 -7.906250q0.093750 -0.390625 0.156250 -0.750000q0.078125 -0.375000 0.125000 -0.718750l7.187500 -29.000000q0.343750 -1.328125 1.562500 -2.265625q1.218750 -0.953125 2.640625 -0.953125q1.218750 0.000000 2.109375 0.781250q0.906250 0.781250 0.906250 2.046875q0.000000 0.578125 -0.093750 0.781250l-7.218750 28.812500q-0.687500 2.968750 -0.687500 4.875000q0.000000 4.296875 2.875000 4.296875q3.218750 0.000000 4.812500 -3.968750q1.593750 -3.984375 2.703125 -9.218750q0.203125 -0.578125 0.781250 -0.578125l1.234375 0.000000q0.390625 0.000000 0.625000 0.343750q0.250000 0.343750 0.250000 0.625000q-1.078125 4.296875 -2.078125 7.375000q-1.000000 3.078125 -3.156250 5.578125q-2.140625 2.484375 -5.359375 2.484375q-3.171875 0.000000 -5.687500 -1.734375q-2.515625 -1.734375 -3.406250 -4.718750q-2.281250 2.937500 -5.312500 4.703125q-3.031250 1.750000 -6.406250 1.750000q-5.750000 0.000000 -9.171875 -3.140625q-3.421875 -3.156250 -3.421875 -8.875000"/>
<path id="c_d385b7bbe58e08154ff387bfd902116e" d="M6.203125 -8.109375q0.000000 -1.468750 0.296875 -2.781250l7.218750 -28.703125l-10.500000 0.000000q-1.015625 0.000000 -1.015625 -1.328125q0.390625 -2.187500 1.312500 -2.187500l11.078125 0.000000l4.015625 -16.312500q0.390625 -1.328125 1.562500 -2.250000q1.171875 -0.921875 2.625000 -0.921875q1.281250 0.000000 2.125000 0.765625q0.859375 0.750000 0.859375 2.015625q0.000000 0.296875 -0.031250 0.468750q-0.015625 0.156250 -0.062500 0.359375l-4.000000 15.875000l10.296875 0.000000q1.031250 0.000000 1.031250 1.312500q-0.062500 0.250000 -0.203125 0.843750q-0.140625 0.578125 -0.390625 0.968750q-0.250000 0.390625 -0.734375 0.390625l-10.890625 0.000000l-7.171875 28.906250q-0.734375 2.828125 -0.734375 4.875000q0.000000 4.296875 2.937500 4.296875q4.390625 0.000000 7.781250 -4.125000q3.390625 -4.125000 5.203125 -9.062500q0.390625 -0.578125 0.781250 -0.578125l1.218750 0.000000q0.390625 0.000000 0.625000 0.265625q0.250000 0.265625 0.250000 0.609375q0.000000 0.203125 -0.093750 0.296875q-2.203125 6.046875 -6.406250 10.640625q-4.187500 4.593750 -9.609375 4.593750q-3.953125 0.000000 -6.671875 -2.578125q-2.703125 -2.593750 -2.703125 -6.656250"/>
<path id="c_06a7a4502300c60b4feec85758ecf628" d="M31.000000 24.812500q-5.562500 -4.406250 -9.593750 -10.093750q-4.015625 -5.687500 -6.593750 -12.140625q-2.562500 -6.437500 -3.828125 -13.468750q-1.265625 -7.031250 -1.265625 -14.109375q0.000000 -7.171875 1.265625 -14.203125q1.265625 -7.031250 3.875000 -13.531250q2.625000 -6.500000 6.671875 -12.156250q4.062500 -5.671875 9.468750 -9.921875q0.000000 -0.187500 0.500000 -0.187500l0.921875 0.000000q0.296875 0.000000 0.531250 0.265625q0.250000 0.265625 0.250000 0.609375q0.000000 0.437500 -0.187500 0.640625q-4.890625 4.781250 -8.140625 10.250000q-3.250000 5.468750 -5.234375 11.656250q-1.968750 6.171875 -2.843750 12.796875q-0.875000 6.609375 -0.875000 13.781250q0.000000 31.781250 16.984375 48.296875q0.296875 0.281250 0.296875 0.828125q0.000000 0.234375 -0.265625 0.546875q-0.265625 0.328125 -0.515625 0.328125l-0.921875 0.000000q-0.500000 0.000000 -0.500000 -0.187500"/>
<path id="c_2f34324f9b6cd00b83d7659547482159" d="M4.500000 -0.000000q-0.984375 0.000000 -0.984375 -1.312500q0.390625 -2.203125 1.265625 -2.203125q4.062500 0.000000 7.015625 -1.609375q2.953125 -1.609375 5.093750 -4.984375q0.203125 -0.187500 0.203125 -0.187500l35.687500 -60.218750q0.781250 -1.062500 1.906250 -1.062500l1.312500 0.000000q0.296875 0.000000 0.593750 0.125000q0.296875 0.109375 0.515625 0.390625q0.218750 0.265625 0.218750 0.546875l6.046875 64.609375q0.000000 0.437500 0.437500 1.312500q0.984375 1.078125 7.484375 1.078125q1.015625 0.000000 1.015625 1.312500q-0.343750 1.328125 -0.562500 1.765625q-0.218750 0.437500 -1.140625 0.437500l-25.000000 0.000000q-0.937500 0.000000 -0.937500 -1.312500q0.546875 -2.203125 1.328125 -2.203125q7.906250 0.000000 8.390625 -2.687500l-1.515625 -16.500000l-24.656250 0.000000l-8.000000 13.421875q-0.734375 1.078125 -0.734375 2.500000q0.000000 1.750000 1.687500 2.515625q1.687500 0.750000 3.734375 0.750000q0.968750 0.000000 0.968750 1.312500q-0.343750 1.421875 -0.546875 1.812500q-0.187500 0.390625 -1.109375 0.390625zM30.171875 -26.218750l22.312500 0.000000l-2.968750 -32.375000z"/>
<path id="c_b865a8a4692360a5eaaff4ecf56eccf7" d="M6.500000 25.000000q-0.890625 0.000000 -0.890625 -0.875000q0.000000 -0.437500 0.203125 -0.640625q17.093750 -16.703125 17.093750 -48.484375q0.000000 -31.781250 -16.906250 -48.296875q-0.390625 -0.234375 -0.390625 -0.828125q0.000000 -0.343750 0.265625 -0.609375q0.281250 -0.265625 0.625000 -0.265625l0.921875 0.000000q0.296875 0.000000 0.484375 0.187500q7.187500 5.671875 11.968750 13.781250q4.781250 8.093750 7.000000 17.281250q2.234375 9.171875 2.234375 18.750000q0.000000 7.078125 -1.203125 13.937500q-1.203125 6.859375 -3.812500 13.515625q-2.609375 6.671875 -6.609375 12.312500q-4.000000 5.640625 -9.578125 10.046875q-0.187500 0.187500 -0.484375 0.187500z"/>
</defs>
<g id="mathtext1">
<g style="fill: #000000" transform="translate(194.900000,298.138125)">
<use xlink:href="#c_786535fd61bcec8cdbf876618dde5ce3" transform="translate(0.000000,-4.000000)scale(0.160000)"/>
<use xlink:href="#c_bd2880cc926fc00b7f332ad1632b5ed2" transform="translate(5.507813,-4.000000)scale(0.160000)"/>
<use xlink:href="#c_ada8429b49f97e9b59ddeeed8d06fc73" transform="translate(13.250000,-4.000000)scale(0.160000)"/>
<use xlink:href="#c_d385b7bbe58e08154ff387bfd902116e" transform="translate(22.398438,-4.000000)scale(0.160000)"/>
<use xlink:href="#c_06a7a4502300c60b4feec85758ecf628" transform="translate(28.171875,-4.000000)scale(0.160000)"/>
<use xlink:href="#c_2f34324f9b6cd00b83d7659547482159" transform="translate(34.382813,-4.000000)scale(0.160000)"/>
<use xlink:href="#c_b865a8a4692360a5eaaff4ecf56eccf7" transform="translate(46.382813,-4.000000)scale(0.160000)"/>
</g>
</g>
</g>
</g>
<g id="matplotlib.axis2">
<g id="ytick1">
<g id="line2d16">
<defs><path id="m3400efa6b1638b3fea9e19e898273957" d="M0.000000 0.000000L4.000000 0.000000"/></defs>
<g ><use style="fill: none; stroke: #000000; stroke-width: 0.500000; stroke-linejoin: round; stroke-linecap: butt;  opacity: 1.000000" xlink:href="#m3400efa6b1638b3fea9e19e898273957" x="54.000000" y="264.060000"/>
</g></g>
<g id="line2d17">
<defs><path id="m20b58b2501143cb5e0a5e8f1ef6f1643" d="M0.000000 0.000000L-4.000000 0.000000"/></defs>
<g ><use style="fill: none; stroke: #000000; stroke-width: 0.500000; stroke-linejoin: round; stroke-linecap: butt;  opacity: 1.000000" xlink:href="#m20b58b2501143cb5e0a5e8f1ef6f1643" x="388.800000" y="264.060000"/>
</g></g>
<g id="text9">
<defs>
<path id="c_ed3e21196fb739f392806f09ca0594ef" d="M10.687500 -12.406250l10.312500 0.000000l0.000000 12.406250l-10.312500 0.000000z"/>
</defs>
<g style="fill: #000000; opacity: 1.000000" transform="translate(32.375000,268.427188)scale(0.120000)">
<use xlink:href="#c_7a2040fe3b94fcd41d0a72c84e93b115"/>
<use xlink:href="#c_ed3e21196fb739f392806f09ca0594ef" x="63.623047"/>
<use xlink:href="#c_a0416418d96557a09b8c1332d34883ba" x="95.410156"/>
</g>
</g>
</g>
<g id="ytick2">
<g id="line2d18">
<g ><use style="fill: none; stroke: #000000; stroke-width: 0.500000; stroke-linejoin: round; stroke-linecap: butt;  opacity: 1.000000" xlink:href="#m3400efa6b1638b3fea9e19e898273957" x="54.000000" y="230.528571"/>
</g></g>
<g id="line2d19">
<g ><use style="fill: none; stroke: #000000; stroke-width: 0.500000; stroke-linejoin: round; stroke-linecap: butt;  opacity: 1.000000" xlink:href="#m20b58b2501143cb5e0a5e8f1ef6f1643" x="388.800000" y="230.528571"/>
</g></g>
<g id="text10">
<g style="fill: #000000; opacity: 1.000000" transform="translate(32.468750,234.895759)scale(0.120000)">
<use xlink:href="#c_7a2040fe3b94fcd41d0a72c84e93b115"/>
<use xlink:href="#c_ed3e21196fb739f392806f09ca0594ef" x="63.623047"/>
<use xlink:href="#c_cc8d6d580d1b10c8632f7a42cd53db8a" x="95.410156"/>
</g>
</g>
</g>
<g id="ytick3">
<g id="line2d20">
<g ><use style="fill: none; stroke: #000000; stroke-width: 0.500000; stroke-linejoin: round; stroke-linecap: butt;  opacity: 1.000000" xlink:href="#m3400efa6b1638b3fea9e19e898273957" x="54.000000" y="196.997143"/>
</g></g>
<g id="line2d21">
<g ><use style="fill: none; stroke: #000000; stroke-width: 0.500000; stroke-linejoin: round; stroke-linecap: butt;  opacity: 1.000000" xlink:href="#m20b58b2501143cb5e0a5e8f1ef6f1643" x="388.800000" y="196.997143"/>
</g></g>
<g id="text11">
<g style="fill: #000000; opacity: 1.000000" transform="translate(32.531250,201.364330)scale(0.120000)">
<use xlink:href="#c_7a2040fe3b94fcd41d0a72c84e93b115"/>
<use xlink:href="#c_ed3e21196fb739f392806f09ca0594ef" x="63.623047"/>
<use xlink:href="#c_bef35738d52871942e50b9de9b122bab" x="95.410156"/>
</g>
</g>
</g>
<g id="ytick4">
<g id="line2d22">
<g ><use style="fill: none; stroke: #000000; stroke-width: 0.500000; stroke-linejoin: round; stroke-linecap: butt;  opacity: 1.000000" xlink:href="#m3400efa6b1638b3fea9e19e898273957" x="54.000000" y="163.465714"/>
</g></g>
<g id="line2d23">
<g ><use style="fill: none; stroke: #000000; stroke-width: 0.500000; stroke-linejoin: round; stroke-linecap: butt;  opacity: 1.000000" xlink:href="#m20b58b2501143cb5e0a5e8f1ef6f1643" x="388.800000" y="163.465714"/>
</g></g>
<g id="text12">
<g style="fill: #000000; opacity: 1.000000" transform="translate(33.015625,167.832902)scale(0.120000)">
<use xlink:href="#c_42baa63129a918535c52adb20d687ea7"/>
<use xlink:href="#c_ed3e21196fb739f392806f09ca0594ef" x="63.623047"/>
<use xlink:href="#c_7a2040fe3b94fcd41d0a72c84e93b115" x="95.410156"/>
</g>
</g>
</g>
<g id="ytick5">
<g id="line2d24">
<g ><use style="fill: none; stroke: #000000; stroke-width: 0.500000; stroke-linejoin: round; stroke-linecap: butt;  opacity: 1.000000" xlink:href="#m3400efa6b1638b3fea9e19e898273957" x="54.000000" y="129.934286"/>
</g></g>
<g id="line2d25">
<g ><use style="fill: none; stroke: #000000; stroke-width: 0.500000; stroke-linejoin: round; stroke-linecap: butt;  opacity: 1.000000" xlink:href="#m20b58b2501143cb5e0a5e8f1ef6f1643" x="388.800000" y="129.934286"/>
</g></g>
<g id="text13">
<g style="fill: #000000; opacity: 1.000000" transform="translate(33.421875,134.387411)scale(0.120000)">
<use xlink:href="#c_42baa63129a918535c52adb20d687ea7"/>
<use xlink:href="#c_ed3e21196fb739f392806f09ca0594ef" x="63.623047"/>
<use xlink:href="#c_ed3f3ed3ebfbd18bcb9c012009a68ad1" x="95.410156"/>
</g>
</g>
</g>
<g id="ytick6">
<g id="line2d26">
<g ><use style="fill: none; stroke: #000000; stroke-width: 0.500000; stroke-linejoin: round; stroke-linecap: butt;  opacity: 1.000000" xlink:href="#m3400efa6b1638b3fea9e19e898273957" x="54.000000" y="96.402857"/>
</g></g>
<g id="line2d27">
<g ><use style="fill: none; stroke: #000000; stroke-width: 0.500000; stroke-linejoin: round; stroke-linecap: butt;  opacity: 1.000000" xlink:href="#m20b58b2501143cb5e0a5e8f1ef6f1643" x="388.800000" y="96.402857"/>
</g></g>
<g id="text14">
<g style="fill: #000000; opacity: 1.000000" transform="translate(32.890625,100.777857)scale(0.120000)">
<use xlink:href="#c_42baa63129a918535c52adb20d687ea7"/>
<use xlink:href="#c_ed3e21196fb739f392806f09ca0594ef" x="63.623047"/>
<use xlink:href="#c_a0416418d96557a09b8c1332d34883ba" x="95.410156"/>
</g>
</g>
</g>
<g id="ytick7">
<g id="line2d28">
<g ><use style="fill: none; stroke: #000000; stroke-width: 0.500000; stroke-linejoin: round; stroke-linecap: butt;  opacity: 1.000000" xlink:href="#m3400efa6b1638b3fea9e19e898273957" x="54.000000" y="62.871429"/>
</g></g>
<g id="line2d29">
<g ><use style="fill: none; stroke: #000000; stroke-width: 0.500000; stroke-linejoin: round; stroke-linecap: butt;  opacity: 1.000000" xlink:href="#m20b58b2501143cb5e0a5e8f1ef6f1643" x="388.800000" y="62.871429"/>
</g></g>
<g id="text15">
<g style="fill: #000000; opacity: 1.000000" transform="translate(32.984375,67.238616)scale(0.120000)">
<use xlink:href="#c_42baa63129a918535c52adb20d687ea7"/>
<use xlink:href="#c_ed3e21196fb739f392806f09ca0594ef" x="63.623047"/>
<use xlink:href="#c_cc8d6d580d1b10c8632f7a42cd53db8a" x="95.410156"/>
</g>
</g>
</g>
<g id="ytick8">
<g id="line2d30">
<g ><use style="fill: none; stroke: #000000; stroke-width: 0.500000; stroke-linejoin: round; stroke-linecap: butt;  opacity: 1.000000" xlink:href="#m3400efa6b1638b3fea9e19e898273957" x="54.000000" y="29.340000"/>
</g></g>
<g id="line2d31">
<g ><use style="fill: none; stroke: #000000; stroke-width: 0.500000; stroke-linejoin: round; stroke-linecap: butt;  opacity: 1.000000" xlink:href="#m20b58b2501143cb5e0a5e8f1ef6f1643" x="388.800000" y="29.340000"/>
</g></g>
<g id="text16">
<g style="fill: #000000; opacity: 1.000000" transform="translate(33.046875,33.707188)scale(0.120000)">
<use xlink:href="#c_42baa63129a918535c52adb20d687ea7"/>
<use xlink:href="#c_ed3e21196fb739f392806f09ca0594ef" x="63.623047"/>
<use xlink:href="#c_bef35738d52871942e50b9de9b122bab" x="95.410156"/>
</g>
</g>
</g>
<g id="text17">
<defs>
<path id="c_8b6646949194adb0e90a6189c9da3b04" d="M4.390625 -8.109375q0.000000 -0.296875 0.078125 -0.875000q0.078125 -0.593750 0.140625 -1.140625q0.078125 -0.562500 0.078125 -0.859375l12.406250 -49.515625q0.390625 -1.703125 0.484375 -2.687500q0.000000 -1.609375 -6.500000 -1.609375q-0.968750 0.000000 -0.968750 -1.312500q0.046875 -0.250000 0.218750 -0.875000q0.171875 -0.640625 0.437500 -0.984375q0.265625 -0.343750 0.765625 -0.343750l13.468750 -1.078125q1.218750 0.000000 1.218750 1.281250l-14.406250 57.515625q-0.734375 1.609375 -0.734375 4.781250q0.000000 4.296875 2.937500 4.296875q3.078125 0.000000 4.609375 -3.828125q1.546875 -3.843750 2.765625 -9.359375q0.187500 -0.578125 0.828125 -0.578125l1.171875 0.000000q0.390625 0.000000 0.656250 0.312500q0.265625 0.312500 0.265625 0.656250q-1.171875 4.843750 -2.125000 7.656250q-0.953125 2.796875 -3.046875 5.296875q-2.093750 2.484375 -5.328125 2.484375q-4.000000 0.000000 -6.718750 -2.578125q-2.703125 -2.593750 -2.703125 -6.656250"/>
<path id="c_75c38898ea241ebcbd0918e2320a1d61" d="M8.687500 -6.109375q2.687500 4.593750 10.796875 4.593750q3.515625 0.000000 6.687500 -1.187500q3.171875 -1.203125 5.250000 -3.593750q2.078125 -2.390625 2.078125 -5.812500q0.000000 -2.593750 -1.859375 -4.250000q-1.859375 -1.656250 -4.546875 -2.250000l-5.406250 -1.062500q-3.718750 -0.937500 -6.109375 -3.468750q-2.390625 -2.546875 -2.390625 -6.156250q0.000000 -4.437500 2.406250 -7.859375q2.421875 -3.421875 6.375000 -5.218750q3.953125 -1.812500 8.203125 -1.812500q4.546875 0.000000 8.125000 2.171875q3.593750 2.171875 3.593750 6.421875q0.000000 2.296875 -1.296875 4.062500q-1.281250 1.750000 -3.578125 1.750000q-1.328125 0.000000 -2.281250 -0.859375q-0.937500 -0.859375 -0.937500 -2.171875q0.000000 -1.171875 0.656250 -2.265625q0.656250 -1.109375 1.750000 -1.765625q1.109375 -0.656250 2.281250 -0.656250q-0.890625 -2.156250 -3.312500 -3.125000q-2.406250 -0.984375 -5.187500 -0.984375q-2.546875 0.000000 -5.093750 1.031250q-2.531250 1.031250 -4.078125 3.015625q-1.531250 1.968750 -1.531250 4.656250q0.000000 1.796875 1.265625 3.171875q1.281250 1.359375 3.140625 1.953125l5.812500 1.171875q2.781250 0.578125 5.093750 2.078125q2.328125 1.484375 3.656250 3.765625q1.343750 2.265625 1.343750 5.187500q0.000000 3.718750 -2.078125 7.328125q-2.062500 3.609375 -5.093750 5.765625q-5.328125 3.609375 -13.031250 3.609375q-5.328125 0.000000 -9.781250 -2.437500q-4.437500 -2.453125 -4.437500 -7.281250q0.000000 -2.734375 1.578125 -4.750000q1.593750 -2.031250 4.328125 -2.031250q1.625000 0.000000 2.718750 0.984375q1.093750 0.968750 1.093750 2.578125q0.000000 2.296875 -1.718750 4.000000q-1.703125 1.703125 -3.984375 1.703125z"/>
<path id="c_67a1adfdf9fbdb7189c9402c3f73ee06" d="M20.125000 1.125000q-4.796875 0.000000 -8.390625 -2.484375q-3.578125 -2.500000 -5.468750 -6.718750q-1.875000 -4.234375 -1.875000 -8.921875q0.000000 -7.125000 3.593750 -13.390625q3.593750 -6.281250 9.734375 -10.031250q6.156250 -3.765625 13.187500 -3.765625q4.296875 0.000000 7.500000 2.218750q3.203125 2.218750 3.203125 6.375000q0.000000 5.765625 -4.593750 8.578125q-4.593750 2.796875 -10.359375 3.453125q-5.750000 0.656250 -12.734375 0.656250l-0.296875 0.000000q-1.609375 5.968750 -1.609375 10.203125q0.000000 4.453125 2.046875 7.828125q2.046875 3.359375 6.250000 3.359375q5.953125 0.000000 11.437500 -2.734375q5.500000 -2.734375 8.968750 -7.562500q0.296875 -0.296875 0.781250 -0.296875q0.500000 0.000000 1.000000 0.562500q0.515625 0.562500 0.515625 1.046875q0.000000 0.390625 -0.187500 0.593750q-3.671875 5.125000 -9.875000 8.078125q-6.187500 2.953125 -12.828125 2.953125M14.203125 -25.484375q5.812500 0.000000 10.750000 -0.531250q4.937500 -0.546875 8.937500 -2.718750q4.000000 -2.171875 4.000000 -6.765625q0.000000 -1.859375 -1.031250 -3.250000q-1.015625 -1.390625 -2.656250 -2.125000q-1.640625 -0.734375 -3.390625 -0.734375q-4.250000 0.000000 -7.640625 2.296875q-3.390625 2.296875 -5.593750 5.984375q-2.203125 3.687500 -3.375000 7.843750"/>
<path id="c_251a4d58cac0151c5a1822fd57888890" d="M17.828125 1.125000l-4.640625 -63.718750q-0.343750 -1.468750 -2.203125 -1.828125q-1.859375 -0.375000 -4.593750 -0.375000q-0.968750 0.000000 -0.968750 -1.312500q0.343750 -1.281250 0.531250 -1.734375q0.203125 -0.468750 1.125000 -0.468750l23.828125 0.000000q0.984375 0.000000 0.984375 1.312500q-0.390625 2.203125 -1.281250 2.203125q-8.000000 0.000000 -8.484375 2.781250l3.562500 50.484375l25.000000 -43.546875l-0.484375 -7.515625q-0.343750 -1.468750 -2.203125 -1.828125q-1.859375 -0.375000 -4.593750 -0.375000q-1.015625 0.000000 -1.015625 -1.312500q0.328125 -1.281250 0.515625 -1.734375q0.203125 -0.468750 1.187500 -0.468750l23.828125 0.000000q0.968750 0.000000 0.968750 1.312500q-0.046875 0.250000 -0.187500 0.843750q-0.140625 0.578125 -0.390625 0.968750q-0.250000 0.390625 -0.734375 0.390625q-8.062500 0.000000 -8.500000 2.781250l0.000000 0.734375l3.625000 49.750000l27.187500 -47.453125q0.593750 -1.078125 0.593750 -2.093750q0.000000 -2.062500 -2.015625 -2.890625q-2.000000 -0.828125 -4.484375 -0.828125q-0.968750 0.000000 -0.968750 -1.312500q0.187500 -0.781250 0.312500 -1.218750q0.125000 -0.453125 0.437500 -0.718750q0.312500 -0.265625 0.953125 -0.265625l19.093750 0.000000q0.968750 0.000000 0.968750 1.312500q-0.046875 0.250000 -0.203125 0.859375q-0.140625 0.609375 -0.406250 0.984375q-0.265625 0.359375 -0.656250 0.359375q-7.125000 0.000000 -10.843750 6.500000q-0.281250 0.281250 -0.281250 0.281250l-33.890625 59.140625q-0.546875 1.078125 -1.718750 1.078125l-0.781250 0.000000q-1.218750 0.000000 -1.218750 -1.078125l-3.796875 -51.515625l-29.406250 51.515625q-0.734375 1.078125 -1.750000 1.078125l-0.828125 0.000000q-1.171875 0.000000 -1.171875 -1.078125"/>
</defs>
<g id="mathtext2">
<g style="fill: #000000" transform="translate(27.375000,181.700000)rotate(-90.0)">
<use xlink:href="#c_8b6646949194adb0e90a6189c9da3b04" transform="translate(0.000000,-4.000000)scale(0.160000)"/>
<use xlink:href="#c_bd2880cc926fc00b7f332ad1632b5ed2" transform="translate(4.765625,-4.000000)scale(0.160000)"/>
<use xlink:href="#c_75c38898ea241ebcbd0918e2320a1d61" transform="translate(12.507813,-4.000000)scale(0.160000)"/>
<use xlink:href="#c_75c38898ea241ebcbd0918e2320a1d61" transform="translate(19.992188,-4.000000)scale(0.160000)"/>
<use xlink:href="#c_67a1adfdf9fbdb7189c9402c3f73ee06" transform="translate(27.476563,-4.000000)scale(0.160000)"/>
<use xlink:href="#c_75c38898ea241ebcbd0918e2320a1d61" transform="translate(34.914063,-4.000000)scale(0.160000)"/>
<use xlink:href="#c_06a7a4502300c60b4feec85758ecf628" transform="translate(42.398438,-4.000000)scale(0.160000)"/>
<use xlink:href="#c_251a4d58cac0151c5a1822fd57888890" transform="translate(48.609375,-4.000000)scale(0.160000)"/>
<use xlink:href="#c_b865a8a4692360a5eaaff4ecf56eccf7" transform="translate(63.710938,-4.000000)scale(0.160000)"/>
</g>
</g>
</g>
</g>
<g id="patch3">
<path style="fill: none; stroke: #000000; stroke-width: 1.000000; stroke-linejoin: round; stroke-linecap: square;  opacity: 1.000000"  d="M54.000000 29.340000L388.800000 29.340000"/>
</g>
<g id="patch4">
<path style="fill: none; stroke: #000000; stroke-width: 1.000000; stroke-linejoin: round; stroke-linecap: square;  opacity: 1.000000"  d="M388.800000 264.060000L388.800000 29.340000"/>
</g>
<g id="patch5">
<path style="fill: none; stroke: #000000; stroke-width: 1.000000; stroke-linejoin: round; stroke-linecap: square;  opacity: 1.000000"  d="M54.000000 264.060000L388.800000 264.060000"/>
</g>
<g id="patch6">
<path style="fill: none; stroke: #000000; stroke-width: 1.000000; stroke-linejoin: round; stroke-linecap: square;  opacity: 1.000000"  d="M54.000000 264.060000L54.000000 29.340000"/>
</g>
<g id="legend1">
<g id="patch7">
<path style="fill: #ffffff; stroke: #000000; stroke-width: 1.000000; stroke-linejoin: round; stroke-linecap: square;  opacity: 1.000000"  d="M61.200000 79.650625L180.477500 79.650625L180.477500 36.540000
L61.200000 36.540000L61.200000 79.650625z"/>
</g>
<g id="CircleCollection2">
<defs>
<path id="coll1_0_b977c8ed1a2e9637caacdbb89d627c6f" d="M0.000000 3.568248C0.946310 3.568248 1.853990 3.192275 2.523133 2.523133
C3.192275 1.853990 3.568248 0.946310 3.568248 0.000000
C3.568248 -0.946310 3.192275 -1.853990 2.523133 -2.523133
C1.853990 -3.192275 0.946310 -3.568248 0.000000 -3.568248
C-0.946310 -3.568248 -1.853990 -3.192275 -2.523133 -2.523133
C-3.192275 -1.853990 -3.568248 -0.946310 -3.568248 0.000000
C-3.568248 0.946310 -3.192275 1.853990 -2.523133 2.523133
C-1.853990 3.192275 -0.946310 3.568248 0.000000 3.568248z"/>
<path id="coll1_1_b977c8ed1a2e9637caacdbb89d627c6f" d="M0.000000 3.568248C0.946310 3.568248 1.853990 3.192275 2.523133 2.523133
C3.192275 1.853990 3.568248 0.946310 3.568248 0.000000
C3.568248 -0.946310 3.192275 -1.853990 2.523133 -2.523133
C1.853990 -3.192275 0.946310 -3.568248 0.000000 -3.568248
C-0.946310 -3.568248 -1.853990 -3.192275 -2.523133 -2.523133
C-3.192275 -1.853990 -3.568248 -0.946310 -3.568248 0.000000
C-3.568248 0.946310 -3.192275 1.853990 -2.523133 2.523133
C-1.853990 3.192275 -0.946310 3.568248 0.000000 3.568248z"/>
<path id="coll1_2_b977c8ed1a2e9637caacdbb89d627c6f" d="M0.000000 3.568248C0.946310 3.568248 1.853990 3.192275 2.523133 2.523133
C3.192275 1.853990 3.568248 0.946310 3.568248 0.000000
C3.568248 -0.946310 3.192275 -1.853990 2.523133 -2.523133
C1.853990 -3.192275 0.946310 -3.568248 0.000000 -3.568248
C-0.946310 -3.568248 -1.853990 -3.192275 -2.523133 -2.523133
C-3.192275 -1.853990 -3.568248 -0.946310 -3.568248 0.000000
C-3.568248 0.946310 -3.192275 1.853990 -2.523133 2.523133
C-1.853990 3.192275 -0.946310 3.568248 0.000000 3.568248z"/>
</defs>
<use style="fill: #ffff00; stroke: #000000; stroke-width: 1.000000; stroke-linejoin: round; stroke-linecap: butt;  opacity: 1.000000" xlink:href="#coll1_0_b977c8ed1a2e9637caacdbb89d627c6f" x="71.280000" y="49.160625"/>
<use style="fill: #ffff00; stroke: #000000; stroke-width: 1.000000; stroke-linejoin: round; stroke-linecap: butt;  opacity: 1.000000" xlink:href="#coll1_1_b977c8ed1a2e9637caacdbb89d627c6f" x="81.360000" y="47.900625"/>
<use style="fill: #ffff00; stroke: #000000; stroke-width: 1.000000; stroke-linejoin: round; stroke-linecap: butt;  opacity: 1.000000" xlink:href="#coll1_2_b977c8ed1a2e9637caacdbb89d627c6f" x="91.440000" y="49.790625"/>
</g>
<g id="text18">
<defs>
<path id="c_72234ddc5dcad8d05c893ef0371171da" d="M9.812500 -72.906250l14.703125 0.000000l18.593750 49.609375l18.703125 -49.609375l14.703125 0.000000l0.000000 72.906250l-9.625000 0.000000l0.000000 -64.015625l-18.796875 50.000000l-9.906250 0.000000l-18.796875 -50.000000l0.000000 64.015625l-9.578125 0.000000z"/>
<path id="c_0bce5afba2dc6b9024b26277c38ad8e8" d="M56.203125 -29.593750l0.000000 4.390625l-41.312500 0.000000q0.593750 9.281250 5.593750 14.140625q5.000000 4.859375 13.937500 4.859375q5.171875 0.000000 10.031250 -1.265625q4.859375 -1.265625 9.656250 -3.812500l0.000000 8.500000q-4.843750 2.046875 -9.921875 3.125000q-5.078125 1.078125 -10.296875 1.078125q-13.093750 0.000000 -20.734375 -7.609375q-7.640625 -7.625000 -7.640625 -20.625000q0.000000 -13.421875 7.250000 -21.296875q7.250000 -7.890625 19.562500 -7.890625q11.031250 0.000000 17.453125 7.109375q6.421875 7.093750 6.421875 19.296875M47.218750 -32.234375q-0.093750 -7.359375 -4.125000 -11.750000q-4.031250 -4.406250 -10.671875 -4.406250q-7.515625 0.000000 -12.031250 4.250000q-4.515625 4.250000 -5.203125 11.968750z"/>
<path id="c_01d93a582460e35a7945ca50d148ffeb" d="M34.281250 -27.484375q-10.890625 0.000000 -15.093750 2.484375q-4.203125 2.484375 -4.203125 8.500000q0.000000 4.781250 3.156250 7.593750q3.156250 2.796875 8.562500 2.796875q7.484375 0.000000 12.000000 -5.296875q4.515625 -5.296875 4.515625 -14.078125l0.000000 -2.000000zM52.203125 -31.203125l0.000000 31.203125l-8.984375 0.000000l0.000000 -8.296875q-3.078125 4.968750 -7.671875 7.343750q-4.593750 2.375000 -11.234375 2.375000q-8.390625 0.000000 -13.359375 -4.718750q-4.953125 -4.718750 -4.953125 -12.625000q0.000000 -9.218750 6.171875 -13.906250q6.187500 -4.687500 18.437500 -4.687500l12.609375 0.000000l0.000000 -0.890625q0.000000 -6.203125 -4.078125 -9.593750q-4.078125 -3.390625 -11.453125 -3.390625q-4.687500 0.000000 -9.140625 1.125000q-4.437500 1.125000 -8.531250 3.375000l0.000000 -8.312500q4.921875 -1.906250 9.562500 -2.843750q4.640625 -0.953125 9.031250 -0.953125q11.875000 0.000000 17.734375 6.156250q5.859375 6.140625 5.859375 18.640625"/>
<path id="c_8e0810ad13fe20a2a87a2619799b154d" d="M44.281250 -53.078125l0.000000 8.500000q-3.796875 -1.953125 -7.906250 -2.921875q-4.093750 -0.984375 -8.500000 -0.984375q-6.687500 0.000000 -10.031250 2.046875q-3.343750 2.046875 -3.343750 6.156250q0.000000 3.125000 2.390625 4.906250q2.390625 1.781250 9.625000 3.390625l3.078125 0.687500q9.562500 2.046875 13.593750 5.781250q4.031250 3.734375 4.031250 10.421875q0.000000 7.625000 -6.031250 12.078125q-6.031250 4.437500 -16.578125 4.437500q-4.390625 0.000000 -9.156250 -0.859375q-4.765625 -0.859375 -10.031250 -2.562500l0.000000 -9.281250q4.984375 2.593750 9.812500 3.890625q4.828125 1.281250 9.578125 1.281250q6.343750 0.000000 9.750000 -2.171875q3.421875 -2.171875 3.421875 -6.125000q0.000000 -3.656250 -2.468750 -5.609375q-2.453125 -1.953125 -10.812500 -3.765625l-3.125000 -0.734375q-8.343750 -1.750000 -12.062500 -5.390625q-3.703125 -3.640625 -3.703125 -9.984375q0.000000 -7.718750 5.468750 -11.906250q5.468750 -4.203125 15.531250 -4.203125q4.968750 0.000000 9.359375 0.734375q4.406250 0.718750 8.109375 2.187500"/>
<path id="c_c438d87e693443c2861ebd6359e6491e" d="M8.500000 -21.578125l0.000000 -33.109375l8.984375 0.000000l0.000000 32.765625q0.000000 7.765625 3.015625 11.656250q3.031250 3.875000 9.093750 3.875000q7.265625 0.000000 11.484375 -4.640625q4.234375 -4.640625 4.234375 -12.656250l0.000000 -31.000000l8.984375 0.000000l0.000000 54.687500l-8.984375 0.000000l0.000000 -8.406250q-3.265625 4.984375 -7.593750 7.406250q-4.312500 2.421875 -10.031250 2.421875q-9.421875 0.000000 -14.312500 -5.859375q-4.875000 -5.859375 -4.875000 -17.140625"/>
<path id="c_6ec8d5749226675394676a5d2a3b468b" d="M41.109375 -46.296875q-1.515625 -0.875000 -3.296875 -1.281250q-1.781250 -0.421875 -3.921875 -0.421875q-7.625000 0.000000 -11.703125 4.953125q-4.078125 4.953125 -4.078125 14.234375l0.000000 28.812500l-9.031250 0.000000l0.000000 -54.687500l9.031250 0.000000l0.000000 8.500000q2.843750 -4.984375 7.375000 -7.390625q4.546875 -2.421875 11.046875 -2.421875q0.921875 0.000000 2.046875 0.125000q1.125000 0.109375 2.484375 0.359375z"/>
<path id="c_d821beae607506e87470f334d9ff47af" d="M45.406250 -46.390625l0.000000 -29.593750l8.984375 0.000000l0.000000 75.984375l-8.984375 0.000000l0.000000 -8.203125q-2.828125 4.875000 -7.156250 7.250000q-4.312500 2.375000 -10.375000 2.375000q-9.906250 0.000000 -16.140625 -7.906250q-6.218750 -7.921875 -6.218750 -20.812500q0.000000 -12.890625 6.218750 -20.796875q6.234375 -7.906250 16.140625 -7.906250q6.062500 0.000000 10.375000 2.375000q4.328125 2.359375 7.156250 7.234375M14.796875 -27.296875q0.000000 9.906250 4.078125 15.546875q4.078125 5.640625 11.203125 5.640625q7.125000 0.000000 11.218750 -5.640625q4.109375 -5.640625 4.109375 -15.546875q0.000000 -9.906250 -4.109375 -15.546875q-4.093750 -5.640625 -11.218750 -5.640625q-7.125000 0.000000 -11.203125 5.640625q-4.078125 5.640625 -4.078125 15.546875"/>
</defs>
<g style="fill: #000000; opacity: 1.000000" transform="translate(107.280000,52.940625)scale(0.144000)">
<use xlink:href="#c_72234ddc5dcad8d05c893ef0371171da"/>
<use xlink:href="#c_0bce5afba2dc6b9024b26277c38ad8e8" x="86.279297"/>
<use xlink:href="#c_01d93a582460e35a7945ca50d148ffeb" x="147.802734"/>
<use xlink:href="#c_8e0810ad13fe20a2a87a2619799b154d" x="209.082031"/>
<use xlink:href="#c_c438d87e693443c2861ebd6359e6491e" x="261.181641"/>
<use xlink:href="#c_6ec8d5749226675394676a5d2a3b468b" x="324.560547"/>
<use xlink:href="#c_0bce5afba2dc6b9024b26277c38ad8e8" x="363.423828"/>
<use xlink:href="#c_d821beae607506e87470f334d9ff47af" x="424.947266"/>
</g>
</g>
<g id="line2d32">
<path style="fill: none; stroke: #0000ff; stroke-width: 1.000000; stroke-linejoin: round; stroke-linecap: square;  opacity: 1.000000"  d="M71.280000 68.647500L91.440000 68.647500"/>
</g>
<g id="line2d33">
</g>
<g id="text19">
<defs>
<path id="c_f05dd90d41f04bb96ef1ca503cc2044b" d="M30.609375 -48.390625q-7.218750 0.000000 -11.421875 5.640625q-4.203125 5.640625 -4.203125 15.453125q0.000000 9.812500 4.171875 15.453125q4.187500 5.640625 11.453125 5.640625q7.187500 0.000000 11.375000 -5.656250q4.203125 -5.671875 4.203125 -15.437500q0.000000 -9.718750 -4.203125 -15.406250q-4.187500 -5.687500 -11.375000 -5.687500M30.609375 -56.000000q11.718750 0.000000 18.406250 7.625000q6.703125 7.609375 6.703125 21.078125q0.000000 13.421875 -6.703125 21.078125q-6.687500 7.640625 -18.406250 7.640625q-11.765625 0.000000 -18.437500 -7.640625q-6.656250 -7.656250 -6.656250 -21.078125q0.000000 -13.468750 6.656250 -21.078125q6.671875 -7.625000 18.437500 -7.625000"/>
<path id="c_5099edb83619131346ae654950954dea" d="M9.421875 -75.984375l8.984375 0.000000l0.000000 75.984375l-8.984375 0.000000z"/>
</defs>
<g style="fill: #000000; opacity: 1.000000" transform="translate(107.280000,73.687500)scale(0.144000)">
<use xlink:href="#c_72234ddc5dcad8d05c893ef0371171da"/>
<use xlink:href="#c_f05dd90d41f04bb96ef1ca503cc2044b" x="86.279297"/>
<use xlink:href="#c_d821beae607506e87470f334d9ff47af" x="147.460938"/>
<use xlink:href="#c_0bce5afba2dc6b9024b26277c38ad8e8" x="210.937500"/>
<use xlink:href="#c_5099edb83619131346ae654950954dea" x="272.460938"/>
<use xlink:href="#c_0bce5afba2dc6b9024b26277c38ad8e8" x="300.244141"/>
<use xlink:href="#c_d821beae607506e87470f334d9ff47af" x="361.767578"/>
</g>
</g>
</g>
</g>
</g>
</svg>
