<?xml version="1.0" encoding="UTF-8" standalone="no"?>
<!-- Created with Inkscape (http://www.inkscape.org/) -->

<svg
   xmlns:dc="http://purl.org/dc/elements/1.1/"
   xmlns:cc="http://creativecommons.org/ns#"
   xmlns:rdf="http://www.w3.org/1999/02/22-rdf-syntax-ns#"
   xmlns:svg="http://www.w3.org/2000/svg"
   xmlns="http://www.w3.org/2000/svg"
   xmlns:xlink="http://www.w3.org/1999/xlink"
   xmlns:sodipodi="http://sodipodi.sourceforge.net/DTD/sodipodi-0.dtd"
   xmlns:inkscape="http://www.inkscape.org/namespaces/inkscape"
   width="375.02145"
   height="85.554688"
   id="svg3095"
   version="1.1"
   inkscape:version="0.48.4 r9939"
   sodipodi:docname="resistors.svg">
  <defs
     id="defs3097">
    <linearGradient
       gradientTransform="matrix(2.5153244,0,0,2.1247,-3.7641489,-3.8819556)"
       y2="4.4137564"
       x2="3.4702899"
       y1="4.4137564"
       x1="2.88361"
       gradientUnits="userSpaceOnUse"
       id="linearGradient2987"
       xlink:href="#linearGradient4138"
       inkscape:collect="always" />
    <linearGradient
       inkscape:collect="always"
       id="linearGradient4138">
      <stop
         style="stop-color:#f0d8d3;stop-opacity:1;"
         offset="0"
         id="stop4140" />
      <stop
         style="stop-color:#f0d8d3;stop-opacity:0;"
         offset="1"
         id="stop4142" />
    </linearGradient>
  </defs>
  <sodipodi:namedview
     id="base"
     pagecolor="#ffffff"
     bordercolor="#666666"
     borderopacity="1.0"
     inkscape:pageopacity="0.0"
     inkscape:pageshadow="2"
     inkscape:zoom="1.979899"
     inkscape:cx="242.6961"
     inkscape:cy="50.260697"
     inkscape:document-units="px"
     inkscape:current-layer="layer1"
     showgrid="true"
     inkscape:window-width="1920"
     inkscape:window-height="1022"
     inkscape:window-x="0"
     inkscape:window-y="30"
     inkscape:window-maximized="1"
     fit-margin-top="0"
     fit-margin-left="0"
     fit-margin-right="0"
     fit-margin-bottom="0">
    <inkscape:grid
       type="xygrid"
       id="grid3184"
       empspacing="5"
       visible="true"
       enabled="true"
       snapvisiblegridlinesonly="true"
       originx="-112.97854px"
       originy="-652.44531px" />
  </sodipodi:namedview>
  <metadata
     id="metadata3100">
    <rdf:RDF>
      <cc:Work
         rdf:about="">
        <dc:format>image/svg+xml</dc:format>
        <dc:type
           rdf:resource="http://purl.org/dc/dcmitype/StillImage" />
        <dc:title />
      </cc:Work>
    </rdf:RDF>
  </metadata>
  <g
     inkscape:label="Layer 1"
     inkscape:groupmode="layer"
     id="layer1"
     transform="translate(-112.97854,-314.36218)">
    <ellipse
       style="fill:#ffffff;fill-opacity:1;fill-rule:evenodd;stroke:#000000;stroke-width:0.01111111;stroke-miterlimit:4;stroke-opacity:1;stroke-dasharray:none"
       sodipodi:ry="0.182193"
       sodipodi:rx="0.187461"
       sodipodi:cy="4.8723202"
       sodipodi:cx="3.8283501"
       d="m 4.0158111,4.8723202 c 0,0.1006224 -0.083929,0.182193 -0.187461,0.182193 -0.1035319,0 -0.187461,-0.081571 -0.187461,-0.182193 0,-0.1006224 0.083929,-0.182193 0.187461,-0.182193 0.1035318,0 0.187461,0.081571 0.187461,0.182193 z"
       id="ellipse71"
       ry="0.182193"
       rx="0.187461"
       cy="4.8723202"
       cx="3.8283501"
       class="fil0 str0"
       transform="matrix(90,0,0,90,-214.20148,-88.530089)" />
    <g
       style="fill-rule:evenodd;stroke:#000000;stroke-width:0.01111111;stroke-miterlimit:4;stroke-opacity:1;stroke-dasharray:none"
       id="_104800720"
       transform="matrix(90,0,0,90,-214.20148,-88.530089)">
      <line
         style="fill:none;stroke:#000000;stroke-width:0.01111111;stroke-miterlimit:4;stroke-opacity:1;stroke-dasharray:none"
         y2="4.7986102"
         x2="3.8220301"
         y1="4.7312002"
         x1="3.8220301"
         class="fil0 str0"
         id="_104800792" />
      <line
         style="fill:none;stroke:#000000;stroke-width:0.01111111;stroke-miterlimit:4;stroke-opacity:1;stroke-dasharray:none"
         y2="4.7649102"
         x2="3.8557301"
         y1="4.7649102"
         x1="3.7883301"
         class="fil0 str0"
         id="_104800744" />
    </g>
    <line
       style="fill:none;stroke:#000000;stroke-width:1;stroke-miterlimit:4;stroke-opacity:1;stroke-dasharray:none"
       id="line80"
       y2="360.78503"
       x2="133.0032"
       y1="360.78503"
       x1="126.93719"
       class="fil0 str0" />
    <path
       style="fill:none;stroke:#000000;stroke-width:1;stroke-linecap:butt;stroke-linejoin:miter;stroke-miterlimit:4;stroke-opacity:1;stroke-dasharray:none"
       d="m 250,332.36218 0,5 -7.5,5 15,5 -15,5 15,5 -15,5 15,5 -7.5,5 0,5"
       id="path3186"
       inkscape:connector-curvature="0"
       sodipodi:nodetypes="cccccc" />
    <path
       style="fill:none;stroke:#000000;stroke-width:1;stroke-linecap:butt;stroke-linejoin:miter;stroke-miterlimit:4;stroke-opacity:1;stroke-dasharray:none"
       d="m 270,332.36218 0,5 -7.5,5 15,5 -15,5 15,5 -15,5 15,5 -7.5,5 0,5"
       id="path3186-1"
       inkscape:connector-curvature="0"
       sodipodi:nodetypes="cccccc" />
    <path
       style="fill:none;stroke:#000000;stroke-width:1;stroke-linecap:butt;stroke-linejoin:miter;stroke-miterlimit:4;stroke-opacity:1;stroke-dasharray:none"
       d="m 290,332.36218 0,5 -7.5,5 15,5 -15,5 15,5 -15,5 15,5 -7.5,5 0,5"
       id="path3186-1-3"
       inkscape:connector-curvature="0"
       sodipodi:nodetypes="cccccc" />
    <path
       style="fill:none;stroke:#000000;stroke-width:1;stroke-linecap:butt;stroke-linejoin:miter;stroke-miterlimit:4;stroke-opacity:1;stroke-dasharray:none"
       d="m 310,332.36218 0,5 -7.5,5 15,5 -15,5 15,5 -15,5 15,5 -7.5,5 0,5"
       id="path3186-1-9"
       inkscape:connector-curvature="0"
       sodipodi:nodetypes="cccccc" />
    <path
       style="fill:none;stroke:#000000;stroke-width:1;stroke-linecap:butt;stroke-linejoin:miter;stroke-miterlimit:4;stroke-opacity:1;stroke-dasharray:none"
       d="m 330,332.36218 0,5 -7.5,5 15,5 -15,5 15,5 -15,5 15,5 -7.5,5 0,5"
       id="path3186-1-5"
       inkscape:connector-curvature="0"
       sodipodi:nodetypes="cccccc" />
    <path
       style="fill:none;stroke:#000000;stroke-width:1;stroke-linecap:butt;stroke-linejoin:miter;stroke-miterlimit:4;stroke-opacity:1;stroke-dasharray:none"
       d="m 240,322.36218 -5,0 -5,-7.5 -5,15 -5,-15 -5,15 -5,-15 -5,15 -5,-7.5 -5,0"
       id="path3186-7"
       inkscape:connector-curvature="0"
       sodipodi:nodetypes="cccccc" />
    <path
       style="fill:none;stroke:#000000;stroke-width:1;stroke-linecap:butt;stroke-linejoin:miter;stroke-miterlimit:4;stroke-opacity:1;stroke-dasharray:none"
       d="m 190,322.36218 -5,0 -5,-7.5 -5,15 -5,-15 -5,15 -5,-15 -5,15 -5,-7.5 -5,0"
       id="path3186-7-7"
       inkscape:connector-curvature="0"
       sodipodi:nodetypes="cccccc" />
    <path
       style="fill:none;stroke:#000000;stroke-width:1;stroke-linecap:butt;stroke-linejoin:miter;stroke-miterlimit:4;stroke-opacity:1;stroke-dasharray:none"
       d="m 190,322.36218 5,0"
       id="path3274"
       inkscape:connector-curvature="0" />
    <path
       style="fill:none;stroke:#000000;stroke-width:1;stroke-linecap:butt;stroke-linejoin:miter;stroke-miterlimit:4;stroke-opacity:1;stroke-dasharray:none"
       d="m 240,322.36218 90,0 0,10"
       id="path3276"
       inkscape:connector-curvature="0" />
    <path
       style="fill:none;stroke:#000000;stroke-width:1;stroke-linecap:butt;stroke-linejoin:miter;stroke-miterlimit:4;stroke-opacity:1;stroke-dasharray:none"
       d="m 310,332.36218 0,-10"
       id="path3278"
       inkscape:connector-curvature="0" />
    <path
       style="fill:none;stroke:#000000;stroke-width:1;stroke-linecap:butt;stroke-linejoin:miter;stroke-miterlimit:4;stroke-opacity:1;stroke-dasharray:none"
       d="m 290,332.36218 0,-10"
       id="path3280"
       inkscape:connector-curvature="0" />
    <path
       style="fill:none;stroke:#000000;stroke-width:1;stroke-linecap:butt;stroke-linejoin:miter;stroke-miterlimit:4;stroke-opacity:1;stroke-dasharray:none"
       d="m 270,332.36218 0,-10"
       id="path3282"
       inkscape:connector-curvature="0" />
    <path
       style="fill:none;stroke:#000000;stroke-width:1;stroke-linecap:butt;stroke-linejoin:miter;stroke-miterlimit:4;stroke-opacity:1;stroke-dasharray:none"
       d="m 250,332.36218 0,-10"
       id="path3284"
       inkscape:connector-curvature="0" />
    <path
       style="fill:none;stroke:#000000;stroke-width:1;stroke-linecap:butt;stroke-linejoin:miter;stroke-miterlimit:4;stroke-opacity:1;stroke-dasharray:none"
       d="m 130,333.36218 0,-11 15,0"
       id="path3286"
       inkscape:connector-curvature="0"
       sodipodi:nodetypes="ccc" />
    <path
       style="fill:none;stroke:#000000;stroke-width:1px;stroke-linecap:butt;stroke-linejoin:miter;stroke-opacity:1"
       d="m 330,377.36218 0,5 -200,0 0,-16"
       id="path4056"
       inkscape:connector-curvature="0"
       sodipodi:nodetypes="cccc" />
    <path
       style="fill:none;stroke:#000000;stroke-width:1px;stroke-linecap:butt;stroke-linejoin:miter;stroke-opacity:1"
       d="m 250,377.36218 0,5"
       id="path4058"
       inkscape:connector-curvature="0" />
    <path
       style="fill:none;stroke:#000000;stroke-width:1px;stroke-linecap:butt;stroke-linejoin:miter;stroke-opacity:1"
       d="m 270,377.36218 0,5"
       id="path4060"
       inkscape:connector-curvature="0" />
    <path
       style="fill:none;stroke:#000000;stroke-width:1px;stroke-linecap:butt;stroke-linejoin:miter;stroke-opacity:1"
       d="m 290,377.36218 0,5"
       id="path4062"
       inkscape:connector-curvature="0" />
    <path
       style="fill:none;stroke:#000000;stroke-width:1px;stroke-linecap:butt;stroke-linejoin:miter;stroke-opacity:1"
       d="m 310,377.36218 0,5"
       id="path4064"
       inkscape:connector-curvature="0" />
    <g
       id="g4210">
      <ellipse
         transform="matrix(90,0,0,90,90.798523,-88.530089)"
         class="fil0 str0"
         cx="3.8283501"
         cy="4.8723202"
         rx="0.187461"
         ry="0.182193"
         id="ellipse71-3"
         d="m 4.0158111,4.8723202 c 0,0.1006224 -0.083929,0.182193 -0.187461,0.182193 -0.1035319,0 -0.187461,-0.081571 -0.187461,-0.182193 0,-0.1006224 0.083929,-0.182193 0.187461,-0.182193 0.1035318,0 0.187461,0.081571 0.187461,0.182193 z"
         sodipodi:cx="3.8283501"
         sodipodi:cy="4.8723202"
         sodipodi:rx="0.187461"
         sodipodi:ry="0.182193"
         style="fill:#ffffff;fill-opacity:1;fill-rule:evenodd;stroke:#000000;stroke-width:0.01111111;stroke-miterlimit:4;stroke-opacity:1;stroke-dasharray:none" />
      <g
         transform="matrix(90,0,0,90,90.798523,-88.530089)"
         id="_104800720-6"
         style="fill-rule:evenodd;stroke:#000000;stroke-width:0.01111111;stroke-miterlimit:4;stroke-opacity:1;stroke-dasharray:none">
        <line
           id="_104800792-4"
           class="fil0 str0"
           x1="3.8220301"
           y1="4.7312002"
           x2="3.8220301"
           y2="4.7986102"
           style="fill:none;stroke:#000000;stroke-width:0.01111111;stroke-miterlimit:4;stroke-opacity:1;stroke-dasharray:none" />
        <line
           id="_104800744-7"
           class="fil0 str0"
           x1="3.7883301"
           y1="4.7649102"
           x2="3.8557301"
           y2="4.7649102"
           style="fill:none;stroke:#000000;stroke-width:0.01111111;stroke-miterlimit:4;stroke-opacity:1;stroke-dasharray:none" />
      </g>
      <line
         class="fil0 str0"
         x1="431.93719"
         y1="360.78503"
         x2="438.0032"
         y2="360.78503"
         id="line80-3"
         style="fill:none;stroke:#000000;stroke-width:1;stroke-miterlimit:4;stroke-opacity:1;stroke-dasharray:none" />
      <path
         sodipodi:nodetypes="cccccc"
         inkscape:connector-curvature="0"
         id="path3186-11"
         d="m 480,332.36218 0,5 -7.5,5 15,5 -15,5 15,5 -15,5 15,5 -7.5,5 0,5"
         style="fill:none;stroke:#000000;stroke-width:1;stroke-linecap:butt;stroke-linejoin:miter;stroke-miterlimit:4;stroke-opacity:1;stroke-dasharray:none" />
      <path
         sodipodi:nodetypes="cccc"
         inkscape:connector-curvature="0"
         id="path4206"
         d="m 435,366.36218 0,16 45,0 0,-5"
         style="fill:none;stroke:#000000;stroke-width:1px;stroke-linecap:butt;stroke-linejoin:miter;stroke-opacity:1" />
      <path
         sodipodi:nodetypes="cccc"
         inkscape:connector-curvature="0"
         id="path4208"
         d="m 480,332.36218 0,-10 -45,0 0,11"
         style="fill:none;stroke:#000000;stroke-width:1px;stroke-linecap:butt;stroke-linejoin:miter;stroke-opacity:1" />
    </g>
    <text
       xml:space="preserve"
       style="font-size:12px;font-style:normal;font-weight:normal;line-height:125%;letter-spacing:0px;word-spacing:0px;fill:#000000;fill-opacity:1;stroke:none;font-family:Sans"
       x="225"
       y="397.36218"
       id="text4224"
       sodipodi:linespacing="125%"><tspan
         sodipodi:role="line"
         id="tspan4226"
         x="225"
         y="397.36218"
         style="font-size:12px;font-family:Times New Roman;-inkscape-font-specification:Times New Roman">a)</tspan></text>
    <text
       xml:space="preserve"
       style="font-size:12px;font-style:normal;font-weight:normal;line-height:125%;letter-spacing:0px;word-spacing:0px;fill:#000000;fill-opacity:1;stroke:none;font-family:Sans"
       x="455"
       y="397.36218"
       id="text4224-1"
       sodipodi:linespacing="125%"><tspan
         sodipodi:role="line"
         id="tspan4226-5"
         x="455"
         y="397.36218"
         style="font-size:12px;font-family:Times New Roman;-inkscape-font-specification:Times New Roman">b)</tspan></text>
  </g>
</svg>
