<?xml version="1.0" encoding="UTF-8" standalone="no"?>
<!-- Created with Inkscape (http://www.inkscape.org/) -->

<svg
   xmlns:ns0="http://www.iki.fi/pav/software/textext/"
   xmlns:dc="http://purl.org/dc/elements/1.1/"
   xmlns:cc="http://creativecommons.org/ns#"
   xmlns:rdf="http://www.w3.org/1999/02/22-rdf-syntax-ns#"
   xmlns:svg="http://www.w3.org/2000/svg"
   xmlns="http://www.w3.org/2000/svg"
   xmlns:xlink="http://www.w3.org/1999/xlink"
   xmlns:sodipodi="http://sodipodi.sourceforge.net/DTD/sodipodi-0.dtd"
   xmlns:inkscape="http://www.inkscape.org/namespaces/inkscape"
   width="43.506653"
   height="100.14567"
   id="svg3005"
   version="1.1"
   inkscape:version="0.48.4 r9939"
   sodipodi:docname="twopins.svg">
  <sodipodi:namedview
     id="base"
     pagecolor="#ffffff"
     bordercolor="#666666"
     borderopacity="1.0"
     inkscape:pageopacity="0.0"
     inkscape:pageshadow="2"
     inkscape:zoom="3.959798"
     inkscape:cx="29.820004"
     inkscape:cy="26.06266"
     inkscape:document-units="px"
     inkscape:current-layer="layer1"
     showgrid="false"
     inkscape:window-width="965"
     inkscape:window-height="793"
     inkscape:window-x="125"
     inkscape:window-y="125"
     inkscape:window-maximized="0"
     fit-margin-top="0"
     fit-margin-left="0"
     fit-margin-right="0"
     fit-margin-bottom="0">
    <inkscape:grid
       type="xygrid"
       id="grid3098"
       empspacing="5"
       visible="true"
       enabled="true"
       snapvisiblegridlinesonly="true"
       originx="-287.87913px"
       originy="-402.47933px" />
  </sodipodi:namedview>
  <defs
     id="defs3007">
    <linearGradient
       inkscape:collect="always"
       id="linearGradient3881">
      <stop
         style="stop-color:#d8e3e8;stop-opacity:1;"
         offset="0"
         id="stop3883" />
      <stop
         style="stop-color:#d8e3e8;stop-opacity:0;"
         offset="1"
         id="stop3885" />
    </linearGradient>
    <inkscape:perspective
       sodipodi:type="inkscape:persp3d"
       inkscape:vp_x="0 : 526.18109 : 1"
       inkscape:vp_y="0 : 1000 : 0"
       inkscape:vp_z="744.09448 : 526.18109 : 1"
       inkscape:persp3d-origin="372.04724 : 350.78739 : 1"
       id="perspective3013" />
    <inkscape:perspective
       id="perspective2962"
       inkscape:persp3d-origin="0.5 : 0.33333333 : 1"
       inkscape:vp_z="1 : 0.5 : 1"
       inkscape:vp_y="0 : 1000 : 0"
       inkscape:vp_x="0 : 0.5 : 1"
       sodipodi:type="inkscape:persp3d" />
    <linearGradient
       gradientTransform="matrix(2.5153244,0,0,2.1247,-3.7641489,-3.8819556)"
       y2="4.4137564"
       x2="3.4702899"
       y1="4.4137564"
       x1="2.88361"
       gradientUnits="userSpaceOnUse"
       id="linearGradient2987"
       xlink:href="#linearGradient4138"
       inkscape:collect="always" />
    <linearGradient
       inkscape:collect="always"
       id="linearGradient4138">
      <stop
         style="stop-color:#f0d8d3;stop-opacity:1;"
         offset="0"
         id="stop4140" />
      <stop
         style="stop-color:#f0d8d3;stop-opacity:0;"
         offset="1"
         id="stop4142" />
    </linearGradient>
    <linearGradient
       inkscape:collect="always"
       xlink:href="#linearGradient3881"
       id="linearGradient3887"
       x1="304.375"
       y1="607.36218"
       x2="325.625"
       y2="607.36218"
       gradientUnits="userSpaceOnUse" />
    <inkscape:perspective
       id="perspective2969"
       inkscape:persp3d-origin="0.5 : 0.33333333 : 1"
       inkscape:vp_z="1 : 0.5 : 1"
       inkscape:vp_y="0 : 1000 : 0"
       inkscape:vp_x="0 : 0.5 : 1"
       sodipodi:type="inkscape:persp3d" />
  </defs>
  <metadata
     id="metadata3010">
    <rdf:RDF>
      <cc:Work
         rdf:about="">
        <dc:format>image/svg+xml</dc:format>
        <dc:type
           rdf:resource="http://purl.org/dc/dcmitype/StillImage" />
        <dc:title />
      </cc:Work>
    </rdf:RDF>
  </metadata>
  <g
     inkscape:label="Layer 1"
     inkscape:groupmode="layer"
     id="layer1"
     transform="translate(-287.87913,-549.73718)">
    <rect
       style="fill:url(#linearGradient3887);fill-opacity:1;fill-rule:evenodd;stroke:#1f1a17;stroke-width:1.25;stroke-miterlimit:4;stroke-dasharray:none"
       height="40"
       width="20.000011"
       y="587.36218"
       x="305"
       class="fil0 str0"
       id="_104801776" />
    <circle
       style="fill:#1f1a17;fill-rule:evenodd;stroke:#1f1a17;stroke-width:0.01388889;stroke-miterlimit:4;stroke-dasharray:none"
       sodipodi:ry="0.021063"
       sodipodi:rx="0.021063"
       sodipodi:cy="4.4552798"
       sodipodi:cx="2.7414999"
       d="m 2.7625629,4.4552798 c 0,0.011633 -0.00943,0.021063 -0.021063,0.021063 -0.011633,0 -0.021063,-0.00943 -0.021063,-0.021063 0,-0.011633 0.00943,-0.021063 0.021063,-0.021063 0.011633,0 0.021063,0.00943 0.021063,0.021063 z"
       r="0.021063"
       cy="4.4552798"
       cx="2.7414999"
       class="fil2 str0"
       id="_104801560"
       transform="matrix(90,0,0,90,68.265009,151.28267)" />
    <circle
       style="fill:#1f1a17;fill-rule:evenodd;stroke:#1f1a17;stroke-width:0.01388889;stroke-miterlimit:4;stroke-dasharray:none"
       sodipodi:ry="0.021063"
       sodipodi:rx="0.021063"
       sodipodi:cy="5.2745199"
       sodipodi:cx="2.7393"
       d="m 2.760363,5.2745199 c 0,0.011633 -0.00943,0.021063 -0.021063,0.021063 -0.011633,0 -0.021063,-0.00943 -0.021063,-0.021063 0,-0.011633 0.00943,-0.021063 0.021063,-0.021063 0.011633,0 0.021063,0.00943 0.021063,0.021063 z"
       r="0.021063"
       cy="5.2745199"
       cx="2.7393"
       class="fil2 str0"
       id="_104801512"
       transform="matrix(90,0,0,90,68.358669,172.65539)" />
    <g
       style="fill-rule:evenodd;stroke-width:0.01388889;stroke-miterlimit:4;stroke-dasharray:none"
       id="_104801368"
       transform="matrix(90,0,0,90,20.427149,169.1194)">
      <line
         id="_104801440"
         class="fil0 str0"
         x1="3.0391901"
         y1="4.5117898"
         x2="3.0391901"
         y2="4.5791898"
         style="fill:none;stroke:#1f1a17;stroke-width:0.01388889;stroke-miterlimit:4;stroke-dasharray:none" />
      <line
         id="_104801392"
         class="fil0 str0"
         x1="3.0054801"
         y1="4.5454898"
         x2="3.07289"
         y2="4.5454898"
         style="fill:none;stroke:#1f1a17;stroke-width:0.01388889;stroke-miterlimit:4;stroke-dasharray:none" />
    </g>
    <line
       class="fil0 str0"
       x1="290.16257"
       y1="630.96252"
       x2="296.22855"
       y2="630.96252"
       id="line57"
       style="fill:none;stroke:#1f1a17;stroke-width:1.25;stroke-miterlimit:4;stroke-dasharray:none" />
    <path
       style="fill:none;stroke:#000000;stroke-width:1.25;stroke-linecap:butt;stroke-linejoin:miter;stroke-miterlimit:4;stroke-opacity:1;stroke-dasharray:none"
       d="M 315.16759,627.84557 315,647.36218"
       id="path3100"
       inkscape:connector-curvature="0" />
    <path
       style="fill:none;stroke:#000000;stroke-width:1.25;stroke-linecap:butt;stroke-linejoin:miter;stroke-miterlimit:4;stroke-opacity:1;stroke-dasharray:none"
       d="m 315,572.36218 0,15"
       id="path3102"
       inkscape:connector-curvature="0" />
    <path
       style="fill:#000000;fill-opacity:1;stroke:#000000;stroke-width:1px;stroke-linecap:butt;stroke-linejoin:miter;stroke-opacity:1"
       d="m 315,576.36218 -4,-5 8,0 -4,5"
       id="path3877"
       inkscape:connector-curvature="0" />
    <path
       style="fill:none;stroke:#000000;stroke-width:1.25;stroke-linecap:butt;stroke-linejoin:miter;stroke-miterlimit:4;stroke-opacity:1;stroke-dasharray:none"
       d="m 315,552.36218 0,20"
       id="path3879"
       inkscape:connector-curvature="0" />
    <g
       style="font-style:normal;font-variant:normal;font-weight:normal;font-stretch:normal;letter-spacing:normal;word-spacing:normal;text-anchor:start;fill:none;stroke:#000000;stroke-linecap:butt;stroke-linejoin:miter;stroke-miterlimit:10.43299961;stroke-opacity:1;stroke-dasharray:none;stroke-dashoffset:0"
       id="content"
       transform="matrix(2.1996523,0,0,-2.1996523,-166.50552,2134.5113)"
       xml:space="preserve"
       stroke-miterlimit="10.433"
       font-style="normal"
       font-variant="normal"
       font-weight="normal"
       font-stretch="normal"
       font-size-adjust="none"
       letter-spacing="normal"
       word-spacing="normal"
       ns0:text="$i$"
       ns0:preamble=""><path
         style="fill:#000000;stroke-width:0"
         d="m 226.26,713.35 0,0.02 0,0.02 0,0.01 0,0.02 -0.01,0.02 0,0.02 -0.01,0.01 0,0.02 -0.01,0.01 -0.01,0.02 -0.01,0.02 0,0.01 -0.01,0.01 -0.01,0.02 -0.02,0.01 -0.01,0.01 -0.01,0.01 -0.01,0.02 -0.02,0.01 -0.01,0.01 -0.01,0.01 -0.02,0 -0.02,0.01 -0.01,0.01 -0.02,0.01 -0.02,0 -0.02,0.01 -0.02,0 -0.01,0 -0.03,0.01 -0.02,0 -0.02,0 c -0.27,0 -0.54,-0.26 -0.54,-0.53 0,-0.19 0.14,-0.36 0.38,-0.36 0.23,0 0.53,0.23 0.53,0.53 z"
         id="path2864"
         inkscape:connector-curvature="0" /><path
         style="fill:#000000;stroke-width:0"
         d="m 225.51,709.6 0.01,0.03 0.01,0.02 0.01,0.03 0,0.02 0.01,0.02 0.01,0.02 0.01,0.02 0.01,0.02 0,0.01 0.01,0.02 0,0.02 0.01,0.01 0.01,0.02 0,0.01 0.01,0.03 0.01,0.03 0.01,0.03 0.01,0.01 0,0.02 0.01,0.01 0,0.02 0.01,0.01 0.01,0.02 0,0.02 0.01,0.02 0.01,0.02 0.01,0.02 0,0.03 0.01,0.02 c 0.08,0.2 0.13,0.34 0.13,0.53 0,0.45 -0.31,0.82 -0.81,0.82 -0.94,0 -1.32,-1.45 -1.32,-1.54 0,-0.1 0.1,-0.1 0.12,-0.1 0.1,0 0.11,0.02 0.16,0.18 0.27,0.94 0.67,1.24 1.01,1.24 0.08,0 0.25,0 0.25,-0.32 0,-0.21 -0.07,-0.42 -0.11,-0.52 -0.08,-0.26 -0.53,-1.42 -0.69,-1.84 -0.1,-0.26 -0.23,-0.59 -0.23,-0.8 0,-0.47 0.34,-0.82 0.82,-0.82 0.93,0 1.3,1.45 1.3,1.54 0,0.1 -0.09,0.1 -0.12,0.1 -0.1,0 -0.1,-0.03 -0.15,-0.18 -0.18,-0.63 -0.51,-1.24 -1.01,-1.24 -0.17,0 -0.24,0.1 -0.24,0.33 0,0.25 0.06,0.39 0.29,1 z"
         id="path2866"
         inkscape:connector-curvature="0" /></g>    <g
       style="font-style:normal;font-variant:normal;font-weight:normal;font-stretch:normal;letter-spacing:normal;word-spacing:normal;text-anchor:start;fill:none;stroke:#000000;stroke-linecap:butt;stroke-linejoin:miter;stroke-miterlimit:10.43299961;stroke-opacity:1;stroke-dasharray:none;stroke-dashoffset:0"
       ns0:preamble=""
       ns0:text="$v$"
       word-spacing="normal"
       letter-spacing="normal"
       font-size-adjust="none"
       font-stretch="normal"
       font-weight="normal"
       font-variant="normal"
       font-style="normal"
       stroke-miterlimit="10.433"
       xml:space="preserve"
       transform="matrix(2.279999,0,0,-2.279999,-222.20225,2221.9081)"
       id="g2927"><path
         style="fill:#000000;stroke-width:0"
         id="path2929"
         d="m 228.1,710.83 -0.01,0.02 0,0.03 0,0.02 0,0.03 0,0.02 0,0.02 0,0.02 -0.01,0.02 0,0.04 -0.01,0.04 -0.01,0.04 -0.01,0.03 -0.01,0.04 -0.01,0.03 -0.01,0.03 -0.02,0.03 -0.01,0.02 -0.02,0.03 -0.01,0.02 -0.02,0.02 -0.01,0.02 -0.02,0.02 -0.02,0.01 -0.02,0.02 -0.01,0.01 -0.02,0.01 -0.02,0.01 -0.02,0.01 -0.02,0.01 -0.02,0.01 -0.01,0 -0.02,0.01 -0.02,0 -0.02,0 -0.02,0.01 -0.01,0 c -0.25,0 -0.49,-0.26 -0.49,-0.48 0,-0.13 0.05,-0.19 0.16,-0.3 0.21,-0.2 0.34,-0.46 0.34,-0.82 0,-0.42 -0.61,-2.7 -1.78,-2.7 -0.51,0 -0.73,0.35 -0.73,0.87 0,0.56 0.27,1.28 0.57,2.11 0.07,0.17 0.12,0.31 0.12,0.5 0,0.45 -0.31,0.82 -0.81,0.82 -0.94,0 -1.32,-1.45 -1.32,-1.54 0,-0.1 0.1,-0.1 0.12,-0.1 0.1,0 0.11,0.02 0.16,0.18 0.29,1.01 0.72,1.24 1.01,1.24 0.08,0 0.25,0 0.25,-0.32 0,-0.25 -0.1,-0.52 -0.17,-0.7 -0.44,-1.15 -0.57,-1.61 -0.57,-2.04 0,-1.08 0.88,-1.24 1.33,-1.24 1.68,0 2.25,3.3 2.25,3.82 z"
         inkscape:connector-curvature="0" /></g>  </g>
</svg>
