<?xml version="1.0" encoding="UTF-8" standalone="no"?>
<!-- Created with matplotlib (http://matplotlib.sourceforge.net/) -->

<svg
   xmlns:ns0="http://www.iki.fi/pav/software/textext/"
   xmlns:dc="http://purl.org/dc/elements/1.1/"
   xmlns:cc="http://creativecommons.org/ns#"
   xmlns:rdf="http://www.w3.org/1999/02/22-rdf-syntax-ns#"
   xmlns:svg="http://www.w3.org/2000/svg"
   xmlns="http://www.w3.org/2000/svg"
   xmlns:xlink="http://www.w3.org/1999/xlink"
   xmlns:sodipodi="http://sodipodi.sourceforge.net/DTD/sodipodi-0.dtd"
   xmlns:inkscape="http://www.inkscape.org/namespaces/inkscape"
   sodipodi:docname="utility.svg"
   inkscape:version="0.48.0 r9654"
   id="svg1"
   version="1.1"
   viewBox="0 0 432 293"
   height="293pt"
   width="432pt">
  <sodipodi:namedview
     pagecolor="#ffffff"
     bordercolor="#666666"
     borderopacity="1"
     objecttolerance="10"
     gridtolerance="10"
     guidetolerance="10"
     inkscape:pageopacity="0"
     inkscape:pageshadow="2"
     inkscape:window-width="1680"
     inkscape:window-height="988"
     id="namedview530"
     showgrid="false"
     inkscape:zoom="1.9692804"
     inkscape:cx="304.72205"
     inkscape:cy="131.02046"
     inkscape:window-x="-8"
     inkscape:window-y="-8"
     inkscape:window-maximized="1"
     inkscape:current-layer="svg1" />
  <metadata
     id="metadata534">
    <rdf:RDF>
      <cc:Work
         rdf:about="">
        <dc:format>image/svg+xml</dc:format>
        <dc:type
           rdf:resource="http://purl.org/dc/dcmitype/StillImage" />
        <dc:title />
      </cc:Work>
    </rdf:RDF>
  </metadata>
  <defs
     id="defs532">
    <marker
       style="overflow:visible"
       id="Arrow1Lstart"
       refX="0.0"
       refY="0.0"
       orient="auto"
       inkscape:stockid="Arrow1Lstart">
      <path
         transform="scale(0.8) translate(12.5,0)"
         style="fill-rule:evenodd;stroke:#000000;stroke-width:1.0pt;marker-start:none"
         d="M 0.0,0.0 L 5.0,-5.0 L -12.5,0.0 L 5.0,5.0 L 0.0,0.0 z "
         id="path8728" />
    </marker>
    <inkscape:perspective
       sodipodi:type="inkscape:persp3d"
       inkscape:vp_x="0 : 183.125 : 1"
       inkscape:vp_y="0 : 1000 : 0"
       inkscape:vp_z="540 : 183.125 : 1"
       inkscape:persp3d-origin="270 : 122.08333 : 1"
       id="perspective536" />
    <inkscape:perspective
       id="perspective2970"
       inkscape:persp3d-origin="0.5 : 0.33333333 : 1"
       inkscape:vp_z="1 : 0.5 : 1"
       inkscape:vp_y="0 : 1000 : 0"
       inkscape:vp_x="0 : 0.5 : 1"
       sodipodi:type="inkscape:persp3d" />
    <inkscape:perspective
       sodipodi:type="inkscape:persp3d"
       inkscape:vp_x="0 : 0.5 : 1"
       inkscape:vp_y="0 : 1000 : 0"
       inkscape:vp_z="1 : 0.5 : 1"
       inkscape:persp3d-origin="0.5 : 0.33333333 : 1"
       id="perspective8711" />
  </defs>
  <g
     id="g6398"
     transform="translate(-1.6,-5.788235)">
    <g
       id="line2d2">
      <defs
         id="defs86">
        <path
           d="M 0,0 0,-4"
           id="m30e32995789d870ad79a2e54c91cf9c6" />
      </defs>
      <g
         id="g89">
        <use
           height="293"
           width="432"
           id="use91"
           y="264.06"
           x="54"
           xlink:href="#m30e32995789d870ad79a2e54c91cf9c6"
           style="fill:none;stroke:#000000;stroke-width:0.5;stroke-linecap:butt;stroke-linejoin:round" />
      </g>
    </g>
    <g
       id="line2d3">
      <defs
         id="defs94">
        <path
           d="M 0,0 0,4"
           id="m9281cae24120827b11d5ea8a7ad3e96b" />
      </defs>
      <g
         id="g97">
        <use
           height="293"
           width="432"
           id="use99"
           y="29.34"
           x="54"
           xlink:href="#m9281cae24120827b11d5ea8a7ad3e96b"
           style="fill:none;stroke:#000000;stroke-width:0.5;stroke-linecap:butt;stroke-linejoin:round" />
      </g>
    </g>
    <g
       transform="translate(-6.4,-3.2)"
       id="text1">
      <defs
         id="defs102">
        <path
           d="m 31.78125,-66.40625 q -7.609375,0 -11.453125,7.5 Q 16.5,-51.421875 16.5,-36.375 q 0,14.984375 3.828125,22.484375 3.84375,7.5 11.453125,7.5 7.671875,0 11.5,-7.5 3.84375,-7.5 3.84375,-22.484375 0,-15.046875 -3.84375,-22.53125 -3.828125,-7.5 -11.5,-7.5 m 0,-7.8125 q 12.265625,0 18.734375,9.703125 6.46875,9.6875 6.46875,28.140625 0,18.40625 -6.46875,28.109375 -6.46875,9.6875 -18.734375,9.6875 -12.25,0 -18.71875,-9.6875 Q 6.59375,-17.96875 6.59375,-36.375 q 0,-18.453125 6.46875,-28.140625 6.46875,-9.703125 18.71875,-9.703125"
           id="c_7a2040fe3b94fcd41d0a72c84e93b115" />
      </defs>
      <g
         id="g105"
         transform="matrix(0.12,0,0,0.12,50.976563,276.96625)"
         style="fill:#000000">
        <use
           height="293"
           width="432"
           y="0"
           x="0"
           id="use107"
           xlink:href="#c_7a2040fe3b94fcd41d0a72c84e93b115" />
      </g>
    </g>
    <g
       id="line2d4">
      <g
         id="g111">
        <use
           height="293"
           width="432"
           id="use113"
           y="264.06"
           x="109.8"
           xlink:href="#m30e32995789d870ad79a2e54c91cf9c6"
           style="fill:none;stroke:#000000;stroke-width:0.5;stroke-linecap:butt;stroke-linejoin:round" />
      </g>
    </g>
    <g
       id="line2d5">
      <g
         id="g116">
        <use
           height="293"
           width="432"
           id="use118"
           y="29.34"
           x="109.8"
           xlink:href="#m9281cae24120827b11d5ea8a7ad3e96b"
           style="fill:none;stroke:#000000;stroke-width:0.5;stroke-linecap:butt;stroke-linejoin:round" />
      </g>
    </g>
    <g
       id="line2d6">
      <g
         id="g130">
        <use
           height="293"
           width="432"
           id="use132"
           y="264.06"
           x="165.60001"
           xlink:href="#m30e32995789d870ad79a2e54c91cf9c6"
           style="fill:none;stroke:#000000;stroke-width:0.5;stroke-linecap:butt;stroke-linejoin:round" />
      </g>
    </g>
    <g
       id="line2d7">
      <g
         id="g135">
        <use
           height="293"
           width="432"
           id="use137"
           y="29.34"
           x="165.60001"
           xlink:href="#m9281cae24120827b11d5ea8a7ad3e96b"
           style="fill:none;stroke:#000000;stroke-width:0.5;stroke-linecap:butt;stroke-linejoin:round" />
      </g>
    </g>
    <g
       id="line2d8">
      <g
         id="g149">
        <use
           height="293"
           width="432"
           id="use151"
           y="264.06"
           x="221.39999"
           xlink:href="#m30e32995789d870ad79a2e54c91cf9c6"
           style="fill:none;stroke:#000000;stroke-width:0.5;stroke-linecap:butt;stroke-linejoin:round" />
      </g>
    </g>
    <g
       id="line2d9">
      <g
         id="g154">
        <use
           height="293"
           width="432"
           id="use156"
           y="29.34"
           x="221.39999"
           xlink:href="#m9281cae24120827b11d5ea8a7ad3e96b"
           style="fill:none;stroke:#000000;stroke-width:0.5;stroke-linecap:butt;stroke-linejoin:round" />
      </g>
    </g>
    <g
       id="line2d10">
      <g
         id="g168">
        <use
           height="293"
           width="432"
           id="use170"
           y="264.06"
           x="277.20001"
           xlink:href="#m30e32995789d870ad79a2e54c91cf9c6"
           style="fill:none;stroke:#000000;stroke-width:0.5;stroke-linecap:butt;stroke-linejoin:round" />
      </g>
    </g>
    <g
       id="line2d11">
      <g
         id="g173">
        <use
           height="293"
           width="432"
           id="use175"
           y="29.34"
           x="277.20001"
           xlink:href="#m9281cae24120827b11d5ea8a7ad3e96b"
           style="fill:none;stroke:#000000;stroke-width:0.5;stroke-linecap:butt;stroke-linejoin:round" />
      </g>
    </g>
    <g
       id="line2d12">
      <g
         id="g187">
        <use
           height="293"
           width="432"
           id="use189"
           y="264.06"
           x="333"
           xlink:href="#m30e32995789d870ad79a2e54c91cf9c6"
           style="fill:none;stroke:#000000;stroke-width:0.5;stroke-linecap:butt;stroke-linejoin:round" />
      </g>
    </g>
    <g
       id="line2d13">
      <g
         id="g192">
        <use
           height="293"
           width="432"
           id="use194"
           y="29.34"
           x="333"
           xlink:href="#m9281cae24120827b11d5ea8a7ad3e96b"
           style="fill:none;stroke:#000000;stroke-width:0.5;stroke-linecap:butt;stroke-linejoin:round" />
      </g>
    </g>
    <g
       id="line2d14">
      <g
         id="g208">
        <use
           height="293"
           width="432"
           id="use210"
           y="264.06"
           x="388.79999"
           xlink:href="#m30e32995789d870ad79a2e54c91cf9c6"
           style="fill:none;stroke:#000000;stroke-width:0.5;stroke-linecap:butt;stroke-linejoin:round" />
      </g>
    </g>
    <g
       id="line2d15">
      <g
         id="g213">
        <use
           height="293"
           width="432"
           id="use215"
           y="29.34"
           x="388.79999"
           xlink:href="#m9281cae24120827b11d5ea8a7ad3e96b"
           style="fill:none;stroke:#000000;stroke-width:0.5;stroke-linecap:butt;stroke-linejoin:round" />
      </g>
    </g>
    <g
       id="line2d16">
      <defs
         id="defs254">
        <path
           d="M 0,0 4,0"
           id="m3400efa6b1638b3fea9e19e898273957" />
      </defs>
      <g
         id="g257">
        <use
           height="293"
           width="432"
           id="use259"
           y="264.06"
           x="54"
           xlink:href="#m3400efa6b1638b3fea9e19e898273957"
           style="fill:none;stroke:#000000;stroke-width:0.5;stroke-linecap:butt;stroke-linejoin:round" />
      </g>
    </g>
    <g
       id="line2d17">
      <defs
         id="defs262">
        <path
           d="M 0,0 -4,0"
           id="m20b58b2501143cb5e0a5e8f1ef6f1643" />
      </defs>
      <g
         id="g265">
        <use
           height="293"
           width="432"
           id="use267"
           y="264.06"
           x="388.79999"
           xlink:href="#m20b58b2501143cb5e0a5e8f1ef6f1643"
           style="fill:none;stroke:#000000;stroke-width:0.5;stroke-linecap:butt;stroke-linejoin:round" />
      </g>
    </g>
    <g
       id="line2d18">
      <g
         id="g283">
        <use
           height="293"
           width="432"
           id="use285"
           y="230.52856"
           x="54"
           xlink:href="#m3400efa6b1638b3fea9e19e898273957"
           style="fill:none;stroke:#000000;stroke-width:0.5;stroke-linecap:butt;stroke-linejoin:round" />
      </g>
    </g>
    <g
       id="line2d19">
      <g
         id="g288">
        <use
           height="293"
           width="432"
           id="use290"
           y="230.52856"
           x="388.79999"
           xlink:href="#m20b58b2501143cb5e0a5e8f1ef6f1643"
           style="fill:none;stroke:#000000;stroke-width:0.5;stroke-linecap:butt;stroke-linejoin:round" />
      </g>
    </g>
    <g
       id="line2d20">
      <g
         id="g303">
        <use
           height="293"
           width="432"
           id="use305"
           y="196.99715"
           x="54"
           xlink:href="#m3400efa6b1638b3fea9e19e898273957"
           style="fill:none;stroke:#000000;stroke-width:0.5;stroke-linecap:butt;stroke-linejoin:round" />
      </g>
    </g>
    <g
       id="line2d21">
      <g
         id="g308">
        <use
           height="293"
           width="432"
           id="use310"
           y="196.99715"
           x="388.79999"
           xlink:href="#m20b58b2501143cb5e0a5e8f1ef6f1643"
           style="fill:none;stroke:#000000;stroke-width:0.5;stroke-linecap:butt;stroke-linejoin:round" />
      </g>
    </g>
    <g
       id="line2d22">
      <g
         id="g323">
        <use
           height="293"
           width="432"
           id="use325"
           y="163.46571"
           x="54"
           xlink:href="#m3400efa6b1638b3fea9e19e898273957"
           style="fill:none;stroke:#000000;stroke-width:0.5;stroke-linecap:butt;stroke-linejoin:round" />
      </g>
    </g>
    <g
       id="line2d23">
      <g
         id="g328">
        <use
           height="293"
           width="432"
           id="use330"
           y="163.46571"
           x="388.79999"
           xlink:href="#m20b58b2501143cb5e0a5e8f1ef6f1643"
           style="fill:none;stroke:#000000;stroke-width:0.5;stroke-linecap:butt;stroke-linejoin:round" />
      </g>
    </g>
    <g
       id="line2d24">
      <g
         id="g343">
        <use
           height="293"
           width="432"
           id="use345"
           y="129.93428"
           x="54"
           xlink:href="#m3400efa6b1638b3fea9e19e898273957"
           style="fill:none;stroke:#000000;stroke-width:0.5;stroke-linecap:butt;stroke-linejoin:round" />
      </g>
    </g>
    <g
       id="line2d25">
      <g
         id="g348">
        <use
           height="293"
           width="432"
           id="use350"
           y="129.93428"
           x="388.79999"
           xlink:href="#m20b58b2501143cb5e0a5e8f1ef6f1643"
           style="fill:none;stroke:#000000;stroke-width:0.5;stroke-linecap:butt;stroke-linejoin:round" />
      </g>
    </g>
    <g
       id="line2d26">
      <g
         id="g363">
        <use
           height="293"
           width="432"
           id="use365"
           y="96.402855"
           x="54"
           xlink:href="#m3400efa6b1638b3fea9e19e898273957"
           style="fill:none;stroke:#000000;stroke-width:0.5;stroke-linecap:butt;stroke-linejoin:round" />
      </g>
    </g>
    <g
       id="line2d27">
      <g
         id="g368">
        <use
           height="293"
           width="432"
           id="use370"
           y="96.402855"
           x="388.79999"
           xlink:href="#m20b58b2501143cb5e0a5e8f1ef6f1643"
           style="fill:none;stroke:#000000;stroke-width:0.5;stroke-linecap:butt;stroke-linejoin:round" />
      </g>
    </g>
    <g
       id="line2d28">
      <g
         id="g383">
        <use
           height="293"
           width="432"
           id="use385"
           y="62.871429"
           x="54"
           xlink:href="#m3400efa6b1638b3fea9e19e898273957"
           style="fill:none;stroke:#000000;stroke-width:0.5;stroke-linecap:butt;stroke-linejoin:round" />
      </g>
    </g>
    <g
       id="line2d29">
      <g
         id="g388">
        <use
           height="293"
           width="432"
           id="use390"
           y="62.871429"
           x="388.79999"
           xlink:href="#m20b58b2501143cb5e0a5e8f1ef6f1643"
           style="fill:none;stroke:#000000;stroke-width:0.5;stroke-linecap:butt;stroke-linejoin:round" />
      </g>
    </g>
    <g
       id="line2d30">
      <g
         id="g403">
        <use
           height="293"
           width="432"
           id="use405"
           y="29.34"
           x="54"
           xlink:href="#m3400efa6b1638b3fea9e19e898273957"
           style="fill:none;stroke:#000000;stroke-width:0.5;stroke-linecap:butt;stroke-linejoin:round" />
      </g>
    </g>
    <g
       id="line2d31">
      <g
         id="g408">
        <use
           height="293"
           width="432"
           id="use410"
           y="29.34"
           x="388.79999"
           xlink:href="#m20b58b2501143cb5e0a5e8f1ef6f1643"
           style="fill:none;stroke:#000000;stroke-width:0.5;stroke-linecap:butt;stroke-linejoin:round" />
      </g>
    </g>
    <g
       id="patch3">
      <path
         id="path450"
         d="m 54,29.34 334.8,0"
         style="fill:none;stroke:#000000;stroke-width:1;stroke-linecap:square;stroke-linejoin:round" />
    </g>
    <g
       id="patch4">
      <path
         id="path453"
         d="m 388.8,264.06 0,-234.72"
         style="fill:none;stroke:#000000;stroke-width:1;stroke-linecap:square;stroke-linejoin:round" />
    </g>
    <g
       id="patch5">
      <path
         id="path456"
         d="m 54,264.06 334.8,0"
         style="fill:none;stroke:#000000;stroke-width:1;stroke-linecap:square;stroke-linejoin:round" />
    </g>
    <g
       id="patch6">
      <path
         id="path459"
         d="M 54,264.06 54,29.34"
         style="fill:none;stroke:#000000;stroke-width:1;stroke-linecap:square;stroke-linejoin:round" />
    </g>
  </g>
  <g
     id="g3354"
     transform="matrix(2.1345957,0,0,2.8470505,-1075.5496,-398.07521)">
    <path
       style="fill:none;stroke:#da251d;stroke-width:0.99977762"
       id="path95"
       d="m 684.26871,149.15411 c -1.5327,31.97564 -3.4098,41.97204 -11.31732,58.15217 -4.81719,9.85695 -18.83563,21.88771 -24.24838,22.716"
       class="fil1 str0" />
    <polyline
       style="fill:none;stroke:#da251d;stroke-width:0.0138858"
       id="polyline97"
       points="2.3421,5.47724 3.50119,6.03991 4.01177,6.04101 "
       class="fil1 str0"
       transform="matrix(72,0,0,72,360.16011,-204.93036)" />
  </g>
  <path
     id="path7929-1"
     d="m 309.98172,257.71436 0.75421,-107.61303"
     style="fill:none;stroke:#000000;stroke-width:0.62030745;stroke-linecap:butt;stroke-linejoin:miter;stroke-miterlimit:4;stroke-opacity:1;stroke-dasharray:2.4812298, 1.2406149;stroke-dashoffset:0;marker-start:url(#Arrow1Lstart)" />
  <path
     style="fill:none;stroke:#000000;stroke-width:0.62030745;stroke-linecap:butt;stroke-linejoin:miter;stroke-miterlimit:4;stroke-opacity:1;stroke-dasharray:2.4812298, 1.2406149;stroke-dashoffset:0;marker-start:url(#Arrow1Lstart)"
     d="m 230.69937,257.71436 0.75421,-107.61303"
     id="path9173" />
  <g
     ns0:preamble=""
     ns0:text="$U(k)$"
     word-spacing="normal"
     letter-spacing="normal"
     font-size-adjust="none"
     font-stretch="normal"
     font-weight="normal"
     font-variant="normal"
     font-style="normal"
     stroke-miterlimit="10.433"
     xml:space="preserve"
     transform="matrix(0,-2.0427099,-2.0427099,0,1478.6884,616.32506)"
     id="g3104"
     style="font-style:normal;font-variant:normal;font-weight:normal;font-stretch:normal;letter-spacing:normal;word-spacing:normal;text-anchor:start;fill:none;stroke:#000000;stroke-linecap:butt;stroke-linejoin:miter;stroke-miterlimit:10.43299961;stroke-opacity:1;stroke-dasharray:none;stroke-dashoffset:0">
<path
   id="path3106"
   d="m 229.76,712.88 0.02,0.08 0.01,0.03 0.01,0.04 0.01,0.03 0.02,0.04 0.01,0.03 0.02,0.03 0.01,0.04 0.02,0.03 0.02,0.03 0.02,0.03 0.03,0.02 0.02,0.03 0.03,0.03 0.03,0.02 0.03,0.02 0.03,0.03 0.03,0.02 0.04,0.02 0.04,0.02 0.04,0.02 0.05,0.01 0.04,0.02 0.05,0.01 0.06,0.01 0.05,0.01 0.06,0.01 0.07,0.01 0.06,0.01 0.07,0 0.04,0.01 0.04,0 c 0.04,0 0.16,0.01 0.16,0.2 0,0.01 0,0.11 -0.12,0.11 -0.33,0 -0.68,-0.03 -1.02,-0.03 -0.34,0 -0.71,0.03 -1.04,0.03 -0.06,0 -0.18,0 -0.18,-0.2 0,-0.11 0.1,-0.11 0.18,-0.11 0.57,-0.01 0.68,-0.22 0.68,-0.44 0,-0.03 -0.02,-0.18 -0.03,-0.21 l -0.9,-3.56 c -0.34,-1.33 -1.48,-2.2 -2.48,-2.2 -0.68,0 -1.21,0.44 -1.21,1.3 0,0.02 0,0.34 0.11,0.77 l 0.96,3.88 c 0.09,0.36 0.11,0.46 0.84,0.46 0.26,0 0.34,0 0.34,0.2 0,0.11 -0.11,0.11 -0.14,0.11 -0.28,0 -1,-0.03 -1.28,-0.03 -0.28,0 -0.99,0.03 -1.28,0.03 -0.08,0 -0.19,0 -0.19,-0.2 0,-0.11 0.09,-0.11 0.28,-0.11 0.02,0 0.21,0 0.38,-0.02 0.18,-0.02 0.27,-0.03 0.27,-0.16 0,-0.06 -0.11,-0.48 -0.17,-0.71 l -0.22,-0.88 c -0.09,-0.38 -0.57,-2.27 -0.61,-2.46 -0.07,-0.28 -0.07,-0.42 -0.07,-0.57 0,-1.22 0.91,-1.92 1.95,-1.92 1.26,0 2.49,1.13 2.82,2.44 z"
   style="fill:#000000;stroke-width:0" />
<path
   id="path3108"
   d="m 234.62,704.73 0,0.01 0,0 0,0.01 0,0 0,0 0,0 0,0.01 -0.01,0 0,0.01 0,0 0,0 0,0.01 -0.01,0 0,0.01 -0.01,0 0,0.01 -0.01,0.01 0,0 0,0.01 -0.01,0 0,0.01 0,0 -0.01,0.01 0,0 -0.01,0 0,0.01 -0.01,0 0,0.01 -0.01,0 0,0.01 -0.01,0.01 0,0 -0.01,0.01 0,0 -0.01,0.01 -0.01,0.01 0,0 -0.01,0.01 -0.01,0.01 0,0.01 -0.01,0 -0.01,0.01 c -1.24,1.26 -1.56,3.14 -1.56,4.66 0,1.74 0.37,3.47 1.6,4.72 0.13,0.12 0.13,0.14 0.13,0.16 0,0.08 -0.04,0.1 -0.1,0.1 -0.1,0 -1,-0.67 -1.58,-1.94 -0.51,-1.09 -0.63,-2.2 -0.63,-3.04 0,-0.77 0.11,-1.98 0.66,-3.1 0.59,-1.23 1.45,-1.88 1.55,-1.88 0.06,0 0.1,0.03 0.1,0.1 z"
   style="fill:#000000;stroke-width:0" />
<path
   id="path3110"
   d="m 238.05,713.93 0,0 0,0 0,0 0,0 0,0 0,0.01 0,0 0,0 0,0.01 0,0 0,0.01 0,0 0,0.01 -0.01,0 0,0.01 0,0 0,0.01 -0.01,0 0,0.01 -0.01,0 0,0 0,0.01 0,0 -0.01,0 0,0 0,0.01 -0.01,0 0,0 0,0 -0.01,0 0,0 0,0.01 -0.01,0 0,0 -0.01,0 0,0 -0.01,0 0,0 0,0 -0.01,0.01 -0.01,0 0,0 -0.01,0 0,0 -0.01,0 c -0.23,0 -0.95,-0.08 -1.21,-0.1 -0.08,-0.01 -0.19,-0.02 -0.19,-0.2 0,-0.12 0.09,-0.12 0.24,-0.12 0.48,0 0.5,-0.07 0.5,-0.17 l -0.03,-0.2 -1.45,-5.74 c -0.04,-0.14 -0.04,-0.16 -0.04,-0.22 0,-0.23 0.2,-0.28 0.29,-0.28 0.13,0 0.28,0.09 0.34,0.21 0.05,0.09 0.5,1.94 0.56,2.18 0.33,-0.03 1.15,-0.18 1.15,-0.84 0,-0.07 0,-0.11 -0.03,-0.21 -0.02,-0.12 -0.04,-0.24 -0.04,-0.35 0,-0.59 0.4,-0.99 0.92,-0.99 0.3,0 0.57,0.16 0.79,0.53 0.24,0.44 0.35,0.99 0.35,1.01 0,0.1 -0.08,0.1 -0.11,0.1 -0.11,0 -0.11,-0.04 -0.14,-0.18 -0.2,-0.73 -0.43,-1.24 -0.87,-1.24 -0.19,0 -0.32,0.11 -0.32,0.47 0,0.17 0.04,0.4 0.08,0.56 0.04,0.17 0.04,0.21 0.04,0.31 0,0.65 -0.63,0.93 -1.48,1.04 0.31,0.18 0.63,0.5 0.86,0.74 0.48,0.53 0.94,0.96 1.43,0.96 0.06,0 0.07,0 0.09,-0.01 0.11,-0.02 0.12,-0.02 0.2,-0.08 0.03,-0.01 0.03,-0.02 0.05,-0.04 -0.48,-0.03 -0.57,-0.42 -0.57,-0.54 0,-0.16 0.11,-0.35 0.38,-0.35 0.25,0 0.54,0.22 0.54,0.61 0,0.3 -0.23,0.63 -0.67,0.63 -0.28,0 -0.74,-0.08 -1.46,-0.88 -0.34,-0.38 -0.73,-0.78 -1.1,-0.93 z"
   style="fill:#000000;stroke-width:0" />
<path
   id="path3112"
   d="m 243.58,709.61 0,0.08 0,0.07 -0.01,0.08 0,0.08 -0.01,0.17 -0.01,0.18 -0.02,0.18 -0.02,0.19 -0.02,0.2 -0.04,0.2 -0.04,0.2 -0.04,0.21 -0.06,0.21 -0.06,0.21 -0.07,0.21 -0.08,0.22 -0.04,0.1 -0.04,0.11 -0.05,0.11 -0.05,0.1 c -0.6,1.23 -1.46,1.87 -1.55,1.87 -0.07,0 -0.11,-0.04 -0.11,-0.1 0,-0.02 0,-0.04 0.2,-0.22 0.97,-0.99 1.54,-2.57 1.54,-4.66 0,-1.7 -0.37,-3.45 -1.6,-4.71 -0.14,-0.12 -0.14,-0.14 -0.14,-0.17 0,-0.06 0.04,-0.1 0.11,-0.1 0.09,0 0.99,0.68 1.58,1.95 0.51,1.09 0.63,2.2 0.63,3.03 z"
   style="fill:#000000;stroke-width:0" />
</g>  <g
     style="font-style:normal;font-variant:normal;font-weight:normal;font-stretch:normal;letter-spacing:normal;word-spacing:normal;text-anchor:start;fill:none;stroke:#000000;stroke-linecap:butt;stroke-linejoin:miter;stroke-miterlimit:10.43299961;stroke-opacity:1;stroke-dasharray:none;stroke-dashoffset:0"
     ns0:preamble=""
     ns0:text="$P_{min,k}$\n"
     text-anchor="start"
     word-spacing="normal"
     letter-spacing="normal"
     font-size-adjust="none"
     font-stretch="normal"
     font-weight="normal"
     font-variant="normal"
     font-style="normal"
     fill-opacity="1"
     fill-rule="evenodd"
     fill="none"
     stroke-opacity="1"
     stroke-dashoffset="0"
     stroke-dasharray="none"
     stroke-miterlimit="10.433"
     stroke-linejoin="miter"
     stroke-linecap="butt"
     stroke="black"
     xml:space="preserve"
     transform="matrix(2.0092074,0,0,-2.0092074,-246.22072,1562.9412)"
     id="g3282">
<path
   id="path3284"
   fill="black"
   stroke-width="0"
   d="M226.45,710.27 L226.49,710.53 L227.17,713.24 C227.26,713.59,227.28,713.62,227.71,713.62 H228.66 C229.49,713.62,230.02,713.35,230.02,712.66 C230.02,712.27,229.82,711.42,229.43,711.06 C228.93,710.61,228.33,710.53,227.9,710.53 H226.49 L226.45,710.27 H228.15 C229.56,710.27,230.94,711.31,230.94,712.42 C230.94,713.19,230.29,713.93,228.98,713.93 H225.75 C225.56,713.93,225.46,713.93,225.46,713.74 C225.46,713.62,225.54,713.62,225.74,713.62 C225.87,713.62,226.05,713.61,226.17,713.6 C226.33,713.58,226.39,713.55,226.39,713.44 C226.39,713.4,226.38,713.37,226.35,713.25 L225.02,707.9 C224.92,707.51,224.9,707.43,224.11,707.43 C223.94,707.43,223.83,707.43,223.83,707.24 C223.83,707.12,223.95,707.12,223.98,707.12 C224.26,707.12,224.97,707.15,225.25,707.15 C225.46,707.15,225.67,707.14,225.88,707.14 C226.1,707.14,226.32,707.12,226.53,707.12 C226.6,707.12,226.73,707.12,226.73,707.32 C226.73,707.43,226.64,707.43,226.45,707.43 C226.08,707.43,225.8,707.43,225.8,707.61 C225.8,707.67,225.82,707.72,225.83,707.78 Z " />
<path
   id="path3286"
   fill="black"
   stroke-width="0"
   d="M232.86,706.2 L232.85,706.18 L232.85,706.17 L232.85,706.15 L232.84,706.14 L232.84,706.12 L232.83,706.11 L232.83,706.08 L232.82,706.04 L232.81,706.01 L232.8,705.98 L232.8,705.96 L232.79,705.95 L232.79,705.93 L232.79,705.92 L232.78,705.91 L232.78,705.89 L232.78,705.88 L232.77,705.87 L232.77,705.85 L232.77,705.84 L232.77,705.83 L232.77,705.82 L232.76,705.81 L232.76,705.81 L232.76,705.8 L232.76,705.79 L232.76,705.79 L232.76,705.78 C232.76,705.63,232.88,705.56,233,705.56 C233.12,705.56,233.23,705.65,233.27,705.71 C233.3,705.78,233.36,706,233.39,706.15 C233.43,706.28,233.51,706.6,233.55,706.77 C233.59,706.93,233.63,707.08,233.67,707.24 C233.74,707.54,233.74,707.55,233.88,707.77 C234.1,708.11,234.45,708.51,235,708.51 C235.39,708.51,235.41,708.19,235.41,708.02 C235.41,707.6,235.11,706.83,235,706.54 C234.92,706.34,234.89,706.28,234.89,706.16 C234.89,705.79,235.2,705.56,235.55,705.56 C236.25,705.56,236.56,706.52,236.56,706.63 C236.56,706.72,236.47,706.72,236.45,706.72 C236.35,706.72,236.34,706.68,236.32,706.6 C236.15,706.04,235.85,705.76,235.58,705.76 C235.43,705.76,235.4,705.85,235.4,706 C235.4,706.16,235.44,706.25,235.56,706.57 C235.65,706.78,235.93,707.52,235.93,707.91 C235.93,708.02,235.93,708.32,235.67,708.52 C235.55,708.61,235.35,708.71,235.02,708.71 C234.4,708.71,234.01,708.29,233.79,708 C233.74,708.59,233.24,708.71,232.88,708.71 C232.31,708.71,231.91,708.35,231.71,708.07 C231.66,708.55,231.25,708.71,230.96,708.71 C230.66,708.71,230.5,708.49,230.41,708.33 C230.26,708.07,230.16,707.67,230.16,707.64 C230.16,707.55,230.26,707.55,230.28,707.55 C230.37,707.55,230.38,707.57,230.43,707.76 C230.53,708.17,230.67,708.51,230.94,708.51 C231.12,708.51,231.17,708.36,231.17,708.17 C231.17,708.04,231.11,707.78,231.06,707.59 C231.01,707.4,230.94,707.11,230.9,706.96 L230.68,706.07 C230.65,705.98,230.61,705.8,230.61,705.78 C230.61,705.63,230.74,705.56,230.85,705.56 C230.97,705.56,231.09,705.65,231.12,705.71 C231.15,705.78,231.21,706,231.25,706.15 C231.28,706.28,231.36,706.6,231.4,706.77 C231.44,706.93,231.48,707.08,231.52,707.24 C231.59,707.53,231.61,707.58,231.81,707.87 C232.01,708.15,232.33,708.51,232.86,708.51 C233.26,708.51,233.27,708.16,233.27,708.02 C233.27,707.85,233.25,707.76,233.15,707.37 Z " />
<path
   id="path3288"
   fill="black"
   stroke-width="0"
   d="M239.15,709.99 L239.15,710 L239.15,710.01 L239.15,710.02 L239.15,710.03 L239.15,710.04 L239.15,710.05 L239.14,710.07 L239.14,710.08 L239.13,710.09 L239.13,710.1 L239.12,710.11 L239.12,710.12 L239.11,710.13 L239.1,710.14 L239.1,710.15 L239.09,710.16 L239.08,710.17 L239.07,710.18 L239.06,710.19 L239.05,710.2 L239.04,710.21 L239.03,710.21 L239.01,710.22 L239,710.23 L238.99,710.23 L238.97,710.24 L238.96,710.24 L238.94,710.25 L238.93,710.25 L238.91,710.25 L238.89,710.25 L238.88,710.25 C238.69,710.25,238.49,710.07,238.49,709.87 C238.49,709.75,238.58,709.6,238.76,709.6 C238.97,709.6,239.15,709.8,239.15,709.99 Z " />
<path
   id="path3290"
   fill="black"
   stroke-width="0"
   d="M237.73,706.45 L237.73,706.43 L237.72,706.41 L237.71,706.38 L237.7,706.36 L237.7,706.34 L237.69,706.33 L237.69,706.31 L237.69,706.29 L237.68,706.27 L237.68,706.26 L237.67,706.24 L237.67,706.23 L237.67,706.22 L237.67,706.21 L237.67,706.2 L237.67,706.19 L237.67,706.17 L237.67,706.16 L237.67,706.15 C237.67,705.83,237.95,705.56,238.33,705.56 C239.03,705.56,239.34,706.52,239.34,706.63 C239.34,706.72,239.24,706.72,239.22,706.72 C239.13,706.72,239.12,706.68,239.09,706.6 C238.93,706.04,238.63,705.76,238.35,705.76 C238.21,705.76,238.18,705.85,238.18,706 C238.18,706.16,238.23,706.29,238.29,706.45 C238.36,706.63,238.44,706.82,238.51,707 C238.58,707.17,238.83,707.81,238.85,707.89 C238.88,707.96,238.9,708.04,238.9,708.11 C238.9,708.44,238.62,708.71,238.23,708.71 C237.54,708.71,237.22,707.76,237.22,707.64 C237.22,707.55,237.32,707.55,237.34,707.55 C237.44,707.55,237.45,707.58,237.47,707.66 C237.65,708.26,237.96,708.51,238.21,708.51 C238.32,708.51,238.39,708.45,238.39,708.27 C238.39,708.11,238.35,708,238.17,707.57 Z " />
<path
   id="path3292"
   fill="black"
   stroke-width="0"
   d="M240.57,706.07 L240.56,706.06 L240.56,706.05 L240.56,706.04 L240.55,706.03 L240.55,706.02 L240.55,706.01 L240.55,706 L240.54,705.99 L240.54,705.97 L240.53,705.94 L240.53,705.92 L240.52,705.9 L240.52,705.89 L240.52,705.88 L240.51,705.87 L240.51,705.86 L240.51,705.85 L240.51,705.84 L240.5,705.83 L240.5,705.82 L240.5,705.82 L240.5,705.81 L240.5,705.8 L240.5,705.8 L240.5,705.79 L240.5,705.79 L240.5,705.79 L240.5,705.79 L240.5,705.78 L240.5,705.78 C240.5,705.63,240.62,705.56,240.73,705.56 C240.86,705.56,240.97,705.65,241.01,705.71 C241.04,705.78,241.1,706,241.13,706.15 C241.17,706.28,241.24,706.6,241.28,706.77 C241.33,706.93,241.37,707.08,241.4,707.24 C241.48,707.53,241.49,707.58,241.7,707.87 C241.89,708.15,242.22,708.51,242.74,708.51 C243.15,708.51,243.15,708.16,243.15,708.02 C243.15,707.6,242.85,706.83,242.74,706.54 C242.66,706.34,242.64,706.28,242.64,706.16 C242.64,705.79,242.94,705.56,243.3,705.56 C244,705.56,244.3,706.52,244.3,706.63 C244.3,706.72,244.21,706.72,244.19,706.72 C244.1,706.72,244.09,706.68,244.06,706.6 C243.9,706.04,243.6,705.76,243.32,705.76 C243.17,705.76,243.15,705.85,243.15,706 C243.15,706.16,243.18,706.25,243.31,706.57 C243.39,706.78,243.68,707.52,243.68,707.91 C243.68,708.59,243.14,708.71,242.77,708.71 C242.19,708.71,241.8,708.35,241.59,708.07 C241.54,708.55,241.13,708.71,240.85,708.71 C240.54,708.71,240.38,708.49,240.29,708.33 C240.14,708.07,240.04,707.67,240.04,707.64 C240.04,707.55,240.14,707.55,240.16,707.55 C240.26,707.55,240.27,707.57,240.32,707.76 C240.42,708.17,240.55,708.51,240.82,708.51 C241.01,708.51,241.05,708.36,241.05,708.17 C241.05,708.04,240.99,707.78,240.94,707.59 C240.89,707.4,240.82,707.11,240.79,706.96 Z " />
<path
   id="path3294"
   fill="black"
   stroke-width="0"
   d="M246.11,705.74 L246.11,705.67 L246.11,705.6 L246.1,705.52 L246.1,705.44 L246.09,705.4 L246.08,705.37 L246.08,705.33 L246.07,705.29 L246.06,705.25 L246.05,705.21 L246.03,705.17 L246.02,705.13 L246,705.09 L245.99,705.05 L245.97,705.01 L245.95,704.96 L245.93,704.92 L245.91,704.88 L245.88,704.84 L245.85,704.8 L245.83,704.76 L245.8,704.72 L245.76,704.67 L245.73,704.63 L245.69,704.59 L245.65,704.55 L245.61,704.51 L245.57,704.47 C245.54,704.44,245.52,704.42,245.52,704.38 C245.52,704.33,245.58,704.28,245.62,704.28 C245.72,704.28,246.31,704.84,246.31,705.67 C246.31,706.1,246.14,706.43,245.82,706.43 C245.59,706.43,245.42,706.25,245.42,706.03 C245.42,705.81,245.58,705.63,245.83,705.63 C245.99,705.63,246.11,705.74,246.11,705.74 Z " />
<path
   id="path3296"
   fill="black"
   stroke-width="0"
   d="M249.19,710.26 L249.19,710.26 L249.19,710.26 L249.19,710.26 L249.19,710.26 L249.19,710.27 L249.19,710.27 L249.19,710.27 L249.19,710.27 L249.19,710.27 L249.19,710.28 L249.19,710.28 L249.2,710.28 L249.2,710.29 L249.2,710.29 L249.2,710.3 L249.2,710.3 L249.2,710.31 L249.2,710.31 L249.2,710.32 L249.21,710.33 L249.21,710.33 L249.21,710.34 L249.21,710.34 L249.21,710.35 L249.21,710.35 L249.21,710.35 L249.21,710.36 L249.21,710.36 L249.21,710.36 L249.21,710.36 L249.21,710.36 L249.22,710.37 L249.22,710.37 L249.22,710.37 L249.22,710.37 L249.22,710.37 L249.22,710.37 L249.22,710.37 L249.22,710.37 L249.22,710.37 C249.22,710.41,249.19,710.47,249.1,710.47 C248.96,710.47,248.39,710.41,248.21,710.4 C248.16,710.39,248.06,710.39,248.06,710.24 C248.06,710.14,248.16,710.14,248.24,710.14 C248.57,710.14,248.57,710.09,248.57,710.04 C248.57,709.99,248.56,709.95,248.55,709.88 L247.56,705.94 C247.53,705.81,247.53,705.8,247.53,705.78 C247.53,705.68,247.61,705.56,247.76,705.56 C247.95,705.56,248.04,705.7,248.09,705.85 C248.1,705.88,248.4,707.11,248.43,707.21 C248.92,707.16,249.32,707,249.32,706.63 C249.32,706.6,249.32,706.57,249.31,706.49 C249.28,706.39,249.28,706.35,249.28,706.28 C249.28,705.78,249.68,705.56,250.02,705.56 C250.69,705.56,250.9,706.62,250.9,706.63 C250.9,706.72,250.81,706.72,250.79,706.72 C250.69,706.72,250.69,706.68,250.65,706.55 C250.57,706.25,250.38,705.76,250.04,705.76 C249.85,705.76,249.79,705.93,249.79,706.12 C249.79,706.24,249.79,706.25,249.84,706.43 C249.84,706.45,249.87,706.57,249.87,706.65 C249.87,707.27,249.03,707.37,248.74,707.39 C248.94,707.51,249.2,707.74,249.32,707.85 C249.68,708.18,250.02,708.51,250.41,708.51 C250.5,708.51,250.59,708.49,250.65,708.42 C250.35,708.37,250.28,708.13,250.28,708.03 C250.28,707.88,250.4,707.77,250.56,707.77 C250.75,707.77,250.96,707.92,250.96,708.22 C250.96,708.45,250.79,708.71,250.42,708.71 C250.02,708.71,249.66,708.42,249.31,708.09 C249.01,707.81,248.78,707.6,248.5,707.48 Z " />
</g>  <g
     id="g3604"
     transform="matrix(1.8740486,0,0,-1.8740486,-138.96353,1466.9596)"
     xml:space="preserve"
     stroke="black"
     stroke-linecap="butt"
     stroke-linejoin="miter"
     stroke-miterlimit="10.433"
     stroke-dasharray="none"
     stroke-dashoffset="0"
     stroke-opacity="1"
     fill="none"
     fill-rule="evenodd"
     fill-opacity="1"
     font-style="normal"
     font-variant="normal"
     font-weight="normal"
     font-stretch="normal"
     font-size-adjust="none"
     letter-spacing="normal"
     word-spacing="normal"
     text-anchor="start"
     ns0:text="$P_{max,k}$\n"
     ns0:preamble=""
     style="font-style:normal;font-variant:normal;font-weight:normal;font-stretch:normal;letter-spacing:normal;word-spacing:normal;text-anchor:start;fill:none;stroke:#000000;stroke-linecap:butt;stroke-linejoin:miter;stroke-miterlimit:10.43299961;stroke-opacity:1;stroke-dasharray:none;stroke-dashoffset:0">
<path
   d="M226.45,710.27 L226.49,710.53 L227.17,713.24 C227.26,713.59,227.28,713.62,227.71,713.62 H228.66 C229.49,713.62,230.02,713.35,230.02,712.66 C230.02,712.27,229.82,711.42,229.43,711.06 C228.93,710.61,228.33,710.53,227.9,710.53 H226.49 L226.45,710.27 H228.15 C229.56,710.27,230.94,711.31,230.94,712.42 C230.94,713.19,230.29,713.93,228.98,713.93 H225.75 C225.56,713.93,225.46,713.93,225.46,713.74 C225.46,713.62,225.54,713.62,225.74,713.62 C225.87,713.62,226.05,713.61,226.17,713.6 C226.33,713.58,226.39,713.55,226.39,713.44 C226.39,713.4,226.38,713.37,226.35,713.25 L225.02,707.9 C224.92,707.51,224.9,707.43,224.11,707.43 C223.94,707.43,223.83,707.43,223.83,707.24 C223.83,707.12,223.95,707.12,223.98,707.12 C224.26,707.12,224.97,707.15,225.25,707.15 C225.46,707.15,225.67,707.14,225.88,707.14 C226.1,707.14,226.32,707.12,226.53,707.12 C226.6,707.12,226.73,707.12,226.73,707.32 C226.73,707.43,226.64,707.43,226.45,707.43 C226.08,707.43,225.8,707.43,225.8,707.61 C225.8,707.67,225.82,707.72,225.83,707.78 Z "
   stroke-width="0"
   fill="black"
   id="path3606" />
<path
   d="M232.86,706.2 L232.85,706.18 L232.85,706.17 L232.85,706.15 L232.84,706.14 L232.84,706.12 L232.83,706.11 L232.83,706.08 L232.82,706.04 L232.81,706.01 L232.8,705.98 L232.8,705.96 L232.79,705.95 L232.79,705.93 L232.79,705.92 L232.78,705.91 L232.78,705.89 L232.78,705.88 L232.77,705.87 L232.77,705.85 L232.77,705.84 L232.77,705.83 L232.77,705.82 L232.76,705.81 L232.76,705.81 L232.76,705.8 L232.76,705.79 L232.76,705.79 L232.76,705.78 C232.76,705.63,232.88,705.56,233,705.56 C233.12,705.56,233.23,705.65,233.27,705.71 C233.3,705.78,233.36,706,233.39,706.15 C233.43,706.28,233.51,706.6,233.55,706.77 C233.59,706.93,233.63,707.08,233.67,707.24 C233.74,707.54,233.74,707.55,233.88,707.77 C234.1,708.11,234.45,708.51,235,708.51 C235.39,708.51,235.41,708.19,235.41,708.02 C235.41,707.6,235.11,706.83,235,706.54 C234.92,706.34,234.89,706.28,234.89,706.16 C234.89,705.79,235.2,705.56,235.55,705.56 C236.25,705.56,236.56,706.52,236.56,706.63 C236.56,706.72,236.47,706.72,236.45,706.72 C236.35,706.72,236.34,706.68,236.32,706.6 C236.15,706.04,235.85,705.76,235.58,705.76 C235.43,705.76,235.4,705.85,235.4,706 C235.4,706.16,235.44,706.25,235.56,706.57 C235.65,706.78,235.93,707.52,235.93,707.91 C235.93,708.02,235.93,708.32,235.67,708.52 C235.55,708.61,235.35,708.71,235.02,708.71 C234.4,708.71,234.01,708.29,233.79,708 C233.74,708.59,233.24,708.71,232.88,708.71 C232.31,708.71,231.91,708.35,231.71,708.07 C231.66,708.55,231.25,708.71,230.96,708.71 C230.66,708.71,230.5,708.49,230.41,708.33 C230.26,708.07,230.16,707.67,230.16,707.64 C230.16,707.55,230.26,707.55,230.28,707.55 C230.37,707.55,230.38,707.57,230.43,707.76 C230.53,708.17,230.67,708.51,230.94,708.51 C231.12,708.51,231.17,708.36,231.17,708.17 C231.17,708.04,231.11,707.78,231.06,707.59 C231.01,707.4,230.94,707.11,230.9,706.96 L230.68,706.07 C230.65,705.98,230.61,705.8,230.61,705.78 C230.61,705.63,230.74,705.56,230.85,705.56 C230.97,705.56,231.09,705.65,231.12,705.71 C231.15,705.78,231.21,706,231.25,706.15 C231.28,706.28,231.36,706.6,231.4,706.77 C231.44,706.93,231.48,707.08,231.52,707.24 C231.59,707.53,231.61,707.58,231.81,707.87 C232.01,708.15,232.33,708.51,232.86,708.51 C233.26,708.51,233.27,708.16,233.27,708.02 C233.27,707.85,233.25,707.76,233.15,707.37 Z "
   stroke-width="0"
   fill="black"
   id="path3608" />
<path
   d="M239.84,708.29 L239.82,708.32 L239.81,708.34 L239.79,708.36 L239.78,708.38 L239.76,708.4 L239.75,708.42 L239.73,708.44 L239.71,708.46 L239.69,708.47 L239.67,708.49 L239.65,708.51 L239.63,708.53 L239.61,708.54 L239.59,708.56 L239.57,708.57 L239.55,708.59 L239.53,708.6 L239.5,708.61 L239.48,708.62 L239.46,708.64 L239.43,708.65 L239.41,708.66 L239.38,708.66 L239.35,708.67 L239.33,708.68 L239.3,708.69 L239.27,708.69 L239.24,708.7 L239.21,708.7 L239.18,708.7 L239.15,708.7 L239.12,708.71 V708.51 C239.61,708.51,239.74,707.98,239.74,707.9 C239.74,707.88,239.73,707.83,239.72,707.81 L239.39,706.5 C239.34,706.31,239.19,706.17,239.04,706.03 C238.97,705.98,238.69,705.76,238.39,705.76 C238.14,705.76,237.88,705.94,237.88,706.43 C237.88,706.8,238.09,707.57,238.25,707.85 C238.57,708.41,238.92,708.51,239.12,708.51 V708.71 C238.23,708.71,237.32,707.72,237.32,706.72 C237.32,706.04,237.77,705.56,238.37,705.56 C238.75,705.56,239.09,705.78,239.36,706.05 C239.5,705.63,239.9,705.56,240.08,705.56 C240.33,705.56,240.51,705.71,240.63,705.93 C240.79,706.2,240.88,706.6,240.88,706.63 C240.88,706.72,240.79,706.72,240.76,706.72 C240.67,706.72,240.66,706.69,240.61,706.5 C240.53,706.17,240.4,705.76,240.1,705.76 C239.92,705.76,239.87,705.91,239.87,706.1 C239.87,706.22,239.93,706.47,239.98,706.65 C240.03,706.84,240.1,707.12,240.13,707.28 L240.27,707.81 C240.31,707.99,240.4,708.32,240.4,708.35 C240.4,708.5,240.27,708.57,240.16,708.57 C240.04,708.57,239.88,708.49,239.84,708.29 Z "
   stroke-width="0"
   fill="black"
   id="path3610" />
<path
   d="M242.96,706.37 L242.95,706.35 L242.94,706.32 L242.94,706.3 L242.93,706.27 L242.91,706.25 L242.9,706.22 L242.89,706.2 L242.88,706.17 L242.86,706.15 L242.85,706.12 L242.83,706.1 L242.81,706.07 L242.8,706.05 L242.78,706.02 L242.76,706 L242.74,705.97 L242.72,705.95 L242.7,705.93 L242.67,705.91 L242.65,705.89 L242.62,705.87 L242.6,705.85 L242.57,705.83 L242.55,705.82 L242.52,705.8 L242.49,705.79 L242.46,705.78 L242.43,705.77 L242.4,705.77 L242.37,705.76 L242.34,705.76 L242.3,705.76 C242.28,705.76,242.07,705.76,241.93,705.85 C242.21,705.94,242.23,706.2,242.23,706.24 C242.23,706.39,242.12,706.49,241.96,706.49 C241.76,706.49,241.56,706.33,241.56,706.07 C241.56,705.72,241.95,705.56,242.29,705.56 C242.61,705.56,242.9,705.76,243.07,706.05 C243.24,705.69,243.62,705.56,243.9,705.56 C244.7,705.56,245.13,706.43,245.13,706.63 C245.13,706.72,245.04,706.72,245.02,706.72 C244.92,706.72,244.91,706.68,244.88,706.6 C244.74,706.12,244.32,705.76,243.93,705.76 C243.65,705.76,243.5,705.94,243.5,706.21 C243.5,706.39,243.67,707.03,243.87,707.8 C244.01,708.34,244.32,708.51,244.55,708.51 C244.56,708.51,244.78,708.51,244.93,708.41 C244.7,708.35,244.62,708.16,244.62,708.03 C244.62,707.88,244.74,707.77,244.9,707.77 C245.06,707.77,245.29,707.9,245.29,708.2 C245.29,708.59,244.84,708.71,244.56,708.71 C244.21,708.71,243.93,708.47,243.78,708.21 C243.66,708.5,243.34,708.71,242.95,708.71 C242.16,708.71,241.72,707.85,241.72,707.64 C241.72,707.55,241.82,707.55,241.84,707.55 C241.93,707.55,241.93,707.58,241.97,707.67 C242.14,708.21,242.58,708.51,242.92,708.51 C243.15,708.51,243.34,708.39,243.34,708.05 C243.34,707.91,243.26,707.56,243.2,707.33 Z "
   stroke-width="0"
   fill="black"
   id="path3612" />
<path
   d="M247.21,705.74 L247.21,705.67 L247.21,705.6 L247.2,705.52 L247.19,705.44 L247.18,705.4 L247.18,705.37 L247.17,705.33 L247.16,705.29 L247.15,705.25 L247.14,705.21 L247.13,705.17 L247.11,705.13 L247.1,705.09 L247.08,705.05 L247.07,705.01 L247.05,704.96 L247.02,704.92 L247,704.88 L246.98,704.84 L246.95,704.8 L246.92,704.76 L246.89,704.72 L246.86,704.67 L246.82,704.63 L246.79,704.59 L246.75,704.55 L246.71,704.51 L246.66,704.47 C246.64,704.44,246.62,704.42,246.62,704.38 C246.62,704.33,246.67,704.28,246.71,704.28 C246.81,704.28,247.4,704.84,247.4,705.67 C247.4,706.1,247.24,706.43,246.92,706.43 C246.69,706.43,246.52,706.25,246.52,706.03 C246.52,705.81,246.68,705.63,246.92,705.63 C247.09,705.63,247.2,705.74,247.21,705.74 Z "
   stroke-width="0"
   fill="black"
   id="path3614" />
<path
   d="M250.28,710.26 L250.28,710.26 L250.28,710.26 L250.28,710.26 L250.28,710.26 L250.28,710.27 L250.29,710.27 L250.29,710.27 L250.29,710.27 L250.29,710.27 L250.29,710.28 L250.29,710.28 L250.29,710.28 L250.29,710.29 L250.29,710.29 L250.29,710.3 L250.29,710.3 L250.3,710.31 L250.3,710.31 L250.3,710.32 L250.3,710.33 L250.3,710.33 L250.3,710.34 L250.3,710.34 L250.31,710.35 L250.31,710.35 L250.31,710.35 L250.31,710.36 L250.31,710.36 L250.31,710.36 L250.31,710.36 L250.31,710.36 L250.31,710.37 L250.31,710.37 L250.31,710.37 L250.31,710.37 L250.31,710.37 L250.31,710.37 L250.31,710.37 L250.31,710.37 L250.31,710.37 C250.31,710.41,250.28,710.47,250.2,710.47 C250.06,710.47,249.48,710.41,249.31,710.4 C249.25,710.39,249.15,710.39,249.15,710.24 C249.15,710.14,249.25,710.14,249.33,710.14 C249.67,710.14,249.67,710.09,249.67,710.04 C249.67,709.99,249.65,709.95,249.64,709.88 L248.66,705.94 C248.62,705.81,248.62,705.8,248.62,705.78 C248.62,705.68,248.71,705.56,248.86,705.56 C249.05,705.56,249.14,705.7,249.18,705.85 C249.2,705.88,249.49,707.11,249.52,707.21 C250.02,707.16,250.41,707,250.41,706.63 C250.41,706.6,250.41,706.57,250.4,706.49 C250.37,706.39,250.37,706.35,250.37,706.28 C250.37,705.78,250.78,705.56,251.11,705.56 C251.79,705.56,252,706.62,252,706.63 C252,706.72,251.91,706.72,251.89,706.72 C251.79,706.72,251.78,706.68,251.75,706.55 C251.66,706.25,251.48,705.76,251.13,705.76 C250.95,705.76,250.89,705.93,250.89,706.12 C250.89,706.24,250.89,706.25,250.93,706.43 C250.94,706.45,250.97,706.57,250.97,706.65 C250.97,707.27,250.13,707.37,249.84,707.39 C250.04,707.51,250.3,707.74,250.41,707.85 C250.77,708.18,251.12,708.51,251.51,708.51 C251.59,708.51,251.68,708.49,251.74,708.42 C251.44,708.37,251.38,708.13,251.38,708.03 C251.38,707.88,251.5,707.77,251.66,707.77 C251.85,707.77,252.05,707.92,252.05,708.22 C252.05,708.45,251.89,708.71,251.52,708.71 C251.12,708.71,250.76,708.42,250.4,708.09 C250.11,707.81,249.88,707.6,249.59,707.48 Z "
   stroke-width="0"
   fill="black"
   id="path3616" />
</g>  <g
     ns0:preamble=""
     ns0:text="$P_k (Watts)$\n"
     word-spacing="normal"
     letter-spacing="normal"
     font-size-adjust="none"
     font-stretch="normal"
     font-weight="normal"
     font-variant="normal"
     font-style="normal"
     stroke-miterlimit="10.433"
     xml:space="preserve"
     transform="matrix(1.5971493,0,0,-1.5971493,-164.15067,1410.5424)"
     id="g3616"
     style="font-style:normal;font-variant:normal;font-weight:normal;font-stretch:normal;letter-spacing:normal;word-spacing:normal;text-anchor:start;fill:none;stroke:#000000;stroke-linecap:butt;stroke-linejoin:miter;stroke-miterlimit:10.43299961;stroke-opacity:1;stroke-dasharray:none;stroke-dashoffset:0">
<path
   id="path3618"
   d="m 226.45,710.27 0.04,0.26 0.68,2.71 c 0.09,0.35 0.11,0.38 0.54,0.38 h 0.95 c 0.83,0 1.36,-0.27 1.36,-0.96 0,-0.39 -0.2,-1.24 -0.59,-1.6 -0.5,-0.45 -1.1,-0.53 -1.53,-0.53 h -1.41 l -0.04,-0.26 h 1.7 c 1.41,0 2.79,1.04 2.79,2.15 0,0.77 -0.65,1.51 -1.96,1.51 h -3.23 c -0.19,0 -0.29,0 -0.29,-0.19 0,-0.12 0.08,-0.12 0.28,-0.12 0.13,0 0.31,-0.01 0.43,-0.02 0.16,-0.02 0.22,-0.05 0.22,-0.16 0,-0.04 -0.01,-0.07 -0.04,-0.19 l -1.33,-5.35 c -0.1,-0.39 -0.12,-0.47 -0.91,-0.47 -0.17,0 -0.28,0 -0.28,-0.19 0,-0.12 0.12,-0.12 0.15,-0.12 0.28,0 0.99,0.03 1.27,0.03 0.21,0 0.42,-0.01 0.63,-0.01 0.22,0 0.44,-0.02 0.65,-0.02 0.07,0 0.2,0 0.2,0.2 0,0.11 -0.09,0.11 -0.28,0.11 -0.37,0 -0.65,0 -0.65,0.18 0,0.06 0.02,0.11 0.03,0.17 z"
   inkscape:connector-curvature="0"
   style="fill:#000000;stroke-width:0" />
<path
   id="path3620"
   d="m 232.01,710.26 0,0 0,0 0,0 0,0 0,0.01 0.01,0 0,0 0,0 0,0 0,0.01 0,0 0,0 0,0.01 0,0 0,0.01 0,0 0.01,0.01 0,0 0,0.01 0,0.01 0,0 0,0.01 0,0 0.01,0.01 0,0 0,0 0,0.01 0,0 0,0 0,0 0,0 0,0.01 0,0 0,0 0,0 0,0 0,0 0,0 0,0 0,0 c 0,0.04 -0.03,0.1 -0.11,0.1 -0.14,0 -0.72,-0.06 -0.89,-0.07 -0.06,-0.01 -0.16,-0.01 -0.16,-0.16 0,-0.1 0.1,-0.1 0.18,-0.1 0.34,0 0.34,-0.05 0.34,-0.1 0,-0.05 -0.02,-0.09 -0.03,-0.16 l -0.98,-3.94 c -0.04,-0.13 -0.04,-0.14 -0.04,-0.16 0,-0.1 0.09,-0.22 0.24,-0.22 0.19,0 0.28,0.14 0.32,0.29 0.02,0.03 0.32,1.26 0.34,1.36 0.5,-0.05 0.9,-0.21 0.9,-0.58 0,-0.03 0,-0.06 -0.02,-0.14 -0.03,-0.1 -0.03,-0.14 -0.03,-0.21 0,-0.5 0.41,-0.72 0.74,-0.72 0.68,0 0.89,1.06 0.89,1.07 0,0.09 -0.09,0.09 -0.11,0.09 -0.1,0 -0.11,-0.04 -0.14,-0.17 -0.09,-0.3 -0.27,-0.79 -0.62,-0.79 -0.18,0 -0.24,0.17 -0.24,0.36 0,0.12 0,0.13 0.04,0.31 0.01,0.02 0.04,0.14 0.04,0.22 0,0.62 -0.84,0.72 -1.13,0.74 0.2,0.12 0.46,0.35 0.58,0.46 0.35,0.33 0.7,0.66 1.09,0.66 0.08,0 0.17,-0.02 0.23,-0.09 -0.3,-0.05 -0.36,-0.29 -0.36,-0.39 0,-0.15 0.12,-0.26 0.28,-0.26 0.18,0 0.39,0.15 0.39,0.45 0,0.23 -0.16,0.49 -0.53,0.49 -0.4,0 -0.76,-0.29 -1.12,-0.62 -0.29,-0.28 -0.52,-0.49 -0.81,-0.61 z"
   inkscape:connector-curvature="0"
   style="fill:#000000;stroke-width:0" />
<path
   id="path3622"
   d="m 238.02,704.73 0,0.01 0,0 0,0.01 0,0 0,0 0,0 0,0.01 0,0 0,0.01 0,0 -0.01,0 0,0.01 0,0 -0.01,0.01 0,0 -0.01,0.01 0,0.01 -0.01,0 0,0.01 0,0 -0.01,0.01 0,0 0,0.01 -0.01,0 0,0 -0.01,0.01 0,0 -0.01,0.01 0,0 -0.01,0.01 0,0.01 -0.01,0 0,0.01 -0.01,0 0,0.01 -0.01,0.01 -0.01,0 0,0.01 -0.01,0.01 -0.01,0.01 -0.01,0 0,0.01 c -1.25,1.26 -1.57,3.14 -1.57,4.66 0,1.74 0.38,3.47 1.61,4.72 0.12,0.12 0.12,0.14 0.12,0.16 0,0.08 -0.03,0.1 -0.09,0.1 -0.1,0 -1,-0.67 -1.59,-1.94 -0.51,-1.09 -0.63,-2.2 -0.63,-3.04 0,-0.77 0.11,-1.98 0.66,-3.1 0.6,-1.23 1.46,-1.88 1.56,-1.88 0.06,0 0.09,0.03 0.09,0.1 z"
   inkscape:connector-curvature="0"
   style="fill:#000000;stroke-width:0" />
<path
   id="path3624"
   d="m 247.74,712.77 0.05,0.08 0.04,0.08 0.05,0.08 0.05,0.07 0.03,0.04 0.02,0.03 0.03,0.04 0.03,0.03 0.03,0.03 0.03,0.03 0.03,0.03 0.03,0.03 0.03,0.03 0.03,0.02 0.04,0.03 0.03,0.02 0.04,0.03 0.04,0.02 0.04,0.02 0.04,0.02 0.05,0.01 0.04,0.02 0.05,0.01 0.05,0.02 0.05,0.01 0.05,0.01 0.06,0 0.06,0.01 c 0.09,0.01 0.19,0.01 0.19,0.2 0,0.04 -0.04,0.11 -0.12,0.11 -0.24,0 -0.52,-0.03 -0.77,-0.03 -0.34,0 -0.71,0.03 -1.04,0.03 -0.06,0 -0.19,0 -0.19,-0.19 0,-0.11 0.09,-0.12 0.15,-0.12 0.24,-0.01 0.59,-0.09 0.59,-0.39 0,-0.11 -0.05,-0.19 -0.13,-0.33 l -2.69,-4.69 -0.37,4.94 c -0.01,0.2 -0.03,0.46 0.7,0.47 0.17,0 0.27,0 0.27,0.2 0,0.1 -0.11,0.11 -0.15,0.11 -0.4,0 -0.82,-0.03 -1.22,-0.03 -0.23,0 -0.81,0.03 -1.04,0.03 -0.06,0 -0.19,0 -0.19,-0.2 0,-0.11 0.1,-0.11 0.24,-0.11 0.44,0 0.51,-0.06 0.53,-0.25 l 0.06,-0.77 -2.53,-4.39 -0.37,5.05 c 0,0.12 0,0.35 0.75,0.36 0.1,0 0.21,0 0.21,0.2 0,0.11 -0.12,0.11 -0.14,0.11 -0.39,0 -0.81,-0.03 -1.22,-0.03 -0.35,0 -0.71,0.03 -1.05,0.03 -0.05,0 -0.18,0 -0.18,-0.19 0,-0.12 0.09,-0.12 0.25,-0.12 0.5,0 0.51,-0.09 0.53,-0.37 l 0.45,-6.09 c 0.01,-0.18 0.02,-0.26 0.16,-0.26 0.12,0 0.15,0.06 0.24,0.21 l 2.93,5.08 0.36,-5.03 c 0.02,-0.21 0.04,-0.26 0.16,-0.26 0.13,0 0.19,0.1 0.24,0.19 z"
   inkscape:connector-curvature="0"
   style="fill:#000000;stroke-width:0" />
<path
   id="path3626"
   d="m 253.11,710.89 -0.01,0.03 -0.02,0.04 -0.02,0.03 -0.02,0.03 -0.02,0.03 -0.02,0.03 -0.02,0.03 -0.02,0.03 -0.02,0.03 -0.03,0.03 -0.02,0.03 -0.03,0.02 -0.02,0.03 -0.03,0.02 -0.03,0.02 -0.02,0.03 -0.03,0.02 -0.03,0.02 -0.03,0.01 -0.03,0.02 -0.04,0.02 -0.03,0.01 -0.03,0.02 -0.04,0.01 -0.03,0.01 -0.04,0.01 -0.03,0.01 -0.04,0 -0.04,0.01 -0.04,0 -0.04,0.01 -0.04,0 0.01,-0.22 c 0.64,0 0.78,-0.82 0.78,-0.88 0,-0.06 -0.02,-0.12 -0.03,-0.17 l -0.49,-1.95 c -0.05,-0.18 -0.05,-0.2 -0.2,-0.37 -0.44,-0.55 -0.85,-0.71 -1.13,-0.71 -0.5,0 -0.64,0.55 -0.64,0.94 0,0.5 0.32,1.72 0.55,2.18 0.31,0.59 0.76,0.96 1.16,0.96 l -0.01,0.22 c -1.17,0 -2.4,-1.47 -2.4,-2.92 0,-0.94 0.54,-1.6 1.32,-1.6 0.2,0 0.7,0.04 1.3,0.75 0.08,-0.42 0.43,-0.75 0.9,-0.75 0.35,0 0.58,0.23 0.74,0.55 0.17,0.36 0.3,0.97 0.3,0.99 0,0.1 -0.09,0.1 -0.12,0.1 -0.1,0 -0.11,-0.04 -0.14,-0.18 -0.17,-0.65 -0.35,-1.24 -0.76,-1.24 -0.27,0 -0.3,0.26 -0.3,0.46 0,0.22 0.02,0.3 0.13,0.74 0.11,0.42 0.13,0.52 0.22,0.89 l 0.36,1.4 c 0.07,0.28 0.07,0.3 0.07,0.34 0,0.17 -0.12,0.27 -0.29,0.27 -0.24,0 -0.39,-0.22 -0.42,-0.44 z"
   inkscape:connector-curvature="0"
   style="fill:#000000;stroke-width:0" />
<path
   id="path3628"
   d="m 256.71,711.11 h 0.94 c 0.2,0 0.3,0 0.3,0.2 0,0.11 -0.1,0.11 -0.28,0.11 h -0.88 c 0.36,1.41 0.41,1.61 0.41,1.67 0,0.17 -0.12,0.27 -0.29,0.27 -0.03,0 -0.3,-0.01 -0.39,-0.36 l -0.39,-1.58 h -0.94 c -0.2,0 -0.3,0 -0.3,-0.19 0,-0.12 0.08,-0.12 0.28,-0.12 h 0.88 c -0.72,-2.83 -0.76,-3 -0.76,-3.18 0,-0.54 0.38,-0.92 0.92,-0.92 1.01,0 1.58,1.46 1.58,1.54 0,0.1 -0.08,0.1 -0.12,0.1 -0.09,0 -0.1,-0.03 -0.15,-0.14 -0.43,-1.04 -0.95,-1.28 -1.29,-1.28 -0.21,0 -0.31,0.13 -0.31,0.46 0,0.24 0.02,0.31 0.06,0.48 z"
   inkscape:connector-curvature="0"
   style="fill:#000000;stroke-width:0" />
<path
   id="path3630"
   d="m 260.32,711.11 h 0.93 c 0.2,0 0.3,0 0.3,0.2 0,0.11 -0.1,0.11 -0.28,0.11 h -0.88 c 0.36,1.41 0.41,1.61 0.41,1.67 0,0.17 -0.12,0.27 -0.29,0.27 -0.03,0 -0.31,-0.01 -0.39,-0.36 l -0.39,-1.58 h -0.94 c -0.2,0 -0.3,0 -0.3,-0.19 0,-0.12 0.08,-0.12 0.28,-0.12 h 0.88 c -0.72,-2.83 -0.76,-3 -0.76,-3.18 0,-0.54 0.38,-0.92 0.92,-0.92 1.01,0 1.58,1.46 1.58,1.54 0,0.1 -0.08,0.1 -0.12,0.1 -0.09,0 -0.1,-0.03 -0.15,-0.14 -0.43,-1.04 -0.95,-1.28 -1.29,-1.28 -0.21,0 -0.31,0.13 -0.31,0.46 0,0.24 0.02,0.31 0.06,0.48 z"
   inkscape:connector-curvature="0"
   style="fill:#000000;stroke-width:0" />
<path
   id="path3632"
   d="m 265.75,710.85 -0.03,0 -0.02,-0.01 -0.03,0 -0.02,0 -0.02,-0.01 -0.03,-0.01 -0.02,-0.01 -0.02,0 -0.02,-0.01 -0.02,-0.02 -0.02,-0.01 -0.02,-0.01 -0.02,-0.01 -0.02,-0.02 -0.02,-0.01 -0.01,-0.02 -0.02,-0.01 -0.01,-0.02 -0.02,-0.02 -0.01,-0.01 -0.01,-0.02 -0.01,-0.02 -0.01,-0.02 -0.01,-0.02 -0.01,-0.02 -0.01,-0.02 0,-0.02 -0.01,-0.02 0,-0.02 -0.01,-0.02 0,-0.02 0,-0.02 c 0,-0.14 0.09,-0.29 0.31,-0.29 0.22,0 0.46,0.17 0.46,0.56 0,0.45 -0.43,0.86 -1.19,0.86 -1.31,0 -1.68,-1.02 -1.68,-1.46 0,-0.78 0.74,-0.92 1.03,-0.98 0.51,-0.1 1.03,-0.21 1.03,-0.76 0,-0.26 -0.23,-1.1 -1.42,-1.1 -0.14,0 -0.91,0 -1.14,0.53 0.38,-0.05 0.63,0.25 0.63,0.53 0,0.23 -0.16,0.35 -0.37,0.35 -0.26,0 -0.56,-0.21 -0.56,-0.66 0,-0.57 0.57,-0.97 1.43,-0.97 1.61,0 2,1.21 2,1.66 0,0.36 -0.19,0.6 -0.31,0.72 -0.27,0.28 -0.56,0.33 -1,0.42 -0.35,0.08 -0.75,0.15 -0.75,0.6 0,0.29 0.24,0.9 1.11,0.9 0.25,0 0.75,-0.07 0.9,-0.46 z"
   inkscape:connector-curvature="0"
   style="fill:#000000;stroke-width:0" />
<path
   id="path3634"
   d="m 269.41,709.61 0,0.08 0,0.07 -0.01,0.08 0,0.08 -0.01,0.17 -0.01,0.18 -0.02,0.18 -0.02,0.19 -0.02,0.2 -0.04,0.2 -0.04,0.2 -0.04,0.21 -0.06,0.21 -0.06,0.21 -0.07,0.21 -0.08,0.22 -0.04,0.1 -0.04,0.11 -0.05,0.11 -0.05,0.1 c -0.6,1.23 -1.45,1.87 -1.55,1.87 -0.06,0 -0.1,-0.04 -0.1,-0.1 0,-0.02 0,-0.04 0.19,-0.22 0.97,-0.99 1.54,-2.57 1.54,-4.66 0,-1.7 -0.37,-3.45 -1.6,-4.71 -0.13,-0.12 -0.13,-0.14 -0.13,-0.17 0,-0.06 0.04,-0.1 0.1,-0.1 0.1,0 0.99,0.68 1.58,1.95 0.51,1.09 0.63,2.2 0.63,3.03 z"
   inkscape:connector-curvature="0"
   style="fill:#000000;stroke-width:0" />
</g></svg>
